  0
SECTION
  2
HEADER
  9
$ACADVER
  1
AC1015
  9
$ACADMAINTVER
 70
     6
  9
$DWGCODEPAGE
  3
ANSI_1252
  9
$INSBASE
 10
0.0
 20
0.0
 30
0.0
  9
$EXTMIN
 10
0.0
 20
0.0
 30
0.0
  9
$EXTMAX
 10
609.0
 20
450.0
 30
0.0
  9
$LIMMIN
 10
0.0
 20
0.0
  9
$LIMMAX
 10
609.0
 20
450.0
  9
$ORTHOMODE
 70
     0
  9
$REGENMODE
 70
     1
  9
$FILLMODE
 70
     1
  9
$QTEXTMODE
 70
     0
  9
$MIRRTEXT
 70
     1
  9
$LTSCALE
 40
1.0
  9
$ATTMODE
 70
     1
  9
$TEXTSIZE
 40
3.5
  9
$TRACEWID
 40
1.0
  9
$TEXTSTYLE
  7
Standard
  9
$CLAYER
  8
0
  9
$CELTYPE
  6
ByLayer
  9
$CECOLOR
 62
   256
  9
$CELTSCALE
 40
1.0
  9
$DISPSILH
 70
     0
  9
$DIMSCALE
 40
1.0
  9
$DIMASZ
 40
3.302
  9
$DIMEXO
 40
1.0
  9
$DIMDLI
 40
3.75
  9
$DIMRND
 40
0.0
  9
$DIMDLE
 40
0.0
  9
$DIMEXE
 40
1.0
  9
$DIMTP
 40
0.0
  9
$DIMTM
 40
0.0
  9
$DIMTXT
 40
3.5
  9
$DIMCEN
 40
2.5
  9
$DIMTSZ
 40
0.0
  9
$DIMTOL
 70
     0
  9
$DIMLIM
 70
     0
  9
$DIMTIH
 70
     1
  9
$DIMTOH
 70
     1
  9
$DIMSE1
 70
     0
  9
$DIMSE2
 70
     0
  9
$DIMTAD
 70
     1
  9
$DIMZIN
 70
     0
  9
$DIMBLK
  1

  9
$DIMASO
 70
     1
  9
$DIMSHO
 70
     1
  9
$DIMPOST
  1

  9
$DIMAPOST
  1

  9
$DIMALT
 70
     0
  9
$DIMALTD
 70
     3
  9
$DIMALTF
 40
0.0393700787
  9
$DIMLFAC
 40
1.0
  9
$DIMTOFL
 70
     1
  9
$DIMTVP
 40
0.0
  9
$DIMTIX
 70
     0
  9
$DIMSOXD
 70
     0
  9
$DIMSAH
 70
     0
  9
$DIMBLK1
  1

  9
$DIMBLK2
  1

  9
$DIMSTYLE
  2
ISO-25
  9
$DIMCLRD
 70
     0
  9
$DIMCLRE
 70
     0
  9
$DIMCLRT
 70
     0
  9
$DIMTFAC
 40
1.0
  9
$DIMGAP
 40
1.524
  9
$DIMJUST
 70
     0
  9
$DIMSD1
 70
     0
  9
$DIMSD2
 70
     0
  9
$DIMTOLJ
 70
     0
  9
$DIMTZIN
 70
     0
  9
$DIMALTZ
 70
     0
  9
$DIMALTTZ
 70
     0
  9
$DIMUPT
 70
     0
  9
$DIMDEC
 70
     2
  9
$DIMTDEC
 70
     2
  9
$DIMALTU
 70
     2
  9
$DIMALTTD
 70
     3
  9
$DIMTXSTY
  7
Standard
  9
$DIMAUNIT
 70
     0
  9
$DIMADEC
 70
     2
  9
$DIMALTRND
 40
0.0
  9
$DIMAZIN
 70
     0
  9
$DIMDSEP
 70
    44
  9
$DIMATFIT
 70
     3
  9
$DIMFRAC
 70
     0
  9
$DIMLDRBLK
  1

  9
$DIMLUNIT
 70
     2
  9
$DIMLWD
 70
    -2
  9
$DIMLWE
 70
    -2
  9
$DIMTMOVE
 70
     0
  9
$LUNITS
 70
     2
  9
$LUPREC
 70
     2
  9
$SKETCHINC
 40
1.0
  9
$FILLETRAD
 40
10.0
  9
$AUNITS
 70
     0
  9
$AUPREC
 70
     2
  9
$MENU
  1
.
  9
$ELEVATION
 40
0.0
  9
$PELEVATION
 40
0.0
  9
$THICKNESS
 40
0.0
  9
$LIMCHECK
 70
     0
  9
$CHAMFERA
 40
10.0
  9
$CHAMFERB
 40
10.0
  9
$CHAMFERC
 40
20.0
  9
$CHAMFERD
 40
0.0
  9
$SKPOLY
 70
     0
  9
$TDCREATE
 40
2456646.335042755
  9
$TDUCREATE
 40
2456646.543376088
  9
$TDUPDATE
 40
2456646.335042893
  9
$TDUUPDATE
 40
2456646.543376227
  9
$TDINDWG
 40
0.0000000116
  9
$TDUSRTIMER
 40
0.0000000116
  9
$USRTIMER
 70
     1
  9
$ANGBASE
 50
0.0
  9
$ANGDIR
 70
     0
  9
$PDMODE
 70
     0
  9
$PDSIZE
 40
-1.0
  9
$PLINEWID
 40
0.0
  9
$SPLFRAME
 70
     0
  9
$SPLINETYPE
 70
     6
  9
$SPLINESEGS
 70
     8
  9
$HANDSEED
  5
1EB
  9
$SURFTAB1
 70
     6
  9
$SURFTAB2
 70
     6
  9
$SURFTYPE
 70
     6
  9
$SURFU
 70
     6
  9
$SURFV
 70
     6
  9
$UCSBASE
  2

  9
$UCSNAME
  2

  9
$UCSORG
 10
0.0
 20
0.0
 30
0.0
  9
$UCSXDIR
 10
1.0
 20
0.0
 30
0.0
  9
$UCSYDIR
 10
0.0
 20
1.0
 30
0.0
  9
$UCSORTHOREF
  2

  9
$UCSORTHOVIEW
 70
     0
  9
$UCSORGTOP
 10
0.0
 20
0.0
 30
0.0
  9
$UCSORGBOTTOM
 10
0.0
 20
0.0
 30
0.0
  9
$UCSORGLEFT
 10
0.0
 20
0.0
 30
0.0
  9
$UCSORGRIGHT
 10
0.0
 20
0.0
 30
0.0
  9
$UCSORGFRONT
 10
0.0
 20
0.0
 30
0.0
  9
$UCSORGBACK
 10
0.0
 20
0.0
 30
0.0
  9
$PUCSBASE
  2

  9
$PUCSNAME
  2

  9
$PUCSORG
 10
0.0
 20
0.0
 30
0.0
  9
$PUCSXDIR
 10
1.0
 20
0.0
 30
0.0
  9
$PUCSYDIR
 10
0.0
 20
1.0
 30
0.0
  9
$PUCSORTHOREF
  2

  9
$PUCSORTHOVIEW
 70
     0
  9
$PUCSORGTOP
 10
0.0
 20
0.0
 30
0.0
  9
$PUCSORGBOTTOM
 10
0.0
 20
0.0
 30
0.0
  9
$PUCSORGLEFT
 10
0.0
 20
0.0
 30
0.0
  9
$PUCSORGRIGHT
 10
0.0
 20
0.0
 30
0.0
  9
$PUCSORGFRONT
 10
0.0
 20
0.0
 30
0.0
  9
$PUCSORGBACK
 10
0.0
 20
0.0
 30
0.0
  9
$USERI1
 70
     0
  9
$USERI2
 70
     0
  9
$USERI3
 70
     0
  9
$USERI4
 70
     0
  9
$USERI5
 70
     0
  9
$USERR1
 40
0.0
  9
$USERR2
 40
0.0
  9
$USERR3
 40
0.0
  9
$USERR4
 40
0.0
  9
$USERR5
 40
0.0
  9
$WORLDVIEW
 70
     1
  9
$SHADEDGE
 70
     3
  9
$SHADEDIF
 70
    70
  9
$TILEMODE
 70
     1
  9
$MAXACTVP
 70
    64
  9
$PINSBASE
 10
0.0
 20
0.0
 30
0.0
  9
$PLIMCHECK
 70
     0
  9
$PEXTMIN
 10
1.0000000000E+20
 20
1.0000000000E+20
 30
1.0000000000E+20
  9
$PEXTMAX
 10
-1.0000000000E+20
 20
-1.0000000000E+20
 30
-1.0000000000E+20
  9
$PLIMMIN
 10
0.0
 20
0.0
  9
$PLIMMAX
 10
420.0
 20
297.0
  9
$UNITMODE
 70
     0
  9
$VISRETAIN
 70
     1
  9
$PLINEGEN
 70
     0
  9
$PSLTSCALE
 70
     1
  9
$TREEDEPTH
 70
  3020
  9
$CMLSTYLE
  2
Standard
  9
$CMLJUST
 70
     0
  9
$CMLSCALE
 40
20.0
  9
$PROXYGRAPHICS
 70
     1
  9
$MEASUREMENT
 70
     1
  9
$CELWEIGHT
370
    -1
  9
$ENDCAPS
280
     0
  9
$JOINSTYLE
280
     0
  9
$LWDISPLAY
290
     1
  9
$INSUNITS
 70
     4
  9
$HYPERLINKBASE
  1

  9
$STYLESHEET
  1

  9
$XEDIT
290
     1
  9
$CEPSNTYPE
380
     0
  9
$PSTYLEMODE
290
     1
  9
$FINGERPRINTGUID
  2
{946A4D95-C85A-4A80-BC46-067B8983E94F}
  9
$VERSIONGUID
  2
{FAEB1C32-E019-11D5-929B-00C0DF256EC4}
  9
$EXTNAMES
290
     1
  9
$PSVPSCALE
 40
0.0
  9
$OLESTARTUP
290
     0
  0
ENDSEC
  0
SECTION
  2
CLASSES
  0
CLASS
  1
ACDBDICTIONARYWDFLT
  2
AcDbDictionaryWithDefault
  3
ObjectDBX Classes
 90
        0
280
     0
281
     0
  0
CLASS
  1
VISUALSTYLE
  2
AcDbVisualStyle
  3
ObjectDBX Classes
 90
     4095
280
     0
281
     0
  0
CLASS
  1
MATERIAL
  2
AcDbMaterial
  3
ObjectDBX Classes
 90
     1153
280
     0
281
     0
  0
CLASS
  1
ACDBPLACEHOLDER
  2
AcDbPlaceHolder
  3
ObjectDBX Classes
 90
        0
280
     0
281
     0
  0
CLASS
  1
LAYOUT
  2
AcDbLayout
  3
ObjectDBX Classes
 90
        0
280
     0
281
     0
  0
ENDSEC
  0
SECTION
  2
TABLES
  0
TABLE
  2
VPORT
  5
8
330
0
100
AcDbSymbolTable
 70
     1
  0
VPORT
  5
29
330
8
100
AcDbSymbolTableRecord
100
AcDbViewportTableRecord
  2
*Active
 70
     0
 10
0.0
 20
0.0
 11
1.0
 21
1.0
 12
304.5
 22
225.0
 13
0.0
 23
0.0
 14
10.0
 24
10.0
 15
10.0
 25
10.0
 16
0.0
 26
0.0
 36
1.0
 17
0.0
 27
0.0
 37
0.0
 40
450.0
 41
1.3533333333
 42
50.0
 43
0.0
 44
0.0
 50
0.0
 51
0.0
 71
     0
 72
  2000
 73
     1
 74
     3
 75
     0
 76
     0
 77
     0
 78
     0
281
     0
 65
     1
110
0.0
120
0.0
130
0.0
111
1.0
121
0.0
131
0.0
112
0.0
122
1.0
132
0.0
 79
     0
146
0.0
  0
ENDTAB
  0
TABLE
  2
LTYPE
  5
5
330
0
100
AcDbSymbolTable
 70
     6
  0
LTYPE
  5
14
330
5
100
AcDbSymbolTableRecord
100
AcDbLinetypeTableRecord
  2
ByBlock
 70
     0
  3

 72
    65
 73
     0
 40
0.0
  0
LTYPE
  5
15
330
5
100
AcDbSymbolTableRecord
100
AcDbLinetypeTableRecord
  2
ByLayer
 70
     0
  3

 72
    65
 73
     0
 40
0.0
  0
LTYPE
  5
16
330
5
100
AcDbSymbolTableRecord
100
AcDbLinetypeTableRecord
  2
Continuous
 70
     0
  3
Solid line
 72
    65
 73
     0
 40
0.0
  0
LTYPE
  5
3F
330
5
100
AcDbSymbolTableRecord
100
AcDbLinetypeTableRecord
  2
HIDDEN
 70
     0
  3
Hidden __ __ __ __ __ __ __ __ __ __ __ __ __ __
 72
    65
 73
     2
 40
1.905
 49
1.27
 74
     0
 49
-0.635
 74
     0
  0
LTYPE
  5
40
330
5
100
AcDbSymbolTableRecord
100
AcDbLinetypeTableRecord
  2
PHANTOM
 70
     0
  3
Phantom ______  __  __  ______  __  __  ______
 72
    65
 73
     6
 40
12.7
 49
6.35
 74
     0
 49
-1.27
 74
     0
 49
1.27
 74
     0
 49
-1.27
 74
     0
 49
1.27
 74
     0
 49
-1.27
 74
     0
  0
LTYPE
  5
41
330
5
100
AcDbSymbolTableRecord
100
AcDbLinetypeTableRecord
  2
CENTER
 70
     0
  3
Center ____ _ ____ _ ____ _ ____ _ ____ _ ____
 72
    65
 73
     4
 40
10.16
 49
6.35
 74
     0
 49
-1.27
 74
     0
 49
1.27
 74
     0
 49
-1.27
 74
     0
  0
LTYPE
  5
42
330
5
100
AcDbSymbolTableRecord
100
AcDbLinetypeTableRecord
  2
CENTERX2
 70
     0
  3
Center (2x) ________  __  ________  __  _____
 72
    65
 73
     4
 40
20.32
 49
12.7
 74
     0
 49
-2.54
 74
     0
 49
2.54
 74
     0
 49
-2.54
 74
     0
  0
LTYPE
  5
43
330
5
100
AcDbSymbolTableRecord
100
AcDbLinetypeTableRecord
  2
DOT2
 70
     0
  3
Dot (.5x) ........................................
 72
    65
 73
     2
 40
0.635
 49
0.0
 74
     0
 49
-0.635
 74
     0
  0
ENDTAB
  0
TABLE
  2
LAYER
  5
2
330
0
100
AcDbSymbolTable
 70
     1
  0
LAYER
  5
10
330
2
100
AcDbSymbolTableRecord
100
AcDbLayerTableRecord
  2
0
 70
     0
 62
     7
  6
Continuous
370
    -3
390
F
  0
ENDTAB
  0
TABLE
  2
STYLE
  5
3
330
0
100
AcDbSymbolTable
 70
     2
  0
STYLE
  5
11
330
3
100
AcDbSymbolTableRecord
100
AcDbTextStyleTableRecord
  2
Standard
 70
     0
 40
0.0
 41
1.0
 50
0.0
 71
     0
 42
3.5
  3
txt
  4

  0
STYLE
  5
1E8
330
3
100
AcDbSymbolTableRecord
100
AcDbTextStyleTableRecord
  2
SLDTEXTSTYLE0
 70
     0
 40
0.0
 41
0.7
 50
0.0
 71
     0
 42
0.2
  3
TXT
  4

  0
ENDTAB
  0
TABLE
  2
VIEW
  5
6
330
0
100
AcDbSymbolTable
 70
     0
  0
ENDTAB
  0
TABLE
  2
UCS
  5
7
330
0
100
AcDbSymbolTable
 70
     0
  0
ENDTAB
  0
TABLE
  2
APPID
  5
9
330
0
100
AcDbSymbolTable
 70
     1
  0
APPID
  5
12
330
9
100
AcDbSymbolTableRecord
100
AcDbRegAppTableRecord
  2
ACAD
 70
     0
  0
ENDTAB
  0
TABLE
  2
DIMSTYLE
  5
A
330
0
100
AcDbSymbolTable
 70
     1
100
AcDbDimStyleTable
  0
DIMSTYLE
105
27
330
A
100
AcDbSymbolTableRecord
100
AcDbDimStyleTableRecord
  2
ISO-25
 70
     0
 41
2.5
 42
0.625
 43
3.75
 44
1.25
 73
     0
 74
     0
 77
     1
 78
     8
140
2.5
141
2.5
143
0.0393700787
147
0.625
171
     3
172
     1
178
     0
271
     2
272
     2
274
     3
278
    44
283
     0
284
     8
340
11
  0
ENDTAB
  0
TABLE
  2
BLOCK_RECORD
  5
1
330
0
100
AcDbSymbolTable
 70
     1
  0
BLOCK_RECORD
  5
1F
330
1
100
AcDbSymbolTableRecord
100
AcDbBlockTableRecord
  2
*Model_Space
340
22
  0
BLOCK_RECORD
  5
1B
330
1
100
AcDbSymbolTableRecord
100
AcDbBlockTableRecord
  2
*Paper_Space
340
1E
  0
BLOCK_RECORD
  5
23
330
1
100
AcDbSymbolTableRecord
100
AcDbBlockTableRecord
  2
*Paper_Space0
340
26
  0
ENDTAB
  0
ENDSEC
  0
SECTION
  2
BLOCKS
  0
BLOCK
  5
20
330
1F
100
AcDbEntity
  8
0
100
AcDbBlockBegin
  2
*Model_Space
 70
     0
 10
0.0
 20
0.0
 30
0.0
  3
*Model_Space
  1

  0
ENDBLK
  5
21
330
1F
100
AcDbEntity
  8
0
100
AcDbBlockEnd
  0
BLOCK
  5
1C
330
1B
100
AcDbEntity
 67
     1
  8
0
100
AcDbBlockBegin
  2
*Paper_Space
 70
     0
 10
0.0
 20
0.0
 30
0.0
  3
*Paper_Space
  1

  0
ENDBLK
  5
1D
330
1B
100
AcDbEntity
 67
     1
  8
0
100
AcDbBlockEnd
  0
BLOCK
  5
24
330
23
100
AcDbEntity
  8
0
100
AcDbBlockBegin
  2
*Paper_Space0
 70
     0
 10
0.0
 20
0.0
 30
0.0
  3
*Paper_Space0
  1

  0
ENDBLK
  5
25
330
23
100
AcDbEntity
  8
0
100
AcDbBlockEnd
  0
ENDSEC
  0
SECTION
  2
ENTITIES
  0
LINE
  5
44
330
1F
100
AcDbEntity
  8
0
  6
Continuous
 62
     7
370
     0
100
AcDbLine
 10
276.0497504783
 20
337.3386991208
 30
0.0
 11
276.0497504783
 21
347.3387044853
 31
0.0
  0
LINE
  5
45
330
1F
100
AcDbEntity
  8
0
  6
Continuous
 62
     7
370
     0
100
AcDbLine
 10
276.0497504783
 20
337.3386991208
 30
0.0
 11
281.6497409654
 21
337.3386991208
 31
0.0
  0
LINE
  5
46
330
1F
100
AcDbEntity
  8
0
  6
Continuous
 62
     7
370
     0
100
AcDbLine
 10
281.6497409654
 20
337.3386991208
 30
0.0
 11
281.6497409654
 21
347.3387044853
 31
0.0
  0
LINE
  5
47
330
1F
100
AcDbEntity
  8
0
  6
Continuous
 62
     7
370
     0
100
AcDbLine
 10
276.0497504783
 20
347.3387044853
 30
0.0
 11
281.6497409654
 21
347.3387044853
 31
0.0
  0
LINE
  5
48
330
1F
100
AcDbEntity
  8
0
  6
Continuous
 62
     7
370
     0
100
AcDbLine
 10
276.0497504783
 20
277.3387023246
 30
0.0
 11
281.6497409654
 21
277.3387023246
 31
0.0
  0
LINE
  5
49
330
1F
100
AcDbEntity
  8
0
  6
Continuous
 62
     7
370
     0
100
AcDbLine
 10
281.6497409654
 20
277.3387023246
 30
0.0
 11
281.6497409654
 21
287.3387021011
 31
0.0
  0
LINE
  5
4A
330
1F
100
AcDbEntity
  8
0
  6
Continuous
 62
     7
370
     0
100
AcDbLine
 10
276.0497504783
 20
287.3387021011
 30
0.0
 11
281.6497409654
 21
287.3387021011
 31
0.0
  0
LINE
  5
4B
330
1F
100
AcDbEntity
  8
0
  6
Continuous
 62
     7
370
     0
100
AcDbLine
 10
276.0497504783
 20
277.3387023246
 30
0.0
 11
276.0497504783
 21
287.3387021011
 31
0.0
  0
LINE
  5
4C
330
1F
100
AcDbEntity
  8
0
  6
Continuous
 62
     7
370
     0
100
AcDbLine
 10
182.8897433294
 20
337.3386991208
 30
0.0
 11
182.8897433294
 21
347.3387044853
 31
0.0
  0
LINE
  5
4D
330
1F
100
AcDbEntity
  8
0
  6
Continuous
 62
     7
370
     0
100
AcDbLine
 10
188.4897449923
 20
337.3386991208
 30
0.0
 11
182.8897433294
 21
337.3386991208
 31
0.0
  0
LINE
  5
4E
330
1F
100
AcDbEntity
  8
0
  6
Continuous
 62
     7
370
     0
100
AcDbLine
 10
188.4897449923
 20
337.3386991208
 30
0.0
 11
188.4897449923
 21
347.3387044853
 31
0.0
  0
LINE
  5
4F
330
1F
100
AcDbEntity
  8
0
  6
Continuous
 62
     7
370
     0
100
AcDbLine
 10
188.4897449923
 20
347.3387044853
 30
0.0
 11
182.8897433294
 21
347.3387044853
 31
0.0
  0
LINE
  5
50
330
1F
100
AcDbEntity
  8
0
  6
Continuous
 62
     7
370
     0
100
AcDbLine
 10
188.4897449923
 20
287.3387021011
 30
0.0
 11
182.8897433294
 21
287.3387021011
 31
0.0
  0
LINE
  5
51
330
1F
100
AcDbEntity
  8
0
  6
Continuous
 62
     7
370
     0
100
AcDbLine
 10
182.8897433294
 20
277.3387023246
 30
0.0
 11
182.8897433294
 21
287.3387021011
 31
0.0
  0
LINE
  5
52
330
1F
100
AcDbEntity
  8
0
  6
Continuous
 62
     7
370
     0
100
AcDbLine
 10
188.4897449923
 20
277.3387023246
 30
0.0
 11
182.8897433294
 21
277.3387023246
 31
0.0
  0
LINE
  5
53
330
1F
100
AcDbEntity
  8
0
  6
Continuous
 62
     7
370
     0
100
AcDbLine
 10
188.4897449923
 20
277.3387023246
 30
0.0
 11
188.4897449923
 21
287.3387021011
 31
0.0
  0
LINE
  5
54
330
1F
100
AcDbEntity
  8
0
  6
Continuous
 62
     7
370
     0
100
AcDbLine
 10
188.4897449923
 20
327.338701207
 30
0.0
 11
182.8897433294
 21
327.338701207
 31
0.0
  0
LINE
  5
55
330
1F
100
AcDbEntity
  8
0
  6
Continuous
 62
     7
370
     0
100
AcDbLine
 10
182.8897433294
 20
317.3387032932
 30
0.0
 11
182.8897433294
 21
327.338701207
 31
0.0
  0
LINE
  5
56
330
1F
100
AcDbEntity
  8
0
  6
Continuous
 62
     7
370
     0
100
AcDbLine
 10
188.4897449923
 20
317.3387032932
 30
0.0
 11
182.8897433294
 21
317.3387032932
 31
0.0
  0
LINE
  5
57
330
1F
100
AcDbEntity
  8
0
  6
Continuous
 62
     7
370
     0
100
AcDbLine
 10
188.4897449923
 20
317.3387032932
 30
0.0
 11
188.4897449923
 21
327.338701207
 31
0.0
  0
LINE
  5
58
330
1F
100
AcDbEntity
  8
0
  6
Continuous
 62
     7
370
     0
100
AcDbLine
 10
182.8897433294
 20
357.3387023991
 30
0.0
 11
182.8897433294
 21
367.3387003129
 31
0.0
  0
LINE
  5
59
330
1F
100
AcDbEntity
  8
0
  6
Continuous
 62
     7
370
     0
100
AcDbLine
 10
188.4897449923
 20
357.3387023991
 30
0.0
 11
182.8897433294
 21
357.3387023991
 31
0.0
  0
LINE
  5
5A
330
1F
100
AcDbEntity
  8
0
  6
Continuous
 62
     7
370
     0
100
AcDbLine
 10
188.4897449923
 20
357.3387023991
 30
0.0
 11
188.4897449923
 21
367.3387003129
 31
0.0
  0
LINE
  5
5B
330
1F
100
AcDbEntity
  8
0
  6
Continuous
 62
     7
370
     0
100
AcDbLine
 10
188.4897449923
 20
367.3387003129
 30
0.0
 11
182.8897433294
 21
367.3387003129
 31
0.0
  0
LINE
  5
5C
330
1F
100
AcDbEntity
  8
0
  6
Continuous
 62
     7
370
     0
100
AcDbLine
 10
182.8897433294
 20
297.3387037402
 30
0.0
 11
182.8897433294
 21
307.338701654
 31
0.0
  0
LINE
  5
5D
330
1F
100
AcDbEntity
  8
0
  6
Continuous
 62
     7
370
     0
100
AcDbLine
 10
188.4897449923
 20
297.3387037402
 30
0.0
 11
182.8897433294
 21
297.3387037402
 31
0.0
  0
LINE
  5
5E
330
1F
100
AcDbEntity
  8
0
  6
Continuous
 62
     7
370
     0
100
AcDbLine
 10
188.4897449923
 20
297.3387037402
 30
0.0
 11
188.4897449923
 21
307.338701654
 31
0.0
  0
LINE
  5
5F
330
1F
100
AcDbEntity
  8
0
  6
Continuous
 62
     7
370
     0
100
AcDbLine
 10
188.4897449923
 20
307.338701654
 30
0.0
 11
182.8897433294
 21
307.338701654
 31
0.0
  0
ARC
  5
60
330
1F
100
AcDbEntity
  8
0
  6
Continuous
 62
     7
370
     0
100
AcDbCircle
 10
362.3897432299
 20
411.8387027221
 30
0.0
 40
11.50000000000006
100
AcDbArc
 50
90.0
 51
270.0
  0
LINE
  5
61
330
1F
100
AcDbEntity
  8
0
  6
Continuous
 62
     7
370
     0
100
AcDbLine
 10
372.3897362066
 20
400.3387001341
 30
0.0
 11
362.3897457433
 21
400.3387001341
 31
0.0
  0
ARC
  5
62
330
1F
100
AcDbEntity
  8
0
  6
Continuous
 62
     7
370
     0
100
AcDbCircle
 10
372.3897432299
 20
411.8387027221
 30
0.0
 40
11.50000000000006
100
AcDbArc
 50
270.0
 51
90.0
  0
LINE
  5
63
330
1F
100
AcDbEntity
  8
0
  6
Continuous
 62
     7
370
     0
100
AcDbLine
 10
362.3897457433
 20
423.3387020415
 30
0.0
 11
372.3897362066
 21
423.3387020415
 31
0.0
  0
ARC
  5
64
330
1F
100
AcDbEntity
  8
0
  6
Continuous
 62
     7
370
     0
100
AcDbCircle
 10
377.8897432299
 20
427.3387027221
 30
0.0
 40
1.750000000000057
100
AcDbArc
 50
90.0
 51
270.0
  0
LINE
  5
65
330
1F
100
AcDbEntity
  8
0
  6
Continuous
 62
     7
370
     0
100
AcDbLine
 10
387.8897452665
 20
425.5887028759
 30
0.0
 11
377.8897399021
 21
425.5887028759
 31
0.0
  0
ARC
  5
66
330
1F
100
AcDbEntity
  8
0
  6
Continuous
 62
     7
370
     0
100
AcDbCircle
 10
387.8897432299
 20
427.3387027221
 30
0.0
 40
1.750000000000057
100
AcDbArc
 50
270.0
 51
90.0
  0
LINE
  5
67
330
1F
100
AcDbEntity
  8
0
  6
Continuous
 62
     7
370
     0
100
AcDbLine
 10
377.8897399021
 20
429.0887025183
 30
0.0
 11
387.8897452665
 21
429.0887025183
 31
0.0
  0
ARC
  5
68
330
1F
100
AcDbEntity
  8
0
  6
Continuous
 62
     7
370
     0
100
AcDbCircle
 10
346.8897432299
 20
427.3387027221
 30
0.0
 40
1.750000000000057
100
AcDbArc
 50
90.0
 51
270.0
  0
LINE
  5
69
330
1F
100
AcDbEntity
  8
0
  6
Continuous
 62
     7
370
     0
100
AcDbLine
 10
356.8897420479
 20
425.5887028759
 30
0.0
 11
346.8897366834
 21
425.5887028759
 31
0.0
  0
ARC
  5
6A
330
1F
100
AcDbEntity
  8
0
  6
Continuous
 62
     7
370
     0
100
AcDbCircle
 10
356.8897432299
 20
427.3387027221
 30
0.0
 40
1.750000000000057
100
AcDbArc
 50
270.0
 51
90.0
  0
LINE
  5
6B
330
1F
100
AcDbEntity
  8
0
  6
Continuous
 62
     7
370
     0
100
AcDbLine
 10
346.8897366834
 20
429.0887025183
 30
0.0
 11
356.8897420479
 21
429.0887025183
 31
0.0
  0
ARC
  5
6C
330
1F
100
AcDbEntity
  8
0
  6
Continuous
 62
     7
370
     0
100
AcDbCircle
 10
346.8897432299
 20
396.3387027221
 30
0.0
 40
1.750000000000057
100
AcDbArc
 50
90.0
 51
270.0
  0
LINE
  5
6D
330
1F
100
AcDbEntity
  8
0
  6
Continuous
 62
     7
370
     0
100
AcDbLine
 10
356.8897420479
 20
394.5886996573
 30
0.0
 11
346.8897366834
 21
394.5886996573
 31
0.0
  0
ARC
  5
6E
330
1F
100
AcDbEntity
  8
0
  6
Continuous
 62
     7
370
     0
100
AcDbCircle
 10
356.8897432299
 20
396.3387027221
 30
0.0
 40
1.750000000000057
100
AcDbArc
 50
270.0
 51
90.0
  0
LINE
  5
6F
330
1F
100
AcDbEntity
  8
0
  6
Continuous
 62
     7
370
     0
100
AcDbLine
 10
346.8897366834
 20
398.0886992997
 30
0.0
 11
356.8897420479
 21
398.0886992997
 31
0.0
  0
ARC
  5
70
330
1F
100
AcDbEntity
  8
0
  6
Continuous
 62
     7
370
     0
100
AcDbCircle
 10
377.8897432299
 20
396.3387027221
 30
0.0
 40
1.750000000000057
100
AcDbArc
 50
90.0
 51
270.0
  0
LINE
  5
71
330
1F
100
AcDbEntity
  8
0
  6
Continuous
 62
     7
370
     0
100
AcDbLine
 10
387.8897452665
 20
394.5886996573
 30
0.0
 11
377.8897399021
 21
394.5886996573
 31
0.0
  0
ARC
  5
72
330
1F
100
AcDbEntity
  8
0
  6
Continuous
 62
     7
370
     0
100
AcDbCircle
 10
387.8897432299
 20
396.3387027221
 30
0.0
 40
1.750000000000057
100
AcDbArc
 50
270.0
 51
90.0
  0
LINE
  5
73
330
1F
100
AcDbEntity
  8
0
  6
Continuous
 62
     7
370
     0
100
AcDbLine
 10
377.8897399021
 20
398.0886992997
 30
0.0
 11
387.8897452665
 21
398.0886992997
 31
0.0
  0
LINE
  5
74
330
1F
100
AcDbEntity
  8
0
  6
Continuous
 62
     7
370
     0
100
AcDbLine
 10
281.6497409654
 20
297.3387037402
 30
0.0
 11
281.6497409654
 21
307.338701654
 31
0.0
  0
LINE
  5
75
330
1F
100
AcDbEntity
  8
0
  6
Continuous
 62
     7
370
     0
100
AcDbLine
 10
276.0497504783
 20
307.338701654
 30
0.0
 11
281.6497409654
 21
307.338701654
 31
0.0
  0
LINE
  5
76
330
1F
100
AcDbEntity
  8
0
  6
Continuous
 62
     7
370
     0
100
AcDbLine
 10
276.0497504783
 20
297.3387037402
 30
0.0
 11
276.0497504783
 21
307.338701654
 31
0.0
  0
LINE
  5
77
330
1F
100
AcDbEntity
  8
0
  6
Continuous
 62
     7
370
     0
100
AcDbLine
 10
276.0497504783
 20
297.3387037402
 30
0.0
 11
281.6497409654
 21
297.3387037402
 31
0.0
  0
LINE
  5
78
330
1F
100
AcDbEntity
  8
0
  6
Continuous
 62
     7
370
     0
100
AcDbLine
 10
276.0497504783
 20
317.3387032932
 30
0.0
 11
281.6497409654
 21
317.3387032932
 31
0.0
  0
LINE
  5
79
330
1F
100
AcDbEntity
  8
0
  6
Continuous
 62
     7
370
     0
100
AcDbLine
 10
281.6497409654
 20
317.3387032932
 30
0.0
 11
281.6497409654
 21
327.338701207
 31
0.0
  0
LINE
  5
7A
330
1F
100
AcDbEntity
  8
0
  6
Continuous
 62
     7
370
     0
100
AcDbLine
 10
276.0497504783
 20
327.338701207
 30
0.0
 11
281.6497409654
 21
327.338701207
 31
0.0
  0
LINE
  5
7B
330
1F
100
AcDbEntity
  8
0
  6
Continuous
 62
     7
370
     0
100
AcDbLine
 10
276.0497504783
 20
317.3387032932
 30
0.0
 11
276.0497504783
 21
327.338701207
 31
0.0
  0
LINE
  5
7C
330
1F
100
AcDbEntity
  8
0
  6
Continuous
 62
     7
370
     0
100
AcDbLine
 10
276.0497504783
 20
357.3387023991
 30
0.0
 11
276.0497504783
 21
367.3387003129
 31
0.0
  0
LINE
  5
7D
330
1F
100
AcDbEntity
  8
0
  6
Continuous
 62
     7
370
     0
100
AcDbLine
 10
276.0497504783
 20
357.3387023991
 30
0.0
 11
281.6497409654
 21
357.3387023991
 31
0.0
  0
LINE
  5
7E
330
1F
100
AcDbEntity
  8
0
  6
Continuous
 62
     7
370
     0
100
AcDbLine
 10
281.6497409654
 20
357.3387023991
 30
0.0
 11
281.6497409654
 21
367.3387003129
 31
0.0
  0
LINE
  5
7F
330
1F
100
AcDbEntity
  8
0
  6
Continuous
 62
     7
370
     0
100
AcDbLine
 10
276.0497504783
 20
367.3387003129
 30
0.0
 11
281.6497409654
 21
367.3387003129
 31
0.0
  0
ARC
  5
80
330
1F
100
AcDbEntity
  8
0
  6
Continuous
 62
     7
370
     0
100
AcDbCircle
 10
21.1897432299
 20
403.453596879
 30
0.0
 40
0.4999999999998899
100
AcDbArc
 50
266.5875197898
 51
0.0
  0
LINE
  5
81
330
1F
100
AcDbEntity
  8
0
  6
Continuous
 62
     7
370
     0
100
AcDbLine
 10
21.6897452188
 20
404.4556078499
 30
0.0
 11
21.6897452188
 21
403.4535941666
 31
0.0
  0
ARC
  5
82
330
1F
100
AcDbEntity
  8
0
  6
Continuous
 62
     7
370
     0
100
AcDbCircle
 10
21.1897432299
 20
404.4556139376
 30
0.0
 40
0.4999999999999057
100
AcDbArc
 50
0.0
 51
86.1257117937
  0
ARC
  5
83
330
1F
100
AcDbEntity
  8
0
  6
Continuous
 62
     7
370
     0
100
AcDbCircle
 10
21.6897432299
 20
411.8387027221
 30
0.0
 40
6.899999999999978
100
AcDbArc
 50
193.5547840372
 51
266.1257117937
  0
ARC
  5
84
330
1F
100
AcDbEntity
  8
0
  6
Continuous
 62
     7
370
     0
100
AcDbCircle
 10
15.4680071377
 20
410.3387027221
 30
0.0
 40
0.5000000000000568
100
AcDbArc
 50
90.0
 51
193.5547840372
  0
LINE
  5
85
330
1F
100
AcDbEntity
  8
0
  6
Continuous
 62
     7
370
     0
100
AcDbLine
 10
16.5022561265
 20
410.8386990612
 30
0.0
 11
15.4680037809
 21
410.8386990612
 31
0.0
  0
ARC
  5
86
330
1F
100
AcDbEntity
  8
0
  6
Continuous
 62
     7
370
     0
100
AcDbCircle
 10
16.5022582901
 20
410.3387027221
 30
0.0
 40
0.5000000000000582
100
AcDbArc
 50
16.1276202132
 51
90.0
  0
ARC
  5
87
330
1F
100
AcDbEntity
  8
0
  6
Continuous
 62
     7
370
     0
100
AcDbCircle
 10
21.6897432299
 20
411.8387027221
 30
0.0
 40
4.899999999999999
100
AcDbArc
 50
196.1276202132
 51
163.8723797868
  0
ARC
  5
88
330
1F
100
AcDbEntity
  8
0
  6
Continuous
 62
     7
370
     0
100
AcDbCircle
 10
16.5022582901
 20
413.3387027221
 30
0.0
 40
0.500000000000164
100
AcDbArc
 50
270.0
 51
343.8723797868
  0
LINE
  5
89
330
1F
100
AcDbEntity
  8
0
  6
Continuous
 62
     7
370
     0
100
AcDbLine
 10
15.4680037809
 20
412.8387031144
 30
0.0
 11
16.5022561265
 21
412.8387031144
 31
0.0
  0
ARC
  5
8A
330
1F
100
AcDbEntity
  8
0
  6
Continuous
 62
     7
370
     0
100
AcDbCircle
 10
15.4680071377
 20
413.3387027221
 30
0.0
 40
0.5
100
AcDbArc
 50
166.4452159628
 51
270.0
  0
ARC
  5
8B
330
1F
100
AcDbEntity
  8
0
  6
Continuous
 62
     7
370
     0
100
AcDbCircle
 10
21.6897432299
 20
411.8387027221
 30
0.0
 40
6.900000000000034
100
AcDbArc
 50
93.8742882063
 51
166.4452159628
  0
ARC
  5
8C
330
1F
100
AcDbEntity
  8
0
  6
Continuous
 62
     7
370
     0
100
AcDbCircle
 10
21.1897432299
 20
419.2217915066
 30
0.0
 40
0.4999999999999057
100
AcDbArc
 50
273.8742882063
 51
0.0
  0
LINE
  5
8D
330
1F
100
AcDbEntity
  8
0
  6
Continuous
 62
     7
370
     0
100
AcDbLine
 10
21.6897452188
 20
420.223808009
 30
0.0
 11
21.6897452188
 21
419.2217943257
 31
0.0
  0
ARC
  5
8E
330
1F
100
AcDbEntity
  8
0
  6
Continuous
 62
     7
370
     0
100
AcDbCircle
 10
21.1897432299
 20
420.2238085652
 30
0.0
 40
0.4999999999999615
100
AcDbArc
 50
0.0
 51
93.4124802102
  0
ARC
  5
8F
330
1F
100
AcDbEntity
  8
0
  6
Continuous
 62
     7
370
     0
100
AcDbCircle
 10
21.6897432299
 20
411.8387027221
 30
0.0
 40
8.900000000000032
100
AcDbArc
 50
93.4124802102
 51
266.5875197898
  0
CIRCLE
  5
90
330
1F
100
AcDbEntity
  8
0
  6
Continuous
 62
     7
370
     0
100
AcDbCircle
 10
36.6897432299
 20
430.3350296818
 30
0.0
 40
1.549999999999955
  0
CIRCLE
  5
91
330
1F
100
AcDbEntity
  8
0
  6
Continuous
 62
     7
370
     0
100
AcDbCircle
 10
11.6897432299
 20
430.3350296818
 30
0.0
 40
1.549999999999955
  0
CIRCLE
  5
92
330
1F
100
AcDbEntity
  8
0
  6
Continuous
 62
     7
370
     0
100
AcDbCircle
 10
6.2399980637
 20
401.4004287495
 30
0.0
 40
1.549999999999955
  0
LINE
  5
93
330
1F
100
AcDbEntity
  8
0
  6
Continuous
 62
     1
370
     0
100
AcDbLine
 10
392.2897303415
 20
87.3387065714
 30
0.0
 11
392.2897303415
 21
97.3386970347
 31
0.0
  0
LINE
  5
94
330
1F
100
AcDbEntity
  8
0
  6
Continuous
 62
     1
370
     0
100
AcDbLine
 10
397.8897357298
 20
87.3387065714
 30
0.0
 11
392.2897303415
 21
87.3387065714
 31
0.0
  0
LINE
  5
95
330
1F
100
AcDbEntity
  8
0
  6
Continuous
 62
     1
370
     0
100
AcDbLine
 10
392.2897303415
 20
77.338701207
 30
0.0
 11
397.8897357298
 21
77.338701207
 31
0.0
  0
LINE
  5
96
330
1F
100
AcDbEntity
  8
0
  6
Continuous
 62
     1
370
     0
100
AcDbLine
 10
392.2897303415
 20
67.3386958426
 30
0.0
 11
392.2897303415
 21
77.338701207
 31
0.0
  0
LINE
  5
97
330
1F
100
AcDbEntity
  8
0
  6
Continuous
 62
     1
370
     0
100
AcDbLine
 10
397.8897357298
 20
67.3386958426
 30
0.0
 11
392.2897303415
 21
67.3386958426
 31
0.0
  0
LINE
  5
98
330
1F
100
AcDbEntity
  8
0
  6
Continuous
 62
     1
370
     0
100
AcDbLine
 10
392.2897303415
 20
57.3387053793
 30
0.0
 11
397.8897357298
 21
57.3387053793
 31
0.0
  0
LINE
  5
99
330
1F
100
AcDbEntity
  8
0
  6
Continuous
 62
     1
370
     0
100
AcDbLine
 10
392.2897303415
 20
47.3387000149
 30
0.0
 11
392.2897303415
 21
57.3387053793
 31
0.0
  0
LINE
  5
9A
330
1F
100
AcDbEntity
  8
0
  6
Continuous
 62
     1
370
     0
100
AcDbLine
 10
332.889738114
 20
47.3387000149
 30
0.0
 11
392.2897303415
 21
47.3387000149
 31
0.0
  0
LINE
  5
9B
330
1F
100
AcDbEntity
  8
0
  6
Continuous
 62
     1
370
     0
100
AcDbLine
 10
299.7897440506
 20
227.3387034422
 30
0.0
 11
332.889738114
 21
47.3387000149
 31
0.0
  0
LINE
  5
9C
330
1F
100
AcDbEntity
  8
0
  6
Continuous
 62
     1
370
     0
100
AcDbLine
 10
99.7897447956
 20
227.3387034422
 30
0.0
 11
299.7897440506
 21
227.3387034422
 31
0.0
  0
LINE
  5
9D
330
1F
100
AcDbEntity
  8
0
  6
Continuous
 62
     1
370
     0
100
AcDbLine
 10
66.6897395564
 20
47.3387000149
 30
0.0
 11
99.7897447956
 21
227.3387034422
 31
0.0
  0
LINE
  5
9E
330
1F
100
AcDbEntity
  8
0
  6
Continuous
 62
     1
370
     0
100
AcDbLine
 10
7.2897398783
 20
57.3387053793
 30
0.0
 11
7.2897398783
 21
47.3387000149
 31
0.0
  0
LINE
  5
9F
330
1F
100
AcDbEntity
  8
0
  6
Continuous
 62
     1
370
     0
100
AcDbLine
 10
1.6897493912
 20
57.3387053793
 30
0.0
 11
7.2897398783
 21
57.3387053793
 31
0.0
  0
LINE
  5
A0
330
1F
100
AcDbEntity
  8
0
  6
Continuous
 62
     1
370
     0
100
AcDbLine
 10
1.6897493912
 20
67.3386958426
 30
0.0
 11
1.6897493912
 21
57.3387053793
 31
0.0
  0
LINE
  5
A1
330
1F
100
AcDbEntity
  8
0
  6
Continuous
 62
     1
370
     0
100
AcDbLine
 10
7.2897398783
 20
67.3386958426
 30
0.0
 11
1.6897493912
 21
67.3386958426
 31
0.0
  0
LINE
  5
A2
330
1F
100
AcDbEntity
  8
0
  6
Continuous
 62
     1
370
     0
100
AcDbLine
 10
7.2897398783
 20
77.338701207
 30
0.0
 11
7.2897398783
 21
67.3386958426
 31
0.0
  0
LINE
  5
A3
330
1F
100
AcDbEntity
  8
0
  6
Continuous
 62
     1
370
     0
100
AcDbLine
 10
1.6897493912
 20
77.338701207
 30
0.0
 11
7.2897398783
 21
77.338701207
 31
0.0
  0
LINE
  5
A4
330
1F
100
AcDbEntity
  8
0
  6
Continuous
 62
     1
370
     0
100
AcDbLine
 10
7.2897398783
 20
87.3387065714
 30
0.0
 11
1.6897493912
 21
87.3387065714
 31
0.0
  0
LINE
  5
A5
330
1F
100
AcDbEntity
  8
0
  6
Continuous
 62
     1
370
     0
100
AcDbLine
 10
7.2897398783
 20
97.3386970347
 30
0.0
 11
7.2897398783
 21
87.3387065714
 31
0.0
  0
LINE
  5
A6
330
1F
100
AcDbEntity
  8
0
  6
Continuous
 62
     1
370
     0
100
AcDbLine
 10
1.6897493912
 20
97.3386970347
 30
0.0
 11
7.2897398783
 21
97.3386970347
 31
0.0
  0
LINE
  5
A7
330
1F
100
AcDbEntity
  8
0
  6
Continuous
 62
     1
370
     0
100
AcDbLine
 10
7.2897398783
 20
107.3387023991
 30
0.0
 11
1.6897493912
 21
107.3387023991
 31
0.0
  0
LINE
  5
A8
330
1F
100
AcDbEntity
  8
0
  6
Continuous
 62
     1
370
     0
100
AcDbLine
 10
7.2897398783
 20
117.3387077635
 30
0.0
 11
7.2897398783
 21
107.3387023991
 31
0.0
  0
LINE
  5
A9
330
1F
100
AcDbEntity
  8
0
  6
Continuous
 62
     1
370
     0
100
AcDbLine
 10
1.6897493912
 20
117.3387077635
 30
0.0
 11
7.2897398783
 21
117.3387077635
 31
0.0
  0
LINE
  5
AA
330
1F
100
AcDbEntity
  8
0
  6
Continuous
 62
     1
370
     0
100
AcDbLine
 10
7.2897398783
 20
127.3387056774
 30
0.0
 11
1.6897493912
 21
127.3387056774
 31
0.0
  0
LINE
  5
AB
330
1F
100
AcDbEntity
  8
0
  6
Continuous
 62
     1
370
     0
100
AcDbLine
 10
7.2897398783
 20
137.3387035912
 30
0.0
 11
7.2897398783
 21
127.3387056774
 31
0.0
  0
LINE
  5
AC
330
1F
100
AcDbEntity
  8
0
  6
Continuous
 62
     1
370
     0
100
AcDbLine
 10
1.6897493912
 20
137.3387035912
 30
0.0
 11
7.2897398783
 21
137.3387035912
 31
0.0
  0
LINE
  5
AD
330
1F
100
AcDbEntity
  8
0
  6
Continuous
 62
     1
370
     0
100
AcDbLine
 10
7.2897398783
 20
147.338701505
 30
0.0
 11
1.6897493912
 21
147.338701505
 31
0.0
  0
LINE
  5
AE
330
1F
100
AcDbEntity
  8
0
  6
Continuous
 62
     1
370
     0
100
AcDbLine
 10
7.2897398783
 20
157.3386994189
 30
0.0
 11
7.2897398783
 21
147.338701505
 31
0.0
  0
LINE
  5
AF
330
1F
100
AcDbEntity
  8
0
  6
Continuous
 62
     1
370
     0
100
AcDbLine
 10
1.6897493912
 20
157.3386994189
 30
0.0
 11
7.2897398783
 21
157.3386994189
 31
0.0
  0
LINE
  5
B0
330
1F
100
AcDbEntity
  8
0
  6
Continuous
 62
     1
370
     0
100
AcDbLine
 10
7.2897398783
 20
337.3386991208
 30
0.0
 11
1.6897493912
 21
337.3386991208
 31
0.0
  0
LINE
  5
B1
330
1F
100
AcDbEntity
  8
0
  6
Continuous
 62
     1
370
     0
100
AcDbLine
 10
7.2897398783
 20
347.3387044853
 30
0.0
 11
7.2897398783
 21
337.3386991208
 31
0.0
  0
LINE
  5
B2
330
1F
100
AcDbEntity
  8
0
  6
Continuous
 62
     1
370
     0
100
AcDbLine
 10
1.6897493912
 20
347.3387044853
 30
0.0
 11
7.2897398783
 21
347.3387044853
 31
0.0
  0
LINE
  5
B3
330
1F
100
AcDbEntity
  8
0
  6
Continuous
 62
     1
370
     0
100
AcDbLine
 10
7.2897398783
 20
357.3387023991
 30
0.0
 11
1.6897493912
 21
357.3387023991
 31
0.0
  0
LINE
  5
B4
330
1F
100
AcDbEntity
  8
0
  6
Continuous
 62
     1
370
     0
100
AcDbLine
 10
7.2897398783
 20
367.3387003129
 30
0.0
 11
7.2897398783
 21
357.3387023991
 31
0.0
  0
LINE
  5
B5
330
1F
100
AcDbEntity
  8
0
  6
Continuous
 62
     1
370
     0
100
AcDbLine
 10
1.6897493912
 20
367.3387003129
 30
0.0
 11
7.2897398783
 21
367.3387003129
 31
0.0
  0
LINE
  5
B6
330
1F
100
AcDbEntity
  8
0
  6
Continuous
 62
     1
370
     0
100
AcDbLine
 10
7.2897398783
 20
377.3386982268
 30
0.0
 11
1.6897493912
 21
377.3386982268
 31
0.0
  0
LINE
  5
B7
330
1F
100
AcDbEntity
  8
0
  6
Continuous
 62
     1
370
     0
100
AcDbLine
 10
7.2897398783
 20
387.3387035912
 30
0.0
 11
7.2897398783
 21
377.3386982268
 31
0.0
  0
LINE
  5
B8
330
1F
100
AcDbEntity
  8
0
  6
Continuous
 62
     1
370
     0
100
AcDbLine
 10
1.6897493912
 20
387.3387035912
 30
0.0
 11
7.2897398783
 21
387.3387035912
 31
0.0
  0
LINE
  5
B9
330
1F
100
AcDbEntity
  8
0
  6
Continuous
 62
     1
370
     0
100
AcDbLine
 10
47.9597398949
 20
432.5687048024
 30
0.0
 11
47.9597398949
 21
447.3387059754
 31
0.0
  0
LINE
  5
BA
330
1F
100
AcDbEntity
  8
0
  6
Continuous
 62
     1
370
     0
100
AcDbLine
 10
46.709741087
 20
432.5687048024
 30
0.0
 11
47.9597398949
 21
432.5687048024
 31
0.0
  0
LINE
  5
BB
330
1F
100
AcDbEntity
  8
0
  6
Continuous
 62
     1
370
     0
100
AcDbLine
 10
46.709741087
 20
430.1687088793
 30
0.0
 11
46.709741087
 21
432.5687048024
 31
0.0
  0
LINE
  5
BC
330
1F
100
AcDbEntity
  8
0
  6
Continuous
 62
     1
370
     0
100
AcDbLine
 10
47.9597398949
 20
430.1687088793
 30
0.0
 11
46.709741087
 21
430.1687088793
 31
0.0
  0
LINE
  5
BD
330
1F
100
AcDbEntity
  8
0
  6
Continuous
 62
     1
370
     0
100
AcDbLine
 10
47.9597398949
 20
427.3387101477
 30
0.0
 11
47.9597398949
 21
430.1687088793
 31
0.0
  0
LINE
  5
BE
330
1F
100
AcDbEntity
  8
0
  6
Continuous
 62
     1
370
     0
100
AcDbLine
 10
50.9597459746
 20
427.3387101477
 30
0.0
 11
47.9597398949
 21
427.3387101477
 31
0.0
  0
LINE
  5
BF
330
1F
100
AcDbEntity
  8
0
  6
Continuous
 62
     1
370
     0
100
AcDbLine
 10
50.9597459746
 20
430.1687088793
 30
0.0
 11
50.9597459746
 21
427.3387101477
 31
0.0
  0
LINE
  5
C0
330
1F
100
AcDbEntity
  8
0
  6
Continuous
 62
     1
370
     0
100
AcDbLine
 10
52.4186963154
 20
430.1687088793
 30
0.0
 11
50.9597459746
 21
430.1687088793
 31
0.0
  0
LINE
  5
C1
330
1F
100
AcDbEntity
  8
0
  6
Continuous
 62
     1
370
     0
100
AcDbLine
 10
52.4186963154
 20
432.5687048024
 30
0.0
 11
52.4186963154
 21
430.1687088793
 31
0.0
  0
LINE
  5
C2
330
1F
100
AcDbEntity
  8
0
  6
Continuous
 62
     1
370
     0
100
AcDbLine
 10
50.9597459746
 20
432.5687048024
 30
0.0
 11
52.4186963154
 21
432.5687048024
 31
0.0
  0
LINE
  5
C3
330
1F
100
AcDbEntity
  8
0
  6
Continuous
 62
     1
370
     0
100
AcDbLine
 10
50.9597459746
 20
447.3387059754
 30
0.0
 11
50.9597459746
 21
432.5687048024
 31
0.0
  0
LINE
  5
C4
330
1F
100
AcDbEntity
  8
0
  6
Continuous
 62
     1
370
     0
100
AcDbLine
 10
184.1897429837
 20
432.5687048024
 30
0.0
 11
184.1897429837
 21
447.3387059754
 31
0.0
  0
LINE
  5
C5
330
1F
100
AcDbEntity
  8
0
  6
Continuous
 62
     1
370
     0
100
AcDbLine
 10
182.9397441757
 20
432.5687048024
 30
0.0
 11
184.1897429837
 21
432.5687048024
 31
0.0
  0
LINE
  5
C6
330
1F
100
AcDbEntity
  8
0
  6
Continuous
 62
     1
370
     0
100
AcDbLine
 10
182.9397441757
 20
430.1687088793
 30
0.0
 11
182.9397441757
 21
432.5687048024
 31
0.0
  0
LINE
  5
C7
330
1F
100
AcDbEntity
  8
0
  6
Continuous
 62
     1
370
     0
100
AcDbLine
 10
184.1897429837
 20
430.1687088793
 30
0.0
 11
182.9397441757
 21
430.1687088793
 31
0.0
  0
LINE
  5
C8
330
1F
100
AcDbEntity
  8
0
  6
Continuous
 62
     1
370
     0
100
AcDbLine
 10
184.1897429837
 20
427.3387101477
 30
0.0
 11
184.1897429837
 21
430.1687088793
 31
0.0
  0
LINE
  5
C9
330
1F
100
AcDbEntity
  8
0
  6
Continuous
 62
     1
370
     0
100
AcDbLine
 10
187.1897416127
 20
427.3387101477
 30
0.0
 11
184.1897429837
 21
427.3387101477
 31
0.0
  0
LINE
  5
CA
330
1F
100
AcDbEntity
  8
0
  6
Continuous
 62
     1
370
     0
100
AcDbLine
 10
187.1897416127
 20
430.1687088793
 30
0.0
 11
187.1897416127
 21
427.3387101477
 31
0.0
  0
LINE
  5
CB
330
1F
100
AcDbEntity
  8
0
  6
Continuous
 62
     1
370
     0
100
AcDbLine
 10
188.4397441459
 20
430.1687088793
 30
0.0
 11
187.1897416127
 21
430.1687088793
 31
0.0
  0
LINE
  5
CC
330
1F
100
AcDbEntity
  8
0
  6
Continuous
 62
     1
370
     0
100
AcDbLine
 10
188.4397441459
 20
432.5687048024
 30
0.0
 11
188.4397441459
 21
430.1687088793
 31
0.0
  0
LINE
  5
CD
330
1F
100
AcDbEntity
  8
0
  6
Continuous
 62
     1
370
     0
100
AcDbLine
 10
187.1897416127
 20
432.5687048024
 30
0.0
 11
188.4397441459
 21
432.5687048024
 31
0.0
  0
LINE
  5
CE
330
1F
100
AcDbEntity
  8
0
  6
Continuous
 62
     1
370
     0
100
AcDbLine
 10
187.1897416127
 20
447.3387059754
 30
0.0
 11
187.1897416127
 21
432.5687048024
 31
0.0
  0
LINE
  5
CF
330
1F
100
AcDbEntity
  8
0
  6
Continuous
 62
     1
370
     0
100
AcDbLine
 10
312.3797500444
 20
432.5687048024
 30
0.0
 11
312.3797500444
 21
447.3387059754
 31
0.0
  0
LINE
  5
D0
330
1F
100
AcDbEntity
  8
0
  6
Continuous
 62
     1
370
     0
100
AcDbLine
 10
311.1297363354
 20
432.5687048024
 30
0.0
 11
312.3797500444
 21
432.5687048024
 31
0.0
  0
LINE
  5
D1
330
1F
100
AcDbEntity
  8
0
  6
Continuous
 62
     1
370
     0
100
AcDbLine
 10
311.1297363354
 20
430.1687088793
 30
0.0
 11
311.1297363354
 21
432.5687048024
 31
0.0
  0
LINE
  5
D2
330
1F
100
AcDbEntity
  8
0
  6
Continuous
 62
     1
370
     0
100
AcDbLine
 10
312.3797500444
 20
430.1687088793
 30
0.0
 11
311.1297363354
 21
430.1687088793
 31
0.0
  0
LINE
  5
D3
330
1F
100
AcDbEntity
  8
0
  6
Continuous
 62
     1
370
     0
100
AcDbLine
 10
312.3797500444
 20
427.3387101477
 30
0.0
 11
312.3797500444
 21
430.1687088793
 31
0.0
  0
LINE
  5
D4
330
1F
100
AcDbEntity
  8
0
  6
Continuous
 62
     1
370
     0
100
AcDbLine
 10
315.3797412229
 20
427.3387101477
 30
0.0
 11
312.3797500444
 21
427.3387101477
 31
0.0
  0
LINE
  5
D5
330
1F
100
AcDbEntity
  8
0
  6
Continuous
 62
     1
370
     0
100
AcDbLine
 10
315.3797412229
 20
430.1687088793
 30
0.0
 11
315.3797412229
 21
427.3387101477
 31
0.0
  0
LINE
  5
D6
330
1F
100
AcDbEntity
  8
0
  6
Continuous
 62
     1
370
     0
100
AcDbLine
 10
316.6297400308
 20
430.1687088793
 30
0.0
 11
315.3797412229
 21
430.1687088793
 31
0.0
  0
LINE
  5
D7
330
1F
100
AcDbEntity
  8
0
  6
Continuous
 62
     1
370
     0
100
AcDbLine
 10
316.6297400308
 20
432.5687048024
 30
0.0
 11
316.6297400308
 21
430.1687088793
 31
0.0
  0
LINE
  5
D8
330
1F
100
AcDbEntity
  8
0
  6
Continuous
 62
     1
370
     0
100
AcDbLine
 10
315.3797412229
 20
432.5687048024
 30
0.0
 11
316.6297400308
 21
432.5687048024
 31
0.0
  0
LINE
  5
D9
330
1F
100
AcDbEntity
  8
0
  6
Continuous
 62
     1
370
     0
100
AcDbLine
 10
315.3797412229
 20
447.3387059754
 30
0.0
 11
315.3797412229
 21
432.5687048024
 31
0.0
  0
LINE
  5
DA
330
1F
100
AcDbEntity
  8
0
  6
Continuous
 62
     1
370
     0
100
AcDbLine
 10
397.8897357298
 20
447.3387059754
 30
0.0
 11
315.3797412229
 21
447.3387059754
 31
0.0
  0
LINE
  5
DB
330
1F
100
AcDbEntity
  8
0
  6
Continuous
 62
     1
370
     0
100
AcDbLine
 10
397.8897357298
 20
387.3387035912
 30
0.0
 11
397.8897357298
 21
447.3387059754
 31
0.0
  0
LINE
  5
DC
330
1F
100
AcDbEntity
  8
0
  6
Continuous
 62
     1
370
     0
100
AcDbLine
 10
395.0897479368
 20
387.3387035912
 30
0.0
 11
397.8897357298
 21
387.3387035912
 31
0.0
  0
LINE
  5
DD
330
1F
100
AcDbEntity
  8
0
  6
Continuous
 62
     1
370
     0
100
AcDbLine
 10
395.0897479368
 20
363.8387006706
 30
0.0
 11
395.0897479368
 21
387.3387035912
 31
0.0
  0
LINE
  5
DE
330
1F
100
AcDbEntity
  8
0
  6
Continuous
 62
     1
370
     0
100
AcDbLine
 10
390.2897560907
 20
363.8387006706
 30
0.0
 11
395.0897479368
 21
363.8387006706
 31
0.0
  0
LINE
  5
DF
330
1F
100
AcDbEntity
  8
0
  6
Continuous
 62
     1
370
     0
100
AcDbLine
 10
390.2897560907
 20
365.0886994785
 30
0.0
 11
390.2897560907
 21
363.8387006706
 31
0.0
  0
LINE
  5
E0
330
1F
100
AcDbEntity
  8
0
  6
Continuous
 62
     1
370
     0
100
AcDbLine
 10
387.8897452665
 20
365.0886994785
 30
0.0
 11
390.2897560907
 21
365.0886994785
 31
0.0
  0
LINE
  5
E1
330
1F
100
AcDbEntity
  8
0
  6
Continuous
 62
     1
370
     0
100
AcDbLine
 10
387.8897452665
 20
363.8387006706
 30
0.0
 11
387.8897452665
 21
365.0886994785
 31
0.0
  0
LINE
  5
E2
330
1F
100
AcDbEntity
  8
0
  6
Continuous
 62
     1
370
     0
100
AcDbLine
 10
385.8897412134
 20
363.8387006706
 30
0.0
 11
387.8897452665
 21
363.8387006706
 31
0.0
  0
LINE
  5
E3
330
1F
100
AcDbEntity
  8
0
  6
Continuous
 62
     1
370
     0
100
AcDbLine
 10
385.8897412134
 20
360.8387020415
 30
0.0
 11
385.8897412134
 21
363.8387006706
 31
0.0
  0
LINE
  5
E4
330
1F
100
AcDbEntity
  8
0
  6
Continuous
 62
     1
370
     0
100
AcDbLine
 10
387.8897452665
 20
360.8387020415
 30
0.0
 11
385.8897412134
 21
360.8387020415
 31
0.0
  0
LINE
  5
E5
330
1F
100
AcDbEntity
  8
0
  6
Continuous
 62
     1
370
     0
100
AcDbLine
 10
387.8897452665
 20
359.5887032336
 30
0.0
 11
387.8897452665
 21
360.8387020415
 31
0.0
  0
LINE
  5
E6
330
1F
100
AcDbEntity
  8
0
  6
Continuous
 62
     1
370
     0
100
AcDbLine
 10
390.2897560907
 20
359.5887032336
 30
0.0
 11
387.8897452665
 21
359.5887032336
 31
0.0
  0
LINE
  5
E7
330
1F
100
AcDbEntity
  8
0
  6
Continuous
 62
     1
370
     0
100
AcDbLine
 10
390.2897560907
 20
360.8387020415
 30
0.0
 11
390.2897560907
 21
359.5887032336
 31
0.0
  0
LINE
  5
E8
330
1F
100
AcDbEntity
  8
0
  6
Continuous
 62
     1
370
     0
100
AcDbLine
 10
395.0897479368
 20
360.8387020415
 30
0.0
 11
390.2897560907
 21
360.8387020415
 31
0.0
  0
LINE
  5
E9
330
1F
100
AcDbEntity
  8
0
  6
Continuous
 62
     1
370
     0
100
AcDbLine
 10
395.0897479368
 20
123.838706035
 30
0.0
 11
395.0897479368
 21
360.8387020415
 31
0.0
  0
LINE
  5
EA
330
1F
100
AcDbEntity
  8
0
  6
Continuous
 62
     1
370
     0
100
AcDbLine
 10
390.2897560907
 20
123.838706035
 30
0.0
 11
395.0897479368
 21
123.838706035
 31
0.0
  0
LINE
  5
EB
330
1F
100
AcDbEntity
  8
0
  6
Continuous
 62
     1
370
     0
100
AcDbLine
 10
390.2897560907
 20
125.0887048429
 30
0.0
 11
390.2897560907
 21
123.838706035
 31
0.0
  0
LINE
  5
EC
330
1F
100
AcDbEntity
  8
0
  6
Continuous
 62
     1
370
     0
100
AcDbLine
 10
387.8897452665
 20
125.0887048429
 30
0.0
 11
390.2897560907
 21
125.0887048429
 31
0.0
  0
LINE
  5
ED
330
1F
100
AcDbEntity
  8
0
  6
Continuous
 62
     1
370
     0
100
AcDbLine
 10
387.8897452665
 20
123.838706035
 30
0.0
 11
387.8897452665
 21
125.0887048429
 31
0.0
  0
LINE
  5
EE
330
1F
100
AcDbEntity
  8
0
  6
Continuous
 62
     1
370
     0
100
AcDbLine
 10
385.8897412134
 20
123.838706035
 30
0.0
 11
387.8897452665
 21
123.838706035
 31
0.0
  0
LINE
  5
EF
330
1F
100
AcDbEntity
  8
0
  6
Continuous
 62
     1
370
     0
100
AcDbLine
 10
385.8897412134
 20
120.8387074059
 30
0.0
 11
385.8897412134
 21
123.838706035
 31
0.0
  0
LINE
  5
F0
330
1F
100
AcDbEntity
  8
0
  6
Continuous
 62
     1
370
     0
100
AcDbLine
 10
387.8897452665
 20
120.8387074059
 30
0.0
 11
385.8897412134
 21
120.8387074059
 31
0.0
  0
LINE
  5
F1
330
1F
100
AcDbEntity
  8
0
  6
Continuous
 62
     1
370
     0
100
AcDbLine
 10
387.8897452665
 20
119.588708598
 30
0.0
 11
387.8897452665
 21
120.8387074059
 31
0.0
  0
LINE
  5
F2
330
1F
100
AcDbEntity
  8
0
  6
Continuous
 62
     1
370
     0
100
AcDbLine
 10
390.2897560907
 20
119.588708598
 30
0.0
 11
387.8897452665
 21
119.588708598
 31
0.0
  0
LINE
  5
F3
330
1F
100
AcDbEntity
  8
0
  6
Continuous
 62
     1
370
     0
100
AcDbLine
 10
390.2897560907
 20
120.8387074059
 30
0.0
 11
390.2897560907
 21
119.588708598
 31
0.0
  0
LINE
  5
F4
330
1F
100
AcDbEntity
  8
0
  6
Continuous
 62
     1
370
     0
100
AcDbLine
 10
395.0897479368
 20
120.8387074059
 30
0.0
 11
390.2897560907
 21
120.8387074059
 31
0.0
  0
LINE
  5
F5
330
1F
100
AcDbEntity
  8
0
  6
Continuous
 62
     1
370
     0
100
AcDbLine
 10
395.0897479368
 20
97.3386970347
 30
0.0
 11
395.0897479368
 21
120.8387074059
 31
0.0
  0
LINE
  5
F6
330
1F
100
AcDbEntity
  8
0
  6
Continuous
 62
     1
370
     0
100
AcDbLine
 10
392.2897303415
 20
97.3386970347
 30
0.0
 11
395.0897479368
 21
97.3386970347
 31
0.0
  0
ARC
  5
F7
330
1F
100
AcDbEntity
  8
0
  6
Continuous
 62
     7
370
     0
100
AcDbCircle
 10
87.6897432299
 20
286.3387027221
 30
0.0
 40
2.0
100
AcDbArc
 50
0.0
 51
180.0
  0
LINE
  5
F8
330
1F
100
AcDbEntity
  8
0
  6
Continuous
 62
     7
370
     0
100
AcDbLine
 10
85.6897445334
 20
286.3387037998
 30
0.0
 11
85.6897445334
 21
276.3387021607
 31
0.0
  0
ARC
  5
F9
330
1F
100
AcDbEntity
  8
0
  6
Continuous
 62
     7
370
     0
100
AcDbCircle
 10
87.6897432299
 20
276.3387027221
 30
0.0
 40
2.0
100
AcDbArc
 50
180.0
 51
0.0
  0
LINE
  5
FA
330
1F
100
AcDbEntity
  8
0
  6
Continuous
 62
     7
370
     0
100
AcDbLine
 10
89.6897414637
 20
276.3387021607
 30
0.0
 11
89.6897414637
 21
286.3387037998
 31
0.0
  0
ARC
  5
FB
330
1F
100
AcDbEntity
  8
0
  6
Continuous
 62
     7
370
     0
100
AcDbCircle
 10
151.8897432299
 20
248.3387027221
 30
0.0
 40
2.000000000000028
100
AcDbArc
 50
0.0
 51
180.0
  0
LINE
  5
FC
330
1F
100
AcDbEntity
  8
0
  6
Continuous
 62
     7
370
     0
100
AcDbLine
 10
149.8897435082
 20
248.3387027225
 30
0.0
 11
149.8897435082
 21
238.3387024513
 31
0.0
  0
ARC
  5
FD
330
1F
100
AcDbEntity
  8
0
  6
Continuous
 62
     7
370
     0
100
AcDbCircle
 10
151.8897432299
 20
238.3387027221
 30
0.0
 40
2.000000000000028
100
AcDbArc
 50
180.0
 51
0.0
  0
LINE
  5
FE
330
1F
100
AcDbEntity
  8
0
  6
Continuous
 62
     7
370
     0
100
AcDbLine
 10
153.8897423012
 20
238.3387024513
 30
0.0
 11
153.8897423012
 21
248.3387027225
 31
0.0
  0
ARC
  5
FF
330
1F
100
AcDbEntity
  8
0
  6
Continuous
 62
     7
370
     0
100
AcDbCircle
 10
151.8897432299
 20
286.3387027221
 30
0.0
 40
2.000000000000028
100
AcDbArc
 50
0.0
 51
180.0
  0
LINE
  5
100
330
1F
100
AcDbEntity
  8
0
  6
Continuous
 62
     7
370
     0
100
AcDbLine
 10
149.8897435082
 20
286.3387037998
 30
0.0
 11
149.8897435082
 21
276.3387021607
 31
0.0
  0
ARC
  5
101
330
1F
100
AcDbEntity
  8
0
  6
Continuous
 62
     7
370
     0
100
AcDbCircle
 10
151.8897432299
 20
276.3387027221
 30
0.0
 40
2.000000000000028
100
AcDbArc
 50
180.0
 51
0.0
  0
LINE
  5
102
330
1F
100
AcDbEntity
  8
0
  6
Continuous
 62
     7
370
     0
100
AcDbLine
 10
153.8897423012
 20
276.3387021607
 30
0.0
 11
153.8897423012
 21
286.3387037998
 31
0.0
  0
ARC
  5
103
330
1F
100
AcDbEntity
  8
0
  6
Continuous
 62
     7
370
     0
100
AcDbCircle
 10
87.6897432299
 20
248.3387027221
 30
0.0
 40
2.000000000000014
100
AcDbArc
 50
0.0
 51
180.0
  0
LINE
  5
104
330
1F
100
AcDbEntity
  8
0
  6
Continuous
 62
     7
370
     0
100
AcDbLine
 10
85.6897445334
 20
248.3387027225
 30
0.0
 11
85.6897445334
 21
238.3387024513
 31
0.0
  0
ARC
  5
105
330
1F
100
AcDbEntity
  8
0
  6
Continuous
 62
     7
370
     0
100
AcDbCircle
 10
87.6897432299
 20
238.3387027221
 30
0.0
 40
2.000000000000014
100
AcDbArc
 50
180.0
 51
0.0
  0
LINE
  5
106
330
1F
100
AcDbEntity
  8
0
  6
Continuous
 62
     7
370
     0
100
AcDbLine
 10
89.6897414637
 20
238.3387024513
 30
0.0
 11
89.6897414637
 21
248.3387027225
 31
0.0
  0
LINE
  5
107
330
1F
100
AcDbEntity
  8
0
  6
Continuous
 62
     7
370
     0
100
AcDbLine
 10
361.6497391773
 20
377.3386982268
 30
0.0
 11
361.6497391773
 21
387.3387035912
 31
0.0
  0
LINE
  5
108
330
1F
100
AcDbEntity
  8
0
  6
Continuous
 62
     7
370
     0
100
AcDbLine
 10
367.2497445656
 20
377.3386982268
 30
0.0
 11
361.6497391773
 21
377.3386982268
 31
0.0
  0
LINE
  5
109
330
1F
100
AcDbEntity
  8
0
  6
Continuous
 62
     7
370
     0
100
AcDbLine
 10
367.2497445656
 20
387.3387035912
 30
0.0
 11
367.2497445656
 21
377.3386982268
 31
0.0
  0
LINE
  5
10A
330
1F
100
AcDbEntity
  8
0
  6
Continuous
 62
     7
370
     0
100
AcDbLine
 10
361.6497391773
 20
387.3387035912
 30
0.0
 11
367.2497445656
 21
387.3387035912
 31
0.0
  0
LINE
  5
10B
330
1F
100
AcDbEntity
  8
0
  6
Continuous
 62
     7
370
     0
100
AcDbLine
 10
361.6497391773
 20
357.3387023991
 30
0.0
 11
361.6497391773
 21
367.3387003129
 31
0.0
  0
LINE
  5
10C
330
1F
100
AcDbEntity
  8
0
  6
Continuous
 62
     7
370
     0
100
AcDbLine
 10
367.2497445656
 20
357.3387023991
 30
0.0
 11
361.6497391773
 21
357.3387023991
 31
0.0
  0
LINE
  5
10D
330
1F
100
AcDbEntity
  8
0
  6
Continuous
 62
     7
370
     0
100
AcDbLine
 10
367.2497445656
 20
367.3387003129
 30
0.0
 11
367.2497445656
 21
357.3387023991
 31
0.0
  0
LINE
  5
10E
330
1F
100
AcDbEntity
  8
0
  6
Continuous
 62
     7
370
     0
100
AcDbLine
 10
361.6497391773
 20
367.3387003129
 30
0.0
 11
367.2497445656
 21
367.3387003129
 31
0.0
  0
LINE
  5
10F
330
1F
100
AcDbEntity
  8
0
  6
Continuous
 62
     7
370
     0
100
AcDbLine
 10
361.6497391773
 20
177.3387026971
 30
0.0
 11
361.6497391773
 21
187.3387043363
 31
0.0
  0
LINE
  5
110
330
1F
100
AcDbEntity
  8
0
  6
Continuous
 62
     7
370
     0
100
AcDbLine
 10
367.2497445656
 20
177.3387026971
 30
0.0
 11
361.6497391773
 21
177.3387026971
 31
0.0
  0
LINE
  5
111
330
1F
100
AcDbEntity
  8
0
  6
Continuous
 62
     7
370
     0
100
AcDbLine
 10
367.2497445656
 20
187.3387043363
 30
0.0
 11
367.2497445656
 21
177.3387026971
 31
0.0
  0
LINE
  5
112
330
1F
100
AcDbEntity
  8
0
  6
Continuous
 62
     7
370
     0
100
AcDbLine
 10
361.6497391773
 20
187.3387043363
 30
0.0
 11
367.2497445656
 21
187.3387043363
 31
0.0
  0
LINE
  5
113
330
1F
100
AcDbEntity
  8
0
  6
Continuous
 62
     7
370
     0
100
AcDbLine
 10
361.6497391773
 20
337.3386991208
 30
0.0
 11
361.6497391773
 21
347.3387044853
 31
0.0
  0
LINE
  5
114
330
1F
100
AcDbEntity
  8
0
  6
Continuous
 62
     7
370
     0
100
AcDbLine
 10
367.2497445656
 20
337.3386991208
 30
0.0
 11
361.6497391773
 21
337.3386991208
 31
0.0
  0
LINE
  5
115
330
1F
100
AcDbEntity
  8
0
  6
Continuous
 62
     7
370
     0
100
AcDbLine
 10
367.2497445656
 20
347.3387044853
 30
0.0
 11
367.2497445656
 21
337.3386991208
 31
0.0
  0
LINE
  5
116
330
1F
100
AcDbEntity
  8
0
  6
Continuous
 62
     7
370
     0
100
AcDbLine
 10
361.6497391773
 20
347.3387044853
 30
0.0
 11
367.2497445656
 21
347.3387044853
 31
0.0
  0
LINE
  5
117
330
1F
100
AcDbEntity
  8
0
  6
Continuous
 62
     7
370
     0
100
AcDbLine
 10
361.6497391773
 20
317.3387032932
 30
0.0
 11
361.6497391773
 21
327.338701207
 31
0.0
  0
LINE
  5
118
330
1F
100
AcDbEntity
  8
0
  6
Continuous
 62
     7
370
     0
100
AcDbLine
 10
367.2497445656
 20
317.3387032932
 30
0.0
 11
361.6497391773
 21
317.3387032932
 31
0.0
  0
LINE
  5
119
330
1F
100
AcDbEntity
  8
0
  6
Continuous
 62
     7
370
     0
100
AcDbLine
 10
367.2497445656
 20
327.338701207
 30
0.0
 11
367.2497445656
 21
317.3387032932
 31
0.0
  0
LINE
  5
11A
330
1F
100
AcDbEntity
  8
0
  6
Continuous
 62
     7
370
     0
100
AcDbLine
 10
361.6497391773
 20
327.338701207
 30
0.0
 11
367.2497445656
 21
327.338701207
 31
0.0
  0
LINE
  5
11B
330
1F
100
AcDbEntity
  8
0
  6
Continuous
 62
     7
370
     0
100
AcDbLine
 10
361.6497391773
 20
297.3387037402
 30
0.0
 11
361.6497391773
 21
307.338701654
 31
0.0
  0
LINE
  5
11C
330
1F
100
AcDbEntity
  8
0
  6
Continuous
 62
     7
370
     0
100
AcDbLine
 10
367.2497445656
 20
297.3387037402
 30
0.0
 11
361.6497391773
 21
297.3387037402
 31
0.0
  0
LINE
  5
11D
330
1F
100
AcDbEntity
  8
0
  6
Continuous
 62
     7
370
     0
100
AcDbLine
 10
367.2497445656
 20
307.338701654
 30
0.0
 11
367.2497445656
 21
297.3387037402
 31
0.0
  0
LINE
  5
11E
330
1F
100
AcDbEntity
  8
0
  6
Continuous
 62
     7
370
     0
100
AcDbLine
 10
361.6497391773
 20
307.338701654
 30
0.0
 11
367.2497445656
 21
307.338701654
 31
0.0
  0
LINE
  5
11F
330
1F
100
AcDbEntity
  8
0
  6
Continuous
 62
     7
370
     0
100
AcDbLine
 10
361.6497391773
 20
277.3387023246
 30
0.0
 11
361.6497391773
 21
287.3387021011
 31
0.0
  0
LINE
  5
120
330
1F
100
AcDbEntity
  8
0
  6
Continuous
 62
     7
370
     0
100
AcDbLine
 10
367.2497445656
 20
277.3387023246
 30
0.0
 11
361.6497391773
 21
277.3387023246
 31
0.0
  0
LINE
  5
121
330
1F
100
AcDbEntity
  8
0
  6
Continuous
 62
     7
370
     0
100
AcDbLine
 10
367.2497445656
 20
287.3387021011
 30
0.0
 11
367.2497445656
 21
277.3387023246
 31
0.0
  0
LINE
  5
122
330
1F
100
AcDbEntity
  8
0
  6
Continuous
 62
     7
370
     0
100
AcDbLine
 10
361.6497391773
 20
257.3387027716
 30
0.0
 11
361.6497391773
 21
267.3387025481
 31
0.0
  0
LINE
  5
123
330
1F
100
AcDbEntity
  8
0
  6
Continuous
 62
     7
370
     0
100
AcDbLine
 10
367.2497445656
 20
257.3387027716
 30
0.0
 11
361.6497391773
 21
257.3387027716
 31
0.0
  0
LINE
  5
124
330
1F
100
AcDbEntity
  8
0
  6
Continuous
 62
     7
370
     0
100
AcDbLine
 10
367.2497445656
 20
267.3387025481
 30
0.0
 11
367.2497445656
 21
257.3387027716
 31
0.0
  0
LINE
  5
125
330
1F
100
AcDbEntity
  8
0
  6
Continuous
 62
     7
370
     0
100
AcDbLine
 10
361.6497391773
 20
267.3387025481
 30
0.0
 11
367.2497445656
 21
267.3387025481
 31
0.0
  0
LINE
  5
126
330
1F
100
AcDbEntity
  8
0
  6
Continuous
 62
     7
370
     0
100
AcDbLine
 10
361.6497391773
 20
237.3387022873
 30
0.0
 11
361.6497391773
 21
247.3387027623
 31
0.0
  0
LINE
  5
127
330
1F
100
AcDbEntity
  8
0
  6
Continuous
 62
     7
370
     0
100
AcDbLine
 10
367.2497445656
 20
237.3387022873
 30
0.0
 11
361.6497391773
 21
237.3387022873
 31
0.0
  0
LINE
  5
128
330
1F
100
AcDbEntity
  8
0
  6
Continuous
 62
     7
370
     0
100
AcDbLine
 10
367.2497445656
 20
247.3387027623
 30
0.0
 11
367.2497445656
 21
237.3387022873
 31
0.0
  0
LINE
  5
129
330
1F
100
AcDbEntity
  8
0
  6
Continuous
 62
     7
370
     0
100
AcDbLine
 10
361.6497391773
 20
247.3387027623
 30
0.0
 11
367.2497445656
 21
247.3387027623
 31
0.0
  0
LINE
  5
12A
330
1F
100
AcDbEntity
  8
0
  6
Continuous
 62
     7
370
     0
100
AcDbLine
 10
361.6497391773
 20
217.3387018031
 30
0.0
 11
361.6497391773
 21
227.3387034422
 31
0.0
  0
LINE
  5
12B
330
1F
100
AcDbEntity
  8
0
  6
Continuous
 62
     7
370
     0
100
AcDbLine
 10
367.2497445656
 20
217.3387018031
 30
0.0
 11
361.6497391773
 21
217.3387018031
 31
0.0
  0
LINE
  5
12C
330
1F
100
AcDbEntity
  8
0
  6
Continuous
 62
     7
370
     0
100
AcDbLine
 10
367.2497445656
 20
227.3387034422
 30
0.0
 11
367.2497445656
 21
217.3387018031
 31
0.0
  0
LINE
  5
12D
330
1F
100
AcDbEntity
  8
0
  6
Continuous
 62
     7
370
     0
100
AcDbLine
 10
361.6497391773
 20
227.3387034422
 30
0.0
 11
367.2497445656
 21
227.3387034422
 31
0.0
  0
LINE
  5
12E
330
1F
100
AcDbEntity
  8
0
  6
Continuous
 62
     7
370
     0
100
AcDbLine
 10
361.6497391773
 20
197.3387022501
 30
0.0
 11
361.6497391773
 21
207.3387038892
 31
0.0
  0
LINE
  5
12F
330
1F
100
AcDbEntity
  8
0
  6
Continuous
 62
     7
370
     0
100
AcDbLine
 10
367.2497445656
 20
197.3387022501
 30
0.0
 11
361.6497391773
 21
197.3387022501
 31
0.0
  0
LINE
  5
130
330
1F
100
AcDbEntity
  8
0
  6
Continuous
 62
     7
370
     0
100
AcDbLine
 10
367.2497445656
 20
207.3387038892
 30
0.0
 11
367.2497445656
 21
197.3387022501
 31
0.0
  0
LINE
  5
131
330
1F
100
AcDbEntity
  8
0
  6
Continuous
 62
     7
370
     0
100
AcDbLine
 10
361.6497391773
 20
207.3387038892
 30
0.0
 11
367.2497445656
 21
207.3387038892
 31
0.0
  0
LINE
  5
132
330
1F
100
AcDbEntity
  8
0
  6
Continuous
 62
     7
370
     0
100
AcDbLine
 10
361.6497391773
 20
157.3386994189
 30
0.0
 11
361.6497391773
 21
167.3387047833
 31
0.0
  0
LINE
  5
133
330
1F
100
AcDbEntity
  8
0
  6
Continuous
 62
     7
370
     0
100
AcDbLine
 10
367.2497445656
 20
157.3386994189
 30
0.0
 11
361.6497391773
 21
157.3386994189
 31
0.0
  0
LINE
  5
134
330
1F
100
AcDbEntity
  8
0
  6
Continuous
 62
     7
370
     0
100
AcDbLine
 10
367.2497445656
 20
167.3387047833
 30
0.0
 11
367.2497445656
 21
157.3386994189
 31
0.0
  0
LINE
  5
135
330
1F
100
AcDbEntity
  8
0
  6
Continuous
 62
     7
370
     0
100
AcDbLine
 10
361.6497391773
 20
167.3387047833
 30
0.0
 11
367.2497445656
 21
167.3387047833
 31
0.0
  0
LINE
  5
136
330
1F
100
AcDbEntity
  8
0
  6
Continuous
 62
     7
370
     0
100
AcDbLine
 10
361.6497391773
 20
137.3387035912
 30
0.0
 11
361.6497391773
 21
147.338701505
 31
0.0
  0
LINE
  5
137
330
1F
100
AcDbEntity
  8
0
  6
Continuous
 62
     7
370
     0
100
AcDbLine
 10
367.2497445656
 20
137.3387035912
 30
0.0
 11
361.6497391773
 21
137.3387035912
 31
0.0
  0
LINE
  5
138
330
1F
100
AcDbEntity
  8
0
  6
Continuous
 62
     7
370
     0
100
AcDbLine
 10
367.2497445656
 20
147.338701505
 30
0.0
 11
367.2497445656
 21
137.3387035912
 31
0.0
  0
LINE
  5
139
330
1F
100
AcDbEntity
  8
0
  6
Continuous
 62
     7
370
     0
100
AcDbLine
 10
361.6497391773
 20
147.338701505
 30
0.0
 11
367.2497445656
 21
147.338701505
 31
0.0
  0
LINE
  5
13A
330
1F
100
AcDbEntity
  8
0
  6
Continuous
 62
     7
370
     0
100
AcDbLine
 10
361.6497391773
 20
117.3387077635
 30
0.0
 11
361.6497391773
 21
127.3387056774
 31
0.0
  0
LINE
  5
13B
330
1F
100
AcDbEntity
  8
0
  6
Continuous
 62
     7
370
     0
100
AcDbLine
 10
367.2497445656
 20
117.3387077635
 30
0.0
 11
361.6497391773
 21
117.3387077635
 31
0.0
  0
LINE
  5
13C
330
1F
100
AcDbEntity
  8
0
  6
Continuous
 62
     7
370
     0
100
AcDbLine
 10
367.2497445656
 20
127.3387056774
 30
0.0
 11
367.2497445656
 21
117.3387077635
 31
0.0
  0
LINE
  5
13D
330
1F
100
AcDbEntity
  8
0
  6
Continuous
 62
     7
370
     0
100
AcDbLine
 10
361.6497391773
 20
127.3387056774
 30
0.0
 11
367.2497445656
 21
127.3387056774
 31
0.0
  0
LINE
  5
13E
330
1F
100
AcDbEntity
  8
0
  6
Continuous
 62
     7
370
     0
100
AcDbLine
 10
15.3441602302
 20
171.7387047594
 30
0.0
 11
15.3441602302
 21
177.3387026971
 31
0.0
  0
LINE
  5
13F
330
1F
100
AcDbEntity
  8
0
  6
Continuous
 62
     7
370
     0
100
AcDbLine
 10
25.3441655947
 20
171.7387047594
 30
0.0
 11
15.3441602302
 21
171.7387047594
 31
0.0
  0
LINE
  5
140
330
1F
100
AcDbEntity
  8
0
  6
Continuous
 62
     7
370
     0
100
AcDbLine
 10
25.3441655947
 20
177.3387026971
 30
0.0
 11
25.3441655947
 21
171.7387047594
 31
0.0
  0
LINE
  5
141
330
1F
100
AcDbEntity
  8
0
  6
Continuous
 62
     7
370
     0
100
AcDbLine
 10
15.3441602302
 20
177.3387026971
 30
0.0
 11
25.3441655947
 21
177.3387026971
 31
0.0
  0
LINE
  5
142
330
1F
100
AcDbEntity
  8
0
  6
Continuous
 62
     7
370
     0
100
AcDbLine
 10
35.3441635085
 20
171.7387047594
 30
0.0
 11
35.3441635085
 21
177.3387026971
 31
0.0
  0
LINE
  5
143
330
1F
100
AcDbEntity
  8
0
  6
Continuous
 62
     7
370
     0
100
AcDbLine
 10
45.3441614223
 20
171.7387047594
 30
0.0
 11
35.3441635085
 21
171.7387047594
 31
0.0
  0
LINE
  5
144
330
1F
100
AcDbEntity
  8
0
  6
Continuous
 62
     7
370
     0
100
AcDbLine
 10
45.3441614223
 20
177.3387026971
 30
0.0
 11
45.3441614223
 21
171.7387047594
 31
0.0
  0
LINE
  5
145
330
1F
100
AcDbEntity
  8
0
  6
Continuous
 62
     7
370
     0
100
AcDbLine
 10
35.3441635085
 20
177.3387026971
 30
0.0
 11
45.3441614223
 21
177.3387026971
 31
0.0
  0
LINE
  5
146
330
1F
100
AcDbEntity
  8
0
  6
Continuous
 62
     7
370
     0
100
AcDbLine
 10
55.3441593362
 20
171.7387047594
 30
0.0
 11
55.3441593362
 21
177.3387026971
 31
0.0
  0
LINE
  5
147
330
1F
100
AcDbEntity
  8
0
  6
Continuous
 62
     7
370
     0
100
AcDbLine
 10
65.3441647006
 20
171.7387047594
 30
0.0
 11
55.3441593362
 21
171.7387047594
 31
0.0
  0
LINE
  5
148
330
1F
100
AcDbEntity
  8
0
  6
Continuous
 62
     7
370
     0
100
AcDbLine
 10
65.3441647006
 20
177.3387026971
 30
0.0
 11
65.3441647006
 21
171.7387047594
 31
0.0
  0
LINE
  5
149
330
1F
100
AcDbEntity
  8
0
  6
Continuous
 62
     7
370
     0
100
AcDbLine
 10
55.3441593362
 20
177.3387026971
 30
0.0
 11
65.3441647006
 21
177.3387026971
 31
0.0
  0
CIRCLE
  5
14A
330
1F
100
AcDbEntity
  8
0
  6
Continuous
 62
     7
370
     0
100
AcDbCircle
 10
67.8441625762
 20
192.3387027221
 30
0.0
 40
1.25
  0
CIRCLE
  5
14B
330
1F
100
AcDbEntity
  8
0
  6
Continuous
 62
     7
370
     0
100
AcDbCircle
 10
30.6897432299
 20
192.3387027221
 30
0.0
 40
1.250000000000028
  0
LINE
  5
14C
330
1F
100
AcDbEntity
  8
0
  6
Continuous
 62
     7
370
     0
100
AcDbLine
 10
26.6897404505
 20
197.3387022501
 30
0.0
 11
26.6897404505
 21
187.3387043363
 31
0.0
  0
LINE
  5
14D
330
1F
100
AcDbEntity
  8
0
  6
Continuous
 62
     7
370
     0
100
AcDbLine
 10
6.6897446228
 20
197.3387022501
 30
0.0
 11
26.6897404505
 21
197.3387022501
 31
0.0
  0
LINE
  5
14E
330
1F
100
AcDbEntity
  8
0
  6
Continuous
 62
     7
370
     0
100
AcDbLine
 10
6.6897446228
 20
187.3387043363
 30
0.0
 11
6.6897446228
 21
197.3387022501
 31
0.0
  0
LINE
  5
14F
330
1F
100
AcDbEntity
  8
0
  6
Continuous
 62
     7
370
     0
100
AcDbLine
 10
26.6897404505
 20
187.3387043363
 30
0.0
 11
6.6897446228
 21
187.3387043363
 31
0.0
  0
CIRCLE
  5
150
330
1F
100
AcDbEntity
  8
0
  6
Continuous
 62
     7
370
     0
100
AcDbCircle
 10
290.8897432299
 20
262.3387027221
 30
0.0
 40
1.5
  0
CIRCLE
  5
151
330
1F
100
AcDbEntity
  8
0
  6
Continuous
 62
     7
370
     0
100
AcDbCircle
 10
260.8897432299
 20
262.3387027221
 30
0.0
 40
1.5
  0
CIRCLE
  5
152
330
1F
100
AcDbEntity
  8
0
  6
Continuous
 62
     7
370
     0
100
AcDbCircle
 10
230.8897432299
 20
262.3387027221
 30
0.0
 40
1.5
  0
CIRCLE
  5
153
330
1F
100
AcDbEntity
  8
0
  6
Continuous
 62
     7
370
     0
100
AcDbCircle
 10
200.8897432299
 20
262.3387027221
 30
0.0
 40
1.5
  0
CIRCLE
  5
154
330
1F
100
AcDbEntity
  8
0
  6
Continuous
 62
     7
370
     0
100
AcDbCircle
 10
170.8897432299
 20
262.3387027221
 30
0.0
 40
1.5
  0
CIRCLE
  5
155
330
1F
100
AcDbEntity
  8
0
  6
Continuous
 62
     7
370
     0
100
AcDbCircle
 10
387.8897432299
 20
107.3387027221
 30
0.0
 40
1.25
  0
CIRCLE
  5
156
330
1F
100
AcDbEntity
  8
0
  6
Continuous
 62
     7
370
     0
100
AcDbCircle
 10
387.8897432299
 20
137.3387027221
 30
0.0
 40
1.250000000000028
  0
CIRCLE
  5
157
330
1F
100
AcDbEntity
  8
0
  6
Continuous
 62
     7
370
     0
100
AcDbCircle
 10
387.8897432299
 20
167.3387027221
 30
0.0
 40
1.250000000000028
  0
CIRCLE
  5
158
330
1F
100
AcDbEntity
  8
0
  6
Continuous
 62
     7
370
     0
100
AcDbCircle
 10
387.8897432299
 20
197.3387027221
 30
0.0
 40
1.25
  0
CIRCLE
  5
159
330
1F
100
AcDbEntity
  8
0
  6
Continuous
 62
     7
370
     0
100
AcDbCircle
 10
387.8897432299
 20
227.3387027221
 30
0.0
 40
1.25
  0
CIRCLE
  5
15A
330
1F
100
AcDbEntity
  8
0
  6
Continuous
 62
     7
370
     0
100
AcDbCircle
 10
387.8897432299
 20
287.3387027221
 30
0.0
 40
1.250000000000057
  0
CIRCLE
  5
15B
330
1F
100
AcDbEntity
  8
0
  6
Continuous
 62
     7
370
     0
100
AcDbCircle
 10
387.8897432299
 20
317.3387027221
 30
0.0
 40
1.25
  0
CIRCLE
  5
15C
330
1F
100
AcDbEntity
  8
0
  6
Continuous
 62
     7
370
     0
100
AcDbCircle
 10
387.8897432299
 20
347.3387027221
 30
0.0
 40
1.25
  0
CIRCLE
  5
15D
330
1F
100
AcDbEntity
  8
0
  6
Continuous
 62
     7
370
     0
100
AcDbCircle
 10
387.8897432299
 20
257.3387027221
 30
0.0
 40
1.249999999999943
  0
CIRCLE
  5
15E
330
1F
100
AcDbEntity
  8
0
  6
Continuous
 62
     7
370
     0
100
AcDbCircle
 10
387.8897432299
 20
377.3387027221
 30
0.0
 40
1.249999999999943
  0
CIRCLE
  5
15F
330
1F
100
AcDbEntity
  8
0
  6
Continuous
 62
     7
370
     0
100
AcDbCircle
 10
379.7897432299
 20
266.1687027221
 30
0.0
 40
1.550000000000011
  0
CIRCLE
  5
160
330
1F
100
AcDbEntity
  8
0
  6
Continuous
 62
     7
370
     0
100
AcDbCircle
 10
379.7897432299
 20
306.1687027221
 30
0.0
 40
1.550000000000011
  0
CIRCLE
  5
161
330
1F
100
AcDbEntity
  8
0
  6
Continuous
 62
     7
370
     0
100
AcDbCircle
 10
19.7897432299
 20
306.1687027221
 30
0.0
 40
1.550000000000011
  0
CIRCLE
  5
162
330
1F
100
AcDbEntity
  8
0
  6
Continuous
 62
     7
370
     0
100
AcDbCircle
 10
19.7897432299
 20
266.1687027221
 30
0.0
 40
1.550000000000011
  0
LINE
  5
163
330
1F
100
AcDbEntity
  8
0
  6
Continuous
 62
     7
370
     0
100
AcDbLine
 10
336.9822377277
 20
58.25894149
 30
0.0
 11
334.0317035032
 21
57.7163604086
 31
0.0
  0
LINE
  5
164
330
1F
100
AcDbEntity
  8
0
  6
Continuous
 62
     7
370
     0
100
AcDbLine
 10
336.2588161541
 20
62.1929672545
 30
0.0
 11
336.9822377277
 21
58.25894149
 31
0.0
  0
LINE
  5
165
330
1F
100
AcDbEntity
  8
0
  6
Continuous
 62
     7
370
     0
100
AcDbLine
 10
333.3082819296
 20
61.6504010743
 30
0.0
 11
336.2588161541
 21
62.1929672545
 31
0.0
  0
LINE
  5
166
330
1F
100
AcDbEntity
  8
0
  6
Continuous
 62
     7
370
     0
100
AcDbLine
 10
334.0317035032
 20
57.7163604086
 30
0.0
 11
333.3082819296
 21
61.6504010743
 31
0.0
  0
LINE
  5
167
330
1F
100
AcDbEntity
  8
0
  6
Continuous
 62
     7
370
     0
100
AcDbLine
 10
329.7479772878
 20
97.599318344
 30
0.0
 11
326.7974430633
 21
97.0567521637
 31
0.0
  0
LINE
  5
168
330
1F
100
AcDbEntity
  8
0
  6
Continuous
 62
     7
370
     0
100
AcDbLine
 10
329.0245557142
 20
101.5333590096
 30
0.0
 11
329.7479772878
 21
97.599318344
 31
0.0
  0
LINE
  5
169
330
1F
100
AcDbEntity
  8
0
  6
Continuous
 62
     7
370
     0
100
AcDbLine
 10
326.0740214897
 20
100.9907779282
 30
0.0
 11
329.0245557142
 21
101.5333590096
 31
0.0
  0
LINE
  5
16A
330
1F
100
AcDbEntity
  8
0
  6
Continuous
 62
     7
370
     0
100
AcDbLine
 10
326.7974430633
 20
97.0567521637
 30
0.0
 11
326.0740214897
 21
100.9907779282
 31
0.0
  0
LINE
  5
16B
330
1F
100
AcDbEntity
  8
0
  6
Continuous
 62
     7
370
     0
100
AcDbLine
 10
322.513716848
 20
136.9396951979
 30
0.0
 11
319.5631826235
 21
136.3971290177
 31
0.0
  0
LINE
  5
16C
330
1F
100
AcDbEntity
  8
0
  6
Continuous
 62
     7
370
     0
100
AcDbLine
 10
321.7902952743
 20
140.8737358635
 30
0.0
 11
322.513716848
 21
136.9396951979
 31
0.0
  0
LINE
  5
16D
330
1F
100
AcDbEntity
  8
0
  6
Continuous
 62
     7
370
     0
100
AcDbLine
 10
318.8397610498
 20
140.3311622327
 30
0.0
 11
321.7902952743
 21
140.8737358635
 31
0.0
  0
LINE
  5
16E
330
1F
100
AcDbEntity
  8
0
  6
Continuous
 62
     7
370
     0
100
AcDbLine
 10
319.5631826235
 20
136.3971290177
 30
0.0
 11
318.8397610498
 21
140.3311622327
 31
0.0
  0
LINE
  5
16F
330
1F
100
AcDbEntity
  8
0
  6
Continuous
 62
     7
370
     0
100
AcDbLine
 10
315.2794564081
 20
176.2800795024
 30
0.0
 11
312.3289370847
 21
175.7375058716
 31
0.0
  0
LINE
  5
170
330
1F
100
AcDbEntity
  8
0
  6
Continuous
 62
     7
370
     0
100
AcDbLine
 10
314.5560348345
 20
180.2141127175
 30
0.0
 11
315.2794564081
 21
176.2800795024
 31
0.0
  0
LINE
  5
171
330
1F
100
AcDbEntity
  8
0
  6
Continuous
 62
     7
370
     0
100
AcDbLine
 10
311.6055006099
 20
179.6715465372
 30
0.0
 11
314.5560348345
 21
180.2141127175
 31
0.0
  0
LINE
  5
172
330
1F
100
AcDbEntity
  8
0
  6
Continuous
 62
     7
370
     0
100
AcDbLine
 10
312.3289370847
 20
175.7375058716
 30
0.0
 11
311.6055006099
 21
179.6715465372
 31
0.0
  0
LINE
  5
173
330
1F
100
AcDbEntity
  8
0
  6
Continuous
 62
     7
370
     0
100
AcDbLine
 10
308.0451959682
 20
215.6204563564
 30
0.0
 11
305.0946766449
 21
215.0778864509
 31
0.0
  0
LINE
  5
174
330
1F
100
AcDbEntity
  8
0
  6
Continuous
 62
     7
370
     0
100
AcDbLine
 10
307.3217743946
 20
219.5544951594
 30
0.0
 11
308.0451959682
 21
215.6204563564
 31
0.0
  0
LINE
  5
175
330
1F
100
AcDbEntity
  8
0
  6
Continuous
 62
     7
370
     0
100
AcDbLine
 10
304.3712401701
 20
219.0119252538
 30
0.0
 11
307.3217743946
 21
219.5544951594
 31
0.0
  0
LINE
  5
176
330
1F
100
AcDbEntity
  8
0
  6
Continuous
 62
     7
370
     0
100
AcDbLine
 10
305.0946766449
 20
215.0778864509
 30
0.0
 11
304.3712401701
 21
219.0119252538
 31
0.0
  0
LINE
  5
177
330
1F
100
AcDbEntity
  8
0
  6
Continuous
 62
     7
370
     0
100
AcDbLine
 10
361.6497391773
 20
287.3387021011
 30
0.0
 11
367.2497445656
 21
287.3387021011
 31
0.0
  0
LINE
  5
178
330
1F
100
AcDbEntity
  8
0
  6
Continuous
 62
     1
370
     0
100
AcDbLine
 10
312.3797500444
 20
447.3387059754
 30
0.0
 11
187.1897416127
 21
447.3387059754
 31
0.0
  0
LINE
  5
179
330
1F
100
AcDbEntity
  8
0
  6
Continuous
 62
     1
370
     0
100
AcDbLine
 10
184.1897429837
 20
447.3387059754
 30
0.0
 11
50.9597459746
 21
447.3387059754
 31
0.0
  0
LINE
  5
17A
330
1F
100
AcDbEntity
  8
0
  6
Continuous
 62
     1
370
     0
100
AcDbLine
 10
47.9597398949
 20
447.3387059754
 30
0.0
 11
1.6897493912
 21
447.3387059754
 31
0.0
  0
LINE
  5
17B
330
1F
100
AcDbEntity
  8
0
  6
Continuous
 62
     1
370
     0
100
AcDbLine
 10
7.2897398783
 20
47.3387000149
 30
0.0
 11
66.6897395564
 21
47.3387000149
 31
0.0
  0
LINE
  5
17C
330
1F
100
AcDbEntity
  8
0
  6
Continuous
 62
     1
370
     0
100
AcDbLine
 10
1.6897493912
 20
337.3386991208
 30
0.0
 11
1.6897493912
 21
157.3386994189
 31
0.0
  0
LINE
  5
17D
330
1F
100
AcDbEntity
  8
0
  6
Continuous
 62
     1
370
     0
100
AcDbLine
 10
1.6897493912
 20
147.338701505
 30
0.0
 11
1.6897493912
 21
137.3387035912
 31
0.0
  0
LINE
  5
17E
330
1F
100
AcDbEntity
  8
0
  6
Continuous
 62
     1
370
     0
100
AcDbLine
 10
1.6897493912
 20
127.3387056774
 30
0.0
 11
1.6897493912
 21
117.3387077635
 31
0.0
  0
LINE
  5
17F
330
1F
100
AcDbEntity
  8
0
  6
Continuous
 62
     1
370
     0
100
AcDbLine
 10
1.6897493912
 20
107.3387023991
 30
0.0
 11
1.6897493912
 21
97.3386970347
 31
0.0
  0
LINE
  5
180
330
1F
100
AcDbEntity
  8
0
  6
Continuous
 62
     1
370
     0
100
AcDbLine
 10
1.6897493912
 20
87.3387065714
 30
0.0
 11
1.6897493912
 21
77.338701207
 31
0.0
  0
LINE
  5
181
330
1F
100
AcDbEntity
  8
0
  6
Continuous
 62
     1
370
     0
100
AcDbLine
 10
1.6897493912
 20
357.3387023991
 30
0.0
 11
1.6897493912
 21
347.3387044853
 31
0.0
  0
LINE
  5
182
330
1F
100
AcDbEntity
  8
0
  6
Continuous
 62
     1
370
     0
100
AcDbLine
 10
1.6897493912
 20
377.3386982268
 30
0.0
 11
1.6897493912
 21
367.3387003129
 31
0.0
  0
LINE
  5
183
330
1F
100
AcDbEntity
  8
0
  6
Continuous
 62
     1
370
     0
100
AcDbLine
 10
1.6897493912
 20
447.3387059754
 30
0.0
 11
1.6897493912
 21
387.3387035912
 31
0.0
  0
LINE
  5
184
330
1F
100
AcDbEntity
  8
0
  6
Continuous
 62
     1
370
     0
100
AcDbLine
 10
397.8897357298
 20
77.338701207
 30
0.0
 11
397.8897357298
 21
87.3387065714
 31
0.0
  0
LINE
  5
185
330
1F
100
AcDbEntity
  8
0
  6
Continuous
 62
     1
370
     0
100
AcDbLine
 10
397.8897357298
 20
57.3387053793
 30
0.0
 11
397.8897357298
 21
67.3386958426
 31
0.0
  0
LINE
  5
186
330
1F
100
AcDbEntity
  8
0
  6
Continuous
 62
     1
370
     0
100
AcDbLine
 10
189.7182028194
 20
103.7587208534
 30
0.0
 11
199.7182028194
 21
103.7587208534
 31
0.0
  0
LINE
  5
187
330
1F
100
AcDbEntity
  8
0
  6
Continuous
 62
     1
370
     0
100
AcDbLine
 10
199.7182028194
 20
103.7587208534
 30
0.0
 11
199.7182028194
 21
98.1587208534
 31
0.0
  0
LINE
  5
188
330
1F
100
AcDbEntity
  8
0
  6
Continuous
 62
     1
370
     0
100
AcDbLine
 10
199.7182028194
 20
98.1587208534
 30
0.0
 11
209.7182028194
 21
98.1587208534
 31
0.0
  0
LINE
  5
189
330
1F
100
AcDbEntity
  8
0
  6
Continuous
 62
     1
370
     0
100
AcDbLine
 10
209.7182028194
 20
98.1587208534
 30
0.0
 11
209.7182028194
 21
103.7587208534
 31
0.0
  0
LINE
  5
18A
330
1F
100
AcDbEntity
  8
0
  6
Continuous
 62
     1
370
     0
100
AcDbLine
 10
209.7182028194
 20
103.7587208534
 30
0.0
 11
219.7182028194
 21
103.7587208534
 31
0.0
  0
LINE
  5
18B
330
1F
100
AcDbEntity
  8
0
  6
Continuous
 62
     1
370
     0
100
AcDbLine
 10
219.7182028194
 20
103.7587208534
 30
0.0
 11
219.7182028194
 21
98.1587208534
 31
0.0
  0
LINE
  5
18C
330
1F
100
AcDbEntity
  8
0
  6
Continuous
 62
     1
370
     0
100
AcDbLine
 10
219.7182028194
 20
98.1587208534
 30
0.0
 11
229.7182028194
 21
98.1587208534
 31
0.0
  0
LINE
  5
18D
330
1F
100
AcDbEntity
  8
0
  6
Continuous
 62
     1
370
     0
100
AcDbLine
 10
229.7182028194
 20
98.1587208534
 30
0.0
 11
229.7182028194
 21
225.5587208534
 31
0.0
  0
LINE
  5
18E
330
1F
100
AcDbEntity
  8
0
  6
Continuous
 62
     1
370
     0
100
AcDbLine
 10
229.7182028194
 20
225.5587208534
 30
0.0
 11
219.7182028194
 21
225.5587208534
 31
0.0
  0
LINE
  5
18F
330
1F
100
AcDbEntity
  8
0
  6
Continuous
 62
     1
370
     0
100
AcDbLine
 10
219.7182028194
 20
225.5587208534
 30
0.0
 11
219.7182028194
 21
219.9587208534
 31
0.0
  0
LINE
  5
190
330
1F
100
AcDbEntity
  8
0
  6
Continuous
 62
     1
370
     0
100
AcDbLine
 10
209.7182028194
 20
219.9587208534
 30
0.0
 11
219.7182028194
 21
219.9587208534
 31
0.0
  0
LINE
  5
191
330
1F
100
AcDbEntity
  8
0
  6
Continuous
 62
     1
370
     0
100
AcDbLine
 10
209.7182028194
 20
219.9587208534
 30
0.0
 11
209.7182028194
 21
225.5587208534
 31
0.0
  0
LINE
  5
192
330
1F
100
AcDbEntity
  8
0
  6
Continuous
 62
     1
370
     0
100
AcDbLine
 10
209.7182028194
 20
225.5587208534
 30
0.0
 11
199.7182028194
 21
225.5587208534
 31
0.0
  0
LINE
  5
193
330
1F
100
AcDbEntity
  8
0
  6
Continuous
 62
     1
370
     0
100
AcDbLine
 10
199.7182028194
 20
225.5587208534
 30
0.0
 11
199.7182028194
 21
219.9587208534
 31
0.0
  0
LINE
  5
194
330
1F
100
AcDbEntity
  8
0
  6
Continuous
 62
     1
370
     0
100
AcDbLine
 10
189.7182028194
 20
219.9587208534
 30
0.0
 11
199.7182028194
 21
219.9587208534
 31
0.0
  0
LINE
  5
195
330
1F
100
AcDbEntity
  8
0
  6
Continuous
 62
     1
370
     0
100
AcDbLine
 10
189.7182028194
 20
219.9587208534
 30
0.0
 11
189.7182028194
 21
225.5587208534
 31
0.0
  0
LINE
  5
196
330
1F
100
AcDbEntity
  8
0
  6
Continuous
 62
     1
370
     0
100
AcDbLine
 10
189.7182028194
 20
225.5587208534
 30
0.0
 11
179.7182028194
 21
225.5587208534
 31
0.0
  0
LINE
  5
197
330
1F
100
AcDbEntity
  8
0
  6
Continuous
 62
     1
370
     0
100
AcDbLine
 10
179.7182028194
 20
225.5587208534
 30
0.0
 11
179.7182028194
 21
219.9587208534
 31
0.0
  0
LINE
  5
198
330
1F
100
AcDbEntity
  8
0
  6
Continuous
 62
     1
370
     0
100
AcDbLine
 10
169.7182028194
 20
219.9587208534
 30
0.0
 11
179.7182028194
 21
219.9587208534
 31
0.0
  0
LINE
  5
199
330
1F
100
AcDbEntity
  8
0
  6
Continuous
 62
     1
370
     0
100
AcDbLine
 10
169.7182028194
 20
219.9587208534
 30
0.0
 11
169.7182028194
 21
225.5587208534
 31
0.0
  0
LINE
  5
19A
330
1F
100
AcDbEntity
  8
0
  6
Continuous
 62
     1
370
     0
100
AcDbLine
 10
169.7182028194
 20
225.5587208534
 30
0.0
 11
159.7182028194
 21
225.5587208534
 31
0.0
  0
LINE
  5
19B
330
1F
100
AcDbEntity
  8
0
  6
Continuous
 62
     1
370
     0
100
AcDbLine
 10
159.7182028194
 20
225.5587208534
 30
0.0
 11
159.7182028194
 21
219.9587208534
 31
0.0
  0
LINE
  5
19C
330
1F
100
AcDbEntity
  8
0
  6
Continuous
 62
     1
370
     0
100
AcDbLine
 10
149.7182028194
 20
219.9587208534
 30
0.0
 11
159.7182028194
 21
219.9587208534
 31
0.0
  0
LINE
  5
19D
330
1F
100
AcDbEntity
  8
0
  6
Continuous
 62
     1
370
     0
100
AcDbLine
 10
149.7182028194
 20
219.9587208534
 30
0.0
 11
149.7182028194
 21
225.5587208534
 31
0.0
  0
LINE
  5
19E
330
1F
100
AcDbEntity
  8
0
  6
Continuous
 62
     1
370
     0
100
AcDbLine
 10
149.7182028194
 20
225.5587208534
 30
0.0
 11
139.7182028194
 21
225.5587208534
 31
0.0
  0
LINE
  5
19F
330
1F
100
AcDbEntity
  8
0
  6
Continuous
 62
     1
370
     0
100
AcDbLine
 10
139.7182028194
 20
225.5587208534
 30
0.0
 11
139.7182028194
 21
219.9587208534
 31
0.0
  0
LINE
  5
1A0
330
1F
100
AcDbEntity
  8
0
  6
Continuous
 62
     1
370
     0
100
AcDbLine
 10
129.7182028194
 20
219.9587208534
 30
0.0
 11
139.7182028194
 21
219.9587208534
 31
0.0
  0
LINE
  5
1A1
330
1F
100
AcDbEntity
  8
0
  6
Continuous
 62
     1
370
     0
100
AcDbLine
 10
129.7182028194
 20
219.9587208534
 30
0.0
 11
129.7182028194
 21
225.5587208534
 31
0.0
  0
LINE
  5
1A2
330
1F
100
AcDbEntity
  8
0
  6
Continuous
 62
     1
370
     0
100
AcDbLine
 10
129.7182028194
 20
225.5587208534
 30
0.0
 11
119.7182028194
 21
225.5587208534
 31
0.0
  0
LINE
  5
1A3
330
1F
100
AcDbEntity
  8
0
  6
Continuous
 62
     1
370
     0
100
AcDbLine
 10
119.7182028194
 20
219.9587208534
 30
0.0
 11
119.7182028194
 21
225.5587208534
 31
0.0
  0
LINE
  5
1A4
330
1F
100
AcDbEntity
  8
0
  6
Continuous
 62
     1
370
     0
100
AcDbLine
 10
99.7182028194
 20
219.9587208534
 30
0.0
 11
119.7182028194
 21
219.9587208534
 31
0.0
  0
LINE
  5
1A5
330
1F
100
AcDbEntity
  8
0
  6
Continuous
 62
     1
370
     0
100
AcDbLine
 10
99.7182028194
 20
219.9587208534
 30
0.0
 11
99.7182028194
 21
103.7587208534
 31
0.0
  0
LINE
  5
1A6
330
1F
100
AcDbEntity
  8
0
  6
Continuous
 62
     1
370
     0
100
AcDbLine
 10
99.7182028194
 20
103.7587208534
 30
0.0
 11
119.7182028194
 21
103.7587208534
 31
0.0
  0
LINE
  5
1A7
330
1F
100
AcDbEntity
  8
0
  6
Continuous
 62
     1
370
     0
100
AcDbLine
 10
119.7182028194
 20
103.7587208534
 30
0.0
 11
119.7182028194
 21
98.1587208534
 31
0.0
  0
LINE
  5
1A8
330
1F
100
AcDbEntity
  8
0
  6
Continuous
 62
     1
370
     0
100
AcDbLine
 10
119.7182028194
 20
98.1587208534
 30
0.0
 11
129.7182028194
 21
98.1587208534
 31
0.0
  0
LINE
  5
1A9
330
1F
100
AcDbEntity
  8
0
  6
Continuous
 62
     1
370
     0
100
AcDbLine
 10
129.7182028194
 20
98.1587208534
 30
0.0
 11
129.7182028194
 21
103.7587208534
 31
0.0
  0
LINE
  5
1AA
330
1F
100
AcDbEntity
  8
0
  6
Continuous
 62
     1
370
     0
100
AcDbLine
 10
129.7182028194
 20
103.7587208534
 30
0.0
 11
139.7182028194
 21
103.7587208534
 31
0.0
  0
LINE
  5
1AB
330
1F
100
AcDbEntity
  8
0
  6
Continuous
 62
     1
370
     0
100
AcDbLine
 10
139.7182028194
 20
103.7587208534
 30
0.0
 11
139.7182028194
 21
98.1587208534
 31
0.0
  0
LINE
  5
1AC
330
1F
100
AcDbEntity
  8
0
  6
Continuous
 62
     1
370
     0
100
AcDbLine
 10
139.7182028194
 20
98.1587208534
 30
0.0
 11
149.7182028194
 21
98.1587208534
 31
0.0
  0
LINE
  5
1AD
330
1F
100
AcDbEntity
  8
0
  6
Continuous
 62
     1
370
     0
100
AcDbLine
 10
149.7182028194
 20
98.1587208534
 30
0.0
 11
149.7182028194
 21
103.7587208534
 31
0.0
  0
LINE
  5
1AE
330
1F
100
AcDbEntity
  8
0
  6
Continuous
 62
     1
370
     0
100
AcDbLine
 10
149.7182028194
 20
103.7587208534
 30
0.0
 11
159.7182028194
 21
103.7587208534
 31
0.0
  0
LINE
  5
1AF
330
1F
100
AcDbEntity
  8
0
  6
Continuous
 62
     1
370
     0
100
AcDbLine
 10
159.7182028194
 20
103.7587208534
 30
0.0
 11
159.7182028194
 21
98.1587208534
 31
0.0
  0
LINE
  5
1B0
330
1F
100
AcDbEntity
  8
0
  6
Continuous
 62
     1
370
     0
100
AcDbLine
 10
159.7182028194
 20
98.1587208534
 30
0.0
 11
169.7182028194
 21
98.1587208534
 31
0.0
  0
LINE
  5
1B1
330
1F
100
AcDbEntity
  8
0
  6
Continuous
 62
     1
370
     0
100
AcDbLine
 10
169.7182028194
 20
98.1587208534
 30
0.0
 11
169.7182028194
 21
103.7587208534
 31
0.0
  0
LINE
  5
1B2
330
1F
100
AcDbEntity
  8
0
  6
Continuous
 62
     1
370
     0
100
AcDbLine
 10
169.7182028194
 20
103.7587208534
 30
0.0
 11
179.7182028194
 21
103.7587208534
 31
0.0
  0
LINE
  5
1B3
330
1F
100
AcDbEntity
  8
0
  6
Continuous
 62
     1
370
     0
100
AcDbLine
 10
179.7182028194
 20
103.7587208534
 30
0.0
 11
179.7182028194
 21
98.1587208534
 31
0.0
  0
LINE
  5
1B4
330
1F
100
AcDbEntity
  8
0
  6
Continuous
 62
     1
370
     0
100
AcDbLine
 10
179.7182028194
 20
98.1587208534
 30
0.0
 11
189.7182028194
 21
98.1587208534
 31
0.0
  0
LINE
  5
1B5
330
1F
100
AcDbEntity
  8
0
  6
Continuous
 62
     1
370
     0
100
AcDbLine
 10
189.7182028194
 20
98.1587208534
 30
0.0
 11
189.7182028194
 21
103.7587208534
 31
0.0
  0
LINE
  5
1B6
330
1F
100
AcDbEntity
  8
0
  6
Continuous
 62
     1
370
     0
100
AcDbLine
 10
241.5054724701
 20
224.9744862233
 30
0.0
 11
231.5054724701
 21
224.9744862233
 31
0.0
  0
LINE
  5
1B7
330
1F
100
AcDbEntity
  8
0
  6
Continuous
 62
     1
370
     0
100
AcDbLine
 10
241.5054724701
 20
219.3744862233
 30
0.0
 11
241.5054724701
 21
224.9744862233
 31
0.0
  0
LINE
  5
1B8
330
1F
100
AcDbEntity
  8
0
  6
Continuous
 62
     1
370
     0
100
AcDbLine
 10
251.5054724701
 20
219.3744862233
 30
0.0
 11
241.5054724701
 21
219.3744862233
 31
0.0
  0
LINE
  5
1B9
330
1F
100
AcDbEntity
  8
0
  6
Continuous
 62
     1
370
     0
100
AcDbLine
 10
251.5054724701
 20
224.9744862233
 30
0.0
 11
251.5054724701
 21
219.3744862233
 31
0.0
  0
LINE
  5
1BA
330
1F
100
AcDbEntity
  8
0
  6
Continuous
 62
     1
370
     0
100
AcDbLine
 10
261.5054724701
 20
224.9744862233
 30
0.0
 11
251.5054724701
 21
224.9744862233
 31
0.0
  0
LINE
  5
1BB
330
1F
100
AcDbEntity
  8
0
  6
Continuous
 62
     1
370
     0
100
AcDbLine
 10
261.5054724701
 20
219.3744862233
 30
0.0
 11
261.5054724701
 21
224.9744862233
 31
0.0
  0
LINE
  5
1BC
330
1F
100
AcDbEntity
  8
0
  6
Continuous
 62
     1
370
     0
100
AcDbLine
 10
271.5054724701
 20
219.3744862233
 30
0.0
 11
261.5054724701
 21
219.3744862233
 31
0.0
  0
LINE
  5
1BD
330
1F
100
AcDbEntity
  8
0
  6
Continuous
 62
     1
370
     0
100
AcDbLine
 10
271.5054724701
 20
224.9744862233
 30
0.0
 11
271.5054724701
 21
219.3744862233
 31
0.0
  0
LINE
  5
1BE
330
1F
100
AcDbEntity
  8
0
  6
Continuous
 62
     1
370
     0
100
AcDbLine
 10
281.5054724701
 20
224.9744862233
 30
0.0
 11
271.5054724701
 21
224.9744862233
 31
0.0
  0
LINE
  5
1BF
330
1F
100
AcDbEntity
  8
0
  6
Continuous
 62
     1
370
     0
100
AcDbLine
 10
281.5054724701
 20
219.3744862233
 30
0.0
 11
281.5054724701
 21
224.9744862233
 31
0.0
  0
LINE
  5
1C0
330
1F
100
AcDbEntity
  8
0
  6
Continuous
 62
     1
370
     0
100
AcDbLine
 10
289.5598918165
 20
219.3744862233
 30
0.0
 11
281.5054724701
 21
219.3744862233
 31
0.0
  0
LINE
  5
1C1
330
1F
100
AcDbEntity
  8
0
  6
Continuous
 62
     1
370
     0
100
AcDbLine
 10
289.5598918165
 20
103.1744862233
 30
0.0
 11
289.5598918165
 21
219.3744862233
 31
0.0
  0
LINE
  5
1C2
330
1F
100
AcDbEntity
  8
0
  6
Continuous
 62
     1
370
     0
100
AcDbLine
 10
281.5054724701
 20
103.1744862233
 30
0.0
 11
289.5598918165
 21
103.1744862233
 31
0.0
  0
LINE
  5
1C3
330
1F
100
AcDbEntity
  8
0
  6
Continuous
 62
     1
370
     0
100
AcDbLine
 10
281.5054724701
 20
97.5744862233
 30
0.0
 11
281.5054724701
 21
103.1744862233
 31
0.0
  0
LINE
  5
1C4
330
1F
100
AcDbEntity
  8
0
  6
Continuous
 62
     1
370
     0
100
AcDbLine
 10
271.5054724701
 20
97.5744862233
 30
0.0
 11
281.5054724701
 21
97.5744862233
 31
0.0
  0
LINE
  5
1C5
330
1F
100
AcDbEntity
  8
0
  6
Continuous
 62
     1
370
     0
100
AcDbLine
 10
271.5054724701
 20
103.1744862233
 30
0.0
 11
271.5054724701
 21
97.5744862233
 31
0.0
  0
LINE
  5
1C6
330
1F
100
AcDbEntity
  8
0
  6
Continuous
 62
     1
370
     0
100
AcDbLine
 10
261.5054724701
 20
103.1744862233
 30
0.0
 11
271.5054724701
 21
103.1744862233
 31
0.0
  0
LINE
  5
1C7
330
1F
100
AcDbEntity
  8
0
  6
Continuous
 62
     1
370
     0
100
AcDbLine
 10
261.5054724701
 20
97.5744862233
 30
0.0
 11
261.5054724701
 21
103.1744862233
 31
0.0
  0
LINE
  5
1C8
330
1F
100
AcDbEntity
  8
0
  6
Continuous
 62
     1
370
     0
100
AcDbLine
 10
251.5054724701
 20
97.5744862233
 30
0.0
 11
261.5054724701
 21
97.5744862233
 31
0.0
  0
LINE
  5
1C9
330
1F
100
AcDbEntity
  8
0
  6
Continuous
 62
     1
370
     0
100
AcDbLine
 10
251.5054724701
 20
103.1744862233
 30
0.0
 11
251.5054724701
 21
97.5744862233
 31
0.0
  0
LINE
  5
1CA
330
1F
100
AcDbEntity
  8
0
  6
Continuous
 62
     1
370
     0
100
AcDbLine
 10
241.5054724701
 20
103.1744862233
 30
0.0
 11
251.5054724701
 21
103.1744862233
 31
0.0
  0
LINE
  5
1CB
330
1F
100
AcDbEntity
  8
0
  6
Continuous
 62
     1
370
     0
100
AcDbLine
 10
241.5054724701
 20
97.5744862233
 30
0.0
 11
241.5054724701
 21
103.1744862233
 31
0.0
  0
LINE
  5
1CC
330
1F
100
AcDbEntity
  8
0
  6
Continuous
 62
     1
370
     0
100
AcDbLine
 10
231.5054724701
 20
97.5744862233
 30
0.0
 11
241.5054724701
 21
97.5744862233
 31
0.0
  0
LINE
  5
1CD
330
1F
100
AcDbEntity
  8
0
  6
Continuous
 62
     1
370
     0
100
AcDbLine
 10
231.5054724701
 20
126.2744862233
 30
0.0
 11
231.5054724701
 21
97.5744862233
 31
0.0
  0
LINE
  5
1CE
330
1F
100
AcDbEntity
  8
0
  6
Continuous
 62
     1
370
     0
100
AcDbLine
 10
241.5054724701
 20
136.2744862233
 30
0.0
 11
231.5054724701
 21
126.2744862233
 31
0.0
  0
LINE
  5
1CF
330
1F
100
AcDbEntity
  8
0
  6
Continuous
 62
     1
370
     0
100
AcDbLine
 10
246.5054724701
 20
136.2744862233
 30
0.0
 11
241.5054724701
 21
136.2744862233
 31
0.0
  0
LINE
  5
1D0
330
1F
100
AcDbEntity
  8
0
  6
Continuous
 62
     1
370
     0
100
AcDbLine
 10
246.5054724701
 20
186.2744862233
 30
0.0
 11
246.5054724701
 21
136.2744862233
 31
0.0
  0
LINE
  5
1D1
330
1F
100
AcDbEntity
  8
0
  6
Continuous
 62
     1
370
     0
100
AcDbLine
 10
241.5054724701
 20
186.2744862233
 30
0.0
 11
246.5054724701
 21
186.2744862233
 31
0.0
  0
LINE
  5
1D2
330
1F
100
AcDbEntity
  8
0
  6
Continuous
 62
     1
370
     0
100
AcDbLine
 10
231.5054724701
 20
196.2744862233
 30
0.0
 11
241.5054724701
 21
186.2744862233
 31
0.0
  0
LINE
  5
1D3
330
1F
100
AcDbEntity
  8
0
  6
Continuous
 62
     1
370
     0
100
AcDbLine
 10
231.5054724701
 20
224.9744862233
 30
0.0
 11
231.5054724701
 21
196.2744862233
 31
0.0
  0
LINE
  5
1D4
330
1F
100
AcDbEntity
  8
0
  6
Continuous
 62
     1
370
     0
100
AcDbLine
 10
209.7226946586
 20
46.3023531997
 30
0.0
 11
209.7226946586
 21
56.3023531997
 31
0.0
  0
LINE
  5
1D5
330
1F
100
AcDbEntity
  8
0
  6
Continuous
 62
     1
370
     0
100
AcDbLine
 10
209.7226946586
 20
56.3023531997
 30
0.0
 11
204.1226946586
 21
56.3023531997
 31
0.0
  0
LINE
  5
1D6
330
1F
100
AcDbEntity
  8
0
  6
Continuous
 62
     1
370
     0
100
AcDbLine
 10
204.1226946586
 20
56.3023531997
 30
0.0
 11
204.1226946586
 21
66.3023531997
 31
0.0
  0
LINE
  5
1D7
330
1F
100
AcDbEntity
  8
0
  6
Continuous
 62
     1
370
     0
100
AcDbLine
 10
204.1226946586
 20
66.3023531997
 30
0.0
 11
209.7226946586
 21
66.3023531997
 31
0.0
  0
LINE
  5
1D8
330
1F
100
AcDbEntity
  8
0
  6
Continuous
 62
     1
370
     0
100
AcDbLine
 10
209.7226946586
 20
66.3023531997
 30
0.0
 11
209.7226946586
 21
76.3023531997
 31
0.0
  0
LINE
  5
1D9
330
1F
100
AcDbEntity
  8
0
  6
Continuous
 62
     1
370
     0
100
AcDbLine
 10
209.7226946586
 20
76.3023531997
 30
0.0
 11
204.1226946586
 21
76.3023531997
 31
0.0
  0
LINE
  5
1DA
330
1F
100
AcDbEntity
  8
0
  6
Continuous
 62
     1
370
     0
100
AcDbLine
 10
204.1226946586
 20
76.3023531997
 30
0.0
 11
204.1226946586
 21
86.3023531997
 31
0.0
  0
LINE
  5
1DB
330
1F
100
AcDbEntity
  8
0
  6
Continuous
 62
     1
370
     0
100
AcDbLine
 10
204.1226946586
 20
86.3023531997
 30
0.0
 11
209.7226946586
 21
86.3023531997
 31
0.0
  0
LINE
  5
1DC
330
1F
100
AcDbEntity
  8
0
  6
Continuous
 62
     1
370
     0
100
AcDbLine
 10
209.7226946586
 20
86.3023531997
 30
0.0
 11
209.7226946586
 21
96.3023531997
 31
0.0
  0
LINE
  5
1DD
330
1F
100
AcDbEntity
  8
0
  6
Continuous
 62
     1
370
     0
100
AcDbLine
 10
209.7226946586
 20
96.3023531997
 30
0.0
 11
82.3226946586
 21
96.3023531997
 31
0.0
  0
LINE
  5
1DE
330
1F
100
AcDbEntity
  8
0
  6
Continuous
 62
     1
370
     0
100
AcDbLine
 10
82.3226946586
 20
96.3023531997
 30
0.0
 11
82.3226946586
 21
86.3023531997
 31
0.0
  0
LINE
  5
1DF
330
1F
100
AcDbEntity
  8
0
  6
Continuous
 62
     1
370
     0
100
AcDbLine
 10
82.3226946586
 20
86.3023531997
 30
0.0
 11
87.9226946586
 21
86.3023531997
 31
0.0
  0
LINE
  5
1E0
330
1F
100
AcDbEntity
  8
0
  6
Continuous
 62
     1
370
     0
100
AcDbLine
 10
87.9226946586
 20
86.3023531997
 30
0.0
 11
87.9226946586
 21
76.3023531997
 31
0.0
  0
LINE
  5
1E1
330
1F
100
AcDbEntity
  8
0
  6
Continuous
 62
     1
370
     0
100
AcDbLine
 10
87.9226946586
 20
76.3023531997
 30
0.0
 11
82.3226946586
 21
76.3023531997
 31
0.0
  0
LINE
  5
1E2
330
1F
100
AcDbEntity
  8
0
  6
Continuous
 62
     1
370
     0
100
AcDbLine
 10
82.3226946586
 20
76.3023531997
 30
0.0
 11
82.3226946586
 21
66.3023531997
 31
0.0
  0
LINE
  5
1E3
330
1F
100
AcDbEntity
  8
0
  6
Continuous
 62
     1
370
     0
100
AcDbLine
 10
82.3226946586
 20
66.3023531997
 30
0.0
 11
87.9226946586
 21
66.3023531997
 31
0.0
  0
LINE
  5
1E4
330
1F
100
AcDbEntity
  8
0
  6
Continuous
 62
     1
370
     0
100
AcDbLine
 10
87.9226946586
 20
66.3023531997
 30
0.0
 11
87.9226946586
 21
56.3023531997
 31
0.0
  0
LINE
  5
1E5
330
1F
100
AcDbEntity
  8
0
  6
Continuous
 62
     1
370
     0
100
AcDbLine
 10
87.9226946586
 20
56.3023531997
 30
0.0
 11
82.3226946586
 21
56.3023531997
 31
0.0
  0
LINE
  5
1E6
330
1F
100
AcDbEntity
  8
0
  6
Continuous
 62
     1
370
     0
100
AcDbLine
 10
82.3226946586
 20
56.3023531997
 30
0.0
 11
82.3226946586
 21
46.3023531997
 31
0.0
  0
LINE
  5
1E7
330
1F
100
AcDbEntity
  8
0
  6
Continuous
 62
     1
370
     0
100
AcDbLine
 10
82.3226946586
 20
46.3023531997
 30
0.0
 11
209.7226946586
 21
46.3023531997
 31
0.0
  0
MTEXT
  5
1E9
330
1F
100
AcDbEntity
  8
0
  6
Continuous
 62
     7
100
AcDbMText
 10
0.0
 20
21.7128923541
 30
0.0
 40
7.785
 41
0.0
 71
     1
 72
     1
  1
SolidWorks Educational Edition.
  7
SLDTEXTSTYLE0
 73
     1
 44
1.0
  0
MTEXT
  5
1EA
330
1F
100
AcDbEntity
  8
0
  6
Continuous
 62
     7
100
AcDbMText
 10
0.0
 20
10.0353923541
 30
0.0
 40
7.785
 41
0.0
 71
     1
 72
     1
  1
For Instructional Use Only.
  7
SLDTEXTSTYLE0
 73
     1
 44
1.0
  0
ENDSEC
  0
SECTION
  2
OBJECTS
  0
DICTIONARY
  5
C
330
0
100
AcDbDictionary
281
     1
  3
ACAD_GROUP
350
D
  3
ACAD_LAYOUT
350
1A
  3
ACAD_MLINESTYLE
350
17
  3
ACAD_PLOTSETTINGS
350
19
  3
ACAD_PLOTSTYLENAME
350
E
  0
DICTIONARY
  5
D
102
{ACAD_REACTORS
330
C
102
}
330
C
100
AcDbDictionary
281
     1
  0
DICTIONARY
  5
1A
102
{ACAD_REACTORS
330
C
102
}
330
C
100
AcDbDictionary
281
     1
  3
Layout1
350
1E
  3
Layout2
350
26
  3
Model
350
22
  0
DICTIONARY
  5
17
102
{ACAD_REACTORS
330
C
102
}
330
C
100
AcDbDictionary
281
     1
  3
Standard
350
18
  0
DICTIONARY
  5
19
102
{ACAD_REACTORS
330
C
102
}
330
C
100
AcDbDictionary
281
     1
  0
ACDBDICTIONARYWDFLT
  5
E
102
{ACAD_REACTORS
330
C
102
}
330
C
100
AcDbDictionary
281
     1
  3
Normal
350
F
100
AcDbDictionaryWithDefault
340
F
  0
LAYOUT
  5
1E
102
{ACAD_REACTORS
330
1A
102
}
330
1A
100
AcDbPlotSettings
  1

  2
none_device
  4

  6

 40
0.0
 41
0.0
 42
0.0
 43
0.0
 44
0.0
 45
0.0
 46
0.0
 47
0.0
 48
0.0
 49
0.0
140
0.0
141
0.0
142
1.0
143
1.0
 70
   688
 72
     0
 73
     0
 74
     5
  7

 75
    16
147
1.0
148
0.0
149
0.0
100
AcDbLayout
  1
Layout1
 70
     1
 71
     1
 10
0.0
 20
0.0
 11
420.0
 21
297.0
 12
0.0
 22
0.0
 32
0.0
 14
1.0000000000E+20
 24
1.0000000000E+20
 34
1.0000000000E+20
 15
-1.0000000000E+20
 25
-1.0000000000E+20
 35
-1.0000000000E+20
146
0.0
 13
0.0
 23
0.0
 33
0.0
 16
1.0
 26
0.0
 36
0.0
 17
0.0
 27
1.0
 37
0.0
 76
     0
330
1B
  0
LAYOUT
  5
26
102
{ACAD_REACTORS
330
1A
102
}
330
1A
100
AcDbPlotSettings
  1

  2
none_device
  4

  6

 40
0.0
 41
0.0
 42
0.0
 43
0.0
 44
0.0
 45
0.0
 46
0.0
 47
0.0
 48
0.0
 49
0.0
140
0.0
141
0.0
142
1.0
143
1.0
 70
   688
 72
     0
 73
     0
 74
     5
  7

 75
    16
147
1.0
148
0.0
149
0.0
100
AcDbLayout
  1
Layout2
 70
     1
 71
     2
 10
0.0
 20
0.0
 11
0.0
 21
0.0
 12
0.0
 22
0.0
 32
0.0
 14
0.0
 24
0.0
 34
0.0
 15
0.0
 25
0.0
 35
0.0
146
0.0
 13
0.0
 23
0.0
 33
0.0
 16
1.0
 26
0.0
 36
0.0
 17
0.0
 27
1.0
 37
0.0
 76
     0
330
23
  0
LAYOUT
  5
22
102
{ACAD_REACTORS
330
1A
102
}
330
1A
100
AcDbPlotSettings
  1

  2
none_device
  4

  6

 40
0.0
 41
0.0
 42
0.0
 43
0.0
 44
0.0
 45
0.0
 46
0.0
 47
0.0
 48
0.0
 49
0.0
140
0.0
141
0.0
142
1.0
143
1.0
 70
  1712
 72
     0
 73
     0
 74
     0
  7

 75
     0
147
1.0
148
0.0
149
0.0
100
AcDbLayout
  1
Model
 70
     1
 71
     0
 10
0.0
 20
0.0
 11
609.0
 21
450.0
 12
0.0
 22
0.0
 32
0.0
 14
0.0
 24
0.0
 34
0.0
 15
609.0
 25
450.0
 35
0.0
146
0.0
 13
0.0
 23
0.0
 33
0.0
 16
1.0
 26
0.0
 36
0.0
 17
0.0
 27
1.0
 37
0.0
 76
     0
330
1F
331
29
  0
MLINESTYLE
  5
18
102
{ACAD_REACTORS
330
17
102
}
330
17
100
AcDbMlineStyle
  2
Standard
 70
     0
  3

 62
   256
 51
90.0
 52
90.0
 71
     2
 49
0.5
 62
   256
  6
BYLAYER
 49
-0.5
 62
   256
  6
BYLAYER
  0
ACDBPLACEHOLDER
  5
F
102
{ACAD_REACTORS
330
E
102
}
330
E
  0
ENDSEC
  0
EOF
