  0
SECTION
  2
HEADER
  9
$ACADVER
  1
AC1014
  9
$ACADMAINTVER
 70
     9
  9
$DWGCODEPAGE
  3
ANSI_1252
  9
$INSBASE
 10
0.0
 20
0.0
 30
0.0
  9
$EXTMIN
 10
4161.295631741963
 20
205.3785776777816
 30
0.0
  9
$EXTMAX
 10
4622.795631733035
 20
628.4283391553151
 30
0.0000000000000104
  9
$LIMMIN
 10
0.0
 20
0.0
  9
$LIMMAX
 10
12.0
 20
9.0
  9
$ORTHOMODE
 70
     0
  9
$REGENMODE
 70
     1
  9
$FILLMODE
 70
     1
  9
$QTEXTMODE
 70
     0
  9
$MIRRTEXT
 70
     1
  9
$DRAGMODE
 70
     2
  9
$LTSCALE
 40
1.0
  9
$OSMODE
 70
    37
  9
$ATTMODE
 70
     1
  9
$TEXTSIZE
 40
0.2
  9
$TRACEWID
 40
0.05
  9
$TEXTSTYLE
  7
STANDARD
  9
$CLAYER
  8
DEFAULT
  9
$CELTYPE
  6
BYLAYER
  9
$CECOLOR
 62
   256
  9
$CELTSCALE
 40
1.0
  9
$DELOBJ
 70
     1
  9
$DISPSILH
 70
     0
  9
$DIMSCALE
 40
1.0
  9
$DIMASZ
 40
0.18
  9
$DIMEXO
 40
0.0625
  9
$DIMDLI
 40
0.38
  9
$DIMRND
 40
0.0
  9
$DIMDLE
 40
0.0
  9
$DIMEXE
 40
0.18
  9
$DIMTP
 40
0.0
  9
$DIMTM
 40
0.0
  9
$DIMTXT
 40
0.18
  9
$DIMCEN
 40
0.09
  9
$DIMTSZ
 40
0.0
  9
$DIMTOL
 70
     0
  9
$DIMLIM
 70
     0
  9
$DIMTIH
 70
     1
  9
$DIMTOH
 70
     1
  9
$DIMSE1
 70
     0
  9
$DIMSE2
 70
     0
  9
$DIMTAD
 70
     0
  9
$DIMZIN
 70
     0
  9
$DIMBLK
  1

  9
$DIMASO
 70
     1
  9
$DIMSHO
 70
     1
  9
$DIMPOST
  1

  9
$DIMAPOST
  1

  9
$DIMALT
 70
     0
  9
$DIMALTD
 70
     2
  9
$DIMALTF
 40
25.4
  9
$DIMLFAC
 40
1.0
  9
$DIMTOFL
 70
     0
  9
$DIMTVP
 40
0.0
  9
$DIMTIX
 70
     0
  9
$DIMSOXD
 70
     0
  9
$DIMSAH
 70
     0
  9
$DIMBLK1
  1

  9
$DIMBLK2
  1

  9
$DIMSTYLE
  2
STANDARD
  9
$DIMCLRD
 70
     0
  9
$DIMCLRE
 70
     0
  9
$DIMCLRT
 70
     0
  9
$DIMTFAC
 40
1.0
  9
$DIMGAP
 40
0.09
  9
$DIMJUST
 70
     0
  9
$DIMSD1
 70
     0
  9
$DIMSD2
 70
     0
  9
$DIMTOLJ
 70
     1
  9
$DIMTZIN
 70
     0
  9
$DIMALTZ
 70
     0
  9
$DIMALTTZ
 70
     0
  9
$DIMFIT
 70
     5
  9
$DIMUPT
 70
     0
  9
$DIMUNIT
 70
     2
  9
$DIMDEC
 70
     4
  9
$DIMTDEC
 70
     4
  9
$DIMALTU
 70
     2
  9
$DIMALTTD
 70
     2
  9
$DIMTXSTY
  7
STANDARD
  9
$DIMAUNIT
 70
     0
  9
$LUNITS
 70
     2
  9
$LUPREC
 70
     2
  9
$SKETCHINC
 40
0.1
  9
$FILLETRAD
 40
0.5
  9
$AUNITS
 70
     0
  9
$AUPREC
 70
     0
  9
$MENU
  1
.
  9
$ELEVATION
 40
0.0
  9
$PELEVATION
 40
0.0
  9
$THICKNESS
 40
0.0
  9
$LIMCHECK
 70
     0
  9
$CHAMFERA
 40
0.0
  9
$CHAMFERB
 40
0.0
  9
$CHAMFERC
 40
0.0
  9
$CHAMFERD
 40
0.0
  9
$SKPOLY
 70
     0
  9
$TDCREATE
 40
2457162.666013866
  9
$TDUPDATE
 40
2457162.666025278
  9
$TDINDWG
 40
0.0000000116
  9
$TDUSRTIMER
 40
0.0000000116
  9
$USRTIMER
 70
     1
  9
$ANGBASE
 50
0.0
  9
$ANGDIR
 70
     0
  9
$PDMODE
 70
     0
  9
$PDSIZE
 40
0.0
  9
$PLINEWID
 40
0.0
  9
$COORDS
 70
     1
  9
$SPLFRAME
 70
     0
  9
$SPLINETYPE
 70
     6
  9
$SPLINESEGS
 70
     8
  9
$ATTDIA
 70
     0
  9
$ATTREQ
 70
     1
  9
$HANDLING
 70
     1
  9
$HANDSEED
  5
3AE
  9
$SURFTAB1
 70
     6
  9
$SURFTAB2
 70
     6
  9
$SURFTYPE
 70
     6
  9
$SURFU
 70
     6
  9
$SURFV
 70
     6
  9
$UCSNAME
  2

  9
$UCSORG
 10
0.0
 20
0.0
 30
0.0
  9
$UCSXDIR
 10
1.0
 20
0.0
 30
0.0
  9
$UCSYDIR
 10
0.0
 20
1.0
 30
0.0
  9
$PUCSNAME
  2

  9
$PUCSORG
 10
0.0
 20
0.0
 30
0.0
  9
$PUCSXDIR
 10
1.0
 20
0.0
 30
0.0
  9
$PUCSYDIR
 10
0.0
 20
1.0
 30
0.0
  9
$USERI1
 70
     0
  9
$USERI2
 70
     0
  9
$USERI3
 70
     0
  9
$USERI4
 70
     0
  9
$USERI5
 70
     0
  9
$USERR1
 40
0.0
  9
$USERR2
 40
0.0
  9
$USERR3
 40
0.0
  9
$USERR4
 40
0.0
  9
$USERR5
 40
0.0
  9
$WORLDVIEW
 70
     1
  9
$SHADEDGE
 70
     3
  9
$SHADEDIF
 70
    70
  9
$TILEMODE
 70
     1
  9
$MAXACTVP
 70
    64
  9
$PINSBASE
 10
0.0
 20
0.0
 30
0.0
  9
$PLIMCHECK
 70
     0
  9
$PEXTMIN
 10
1.000000000000000E+20
 20
1.000000000000000E+20
 30
1.000000000000000E+20
  9
$PEXTMAX
 10
-1.000000000000000E+20
 20
-1.000000000000000E+20
 30
-1.000000000000000E+20
  9
$PLIMMIN
 10
0.0
 20
0.0
  9
$PLIMMAX
 10
12.0
 20
9.0
  9
$UNITMODE
 70
     0
  9
$VISRETAIN
 70
     1
  9
$PLINEGEN
 70
     0
  9
$PSLTSCALE
 70
     1
  9
$TREEDEPTH
 70
  3020
  9
$PICKSTYLE
 70
     1
  9
$CMLSTYLE
  2
STANDARD
  9
$CMLJUST
 70
     0
  9
$CMLSCALE
 40
1.0
  9
$PROXYGRAPHICS
 70
     1
  9
$MEASUREMENT
 70
     0
  0
ENDSEC
  0
SECTION
  2
CLASSES
  0
CLASS
  1
ACDBDICTIONARYWDFLT
  2
AcDbDictionaryWithDefault
  3
ObjectDBX Classes
 90
        0
280
     0
281
     0
  0
CLASS
  1
VISUALSTYLE
  2
AcDbVisualStyle
  3
ObjectDBX Classes
 90
     4095
280
     0
281
     0
  0
CLASS
  1
MATERIAL
  2
AcDbMaterial
  3
ObjectDBX Classes
 90
     1153
280
     0
281
     0
  0
CLASS
  1
SCALE
  2
AcDbScale
  3
ObjectDBX Classes
 90
     1153
280
     0
281
     0
  0
CLASS
  1
TABLESTYLE
  2
AcDbTableStyle
  3
ObjectDBX Classes
 90
     4095
280
     0
281
     0
  0
CLASS
  1
MLEADERSTYLE
  2
AcDbMLeaderStyle
  3
ACDB_MLEADERSTYLE_CLASS
 90
     4095
280
     0
281
     0
  0
CLASS
  1
SUN
  2
AcDbSun
  3
SCENEOE
 90
     1153
280
     0
281
     0
  0
CLASS
  1
DICTIONARYVAR
  2
AcDbDictionaryVar
  3
ObjectDBX Classes
 90
        0
280
     0
281
     0
  0
CLASS
  1
XRECORD
  2
AcDbXrecord
  3
ObjectDBX Classes
 90
        0
280
     0
281
     0
  0
CLASS
  1
LWPOLYLINE
  2
AcDbPolyline
  3
ObjectDBX Classes
 90
        0
280
     0
281
     1
  0
CLASS
  1
HATCH
  2
AcDbHatch
  3
ObjectDBX Classes
 90
        0
280
     0
281
     1
  0
CLASS
  1
ACDBPLACEHOLDER
  2
AcDbPlaceHolder
  3
ObjectDBX Classes
 90
        0
280
     0
281
     0
  0
CLASS
  1
LAYOUT
  2
AcDbLayout
  3
ObjectDBX Classes
 90
        0
280
     0
281
     0
  0
ENDSEC
  0
SECTION
  2
TABLES
  0
TABLE
  2
VPORT
  5
8
102
{ACAD_XDICTIONARY
360
3A3
102
}
330
0
100
AcDbSymbolTable
 70
     1
  0
VPORT
  5
29
330
8
100
AcDbSymbolTableRecord
100
AcDbViewportTableRecord
  2
*ACTIVE
 70
     0
 10
0.0
 20
0.0
 11
1.0
 21
1.0
 12
4392.045631737499
 22
416.9034584165483
 13
0.0
 23
0.0
 14
0.5
 24
0.5
 15
0.5
 25
0.5
 16
0.0
 26
0.0
 36
1.0
 17
0.0
 27
0.0
 37
0.0
 40
431.5107567070843
 41
1.090888216977711
 42
50.0
 43
0.0
 44
0.0
 50
0.0
 51
0.0
 71
     0
 72
   100
 73
     1
 74
     3
 75
     0
 76
     0
 77
     0
 78
     0
  0
ENDTAB
  0
TABLE
  2
LTYPE
  5
5
330
0
100
AcDbSymbolTable
 70
     1
  0
LTYPE
  5
14
330
5
100
AcDbSymbolTableRecord
100
AcDbLinetypeTableRecord
  2
BYBLOCK
 70
     0
  3

 72
    65
 73
     0
 40
0.0
  0
LTYPE
  5
15
330
5
100
AcDbSymbolTableRecord
100
AcDbLinetypeTableRecord
  2
BYLAYER
 70
     0
  3

 72
    65
 73
     0
 40
0.0
  0
LTYPE
  5
16
330
5
100
AcDbSymbolTableRecord
100
AcDbLinetypeTableRecord
  2
CONTINUOUS
 70
     0
  3
Solid line
 72
    65
 73
     0
 40
0.0
  0
ENDTAB
  0
TABLE
  2
LAYER
  5
2
330
0
100
AcDbSymbolTable
 70
     2
  0
LAYER
  5
10
330
2
100
AcDbSymbolTableRecord
100
AcDbLayerTableRecord
  2
0
 70
     0
 62
     7
  6
CONTINUOUS
  0
LAYER
  5
6E
330
2
100
AcDbSymbolTableRecord
100
AcDbLayerTableRecord
  2
DEFAULT
 70
     0
 62
    18
  6
CONTINUOUS
  0
ENDTAB
  0
TABLE
  2
STYLE
  5
3
330
0
100
AcDbSymbolTable
 70
     1
  0
STYLE
  5
11
330
3
100
AcDbSymbolTableRecord
100
AcDbTextStyleTableRecord
  2
STANDARD
 70
     0
 40
0.0
 41
1.0
 50
0.0
 71
     0
 42
0.2
  3
txt
  4

  0
ENDTAB
  0
TABLE
  2
VIEW
  5
6
330
0
100
AcDbSymbolTable
 70
     0
  0
ENDTAB
  0
TABLE
  2
UCS
  5
7
330
0
100
AcDbSymbolTable
 70
     0
  0
ENDTAB
  0
TABLE
  2
APPID
  5
9
330
0
100
AcDbSymbolTable
 70
     2
  0
APPID
  5
12
330
9
100
AcDbSymbolTableRecord
100
AcDbRegAppTableRecord
  2
ACAD
 70
     0
  0
APPID
  5
3AD
330
9
100
AcDbSymbolTableRecord
100
AcDbRegAppTableRecord
  2
ACAD_MLEADERVER
 70
     0
  0
ENDTAB
  0
TABLE
  2
DIMSTYLE
  5
A
330
0
100
AcDbSymbolTable
 70
     1
  0
DIMSTYLE
105
27
330
A
100
AcDbSymbolTableRecord
100
AcDbDimStyleTableRecord
  2
STANDARD
 70
     0
  3

  4

  5

  6

  7

 40
1.0
 41
0.18
 42
0.0625
 43
0.38
 44
0.18
 45
0.0
 46
0.0
 47
0.0
 48
0.0
140
0.18
141
0.09
142
0.0
143
25.4
144
1.0
145
0.0
146
1.0
147
0.09
 71
     0
 72
     0
 73
     1
 74
     1
 75
     0
 76
     0
 77
     0
 78
     0
170
     0
171
     2
172
     0
173
     0
174
     0
175
     0
176
     0
177
     0
178
     0
270
     2
271
     4
272
     4
273
     2
274
     2
340
11
275
     0
280
     0
281
     0
282
     0
283
     1
284
     0
285
     0
286
     0
287
     3
288
     0
  0
ENDTAB
  0
TABLE
  2
BLOCK_RECORD
  5
1
330
0
100
AcDbSymbolTable
 70
     1
  0
BLOCK_RECORD
  5
1F
330
1
100
AcDbSymbolTableRecord
100
AcDbBlockTableRecord
  2
*MODEL_SPACE
  0
BLOCK_RECORD
  5
1B
330
1
100
AcDbSymbolTableRecord
100
AcDbBlockTableRecord
  2
*PAPER_SPACE
  0
ENDTAB
  0
ENDSEC
  0
SECTION
  2
BLOCKS
  0
BLOCK
  5
20
330
1F
100
AcDbEntity
  8
0
100
AcDbBlockBegin
  2
*MODEL_SPACE
 70
     0
 10
0.0
 20
0.0
 30
0.0
  3
*MODEL_SPACE
  1

  0
ENDBLK
  5
21
330
1F
100
AcDbEntity
  8
0
100
AcDbBlockEnd
  0
BLOCK
  5
1C
330
1B
100
AcDbEntity
 67
     1
  8
0
100
AcDbBlockBegin
  2
*PAPER_SPACE
 70
     0
 10
0.0
 20
0.0
 30
0.0
  3
*PAPER_SPACE
  1

  0
ENDBLK
  5
1D
330
1B
100
AcDbEntity
 67
     1
  8
0
100
AcDbBlockEnd
  0
ENDSEC
  0
SECTION
  2
ENTITIES
  0
LINE
  5
6F
330
1F
100
AcDbEntity
  8
DEFAULT
100
AcDbLine
 10
4596.295631733035
 20
272.8785776688558
 30
0.0
 11
4584.295631733034
 21
272.8785776688558
 31
0.0
  0
LINE
  5
70
330
1F
100
AcDbEntity
  8
DEFAULT
100
AcDbLine
 10
4584.295631733034
 20
272.8785776688558
 30
0.0
 11
4584.295631733035
 21
267.3785776688558
 31
0.0
  0
LINE
  5
71
330
1F
100
AcDbEntity
  8
DEFAULT
100
AcDbLine
 10
4584.295631733035
 20
267.3785776688558
 30
0.0
 11
4572.295631733035
 21
267.3785776688558
 31
0.0
  0
LINE
  5
72
330
1F
100
AcDbEntity
  8
DEFAULT
100
AcDbLine
 10
4572.295631733035
 20
267.3785776688558
 30
0.0
 11
4572.295631733035
 21
272.8785776688558
 31
0.0
  0
LINE
  5
73
330
1F
100
AcDbEntity
  8
DEFAULT
100
AcDbLine
 10
4572.295631733035
 20
272.8785776688558
 30
0.0
 11
4560.295631733034
 21
272.8785776688558
 31
0.0
  0
LINE
  5
74
330
1F
100
AcDbEntity
  8
DEFAULT
100
AcDbLine
 10
4560.295631733034
 20
272.8785776688558
 30
0.0
 11
4560.295631733035
 21
267.3785776688558
 31
0.0
  0
LINE
  5
75
330
1F
100
AcDbEntity
  8
DEFAULT
100
AcDbLine
 10
4560.295631733035
 20
267.3785776688558
 30
0.0
 11
4548.295631733035
 21
267.3785776688558
 31
0.0
  0
LINE
  5
76
330
1F
100
AcDbEntity
  8
DEFAULT
100
AcDbLine
 10
4548.295631733035
 20
267.3785776688558
 30
0.0
 11
4548.295631733035
 21
272.8785776688558
 31
0.0
  0
LINE
  5
77
330
1F
100
AcDbEntity
  8
DEFAULT
100
AcDbLine
 10
4548.295631733035
 20
272.8785776688558
 30
0.0
 11
4536.295631733034
 21
272.8785776688558
 31
0.0
  0
LINE
  5
78
330
1F
100
AcDbEntity
  8
DEFAULT
100
AcDbLine
 10
4536.295631733034
 20
272.8785776688558
 30
0.0
 11
4536.295631733035
 21
267.3785776688558
 31
0.0
  0
LINE
  5
79
330
1F
100
AcDbEntity
  8
DEFAULT
100
AcDbLine
 10
4536.295631733035
 20
267.3785776688558
 30
0.0
 11
4524.295631733035
 21
267.3785776688558
 31
0.0
  0
LINE
  5
7A
330
1F
100
AcDbEntity
  8
DEFAULT
100
AcDbLine
 10
4524.295631733035
 20
267.3785776688558
 30
0.0
 11
4524.295631733035
 21
272.8785776688558
 31
0.0
  0
LINE
  5
7B
330
1F
100
AcDbEntity
  8
DEFAULT
100
AcDbLine
 10
4524.295631733035
 20
272.8785776688558
 30
0.0
 11
4512.295631733034
 21
272.8785776688558
 31
0.0
  0
LINE
  5
7C
330
1F
100
AcDbEntity
  8
DEFAULT
100
AcDbLine
 10
4512.295631733034
 20
272.8785776688558
 30
0.0
 11
4512.295631733035
 21
267.3785776688558
 31
0.0
  0
LINE
  5
7D
330
1F
100
AcDbEntity
  8
DEFAULT
100
AcDbLine
 10
4512.295631733035
 20
267.3785776688558
 30
0.0
 11
4500.295631733035
 21
267.3785776688558
 31
0.0
  0
LINE
  5
7E
330
1F
100
AcDbEntity
  8
DEFAULT
100
AcDbLine
 10
4500.295631733035
 20
267.3785776688558
 30
0.0
 11
4500.295631733035
 21
272.8785776688558
 31
0.0
  0
LINE
  5
7F
330
1F
100
AcDbEntity
  8
DEFAULT
100
AcDbLine
 10
4500.295631733035
 20
272.8785776688558
 30
0.0
 11
4496.295631733035
 21
272.8785776688558
 31
0.0
  0
LINE
  5
80
330
1F
100
AcDbEntity
  8
DEFAULT
100
AcDbLine
 10
4496.295631733035
 20
272.8785776688558
 30
0.0
 11
4496.295631733035
 21
479.3785776688558
 31
0.0
  0
LINE
  5
81
330
1F
100
AcDbEntity
  8
DEFAULT
100
AcDbLine
 10
4496.295631733035
 20
479.3785776688558
 30
0.0
 11
4500.295631733035
 21
479.3785776688558
 31
0.0
  0
LINE
  5
82
330
1F
100
AcDbEntity
  8
DEFAULT
100
AcDbLine
 10
4500.295631733035
 20
479.3785776688558
 30
0.0
 11
4500.295631733035
 21
484.9385776688553
 31
0.0
  0
LINE
  5
83
330
1F
100
AcDbEntity
  8
DEFAULT
100
AcDbLine
 10
4500.295631733035
 20
484.9385776688553
 30
0.0
 11
4512.295631733035
 21
484.9385776688553
 31
0.0
  0
LINE
  5
84
330
1F
100
AcDbEntity
  8
DEFAULT
100
AcDbLine
 10
4512.295631733035
 20
484.9385776688553
 30
0.0
 11
4512.295631733035
 21
479.3785776688558
 31
0.0
  0
LINE
  5
85
330
1F
100
AcDbEntity
  8
DEFAULT
100
AcDbLine
 10
4512.295631733035
 20
479.3785776688558
 30
0.0
 11
4524.295631733035
 21
479.3785776688558
 31
0.0
  0
LINE
  5
86
330
1F
100
AcDbEntity
  8
DEFAULT
100
AcDbLine
 10
4524.295631733035
 20
479.3785776688558
 30
0.0
 11
4524.295631733035
 21
484.9385776688553
 31
0.0
  0
LINE
  5
87
330
1F
100
AcDbEntity
  8
DEFAULT
100
AcDbLine
 10
4524.295631733035
 20
484.9385776688553
 30
0.0
 11
4536.295631733035
 21
484.9385776688553
 31
0.0
  0
LINE
  5
88
330
1F
100
AcDbEntity
  8
DEFAULT
100
AcDbLine
 10
4536.295631733035
 20
484.9385776688553
 30
0.0
 11
4536.295631733035
 21
479.3785776688558
 31
0.0
  0
LINE
  5
89
330
1F
100
AcDbEntity
  8
DEFAULT
100
AcDbLine
 10
4536.295631733035
 20
479.3785776688558
 30
0.0
 11
4548.295631733034
 21
479.3785776688558
 31
0.0
  0
LINE
  5
8A
330
1F
100
AcDbEntity
  8
DEFAULT
100
AcDbLine
 10
4548.295631733034
 20
479.3785776688558
 30
0.0
 11
4548.295631733035
 21
484.9385776688553
 31
0.0
  0
LINE
  5
8B
330
1F
100
AcDbEntity
  8
DEFAULT
100
AcDbLine
 10
4548.295631733035
 20
484.9385776688553
 30
0.0
 11
4560.295631733035
 21
484.9385776688553
 31
0.0
  0
LINE
  5
8C
330
1F
100
AcDbEntity
  8
DEFAULT
100
AcDbLine
 10
4560.295631733035
 20
484.9385776688553
 30
0.0
 11
4560.295631733035
 21
479.3785776688558
 31
0.0
  0
LINE
  5
8D
330
1F
100
AcDbEntity
  8
DEFAULT
100
AcDbLine
 10
4560.295631733035
 20
479.3785776688558
 30
0.0
 11
4572.295631733035
 21
479.3785776688558
 31
0.0
  0
LINE
  5
8E
330
1F
100
AcDbEntity
  8
DEFAULT
100
AcDbLine
 10
4572.295631733035
 20
479.3785776688558
 30
0.0
 11
4572.295631733035
 21
484.9385776688553
 31
0.0
  0
LINE
  5
8F
330
1F
100
AcDbEntity
  8
DEFAULT
100
AcDbLine
 10
4572.295631733035
 20
484.9385776688553
 30
0.0
 11
4584.295631733035
 21
484.9385776688553
 31
0.0
  0
LINE
  5
90
330
1F
100
AcDbEntity
  8
DEFAULT
100
AcDbLine
 10
4584.295631733035
 20
484.9385776688553
 30
0.0
 11
4584.295631733034
 21
479.3785776688558
 31
0.0
  0
LINE
  5
91
330
1F
100
AcDbEntity
  8
DEFAULT
100
AcDbLine
 10
4584.295631733034
 20
479.3785776688558
 30
0.0
 11
4596.295631733035
 21
479.3785776688558
 31
0.0
  0
LINE
  5
92
330
1F
100
AcDbEntity
  8
DEFAULT
100
AcDbLine
 10
4596.295631733035
 20
479.3785776688558
 30
0.0
 11
4596.295631733035
 21
484.9385776688553
 31
0.0
  0
LINE
  5
93
330
1F
100
AcDbEntity
  8
DEFAULT
100
AcDbLine
 10
4596.295631733035
 20
484.9385776688553
 30
0.0
 11
4608.295631733035
 21
484.9385776688553
 31
0.0
  0
LINE
  5
94
330
1F
100
AcDbEntity
  8
DEFAULT
100
AcDbLine
 10
4608.295631733035
 20
484.9385776688553
 30
0.0
 11
4608.295631733035
 21
479.3785776688558
 31
0.0
  0
LINE
  5
95
330
1F
100
AcDbEntity
  8
DEFAULT
100
AcDbLine
 10
4608.295631733035
 20
479.3785776688558
 30
0.0
 11
4612.295631733035
 21
479.3785776688558
 31
0.0
  0
LINE
  5
96
330
1F
100
AcDbEntity
  8
DEFAULT
100
AcDbLine
 10
4612.295631733035
 20
479.3785776688558
 30
0.0
 11
4612.295631733035
 21
272.8785776688558
 31
0.0
  0
LINE
  5
97
330
1F
100
AcDbEntity
  8
DEFAULT
100
AcDbLine
 10
4612.295631733035
 20
272.8785776688558
 30
0.0
 11
4608.295631733035
 21
272.8785776688558
 31
0.0
  0
LINE
  5
98
330
1F
100
AcDbEntity
  8
DEFAULT
100
AcDbLine
 10
4608.295631733035
 20
272.8785776688558
 30
0.0
 11
4608.295631733035
 21
267.3785776688558
 31
0.0
  0
LINE
  5
99
330
1F
100
AcDbEntity
  8
DEFAULT
100
AcDbLine
 10
4608.295631733035
 20
267.3785776688558
 30
0.0
 11
4596.295631733035
 21
267.3785776688558
 31
0.0
  0
LINE
  5
9A
330
1F
100
AcDbEntity
  8
DEFAULT
100
AcDbLine
 10
4596.295631733035
 20
267.3785776688558
 30
0.0
 11
4596.295631733035
 21
272.8785776688558
 31
0.0
  0
LINE
  5
9B
330
1F
100
AcDbEntity
  8
DEFAULT
100
AcDbLine
 10
4617.295631733035
 20
267.3785776688558
 30
0.0
 11
4617.295631733035
 21
272.8785776688558
 31
0.0
  0
LINE
  5
9C
330
1F
100
AcDbEntity
  8
DEFAULT
100
AcDbLine
 10
4617.295631733035
 20
272.8785776688558
 30
0.0
 11
4617.295631733035
 21
276.1285776733178
 31
0.0
  0
LINE
  5
9D
330
1F
100
AcDbEntity
  8
DEFAULT
100
AcDbLine
 10
4617.295631733035
 20
276.1285776733178
 30
0.0
 11
4622.795631733035
 21
276.1285776733178
 31
0.0
  0
LINE
  5
9E
330
1F
100
AcDbEntity
  8
DEFAULT
100
AcDbLine
 10
4622.795631733035
 20
276.1285776733178
 30
0.0
 11
4622.795631733035
 21
288.1285776733178
 31
0.0
  0
LINE
  5
9F
330
1F
100
AcDbEntity
  8
DEFAULT
100
AcDbLine
 10
4622.795631733035
 20
288.1285776733178
 30
0.0
 11
4617.295631733035
 21
288.1285776733178
 31
0.0
  0
LINE
  5
A0
330
1F
100
AcDbEntity
  8
DEFAULT
100
AcDbLine
 10
4617.295631733035
 20
288.1285776733178
 30
0.0
 11
4617.295631733035
 21
300.1285776733178
 31
0.0
  0
LINE
  5
A1
330
1F
100
AcDbEntity
  8
DEFAULT
100
AcDbLine
 10
4617.295631733035
 20
300.1285776733178
 30
0.0
 11
4622.795631733035
 21
300.1285776733178
 31
0.0
  0
LINE
  5
A2
330
1F
100
AcDbEntity
  8
DEFAULT
100
AcDbLine
 10
4622.795631733035
 20
300.1285776733178
 30
0.0
 11
4622.795631733035
 21
312.1285776733178
 31
0.0
  0
LINE
  5
A3
330
1F
100
AcDbEntity
  8
DEFAULT
100
AcDbLine
 10
4622.795631733035
 20
312.1285776733178
 30
0.0
 11
4617.295631733035
 21
312.1285776733178
 31
0.0
  0
LINE
  5
A4
330
1F
100
AcDbEntity
  8
DEFAULT
100
AcDbLine
 10
4617.295631733035
 20
312.1285776733178
 30
0.0
 11
4617.295631733035
 21
324.1285776733178
 31
0.0
  0
LINE
  5
A5
330
1F
100
AcDbEntity
  8
DEFAULT
100
AcDbLine
 10
4617.295631733035
 20
324.1285776733178
 30
0.0
 11
4622.795631733035
 21
324.1285776733178
 31
0.0
  0
LINE
  5
A6
330
1F
100
AcDbEntity
  8
DEFAULT
100
AcDbLine
 10
4622.795631733035
 20
324.1285776733178
 30
0.0
 11
4622.795631733035
 21
336.1285776733178
 31
0.0
  0
LINE
  5
A7
330
1F
100
AcDbEntity
  8
DEFAULT
100
AcDbLine
 10
4622.795631733035
 20
336.1285776733178
 30
0.0
 11
4617.295631733035
 21
336.1285776733178
 31
0.0
  0
LINE
  5
A8
330
1F
100
AcDbEntity
  8
DEFAULT
100
AcDbLine
 10
4617.295631733035
 20
336.1285776733178
 30
0.0
 11
4617.295631733035
 21
348.1285776733178
 31
0.0
  0
LINE
  5
A9
330
1F
100
AcDbEntity
  8
DEFAULT
100
AcDbLine
 10
4617.295631733035
 20
348.1285776733178
 30
0.0
 11
4622.795631733035
 21
348.1285776733178
 31
0.0
  0
LINE
  5
AA
330
1F
100
AcDbEntity
  8
DEFAULT
100
AcDbLine
 10
4622.795631733035
 20
348.1285776733178
 30
0.0
 11
4622.795631733035
 21
360.1285776733178
 31
0.0
  0
LINE
  5
AB
330
1F
100
AcDbEntity
  8
DEFAULT
100
AcDbLine
 10
4622.795631733035
 20
360.1285776733178
 30
0.0
 11
4617.295631733035
 21
360.1285776733178
 31
0.0
  0
LINE
  5
AC
330
1F
100
AcDbEntity
  8
DEFAULT
100
AcDbLine
 10
4617.295631733035
 20
360.1285776733178
 30
0.0
 11
4617.295631733035
 21
372.1285776733178
 31
0.0
  0
LINE
  5
AD
330
1F
100
AcDbEntity
  8
DEFAULT
100
AcDbLine
 10
4617.295631733035
 20
372.1285776733178
 30
0.0
 11
4622.795631733035
 21
372.1285776733178
 31
0.0
  0
LINE
  5
AE
330
1F
100
AcDbEntity
  8
DEFAULT
100
AcDbLine
 10
4622.795631733035
 20
372.1285776733178
 30
0.0
 11
4622.795631733035
 21
384.1285776733178
 31
0.0
  0
LINE
  5
AF
330
1F
100
AcDbEntity
  8
DEFAULT
100
AcDbLine
 10
4622.795631733035
 20
384.1285776733178
 30
0.0
 11
4617.295631733035
 21
384.1285776733178
 31
0.0
  0
LINE
  5
B0
330
1F
100
AcDbEntity
  8
DEFAULT
100
AcDbLine
 10
4617.295631733035
 20
384.1285776733178
 30
0.0
 11
4617.295631733035
 21
396.1285776733178
 31
0.0
  0
LINE
  5
B1
330
1F
100
AcDbEntity
  8
DEFAULT
100
AcDbLine
 10
4617.295631733035
 20
396.1285776733178
 30
0.0
 11
4622.795631733035
 21
396.1285776733178
 31
0.0
  0
LINE
  5
B2
330
1F
100
AcDbEntity
  8
DEFAULT
100
AcDbLine
 10
4622.795631733035
 20
396.1285776733178
 30
0.0
 11
4622.795631733035
 21
408.1285776733178
 31
0.0
  0
LINE
  5
B3
330
1F
100
AcDbEntity
  8
DEFAULT
100
AcDbLine
 10
4622.795631733035
 20
408.1285776733178
 30
0.0
 11
4617.295631733035
 21
408.1285776733178
 31
0.0
  0
LINE
  5
B4
330
1F
100
AcDbEntity
  8
DEFAULT
100
AcDbLine
 10
4617.295631733035
 20
408.1285776733178
 30
0.0
 11
4617.295631733035
 21
420.1285776733178
 31
0.0
  0
LINE
  5
B5
330
1F
100
AcDbEntity
  8
DEFAULT
100
AcDbLine
 10
4617.295631733035
 20
420.1285776733178
 30
0.0
 11
4622.795631733035
 21
420.1285776733178
 31
0.0
  0
LINE
  5
B6
330
1F
100
AcDbEntity
  8
DEFAULT
100
AcDbLine
 10
4622.795631733035
 20
420.1285776733178
 30
0.0
 11
4622.795631733035
 21
432.1285776733178
 31
0.0
  0
LINE
  5
B7
330
1F
100
AcDbEntity
  8
DEFAULT
100
AcDbLine
 10
4622.795631733035
 20
432.1285776733178
 30
0.0
 11
4617.295631733035
 21
432.1285776733178
 31
0.0
  0
LINE
  5
B8
330
1F
100
AcDbEntity
  8
DEFAULT
100
AcDbLine
 10
4617.295631733035
 20
432.1285776733178
 30
0.0
 11
4617.295631733035
 21
444.1285776733178
 31
0.0
  0
LINE
  5
B9
330
1F
100
AcDbEntity
  8
DEFAULT
100
AcDbLine
 10
4617.295631733035
 20
444.1285776733178
 30
0.0
 11
4622.795631733035
 21
444.1285776733178
 31
0.0
  0
LINE
  5
BA
330
1F
100
AcDbEntity
  8
DEFAULT
100
AcDbLine
 10
4622.795631733035
 20
444.1285776733178
 30
0.0
 11
4622.795631733035
 21
456.1285776733178
 31
0.0
  0
LINE
  5
BB
330
1F
100
AcDbEntity
  8
DEFAULT
100
AcDbLine
 10
4622.795631733035
 20
456.1285776733178
 30
0.0
 11
4617.295631733035
 21
456.1285776733178
 31
0.0
  0
LINE
  5
BC
330
1F
100
AcDbEntity
  8
DEFAULT
100
AcDbLine
 10
4617.295631733035
 20
456.1285776733178
 30
0.0
 11
4617.295631733035
 21
468.1285776733178
 31
0.0
  0
LINE
  5
BD
330
1F
100
AcDbEntity
  8
DEFAULT
100
AcDbLine
 10
4617.295631733035
 20
468.1285776733178
 30
0.0
 11
4622.795631733035
 21
468.1285776733178
 31
0.0
  0
LINE
  5
BE
330
1F
100
AcDbEntity
  8
DEFAULT
100
AcDbLine
 10
4622.795631733035
 20
468.1285776733178
 30
0.0
 11
4622.795631733035
 21
479.3785776688558
 31
0.0
  0
LINE
  5
BF
330
1F
100
AcDbEntity
  8
DEFAULT
100
AcDbLine
 10
4622.795631733035
 20
479.3785776688558
 30
0.0
 11
4622.795631733035
 21
484.9385776688553
 31
0.0
  0
LINE
  5
C0
330
1F
100
AcDbEntity
  8
DEFAULT
100
AcDbLine
 10
4622.795631733035
 20
484.9385776688553
 30
0.0
 11
4622.795631733035
 21
504.1285776733178
 31
0.0
  0
LINE
  5
C1
330
1F
100
AcDbEntity
  8
DEFAULT
100
AcDbLine
 10
4622.795631733035
 20
504.1285776733178
 30
0.0
 11
4617.295631733035
 21
504.1285776733178
 31
0.0
  0
LINE
  5
C2
330
1F
100
AcDbEntity
  8
DEFAULT
100
AcDbLine
 10
4617.295631733035
 20
504.1285776733178
 30
0.0
 11
4617.295631733035
 21
516.1285776733177
 31
0.0
  0
LINE
  5
C3
330
1F
100
AcDbEntity
  8
DEFAULT
100
AcDbLine
 10
4617.295631733035
 20
516.1285776733177
 30
0.0
 11
4622.795631733035
 21
516.1285776733177
 31
0.0
  0
LINE
  5
C4
330
1F
100
AcDbEntity
  8
DEFAULT
100
AcDbLine
 10
4622.795631733035
 20
516.1285776733177
 30
0.0
 11
4622.795631733035
 21
526.8785776688558
 31
0.0
  0
LINE
  5
C5
330
1F
100
AcDbEntity
  8
DEFAULT
100
AcDbLine
 10
4622.795631733035
 20
526.8785776688558
 30
0.0
 11
4617.295631733035
 21
526.8785776688558
 31
0.0
  0
LINE
  5
C6
330
1F
100
AcDbEntity
  8
DEFAULT
100
AcDbLine
 10
4617.295631733035
 20
526.8785776688558
 30
0.0
 11
4491.295631733035
 21
526.8785776688558
 31
0.0
  0
LINE
  5
C7
330
1F
100
AcDbEntity
  8
DEFAULT
100
AcDbLine
 10
4491.295631733035
 20
526.8785776688558
 30
0.0
 11
4485.795631733035
 21
526.8785776688558
 31
0.0
  0
LINE
  5
C8
330
1F
100
AcDbEntity
  8
DEFAULT
100
AcDbLine
 10
4485.795631733035
 20
526.8785776688558
 30
0.0
 11
4485.795631733035
 21
516.1285776733177
 31
0.0
  0
LINE
  5
C9
330
1F
100
AcDbEntity
  8
DEFAULT
100
AcDbLine
 10
4485.795631733035
 20
516.1285776733177
 30
0.0
 11
4491.295631733035
 21
516.1285776733177
 31
0.0
  0
LINE
  5
CA
330
1F
100
AcDbEntity
  8
DEFAULT
100
AcDbLine
 10
4491.295631733035
 20
516.1285776733177
 30
0.0
 11
4491.295631733035
 21
504.1285776733178
 31
0.0
  0
LINE
  5
CB
330
1F
100
AcDbEntity
  8
DEFAULT
100
AcDbLine
 10
4491.295631733035
 20
504.1285776733178
 30
0.0
 11
4485.795631733035
 21
504.1285776733178
 31
0.0
  0
LINE
  5
CC
330
1F
100
AcDbEntity
  8
DEFAULT
100
AcDbLine
 10
4485.795631733035
 20
504.1285776733178
 30
0.0
 11
4485.795631733035
 21
484.9385776688553
 31
0.0
  0
LINE
  5
CD
330
1F
100
AcDbEntity
  8
DEFAULT
100
AcDbLine
 10
4485.795631733035
 20
484.9385776688553
 30
0.0
 11
4485.795631733035
 21
479.3785776688558
 31
0.0
  0
LINE
  5
CE
330
1F
100
AcDbEntity
  8
DEFAULT
100
AcDbLine
 10
4485.795631733035
 20
479.3785776688558
 30
0.0
 11
4485.795631733035
 21
468.1285776733178
 31
0.0
  0
LINE
  5
CF
330
1F
100
AcDbEntity
  8
DEFAULT
100
AcDbLine
 10
4485.795631733035
 20
468.1285776733178
 30
0.0
 11
4491.295631733035
 21
468.1285776733178
 31
0.0
  0
LINE
  5
D0
330
1F
100
AcDbEntity
  8
DEFAULT
100
AcDbLine
 10
4491.295631733035
 20
468.1285776733178
 30
0.0
 11
4491.295631733035
 21
456.1285776733178
 31
0.0
  0
LINE
  5
D1
330
1F
100
AcDbEntity
  8
DEFAULT
100
AcDbLine
 10
4491.295631733035
 20
456.1285776733178
 30
0.0
 11
4485.795631733035
 21
456.1285776733178
 31
0.0
  0
LINE
  5
D2
330
1F
100
AcDbEntity
  8
DEFAULT
100
AcDbLine
 10
4485.795631733035
 20
456.1285776733178
 30
0.0
 11
4485.795631733035
 21
444.1285776733178
 31
0.0
  0
LINE
  5
D3
330
1F
100
AcDbEntity
  8
DEFAULT
100
AcDbLine
 10
4485.795631733035
 20
444.1285776733178
 30
0.0
 11
4491.295631733035
 21
444.1285776733178
 31
0.0
  0
LINE
  5
D4
330
1F
100
AcDbEntity
  8
DEFAULT
100
AcDbLine
 10
4491.295631733035
 20
444.1285776733178
 30
0.0
 11
4491.295631733035
 21
432.1285776733178
 31
0.0
  0
LINE
  5
D5
330
1F
100
AcDbEntity
  8
DEFAULT
100
AcDbLine
 10
4491.295631733035
 20
432.1285776733178
 30
0.0
 11
4485.795631733035
 21
432.1285776733178
 31
0.0
  0
LINE
  5
D6
330
1F
100
AcDbEntity
  8
DEFAULT
100
AcDbLine
 10
4485.795631733035
 20
432.1285776733178
 30
0.0
 11
4485.795631733035
 21
420.1285776733178
 31
0.0
  0
LINE
  5
D7
330
1F
100
AcDbEntity
  8
DEFAULT
100
AcDbLine
 10
4485.795631733035
 20
420.1285776733178
 30
0.0
 11
4491.295631733035
 21
420.1285776733178
 31
0.0
  0
LINE
  5
D8
330
1F
100
AcDbEntity
  8
DEFAULT
100
AcDbLine
 10
4491.295631733035
 20
420.1285776733178
 30
0.0
 11
4491.295631733035
 21
408.1285776733178
 31
0.0
  0
LINE
  5
D9
330
1F
100
AcDbEntity
  8
DEFAULT
100
AcDbLine
 10
4491.295631733035
 20
408.1285776733178
 30
0.0
 11
4485.795631733035
 21
408.1285776733178
 31
0.0
  0
LINE
  5
DA
330
1F
100
AcDbEntity
  8
DEFAULT
100
AcDbLine
 10
4485.795631733035
 20
408.1285776733178
 30
0.0
 11
4485.795631733035
 21
396.1285776733178
 31
0.0
  0
LINE
  5
DB
330
1F
100
AcDbEntity
  8
DEFAULT
100
AcDbLine
 10
4485.795631733035
 20
396.1285776733178
 30
0.0
 11
4491.295631733035
 21
396.1285776733178
 31
0.0
  0
LINE
  5
DC
330
1F
100
AcDbEntity
  8
DEFAULT
100
AcDbLine
 10
4491.295631733035
 20
396.1285776733178
 30
0.0
 11
4491.295631733035
 21
384.1285776733178
 31
0.0
  0
LINE
  5
DD
330
1F
100
AcDbEntity
  8
DEFAULT
100
AcDbLine
 10
4491.295631733035
 20
384.1285776733178
 30
0.0
 11
4485.795631733035
 21
384.1285776733178
 31
0.0
  0
LINE
  5
DE
330
1F
100
AcDbEntity
  8
DEFAULT
100
AcDbLine
 10
4485.795631733035
 20
384.1285776733178
 30
0.0
 11
4485.795631733035
 21
372.1285776733178
 31
0.0
  0
LINE
  5
DF
330
1F
100
AcDbEntity
  8
DEFAULT
100
AcDbLine
 10
4485.795631733035
 20
372.1285776733178
 30
0.0
 11
4491.295631733035
 21
372.1285776733178
 31
0.0
  0
LINE
  5
E0
330
1F
100
AcDbEntity
  8
DEFAULT
100
AcDbLine
 10
4491.295631733035
 20
372.1285776733178
 30
0.0
 11
4491.295631733035
 21
360.1285776733178
 31
0.0
  0
LINE
  5
E1
330
1F
100
AcDbEntity
  8
DEFAULT
100
AcDbLine
 10
4491.295631733035
 20
360.1285776733178
 30
0.0
 11
4485.795631733035
 21
360.1285776733178
 31
0.0
  0
LINE
  5
E2
330
1F
100
AcDbEntity
  8
DEFAULT
100
AcDbLine
 10
4485.795631733035
 20
360.1285776733178
 30
0.0
 11
4485.795631733035
 21
348.1285776733178
 31
0.0
  0
LINE
  5
E3
330
1F
100
AcDbEntity
  8
DEFAULT
100
AcDbLine
 10
4485.795631733035
 20
348.1285776733178
 30
0.0
 11
4491.295631733035
 21
348.1285776733178
 31
0.0
  0
LINE
  5
E4
330
1F
100
AcDbEntity
  8
DEFAULT
100
AcDbLine
 10
4491.295631733035
 20
348.1285776733178
 30
0.0
 11
4491.295631733035
 21
336.1285776733178
 31
0.0
  0
LINE
  5
E5
330
1F
100
AcDbEntity
  8
DEFAULT
100
AcDbLine
 10
4491.295631733035
 20
336.1285776733178
 30
0.0
 11
4485.795631733035
 21
336.1285776733178
 31
0.0
  0
LINE
  5
E6
330
1F
100
AcDbEntity
  8
DEFAULT
100
AcDbLine
 10
4485.795631733035
 20
336.1285776733178
 30
0.0
 11
4485.795631733035
 21
324.1285776733178
 31
0.0
  0
LINE
  5
E7
330
1F
100
AcDbEntity
  8
DEFAULT
100
AcDbLine
 10
4485.795631733035
 20
324.1285776733178
 30
0.0
 11
4491.295631733035
 21
324.1285776733178
 31
0.0
  0
LINE
  5
E8
330
1F
100
AcDbEntity
  8
DEFAULT
100
AcDbLine
 10
4491.295631733035
 20
324.1285776733178
 30
0.0
 11
4491.295631733035
 21
312.1285776733178
 31
0.0
  0
LINE
  5
E9
330
1F
100
AcDbEntity
  8
DEFAULT
100
AcDbLine
 10
4491.295631733035
 20
312.1285776733178
 30
0.0
 11
4485.795631733035
 21
312.1285776733178
 31
0.0
  0
LINE
  5
EA
330
1F
100
AcDbEntity
  8
DEFAULT
100
AcDbLine
 10
4485.795631733035
 20
312.1285776733178
 30
0.0
 11
4485.795631733035
 21
300.1285776733178
 31
0.0
  0
LINE
  5
EB
330
1F
100
AcDbEntity
  8
DEFAULT
100
AcDbLine
 10
4485.795631733035
 20
300.1285776733178
 30
0.0
 11
4491.295631733035
 21
300.1285776733178
 31
0.0
  0
LINE
  5
EC
330
1F
100
AcDbEntity
  8
DEFAULT
100
AcDbLine
 10
4491.295631733035
 20
300.1285776733178
 30
0.0
 11
4491.295631733035
 21
288.1285776733178
 31
0.0
  0
LINE
  5
ED
330
1F
100
AcDbEntity
  8
DEFAULT
100
AcDbLine
 10
4491.295631733035
 20
288.1285776733178
 30
0.0
 11
4485.795631733035
 21
288.1285776733178
 31
0.0
  0
LINE
  5
EE
330
1F
100
AcDbEntity
  8
DEFAULT
100
AcDbLine
 10
4485.795631733035
 20
288.1285776733178
 30
0.0
 11
4485.795631733035
 21
276.1285776733178
 31
0.0
  0
LINE
  5
EF
330
1F
100
AcDbEntity
  8
DEFAULT
100
AcDbLine
 10
4485.795631733035
 20
276.1285776733178
 30
0.0
 11
4491.295631733035
 21
276.1285776733178
 31
0.0
  0
LINE
  5
F0
330
1F
100
AcDbEntity
  8
DEFAULT
100
AcDbLine
 10
4491.295631733035
 20
276.1285776733178
 30
0.0
 11
4491.295631733035
 21
272.8785776688558
 31
0.0
  0
LINE
  5
F1
330
1F
100
AcDbEntity
  8
DEFAULT
100
AcDbLine
 10
4491.295631733035
 20
272.8785776688558
 30
0.0
 11
4491.295631733035
 21
267.3785776688558
 31
0.0
  0
LINE
  5
F2
330
1F
100
AcDbEntity
  8
DEFAULT
100
AcDbLine
 10
4491.295631733035
 20
267.3785776688558
 30
0.0
 11
4491.295631733035
 21
264.1285776733178
 31
0.0
  0
LINE
  5
F3
330
1F
100
AcDbEntity
  8
DEFAULT
100
AcDbLine
 10
4491.295631733035
 20
264.1285776733178
 30
0.0
 11
4485.795631733035
 21
264.1285776733178
 31
0.0
  0
LINE
  5
F4
330
1F
100
AcDbEntity
  8
DEFAULT
100
AcDbLine
 10
4485.795631733035
 20
264.1285776733178
 30
0.0
 11
4485.795631733035
 21
252.1285776733178
 31
0.0
  0
LINE
  5
F5
330
1F
100
AcDbEntity
  8
DEFAULT
100
AcDbLine
 10
4485.795631733035
 20
252.1285776733178
 30
0.0
 11
4491.295631733035
 21
252.1285776733178
 31
0.0
  0
LINE
  5
F6
330
1F
100
AcDbEntity
  8
DEFAULT
100
AcDbLine
 10
4491.295631733035
 20
252.1285776733178
 30
0.0
 11
4491.295631733035
 21
240.1285776733178
 31
0.0
  0
LINE
  5
F7
330
1F
100
AcDbEntity
  8
DEFAULT
100
AcDbLine
 10
4491.295631733035
 20
240.1285776733178
 30
0.0
 11
4485.795631733035
 21
240.1285776733178
 31
0.0
  0
LINE
  5
F8
330
1F
100
AcDbEntity
  8
DEFAULT
100
AcDbLine
 10
4485.795631733035
 20
240.1285776733178
 30
0.0
 11
4485.795631733035
 21
228.1285776733178
 31
0.0
  0
LINE
  5
F9
330
1F
100
AcDbEntity
  8
DEFAULT
100
AcDbLine
 10
4485.795631733035
 20
228.1285776733178
 30
0.0
 11
4491.295631733035
 21
228.1285776733178
 31
0.0
  0
LINE
  5
FA
330
1F
100
AcDbEntity
  8
DEFAULT
100
AcDbLine
 10
4491.295631733035
 20
228.1285776733178
 30
0.0
 11
4491.295631733035
 21
216.1285776733178
 31
0.0
  0
LINE
  5
FB
330
1F
100
AcDbEntity
  8
DEFAULT
100
AcDbLine
 10
4491.295631733035
 20
216.1285776733178
 30
0.0
 11
4485.795631733035
 21
216.1285776733178
 31
0.0
  0
LINE
  5
FC
330
1F
100
AcDbEntity
  8
DEFAULT
100
AcDbLine
 10
4485.795631733035
 20
216.1285776733178
 30
0.0
 11
4485.795631733035
 21
205.3785776777816
 31
0.0
  0
LINE
  5
FD
330
1F
100
AcDbEntity
  8
DEFAULT
100
AcDbLine
 10
4485.795631733035
 20
205.3785776777816
 30
0.0
 11
4491.295631733035
 21
205.3785776777816
 31
0.0
  0
LINE
  5
FE
330
1F
100
AcDbEntity
  8
DEFAULT
100
AcDbLine
 10
4491.295631733035
 20
205.3785776777816
 30
0.0
 11
4617.295631733035
 21
205.3785776777816
 31
0.0
  0
LINE
  5
FF
330
1F
100
AcDbEntity
  8
DEFAULT
100
AcDbLine
 10
4617.295631733035
 20
205.3785776777816
 30
0.0
 11
4622.795631733035
 21
205.3785776777816
 31
0.0
  0
LINE
  5
100
330
1F
100
AcDbEntity
  8
DEFAULT
100
AcDbLine
 10
4622.795631733035
 20
205.3785776777816
 30
0.0
 11
4622.795631733035
 21
216.1285776733178
 31
0.0
  0
LINE
  5
101
330
1F
100
AcDbEntity
  8
DEFAULT
100
AcDbLine
 10
4622.795631733035
 20
216.1285776733178
 30
0.0
 11
4617.295631733035
 21
216.1285776733178
 31
0.0
  0
LINE
  5
102
330
1F
100
AcDbEntity
  8
DEFAULT
100
AcDbLine
 10
4617.295631733035
 20
216.1285776733178
 30
0.0
 11
4617.295631733035
 21
228.1285776733178
 31
0.0
  0
LINE
  5
103
330
1F
100
AcDbEntity
  8
DEFAULT
100
AcDbLine
 10
4617.295631733035
 20
228.1285776733178
 30
0.0
 11
4622.795631733035
 21
228.1285776733178
 31
0.0
  0
LINE
  5
104
330
1F
100
AcDbEntity
  8
DEFAULT
100
AcDbLine
 10
4622.795631733035
 20
228.1285776733178
 30
0.0
 11
4622.795631733035
 21
240.1285776733178
 31
0.0
  0
LINE
  5
105
330
1F
100
AcDbEntity
  8
DEFAULT
100
AcDbLine
 10
4622.795631733035
 20
240.1285776733178
 30
0.0
 11
4617.295631733035
 21
240.1285776733178
 31
0.0
  0
LINE
  5
106
330
1F
100
AcDbEntity
  8
DEFAULT
100
AcDbLine
 10
4617.295631733035
 20
240.1285776733178
 30
0.0
 11
4617.295631733035
 21
252.1285776733178
 31
0.0
  0
LINE
  5
107
330
1F
100
AcDbEntity
  8
DEFAULT
100
AcDbLine
 10
4617.295631733035
 20
252.1285776733178
 30
0.0
 11
4622.795631733035
 21
252.1285776733178
 31
0.0
  0
LINE
  5
108
330
1F
100
AcDbEntity
  8
DEFAULT
100
AcDbLine
 10
4622.795631733035
 20
252.1285776733178
 30
0.0
 11
4622.795631733035
 21
264.1285776733178
 31
0.0
  0
LINE
  5
109
330
1F
100
AcDbEntity
  8
DEFAULT
100
AcDbLine
 10
4622.795631733035
 20
264.1285776733178
 30
0.0
 11
4617.295631733035
 21
264.1285776733178
 31
0.0
  0
LINE
  5
10A
330
1F
100
AcDbEntity
  8
DEFAULT
100
AcDbLine
 10
4617.295631733035
 20
264.1285776733178
 30
0.0
 11
4617.295631733035
 21
267.3785776688558
 31
0.0
  0
CIRCLE
  5
10B
330
1F
100
AcDbEntity
  8
DEFAULT
100
AcDbCircle
 10
4392.545631741963
 20
295.7701522634171
 30
0.0
 40
1.5
  0
CIRCLE
  5
10C
330
1F
100
AcDbEntity
  8
DEFAULT
100
AcDbCircle
 10
4392.545631741963
 20
343.7701522634171
 30
0.0
 40
1.5
  0
CIRCLE
  5
10D
330
1F
100
AcDbEntity
  8
DEFAULT
100
AcDbCircle
 10
4231.545631741963
 20
313.1285776777825
 30
0.0
 40
1.5
  0
CIRCLE
  5
10E
330
1F
100
AcDbEntity
  8
DEFAULT
100
AcDbCircle
 10
4231.545631741963
 20
385.1285776777825
 30
0.0
 40
1.5
  0
LINE
  5
10F
330
1F
100
AcDbEntity
  8
DEFAULT
100
AcDbLine
 10
4208.665631741964
 20
254.8785776777816
 30
0.0
 11
4203.365631741964
 21
254.8785776777816
 31
0.0
  0
LINE
  5
110
330
1F
100
AcDbEntity
  8
DEFAULT
100
AcDbLine
 10
4203.365631741964
 20
254.8785776777816
 30
0.0
 11
4203.365631741964
 21
266.8785776777816
 31
0.0
  0
LINE
  5
111
330
1F
100
AcDbEntity
  8
DEFAULT
100
AcDbLine
 10
4203.365631741964
 20
266.8785776777816
 30
0.0
 11
4208.665631741964
 21
266.8785776777816
 31
0.0
  0
LINE
  5
112
330
1F
100
AcDbEntity
  8
DEFAULT
100
AcDbLine
 10
4208.665631741964
 20
266.8785776777816
 30
0.0
 11
4208.665631741964
 21
254.8785776777816
 31
0.0
  0
LINE
  5
113
330
1F
100
AcDbEntity
  8
DEFAULT
100
AcDbLine
 10
4208.665631741964
 20
290.6285776777816
 30
0.0
 11
4208.665631741964
 21
278.6285776777816
 31
0.0
  0
LINE
  5
114
330
1F
100
AcDbEntity
  8
DEFAULT
100
AcDbLine
 10
4208.665631741964
 20
278.6285776777816
 30
0.0
 11
4203.365631741964
 21
278.6285776777816
 31
0.0
  0
LINE
  5
115
330
1F
100
AcDbEntity
  8
DEFAULT
100
AcDbLine
 10
4203.365631741964
 20
278.6285776777816
 30
0.0
 11
4203.365631741964
 21
290.6285776777816
 31
0.0
  0
LINE
  5
116
330
1F
100
AcDbEntity
  8
DEFAULT
100
AcDbLine
 10
4203.365631741964
 20
290.6285776777816
 30
0.0
 11
4208.665631741964
 21
290.6285776777816
 31
0.0
  0
LINE
  5
117
330
1F
100
AcDbEntity
  8
DEFAULT
100
AcDbLine
 10
4203.365631741964
 20
302.6285776777816
 30
0.0
 11
4203.365631741964
 21
314.6285776777816
 31
0.0
  0
LINE
  5
118
330
1F
100
AcDbEntity
  8
DEFAULT
100
AcDbLine
 10
4203.365631741964
 20
314.6285776777816
 30
0.0
 11
4208.665631741964
 21
314.6285776777816
 31
0.0
  0
LINE
  5
119
330
1F
100
AcDbEntity
  8
DEFAULT
100
AcDbLine
 10
4208.665631741964
 20
314.6285776777816
 30
0.0
 11
4208.665631741964
 21
302.6285776777816
 31
0.0
  0
LINE
  5
11A
330
1F
100
AcDbEntity
  8
DEFAULT
100
AcDbLine
 10
4208.665631741964
 20
302.6285776777816
 30
0.0
 11
4203.365631741964
 21
302.6285776777816
 31
0.0
  0
LINE
  5
11B
330
1F
100
AcDbEntity
  8
DEFAULT
100
AcDbLine
 10
4208.665631741964
 20
326.6285776777816
 30
0.0
 11
4203.365631741964
 21
326.6285776777816
 31
0.0
  0
LINE
  5
11C
330
1F
100
AcDbEntity
  8
DEFAULT
100
AcDbLine
 10
4203.365631741964
 20
326.6285776777816
 30
0.0
 11
4203.365631741964
 21
338.6285776777816
 31
0.0
  0
LINE
  5
11D
330
1F
100
AcDbEntity
  8
DEFAULT
100
AcDbLine
 10
4203.365631741964
 20
338.6285776777816
 30
0.0
 11
4208.665631741964
 21
338.6285776777816
 31
0.0
  0
LINE
  5
11E
330
1F
100
AcDbEntity
  8
DEFAULT
100
AcDbLine
 10
4208.665631741964
 20
338.6285776777816
 30
0.0
 11
4208.665631741964
 21
326.6285776777816
 31
0.0
  0
LINE
  5
11F
330
1F
100
AcDbEntity
  8
DEFAULT
100
AcDbLine
 10
4420.695631741963
 20
283.8785776777816
 30
0.0
 11
4415.395631741962
 21
283.8785776777816
 31
0.0
  0
LINE
  5
120
330
1F
100
AcDbEntity
  8
DEFAULT
100
AcDbLine
 10
4415.395631741962
 20
283.8785776777816
 30
0.0
 11
4415.395631741962
 21
271.8785776777816
 31
0.0
  0
LINE
  5
121
330
1F
100
AcDbEntity
  8
DEFAULT
100
AcDbLine
 10
4415.395631741962
 20
271.8785776777816
 30
0.0
 11
4420.695631741963
 21
271.8785776777816
 31
0.0
  0
LINE
  5
122
330
1F
100
AcDbEntity
  8
DEFAULT
100
AcDbLine
 10
4420.695631741963
 20
271.8785776777816
 30
0.0
 11
4420.695631741963
 21
283.8785776777816
 31
0.0
  0
LINE
  5
123
330
1F
100
AcDbEntity
  8
DEFAULT
100
AcDbLine
 10
4228.895631741962
 20
295.1285776777825
 30
0.0
 11
4228.895631741962
 21
307.1285776777825
 31
0.0
  0
LINE
  5
124
330
1F
100
AcDbEntity
  8
DEFAULT
100
AcDbLine
 10
4228.895631741962
 20
307.1285776777825
 30
0.0
 11
4234.195631741963
 21
307.1285776777825
 31
0.0
  0
LINE
  5
125
330
1F
100
AcDbEntity
  8
DEFAULT
100
AcDbLine
 10
4234.195631741963
 20
307.1285776777825
 30
0.0
 11
4234.195631741963
 21
295.1285776777825
 31
0.0
  0
LINE
  5
126
330
1F
100
AcDbEntity
  8
DEFAULT
100
AcDbLine
 10
4234.195631741963
 20
295.1285776777825
 30
0.0
 11
4228.895631741962
 21
295.1285776777825
 31
0.0
  0
LINE
  5
127
330
1F
100
AcDbEntity
  8
DEFAULT
100
AcDbLine
 10
4415.395631741962
 20
379.8785776777816
 30
0.0
 11
4415.395631741962
 21
367.8785776777816
 31
0.0
  0
LINE
  5
128
330
1F
100
AcDbEntity
  8
DEFAULT
100
AcDbLine
 10
4415.395631741962
 20
367.8785776777816
 30
0.0
 11
4420.695631741963
 21
367.8785776777816
 31
0.0
  0
LINE
  5
129
330
1F
100
AcDbEntity
  8
DEFAULT
100
AcDbLine
 10
4420.695631741963
 20
367.8785776777816
 30
0.0
 11
4420.695631741963
 21
379.8785776777816
 31
0.0
  0
LINE
  5
12A
330
1F
100
AcDbEntity
  8
DEFAULT
100
AcDbLine
 10
4420.695631741963
 20
379.8785776777816
 30
0.0
 11
4415.395631741962
 21
379.8785776777816
 31
0.0
  0
LINE
  5
12B
330
1F
100
AcDbEntity
  8
DEFAULT
100
AcDbLine
 10
4208.665631741964
 20
362.6313648044598
 30
0.0
 11
4208.665631741964
 21
350.6313648044598
 31
0.0
  0
LINE
  5
12C
330
1F
100
AcDbEntity
  8
DEFAULT
100
AcDbLine
 10
4208.665631741964
 20
350.6313648044598
 30
0.0
 11
4203.365631741964
 21
350.6313648044598
 31
0.0
  0
LINE
  5
12D
330
1F
100
AcDbEntity
  8
DEFAULT
100
AcDbLine
 10
4203.365631741964
 20
350.6313648044598
 30
0.0
 11
4203.365631741964
 21
362.6313648044598
 31
0.0
  0
LINE
  5
12E
330
1F
100
AcDbEntity
  8
DEFAULT
100
AcDbLine
 10
4203.365631741964
 20
362.6313648044598
 30
0.0
 11
4208.665631741964
 21
362.6313648044598
 31
0.0
  0
LINE
  5
12F
330
1F
100
AcDbEntity
  8
DEFAULT
100
AcDbLine
 10
4228.895631741962
 20
367.1285776777825
 30
0.0
 11
4228.895631741962
 21
379.1285776777825
 31
0.0
  0
LINE
  5
130
330
1F
100
AcDbEntity
  8
DEFAULT
100
AcDbLine
 10
4228.895631741962
 20
379.1285776777825
 30
0.0
 11
4234.195631741963
 21
379.1285776777825
 31
0.0
  0
LINE
  5
131
330
1F
100
AcDbEntity
  8
DEFAULT
100
AcDbLine
 10
4234.195631741963
 20
379.1285776777825
 30
0.0
 11
4234.195631741963
 21
367.1285776777825
 31
0.0
  0
LINE
  5
132
330
1F
100
AcDbEntity
  8
DEFAULT
100
AcDbLine
 10
4234.195631741963
 20
367.1285776777825
 30
0.0
 11
4228.895631741962
 21
367.1285776777825
 31
0.0
  0
LINE
  5
133
330
1F
100
AcDbEntity
  8
DEFAULT
100
AcDbLine
 10
4395.195631741964
 20
361.7701522634171
 30
0.0
 11
4395.195631741964
 21
349.7701522634171
 31
0.0
  0
LINE
  5
134
330
1F
100
AcDbEntity
  8
DEFAULT
100
AcDbLine
 10
4395.195631741964
 20
349.7701522634171
 30
0.0
 11
4389.895631741963
 21
349.7701522634171
 31
0.0
  0
LINE
  5
135
330
1F
100
AcDbEntity
  8
DEFAULT
100
AcDbLine
 10
4389.895631741963
 20
349.7701522634171
 30
0.0
 11
4389.895631741963
 21
361.7701522634171
 31
0.0
  0
LINE
  5
136
330
1F
100
AcDbEntity
  8
DEFAULT
100
AcDbLine
 10
4389.895631741963
 20
361.7701522634171
 30
0.0
 11
4395.195631741964
 21
361.7701522634171
 31
0.0
  0
LINE
  5
137
330
1F
100
AcDbEntity
  8
DEFAULT
100
AcDbLine
 10
4389.895631741963
 20
313.7701522634171
 30
0.0
 11
4395.195631741964
 21
313.7701522634171
 31
0.0
  0
LINE
  5
138
330
1F
100
AcDbEntity
  8
DEFAULT
100
AcDbLine
 10
4395.195631741964
 20
313.7701522634171
 30
0.0
 11
4395.195631741964
 21
301.7701522634171
 31
0.0
  0
LINE
  5
139
330
1F
100
AcDbEntity
  8
DEFAULT
100
AcDbLine
 10
4395.195631741964
 20
301.7701522634171
 30
0.0
 11
4389.895631741963
 21
301.7701522634171
 31
0.0
  0
LINE
  5
13A
330
1F
100
AcDbEntity
  8
DEFAULT
100
AcDbLine
 10
4389.895631741963
 20
301.7701522634171
 30
0.0
 11
4389.895631741963
 21
313.7701522634171
 31
0.0
  0
LINE
  5
13B
330
1F
100
AcDbEntity
  8
DEFAULT
100
AcDbLine
 10
4420.695631741963
 20
403.8785776777816
 30
0.0
 11
4415.395631741962
 21
403.8785776777816
 31
0.0
  0
LINE
  5
13C
330
1F
100
AcDbEntity
  8
DEFAULT
100
AcDbLine
 10
4415.395631741962
 20
403.8785776777816
 30
0.0
 11
4415.395631741962
 21
391.8785776777816
 31
0.0
  0
LINE
  5
13D
330
1F
100
AcDbEntity
  8
DEFAULT
100
AcDbLine
 10
4415.395631741962
 20
391.8785776777816
 30
0.0
 11
4420.695631741963
 21
391.8785776777816
 31
0.0
  0
LINE
  5
13E
330
1F
100
AcDbEntity
  8
DEFAULT
100
AcDbLine
 10
4420.695631741963
 20
391.8785776777816
 30
0.0
 11
4420.695631741963
 21
403.8785776777816
 31
0.0
  0
LINE
  5
13F
330
1F
100
AcDbEntity
  8
DEFAULT
100
AcDbLine
 10
4234.195631741963
 20
391.1285776777825
 30
0.0
 11
4228.895631741962
 21
391.1285776777825
 31
0.0
  0
LINE
  5
140
330
1F
100
AcDbEntity
  8
DEFAULT
100
AcDbLine
 10
4228.895631741962
 20
391.1285776777825
 30
0.0
 11
4228.895631741962
 21
403.1285776777825
 31
0.0
  0
LINE
  5
141
330
1F
100
AcDbEntity
  8
DEFAULT
100
AcDbLine
 10
4228.895631741962
 20
403.1285776777825
 30
0.0
 11
4234.195631741963
 21
403.1285776777825
 31
0.0
  0
LINE
  5
142
330
1F
100
AcDbEntity
  8
DEFAULT
100
AcDbLine
 10
4234.195631741963
 20
403.1285776777825
 30
0.0
 11
4234.195631741963
 21
391.1285776777825
 31
0.0
  0
LINE
  5
143
330
1F
100
AcDbEntity
  8
DEFAULT
100
AcDbLine
 10
4420.695631741963
 20
259.8785776777816
 30
0.0
 11
4415.395631741962
 21
259.8785776777816
 31
0.0
  0
LINE
  5
144
330
1F
100
AcDbEntity
  8
DEFAULT
100
AcDbLine
 10
4415.395631741962
 20
259.8785776777816
 30
0.0
 11
4415.395631741962
 21
247.8785776777816
 31
0.0
  0
LINE
  5
145
330
1F
100
AcDbEntity
  8
DEFAULT
100
AcDbLine
 10
4415.395631741962
 20
247.8785776777816
 30
0.0
 11
4420.695631741963
 21
247.8785776777816
 31
0.0
  0
LINE
  5
146
330
1F
100
AcDbEntity
  8
DEFAULT
100
AcDbLine
 10
4420.695631741963
 20
247.8785776777816
 30
0.0
 11
4420.695631741963
 21
259.8785776777816
 31
0.0
  0
LINE
  5
147
330
1F
100
AcDbEntity
  8
DEFAULT
100
AcDbLine
 10
4420.695631741963
 20
331.8785776777816
 30
0.0
 11
4415.395631741962
 21
331.8785776777816
 31
0.0
  0
LINE
  5
148
330
1F
100
AcDbEntity
  8
DEFAULT
100
AcDbLine
 10
4415.395631741962
 20
331.8785776777816
 30
0.0
 11
4415.395631741962
 21
319.8785776777816
 31
0.0
  0
LINE
  5
149
330
1F
100
AcDbEntity
  8
DEFAULT
100
AcDbLine
 10
4415.395631741962
 20
319.8785776777816
 30
0.0
 11
4420.695631741963
 21
319.8785776777816
 31
0.0
  0
LINE
  5
14A
330
1F
100
AcDbEntity
  8
DEFAULT
100
AcDbLine
 10
4420.695631741963
 20
319.8785776777816
 30
0.0
 11
4420.695631741963
 21
331.8785776777816
 31
0.0
  0
LINE
  5
14B
330
1F
100
AcDbEntity
  8
DEFAULT
100
AcDbLine
 10
4203.365631741964
 20
374.6285776777816
 30
0.0
 11
4203.365631741964
 21
386.6285776777816
 31
0.0
  0
LINE
  5
14C
330
1F
100
AcDbEntity
  8
DEFAULT
100
AcDbLine
 10
4203.365631741964
 20
386.6285776777816
 30
0.0
 11
4208.665631741964
 21
386.6285776777816
 31
0.0
  0
LINE
  5
14D
330
1F
100
AcDbEntity
  8
DEFAULT
100
AcDbLine
 10
4208.665631741964
 20
386.6285776777816
 30
0.0
 11
4208.665631741964
 21
374.6285776777816
 31
0.0
  0
LINE
  5
14E
330
1F
100
AcDbEntity
  8
DEFAULT
100
AcDbLine
 10
4208.665631741964
 20
374.6285776777816
 30
0.0
 11
4203.365631741964
 21
374.6285776777816
 31
0.0
  0
LINE
  5
14F
330
1F
100
AcDbEntity
  8
DEFAULT
100
AcDbLine
 10
4420.695631741963
 20
295.8785776777816
 30
0.0
 11
4415.395631741962
 21
295.8785776777816
 31
0.0
  0
LINE
  5
150
330
1F
100
AcDbEntity
  8
DEFAULT
100
AcDbLine
 10
4415.395631741962
 20
295.8785776777816
 30
0.0
 11
4415.395631741962
 21
307.8785776777816
 31
0.0
  0
LINE
  5
151
330
1F
100
AcDbEntity
  8
DEFAULT
100
AcDbLine
 10
4415.395631741962
 20
307.8785776777816
 30
0.0
 11
4420.695631741963
 21
307.8785776777816
 31
0.0
  0
LINE
  5
152
330
1F
100
AcDbEntity
  8
DEFAULT
100
AcDbLine
 10
4420.695631741963
 20
307.8785776777816
 30
0.0
 11
4420.695631741963
 21
295.8785776777816
 31
0.0
  0
LINE
  5
153
330
1F
100
AcDbEntity
  8
DEFAULT
100
AcDbLine
 10
4389.895631741963
 20
277.7701522634171
 30
0.0
 11
4389.895631741963
 21
289.7701522634171
 31
0.0
  0
LINE
  5
154
330
1F
100
AcDbEntity
  8
DEFAULT
100
AcDbLine
 10
4389.895631741963
 20
289.7701522634171
 30
0.0
 11
4395.195631741964
 21
289.7701522634171
 31
0.0
  0
LINE
  5
155
330
1F
100
AcDbEntity
  8
DEFAULT
100
AcDbLine
 10
4395.195631741964
 20
289.7701522634171
 30
0.0
 11
4395.195631741964
 21
277.7701522634171
 31
0.0
  0
LINE
  5
156
330
1F
100
AcDbEntity
  8
DEFAULT
100
AcDbLine
 10
4395.195631741964
 20
277.7701522634171
 30
0.0
 11
4389.895631741963
 21
277.7701522634171
 31
0.0
  0
LINE
  5
157
330
1F
100
AcDbEntity
  8
DEFAULT
100
AcDbLine
 10
4228.895631741962
 20
331.1285776777825
 30
0.0
 11
4234.195631741963
 21
331.1285776777825
 31
0.0
  0
LINE
  5
158
330
1F
100
AcDbEntity
  8
DEFAULT
100
AcDbLine
 10
4234.195631741963
 20
331.1285776777825
 30
0.0
 11
4234.195631741963
 21
319.1285776777825
 31
0.0
  0
LINE
  5
159
330
1F
100
AcDbEntity
  8
DEFAULT
100
AcDbLine
 10
4234.195631741963
 20
319.1285776777825
 30
0.0
 11
4228.895631741962
 21
319.1285776777825
 31
0.0
  0
LINE
  5
15A
330
1F
100
AcDbEntity
  8
DEFAULT
100
AcDbLine
 10
4228.895631741962
 20
319.1285776777825
 30
0.0
 11
4228.895631741962
 21
331.1285776777825
 31
0.0
  0
LINE
  5
15B
330
1F
100
AcDbEntity
  8
DEFAULT
100
AcDbLine
 10
4228.895631741962
 20
355.1285776777825
 30
0.0
 11
4234.195631741963
 21
355.1285776777825
 31
0.0
  0
LINE
  5
15C
330
1F
100
AcDbEntity
  8
DEFAULT
100
AcDbLine
 10
4234.195631741963
 20
355.1285776777825
 30
0.0
 11
4234.195631741963
 21
343.1285776777825
 31
0.0
  0
LINE
  5
15D
330
1F
100
AcDbEntity
  8
DEFAULT
100
AcDbLine
 10
4234.195631741963
 20
343.1285776777825
 30
0.0
 11
4228.895631741962
 21
343.1285776777825
 31
0.0
  0
LINE
  5
15E
330
1F
100
AcDbEntity
  8
DEFAULT
100
AcDbLine
 10
4228.895631741962
 20
343.1285776777825
 30
0.0
 11
4228.895631741962
 21
355.1285776777825
 31
0.0
  0
LINE
  5
15F
330
1F
100
AcDbEntity
  8
DEFAULT
100
AcDbLine
 10
4420.695631741963
 20
343.8785776777816
 30
0.0
 11
4415.395631741962
 21
343.8785776777816
 31
0.0
  0
LINE
  5
160
330
1F
100
AcDbEntity
  8
DEFAULT
100
AcDbLine
 10
4415.395631741962
 20
343.8785776777816
 30
0.0
 11
4415.395631741962
 21
355.8785776777816
 31
0.0
  0
LINE
  5
161
330
1F
100
AcDbEntity
  8
DEFAULT
100
AcDbLine
 10
4415.395631741962
 20
355.8785776777816
 30
0.0
 11
4420.695631741963
 21
355.8785776777816
 31
0.0
  0
LINE
  5
162
330
1F
100
AcDbEntity
  8
DEFAULT
100
AcDbLine
 10
4420.695631741963
 20
355.8785776777816
 30
0.0
 11
4420.695631741963
 21
343.8785776777816
 31
0.0
  0
LINE
  5
163
330
1F
100
AcDbEntity
  8
DEFAULT
100
AcDbLine
 10
4395.195631741964
 20
325.7701522634171
 30
0.0
 11
4389.895631741963
 21
325.7701522634171
 31
0.0
  0
LINE
  5
164
330
1F
100
AcDbEntity
  8
DEFAULT
100
AcDbLine
 10
4389.895631741963
 20
325.7701522634171
 30
0.0
 11
4389.895631741963
 21
337.7701522634171
 31
0.0
  0
LINE
  5
165
330
1F
100
AcDbEntity
  8
DEFAULT
100
AcDbLine
 10
4389.895631741963
 20
337.7701522634171
 30
0.0
 11
4395.195631741964
 21
337.7701522634171
 31
0.0
  0
LINE
  5
166
330
1F
100
AcDbEntity
  8
DEFAULT
100
AcDbLine
 10
4395.195631741964
 20
337.7701522634171
 30
0.0
 11
4395.195631741964
 21
325.7701522634171
 31
0.0
  0
LINE
  5
167
330
1F
100
AcDbEntity
  8
DEFAULT
100
AcDbLine
 10
4424.045631737499
 20
415.8785776777816
 30
0.0
 11
4412.045631737499
 21
415.8785776777816
 31
0.0
  0
LINE
  5
168
330
1F
100
AcDbEntity
  8
DEFAULT
100
AcDbLine
 10
4412.045631737499
 20
415.8785776777816
 30
0.0
 11
4412.045631737499
 21
410.3785776777816
 31
0.0
  0
LINE
  5
169
330
1F
100
AcDbEntity
  8
DEFAULT
100
AcDbLine
 10
4412.045631737499
 20
410.3785776777816
 30
0.0
 11
4400.045631737499
 21
410.3785776777816
 31
0.0
  0
LINE
  5
16A
330
1F
100
AcDbEntity
  8
DEFAULT
100
AcDbLine
 10
4400.045631737499
 20
410.3785776777816
 30
0.0
 11
4400.045631737499
 21
415.8785776777816
 31
0.0
  0
LINE
  5
16B
330
1F
100
AcDbEntity
  8
DEFAULT
100
AcDbLine
 10
4400.045631737499
 20
415.8785776777816
 30
0.0
 11
4388.045631737499
 21
415.8785776777816
 31
0.0
  0
LINE
  5
16C
330
1F
100
AcDbEntity
  8
DEFAULT
100
AcDbLine
 10
4388.045631737499
 20
415.8785776777816
 30
0.0
 11
4388.045631737499
 21
410.3785776777816
 31
0.0
  0
LINE
  5
16D
330
1F
100
AcDbEntity
  8
DEFAULT
100
AcDbLine
 10
4388.045631737499
 20
410.3785776777816
 30
0.0
 11
4376.045631737499
 21
410.3785776777816
 31
0.0
  0
LINE
  5
16E
330
1F
100
AcDbEntity
  8
DEFAULT
100
AcDbLine
 10
4376.045631737499
 20
410.3785776777816
 30
0.0
 11
4376.045631737499
 21
415.8785776777816
 31
0.0
  0
LINE
  5
16F
330
1F
100
AcDbEntity
  8
DEFAULT
100
AcDbLine
 10
4376.045631737499
 20
415.8785776777816
 30
0.0
 11
4364.045631737499
 21
415.8785776777816
 31
0.0
  0
LINE
  5
170
330
1F
100
AcDbEntity
  8
DEFAULT
100
AcDbLine
 10
4364.045631737499
 20
415.8785776777816
 30
0.0
 11
4364.045631737499
 21
410.3785776777816
 31
0.0
  0
LINE
  5
171
330
1F
100
AcDbEntity
  8
DEFAULT
100
AcDbLine
 10
4364.045631737499
 20
410.3785776777816
 30
0.0
 11
4352.045631737499
 21
410.3785776777816
 31
0.0
  0
LINE
  5
172
330
1F
100
AcDbEntity
  8
DEFAULT
100
AcDbLine
 10
4352.045631737499
 20
410.3785776777816
 30
0.0
 11
4352.045631737499
 21
415.8785776777816
 31
0.0
  0
LINE
  5
173
330
1F
100
AcDbEntity
  8
DEFAULT
100
AcDbLine
 10
4352.045631737499
 20
415.8785776777816
 30
0.0
 11
4340.045631737499
 21
415.8785776777816
 31
0.0
  0
LINE
  5
174
330
1F
100
AcDbEntity
  8
DEFAULT
100
AcDbLine
 10
4340.045631737499
 20
415.8785776777816
 30
0.0
 11
4340.045631737499
 21
410.3785776777816
 31
0.0
  0
LINE
  5
175
330
1F
100
AcDbEntity
  8
DEFAULT
100
AcDbLine
 10
4340.045631737499
 20
410.3785776777816
 30
0.0
 11
4328.045631737499
 21
410.3785776777816
 31
0.0
  0
LINE
  5
176
330
1F
100
AcDbEntity
  8
DEFAULT
100
AcDbLine
 10
4328.045631737499
 20
410.3785776777816
 30
0.0
 11
4328.045631737499
 21
415.8785776777816
 31
0.0
  0
LINE
  5
177
330
1F
100
AcDbEntity
  8
DEFAULT
100
AcDbLine
 10
4328.045631737499
 20
415.8785776777816
 30
0.0
 11
4316.045631737499
 21
415.8785776777816
 31
0.0
  0
LINE
  5
178
330
1F
100
AcDbEntity
  8
DEFAULT
100
AcDbLine
 10
4316.045631737499
 20
415.8785776777816
 30
0.0
 11
4316.045631737499
 21
410.3785776777816
 31
0.0
  0
LINE
  5
179
330
1F
100
AcDbEntity
  8
DEFAULT
100
AcDbLine
 10
4316.045631737499
 20
410.3785776777816
 30
0.0
 11
4304.045631737499
 21
410.3785776777816
 31
0.0
  0
LINE
  5
17A
330
1F
100
AcDbEntity
  8
DEFAULT
100
AcDbLine
 10
4304.045631737499
 20
410.3785776777816
 30
0.0
 11
4304.045631737499
 21
415.8785776777816
 31
0.0
  0
LINE
  5
17B
330
1F
100
AcDbEntity
  8
DEFAULT
100
AcDbLine
 10
4304.045631737499
 20
415.8785776777816
 30
0.0
 11
4292.045631737499
 21
415.8785776777816
 31
0.0
  0
LINE
  5
17C
330
1F
100
AcDbEntity
  8
DEFAULT
100
AcDbLine
 10
4292.045631737499
 20
415.8785776777816
 30
0.0
 11
4292.045631737499
 21
410.3785776777816
 31
0.0
  0
LINE
  5
17D
330
1F
100
AcDbEntity
  8
DEFAULT
100
AcDbLine
 10
4292.045631737499
 20
410.3785776777816
 30
0.0
 11
4280.045631737499
 21
410.3785776777816
 31
0.0
  0
LINE
  5
17E
330
1F
100
AcDbEntity
  8
DEFAULT
100
AcDbLine
 10
4280.045631737499
 20
410.3785776777816
 30
0.0
 11
4280.045631737499
 21
415.8785776777816
 31
0.0
  0
LINE
  5
17F
330
1F
100
AcDbEntity
  8
DEFAULT
100
AcDbLine
 10
4280.045631737499
 20
415.8785776777816
 30
0.0
 11
4268.045631737499
 21
415.8785776777816
 31
0.0
  0
LINE
  5
180
330
1F
100
AcDbEntity
  8
DEFAULT
100
AcDbLine
 10
4268.045631737499
 20
415.8785776777816
 30
0.0
 11
4268.045631737499
 21
410.3785776777816
 31
0.0
  0
LINE
  5
181
330
1F
100
AcDbEntity
  8
DEFAULT
100
AcDbLine
 10
4268.045631737499
 20
410.3785776777816
 30
0.0
 11
4256.045631737499
 21
410.3785776777816
 31
0.0
  0
LINE
  5
182
330
1F
100
AcDbEntity
  8
DEFAULT
100
AcDbLine
 10
4256.045631737499
 20
410.3785776777816
 30
0.0
 11
4256.045631737499
 21
415.8785776777816
 31
0.0
  0
LINE
  5
183
330
1F
100
AcDbEntity
  8
DEFAULT
100
AcDbLine
 10
4256.045631737499
 20
415.8785776777816
 30
0.0
 11
4244.045631737499
 21
415.8785776777816
 31
0.0
  0
LINE
  5
184
330
1F
100
AcDbEntity
  8
DEFAULT
100
AcDbLine
 10
4244.045631737499
 20
415.8785776777816
 30
0.0
 11
4244.045631737499
 21
410.3785776777816
 31
0.0
  0
LINE
  5
185
330
1F
100
AcDbEntity
  8
DEFAULT
100
AcDbLine
 10
4244.045631737499
 20
410.3785776777816
 30
0.0
 11
4232.045631737499
 21
410.3785776777816
 31
0.0
  0
LINE
  5
186
330
1F
100
AcDbEntity
  8
DEFAULT
100
AcDbLine
 10
4232.045631737499
 20
410.3785776777816
 30
0.0
 11
4232.045631737499
 21
415.8785776777816
 31
0.0
  0
LINE
  5
187
330
1F
100
AcDbEntity
  8
DEFAULT
100
AcDbLine
 10
4232.045631737499
 20
415.8785776777816
 30
0.0
 11
4220.045631737499
 21
415.8785776777816
 31
0.0
  0
LINE
  5
188
330
1F
100
AcDbEntity
  8
DEFAULT
100
AcDbLine
 10
4220.045631737499
 20
415.8785776777816
 30
0.0
 11
4220.045631737499
 21
410.3785776777816
 31
0.0
  0
LINE
  5
189
330
1F
100
AcDbEntity
  8
DEFAULT
100
AcDbLine
 10
4220.045631737499
 20
410.3785776777816
 30
0.0
 11
4208.795631741963
 21
410.3785776777816
 31
0.0
  0
LINE
  5
18A
330
1F
100
AcDbEntity
  8
DEFAULT
100
AcDbLine
 10
4208.795631741963
 20
410.3785776777816
 30
0.0
 11
4208.795631741963
 21
398.3785776777816
 31
0.0
  0
LINE
  5
18B
330
1F
100
AcDbEntity
  8
DEFAULT
100
AcDbLine
 10
4208.795631741963
 20
398.3785776777816
 30
0.0
 11
4203.235631741964
 21
398.3785776777816
 31
0.0
  0
LINE
  5
18C
330
1F
100
AcDbEntity
  8
DEFAULT
100
AcDbLine
 10
4203.235631741964
 20
398.3785776777816
 30
0.0
 11
4203.235631741964
 21
410.3785776777816
 31
0.0
  0
LINE
  5
18D
330
1F
100
AcDbEntity
  8
DEFAULT
100
AcDbLine
 10
4203.235631741964
 20
410.3785776777816
 30
0.0
 11
4184.045631737499
 21
410.3785776777816
 31
0.0
  0
LINE
  5
18E
330
1F
100
AcDbEntity
  8
DEFAULT
100
AcDbLine
 10
4184.045631737499
 20
410.3785776777816
 30
0.0
 11
4184.045631737499
 21
415.8785776777816
 31
0.0
  0
LINE
  5
18F
330
1F
100
AcDbEntity
  8
DEFAULT
100
AcDbLine
 10
4184.045631737499
 20
415.8785776777816
 30
0.0
 11
4172.045631737499
 21
415.8785776777816
 31
0.0
  0
LINE
  5
190
330
1F
100
AcDbEntity
  8
DEFAULT
100
AcDbLine
 10
4172.045631737499
 20
415.8785776777816
 30
0.0
 11
4172.045631737499
 21
410.3785776777816
 31
0.0
  0
LINE
  5
191
330
1F
100
AcDbEntity
  8
DEFAULT
100
AcDbLine
 10
4172.045631737499
 20
410.3785776777816
 30
0.0
 11
4161.295631741963
 21
410.3785776777816
 31
0.0
  0
LINE
  5
192
330
1F
100
AcDbEntity
  8
DEFAULT
100
AcDbLine
 10
4161.295631741963
 20
410.3785776777816
 30
0.0
 11
4161.295631741963
 21
361.8785776777814
 31
0.0
  0
LINE
  5
193
330
1F
100
AcDbEntity
  8
DEFAULT
100
AcDbLine
 10
4161.295631741963
 20
361.8785776777814
 30
0.0
 11
4166.795631741963
 21
361.8785776777814
 31
0.0
  0
LINE
  5
194
330
1F
100
AcDbEntity
  8
DEFAULT
100
AcDbLine
 10
4166.795631741963
 20
361.8785776777814
 30
0.0
 11
4166.795631741963
 21
357.3785776777814
 31
0.0
  0
LINE
  5
195
330
1F
100
AcDbEntity
  8
DEFAULT
100
AcDbLine
 10
4166.795631741963
 20
357.3785776777814
 30
0.0
 11
4171.795631741963
 21
357.3785776777814
 31
0.0
  0
LINE
  5
196
330
1F
100
AcDbEntity
  8
DEFAULT
100
AcDbLine
 10
4171.795631741963
 20
357.3785776777814
 30
0.0
 11
4171.795631741963
 21
358.5785776777812
 31
0.0
  0
LINE
  5
197
330
1F
100
AcDbEntity
  8
DEFAULT
100
AcDbLine
 10
4171.795631741963
 20
358.5785776777812
 30
0.0
 11
4174.195631741963
 21
358.5785776777812
 31
0.0
  0
LINE
  5
198
330
1F
100
AcDbEntity
  8
DEFAULT
100
AcDbLine
 10
4174.195631741963
 20
358.5785776777812
 30
0.0
 11
4174.195631741963
 21
357.3785776777814
 31
0.0
  0
LINE
  5
199
330
1F
100
AcDbEntity
  8
DEFAULT
100
AcDbLine
 10
4174.195631741963
 20
357.3785776777814
 30
0.0
 11
4176.195631741963
 21
357.3785776777814
 31
0.0
  0
LINE
  5
19A
330
1F
100
AcDbEntity
  8
DEFAULT
100
AcDbLine
 10
4176.195631741963
 20
357.3785776777814
 30
0.0
 11
4176.195631741963
 21
354.3785776777814
 31
0.0
  0
LINE
  5
19B
330
1F
100
AcDbEntity
  8
DEFAULT
100
AcDbLine
 10
4176.195631741963
 20
354.3785776777814
 30
0.0
 11
4174.195631741963
 21
354.3785776777814
 31
0.0
  0
LINE
  5
19C
330
1F
100
AcDbEntity
  8
DEFAULT
100
AcDbLine
 10
4174.195631741963
 20
354.3785776777814
 30
0.0
 11
4174.195631741963
 21
353.1785776777811
 31
0.0
  0
LINE
  5
19D
330
1F
100
AcDbEntity
  8
DEFAULT
100
AcDbLine
 10
4174.195631741963
 20
353.1785776777811
 30
0.0
 11
4171.795631741963
 21
353.1785776777811
 31
0.0
  0
LINE
  5
19E
330
1F
100
AcDbEntity
  8
DEFAULT
100
AcDbLine
 10
4171.795631741963
 20
353.1785776777811
 30
0.0
 11
4171.795631741963
 21
354.3785776777814
 31
0.0
  0
LINE
  5
19F
330
1F
100
AcDbEntity
  8
DEFAULT
100
AcDbLine
 10
4171.795631741963
 20
354.3785776777814
 30
0.0
 11
4166.795631741963
 21
354.3785776777814
 31
0.0
  0
LINE
  5
1A0
330
1F
100
AcDbEntity
  8
DEFAULT
100
AcDbLine
 10
4166.795631741963
 20
354.3785776777814
 30
0.0
 11
4166.795631741963
 21
349.8785776777814
 31
0.0
  0
LINE
  5
1A1
330
1F
100
AcDbEntity
  8
DEFAULT
100
AcDbLine
 10
4166.795631741963
 20
349.8785776777814
 30
0.0
 11
4161.295631741963
 21
349.8785776777814
 31
0.0
  0
LINE
  5
1A2
330
1F
100
AcDbEntity
  8
DEFAULT
100
AcDbLine
 10
4161.295631741963
 20
349.8785776777814
 30
0.0
 11
4161.295631741963
 21
337.8785776777814
 31
0.0
  0
LINE
  5
1A3
330
1F
100
AcDbEntity
  8
DEFAULT
100
AcDbLine
 10
4161.295631741963
 20
337.8785776777814
 30
0.0
 11
4166.795631741963
 21
337.8785776777814
 31
0.0
  0
LINE
  5
1A4
330
1F
100
AcDbEntity
  8
DEFAULT
100
AcDbLine
 10
4166.795631741963
 20
337.8785776777814
 30
0.0
 11
4166.795631741963
 21
325.8785776777814
 31
0.0
  0
LINE
  5
1A5
330
1F
100
AcDbEntity
  8
DEFAULT
100
AcDbLine
 10
4166.795631741963
 20
325.8785776777814
 30
0.0
 11
4161.295631741963
 21
325.8785776777814
 31
0.0
  0
LINE
  5
1A6
330
1F
100
AcDbEntity
  8
DEFAULT
100
AcDbLine
 10
4161.295631741963
 20
325.8785776777814
 30
0.0
 11
4161.295631741963
 21
313.8785776777814
 31
0.0
  0
LINE
  5
1A7
330
1F
100
AcDbEntity
  8
DEFAULT
100
AcDbLine
 10
4161.295631741963
 20
313.8785776777814
 30
0.0
 11
4166.795631741963
 21
313.8785776777814
 31
0.0
  0
LINE
  5
1A8
330
1F
100
AcDbEntity
  8
DEFAULT
100
AcDbLine
 10
4166.795631741963
 20
313.8785776777814
 30
0.0
 11
4166.795631741963
 21
301.8785776777814
 31
0.0
  0
LINE
  5
1A9
330
1F
100
AcDbEntity
  8
DEFAULT
100
AcDbLine
 10
4166.795631741963
 20
301.8785776777814
 30
0.0
 11
4161.295631741963
 21
301.8785776777814
 31
0.0
  0
LINE
  5
1AA
330
1F
100
AcDbEntity
  8
DEFAULT
100
AcDbLine
 10
4161.295631741963
 20
301.8785776777814
 30
0.0
 11
4161.295631741963
 21
289.8785776777814
 31
0.0
  0
LINE
  5
1AB
330
1F
100
AcDbEntity
  8
DEFAULT
100
AcDbLine
 10
4161.295631741963
 20
289.8785776777814
 30
0.0
 11
4166.795631741963
 21
289.8785776777814
 31
0.0
  0
LINE
  5
1AC
330
1F
100
AcDbEntity
  8
DEFAULT
100
AcDbLine
 10
4166.795631741963
 20
289.8785776777814
 30
0.0
 11
4166.795631741963
 21
277.8785776777814
 31
0.0
  0
LINE
  5
1AD
330
1F
100
AcDbEntity
  8
DEFAULT
100
AcDbLine
 10
4166.795631741963
 20
277.8785776777814
 30
0.0
 11
4161.295631741963
 21
277.8785776777814
 31
0.0
  0
LINE
  5
1AE
330
1F
100
AcDbEntity
  8
DEFAULT
100
AcDbLine
 10
4161.295631741963
 20
277.8785776777814
 30
0.0
 11
4161.295631741963
 21
265.8785776777814
 31
0.0
  0
LINE
  5
1AF
330
1F
100
AcDbEntity
  8
DEFAULT
100
AcDbLine
 10
4161.295631741963
 20
265.8785776777814
 30
0.0
 11
4166.795631741963
 21
265.8785776777814
 31
0.0
  0
LINE
  5
1B0
330
1F
100
AcDbEntity
  8
DEFAULT
100
AcDbLine
 10
4166.795631741963
 20
265.8785776777814
 30
0.0
 11
4166.795631741963
 21
261.3785776777814
 31
0.0
  0
LINE
  5
1B1
330
1F
100
AcDbEntity
  8
DEFAULT
100
AcDbLine
 10
4166.795631741963
 20
261.3785776777814
 30
0.0
 11
4171.795631741963
 21
261.3785776777814
 31
0.0
  0
LINE
  5
1B2
330
1F
100
AcDbEntity
  8
DEFAULT
100
AcDbLine
 10
4171.795631741963
 20
261.3785776777814
 30
0.0
 11
4171.795631741963
 21
262.5785776777812
 31
0.0
  0
LINE
  5
1B3
330
1F
100
AcDbEntity
  8
DEFAULT
100
AcDbLine
 10
4171.795631741963
 20
262.5785776777812
 30
0.0
 11
4174.195631741963
 21
262.5785776777812
 31
0.0
  0
LINE
  5
1B4
330
1F
100
AcDbEntity
  8
DEFAULT
100
AcDbLine
 10
4174.195631741963
 20
262.5785776777812
 30
0.0
 11
4174.195631741963
 21
261.3785776777814
 31
0.0
  0
LINE
  5
1B5
330
1F
100
AcDbEntity
  8
DEFAULT
100
AcDbLine
 10
4174.195631741963
 20
261.3785776777814
 30
0.0
 11
4176.195631741963
 21
261.3785776777814
 31
0.0
  0
LINE
  5
1B6
330
1F
100
AcDbEntity
  8
DEFAULT
100
AcDbLine
 10
4176.195631741963
 20
261.3785776777814
 30
0.0
 11
4176.195631741963
 21
258.3785776777814
 31
0.0
  0
LINE
  5
1B7
330
1F
100
AcDbEntity
  8
DEFAULT
100
AcDbLine
 10
4176.195631741963
 20
258.3785776777814
 30
0.0
 11
4174.195631741963
 21
258.3785776777814
 31
0.0
  0
LINE
  5
1B8
330
1F
100
AcDbEntity
  8
DEFAULT
100
AcDbLine
 10
4174.195631741963
 20
258.3785776777814
 30
0.0
 11
4174.195631741963
 21
257.1785776777811
 31
0.0
  0
LINE
  5
1B9
330
1F
100
AcDbEntity
  8
DEFAULT
100
AcDbLine
 10
4174.195631741963
 20
257.1785776777811
 30
0.0
 11
4171.795631741963
 21
257.1785776777811
 31
0.0
  0
LINE
  5
1BA
330
1F
100
AcDbEntity
  8
DEFAULT
100
AcDbLine
 10
4171.795631741963
 20
257.1785776777811
 30
0.0
 11
4171.795631741963
 21
258.3785776777814
 31
0.0
  0
LINE
  5
1BB
330
1F
100
AcDbEntity
  8
DEFAULT
100
AcDbLine
 10
4171.795631741963
 20
258.3785776777814
 30
0.0
 11
4166.795631741963
 21
258.3785776777814
 31
0.0
  0
LINE
  5
1BC
330
1F
100
AcDbEntity
  8
DEFAULT
100
AcDbLine
 10
4166.795631741963
 20
258.3785776777814
 30
0.0
 11
4166.795631741963
 21
253.8785776777814
 31
0.0
  0
LINE
  5
1BD
330
1F
100
AcDbEntity
  8
DEFAULT
100
AcDbLine
 10
4166.795631741963
 20
253.8785776777814
 30
0.0
 11
4161.295631741963
 21
253.8785776777814
 31
0.0
  0
LINE
  5
1BE
330
1F
100
AcDbEntity
  8
DEFAULT
100
AcDbLine
 10
4161.295631741963
 20
253.8785776777814
 30
0.0
 11
4161.295631741963
 21
205.3785776777816
 31
0.0
  0
LINE
  5
1BF
330
1F
100
AcDbEntity
  8
DEFAULT
100
AcDbLine
 10
4161.295631741963
 20
205.3785776777816
 30
0.0
 11
4482.795631733035
 21
205.3785776777816
 31
0.0
  0
LINE
  5
1C0
330
1F
100
AcDbEntity
  8
DEFAULT
100
AcDbLine
 10
4482.795631733035
 20
205.3785776777816
 30
0.0
 11
4482.795631733035
 21
253.8785776777816
 31
0.0
  0
LINE
  5
1C1
330
1F
100
AcDbEntity
  8
DEFAULT
100
AcDbLine
 10
4482.795631733035
 20
253.8785776777816
 30
0.0
 11
4477.295631733035
 21
253.8785776777816
 31
0.0
  0
LINE
  5
1C2
330
1F
100
AcDbEntity
  8
DEFAULT
100
AcDbLine
 10
4477.295631733035
 20
253.8785776777816
 30
0.0
 11
4477.295631733035
 21
258.3785776777816
 31
0.0
  0
LINE
  5
1C3
330
1F
100
AcDbEntity
  8
DEFAULT
100
AcDbLine
 10
4477.295631733035
 20
258.3785776777816
 30
0.0
 11
4472.295631733035
 21
258.3785776777816
 31
0.0
  0
LINE
  5
1C4
330
1F
100
AcDbEntity
  8
DEFAULT
100
AcDbLine
 10
4472.295631733035
 20
258.3785776777816
 30
0.0
 11
4472.295631733035
 21
257.1785776777818
 31
0.0
  0
LINE
  5
1C5
330
1F
100
AcDbEntity
  8
DEFAULT
100
AcDbLine
 10
4472.295631733035
 20
257.1785776777818
 30
0.0
 11
4469.895631733036
 21
257.1785776777818
 31
0.0
  0
LINE
  5
1C6
330
1F
100
AcDbEntity
  8
DEFAULT
100
AcDbLine
 10
4469.895631733036
 20
257.1785776777818
 30
0.0
 11
4469.895631733036
 21
258.3785776777816
 31
0.0
  0
LINE
  5
1C7
330
1F
100
AcDbEntity
  8
DEFAULT
100
AcDbLine
 10
4469.895631733036
 20
258.3785776777816
 30
0.0
 11
4467.895631733036
 21
258.3785776777816
 31
0.0
  0
LINE
  5
1C8
330
1F
100
AcDbEntity
  8
DEFAULT
100
AcDbLine
 10
4467.895631733036
 20
258.3785776777816
 30
0.0
 11
4467.895631733036
 21
261.3785776777816
 31
0.0
  0
LINE
  5
1C9
330
1F
100
AcDbEntity
  8
DEFAULT
100
AcDbLine
 10
4467.895631733036
 20
261.3785776777816
 30
0.0
 11
4469.895631733036
 21
261.3785776777816
 31
0.0
  0
LINE
  5
1CA
330
1F
100
AcDbEntity
  8
DEFAULT
100
AcDbLine
 10
4469.895631733036
 20
261.3785776777816
 30
0.0
 11
4469.895631733036
 21
262.5785776777819
 31
0.0
  0
LINE
  5
1CB
330
1F
100
AcDbEntity
  8
DEFAULT
100
AcDbLine
 10
4469.895631733036
 20
262.5785776777819
 30
0.0
 11
4472.295631733035
 21
262.5785776777819
 31
0.0
  0
LINE
  5
1CC
330
1F
100
AcDbEntity
  8
DEFAULT
100
AcDbLine
 10
4472.295631733035
 20
262.5785776777819
 30
0.0
 11
4472.295631733035
 21
261.3785776777816
 31
0.0
  0
LINE
  5
1CD
330
1F
100
AcDbEntity
  8
DEFAULT
100
AcDbLine
 10
4472.295631733035
 20
261.3785776777816
 30
0.0
 11
4477.295631733035
 21
261.3785776777816
 31
0.0
  0
LINE
  5
1CE
330
1F
100
AcDbEntity
  8
DEFAULT
100
AcDbLine
 10
4477.295631733035
 20
261.3785776777816
 30
0.0
 11
4477.295631733035
 21
265.8785776777816
 31
0.0
  0
LINE
  5
1CF
330
1F
100
AcDbEntity
  8
DEFAULT
100
AcDbLine
 10
4477.295631733035
 20
265.8785776777816
 30
0.0
 11
4482.795631733035
 21
265.8785776777816
 31
0.0
  0
LINE
  5
1D0
330
1F
100
AcDbEntity
  8
DEFAULT
100
AcDbLine
 10
4482.795631733035
 20
265.8785776777816
 30
0.0
 11
4482.795631733035
 21
277.8785776777816
 31
0.0
  0
LINE
  5
1D1
330
1F
100
AcDbEntity
  8
DEFAULT
100
AcDbLine
 10
4482.795631733035
 20
277.8785776777816
 30
0.0
 11
4477.295631733035
 21
277.8785776777816
 31
0.0
  0
LINE
  5
1D2
330
1F
100
AcDbEntity
  8
DEFAULT
100
AcDbLine
 10
4477.295631733035
 20
277.8785776777816
 30
0.0
 11
4477.295631733035
 21
289.8785776777816
 31
0.0
  0
LINE
  5
1D3
330
1F
100
AcDbEntity
  8
DEFAULT
100
AcDbLine
 10
4477.295631733035
 20
289.8785776777816
 30
0.0
 11
4482.795631733035
 21
289.8785776777816
 31
0.0
  0
LINE
  5
1D4
330
1F
100
AcDbEntity
  8
DEFAULT
100
AcDbLine
 10
4482.795631733035
 20
289.8785776777816
 30
0.0
 11
4482.795631733035
 21
301.8785776777816
 31
0.0
  0
LINE
  5
1D5
330
1F
100
AcDbEntity
  8
DEFAULT
100
AcDbLine
 10
4482.795631733035
 20
301.8785776777816
 30
0.0
 11
4477.295631733035
 21
301.8785776777816
 31
0.0
  0
LINE
  5
1D6
330
1F
100
AcDbEntity
  8
DEFAULT
100
AcDbLine
 10
4477.295631733035
 20
301.8785776777816
 30
0.0
 11
4477.295631733035
 21
313.8785776777816
 31
0.0
  0
LINE
  5
1D7
330
1F
100
AcDbEntity
  8
DEFAULT
100
AcDbLine
 10
4477.295631733035
 20
313.8785776777816
 30
0.0
 11
4482.795631733035
 21
313.8785776777816
 31
0.0
  0
LINE
  5
1D8
330
1F
100
AcDbEntity
  8
DEFAULT
100
AcDbLine
 10
4482.795631733035
 20
313.8785776777816
 30
0.0
 11
4482.795631733035
 21
325.8785776777816
 31
0.0
  0
LINE
  5
1D9
330
1F
100
AcDbEntity
  8
DEFAULT
100
AcDbLine
 10
4482.795631733035
 20
325.8785776777816
 30
0.0
 11
4477.295631733035
 21
325.8785776777816
 31
0.0
  0
LINE
  5
1DA
330
1F
100
AcDbEntity
  8
DEFAULT
100
AcDbLine
 10
4477.295631733035
 20
325.8785776777816
 30
0.0
 11
4477.295631733035
 21
337.8785776777816
 31
0.0
  0
LINE
  5
1DB
330
1F
100
AcDbEntity
  8
DEFAULT
100
AcDbLine
 10
4477.295631733035
 20
337.8785776777816
 30
0.0
 11
4482.795631733035
 21
337.8785776777816
 31
0.0
  0
LINE
  5
1DC
330
1F
100
AcDbEntity
  8
DEFAULT
100
AcDbLine
 10
4482.795631733035
 20
337.8785776777816
 30
0.0
 11
4482.795631733035
 21
349.8785776777816
 31
0.0
  0
LINE
  5
1DD
330
1F
100
AcDbEntity
  8
DEFAULT
100
AcDbLine
 10
4482.795631733035
 20
349.8785776777816
 30
0.0
 11
4477.295631733035
 21
349.8785776777816
 31
0.0
  0
LINE
  5
1DE
330
1F
100
AcDbEntity
  8
DEFAULT
100
AcDbLine
 10
4477.295631733035
 20
349.8785776777816
 30
0.0
 11
4477.295631733035
 21
354.3785776777816
 31
0.0
  0
LINE
  5
1DF
330
1F
100
AcDbEntity
  8
DEFAULT
100
AcDbLine
 10
4477.295631733035
 20
354.3785776777816
 30
0.0
 11
4472.295631733035
 21
354.3785776777816
 31
0.0
  0
LINE
  5
1E0
330
1F
100
AcDbEntity
  8
DEFAULT
100
AcDbLine
 10
4472.295631733035
 20
354.3785776777816
 30
0.0
 11
4472.295631733035
 21
353.1785776777818
 31
0.0
  0
LINE
  5
1E1
330
1F
100
AcDbEntity
  8
DEFAULT
100
AcDbLine
 10
4472.295631733035
 20
353.1785776777818
 30
0.0
 11
4469.895631733036
 21
353.1785776777818
 31
0.0
  0
LINE
  5
1E2
330
1F
100
AcDbEntity
  8
DEFAULT
100
AcDbLine
 10
4469.895631733036
 20
353.1785776777818
 30
0.0
 11
4469.895631733036
 21
354.3785776777816
 31
0.0
  0
LINE
  5
1E3
330
1F
100
AcDbEntity
  8
DEFAULT
100
AcDbLine
 10
4469.895631733036
 20
354.3785776777816
 30
0.0
 11
4467.895631733036
 21
354.3785776777816
 31
0.0
  0
LINE
  5
1E4
330
1F
100
AcDbEntity
  8
DEFAULT
100
AcDbLine
 10
4467.895631733036
 20
354.3785776777816
 30
0.0
 11
4467.895631733036
 21
357.3785776777816
 31
0.0
  0
LINE
  5
1E5
330
1F
100
AcDbEntity
  8
DEFAULT
100
AcDbLine
 10
4467.895631733036
 20
357.3785776777816
 30
0.0
 11
4469.895631733036
 21
357.3785776777816
 31
0.0
  0
LINE
  5
1E6
330
1F
100
AcDbEntity
  8
DEFAULT
100
AcDbLine
 10
4469.895631733036
 20
357.3785776777816
 30
0.0
 11
4469.895631733036
 21
358.5785776777819
 31
0.0
  0
LINE
  5
1E7
330
1F
100
AcDbEntity
  8
DEFAULT
100
AcDbLine
 10
4469.895631733036
 20
358.5785776777819
 30
0.0
 11
4472.295631733035
 21
358.5785776777819
 31
0.0
  0
LINE
  5
1E8
330
1F
100
AcDbEntity
  8
DEFAULT
100
AcDbLine
 10
4472.295631733035
 20
358.5785776777819
 30
0.0
 11
4472.295631733035
 21
357.3785776777816
 31
0.0
  0
LINE
  5
1E9
330
1F
100
AcDbEntity
  8
DEFAULT
100
AcDbLine
 10
4472.295631733035
 20
357.3785776777816
 30
0.0
 11
4477.295631733035
 21
357.3785776777816
 31
0.0
  0
LINE
  5
1EA
330
1F
100
AcDbEntity
  8
DEFAULT
100
AcDbLine
 10
4477.295631733035
 20
357.3785776777816
 30
0.0
 11
4477.295631733035
 21
361.8785776777816
 31
0.0
  0
LINE
  5
1EB
330
1F
100
AcDbEntity
  8
DEFAULT
100
AcDbLine
 10
4477.295631733035
 20
361.8785776777816
 30
0.0
 11
4482.795631733035
 21
361.8785776777816
 31
0.0
  0
LINE
  5
1EC
330
1F
100
AcDbEntity
  8
DEFAULT
100
AcDbLine
 10
4482.795631733035
 20
361.8785776777816
 30
0.0
 11
4482.795631733035
 21
410.3785776777816
 31
0.0
  0
LINE
  5
1ED
330
1F
100
AcDbEntity
  8
DEFAULT
100
AcDbLine
 10
4482.795631733035
 20
410.3785776777816
 30
0.0
 11
4472.045631737499
 21
410.3785776777816
 31
0.0
  0
LINE
  5
1EE
330
1F
100
AcDbEntity
  8
DEFAULT
100
AcDbLine
 10
4472.045631737499
 20
410.3785776777816
 30
0.0
 11
4472.045631737499
 21
415.8785776777816
 31
0.0
  0
LINE
  5
1EF
330
1F
100
AcDbEntity
  8
DEFAULT
100
AcDbLine
 10
4472.045631737499
 20
415.8785776777816
 30
0.0
 11
4460.045631737499
 21
415.8785776777816
 31
0.0
  0
LINE
  5
1F0
330
1F
100
AcDbEntity
  8
DEFAULT
100
AcDbLine
 10
4460.045631737499
 20
415.8785776777816
 30
0.0
 11
4460.045631737499
 21
410.3785776777816
 31
0.0
  0
LINE
  5
1F1
330
1F
100
AcDbEntity
  8
DEFAULT
100
AcDbLine
 10
4460.045631737499
 20
410.3785776777816
 30
0.0
 11
4448.045631737499
 21
410.3785776777816
 31
0.0
  0
LINE
  5
1F2
330
1F
100
AcDbEntity
  8
DEFAULT
100
AcDbLine
 10
4448.045631737499
 20
410.3785776777816
 30
0.0
 11
4448.045631737499
 21
415.8785776777816
 31
0.0
  0
LINE
  5
1F3
330
1F
100
AcDbEntity
  8
DEFAULT
100
AcDbLine
 10
4448.045631737499
 20
415.8785776777816
 30
0.0
 11
4436.045631737499
 21
415.8785776777816
 31
0.0
  0
LINE
  5
1F4
330
1F
100
AcDbEntity
  8
DEFAULT
100
AcDbLine
 10
4436.045631737499
 20
415.8785776777816
 30
0.0
 11
4436.045631737499
 21
410.3785776777816
 31
0.0
  0
LINE
  5
1F5
330
1F
100
AcDbEntity
  8
DEFAULT
100
AcDbLine
 10
4436.045631737499
 20
410.3785776777816
 30
0.0
 11
4424.045631737499
 21
410.3785776777816
 31
0.0
  0
LINE
  5
1F6
330
1F
100
AcDbEntity
  8
DEFAULT
100
AcDbLine
 10
4424.045631737499
 20
410.3785776777816
 30
0.0
 11
4424.045631737499
 21
415.8785776777816
 31
0.0
  0
CIRCLE
  5
1F7
330
1F
100
AcDbEntity
  8
DEFAULT
100
AcDbCircle
 10
4418.045631741963
 20
289.8785776777816
 30
0.0
 40
1.5
  0
CIRCLE
  5
1F8
330
1F
100
AcDbEntity
  8
DEFAULT
100
AcDbCircle
 10
4418.045631741963
 20
385.8785776777816
 30
0.0
 40
1.5
  0
CIRCLE
  5
1F9
330
1F
100
AcDbEntity
  8
DEFAULT
100
AcDbCircle
 10
4206.015631741963
 20
296.6285776777816
 30
0.0
 40
1.5
  0
CIRCLE
  5
1FA
330
1F
100
AcDbEntity
  8
DEFAULT
100
AcDbCircle
 10
4206.015631741963
 20
368.6299712411207
 30
0.0
 40
1.5
  0
CIRCLE
  5
1FB
330
1F
100
AcDbEntity
  8
DEFAULT
100
AcDbCircle
 10
4442.045631737499
 20
230.3785776777822
 30
0.0000000000000104
 40
1.5
  0
CIRCLE
  5
1FC
330
1F
100
AcDbEntity
  8
DEFAULT
100
AcDbCircle
 10
4442.045631737499
 20
242.3785776777813
 30
0.0000000000000104
 40
1.5
  0
CIRCLE
  5
1FD
330
1F
100
AcDbEntity
  8
DEFAULT
100
AcDbCircle
 10
4202.045631737499
 20
242.3785776777813
 30
0.0000000000000104
 40
1.5
  0
CIRCLE
  5
1FE
330
1F
100
AcDbEntity
  8
DEFAULT
100
AcDbCircle
 10
4322.045631737499
 20
242.3785776777813
 30
0.0000000000000104
 40
1.5
  0
CIRCLE
  5
1FF
330
1F
100
AcDbEntity
  8
DEFAULT
100
AcDbCircle
 10
4464.795631733035
 20
307.8785776777813
 30
0.0000000000000104
 40
1.5
  0
CIRCLE
  5
200
330
1F
100
AcDbEntity
  8
DEFAULT
100
AcDbCircle
 10
4464.795631733035
 20
331.8785776777813
 30
0.0000000000000104
 40
1.5
  0
CIRCLE
  5
201
330
1F
100
AcDbEntity
  8
DEFAULT
100
AcDbCircle
 10
4464.795631733035
 20
319.8785776777813
 30
0.0000000000000104
 40
1.5
  0
CIRCLE
  5
202
330
1F
100
AcDbEntity
  8
DEFAULT
100
AcDbCircle
 10
4442.045631737499
 20
217.3785776777813
 30
0.0000000000000104
 40
1.5
  0
CIRCLE
  5
203
330
1F
100
AcDbEntity
  8
DEFAULT
100
AcDbCircle
 10
4322.045631737499
 20
217.3785776777822
 30
0.0000000000000104
 40
1.5
  0
CIRCLE
  5
204
330
1F
100
AcDbEntity
  8
DEFAULT
100
AcDbCircle
 10
4322.045631737499
 20
230.3785776777814
 30
0.0000000000000104
 40
1.5
  0
CIRCLE
  5
205
330
1F
100
AcDbEntity
  8
DEFAULT
100
AcDbCircle
 10
4202.045631737499
 20
217.3785776777813
 30
0.0000000000000104
 40
1.5
  0
CIRCLE
  5
206
330
1F
100
AcDbEntity
  8
DEFAULT
100
AcDbCircle
 10
4202.045631737499
 20
230.3785776777813
 30
0.0000000000000104
 40
1.5
  0
LINE
  5
207
330
1F
100
AcDbEntity
  8
DEFAULT
100
AcDbLine
 10
4310.690711322181
 20
315.4459473996524
 30
0.0
 11
4301.287431041936
 21
307.9908605476342
 31
0.0
  0
LINE
  5
208
330
1F
100
AcDbEntity
  8
DEFAULT
100
AcDbLine
 10
4301.287431041936
 20
307.9908605476342
 30
0.0
 11
4297.87051623476
 21
312.3006973427471
 31
0.0
  0
LINE
  5
209
330
1F
100
AcDbEntity
  8
DEFAULT
100
AcDbLine
 10
4297.87051623476
 20
312.3006973427471
 30
0.0
 11
4307.273796515006
 21
319.7557841947653
 31
0.0
  0
LINE
  5
20A
330
1F
100
AcDbEntity
  8
DEFAULT
100
AcDbLine
 10
4307.273796515006
 20
319.7557841947653
 30
0.0
 11
4310.690711322181
 21
315.4459473996524
 31
0.0
  0
LINE
  5
20B
330
1F
100
AcDbEntity
  8
DEFAULT
100
AcDbLine
 10
4326.080357075498
 20
334.6659578988018
 30
0.0
 11
4329.497271882674
 21
330.3561211036891
 31
0.0
  0
LINE
  5
20C
330
1F
100
AcDbEntity
  8
DEFAULT
100
AcDbLine
 10
4329.497271882674
 20
330.3561211036891
 30
0.0
 11
4320.093991602427
 21
322.9010342516709
 31
0.0
  0
LINE
  5
20D
330
1F
100
AcDbEntity
  8
DEFAULT
100
AcDbLine
 10
4320.093991602427
 20
322.9010342516709
 30
0.0
 11
4316.677076795253
 21
327.2108710467836
 31
0.0
  0
LINE
  5
20E
330
1F
100
AcDbEntity
  8
DEFAULT
100
AcDbLine
 10
4316.677076795253
 20
327.2108710467836
 30
0.0
 11
4326.080357075498
 21
334.6659578988018
 31
0.0
  0
LINE
  5
20F
330
1F
100
AcDbEntity
  8
DEFAULT
100
AcDbLine
 10
4373.09675847673
 20
371.9413921588931
 30
0.0
 11
4382.500038756974
 21
379.3964790109113
 31
0.0
  0
LINE
  5
210
330
1F
100
AcDbEntity
  8
DEFAULT
100
AcDbLine
 10
4382.500038756974
 20
379.3964790109113
 30
0.0
 11
4385.91695356415
 21
375.0866422157983
 31
0.0
  0
LINE
  5
211
330
1F
100
AcDbEntity
  8
DEFAULT
100
AcDbLine
 10
4385.91695356415
 20
375.0866422157983
 30
0.0
 11
4376.513673283904
 21
367.6315553637801
 31
0.0
  0
LINE
  5
212
330
1F
100
AcDbEntity
  8
DEFAULT
100
AcDbLine
 10
4376.513673283904
 20
367.6315553637801
 30
0.0
 11
4373.09675847673
 21
371.9413921588931
 31
0.0
  0
LINE
  5
213
330
1F
100
AcDbEntity
  8
DEFAULT
100
AcDbLine
 10
4269.660675394021
 20
289.9354367866925
 30
0.0
 11
4273.077590201197
 21
285.6255999915796
 31
0.0
  0
LINE
  5
214
330
1F
100
AcDbEntity
  8
DEFAULT
100
AcDbLine
 10
4273.077590201197
 20
285.6255999915796
 30
0.0
 11
4263.674309920951
 21
278.1705131395614
 31
0.0
  0
LINE
  5
215
330
1F
100
AcDbEntity
  8
DEFAULT
100
AcDbLine
 10
4263.674309920951
 20
278.1705131395614
 30
0.0
 11
4260.257395113777
 21
282.4803499346741
 31
0.0
  0
LINE
  5
216
330
1F
100
AcDbEntity
  8
DEFAULT
100
AcDbLine
 10
4260.257395113777
 20
282.4803499346741
 30
0.0
 11
4269.660675394021
 21
289.9354367866925
 31
0.0
  0
LINE
  5
217
330
1F
100
AcDbEntity
  8
DEFAULT
100
AcDbLine
 10
4241.450834553283
 20
267.5701762306376
 30
0.0
 11
4250.85411483353
 21
275.0252630826558
 31
0.0
  0
LINE
  5
218
330
1F
100
AcDbEntity
  8
DEFAULT
100
AcDbLine
 10
4250.85411483353
 20
275.0252630826558
 30
0.0
 11
4254.271029640705
 21
270.7154262875432
 31
0.0
  0
LINE
  5
219
330
1F
100
AcDbEntity
  8
DEFAULT
100
AcDbLine
 10
4254.271029640705
 20
270.7154262875432
 30
0.0
 11
4244.867749360459
 21
263.2603394355249
 31
0.0
  0
LINE
  5
21A
330
1F
100
AcDbEntity
  8
DEFAULT
100
AcDbLine
 10
4244.867749360459
 20
263.2603394355249
 30
0.0
 11
4241.450834553283
 21
267.5701762306376
 31
0.0
  0
LINE
  5
21B
330
1F
100
AcDbEntity
  8
DEFAULT
100
AcDbLine
 10
4391.903319037221
 20
386.8515658629295
 30
0.0
 11
4401.306599317468
 21
394.3066527149477
 31
0.0
  0
LINE
  5
21C
330
1F
100
AcDbEntity
  8
DEFAULT
100
AcDbLine
 10
4401.306599317468
 20
394.3066527149477
 30
0.0
 11
4404.723514124642
 21
389.9968159198348
 31
0.0
  0
LINE
  5
21D
330
1F
100
AcDbEntity
  8
DEFAULT
100
AcDbLine
 10
4404.723514124642
 20
389.9968159198348
 30
0.0
 11
4395.320233844396
 21
382.5417290678166
 31
0.0
  0
LINE
  5
21E
330
1F
100
AcDbEntity
  8
DEFAULT
100
AcDbLine
 10
4395.320233844396
 20
382.5417290678166
 30
0.0
 11
4391.903319037221
 21
386.8515658629295
 31
0.0
  0
LINE
  5
21F
330
1F
100
AcDbEntity
  8
DEFAULT
100
AcDbLine
 10
4288.467235954515
 20
304.8456104907289
 30
0.0
 11
4291.884150761689
 21
300.535773695616
 31
0.0
  0
LINE
  5
220
330
1F
100
AcDbEntity
  8
DEFAULT
100
AcDbLine
 10
4291.884150761689
 20
300.535773695616
 30
0.0
 11
4282.480870481443
 21
293.0806868435978
 31
0.0
  0
LINE
  5
221
330
1F
100
AcDbEntity
  8
DEFAULT
100
AcDbLine
 10
4282.480870481443
 20
293.0806868435978
 30
0.0
 11
4279.063955674268
 21
297.3905236387107
 31
0.0
  0
LINE
  5
222
330
1F
100
AcDbEntity
  8
DEFAULT
100
AcDbLine
 10
4279.063955674268
 20
297.3905236387107
 30
0.0
 11
4288.467235954515
 21
304.8456104907289
 31
0.0
  0
LINE
  5
223
330
1F
100
AcDbEntity
  8
DEFAULT
100
AcDbLine
 10
4363.693478196483
 20
364.4863053068746
 30
0.0
 11
4367.110393003658
 21
360.1764685117619
 31
0.0
  0
LINE
  5
224
330
1F
100
AcDbEntity
  8
DEFAULT
100
AcDbLine
 10
4367.110393003658
 20
360.1764685117619
 30
0.0
 11
4357.707112723412
 21
352.7213816597437
 31
0.0
  0
LINE
  5
225
330
1F
100
AcDbEntity
  8
DEFAULT
100
AcDbLine
 10
4357.707112723412
 20
352.7213816597437
 30
0.0
 11
4354.290197916236
 21
357.0312184548564
 31
0.0
  0
LINE
  5
226
330
1F
100
AcDbEntity
  8
DEFAULT
100
AcDbLine
 10
4354.290197916236
 20
357.0312184548564
 30
0.0
 11
4363.693478196483
 21
364.4863053068746
 31
0.0
  0
LINE
  5
227
330
1F
100
AcDbEntity
  8
DEFAULT
100
AcDbLine
 10
4344.886917635991
 20
349.5761316028382
 30
0.0
 11
4348.303832443165
 21
345.2662948077255
 31
0.0
  0
LINE
  5
228
330
1F
100
AcDbEntity
  8
DEFAULT
100
AcDbLine
 10
4348.303832443165
 20
345.2662948077255
 30
0.0
 11
4338.90055216292
 21
337.8112079557073
 31
0.0
  0
LINE
  5
229
330
1F
100
AcDbEntity
  8
DEFAULT
100
AcDbLine
 10
4338.90055216292
 20
337.8112079557073
 30
0.0
 11
4335.483637355745
 21
342.12104475082
 31
0.0
  0
LINE
  5
22A
330
1F
100
AcDbEntity
  8
DEFAULT
100
AcDbLine
 10
4335.483637355745
 20
342.12104475082
 30
0.0
 11
4344.886917635991
 21
349.5761316028382
 31
0.0
  0
CIRCLE
  5
22B
330
1F
100
AcDbEntity
  8
DEFAULT
100
AcDbCircle
 10
4392.545631741963
 20
508.3199137409506
 30
0.0
 40
1.5
  0
CIRCLE
  5
22C
330
1F
100
AcDbEntity
  8
DEFAULT
100
AcDbCircle
 10
4392.545631741963
 20
556.3199137409506
 30
0.0
 40
1.5
  0
CIRCLE
  5
22D
330
1F
100
AcDbEntity
  8
DEFAULT
100
AcDbCircle
 10
4231.545631741963
 20
525.678339155316
 30
0.0
 40
1.5
  0
CIRCLE
  5
22E
330
1F
100
AcDbEntity
  8
DEFAULT
100
AcDbCircle
 10
4231.545631741963
 20
597.678339155316
 30
0.0
 40
1.5
  0
LINE
  5
22F
330
1F
100
AcDbEntity
  8
DEFAULT
100
AcDbLine
 10
4208.665631741964
 20
467.4283391553151
 30
0.0
 11
4203.365631741964
 21
467.4283391553151
 31
0.0
  0
LINE
  5
230
330
1F
100
AcDbEntity
  8
DEFAULT
100
AcDbLine
 10
4203.365631741964
 20
467.4283391553151
 30
0.0
 11
4203.365631741964
 21
479.4283391553151
 31
0.0
  0
LINE
  5
231
330
1F
100
AcDbEntity
  8
DEFAULT
100
AcDbLine
 10
4203.365631741964
 20
479.4283391553151
 30
0.0
 11
4208.665631741964
 21
479.4283391553151
 31
0.0
  0
LINE
  5
232
330
1F
100
AcDbEntity
  8
DEFAULT
100
AcDbLine
 10
4208.665631741964
 20
479.4283391553151
 30
0.0
 11
4208.665631741964
 21
467.4283391553151
 31
0.0
  0
LINE
  5
233
330
1F
100
AcDbEntity
  8
DEFAULT
100
AcDbLine
 10
4208.665631741964
 20
503.1783391553151
 30
0.0
 11
4208.665631741964
 21
491.1783391553151
 31
0.0
  0
LINE
  5
234
330
1F
100
AcDbEntity
  8
DEFAULT
100
AcDbLine
 10
4208.665631741964
 20
491.1783391553151
 30
0.0
 11
4203.365631741964
 21
491.1783391553151
 31
0.0
  0
LINE
  5
235
330
1F
100
AcDbEntity
  8
DEFAULT
100
AcDbLine
 10
4203.365631741964
 20
491.1783391553151
 30
0.0
 11
4203.365631741964
 21
503.1783391553151
 31
0.0
  0
LINE
  5
236
330
1F
100
AcDbEntity
  8
DEFAULT
100
AcDbLine
 10
4203.365631741964
 20
503.1783391553151
 30
0.0
 11
4208.665631741964
 21
503.1783391553151
 31
0.0
  0
LINE
  5
237
330
1F
100
AcDbEntity
  8
DEFAULT
100
AcDbLine
 10
4203.365631741964
 20
515.1783391553151
 30
0.0
 11
4203.365631741964
 21
527.1783391553151
 31
0.0
  0
LINE
  5
238
330
1F
100
AcDbEntity
  8
DEFAULT
100
AcDbLine
 10
4203.365631741964
 20
527.1783391553151
 30
0.0
 11
4208.665631741964
 21
527.1783391553151
 31
0.0
  0
LINE
  5
239
330
1F
100
AcDbEntity
  8
DEFAULT
100
AcDbLine
 10
4208.665631741964
 20
527.1783391553151
 30
0.0
 11
4208.665631741964
 21
515.1783391553151
 31
0.0
  0
LINE
  5
23A
330
1F
100
AcDbEntity
  8
DEFAULT
100
AcDbLine
 10
4208.665631741964
 20
515.1783391553151
 30
0.0
 11
4203.365631741964
 21
515.1783391553151
 31
0.0
  0
LINE
  5
23B
330
1F
100
AcDbEntity
  8
DEFAULT
100
AcDbLine
 10
4208.665631741964
 20
539.1783391553151
 30
0.0
 11
4203.365631741964
 21
539.1783391553151
 31
0.0
  0
LINE
  5
23C
330
1F
100
AcDbEntity
  8
DEFAULT
100
AcDbLine
 10
4203.365631741964
 20
539.1783391553151
 30
0.0
 11
4203.365631741964
 21
551.1783391553151
 31
0.0
  0
LINE
  5
23D
330
1F
100
AcDbEntity
  8
DEFAULT
100
AcDbLine
 10
4203.365631741964
 20
551.1783391553151
 30
0.0
 11
4208.665631741964
 21
551.1783391553151
 31
0.0
  0
LINE
  5
23E
330
1F
100
AcDbEntity
  8
DEFAULT
100
AcDbLine
 10
4208.665631741964
 20
551.1783391553151
 30
0.0
 11
4208.665631741964
 21
539.1783391553151
 31
0.0
  0
LINE
  5
23F
330
1F
100
AcDbEntity
  8
DEFAULT
100
AcDbLine
 10
4420.695631741963
 20
496.4283391553151
 30
0.0
 11
4415.395631741962
 21
496.4283391553151
 31
0.0
  0
LINE
  5
240
330
1F
100
AcDbEntity
  8
DEFAULT
100
AcDbLine
 10
4415.395631741962
 20
496.4283391553151
 30
0.0
 11
4415.395631741962
 21
484.4283391553151
 31
0.0
  0
LINE
  5
241
330
1F
100
AcDbEntity
  8
DEFAULT
100
AcDbLine
 10
4415.395631741962
 20
484.4283391553151
 30
0.0
 11
4420.695631741963
 21
484.4283391553151
 31
0.0
  0
LINE
  5
242
330
1F
100
AcDbEntity
  8
DEFAULT
100
AcDbLine
 10
4420.695631741963
 20
484.4283391553151
 30
0.0
 11
4420.695631741963
 21
496.4283391553151
 31
0.0
  0
LINE
  5
243
330
1F
100
AcDbEntity
  8
DEFAULT
100
AcDbLine
 10
4228.895631741962
 20
507.6783391553161
 30
0.0
 11
4228.895631741962
 21
519.678339155316
 31
0.0
  0
LINE
  5
244
330
1F
100
AcDbEntity
  8
DEFAULT
100
AcDbLine
 10
4228.895631741962
 20
519.678339155316
 30
0.0
 11
4234.195631741963
 21
519.678339155316
 31
0.0
  0
LINE
  5
245
330
1F
100
AcDbEntity
  8
DEFAULT
100
AcDbLine
 10
4234.195631741963
 20
519.678339155316
 30
0.0
 11
4234.195631741963
 21
507.6783391553161
 31
0.0
  0
LINE
  5
246
330
1F
100
AcDbEntity
  8
DEFAULT
100
AcDbLine
 10
4234.195631741963
 20
507.6783391553161
 30
0.0
 11
4228.895631741962
 21
507.6783391553161
 31
0.0
  0
LINE
  5
247
330
1F
100
AcDbEntity
  8
DEFAULT
100
AcDbLine
 10
4415.395631741962
 20
592.4283391553151
 30
0.0
 11
4415.395631741962
 21
580.4283391553151
 31
0.0
  0
LINE
  5
248
330
1F
100
AcDbEntity
  8
DEFAULT
100
AcDbLine
 10
4415.395631741962
 20
580.4283391553151
 30
0.0
 11
4420.695631741963
 21
580.4283391553151
 31
0.0
  0
LINE
  5
249
330
1F
100
AcDbEntity
  8
DEFAULT
100
AcDbLine
 10
4420.695631741963
 20
580.4283391553151
 30
0.0
 11
4420.695631741963
 21
592.4283391553151
 31
0.0
  0
LINE
  5
24A
330
1F
100
AcDbEntity
  8
DEFAULT
100
AcDbLine
 10
4420.695631741963
 20
592.4283391553151
 30
0.0
 11
4415.395631741962
 21
592.4283391553151
 31
0.0
  0
LINE
  5
24B
330
1F
100
AcDbEntity
  8
DEFAULT
100
AcDbLine
 10
4208.665631741964
 20
575.1811262819933
 30
0.0
 11
4208.665631741964
 21
563.1811262819933
 31
0.0
  0
LINE
  5
24C
330
1F
100
AcDbEntity
  8
DEFAULT
100
AcDbLine
 10
4208.665631741964
 20
563.1811262819933
 30
0.0
 11
4203.365631741964
 21
563.1811262819933
 31
0.0
  0
LINE
  5
24D
330
1F
100
AcDbEntity
  8
DEFAULT
100
AcDbLine
 10
4203.365631741964
 20
563.1811262819933
 30
0.0
 11
4203.365631741964
 21
575.1811262819933
 31
0.0
  0
LINE
  5
24E
330
1F
100
AcDbEntity
  8
DEFAULT
100
AcDbLine
 10
4203.365631741964
 20
575.1811262819933
 30
0.0
 11
4208.665631741964
 21
575.1811262819933
 31
0.0
  0
LINE
  5
24F
330
1F
100
AcDbEntity
  8
DEFAULT
100
AcDbLine
 10
4228.895631741962
 20
579.678339155316
 30
0.0
 11
4228.895631741962
 21
591.678339155316
 31
0.0
  0
LINE
  5
250
330
1F
100
AcDbEntity
  8
DEFAULT
100
AcDbLine
 10
4228.895631741962
 20
591.678339155316
 30
0.0
 11
4234.195631741963
 21
591.678339155316
 31
0.0
  0
LINE
  5
251
330
1F
100
AcDbEntity
  8
DEFAULT
100
AcDbLine
 10
4234.195631741963
 20
591.678339155316
 30
0.0
 11
4234.195631741963
 21
579.678339155316
 31
0.0
  0
LINE
  5
252
330
1F
100
AcDbEntity
  8
DEFAULT
100
AcDbLine
 10
4234.195631741963
 20
579.678339155316
 30
0.0
 11
4228.895631741962
 21
579.678339155316
 31
0.0
  0
LINE
  5
253
330
1F
100
AcDbEntity
  8
DEFAULT
100
AcDbLine
 10
4395.195631741964
 20
574.3199137409506
 30
0.0
 11
4395.195631741964
 21
562.3199137409506
 31
0.0
  0
LINE
  5
254
330
1F
100
AcDbEntity
  8
DEFAULT
100
AcDbLine
 10
4395.195631741964
 20
562.3199137409506
 30
0.0
 11
4389.895631741963
 21
562.3199137409506
 31
0.0
  0
LINE
  5
255
330
1F
100
AcDbEntity
  8
DEFAULT
100
AcDbLine
 10
4389.895631741963
 20
562.3199137409506
 30
0.0
 11
4389.895631741963
 21
574.3199137409506
 31
0.0
  0
LINE
  5
256
330
1F
100
AcDbEntity
  8
DEFAULT
100
AcDbLine
 10
4389.895631741963
 20
574.3199137409506
 30
0.0
 11
4395.195631741964
 21
574.3199137409506
 31
0.0
  0
LINE
  5
257
330
1F
100
AcDbEntity
  8
DEFAULT
100
AcDbLine
 10
4389.895631741963
 20
526.3199137409506
 30
0.0
 11
4395.195631741964
 21
526.3199137409506
 31
0.0
  0
LINE
  5
258
330
1F
100
AcDbEntity
  8
DEFAULT
100
AcDbLine
 10
4395.195631741964
 20
526.3199137409506
 30
0.0
 11
4395.195631741964
 21
514.3199137409506
 31
0.0
  0
LINE
  5
259
330
1F
100
AcDbEntity
  8
DEFAULT
100
AcDbLine
 10
4395.195631741964
 20
514.3199137409506
 30
0.0
 11
4389.895631741963
 21
514.3199137409506
 31
0.0
  0
LINE
  5
25A
330
1F
100
AcDbEntity
  8
DEFAULT
100
AcDbLine
 10
4389.895631741963
 20
514.3199137409506
 30
0.0
 11
4389.895631741963
 21
526.3199137409506
 31
0.0
  0
LINE
  5
25B
330
1F
100
AcDbEntity
  8
DEFAULT
100
AcDbLine
 10
4420.695631741963
 20
616.4283391553151
 30
0.0
 11
4415.395631741962
 21
616.4283391553151
 31
0.0
  0
LINE
  5
25C
330
1F
100
AcDbEntity
  8
DEFAULT
100
AcDbLine
 10
4415.395631741962
 20
616.4283391553151
 30
0.0
 11
4415.395631741962
 21
604.4283391553151
 31
0.0
  0
LINE
  5
25D
330
1F
100
AcDbEntity
  8
DEFAULT
100
AcDbLine
 10
4415.395631741962
 20
604.4283391553151
 30
0.0
 11
4420.695631741963
 21
604.4283391553151
 31
0.0
  0
LINE
  5
25E
330
1F
100
AcDbEntity
  8
DEFAULT
100
AcDbLine
 10
4420.695631741963
 20
604.4283391553151
 30
0.0
 11
4420.695631741963
 21
616.4283391553151
 31
0.0
  0
LINE
  5
25F
330
1F
100
AcDbEntity
  8
DEFAULT
100
AcDbLine
 10
4234.195631741963
 20
603.678339155316
 30
0.0
 11
4228.895631741962
 21
603.678339155316
 31
0.0
  0
LINE
  5
260
330
1F
100
AcDbEntity
  8
DEFAULT
100
AcDbLine
 10
4228.895631741962
 20
603.678339155316
 30
0.0
 11
4228.895631741962
 21
615.678339155316
 31
0.0
  0
LINE
  5
261
330
1F
100
AcDbEntity
  8
DEFAULT
100
AcDbLine
 10
4228.895631741962
 20
615.678339155316
 30
0.0
 11
4234.195631741963
 21
615.678339155316
 31
0.0
  0
LINE
  5
262
330
1F
100
AcDbEntity
  8
DEFAULT
100
AcDbLine
 10
4234.195631741963
 20
615.678339155316
 30
0.0
 11
4234.195631741963
 21
603.678339155316
 31
0.0
  0
LINE
  5
263
330
1F
100
AcDbEntity
  8
DEFAULT
100
AcDbLine
 10
4420.695631741963
 20
472.4283391553151
 30
0.0
 11
4415.395631741962
 21
472.4283391553151
 31
0.0
  0
LINE
  5
264
330
1F
100
AcDbEntity
  8
DEFAULT
100
AcDbLine
 10
4415.395631741962
 20
472.4283391553151
 30
0.0
 11
4415.395631741962
 21
460.4283391553151
 31
0.0
  0
LINE
  5
265
330
1F
100
AcDbEntity
  8
DEFAULT
100
AcDbLine
 10
4415.395631741962
 20
460.4283391553151
 30
0.0
 11
4420.695631741963
 21
460.4283391553151
 31
0.0
  0
LINE
  5
266
330
1F
100
AcDbEntity
  8
DEFAULT
100
AcDbLine
 10
4420.695631741963
 20
460.4283391553151
 30
0.0
 11
4420.695631741963
 21
472.4283391553151
 31
0.0
  0
LINE
  5
267
330
1F
100
AcDbEntity
  8
DEFAULT
100
AcDbLine
 10
4420.695631741963
 20
544.4283391553151
 30
0.0
 11
4415.395631741962
 21
544.4283391553151
 31
0.0
  0
LINE
  5
268
330
1F
100
AcDbEntity
  8
DEFAULT
100
AcDbLine
 10
4415.395631741962
 20
544.4283391553151
 30
0.0
 11
4415.395631741962
 21
532.4283391553151
 31
0.0
  0
LINE
  5
269
330
1F
100
AcDbEntity
  8
DEFAULT
100
AcDbLine
 10
4415.395631741962
 20
532.4283391553151
 30
0.0
 11
4420.695631741963
 21
532.4283391553151
 31
0.0
  0
LINE
  5
26A
330
1F
100
AcDbEntity
  8
DEFAULT
100
AcDbLine
 10
4420.695631741963
 20
532.4283391553151
 30
0.0
 11
4420.695631741963
 21
544.4283391553151
 31
0.0
  0
LINE
  5
26B
330
1F
100
AcDbEntity
  8
DEFAULT
100
AcDbLine
 10
4203.365631741964
 20
587.1783391553151
 30
0.0
 11
4203.365631741964
 21
599.1783391553151
 31
0.0
  0
LINE
  5
26C
330
1F
100
AcDbEntity
  8
DEFAULT
100
AcDbLine
 10
4203.365631741964
 20
599.1783391553151
 30
0.0
 11
4208.665631741964
 21
599.1783391553151
 31
0.0
  0
LINE
  5
26D
330
1F
100
AcDbEntity
  8
DEFAULT
100
AcDbLine
 10
4208.665631741964
 20
599.1783391553151
 30
0.0
 11
4208.665631741964
 21
587.1783391553151
 31
0.0
  0
LINE
  5
26E
330
1F
100
AcDbEntity
  8
DEFAULT
100
AcDbLine
 10
4208.665631741964
 20
587.1783391553151
 30
0.0
 11
4203.365631741964
 21
587.1783391553151
 31
0.0
  0
LINE
  5
26F
330
1F
100
AcDbEntity
  8
DEFAULT
100
AcDbLine
 10
4420.695631741963
 20
508.4283391553151
 30
0.0
 11
4415.395631741962
 21
508.4283391553151
 31
0.0
  0
LINE
  5
270
330
1F
100
AcDbEntity
  8
DEFAULT
100
AcDbLine
 10
4415.395631741962
 20
508.4283391553151
 30
0.0
 11
4415.395631741962
 21
520.4283391553151
 31
0.0
  0
LINE
  5
271
330
1F
100
AcDbEntity
  8
DEFAULT
100
AcDbLine
 10
4415.395631741962
 20
520.4283391553151
 30
0.0
 11
4420.695631741963
 21
520.4283391553151
 31
0.0
  0
LINE
  5
272
330
1F
100
AcDbEntity
  8
DEFAULT
100
AcDbLine
 10
4420.695631741963
 20
520.4283391553151
 30
0.0
 11
4420.695631741963
 21
508.4283391553151
 31
0.0
  0
LINE
  5
273
330
1F
100
AcDbEntity
  8
DEFAULT
100
AcDbLine
 10
4389.895631741963
 20
490.3199137409506
 30
0.0
 11
4389.895631741963
 21
502.3199137409506
 31
0.0
  0
LINE
  5
274
330
1F
100
AcDbEntity
  8
DEFAULT
100
AcDbLine
 10
4389.895631741963
 20
502.3199137409506
 30
0.0
 11
4395.195631741964
 21
502.3199137409506
 31
0.0
  0
LINE
  5
275
330
1F
100
AcDbEntity
  8
DEFAULT
100
AcDbLine
 10
4395.195631741964
 20
502.3199137409506
 30
0.0
 11
4395.195631741964
 21
490.3199137409506
 31
0.0
  0
LINE
  5
276
330
1F
100
AcDbEntity
  8
DEFAULT
100
AcDbLine
 10
4395.195631741964
 20
490.3199137409506
 30
0.0
 11
4389.895631741963
 21
490.3199137409506
 31
0.0
  0
LINE
  5
277
330
1F
100
AcDbEntity
  8
DEFAULT
100
AcDbLine
 10
4228.895631741962
 20
543.678339155316
 30
0.0
 11
4234.195631741963
 21
543.678339155316
 31
0.0
  0
LINE
  5
278
330
1F
100
AcDbEntity
  8
DEFAULT
100
AcDbLine
 10
4234.195631741963
 20
543.678339155316
 30
0.0
 11
4234.195631741963
 21
531.678339155316
 31
0.0
  0
LINE
  5
279
330
1F
100
AcDbEntity
  8
DEFAULT
100
AcDbLine
 10
4234.195631741963
 20
531.678339155316
 30
0.0
 11
4228.895631741962
 21
531.678339155316
 31
0.0
  0
LINE
  5
27A
330
1F
100
AcDbEntity
  8
DEFAULT
100
AcDbLine
 10
4228.895631741962
 20
531.678339155316
 30
0.0
 11
4228.895631741962
 21
543.678339155316
 31
0.0
  0
LINE
  5
27B
330
1F
100
AcDbEntity
  8
DEFAULT
100
AcDbLine
 10
4228.895631741962
 20
567.678339155316
 30
0.0
 11
4234.195631741963
 21
567.678339155316
 31
0.0
  0
LINE
  5
27C
330
1F
100
AcDbEntity
  8
DEFAULT
100
AcDbLine
 10
4234.195631741963
 20
567.678339155316
 30
0.0
 11
4234.195631741963
 21
555.678339155316
 31
0.0
  0
LINE
  5
27D
330
1F
100
AcDbEntity
  8
DEFAULT
100
AcDbLine
 10
4234.195631741963
 20
555.678339155316
 30
0.0
 11
4228.895631741962
 21
555.678339155316
 31
0.0
  0
LINE
  5
27E
330
1F
100
AcDbEntity
  8
DEFAULT
100
AcDbLine
 10
4228.895631741962
 20
555.678339155316
 30
0.0
 11
4228.895631741962
 21
567.678339155316
 31
0.0
  0
LINE
  5
27F
330
1F
100
AcDbEntity
  8
DEFAULT
100
AcDbLine
 10
4420.695631741963
 20
556.4283391553151
 30
0.0
 11
4415.395631741962
 21
556.4283391553151
 31
0.0
  0
LINE
  5
280
330
1F
100
AcDbEntity
  8
DEFAULT
100
AcDbLine
 10
4415.395631741962
 20
556.4283391553151
 30
0.0
 11
4415.395631741962
 21
568.4283391553151
 31
0.0
  0
LINE
  5
281
330
1F
100
AcDbEntity
  8
DEFAULT
100
AcDbLine
 10
4415.395631741962
 20
568.4283391553151
 30
0.0
 11
4420.695631741963
 21
568.4283391553151
 31
0.0
  0
LINE
  5
282
330
1F
100
AcDbEntity
  8
DEFAULT
100
AcDbLine
 10
4420.695631741963
 20
568.4283391553151
 30
0.0
 11
4420.695631741963
 21
556.4283391553151
 31
0.0
  0
LINE
  5
283
330
1F
100
AcDbEntity
  8
DEFAULT
100
AcDbLine
 10
4395.195631741964
 20
538.3199137409506
 30
0.0
 11
4389.895631741963
 21
538.3199137409506
 31
0.0
  0
LINE
  5
284
330
1F
100
AcDbEntity
  8
DEFAULT
100
AcDbLine
 10
4389.895631741963
 20
538.3199137409506
 30
0.0
 11
4389.895631741963
 21
550.3199137409506
 31
0.0
  0
LINE
  5
285
330
1F
100
AcDbEntity
  8
DEFAULT
100
AcDbLine
 10
4389.895631741963
 20
550.3199137409506
 30
0.0
 11
4395.195631741964
 21
550.3199137409506
 31
0.0
  0
LINE
  5
286
330
1F
100
AcDbEntity
  8
DEFAULT
100
AcDbLine
 10
4395.195631741964
 20
550.3199137409506
 30
0.0
 11
4395.195631741964
 21
538.3199137409506
 31
0.0
  0
LINE
  5
287
330
1F
100
AcDbEntity
  8
DEFAULT
100
AcDbLine
 10
4424.045631737499
 20
628.4283391553151
 30
0.0
 11
4412.045631737499
 21
628.4283391553151
 31
0.0
  0
LINE
  5
288
330
1F
100
AcDbEntity
  8
DEFAULT
100
AcDbLine
 10
4412.045631737499
 20
628.4283391553151
 30
0.0
 11
4412.045631737499
 21
622.9283391553151
 31
0.0
  0
LINE
  5
289
330
1F
100
AcDbEntity
  8
DEFAULT
100
AcDbLine
 10
4412.045631737499
 20
622.9283391553151
 30
0.0
 11
4400.045631737499
 21
622.9283391553151
 31
0.0
  0
LINE
  5
28A
330
1F
100
AcDbEntity
  8
DEFAULT
100
AcDbLine
 10
4400.045631737499
 20
622.9283391553151
 30
0.0
 11
4400.045631737499
 21
628.4283391553151
 31
0.0
  0
LINE
  5
28B
330
1F
100
AcDbEntity
  8
DEFAULT
100
AcDbLine
 10
4400.045631737499
 20
628.4283391553151
 30
0.0
 11
4388.045631737499
 21
628.4283391553151
 31
0.0
  0
LINE
  5
28C
330
1F
100
AcDbEntity
  8
DEFAULT
100
AcDbLine
 10
4388.045631737499
 20
628.4283391553151
 30
0.0
 11
4388.045631737499
 21
622.9283391553151
 31
0.0
  0
LINE
  5
28D
330
1F
100
AcDbEntity
  8
DEFAULT
100
AcDbLine
 10
4388.045631737499
 20
622.9283391553151
 30
0.0
 11
4376.045631737499
 21
622.9283391553151
 31
0.0
  0
LINE
  5
28E
330
1F
100
AcDbEntity
  8
DEFAULT
100
AcDbLine
 10
4376.045631737499
 20
622.9283391553151
 30
0.0
 11
4376.045631737499
 21
628.4283391553151
 31
0.0
  0
LINE
  5
28F
330
1F
100
AcDbEntity
  8
DEFAULT
100
AcDbLine
 10
4376.045631737499
 20
628.4283391553151
 30
0.0
 11
4364.045631737499
 21
628.4283391553151
 31
0.0
  0
LINE
  5
290
330
1F
100
AcDbEntity
  8
DEFAULT
100
AcDbLine
 10
4364.045631737499
 20
628.4283391553151
 30
0.0
 11
4364.045631737499
 21
622.9283391553151
 31
0.0
  0
LINE
  5
291
330
1F
100
AcDbEntity
  8
DEFAULT
100
AcDbLine
 10
4364.045631737499
 20
622.9283391553151
 30
0.0
 11
4352.045631737499
 21
622.9283391553151
 31
0.0
  0
LINE
  5
292
330
1F
100
AcDbEntity
  8
DEFAULT
100
AcDbLine
 10
4352.045631737499
 20
622.9283391553151
 30
0.0
 11
4352.045631737499
 21
628.4283391553151
 31
0.0
  0
LINE
  5
293
330
1F
100
AcDbEntity
  8
DEFAULT
100
AcDbLine
 10
4352.045631737499
 20
628.4283391553151
 30
0.0
 11
4340.045631737499
 21
628.4283391553151
 31
0.0
  0
LINE
  5
294
330
1F
100
AcDbEntity
  8
DEFAULT
100
AcDbLine
 10
4340.045631737499
 20
628.4283391553151
 30
0.0
 11
4340.045631737499
 21
622.9283391553151
 31
0.0
  0
LINE
  5
295
330
1F
100
AcDbEntity
  8
DEFAULT
100
AcDbLine
 10
4340.045631737499
 20
622.9283391553151
 30
0.0
 11
4328.045631737499
 21
622.9283391553151
 31
0.0
  0
LINE
  5
296
330
1F
100
AcDbEntity
  8
DEFAULT
100
AcDbLine
 10
4328.045631737499
 20
622.9283391553151
 30
0.0
 11
4328.045631737499
 21
628.4283391553151
 31
0.0
  0
LINE
  5
297
330
1F
100
AcDbEntity
  8
DEFAULT
100
AcDbLine
 10
4328.045631737499
 20
628.4283391553151
 30
0.0
 11
4316.045631737499
 21
628.4283391553151
 31
0.0
  0
LINE
  5
298
330
1F
100
AcDbEntity
  8
DEFAULT
100
AcDbLine
 10
4316.045631737499
 20
628.4283391553151
 30
0.0
 11
4316.045631737499
 21
622.9283391553151
 31
0.0
  0
LINE
  5
299
330
1F
100
AcDbEntity
  8
DEFAULT
100
AcDbLine
 10
4316.045631737499
 20
622.9283391553151
 30
0.0
 11
4304.045631737499
 21
622.9283391553151
 31
0.0
  0
LINE
  5
29A
330
1F
100
AcDbEntity
  8
DEFAULT
100
AcDbLine
 10
4304.045631737499
 20
622.9283391553151
 30
0.0
 11
4304.045631737499
 21
628.4283391553151
 31
0.0
  0
LINE
  5
29B
330
1F
100
AcDbEntity
  8
DEFAULT
100
AcDbLine
 10
4304.045631737499
 20
628.4283391553151
 30
0.0
 11
4292.045631737499
 21
628.4283391553151
 31
0.0
  0
LINE
  5
29C
330
1F
100
AcDbEntity
  8
DEFAULT
100
AcDbLine
 10
4292.045631737499
 20
628.4283391553151
 30
0.0
 11
4292.045631737499
 21
622.9283391553151
 31
0.0
  0
LINE
  5
29D
330
1F
100
AcDbEntity
  8
DEFAULT
100
AcDbLine
 10
4292.045631737499
 20
622.9283391553151
 30
0.0
 11
4280.045631737499
 21
622.9283391553151
 31
0.0
  0
LINE
  5
29E
330
1F
100
AcDbEntity
  8
DEFAULT
100
AcDbLine
 10
4280.045631737499
 20
622.9283391553151
 30
0.0
 11
4280.045631737499
 21
628.4283391553151
 31
0.0
  0
LINE
  5
29F
330
1F
100
AcDbEntity
  8
DEFAULT
100
AcDbLine
 10
4280.045631737499
 20
628.4283391553151
 30
0.0
 11
4268.045631737499
 21
628.4283391553151
 31
0.0
  0
LINE
  5
2A0
330
1F
100
AcDbEntity
  8
DEFAULT
100
AcDbLine
 10
4268.045631737499
 20
628.4283391553151
 30
0.0
 11
4268.045631737499
 21
622.9283391553151
 31
0.0
  0
LINE
  5
2A1
330
1F
100
AcDbEntity
  8
DEFAULT
100
AcDbLine
 10
4268.045631737499
 20
622.9283391553151
 30
0.0
 11
4256.045631737499
 21
622.9283391553151
 31
0.0
  0
LINE
  5
2A2
330
1F
100
AcDbEntity
  8
DEFAULT
100
AcDbLine
 10
4256.045631737499
 20
622.9283391553151
 30
0.0
 11
4256.045631737499
 21
628.4283391553151
 31
0.0
  0
LINE
  5
2A3
330
1F
100
AcDbEntity
  8
DEFAULT
100
AcDbLine
 10
4256.045631737499
 20
628.4283391553151
 30
0.0
 11
4244.045631737499
 21
628.4283391553151
 31
0.0
  0
LINE
  5
2A4
330
1F
100
AcDbEntity
  8
DEFAULT
100
AcDbLine
 10
4244.045631737499
 20
628.4283391553151
 30
0.0
 11
4244.045631737499
 21
622.9283391553151
 31
0.0
  0
LINE
  5
2A5
330
1F
100
AcDbEntity
  8
DEFAULT
100
AcDbLine
 10
4244.045631737499
 20
622.9283391553151
 30
0.0
 11
4232.045631737499
 21
622.9283391553151
 31
0.0
  0
LINE
  5
2A6
330
1F
100
AcDbEntity
  8
DEFAULT
100
AcDbLine
 10
4232.045631737499
 20
622.9283391553151
 30
0.0
 11
4232.045631737499
 21
628.4283391553151
 31
0.0
  0
LINE
  5
2A7
330
1F
100
AcDbEntity
  8
DEFAULT
100
AcDbLine
 10
4232.045631737499
 20
628.4283391553151
 30
0.0
 11
4220.045631737499
 21
628.4283391553151
 31
0.0
  0
LINE
  5
2A8
330
1F
100
AcDbEntity
  8
DEFAULT
100
AcDbLine
 10
4220.045631737499
 20
628.4283391553151
 30
0.0
 11
4220.045631737499
 21
622.9283391553151
 31
0.0
  0
LINE
  5
2A9
330
1F
100
AcDbEntity
  8
DEFAULT
100
AcDbLine
 10
4220.045631737499
 20
622.9283391553151
 30
0.0
 11
4208.795631741963
 21
622.9283391553151
 31
0.0
  0
LINE
  5
2AA
330
1F
100
AcDbEntity
  8
DEFAULT
100
AcDbLine
 10
4208.795631741963
 20
622.9283391553151
 30
0.0
 11
4208.795631741963
 21
610.9283391553151
 31
0.0
  0
LINE
  5
2AB
330
1F
100
AcDbEntity
  8
DEFAULT
100
AcDbLine
 10
4208.795631741963
 20
610.9283391553151
 30
0.0
 11
4203.235631741964
 21
610.9283391553151
 31
0.0
  0
LINE
  5
2AC
330
1F
100
AcDbEntity
  8
DEFAULT
100
AcDbLine
 10
4203.235631741964
 20
610.9283391553151
 30
0.0
 11
4203.235631741964
 21
622.9283391553151
 31
0.0
  0
LINE
  5
2AD
330
1F
100
AcDbEntity
  8
DEFAULT
100
AcDbLine
 10
4203.235631741964
 20
622.9283391553151
 30
0.0
 11
4184.045631737499
 21
622.9283391553151
 31
0.0
  0
LINE
  5
2AE
330
1F
100
AcDbEntity
  8
DEFAULT
100
AcDbLine
 10
4184.045631737499
 20
622.9283391553151
 30
0.0
 11
4184.045631737499
 21
628.4283391553151
 31
0.0
  0
LINE
  5
2AF
330
1F
100
AcDbEntity
  8
DEFAULT
100
AcDbLine
 10
4184.045631737499
 20
628.4283391553151
 30
0.0
 11
4172.045631737499
 21
628.4283391553151
 31
0.0
  0
LINE
  5
2B0
330
1F
100
AcDbEntity
  8
DEFAULT
100
AcDbLine
 10
4172.045631737499
 20
628.4283391553151
 30
0.0
 11
4172.045631737499
 21
622.9283391553151
 31
0.0
  0
LINE
  5
2B1
330
1F
100
AcDbEntity
  8
DEFAULT
100
AcDbLine
 10
4172.045631737499
 20
622.9283391553151
 30
0.0
 11
4161.295631741963
 21
622.9283391553151
 31
0.0
  0
LINE
  5
2B2
330
1F
100
AcDbEntity
  8
DEFAULT
100
AcDbLine
 10
4161.295631741963
 20
622.9283391553151
 30
0.0
 11
4161.295631741963
 21
574.4283391553149
 31
0.0
  0
LINE
  5
2B3
330
1F
100
AcDbEntity
  8
DEFAULT
100
AcDbLine
 10
4161.295631741963
 20
574.4283391553149
 30
0.0
 11
4166.795631741963
 21
574.4283391553149
 31
0.0
  0
LINE
  5
2B4
330
1F
100
AcDbEntity
  8
DEFAULT
100
AcDbLine
 10
4166.795631741963
 20
574.4283391553149
 30
0.0
 11
4166.795631741963
 21
569.9283391553149
 31
0.0
  0
LINE
  5
2B5
330
1F
100
AcDbEntity
  8
DEFAULT
100
AcDbLine
 10
4166.795631741963
 20
569.9283391553149
 30
0.0
 11
4171.795631741963
 21
569.9283391553149
 31
0.0
  0
LINE
  5
2B6
330
1F
100
AcDbEntity
  8
DEFAULT
100
AcDbLine
 10
4171.795631741963
 20
569.9283391553149
 30
0.0
 11
4171.795631741963
 21
571.1283391553147
 31
0.0
  0
LINE
  5
2B7
330
1F
100
AcDbEntity
  8
DEFAULT
100
AcDbLine
 10
4171.795631741963
 20
571.1283391553147
 30
0.0
 11
4174.195631741963
 21
571.1283391553147
 31
0.0
  0
LINE
  5
2B8
330
1F
100
AcDbEntity
  8
DEFAULT
100
AcDbLine
 10
4174.195631741963
 20
571.1283391553147
 30
0.0
 11
4174.195631741963
 21
569.9283391553149
 31
0.0
  0
LINE
  5
2B9
330
1F
100
AcDbEntity
  8
DEFAULT
100
AcDbLine
 10
4174.195631741963
 20
569.9283391553149
 30
0.0
 11
4176.195631741963
 21
569.9283391553149
 31
0.0
  0
LINE
  5
2BA
330
1F
100
AcDbEntity
  8
DEFAULT
100
AcDbLine
 10
4176.195631741963
 20
569.9283391553149
 30
0.0
 11
4176.195631741963
 21
566.9283391553149
 31
0.0
  0
LINE
  5
2BB
330
1F
100
AcDbEntity
  8
DEFAULT
100
AcDbLine
 10
4176.195631741963
 20
566.9283391553149
 30
0.0
 11
4174.195631741963
 21
566.9283391553149
 31
0.0
  0
LINE
  5
2BC
330
1F
100
AcDbEntity
  8
DEFAULT
100
AcDbLine
 10
4174.195631741963
 20
566.9283391553149
 30
0.0
 11
4174.195631741963
 21
565.7283391553146
 31
0.0
  0
LINE
  5
2BD
330
1F
100
AcDbEntity
  8
DEFAULT
100
AcDbLine
 10
4174.195631741963
 20
565.7283391553146
 30
0.0
 11
4171.795631741963
 21
565.7283391553146
 31
0.0
  0
LINE
  5
2BE
330
1F
100
AcDbEntity
  8
DEFAULT
100
AcDbLine
 10
4171.795631741963
 20
565.7283391553146
 30
0.0
 11
4171.795631741963
 21
566.9283391553149
 31
0.0
  0
LINE
  5
2BF
330
1F
100
AcDbEntity
  8
DEFAULT
100
AcDbLine
 10
4171.795631741963
 20
566.9283391553149
 30
0.0
 11
4166.795631741963
 21
566.9283391553149
 31
0.0
  0
LINE
  5
2C0
330
1F
100
AcDbEntity
  8
DEFAULT
100
AcDbLine
 10
4166.795631741963
 20
566.9283391553149
 30
0.0
 11
4166.795631741963
 21
562.4283391553149
 31
0.0
  0
LINE
  5
2C1
330
1F
100
AcDbEntity
  8
DEFAULT
100
AcDbLine
 10
4166.795631741963
 20
562.4283391553149
 30
0.0
 11
4161.295631741963
 21
562.4283391553149
 31
0.0
  0
LINE
  5
2C2
330
1F
100
AcDbEntity
  8
DEFAULT
100
AcDbLine
 10
4161.295631741963
 20
562.4283391553149
 30
0.0
 11
4161.295631741963
 21
550.4283391553149
 31
0.0
  0
LINE
  5
2C3
330
1F
100
AcDbEntity
  8
DEFAULT
100
AcDbLine
 10
4161.295631741963
 20
550.4283391553149
 30
0.0
 11
4166.795631741963
 21
550.4283391553149
 31
0.0
  0
LINE
  5
2C4
330
1F
100
AcDbEntity
  8
DEFAULT
100
AcDbLine
 10
4166.795631741963
 20
550.4283391553149
 30
0.0
 11
4166.795631741963
 21
538.4283391553149
 31
0.0
  0
LINE
  5
2C5
330
1F
100
AcDbEntity
  8
DEFAULT
100
AcDbLine
 10
4166.795631741963
 20
538.4283391553149
 30
0.0
 11
4161.295631741963
 21
538.4283391553149
 31
0.0
  0
LINE
  5
2C6
330
1F
100
AcDbEntity
  8
DEFAULT
100
AcDbLine
 10
4161.295631741963
 20
538.4283391553149
 30
0.0
 11
4161.295631741963
 21
526.4283391553149
 31
0.0
  0
LINE
  5
2C7
330
1F
100
AcDbEntity
  8
DEFAULT
100
AcDbLine
 10
4161.295631741963
 20
526.4283391553149
 30
0.0
 11
4166.795631741963
 21
526.4283391553149
 31
0.0
  0
LINE
  5
2C8
330
1F
100
AcDbEntity
  8
DEFAULT
100
AcDbLine
 10
4166.795631741963
 20
526.4283391553149
 30
0.0
 11
4166.795631741963
 21
514.4283391553149
 31
0.0
  0
LINE
  5
2C9
330
1F
100
AcDbEntity
  8
DEFAULT
100
AcDbLine
 10
4166.795631741963
 20
514.4283391553149
 30
0.0
 11
4161.295631741963
 21
514.4283391553149
 31
0.0
  0
LINE
  5
2CA
330
1F
100
AcDbEntity
  8
DEFAULT
100
AcDbLine
 10
4161.295631741963
 20
514.4283391553149
 30
0.0
 11
4161.295631741963
 21
502.4283391553149
 31
0.0
  0
LINE
  5
2CB
330
1F
100
AcDbEntity
  8
DEFAULT
100
AcDbLine
 10
4161.295631741963
 20
502.4283391553149
 30
0.0
 11
4166.795631741963
 21
502.4283391553149
 31
0.0
  0
LINE
  5
2CC
330
1F
100
AcDbEntity
  8
DEFAULT
100
AcDbLine
 10
4166.795631741963
 20
502.4283391553149
 30
0.0
 11
4166.795631741963
 21
490.4283391553149
 31
0.0
  0
LINE
  5
2CD
330
1F
100
AcDbEntity
  8
DEFAULT
100
AcDbLine
 10
4166.795631741963
 20
490.4283391553149
 30
0.0
 11
4161.295631741963
 21
490.4283391553149
 31
0.0
  0
LINE
  5
2CE
330
1F
100
AcDbEntity
  8
DEFAULT
100
AcDbLine
 10
4161.295631741963
 20
490.4283391553149
 30
0.0
 11
4161.295631741963
 21
478.4283391553149
 31
0.0
  0
LINE
  5
2CF
330
1F
100
AcDbEntity
  8
DEFAULT
100
AcDbLine
 10
4161.295631741963
 20
478.4283391553149
 30
0.0
 11
4166.795631741963
 21
478.4283391553149
 31
0.0
  0
LINE
  5
2D0
330
1F
100
AcDbEntity
  8
DEFAULT
100
AcDbLine
 10
4166.795631741963
 20
478.4283391553149
 30
0.0
 11
4166.795631741963
 21
473.9283391553149
 31
0.0
  0
LINE
  5
2D1
330
1F
100
AcDbEntity
  8
DEFAULT
100
AcDbLine
 10
4166.795631741963
 20
473.9283391553149
 30
0.0
 11
4171.795631741963
 21
473.9283391553149
 31
0.0
  0
LINE
  5
2D2
330
1F
100
AcDbEntity
  8
DEFAULT
100
AcDbLine
 10
4171.795631741963
 20
473.9283391553149
 30
0.0
 11
4171.795631741963
 21
475.1283391553147
 31
0.0
  0
LINE
  5
2D3
330
1F
100
AcDbEntity
  8
DEFAULT
100
AcDbLine
 10
4171.795631741963
 20
475.1283391553147
 30
0.0
 11
4174.195631741963
 21
475.1283391553147
 31
0.0
  0
LINE
  5
2D4
330
1F
100
AcDbEntity
  8
DEFAULT
100
AcDbLine
 10
4174.195631741963
 20
475.1283391553147
 30
0.0
 11
4174.195631741963
 21
473.9283391553149
 31
0.0
  0
LINE
  5
2D5
330
1F
100
AcDbEntity
  8
DEFAULT
100
AcDbLine
 10
4174.195631741963
 20
473.9283391553149
 30
0.0
 11
4176.195631741963
 21
473.9283391553149
 31
0.0
  0
LINE
  5
2D6
330
1F
100
AcDbEntity
  8
DEFAULT
100
AcDbLine
 10
4176.195631741963
 20
473.9283391553149
 30
0.0
 11
4176.195631741963
 21
470.9283391553149
 31
0.0
  0
LINE
  5
2D7
330
1F
100
AcDbEntity
  8
DEFAULT
100
AcDbLine
 10
4176.195631741963
 20
470.9283391553149
 30
0.0
 11
4174.195631741963
 21
470.9283391553149
 31
0.0
  0
LINE
  5
2D8
330
1F
100
AcDbEntity
  8
DEFAULT
100
AcDbLine
 10
4174.195631741963
 20
470.9283391553149
 30
0.0
 11
4174.195631741963
 21
469.7283391553146
 31
0.0
  0
LINE
  5
2D9
330
1F
100
AcDbEntity
  8
DEFAULT
100
AcDbLine
 10
4174.195631741963
 20
469.7283391553146
 30
0.0
 11
4171.795631741963
 21
469.7283391553146
 31
0.0
  0
LINE
  5
2DA
330
1F
100
AcDbEntity
  8
DEFAULT
100
AcDbLine
 10
4171.795631741963
 20
469.7283391553146
 30
0.0
 11
4171.795631741963
 21
470.9283391553149
 31
0.0
  0
LINE
  5
2DB
330
1F
100
AcDbEntity
  8
DEFAULT
100
AcDbLine
 10
4171.795631741963
 20
470.9283391553149
 30
0.0
 11
4166.795631741963
 21
470.9283391553149
 31
0.0
  0
LINE
  5
2DC
330
1F
100
AcDbEntity
  8
DEFAULT
100
AcDbLine
 10
4166.795631741963
 20
470.9283391553149
 30
0.0
 11
4166.795631741963
 21
466.4283391553149
 31
0.0
  0
LINE
  5
2DD
330
1F
100
AcDbEntity
  8
DEFAULT
100
AcDbLine
 10
4166.795631741963
 20
466.4283391553149
 30
0.0
 11
4161.295631741963
 21
466.4283391553149
 31
0.0
  0
LINE
  5
2DE
330
1F
100
AcDbEntity
  8
DEFAULT
100
AcDbLine
 10
4161.295631741963
 20
466.4283391553149
 30
0.0
 11
4161.295631741963
 21
417.9283391553151
 31
0.0
  0
LINE
  5
2DF
330
1F
100
AcDbEntity
  8
DEFAULT
100
AcDbLine
 10
4161.295631741963
 20
417.9283391553151
 30
0.0
 11
4482.795631733035
 21
417.9283391553151
 31
0.0
  0
LINE
  5
2E0
330
1F
100
AcDbEntity
  8
DEFAULT
100
AcDbLine
 10
4482.795631733035
 20
417.9283391553151
 30
0.0
 11
4482.795631733035
 21
466.4283391553151
 31
0.0
  0
LINE
  5
2E1
330
1F
100
AcDbEntity
  8
DEFAULT
100
AcDbLine
 10
4482.795631733035
 20
466.4283391553151
 30
0.0
 11
4477.295631733035
 21
466.4283391553151
 31
0.0
  0
LINE
  5
2E2
330
1F
100
AcDbEntity
  8
DEFAULT
100
AcDbLine
 10
4477.295631733035
 20
466.4283391553151
 30
0.0
 11
4477.295631733035
 21
470.9283391553151
 31
0.0
  0
LINE
  5
2E3
330
1F
100
AcDbEntity
  8
DEFAULT
100
AcDbLine
 10
4477.295631733035
 20
470.9283391553151
 30
0.0
 11
4472.295631733035
 21
470.9283391553151
 31
0.0
  0
LINE
  5
2E4
330
1F
100
AcDbEntity
  8
DEFAULT
100
AcDbLine
 10
4472.295631733035
 20
470.9283391553151
 30
0.0
 11
4472.295631733035
 21
469.7283391553153
 31
0.0
  0
LINE
  5
2E5
330
1F
100
AcDbEntity
  8
DEFAULT
100
AcDbLine
 10
4472.295631733035
 20
469.7283391553153
 30
0.0
 11
4469.895631733036
 21
469.7283391553153
 31
0.0
  0
LINE
  5
2E6
330
1F
100
AcDbEntity
  8
DEFAULT
100
AcDbLine
 10
4469.895631733036
 20
469.7283391553153
 30
0.0
 11
4469.895631733036
 21
470.9283391553151
 31
0.0
  0
LINE
  5
2E7
330
1F
100
AcDbEntity
  8
DEFAULT
100
AcDbLine
 10
4469.895631733036
 20
470.9283391553151
 30
0.0
 11
4467.895631733036
 21
470.9283391553151
 31
0.0
  0
LINE
  5
2E8
330
1F
100
AcDbEntity
  8
DEFAULT
100
AcDbLine
 10
4467.895631733036
 20
470.9283391553151
 30
0.0
 11
4467.895631733036
 21
473.9283391553151
 31
0.0
  0
LINE
  5
2E9
330
1F
100
AcDbEntity
  8
DEFAULT
100
AcDbLine
 10
4467.895631733036
 20
473.9283391553151
 30
0.0
 11
4469.895631733036
 21
473.9283391553151
 31
0.0
  0
LINE
  5
2EA
330
1F
100
AcDbEntity
  8
DEFAULT
100
AcDbLine
 10
4469.895631733036
 20
473.9283391553151
 30
0.0
 11
4469.895631733036
 21
475.1283391553154
 31
0.0
  0
LINE
  5
2EB
330
1F
100
AcDbEntity
  8
DEFAULT
100
AcDbLine
 10
4469.895631733036
 20
475.1283391553154
 30
0.0
 11
4472.295631733035
 21
475.1283391553154
 31
0.0
  0
LINE
  5
2EC
330
1F
100
AcDbEntity
  8
DEFAULT
100
AcDbLine
 10
4472.295631733035
 20
475.1283391553154
 30
0.0
 11
4472.295631733035
 21
473.9283391553151
 31
0.0
  0
LINE
  5
2ED
330
1F
100
AcDbEntity
  8
DEFAULT
100
AcDbLine
 10
4472.295631733035
 20
473.9283391553151
 30
0.0
 11
4477.295631733035
 21
473.9283391553151
 31
0.0
  0
LINE
  5
2EE
330
1F
100
AcDbEntity
  8
DEFAULT
100
AcDbLine
 10
4477.295631733035
 20
473.9283391553151
 30
0.0
 11
4477.295631733035
 21
478.4283391553151
 31
0.0
  0
LINE
  5
2EF
330
1F
100
AcDbEntity
  8
DEFAULT
100
AcDbLine
 10
4477.295631733035
 20
478.4283391553151
 30
0.0
 11
4482.795631733035
 21
478.4283391553151
 31
0.0
  0
LINE
  5
2F0
330
1F
100
AcDbEntity
  8
DEFAULT
100
AcDbLine
 10
4482.795631733035
 20
478.4283391553151
 30
0.0
 11
4482.795631733035
 21
490.4283391553151
 31
0.0
  0
LINE
  5
2F1
330
1F
100
AcDbEntity
  8
DEFAULT
100
AcDbLine
 10
4482.795631733035
 20
490.4283391553151
 30
0.0
 11
4477.295631733035
 21
490.4283391553151
 31
0.0
  0
LINE
  5
2F2
330
1F
100
AcDbEntity
  8
DEFAULT
100
AcDbLine
 10
4477.295631733035
 20
490.4283391553151
 30
0.0
 11
4477.295631733035
 21
502.4283391553151
 31
0.0
  0
LINE
  5
2F3
330
1F
100
AcDbEntity
  8
DEFAULT
100
AcDbLine
 10
4477.295631733035
 20
502.4283391553151
 30
0.0
 11
4482.795631733035
 21
502.4283391553151
 31
0.0
  0
LINE
  5
2F4
330
1F
100
AcDbEntity
  8
DEFAULT
100
AcDbLine
 10
4482.795631733035
 20
502.4283391553151
 30
0.0
 11
4482.795631733035
 21
514.4283391553151
 31
0.0
  0
LINE
  5
2F5
330
1F
100
AcDbEntity
  8
DEFAULT
100
AcDbLine
 10
4482.795631733035
 20
514.4283391553151
 30
0.0
 11
4477.295631733035
 21
514.4283391553151
 31
0.0
  0
LINE
  5
2F6
330
1F
100
AcDbEntity
  8
DEFAULT
100
AcDbLine
 10
4477.295631733035
 20
514.4283391553151
 30
0.0
 11
4477.295631733035
 21
526.4283391553151
 31
0.0
  0
LINE
  5
2F7
330
1F
100
AcDbEntity
  8
DEFAULT
100
AcDbLine
 10
4477.295631733035
 20
526.4283391553151
 30
0.0
 11
4482.795631733035
 21
526.4283391553151
 31
0.0
  0
LINE
  5
2F8
330
1F
100
AcDbEntity
  8
DEFAULT
100
AcDbLine
 10
4482.795631733035
 20
526.4283391553151
 30
0.0
 11
4482.795631733035
 21
538.4283391553151
 31
0.0
  0
LINE
  5
2F9
330
1F
100
AcDbEntity
  8
DEFAULT
100
AcDbLine
 10
4482.795631733035
 20
538.4283391553151
 30
0.0
 11
4477.295631733035
 21
538.4283391553151
 31
0.0
  0
LINE
  5
2FA
330
1F
100
AcDbEntity
  8
DEFAULT
100
AcDbLine
 10
4477.295631733035
 20
538.4283391553151
 30
0.0
 11
4477.295631733035
 21
550.4283391553151
 31
0.0
  0
LINE
  5
2FB
330
1F
100
AcDbEntity
  8
DEFAULT
100
AcDbLine
 10
4477.295631733035
 20
550.4283391553151
 30
0.0
 11
4482.795631733035
 21
550.4283391553151
 31
0.0
  0
LINE
  5
2FC
330
1F
100
AcDbEntity
  8
DEFAULT
100
AcDbLine
 10
4482.795631733035
 20
550.4283391553151
 30
0.0
 11
4482.795631733035
 21
562.4283391553151
 31
0.0
  0
LINE
  5
2FD
330
1F
100
AcDbEntity
  8
DEFAULT
100
AcDbLine
 10
4482.795631733035
 20
562.4283391553151
 30
0.0
 11
4477.295631733035
 21
562.4283391553151
 31
0.0
  0
LINE
  5
2FE
330
1F
100
AcDbEntity
  8
DEFAULT
100
AcDbLine
 10
4477.295631733035
 20
562.4283391553151
 30
0.0
 11
4477.295631733035
 21
566.9283391553151
 31
0.0
  0
LINE
  5
2FF
330
1F
100
AcDbEntity
  8
DEFAULT
100
AcDbLine
 10
4477.295631733035
 20
566.9283391553151
 30
0.0
 11
4472.295631733035
 21
566.9283391553151
 31
0.0
  0
LINE
  5
300
330
1F
100
AcDbEntity
  8
DEFAULT
100
AcDbLine
 10
4472.295631733035
 20
566.9283391553151
 30
0.0
 11
4472.295631733035
 21
565.7283391553153
 31
0.0
  0
LINE
  5
301
330
1F
100
AcDbEntity
  8
DEFAULT
100
AcDbLine
 10
4472.295631733035
 20
565.7283391553153
 30
0.0
 11
4469.895631733036
 21
565.7283391553153
 31
0.0
  0
LINE
  5
302
330
1F
100
AcDbEntity
  8
DEFAULT
100
AcDbLine
 10
4469.895631733036
 20
565.7283391553153
 30
0.0
 11
4469.895631733036
 21
566.9283391553151
 31
0.0
  0
LINE
  5
303
330
1F
100
AcDbEntity
  8
DEFAULT
100
AcDbLine
 10
4469.895631733036
 20
566.9283391553151
 30
0.0
 11
4467.895631733036
 21
566.9283391553151
 31
0.0
  0
LINE
  5
304
330
1F
100
AcDbEntity
  8
DEFAULT
100
AcDbLine
 10
4467.895631733036
 20
566.9283391553151
 30
0.0
 11
4467.895631733036
 21
569.9283391553151
 31
0.0
  0
LINE
  5
305
330
1F
100
AcDbEntity
  8
DEFAULT
100
AcDbLine
 10
4467.895631733036
 20
569.9283391553151
 30
0.0
 11
4469.895631733036
 21
569.9283391553151
 31
0.0
  0
LINE
  5
306
330
1F
100
AcDbEntity
  8
DEFAULT
100
AcDbLine
 10
4469.895631733036
 20
569.9283391553151
 30
0.0
 11
4469.895631733036
 21
571.1283391553154
 31
0.0
  0
LINE
  5
307
330
1F
100
AcDbEntity
  8
DEFAULT
100
AcDbLine
 10
4469.895631733036
 20
571.1283391553154
 30
0.0
 11
4472.295631733035
 21
571.1283391553154
 31
0.0
  0
LINE
  5
308
330
1F
100
AcDbEntity
  8
DEFAULT
100
AcDbLine
 10
4472.295631733035
 20
571.1283391553154
 30
0.0
 11
4472.295631733035
 21
569.9283391553151
 31
0.0
  0
LINE
  5
309
330
1F
100
AcDbEntity
  8
DEFAULT
100
AcDbLine
 10
4472.295631733035
 20
569.9283391553151
 30
0.0
 11
4477.295631733035
 21
569.9283391553151
 31
0.0
  0
LINE
  5
30A
330
1F
100
AcDbEntity
  8
DEFAULT
100
AcDbLine
 10
4477.295631733035
 20
569.9283391553151
 30
0.0
 11
4477.295631733035
 21
574.4283391553151
 31
0.0
  0
LINE
  5
30B
330
1F
100
AcDbEntity
  8
DEFAULT
100
AcDbLine
 10
4477.295631733035
 20
574.4283391553151
 30
0.0
 11
4482.795631733035
 21
574.4283391553151
 31
0.0
  0
LINE
  5
30C
330
1F
100
AcDbEntity
  8
DEFAULT
100
AcDbLine
 10
4482.795631733035
 20
574.4283391553151
 30
0.0
 11
4482.795631733035
 21
622.9283391553151
 31
0.0
  0
LINE
  5
30D
330
1F
100
AcDbEntity
  8
DEFAULT
100
AcDbLine
 10
4482.795631733035
 20
622.9283391553151
 30
0.0
 11
4472.045631737499
 21
622.9283391553151
 31
0.0
  0
LINE
  5
30E
330
1F
100
AcDbEntity
  8
DEFAULT
100
AcDbLine
 10
4472.045631737499
 20
622.9283391553151
 30
0.0
 11
4472.045631737499
 21
628.4283391553151
 31
0.0
  0
LINE
  5
30F
330
1F
100
AcDbEntity
  8
DEFAULT
100
AcDbLine
 10
4472.045631737499
 20
628.4283391553151
 30
0.0
 11
4460.045631737499
 21
628.4283391553151
 31
0.0
  0
LINE
  5
310
330
1F
100
AcDbEntity
  8
DEFAULT
100
AcDbLine
 10
4460.045631737499
 20
628.4283391553151
 30
0.0
 11
4460.045631737499
 21
622.9283391553151
 31
0.0
  0
LINE
  5
311
330
1F
100
AcDbEntity
  8
DEFAULT
100
AcDbLine
 10
4460.045631737499
 20
622.9283391553151
 30
0.0
 11
4448.045631737499
 21
622.9283391553151
 31
0.0
  0
LINE
  5
312
330
1F
100
AcDbEntity
  8
DEFAULT
100
AcDbLine
 10
4448.045631737499
 20
622.9283391553151
 30
0.0
 11
4448.045631737499
 21
628.4283391553151
 31
0.0
  0
LINE
  5
313
330
1F
100
AcDbEntity
  8
DEFAULT
100
AcDbLine
 10
4448.045631737499
 20
628.4283391553151
 30
0.0
 11
4436.045631737499
 21
628.4283391553151
 31
0.0
  0
LINE
  5
314
330
1F
100
AcDbEntity
  8
DEFAULT
100
AcDbLine
 10
4436.045631737499
 20
628.4283391553151
 30
0.0
 11
4436.045631737499
 21
622.9283391553151
 31
0.0
  0
LINE
  5
315
330
1F
100
AcDbEntity
  8
DEFAULT
100
AcDbLine
 10
4436.045631737499
 20
622.9283391553151
 30
0.0
 11
4424.045631737499
 21
622.9283391553151
 31
0.0
  0
LINE
  5
316
330
1F
100
AcDbEntity
  8
DEFAULT
100
AcDbLine
 10
4424.045631737499
 20
622.9283391553151
 30
0.0
 11
4424.045631737499
 21
628.4283391553151
 31
0.0
  0
CIRCLE
  5
317
330
1F
100
AcDbEntity
  8
DEFAULT
100
AcDbCircle
 10
4418.045631741963
 20
502.4283391553151
 30
0.0
 40
1.5
  0
CIRCLE
  5
318
330
1F
100
AcDbEntity
  8
DEFAULT
100
AcDbCircle
 10
4418.045631741963
 20
598.4283391553151
 30
0.0
 40
1.5
  0
CIRCLE
  5
319
330
1F
100
AcDbEntity
  8
DEFAULT
100
AcDbCircle
 10
4206.015631741963
 20
509.1783391553151
 30
0.0
 40
1.5
  0
CIRCLE
  5
31A
330
1F
100
AcDbEntity
  8
DEFAULT
100
AcDbCircle
 10
4206.015631741963
 20
581.1797327186542
 30
0.0
 40
1.5
  0
CIRCLE
  5
31B
330
1F
100
AcDbEntity
  8
DEFAULT
100
AcDbCircle
 10
4442.045631737498
 20
442.9283391553149
 30
0.0000000000000104
 40
1.500000000000909
  0
CIRCLE
  5
31C
330
1F
100
AcDbEntity
  8
DEFAULT
100
AcDbCircle
 10
4442.045631737499
 20
454.9283391553154
 30
0.0000000000000104
 40
1.5
  0
CIRCLE
  5
31D
330
1F
100
AcDbEntity
  8
DEFAULT
100
AcDbCircle
 10
4202.045631737499
 20
454.9283391553154
 30
0.0000000000000104
 40
1.5
  0
CIRCLE
  5
31E
330
1F
100
AcDbEntity
  8
DEFAULT
100
AcDbCircle
 10
4322.045631737499
 20
454.9283391553154
 30
0.0000000000000104
 40
1.5
  0
CIRCLE
  5
31F
330
1F
100
AcDbEntity
  8
DEFAULT
100
AcDbCircle
 10
4464.795631733035
 20
520.4283391553154
 30
0.0000000000000104
 40
1.5
  0
CIRCLE
  5
320
330
1F
100
AcDbEntity
  8
DEFAULT
100
AcDbCircle
 10
4464.795631733034
 20
544.4283391553163
 30
0.0000000000000104
 40
1.500000000000909
  0
CIRCLE
  5
321
330
1F
100
AcDbEntity
  8
DEFAULT
100
AcDbCircle
 10
4464.795631733035
 20
532.4283391553145
 30
0.0000000000000104
 40
1.5
  0
CIRCLE
  5
322
330
1F
100
AcDbEntity
  8
DEFAULT
100
AcDbCircle
 10
4442.045631737499
 20
429.9283391553145
 30
0.0000000000000104
 40
1.5
  0
CIRCLE
  5
323
330
1F
100
AcDbEntity
  8
DEFAULT
100
AcDbCircle
 10
4322.045631737499
 20
429.9283391553154
 30
0.0000000000000104
 40
1.5
  0
CIRCLE
  5
324
330
1F
100
AcDbEntity
  8
DEFAULT
100
AcDbCircle
 10
4322.045631737499
 20
442.928339155315
 30
0.0000000000000104
 40
1.5
  0
CIRCLE
  5
325
330
1F
100
AcDbEntity
  8
DEFAULT
100
AcDbCircle
 10
4202.045631737498
 20
429.9283391553154
 30
0.0000000000000104
 40
1.500000000000909
  0
CIRCLE
  5
326
330
1F
100
AcDbEntity
  8
DEFAULT
100
AcDbCircle
 10
4202.045631737499
 20
442.9283391553154
 30
0.0000000000000104
 40
1.5
  0
LINE
  5
327
330
1F
100
AcDbEntity
  8
DEFAULT
100
AcDbLine
 10
4310.690711322181
 20
527.995708877186
 30
0.0
 11
4301.287431041936
 21
520.5406220251677
 31
0.0
  0
LINE
  5
328
330
1F
100
AcDbEntity
  8
DEFAULT
100
AcDbLine
 10
4301.287431041936
 20
520.5406220251677
 30
0.0
 11
4297.87051623476
 21
524.8504588202807
 31
0.0
  0
LINE
  5
329
330
1F
100
AcDbEntity
  8
DEFAULT
100
AcDbLine
 10
4297.87051623476
 20
524.8504588202807
 30
0.0
 11
4307.273796515006
 21
532.3055456722989
 31
0.0
  0
LINE
  5
32A
330
1F
100
AcDbEntity
  8
DEFAULT
100
AcDbLine
 10
4307.273796515006
 20
532.3055456722989
 30
0.0
 11
4310.690711322181
 21
527.995708877186
 31
0.0
  0
LINE
  5
32B
330
1F
100
AcDbEntity
  8
DEFAULT
100
AcDbLine
 10
4326.080357075498
 20
547.2157193763353
 30
0.0
 11
4329.497271882674
 21
542.9058825812226
 31
0.0
  0
LINE
  5
32C
330
1F
100
AcDbEntity
  8
DEFAULT
100
AcDbLine
 10
4329.497271882674
 20
542.9058825812226
 30
0.0
 11
4320.093991602427
 21
535.4507957292044
 31
0.0
  0
LINE
  5
32D
330
1F
100
AcDbEntity
  8
DEFAULT
100
AcDbLine
 10
4320.093991602427
 20
535.4507957292044
 30
0.0
 11
4316.677076795253
 21
539.7606325243171
 31
0.0
  0
LINE
  5
32E
330
1F
100
AcDbEntity
  8
DEFAULT
100
AcDbLine
 10
4316.677076795253
 20
539.7606325243171
 30
0.0
 11
4326.080357075498
 21
547.2157193763353
 31
0.0
  0
LINE
  5
32F
330
1F
100
AcDbEntity
  8
DEFAULT
100
AcDbLine
 10
4373.09675847673
 20
584.4911536364266
 30
0.0
 11
4382.500038756974
 21
591.9462404884448
 31
0.0
  0
LINE
  5
330
330
1F
100
AcDbEntity
  8
DEFAULT
100
AcDbLine
 10
4382.500038756974
 20
591.9462404884448
 30
0.0
 11
4385.91695356415
 21
587.6364036933319
 31
0.0
  0
LINE
  5
331
330
1F
100
AcDbEntity
  8
DEFAULT
100
AcDbLine
 10
4385.91695356415
 20
587.6364036933319
 30
0.0
 11
4376.513673283904
 21
580.1813168413137
 31
0.0
  0
LINE
  5
332
330
1F
100
AcDbEntity
  8
DEFAULT
100
AcDbLine
 10
4376.513673283904
 20
580.1813168413137
 30
0.0
 11
4373.09675847673
 21
584.4911536364266
 31
0.0
  0
LINE
  5
333
330
1F
100
AcDbEntity
  8
DEFAULT
100
AcDbLine
 10
4269.660675394021
 20
502.485198264226
 30
0.0
 11
4273.077590201197
 21
498.1753614691131
 31
0.0
  0
LINE
  5
334
330
1F
100
AcDbEntity
  8
DEFAULT
100
AcDbLine
 10
4273.077590201197
 20
498.1753614691131
 30
0.0
 11
4263.674309920951
 21
490.7202746170949
 31
0.0
  0
LINE
  5
335
330
1F
100
AcDbEntity
  8
DEFAULT
100
AcDbLine
 10
4263.674309920951
 20
490.7202746170949
 30
0.0
 11
4260.257395113777
 21
495.0301114122076
 31
0.0
  0
LINE
  5
336
330
1F
100
AcDbEntity
  8
DEFAULT
100
AcDbLine
 10
4260.257395113777
 20
495.0301114122076
 30
0.0
 11
4269.660675394021
 21
502.485198264226
 31
0.0
  0
LINE
  5
337
330
1F
100
AcDbEntity
  8
DEFAULT
100
AcDbLine
 10
4241.450834553283
 20
480.1199377081712
 30
0.0
 11
4250.85411483353
 21
487.5750245601894
 31
0.0
  0
LINE
  5
338
330
1F
100
AcDbEntity
  8
DEFAULT
100
AcDbLine
 10
4250.85411483353
 20
487.5750245601894
 30
0.0
 11
4254.271029640705
 21
483.2651877650767
 31
0.0
  0
LINE
  5
339
330
1F
100
AcDbEntity
  8
DEFAULT
100
AcDbLine
 10
4254.271029640705
 20
483.2651877650767
 30
0.0
 11
4244.867749360459
 21
475.8101009130585
 31
0.0
  0
LINE
  5
33A
330
1F
100
AcDbEntity
  8
DEFAULT
100
AcDbLine
 10
4244.867749360459
 20
475.8101009130585
 30
0.0
 11
4241.450834553283
 21
480.1199377081712
 31
0.0
  0
LINE
  5
33B
330
1F
100
AcDbEntity
  8
DEFAULT
100
AcDbLine
 10
4391.903319037221
 20
599.401327340463
 30
0.0
 11
4401.306599317468
 21
606.8564141924812
 31
0.0
  0
LINE
  5
33C
330
1F
100
AcDbEntity
  8
DEFAULT
100
AcDbLine
 10
4401.306599317468
 20
606.8564141924812
 30
0.0
 11
4404.723514124642
 21
602.5465773973683
 31
0.0
  0
LINE
  5
33D
330
1F
100
AcDbEntity
  8
DEFAULT
100
AcDbLine
 10
4404.723514124642
 20
602.5465773973683
 30
0.0
 11
4395.320233844396
 21
595.0914905453501
 31
0.0
  0
LINE
  5
33E
330
1F
100
AcDbEntity
  8
DEFAULT
100
AcDbLine
 10
4395.320233844396
 20
595.0914905453501
 30
0.0
 11
4391.903319037221
 21
599.401327340463
 31
0.0
  0
LINE
  5
33F
330
1F
100
AcDbEntity
  8
DEFAULT
100
AcDbLine
 10
4288.467235954515
 20
517.3953719682625
 30
0.0
 11
4291.884150761689
 21
513.0855351731495
 31
0.0
  0
LINE
  5
340
330
1F
100
AcDbEntity
  8
DEFAULT
100
AcDbLine
 10
4291.884150761689
 20
513.0855351731495
 30
0.0
 11
4282.480870481443
 21
505.6304483211313
 31
0.0
  0
LINE
  5
341
330
1F
100
AcDbEntity
  8
DEFAULT
100
AcDbLine
 10
4282.480870481443
 20
505.6304483211313
 30
0.0
 11
4279.063955674268
 21
509.9402851162442
 31
0.0
  0
LINE
  5
342
330
1F
100
AcDbEntity
  8
DEFAULT
100
AcDbLine
 10
4279.063955674268
 20
509.9402851162442
 30
0.0
 11
4288.467235954515
 21
517.3953719682625
 31
0.0
  0
LINE
  5
343
330
1F
100
AcDbEntity
  8
DEFAULT
100
AcDbLine
 10
4363.693478196483
 20
577.0360667844081
 30
0.0
 11
4367.110393003658
 21
572.7262299892955
 31
0.0
  0
LINE
  5
344
330
1F
100
AcDbEntity
  8
DEFAULT
100
AcDbLine
 10
4367.110393003658
 20
572.7262299892955
 30
0.0
 11
4357.707112723412
 21
565.2711431372772
 31
0.0
  0
LINE
  5
345
330
1F
100
AcDbEntity
  8
DEFAULT
100
AcDbLine
 10
4357.707112723412
 20
565.2711431372772
 30
0.0
 11
4354.290197916236
 21
569.5809799323899
 31
0.0
  0
LINE
  5
346
330
1F
100
AcDbEntity
  8
DEFAULT
100
AcDbLine
 10
4354.290197916236
 20
569.5809799323899
 30
0.0
 11
4363.693478196483
 21
577.0360667844081
 31
0.0
  0
LINE
  5
347
330
1F
100
AcDbEntity
  8
DEFAULT
100
AcDbLine
 10
4344.886917635991
 20
562.1258930803717
 30
0.0
 11
4348.303832443165
 21
557.816056285259
 31
0.0
  0
LINE
  5
348
330
1F
100
AcDbEntity
  8
DEFAULT
100
AcDbLine
 10
4348.303832443165
 20
557.816056285259
 30
0.0
 11
4338.90055216292
 21
550.3609694332408
 31
0.0
  0
LINE
  5
349
330
1F
100
AcDbEntity
  8
DEFAULT
100
AcDbLine
 10
4338.90055216292
 20
550.3609694332408
 30
0.0
 11
4335.483637355745
 21
554.6708062283535
 31
0.0
  0
LINE
  5
34A
330
1F
100
AcDbEntity
  8
DEFAULT
100
AcDbLine
 10
4335.483637355745
 20
554.6708062283535
 30
0.0
 11
4344.886917635991
 21
562.1258930803717
 31
0.0
  0
ARC
  5
34B
330
1F
100
AcDbEntity
  8
DEFAULT
100
AcDbCircle
 10
4446.795631741963
 20
379.8785776777822
 30
0.0000000000000104
 40
11.00000000000063
100
AcDbArc
 50
89.99999999996685
 51
270.0
  0
LINE
  5
34C
330
1F
100
AcDbEntity
  8
DEFAULT
100
AcDbLine
 10
4446.795631741969
 20
390.8785776777816
 30
0.0000000000000104
 11
4456.795631741963
 21
390.8785776777816
 31
0.0000000000000104
  0
ARC
  5
34D
330
1F
100
AcDbEntity
  8
DEFAULT
100
AcDbCircle
 10
4456.795631741963
 20
379.8785776777818
 30
0.0000000000000104
 40
10.99999999999983
100
AcDbArc
 50
270.0
 51
90.0
  0
LINE
  5
34E
330
1F
100
AcDbEntity
  8
DEFAULT
100
AcDbLine
 10
4456.79563174232
 20
368.8785776777816
 30
0.0000000000000104
 11
4446.795631741963
 21
368.8785776777816
 31
0.0000000000000104
  0
CIRCLE
  5
34F
330
1F
100
AcDbEntity
  8
DEFAULT
100
AcDbCircle
 10
4193.645631741963
 20
392.3035776777818
 30
0.0
 40
1.5
  0
ARC
  5
350
330
1F
100
AcDbEntity
  8
DEFAULT
100
AcDbCircle
 10
4472.295631741963
 20
364.3785776777822
 30
0.0000000000000104
 40
1.499999999999375
100
AcDbArc
 50
270.0
 51
90.0
  0
LINE
  5
351
330
1F
100
AcDbEntity
  8
DEFAULT
100
AcDbLine
 10
4472.295631741682
 20
362.8785776777817
 30
0.0000000000000104
 11
4462.295631741963
 21
362.8785776777816
 31
0.0000000000000104
  0
ARC
  5
352
330
1F
100
AcDbEntity
  8
DEFAULT
100
AcDbCircle
 10
4462.295631741963
 20
364.3785776777813
 30
0.0000000000000104
 40
1.499999999999716
100
AcDbArc
 50
90.0
 51
270.0
  0
LINE
  5
353
330
1F
100
AcDbEntity
  8
DEFAULT
100
AcDbLine
 10
4462.295631741963
 20
365.8785776777816
 30
0.0000000000000104
 11
4472.295631741963
 21
365.8785776777816
 31
0.0000000000000104
  0
ARC
  5
354
330
1F
100
AcDbEntity
  8
DEFAULT
100
AcDbCircle
 10
4431.295631741963
 20
395.3785776777816
 30
0.0000000000000104
 40
1.5
100
AcDbArc
 50
90.0
 51
270.0000000032655
  0
LINE
  5
355
330
1F
100
AcDbEntity
  8
DEFAULT
100
AcDbLine
 10
4431.29563174222
 20
396.8785776777817
 30
0.0000000000000104
 11
4441.295631741904
 21
396.8785776777816
 31
0.0000000000000104
  0
ARC
  5
356
330
1F
100
AcDbEntity
  8
DEFAULT
100
AcDbCircle
 10
4441.295631741964
 20
395.3785776777822
 30
0.0000000000000104
 40
1.499999999999375
100
AcDbArc
 50
270.0000000026402
 51
90.00000000229285
  0
LINE
  5
357
330
1F
100
AcDbEntity
  8
DEFAULT
100
AcDbLine
 10
4441.295631742033
 20
393.8785776777816
 30
0.0000000000000104
 11
4431.295631742048
 21
393.8785776777816
 31
0.0000000000000104
  0
CIRCLE
  5
358
330
1F
100
AcDbEntity
  8
DEFAULT
100
AcDbCircle
 10
4181.220631741963
 20
379.8785776777821
 30
0.0000000000000104
 40
7.925000000000182
  0
ARC
  5
359
330
1F
100
AcDbEntity
  8
DEFAULT
100
AcDbCircle
 10
4472.295631741963
 20
395.3785776777813
 30
0.0000000000000104
 40
1.500000000000284
100
AcDbArc
 50
270.0000000048984
 51
90.0
  0
LINE
  5
35A
330
1F
100
AcDbEntity
  8
DEFAULT
100
AcDbLine
 10
4472.295631742092
 20
393.8785776777816
 30
0.0000000000000104
 11
4462.295631742237
 21
393.8785776777817
 31
0.0000000000000104
  0
ARC
  5
35B
330
1F
100
AcDbEntity
  8
DEFAULT
100
AcDbCircle
 10
4462.295631741963
 20
395.3785776777818
 30
0.0000000000000104
 40
1.500000000000227
100
AcDbArc
 50
89.99999999961787
 51
270.0
  0
LINE
  5
35C
330
1F
100
AcDbEntity
  8
DEFAULT
100
AcDbLine
 10
4462.295631741973
 20
396.8785776777816
 30
0.0000000000000104
 11
4472.295631741963
 21
396.8785776777816
 31
0.0000000000000104
  0
ARC
  5
35D
330
1F
100
AcDbEntity
  8
DEFAULT
100
AcDbCircle
 10
4431.295631741963
 20
364.3785776777817
 30
0.0000000000000104
 40
1.500000000000057
100
AcDbArc
 50
90.0
 51
270.0000000028487
  0
LINE
  5
35E
330
1F
100
AcDbEntity
  8
DEFAULT
100
AcDbLine
 10
4431.295631741963
 20
365.8785776777816
 30
0.0000000000000104
 11
4441.295631741726
 21
365.8785776777817
 31
0.0000000000000104
  0
ARC
  5
35F
330
1F
100
AcDbEntity
  8
DEFAULT
100
AcDbCircle
 10
4441.295631741963
 20
364.3785776777818
 30
0.0000000000000104
 40
1.499999999999829
100
AcDbArc
 50
270.0
 51
90.0
  0
LINE
  5
360
330
1F
100
AcDbEntity
  8
DEFAULT
100
AcDbLine
 10
4441.295631741963
 20
362.8785776777816
 30
0.0000000000000104
 11
4431.295631742038
 21
362.8785776777816
 31
0.0000000000000104
  0
CIRCLE
  5
361
330
1F
100
AcDbEntity
  8
DEFAULT
100
AcDbCircle
 10
4168.795631741963
 20
392.3035776777816
 30
0.0
 40
1.5
  0
CIRCLE
  5
362
330
1F
100
AcDbEntity
  8
DEFAULT
100
AcDbCircle
 10
4168.795631741963
 20
367.4535776777817
 30
0.0
 40
1.5
  0
ARC
  5
363
330
1F
100
AcDbEntity
  8
DEFAULT
100
AcDbCircle
 10
4472.295631741963
 20
576.9283391553149
 30
0.0000000000000104
 40
1.500000000000227
100
AcDbArc
 50
270.0
 51
90.0
  0
LINE
  5
364
330
1F
100
AcDbEntity
  8
DEFAULT
100
AcDbLine
 10
4472.295631741682
 20
575.4283391553153
 30
0.0000000000000104
 11
4462.295631741963
 21
575.4283391553151
 31
0.0000000000000104
  0
ARC
  5
365
330
1F
100
AcDbEntity
  8
DEFAULT
100
AcDbCircle
 10
4462.295631741962
 20
576.9283391553145
 30
0.0000000000000104
 40
1.499999999999318
100
AcDbArc
 50
89.99999999996527
 51
270.0000000000347
  0
LINE
  5
366
330
1F
100
AcDbEntity
  8
DEFAULT
100
AcDbLine
 10
4462.295631741963
 20
578.4283391553151
 30
0.0000000000000104
 11
4472.295631741963
 21
578.4283391553151
 31
0.0000000000000104
  0
CIRCLE
  5
367
330
1F
100
AcDbEntity
  8
DEFAULT
100
AcDbCircle
 10
4168.795631741963
 20
580.0033391553152
 30
0.0
 40
1.5
  0
ARC
  5
368
330
1F
100
AcDbEntity
  8
DEFAULT
100
AcDbCircle
 10
4472.295631741963
 20
607.9283391553145
 30
0.0000000000000104
 40
1.500000000000682
100
AcDbArc
 50
270.0000000048984
 51
90.0
  0
LINE
  5
369
330
1F
100
AcDbEntity
  8
DEFAULT
100
AcDbLine
 10
4472.295631742092
 20
606.4283391553151
 30
0.0000000000000104
 11
4462.295631742237
 21
606.4283391553153
 31
0.0000000000000104
  0
ARC
  5
36A
330
1F
100
AcDbEntity
  8
DEFAULT
100
AcDbCircle
 10
4462.295631741963
 20
607.9283391553155
 30
0.0000000000000104
 40
1.500000000000341
100
AcDbArc
 50
89.99999999961787
 51
270.0
  0
LINE
  5
36B
330
1F
100
AcDbEntity
  8
DEFAULT
100
AcDbLine
 10
4462.295631741973
 20
609.4283391553151
 30
0.0000000000000104
 11
4472.295631741963
 21
609.4283391553151
 31
0.0000000000000104
  0
CIRCLE
  5
36C
330
1F
100
AcDbEntity
  8
DEFAULT
100
AcDbCircle
 10
4193.645631741963
 20
604.8533391553153
 30
0.0
 40
1.5
  0
CIRCLE
  5
36D
330
1F
100
AcDbEntity
  8
DEFAULT
100
AcDbCircle
 10
4181.220631741963
 20
592.4283391553155
 30
0.0000000000000104
 40
7.925000000000182
  0
ARC
  5
36E
330
1F
100
AcDbEntity
  8
DEFAULT
100
AcDbCircle
 10
4431.295631741963
 20
607.9283391553154
 30
0.0000000000000104
 40
1.500000000000227
100
AcDbArc
 50
90.0
 51
270.0000000032655
  0
LINE
  5
36F
330
1F
100
AcDbEntity
  8
DEFAULT
100
AcDbLine
 10
4431.29563174222
 20
609.4283391553153
 30
0.0000000000000104
 11
4441.295631741904
 21
609.4283391553151
 31
0.0000000000000104
  0
ARC
  5
370
330
1F
100
AcDbEntity
  8
DEFAULT
100
AcDbCircle
 10
4441.295631741963
 20
607.9283391553163
 30
0.0000000000000104
 40
1.499999999998863
100
AcDbArc
 50
270.000000002675
 51
90.00000000225812
  0
LINE
  5
371
330
1F
100
AcDbEntity
  8
DEFAULT
100
AcDbLine
 10
4441.295631742033
 20
606.4283391553151
 30
0.0000000000000104
 11
4431.295631742048
 21
606.4283391553151
 31
0.0000000000000104
  0
CIRCLE
  5
372
330
1F
100
AcDbEntity
  8
DEFAULT
100
AcDbCircle
 10
4168.795631741963
 20
604.8533391553151
 30
0.0
 40
1.5
  0
ARC
  5
373
330
1F
100
AcDbEntity
  8
DEFAULT
100
AcDbCircle
 10
4431.295631741963
 20
576.9283391553156
 30
0.0000000000000104
 40
1.500000000000455
100
AcDbArc
 50
90.0
 51
270.0000000028487
  0
LINE
  5
374
330
1F
100
AcDbEntity
  8
DEFAULT
100
AcDbLine
 10
4431.295631741963
 20
578.4283391553151
 30
0.0000000000000104
 11
4441.295631741726
 21
578.4283391553153
 31
0.0000000000000104
  0
ARC
  5
375
330
1F
100
AcDbEntity
  8
DEFAULT
100
AcDbCircle
 10
4441.295631741963
 20
576.9283391553154
 30
0.0000000000000104
 40
1.499999999999773
100
AcDbArc
 50
270.0
 51
90.0
  0
LINE
  5
376
330
1F
100
AcDbEntity
  8
DEFAULT
100
AcDbLine
 10
4441.295631741963
 20
575.4283391553151
 30
0.0000000000000104
 11
4431.295631742038
 21
575.4283391553151
 31
0.0000000000000104
  0
ARC
  5
377
330
1F
100
AcDbEntity
  8
DEFAULT
100
AcDbCircle
 10
4446.795631741963
 20
592.4283391553156
 30
0.0000000000000104
 40
11.00000000000045
100
AcDbArc
 50
89.99999999996685
 51
270.0
  0
LINE
  5
378
330
1F
100
AcDbEntity
  8
DEFAULT
100
AcDbLine
 10
4446.795631741969
 20
603.4283391553151
 30
0.0000000000000104
 11
4456.795631741963
 21
603.4283391553151
 31
0.0000000000000104
  0
ARC
  5
379
330
1F
100
AcDbEntity
  8
DEFAULT
100
AcDbCircle
 10
4456.795631741963
 20
592.4283391553154
 30
0.0000000000000104
 40
10.99999999999977
100
AcDbArc
 50
270.0
 51
90.0
  0
LINE
  5
37A
330
1F
100
AcDbEntity
  8
DEFAULT
100
AcDbLine
 10
4456.79563174232
 20
581.4283391553151
 30
0.0000000000000104
 11
4446.795631741963
 21
581.4283391553151
 31
0.0000000000000104
  0
ENDSEC
  0
SECTION
  2
OBJECTS
  0
DICTIONARY
  5
C
330
0
100
AcDbDictionary
  3
ACAD_GROUP
350
D
  3
ACAD_LAYOUT
350
1A
  3
ACAD_MATERIAL
350
43
  3
ACAD_MLEADERSTYLE
350
6B
  3
ACAD_MLINESTYLE
350
17
  3
ACAD_PLOTSETTINGS
350
19
  3
ACAD_SCALELIST
350
47
  3
ACAD_VISUALSTYLE
350
2A
  3
ACDBHEADERROUNDTRIPXREC
350
37B
  3
ACDBVARIABLEDICTIONARY
350
39C
  0
DICTIONARY
  5
3A3
330
8
100
AcDbDictionary
280
     1
  3
ACAD_XREC_ROUNDTRIP
360
3A4
  0
DICTIONARY
  5
D
102
{ACAD_REACTORS
330
C
102
}
330
C
100
AcDbDictionary
  0
DICTIONARY
  5
1A
102
{ACAD_REACTORS
330
C
102
}
330
C
100
AcDbDictionary
  0
DICTIONARY
  5
43
102
{ACAD_REACTORS
330
C
102
}
330
C
100
AcDbDictionary
  3
BYBLOCK
350
45
  3
BYLAYER
350
44
  3
GLOBAL
350
46
  0
DICTIONARY
  5
6B
102
{ACAD_REACTORS
330
C
102
}
330
C
100
AcDbDictionary
  3
STANDARD
350
6C
  0
DICTIONARY
  5
17
102
{ACAD_REACTORS
330
C
102
}
330
C
100
AcDbDictionary
  3
STANDARD
350
18
  0
DICTIONARY
  5
19
102
{ACAD_REACTORS
330
C
102
}
330
C
100
AcDbDictionary
  0
DICTIONARY
  5
47
102
{ACAD_REACTORS
330
C
102
}
330
C
100
AcDbDictionary
  3
A0
350
48
  3
A1
350
49
  3
A2
350
4A
  3
A3
350
4B
  3
A4
350
4C
  3
A5
350
4D
  3
A6
350
4E
  3
A7
350
4F
  3
A8
350
50
  3
A9
350
51
  3
B0
350
52
  3
B1
350
53
  3
B2
350
54
  3
B3
350
55
  3
B4
350
56
  3
B5
350
57
  3
B6
350
58
  3
B7
350
59
  3
B8
350
5A
  3
B9
350
5B
  3
C0
350
5C
  3
C1
350
5D
  3
C2
350
5E
  3
C3
350
5F
  3
C4
350
60
  3
C5
350
61
  3
C6
350
62
  3
C7
350
63
  3
C8
350
64
  3
C9
350
65
  3
D0
350
66
  3
D1
350
67
  3
D2
350
68
  0
DICTIONARY
  5
2A
102
{ACAD_REACTORS
330
C
102
}
330
C
100
AcDbDictionary
  3
2DWIREFRAME
350
2F
  3
BASIC
350
32
  3
BRIGHTEN
350
36
  3
COLORCHANGE
350
3A
  3
CONCEPTUAL
350
34
  3
DIM
350
35
  3
EDGECOLOROFF
350
3D
  3
FACEPATTERN
350
39
  3
FLAT
350
2B
  3
FLATWITHEDGES
350
2C
  3
GOURAUD
350
2D
  3
GOURAUDWITHEDGES
350
2E
  3
HIDDEN
350
31
  3
JITTEROFF
350
3B
  3
LINEPATTERN
350
38
  3
OVERHANGOFF
350
3C
  3
REALISTIC
350
33
  3
SHADED
350
42
  3
SHADED_WITH_EDGES
350
41
  3
SHADES_OF_GRAY
350
3E
  3
SKETCHY
350
3F
  3
THICKEN
350
37
  3
WIREFRAME
350
30
  3
X-RAY
350
40
  0
DICTIONARY
  5
37B
102
{ACAD_REACTORS
330
C
102
}
330
C
100
AcDbDictionary
  3
CEPSNID
350
385
  3
CEPSNTYPE
350
384
  3
DIMSTYLEDATA
350
39B
  3
FINGERPRINTGUID
350
386
  3
HYPERLINKBASE
350
37E
  3
INSUNITS
350
383
  3
LAYOUTDICT
350
380
  3
LWETCUNION
350
382
  3
PLOTSETDICT
350
381
  3
PSVPSCALE
350
388
  3
PUCSBASE
350
38B
  3
PUCSORGBACK
350
391
  3
PUCSORGBOTTOM
350
38D
  3
PUCSORGFRONT
350
390
  3
PUCSORGLEFT
350
38E
  3
PUCSORGRIGHT
350
38F
  3
PUCSORGTOP
350
38C
  3
PUCSORTHOREF
350
389
  3
PUCSORTHOVIEW
350
38A
  3
STYLESHEET
350
37F
  3
TSTACKALIGN
350
37C
  3
TSTACKSIZE
350
37D
  3
UCSBASE
350
394
  3
UCSORGBACK
350
39A
  3
UCSORGBOTTOM
350
396
  3
UCSORGFRONT
350
399
  3
UCSORGLEFT
350
397
  3
UCSORGRIGHT
350
398
  3
UCSORGTOP
350
395
  3
UCSORTHOREF
350
392
  3
UCSORTHOVIEW
350
393
  3
VERSIONGUID
350
387
  0
DICTIONARY
  5
39C
102
{ACAD_REACTORS
330
C
102
}
330
C
100
AcDbDictionary
  3
CANNOSCALE
350
3A5
  3
CMLEADERSTYLE
350
39E
  3
CTABLESTYLE
350
39D
  3
DIMASSOC
350
3A1
  3
HIDETEXT
350
3A2
  3
MSLTSCALE
350
3A6
  0
XRECORD
  5
3A4
102
{ACAD_REACTORS
330
3A3
102
}
330
3A3
100
AcDbXrecord
102
VTR_0.000_0.000_1.000_1.000_GRIDDISPLAY
 70
     3
102
VTR_0.000_0.000_1.000_1.000_GRIDMAJOR
 70
     5
102
VTR_0.000_0.000_1.000_1.000_DEFAULTLIGHTING
280
     1
102
VTR_0.000_0.000_1.000_1.000_DEFAULTLIGHTINGTYPE
 70
     1
102
VTR_0.000_0.000_1.000_1.000_BRIGHTNESS
141
0.0
102
VTR_0.000_0.000_1.000_1.000_CONTRAST
142
0.0
  0
MATERIAL
  5
45
102
{ACAD_REACTORS
330
43
102
}
102
{ACAD_XDICTIONARY
360
3A9
102
}
330
43
100
AcDbMaterial
  1
BYBLOCK
  0
MATERIAL
  5
44
102
{ACAD_REACTORS
330
43
102
}
102
{ACAD_XDICTIONARY
360
3A7
102
}
330
43
100
AcDbMaterial
  1
BYLAYER
  0
MATERIAL
  5
46
102
{ACAD_REACTORS
330
43
102
}
102
{ACAD_XDICTIONARY
360
3AB
102
}
330
43
100
AcDbMaterial
  1
GLOBAL
  0
ACAD_PROXY_OBJECT
  5
6C
102
{ACAD_REACTORS
330
6B
102
}
330
6B
100
AcDbProxyObject
 90
      499
 91
      505
 93
      610
310
40901902A4063FBFFFFFE056BD1B81E855B9FC0AD7A3703D0AD73F4214DD185B99185C9900AD7A3703D0AC73F90141901A02B5E8DC0F42B1CFC02B5E8DC0F42B1CFE5764000000000000300FC0
340
14
340
0
340
11
340
0
 94
        0
1001
ACAD_MLEADERVER
1070
     2
  0
MLINESTYLE
  5
18
102
{ACAD_REACTORS
330
17
102
}
330
17
100
AcDbMlineStyle
  2
Standard
 70
     0
  3

 62
   256
 51
90.0
 52
90.0
 71
     2
 49
0.5
 62
   256
  6
BYLAYER
 49
-0.5
 62
   256
  6
BYLAYER
  0
ACAD_PROXY_OBJECT
  5
48
102
{ACAD_REACTORS
330
47
102
}
330
47
100
AcDbProxyObject
 90
      499
 91
      503
 93
       41
310
903313A31580
  0
ACAD_PROXY_OBJECT
  5
49
102
{ACAD_REACTORS
330
47
102
}
330
47
100
AcDbProxyObject
 90
      499
 91
      503
 93
      105
310
903313A324000000000000004000
  0
ACAD_PROXY_OBJECT
  5
4A
102
{ACAD_REACTORS
330
47
102
}
330
47
100
AcDbProxyObject
 90
      499
 91
      503
 93
      105
310
903313A344000000000000104000
  0
ACAD_PROXY_OBJECT
  5
4B
102
{ACAD_REACTORS
330
47
102
}
330
47
100
AcDbProxyObject
 90
      499
 91
      503
 93
      105
310
903313A354000000000000144000
  0
ACAD_PROXY_OBJECT
  5
4C
102
{ACAD_REACTORS
330
47
102
}
330
47
100
AcDbProxyObject
 90
      499
 91
      503
 93
      105
310
903313A384000000000000204000
  0
ACAD_PROXY_OBJECT
  5
4D
102
{ACAD_REACTORS
330
47
102
}
330
47
100
AcDbProxyObject
 90
      499
 91
      503
 93
      113
310
904313A31304000000000000244000
  0
ACAD_PROXY_OBJECT
  5
4E
102
{ACAD_REACTORS
330
47
102
}
330
47
100
AcDbProxyObject
 90
      499
 91
      503
 93
      113
310
904313A31364000000000000304000
  0
ACAD_PROXY_OBJECT
  5
4F
102
{ACAD_REACTORS
330
47
102
}
330
47
100
AcDbProxyObject
 90
      499
 91
      503
 93
      113
310
904313A32304000000000000344000
  0
ACAD_PROXY_OBJECT
  5
50
102
{ACAD_REACTORS
330
47
102
}
330
47
100
AcDbProxyObject
 90
      499
 91
      503
 93
      113
310
904313A333040000000000003E4000
  0
ACAD_PROXY_OBJECT
  5
51
102
{ACAD_REACTORS
330
47
102
}
330
47
100
AcDbProxyObject
 90
      499
 91
      503
 93
      113
310
904313A34304000000000000444000
  0
ACAD_PROXY_OBJECT
  5
52
102
{ACAD_REACTORS
330
47
102
}
330
47
100
AcDbProxyObject
 90
      499
 91
      503
 93
      113
310
904313A35304000000000000494000
  0
ACAD_PROXY_OBJECT
  5
53
102
{ACAD_REACTORS
330
47
102
}
330
47
100
AcDbProxyObject
 90
      499
 91
      503
 93
      121
310
905313A3130304000000000000594000
  0
ACAD_PROXY_OBJECT
  5
54
102
{ACAD_REACTORS
330
47
102
}
330
47
100
AcDbProxyObject
 90
      499
 91
      503
 93
      105
310
903323A310000000000000010100
  0
ACAD_PROXY_OBJECT
  5
55
102
{ACAD_REACTORS
330
47
102
}
330
47
100
AcDbProxyObject
 90
      499
 91
      503
 93
      105
310
903343A310000000000000410100
  0
ACAD_PROXY_OBJECT
  5
56
102
{ACAD_REACTORS
330
47
102
}
330
47
100
AcDbProxyObject
 90
      499
 91
      503
 93
      105
310
903383A310000000000000810100
  0
ACAD_PROXY_OBJECT
  5
57
102
{ACAD_REACTORS
330
47
102
}
330
47
100
AcDbProxyObject
 90
      499
 91
      503
 93
      113
310
90431303A310000000000000910100
  0
ACAD_PROXY_OBJECT
  5
58
102
{ACAD_REACTORS
330
47
102
}
330
47
100
AcDbProxyObject
 90
      499
 91
      503
 93
      121
310
9053130303A310000000000001650100
  0
ACAD_PROXY_OBJECT
  5
59
102
{ACAD_REACTORS
330
47
102
}
330
47
100
AcDbProxyObject
 90
      499
 91
      503
 93
      257
310
90E312F31323822203D2031272D3022000000000000200FC000000000000284000
  0
ACAD_PROXY_OBJECT
  5
5A
102
{ACAD_REACTORS
330
47
102
}
330
47
100
AcDbProxyObject
 90
      499
 91
      503
 93
      249
310
90D312F363422203D2031272D3022000000000000240FC000000000000284000
  0
ACAD_PROXY_OBJECT
  5
5B
102
{ACAD_REACTORS
330
47
102
}
330
47
100
AcDbProxyObject
 90
      499
 91
      503
 93
      249
310
90D312F333222203D2031272D3022000000000000280FC000000000000284000
  0
ACAD_PROXY_OBJECT
  5
5C
102
{ACAD_REACTORS
330
47
102
}
330
47
100
AcDbProxyObject
 90
      499
 91
      503
 93
      249
310
90D312F313622203D2031272D30220000000000002C0FC000000000000284000
  0
ACAD_PROXY_OBJECT
  5
5D
102
{ACAD_REACTORS
330
47
102
}
330
47
100
AcDbProxyObject
 90
      499
 91
      503
 93
      249
310
90D332F333222203D2031272D30220000000000002E0FC000000000000284000
  0
ACAD_PROXY_OBJECT
  5
5E
102
{ACAD_REACTORS
330
47
102
}
330
47
100
AcDbProxyObject
 90
      499
 91
      503
 93
      241
310
90C312F3822203D2031272D3022000000000000300FC000000000000284000
  0
ACAD_PROXY_OBJECT
  5
5F
102
{ACAD_REACTORS
330
47
102
}
330
47
100
AcDbProxyObject
 90
      499
 91
      503
 93
      249
310
90D332F313622203D2031272D3022000000000000320FC000000000000284000
  0
ACAD_PROXY_OBJECT
  5
60
102
{ACAD_REACTORS
330
47
102
}
330
47
100
AcDbProxyObject
 90
      499
 91
      503
 93
      241
310
90C312F3422203D2031272D3022000000000000340FC000000000000284000
  0
ACAD_PROXY_OBJECT
  5
61
102
{ACAD_REACTORS
330
47
102
}
330
47
100
AcDbProxyObject
 90
      499
 91
      503
 93
      241
310
90C332F3822203D2031272D3022000000000000360FC000000000000284000
  0
ACAD_PROXY_OBJECT
  5
62
102
{ACAD_REACTORS
330
47
102
}
330
47
100
AcDbProxyObject
 90
      499
 91
      503
 93
      241
310
90C312F3222203D2031272D3022000000000000380FC000000000000284000
  0
ACAD_PROXY_OBJECT
  5
63
102
{ACAD_REACTORS
330
47
102
}
330
47
100
AcDbProxyObject
 90
      499
 91
      503
 93
      241
310
90C332F3422203D2031272D30220000000000003A0FC000000000000284000
  0
ACAD_PROXY_OBJECT
  5
64
102
{ACAD_REACTORS
330
47
102
}
330
47
100
AcDbProxyObject
 90
      499
 91
      503
 93
      161
310
90A3122203D2031272D30224000000000000284000
  0
ACAD_PROXY_OBJECT
  5
65
102
{ACAD_REACTORS
330
47
102
}
330
47
100
AcDbProxyObject
 90
      499
 91
      503
 93
      257
310
90E312D312F3222203D2031272D30220000000000003E0FC000000000000284000
  0
ACAD_PROXY_OBJECT
  5
66
102
{ACAD_REACTORS
330
47
102
}
330
47
100
AcDbProxyObject
 90
      499
 91
      503
 93
      225
310
90A3322203D2031272D302200000000000002100000000000000284000
  0
ACAD_PROXY_OBJECT
  5
67
102
{ACAD_REACTORS
330
47
102
}
330
47
100
AcDbProxyObject
 90
      499
 91
      503
 93
      225
310
90A3622203D2031272D302200000000000006100000000000000284000
  0
ACAD_PROXY_OBJECT
  5
68
102
{ACAD_REACTORS
330
47
102
}
330
47
100
AcDbProxyObject
 90
      499
 91
      503
 93
      249
310
90D31272D3022203D2031272D30220000000000000A100000000000000284000
  0
ACAD_PROXY_OBJECT
  5
2F
102
{ACAD_REACTORS
330
2A
102
}
330
2A
100
AcDbProxyObject
 90
      499
 91
      501
 93
      436
310
42CC9915DA5C99599C985B595049028333333333333E33F0000000000000F90107901411070040501600405405064090741402480A0340
1001
ACAD
1000
AcDbSavedByObjectVersion
1070
     0
  0
ACAD_PROXY_OBJECT
  5
32
102
{ACAD_REACTORS
330
2A
102
}
330
2A
100
AcDbProxyObject
 90
      499
 91
      501
 93
      388
310
4150985CDA58D07406404333333333333E33F0000000000000F90107A41107004050150841D405064090741402480A0350
1001
ACAD
1000
AcDbSavedByObjectVersion
1070
     0
  0
ACAD_PROXY_OBJECT
  5
36
102
{ACAD_REACTORS
330
2A
102
}
330
2A
100
AcDbProxyObject
 90
      499
 91
      501
 93
      428
310
42109C9A59DA1D195B90C409028333333333333E33F0000000000000F9010790141107004050150841D405064090741402480A029950
1001
ACAD
1000
AcDbSavedByObjectVersion
1070
     0
  0
ACAD_PROXY_OBJECT
  5
3A
102
{ACAD_REACTORS
330
2A
102
}
330
2A
100
AcDbProxyObject
 90
      499
 91
      501
 93
      452
310
42D0DBDB1BDC90DA185B99D95104090240C333333333333E33F0000000000000F90108901411070040501508421405064090741402480A0350
1001
ACAD
1000
AcDbSavedByObjectVersion
1070
     0
  0
ACAD_PROXY_OBJECT
  5
34
102
{ACAD_REACTORS
330
2A
102
}
330
2A
100
AcDbProxyObject
 90
      499
 91
      501
 93
      500
310
4290DBDB98D95C1D1D585B10940D028333333333333E33F0000000000000F90107902409070040501000000000018199010841D405064090740C02480A0340
1001
ACAD
1000
AcDbSavedByObjectVersion
1070
     0
  0
ACAD_PROXY_OBJECT
  5
35
102
{ACAD_REACTORS
330
2A
102
}
330
2A
100
AcDbProxyObject
 90
      499
 91
      501
 93
      412
310
40D11A5B50B409028333333333333E33F0000000000000F9010790141107004050150841D405064090741402480A02677FFFFFD0
1001
ACAD
1000
AcDbSavedByObjectVersion
1070
     0
  0
ACAD_PROXY_OBJECT
  5
3D
102
{ACAD_REACTORS
330
2A
102
}
330
2A
100
AcDbProxyObject
 90
      499
 91
      501
 93
      452
310
43115919D950DBDB1BDC93D999916409028333333333333E33F0000000000000F9010790141107004050150841D405064090741402480A0350
1001
ACAD
1000
AcDbSavedByObjectVersion
1070
     0
  0
ACAD_PROXY_OBJECT
  5
39
102
{ACAD_REACTORS
330
2A
102
}
330
2A
100
AcDbProxyObject
 90
      499
 91
      501
 93
      444
310
42D19858D95C185D1D195C9B90F409028333333333333E33F0000000000000F9010790141107004050150841D405064090741402480A0350
1001
ACAD
1000
AcDbSavedByObjectVersion
1070
     0
  0
ACAD_PROXY_OBJECT
  5
2B
102
{ACAD_REACTORS
330
2A
102
}
330
2A
100
AcDbProxyObject
 90
      499
 91
      501
 93
      380
310
41119B185D240901404333333333333E33F0000000000000F9010740A907004050150841D405064090741402480A1B50
1001
ACAD
1000
AcDbSavedByObjectVersion
1070
     0
  0
ACAD_PROXY_OBJECT
  5
2C
102
{ACAD_REACTORS
330
2A
102
}
330
2A
100
AcDbProxyObject
 90
      499
 91
      501
 93
      468
310
43519B185D15DA5D1A115919D95CD0140901404333333333333E33F0000000000000F90107409019070040501600405405064090741402480A1B50
1001
ACAD
1000
AcDbSavedByObjectVersion
1070
     0
  0
ACAD_PROXY_OBJECT
  5
2D
102
{ACAD_REACTORS
330
2A
102
}
330
2A
100
AcDbProxyObject
 90
      499
 91
      501
 93
      404
310
41D1DBDD5C985D5910240902404333333333333E33F0000000000000F9010740A9070040501641D405064090741402480A1B50
1001
ACAD
1000
AcDbSavedByObjectVersion
1070
     0
  0
ACAD_PROXY_OBJECT
  5
2E
102
{ACAD_REACTORS
330
2A
102
}
330
2A
100
AcDbProxyObject
 90
      499
 91
      501
 93
      492
310
4411DBDD5C985D5915DA5D1A115919D95CD0340902404333333333333E33F0000000000000F90107409019070040501600405405064090741402480A1B50
1001
ACAD
1000
AcDbSavedByObjectVersion
1070
     0
  0
ACAD_PROXY_OBJECT
  5
31
102
{ACAD_REACTORS
330
2A
102
}
330
2A
100
AcDbProxyObject
 90
      499
 91
      501
 93
      476
310
41921A5919195B90640502408333333333333E33F0000000000000F901079024090700405020000000000001110200405405064090740C02480A0340
1001
ACAD
1000
AcDbSavedByObjectVersion
1070
     0
  0
ACAD_PROXY_OBJECT
  5
3B
102
{ACAD_REACTORS
330
2A
102
}
330
2A
100
AcDbProxyObject
 90
      499
 91
      501
 93
      428
310
42529A5D1D195C93D999914409028333333333333E33F0000000000000F9010790141107004050150A41D405064090741402480A0350
1001
ACAD
1000
AcDbSavedByObjectVersion
1070
     0
  0
ACAD_PROXY_OBJECT
  5
38
102
{ACAD_REACTORS
330
2A
102
}
330
2A
100
AcDbProxyObject
 90
      499
 91
      501
 93
      444
310
42D31A5B995C185D1D195C9B90E409028333333333333E33F0000000000000F9010790141107004050750841D405064090741402483A0350
1001
ACAD
1000
AcDbSavedByObjectVersion
1070
     0
  0
ACAD_PROXY_OBJECT
  5
3C
102
{ACAD_REACTORS
330
2A
102
}
330
2A
100
AcDbProxyObject
 90
      499
 91
      501
 93
      444
310
42D3DD995C9A185B99D3D999915409028333333333333E33F0000000000000F9010790141107004050150941D405064090741402480A0350
1001
ACAD
1000
AcDbSavedByObjectVersion
1070
     0
  0
ACAD_PROXY_OBJECT
  5
33
102
{ACAD_REACTORS
330
2A
102
}
330
2A
100
AcDbProxyObject
 90
      499
 91
      501
 93
      428
310
425499585B1A5CDD1A58D08409038333333333333E33F0000000000000F9010740A907004050150800405405064090740C02480A1B40
1001
ACAD
1000
AcDbSavedByObjectVersion
1070
     0
  0
ACAD_PROXY_OBJECT
  5
42
102
{ACAD_REACTORS
330
2A
102
}
330
2A
100
AcDbProxyObject
 90
      499
 91
      501
 93
      420
310
4194DA1859195911B40902404333333333333E33F0000000000000F9010740A41107004050150800405405064090840C02480A0B40
1001
ACAD
1000
AcDbSavedByObjectVersion
1070
     0
  0
ACAD_PROXY_OBJECT
  5
41
102
{ACAD_REACTORS
330
2A
102
}
330
2A
100
AcDbProxyObject
 90
      499
 91
      501
 93
      516
310
4454DA18591959081DDA5D1A08195919D95CD1A40902404333333333333E33F0000000000000F901074090142907004050250800405405064090740C02480A0B40
1001
ACAD
1000
AcDbSavedByObjectVersion
1070
     0
  0
ACAD_PROXY_OBJECT
  5
3E
102
{ACAD_REACTORS
330
2A
102
}
330
2A
100
AcDbProxyObject
 90
      499
 91
      501
 93
      532
310
4394DA1859195CC81BD98811DC985E5174090240C333333333333E33F0000000000000F901079024090741D01000000000000111010841D405064090740C02480A0340
1001
ACAD
1000
AcDbSavedByObjectVersion
1070
     0
  0
ACAD_PROXY_OBJECT
  5
3F
102
{ACAD_REACTORS
330
2A
102
}
330
2A
100
AcDbProxyObject
 90
      499
 91
      501
 93
      476
310
41D4DAD95D18DA1E51840502408333333333333E33F0000000000000F901079024090741D01000000000000111010B41D405064090741802480A0340
1001
ACAD
1000
AcDbSavedByObjectVersion
1070
     0
  0
ACAD_PROXY_OBJECT
  5
37
102
{ACAD_REACTORS
330
2A
102
}
330
2A
100
AcDbProxyObject
 90
      499
 91
      501
 93
      412
310
41D51A1A58DAD95B90D409028333333333333E33F0000000000000F9010790141107004050150C41D405064090741402480A0350
1001
ACAD
1000
AcDbSavedByObjectVersion
1070
     0
  0
ACAD_PROXY_OBJECT
  5
30
102
{ACAD_REACTORS
330
2A
102
}
330
2A
100
AcDbProxyObject
 90
      499
 91
      501
 93
      420
310
4255DA5C99599C985B595059028333333333333E33F0000000000000F90107901411070040501600405405064090740C02480A0340
1001
ACAD
1000
AcDbSavedByObjectVersion
1070
     0
  0
ACAD_PROXY_OBJECT
  5
40
102
{ACAD_REACTORS
330
2A
102
}
330
2A
100
AcDbProxyObject
 90
      499
 91
      501
 93
      404
310
41560B54985E51940902404000000000000E03F0000000000000F9010740501907004050150841D405064090740C02480A1B40
1001
ACAD
1000
AcDbSavedByObjectVersion
1070
     0
  0
XRECORD
  5
385
102
{ACAD_REACTORS
330
37B
102
}
330
37B
100
AcDbXrecord
340
0
  0
XRECORD
  5
384
102
{ACAD_REACTORS
330
37B
102
}
330
37B
100
AcDbXrecord
 90
        0
  0
XRECORD
  5
39B
102
{ACAD_REACTORS
330
37B
102
}
330
37B
100
AcDbXrecord
1000
DSTYLE
1002
{
1070
   279
 70
     2
1070
   340
340
11
1002
}
  0
XRECORD
  5
386
102
{ACAD_REACTORS
330
37B
102
}
330
37B
100
AcDbXrecord
  1
{62B70508-BC6C-4ECB-A040-D1AA68B11C52}
  0
XRECORD
  5
37E
102
{ACAD_REACTORS
330
37B
102
}
330
37B
100
AcDbXrecord
  1

  0
XRECORD
  5
383
102
{ACAD_REACTORS
330
37B
102
}
330
37B
100
AcDbXrecord
 90
        4
  0
XRECORD
  5
380
102
{ACAD_REACTORS
330
37B
102
}
330
37B
100
AcDbXrecord
340
1A
  0
XRECORD
  5
382
102
{ACAD_REACTORS
330
37B
102
}
330
37B
100
AcDbXrecord
 90
    10781
  0
XRECORD
  5
381
102
{ACAD_REACTORS
330
37B
102
}
330
37B
100
AcDbXrecord
340
19
  0
XRECORD
  5
388
102
{ACAD_REACTORS
330
37B
102
}
330
37B
100
AcDbXrecord
 40
0.0
  0
XRECORD
  5
38B
102
{ACAD_REACTORS
330
37B
102
}
330
37B
100
AcDbXrecord
340
0
  0
XRECORD
  5
391
102
{ACAD_REACTORS
330
37B
102
}
330
37B
100
AcDbXrecord
 10
0.0
 20
0.0
 30
0.0
  0
XRECORD
  5
38D
102
{ACAD_REACTORS
330
37B
102
}
330
37B
100
AcDbXrecord
 10
0.0
 20
0.0
 30
0.0
  0
XRECORD
  5
390
102
{ACAD_REACTORS
330
37B
102
}
330
37B
100
AcDbXrecord
 10
0.0
 20
0.0
 30
0.0
  0
XRECORD
  5
38E
102
{ACAD_REACTORS
330
37B
102
}
330
37B
100
AcDbXrecord
 10
0.0
 20
0.0
 30
0.0
  0
XRECORD
  5
38F
102
{ACAD_REACTORS
330
37B
102
}
330
37B
100
AcDbXrecord
 10
0.0
 20
0.0
 30
0.0
  0
XRECORD
  5
38C
102
{ACAD_REACTORS
330
37B
102
}
330
37B
100
AcDbXrecord
 10
0.0
 20
0.0
 30
0.0
  0
XRECORD
  5
389
102
{ACAD_REACTORS
330
37B
102
}
330
37B
100
AcDbXrecord
340
0
  0
XRECORD
  5
38A
102
{ACAD_REACTORS
330
37B
102
}
330
37B
100
AcDbXrecord
 70
     0
  0
XRECORD
  5
37F
102
{ACAD_REACTORS
330
37B
102
}
330
37B
100
AcDbXrecord
  1

  0
XRECORD
  5
37C
102
{ACAD_REACTORS
330
37B
102
}
330
37B
100
AcDbXrecord
 90
        1
  0
XRECORD
  5
37D
102
{ACAD_REACTORS
330
37B
102
}
330
37B
100
AcDbXrecord
 90
       70
  0
XRECORD
  5
394
102
{ACAD_REACTORS
330
37B
102
}
330
37B
100
AcDbXrecord
340
0
  0
XRECORD
  5
39A
102
{ACAD_REACTORS
330
37B
102
}
330
37B
100
AcDbXrecord
 10
0.0
 20
0.0
 30
0.0
  0
XRECORD
  5
396
102
{ACAD_REACTORS
330
37B
102
}
330
37B
100
AcDbXrecord
 10
0.0
 20
0.0
 30
0.0
  0
XRECORD
  5
399
102
{ACAD_REACTORS
330
37B
102
}
330
37B
100
AcDbXrecord
 10
0.0
 20
0.0
 30
0.0
  0
XRECORD
  5
397
102
{ACAD_REACTORS
330
37B
102
}
330
37B
100
AcDbXrecord
 10
0.0
 20
0.0
 30
0.0
  0
XRECORD
  5
398
102
{ACAD_REACTORS
330
37B
102
}
330
37B
100
AcDbXrecord
 10
0.0
 20
0.0
 30
0.0
  0
XRECORD
  5
395
102
{ACAD_REACTORS
330
37B
102
}
330
37B
100
AcDbXrecord
 10
0.0
 20
0.0
 30
0.0
  0
XRECORD
  5
392
102
{ACAD_REACTORS
330
37B
102
}
330
37B
100
AcDbXrecord
340
0
  0
XRECORD
  5
393
102
{ACAD_REACTORS
330
37B
102
}
330
37B
100
AcDbXrecord
 70
     0
  0
XRECORD
  5
387
102
{ACAD_REACTORS
330
37B
102
}
330
37B
100
AcDbXrecord
  1
{FAEB1C32-E019-11D5-929B-00C0DF256EC4}
  0
DICTIONARYVAR
  5
3A5
102
{ACAD_REACTORS
330
39C
102
}
330
39C
100
DictionaryVariables
280
     0
  1
1:1
  0
DICTIONARYVAR
  5
39E
102
{ACAD_REACTORS
330
39C
102
}
330
39C
100
DictionaryVariables
280
     0
  1
Standard
  0
DICTIONARYVAR
  5
39D
102
{ACAD_REACTORS
330
39C
102
}
330
39C
100
DictionaryVariables
280
     0
  1
Standard
  0
DICTIONARYVAR
  5
3A1
102
{ACAD_REACTORS
330
39C
102
}
330
39C
100
DictionaryVariables
280
     0
  1
2
  0
DICTIONARYVAR
  5
3A2
102
{ACAD_REACTORS
330
39C
102
}
330
39C
100
DictionaryVariables
280
     0
  1
1
  0
DICTIONARYVAR
  5
3A6
102
{ACAD_REACTORS
330
39C
102
}
330
39C
100
DictionaryVariables
280
     0
  1
1
  0
DICTIONARY
  5
3A9
330
45
100
AcDbDictionary
280
     1
  3
ACAD_XREC_ROUNDTRIP
360
3AA
  0
DICTIONARY
  5
3A7
330
44
100
AcDbDictionary
280
     1
  3
ACAD_XREC_ROUNDTRIP
360
3A8
  0
DICTIONARY
  5
3AB
330
46
100
AcDbDictionary
280
     1
  3
ACAD_XREC_ROUNDTRIP
360
3AC
  0
XRECORD
  5
3AA
102
{ACAD_REACTORS
330
3A9
102
}
330
3A9
100
AcDbXrecord
102
MATERIAL
148
0.0
149
0.0
149
0.0
 93
        0
 94
      127
282
     0
 72
     1
 77
     1
171
     1
175
     1
179
     1
273
     0
  0
XRECORD
  5
3A8
102
{ACAD_REACTORS
330
3A7
102
}
330
3A7
100
AcDbXrecord
102
MATERIAL
148
0.0
149
0.0
149
0.0
 93
        0
 94
      127
282
     0
 72
     1
 77
     1
171
     1
175
     1
179
     1
273
     0
  0
XRECORD
  5
3AC
102
{ACAD_REACTORS
330
3AB
102
}
330
3AB
100
AcDbXrecord
102
MATERIAL
148
0.0
149
0.0
149
0.0
 93
        0
 94
      127
282
     0
 72
     1
 77
     1
171
     1
175
     1
179
     1
273
     0
  0
ENDSEC
  0
EOF
