  0
SECTION
  2
HEADER
  9
$ACADVER
  1
AC1015
  9
$ACADMAINTVER
 70
     6
  9
$DWGCODEPAGE
  3
ANSI_1252
  9
$INSBASE
 10
0.0
 20
0.0
 30
0.0
  9
$EXTMIN
 10
0.0
 20
0.0
 30
0.0
  9
$EXTMAX
 10
609.6
 20
457.2
 30
0.0
  9
$LIMMIN
 10
0.0
 20
0.0
  9
$LIMMAX
 10
609.6
 20
457.2
  9
$ORTHOMODE
 70
     0
  9
$REGENMODE
 70
     1
  9
$FILLMODE
 70
     1
  9
$QTEXTMODE
 70
     0
  9
$MIRRTEXT
 70
     1
  9
$LTSCALE
 40
1.0
  9
$ATTMODE
 70
     1
  9
$TEXTSIZE
 40
3.175
  9
$TRACEWID
 40
1.0
  9
$TEXTSTYLE
  7
Standard
  9
$CLAYER
  8
0
  9
$CELTYPE
  6
ByLayer
  9
$CECOLOR
 62
   256
  9
$CELTSCALE
 40
1.0
  9
$DISPSILH
 70
     0
  9
$DIMSCALE
 40
1.0
  9
$DIMASZ
 40
3.302
  9
$DIMEXO
 40
1.27
  9
$DIMDLI
 40
3.75
  9
$DIMRND
 40
0.0
  9
$DIMDLE
 40
0.0
  9
$DIMEXE
 40
3.175
  9
$DIMTP
 40
0.0
  9
$DIMTM
 40
0.0
  9
$DIMTXT
 40
3.175
  9
$DIMCEN
 40
2.5
  9
$DIMTSZ
 40
0.0
  9
$DIMTOL
 70
     0
  9
$DIMLIM
 70
     0
  9
$DIMTIH
 70
     1
  9
$DIMTOH
 70
     1
  9
$DIMSE1
 70
     0
  9
$DIMSE2
 70
     0
  9
$DIMTAD
 70
     0
  9
$DIMZIN
 70
     0
  9
$DIMBLK
  1

  9
$DIMASO
 70
     1
  9
$DIMSHO
 70
     1
  9
$DIMPOST
  1

  9
$DIMAPOST
  1

  9
$DIMALT
 70
     0
  9
$DIMALTD
 70
     3
  9
$DIMALTF
 40
0.0393700787
  9
$DIMLFAC
 40
1.0
  9
$DIMTOFL
 70
     1
  9
$DIMTVP
 40
0.0
  9
$DIMTIX
 70
     0
  9
$DIMSOXD
 70
     0
  9
$DIMSAH
 70
     0
  9
$DIMBLK1
  1

  9
$DIMBLK2
  1

  9
$DIMSTYLE
  2
ISO-25
  9
$DIMCLRD
 70
     0
  9
$DIMCLRE
 70
     0
  9
$DIMCLRT
 70
     0
  9
$DIMTFAC
 40
1.0
  9
$DIMGAP
 40
1.524
  9
$DIMJUST
 70
     0
  9
$DIMSD1
 70
     0
  9
$DIMSD2
 70
     0
  9
$DIMTOLJ
 70
     0
  9
$DIMTZIN
 70
     0
  9
$DIMALTZ
 70
     0
  9
$DIMALTTZ
 70
     0
  9
$DIMUPT
 70
     0
  9
$DIMDEC
 70
     2
  9
$DIMTDEC
 70
     2
  9
$DIMALTU
 70
     2
  9
$DIMALTTD
 70
     3
  9
$DIMTXSTY
  7
Standard
  9
$DIMAUNIT
 70
     0
  9
$DIMADEC
 70
     2
  9
$DIMALTRND
 40
0.0
  9
$DIMAZIN
 70
     0
  9
$DIMDSEP
 70
    44
  9
$DIMATFIT
 70
     3
  9
$DIMFRAC
 70
     0
  9
$DIMLDRBLK
  1

  9
$DIMLUNIT
 70
     2
  9
$DIMLWD
 70
    -2
  9
$DIMLWE
 70
    -2
  9
$DIMTMOVE
 70
     0
  9
$LUNITS
 70
     2
  9
$LUPREC
 70
     2
  9
$SKETCHINC
 40
1.0
  9
$FILLETRAD
 40
10.0
  9
$AUNITS
 70
     0
  9
$AUPREC
 70
     2
  9
$MENU
  1
.
  9
$ELEVATION
 40
0.0
  9
$PELEVATION
 40
0.0
  9
$THICKNESS
 40
0.0
  9
$LIMCHECK
 70
     0
  9
$CHAMFERA
 40
10.0
  9
$CHAMFERB
 40
10.0
  9
$CHAMFERC
 40
20.0
  9
$CHAMFERD
 40
0.0
  9
$SKPOLY
 70
     0
  9
$TDCREATE
 40
2456522.35263434
  9
$TDUCREATE
 40
2456522.560967674
  9
$TDUPDATE
 40
2456522.352634803
  9
$TDUUPDATE
 40
2456522.560968136
  9
$TDINDWG
 40
0.0000000116
  9
$TDUSRTIMER
 40
0.0000000116
  9
$USRTIMER
 70
     1
  9
$ANGBASE
 50
0.0
  9
$ANGDIR
 70
     0
  9
$PDMODE
 70
     0
  9
$PDSIZE
 40
-1.0
  9
$PLINEWID
 40
0.0
  9
$SPLFRAME
 70
     0
  9
$SPLINETYPE
 70
     6
  9
$SPLINESEGS
 70
     8
  9
$HANDSEED
  5
197
  9
$SURFTAB1
 70
     6
  9
$SURFTAB2
 70
     6
  9
$SURFTYPE
 70
     6
  9
$SURFU
 70
     6
  9
$SURFV
 70
     6
  9
$UCSBASE
  2

  9
$UCSNAME
  2

  9
$UCSORG
 10
0.0
 20
0.0
 30
0.0
  9
$UCSXDIR
 10
1.0
 20
0.0
 30
0.0
  9
$UCSYDIR
 10
0.0
 20
1.0
 30
0.0
  9
$UCSORTHOREF
  2

  9
$UCSORTHOVIEW
 70
     0
  9
$UCSORGTOP
 10
0.0
 20
0.0
 30
0.0
  9
$UCSORGBOTTOM
 10
0.0
 20
0.0
 30
0.0
  9
$UCSORGLEFT
 10
0.0
 20
0.0
 30
0.0
  9
$UCSORGRIGHT
 10
0.0
 20
0.0
 30
0.0
  9
$UCSORGFRONT
 10
0.0
 20
0.0
 30
0.0
  9
$UCSORGBACK
 10
0.0
 20
0.0
 30
0.0
  9
$PUCSBASE
  2

  9
$PUCSNAME
  2

  9
$PUCSORG
 10
0.0
 20
0.0
 30
0.0
  9
$PUCSXDIR
 10
1.0
 20
0.0
 30
0.0
  9
$PUCSYDIR
 10
0.0
 20
1.0
 30
0.0
  9
$PUCSORTHOREF
  2

  9
$PUCSORTHOVIEW
 70
     0
  9
$PUCSORGTOP
 10
0.0
 20
0.0
 30
0.0
  9
$PUCSORGBOTTOM
 10
0.0
 20
0.0
 30
0.0
  9
$PUCSORGLEFT
 10
0.0
 20
0.0
 30
0.0
  9
$PUCSORGRIGHT
 10
0.0
 20
0.0
 30
0.0
  9
$PUCSORGFRONT
 10
0.0
 20
0.0
 30
0.0
  9
$PUCSORGBACK
 10
0.0
 20
0.0
 30
0.0
  9
$USERI1
 70
     0
  9
$USERI2
 70
     0
  9
$USERI3
 70
     0
  9
$USERI4
 70
     0
  9
$USERI5
 70
     0
  9
$USERR1
 40
0.0
  9
$USERR2
 40
0.0
  9
$USERR3
 40
0.0
  9
$USERR4
 40
0.0
  9
$USERR5
 40
0.0
  9
$WORLDVIEW
 70
     1
  9
$SHADEDGE
 70
     3
  9
$SHADEDIF
 70
    70
  9
$TILEMODE
 70
     1
  9
$MAXACTVP
 70
    64
  9
$PINSBASE
 10
0.0
 20
0.0
 30
0.0
  9
$PLIMCHECK
 70
     0
  9
$PEXTMIN
 10
1.0000000000E+20
 20
1.0000000000E+20
 30
1.0000000000E+20
  9
$PEXTMAX
 10
-1.0000000000E+20
 20
-1.0000000000E+20
 30
-1.0000000000E+20
  9
$PLIMMIN
 10
0.0
 20
0.0
  9
$PLIMMAX
 10
420.0
 20
297.0
  9
$UNITMODE
 70
     0
  9
$VISRETAIN
 70
     1
  9
$PLINEGEN
 70
     0
  9
$PSLTSCALE
 70
     1
  9
$TREEDEPTH
 70
  3020
  9
$CMLSTYLE
  2
Standard
  9
$CMLJUST
 70
     0
  9
$CMLSCALE
 40
20.0
  9
$PROXYGRAPHICS
 70
     1
  9
$MEASUREMENT
 70
     1
  9
$CELWEIGHT
370
    -1
  9
$ENDCAPS
280
     0
  9
$JOINSTYLE
280
     0
  9
$LWDISPLAY
290
     1
  9
$INSUNITS
 70
     4
  9
$HYPERLINKBASE
  1

  9
$STYLESHEET
  1

  9
$XEDIT
290
     1
  9
$CEPSNTYPE
380
     0
  9
$PSTYLEMODE
290
     1
  9
$FINGERPRINTGUID
  2
{040AD790-5BCB-47D6-90CA-94BCA03620EF}
  9
$VERSIONGUID
  2
{FAEB1C32-E019-11D5-929B-00C0DF256EC4}
  9
$EXTNAMES
290
     1
  9
$PSVPSCALE
 40
0.0
  9
$OLESTARTUP
290
     0
  0
ENDSEC
  0
SECTION
  2
CLASSES
  0
CLASS
  1
ACDBDICTIONARYWDFLT
  2
AcDbDictionaryWithDefault
  3
ObjectDBX Classes
 90
        0
280
     0
281
     0
  0
CLASS
  1
VISUALSTYLE
  2
AcDbVisualStyle
  3
ObjectDBX Classes
 90
     4095
280
     0
281
     0
  0
CLASS
  1
MATERIAL
  2
AcDbMaterial
  3
ObjectDBX Classes
 90
     1153
280
     0
281
     0
  0
CLASS
  1
ACDBPLACEHOLDER
  2
AcDbPlaceHolder
  3
ObjectDBX Classes
 90
        0
280
     0
281
     0
  0
CLASS
  1
LAYOUT
  2
AcDbLayout
  3
ObjectDBX Classes
 90
        0
280
     0
281
     0
  0
ENDSEC
  0
SECTION
  2
TABLES
  0
TABLE
  2
VPORT
  5
8
330
0
100
AcDbSymbolTable
 70
     1
  0
VPORT
  5
29
330
8
100
AcDbSymbolTableRecord
100
AcDbViewportTableRecord
  2
*Active
 70
     0
 10
0.0
 20
0.0
 11
1.0
 21
1.0
 12
304.8
 22
228.6
 13
0.0
 23
0.0
 14
10.0
 24
10.0
 15
10.0
 25
10.0
 16
0.0
 26
0.0
 36
1.0
 17
0.0
 27
0.0
 37
0.0
 40
457.2
 41
1.3333333333
 42
50.0
 43
0.0
 44
0.0
 50
0.0
 51
0.0
 71
     0
 72
  2000
 73
     1
 74
     3
 75
     0
 76
     0
 77
     0
 78
     0
281
     0
 65
     1
110
0.0
120
0.0
130
0.0
111
1.0
121
0.0
131
0.0
112
0.0
122
1.0
132
0.0
 79
     0
146
0.0
  0
ENDTAB
  0
TABLE
  2
LTYPE
  5
5
330
0
100
AcDbSymbolTable
 70
     6
  0
LTYPE
  5
14
330
5
100
AcDbSymbolTableRecord
100
AcDbLinetypeTableRecord
  2
ByBlock
 70
     0
  3

 72
    65
 73
     0
 40
0.0
  0
LTYPE
  5
15
330
5
100
AcDbSymbolTableRecord
100
AcDbLinetypeTableRecord
  2
ByLayer
 70
     0
  3

 72
    65
 73
     0
 40
0.0
  0
LTYPE
  5
16
330
5
100
AcDbSymbolTableRecord
100
AcDbLinetypeTableRecord
  2
Continuous
 70
     0
  3
Solid line
 72
    65
 73
     0
 40
0.0
  0
LTYPE
  5
3F
330
5
100
AcDbSymbolTableRecord
100
AcDbLinetypeTableRecord
  2
HIDDEN
 70
     0
  3
Hidden __ __ __ __ __ __ __ __ __ __ __ __ __ __
 72
    65
 73
     2
 40
1.905
 49
1.27
 74
     0
 49
-0.635
 74
     0
  0
LTYPE
  5
40
330
5
100
AcDbSymbolTableRecord
100
AcDbLinetypeTableRecord
  2
PHANTOM
 70
     0
  3
Phantom ______  __  __  ______  __  __  ______
 72
    65
 73
     6
 40
12.7
 49
6.35
 74
     0
 49
-1.27
 74
     0
 49
1.27
 74
     0
 49
-1.27
 74
     0
 49
1.27
 74
     0
 49
-1.27
 74
     0
  0
LTYPE
  5
41
330
5
100
AcDbSymbolTableRecord
100
AcDbLinetypeTableRecord
  2
CENTER
 70
     0
  3
Center ____ _ ____ _ ____ _ ____ _ ____ _ ____
 72
    65
 73
     4
 40
10.16
 49
6.35
 74
     0
 49
-1.27
 74
     0
 49
1.27
 74
     0
 49
-1.27
 74
     0
  0
LTYPE
  5
42
330
5
100
AcDbSymbolTableRecord
100
AcDbLinetypeTableRecord
  2
CENTERX2
 70
     0
  3
Center (2x) ________  __  ________  __  _____
 72
    65
 73
     4
 40
20.32
 49
12.7
 74
     0
 49
-2.54
 74
     0
 49
2.54
 74
     0
 49
-2.54
 74
     0
  0
LTYPE
  5
43
330
5
100
AcDbSymbolTableRecord
100
AcDbLinetypeTableRecord
  2
DOT2
 70
     0
  3
Dot (.5x) ........................................
 72
    65
 73
     2
 40
0.635
 49
0.0
 74
     0
 49
-0.635
 74
     0
  0
ENDTAB
  0
TABLE
  2
LAYER
  5
2
330
0
100
AcDbSymbolTable
 70
     1
  0
LAYER
  5
10
330
2
100
AcDbSymbolTableRecord
100
AcDbLayerTableRecord
  2
0
 70
     0
 62
     7
  6
Continuous
370
    -3
390
F
  0
ENDTAB
  0
TABLE
  2
STYLE
  5
3
330
0
100
AcDbSymbolTable
 70
     2
  0
STYLE
  5
11
330
3
100
AcDbSymbolTableRecord
100
AcDbTextStyleTableRecord
  2
Standard
 70
     0
 40
0.0
 41
1.0
 50
0.0
 71
     0
 42
3.175
  3
txt
  4

  0
STYLE
  5
194
330
3
100
AcDbSymbolTableRecord
100
AcDbTextStyleTableRecord
  2
SLDTEXTSTYLE0
 70
     0
 40
0.0
 41
0.7
 50
0.0
 71
     0
 42
0.2
  3
TXT
  4

  0
ENDTAB
  0
TABLE
  2
VIEW
  5
6
330
0
100
AcDbSymbolTable
 70
     0
  0
ENDTAB
  0
TABLE
  2
UCS
  5
7
330
0
100
AcDbSymbolTable
 70
     0
  0
ENDTAB
  0
TABLE
  2
APPID
  5
9
330
0
100
AcDbSymbolTable
 70
     1
  0
APPID
  5
12
330
9
100
AcDbSymbolTableRecord
100
AcDbRegAppTableRecord
  2
ACAD
 70
     0
  0
ENDTAB
  0
TABLE
  2
DIMSTYLE
  5
A
330
0
100
AcDbSymbolTable
 70
     1
100
AcDbDimStyleTable
  0
DIMSTYLE
105
27
330
A
100
AcDbSymbolTableRecord
100
AcDbDimStyleTableRecord
  2
ISO-25
 70
     0
 41
2.5
 42
0.625
 43
3.75
 44
1.25
 73
     0
 74
     0
 77
     1
 78
     8
140
2.5
141
2.5
143
0.0393700787
147
0.625
171
     3
172
     1
178
     0
271
     2
272
     2
274
     3
278
    44
283
     0
284
     8
340
11
  0
ENDTAB
  0
TABLE
  2
BLOCK_RECORD
  5
1
330
0
100
AcDbSymbolTable
 70
     1
  0
BLOCK_RECORD
  5
1F
330
1
100
AcDbSymbolTableRecord
100
AcDbBlockTableRecord
  2
*Model_Space
340
22
  0
BLOCK_RECORD
  5
1B
330
1
100
AcDbSymbolTableRecord
100
AcDbBlockTableRecord
  2
*Paper_Space
340
1E
  0
BLOCK_RECORD
  5
23
330
1
100
AcDbSymbolTableRecord
100
AcDbBlockTableRecord
  2
*Paper_Space0
340
26
  0
ENDTAB
  0
ENDSEC
  0
SECTION
  2
BLOCKS
  0
BLOCK
  5
20
330
1F
100
AcDbEntity
  8
0
100
AcDbBlockBegin
  2
*Model_Space
 70
     0
 10
0.0
 20
0.0
 30
0.0
  3
*Model_Space
  1

  0
ENDBLK
  5
21
330
1F
100
AcDbEntity
  8
0
100
AcDbBlockEnd
  0
BLOCK
  5
1C
330
1B
100
AcDbEntity
 67
     1
  8
0
100
AcDbBlockBegin
  2
*Paper_Space
 70
     0
 10
0.0
 20
0.0
 30
0.0
  3
*Paper_Space
  1

  0
ENDBLK
  5
1D
330
1B
100
AcDbEntity
 67
     1
  8
0
100
AcDbBlockEnd
  0
BLOCK
  5
24
330
23
100
AcDbEntity
  8
0
100
AcDbBlockBegin
  2
*Paper_Space0
 70
     0
 10
0.0
 20
0.0
 30
0.0
  3
*Paper_Space0
  1

  0
ENDBLK
  5
25
330
23
100
AcDbEntity
  8
0
100
AcDbBlockEnd
  0
ENDSEC
  0
SECTION
  2
ENTITIES
  0
LINE
  5
44
330
1F
100
AcDbEntity
  8
0
  6
Continuous
 62
     7
370
    15
100
AcDbLine
 10
181.9461040922
 20
78.6575039757
 30
0.0
 11
184.7461040922
 21
78.6575039757
 31
0.0
  0
LINE
  5
45
330
1F
100
AcDbEntity
  8
0
  6
Continuous
 62
     7
370
    15
100
AcDbLine
 10
184.7461040922
 20
78.6575039757
 30
0.0
 11
184.7461040922
 21
58.6575039757
 31
0.0
  0
LINE
  5
46
330
1F
100
AcDbEntity
  8
0
  6
Continuous
 62
     7
370
    15
100
AcDbLine
 10
184.7461040922
 20
58.6575039757
 30
0.0
 11
181.9461040922
 21
58.6575039757
 31
0.0
  0
LINE
  5
47
330
1F
100
AcDbEntity
  8
0
  6
Continuous
 62
     7
370
    15
100
AcDbLine
 10
181.9461040922
 20
58.6575039757
 30
0.0
 11
141.9461040922
 21
98.6575039757
 31
0.0
  0
LINE
  5
48
330
1F
100
AcDbEntity
  8
0
  6
Continuous
 62
     7
370
    15
100
AcDbLine
 10
141.9461040922
 20
98.6575039757
 30
0.0
 11
141.9461040922
 21
104.2575039757
 31
0.0
  0
LINE
  5
49
330
1F
100
AcDbEntity
  8
0
  6
Continuous
 62
     7
370
    15
100
AcDbLine
 10
141.9461040922
 20
104.2575039757
 30
0.0
 11
161.9461040922
 21
104.2575039757
 31
0.0
  0
LINE
  5
4A
330
1F
100
AcDbEntity
  8
0
  6
Continuous
 62
     7
370
    15
100
AcDbLine
 10
161.9461040922
 20
104.2575039757
 30
0.0
 11
161.9461040922
 21
98.6575039757
 31
0.0
  0
LINE
  5
4B
330
1F
100
AcDbEntity
  8
0
  6
Continuous
 62
     7
370
    15
100
AcDbLine
 10
161.9461040922
 20
98.6575039757
 30
0.0
 11
181.9461040922
 21
98.6575039757
 31
0.0
  0
LINE
  5
4C
330
1F
100
AcDbEntity
  8
0
  6
Continuous
 62
     7
370
    15
100
AcDbLine
 10
181.9461040922
 20
98.6575039757
 30
0.0
 11
181.9461040922
 21
78.6575039757
 31
0.0
  0
CIRCLE
  5
4D
330
1F
100
AcDbEntity
  8
0
  6
Continuous
 62
     1
370
    15
100
AcDbCircle
 10
26.1525839291
 20
365.0168082908
 30
0.0
 40
1.750000000000057
  0
CIRCLE
  5
4E
330
1F
100
AcDbEntity
  8
0
  6
Continuous
 62
     1
370
    15
100
AcDbCircle
 10
94.1525839291
 20
399.0168082908
 30
0.0
 40
1.749999999999943
  0
CIRCLE
  5
4F
330
1F
100
AcDbEntity
  8
0
  6
Continuous
 62
     1
370
    15
100
AcDbCircle
 10
60.1525839291
 20
433.0168082908
 30
0.0
 40
1.75
  0
LINE
  5
50
330
1F
100
AcDbEntity
  8
0
  6
Continuous
 62
     7
370
    15
100
AcDbLine
 10
109.1525839291
 20
448.0168082908
 30
0.0
 11
11.1525839291
 21
448.0168082908
 31
0.0
  0
LINE
  5
51
330
1F
100
AcDbEntity
  8
0
  6
Continuous
 62
     7
370
    15
100
AcDbLine
 10
109.1525839291
 20
350.0168082908
 30
0.0
 11
109.1525839291
 21
448.0168082908
 31
0.0
  0
LINE
  5
52
330
1F
100
AcDbEntity
  8
0
  6
Continuous
 62
     7
370
    15
100
AcDbLine
 10
11.1525839291
 20
350.0168082908
 30
0.0
 11
109.1525839291
 21
350.0168082908
 31
0.0
  0
LINE
  5
53
330
1F
100
AcDbEntity
  8
0
  6
Continuous
 62
     7
370
    15
100
AcDbLine
 10
11.1525839291
 20
448.0168082908
 30
0.0
 11
11.1525839291
 21
350.0168082908
 31
0.0
  0
CIRCLE
  5
54
330
1F
100
AcDbEntity
  8
0
  6
Continuous
 62
     1
370
    15
100
AcDbCircle
 10
26.1525839291
 20
433.0168082908
 30
0.0
 40
1.75
  0
CIRCLE
  5
55
330
1F
100
AcDbEntity
  8
0
  6
Continuous
 62
     1
370
    15
100
AcDbCircle
 10
94.1525839291
 20
433.0168082908
 30
0.0
 40
1.75
  0
CIRCLE
  5
56
330
1F
100
AcDbEntity
  8
0
  6
Continuous
 62
     1
370
    15
100
AcDbCircle
 10
60.1525839291
 20
365.0168082908
 30
0.0
 40
1.750000000000057
  0
CIRCLE
  5
57
330
1F
100
AcDbEntity
  8
0
  6
Continuous
 62
     1
370
    15
100
AcDbCircle
 10
26.1525839291
 20
399.0168082908
 30
0.0
 40
1.749999999999943
  0
CIRCLE
  5
58
330
1F
100
AcDbEntity
  8
0
  6
Continuous
 62
     1
370
    15
100
AcDbCircle
 10
70.7591856469
 20
388.410206573
 30
0.0
 40
1.600000000000023
  0
CIRCLE
  5
59
330
1F
100
AcDbEntity
  8
0
  6
Continuous
 62
     1
370
    15
100
AcDbCircle
 10
93.7591856469
 20
388.410206573
 30
0.0
 40
1.599999999999966
  0
CIRCLE
  5
5A
330
1F
100
AcDbEntity
  8
0
  6
Continuous
 62
     1
370
    15
100
AcDbCircle
 10
93.7591856469
 20
409.6234100086
 30
0.0
 40
1.600000000000023
  0
CIRCLE
  5
5B
330
1F
100
AcDbEntity
  8
0
  6
Continuous
 62
     1
370
    15
100
AcDbCircle
 10
60.1525839291
 20
414.0168082908
 30
0.0
 40
1.600000000000023
  0
CIRCLE
  5
5C
330
1F
100
AcDbEntity
  8
0
  6
Continuous
 62
     1
370
    15
100
AcDbCircle
 10
83.1525839291
 20
399.0168082908
 30
0.0
 40
4.049999999999898
  0
CIRCLE
  5
5D
330
1F
100
AcDbEntity
  8
0
  6
Continuous
 62
     1
370
    15
100
AcDbCircle
 10
45.1525839291
 20
399.0168082908
 30
0.0
 40
1.599999999999966
  0
CIRCLE
  5
5E
330
1F
100
AcDbEntity
  8
0
  6
Continuous
 62
     1
370
    15
100
AcDbCircle
 10
70.7591856469
 20
365.410206573
 30
0.0
 40
1.600000000000023
  0
CIRCLE
  5
5F
330
1F
100
AcDbEntity
  8
0
  6
Continuous
 62
     1
370
    15
100
AcDbCircle
 10
49.5459822113
 20
365.410206573
 30
0.0
 40
1.600000000000023
  0
CIRCLE
  5
60
330
1F
100
AcDbEntity
  8
0
  6
Continuous
 62
     1
370
    15
100
AcDbCircle
 10
60.1525839291
 20
376.0168082908
 30
0.0
 40
4.050000000000011
  0
CIRCLE
  5
61
330
1F
100
AcDbEntity
  8
0
  6
Continuous
 62
     1
370
    15
100
AcDbCircle
 10
94.1525839291
 20
365.0168082908
 30
0.0
 40
1.750000000000057
  0
CIRCLE
  5
62
330
1F
100
AcDbEntity
  8
0
  6
Continuous
 62
     1
370
    15
100
AcDbCircle
 10
130.8888481505
 20
365.6975443262
 30
0.0
 40
1.750000000000057
  0
CIRCLE
  5
63
330
1F
100
AcDbEntity
  8
0
  6
Continuous
 62
     1
370
    15
100
AcDbCircle
 10
198.8888481505
 20
399.6975443262
 30
0.0
 40
1.749999999999943
  0
CIRCLE
  5
64
330
1F
100
AcDbEntity
  8
0
  6
Continuous
 62
     1
370
    15
100
AcDbCircle
 10
164.8888481505
 20
433.6975443262
 30
0.0
 40
1.75
  0
LINE
  5
65
330
1F
100
AcDbEntity
  8
0
  6
Continuous
 62
     7
370
    15
100
AcDbLine
 10
213.8888481505
 20
448.6975443262
 30
0.0
 11
115.8888481505
 21
448.6975443262
 31
0.0
  0
LINE
  5
66
330
1F
100
AcDbEntity
  8
0
  6
Continuous
 62
     7
370
    15
100
AcDbLine
 10
213.8888481505
 20
350.6975443262
 30
0.0
 11
213.8888481505
 21
448.6975443262
 31
0.0
  0
LINE
  5
67
330
1F
100
AcDbEntity
  8
0
  6
Continuous
 62
     7
370
    15
100
AcDbLine
 10
115.8888481505
 20
350.6975443262
 30
0.0
 11
213.8888481505
 21
350.6975443262
 31
0.0
  0
LINE
  5
68
330
1F
100
AcDbEntity
  8
0
  6
Continuous
 62
     7
370
    15
100
AcDbLine
 10
115.8888481505
 20
448.6975443262
 30
0.0
 11
115.8888481505
 21
350.6975443262
 31
0.0
  0
CIRCLE
  5
69
330
1F
100
AcDbEntity
  8
0
  6
Continuous
 62
     1
370
    15
100
AcDbCircle
 10
130.8888481505
 20
433.6975443262
 30
0.0
 40
1.75
  0
CIRCLE
  5
6A
330
1F
100
AcDbEntity
  8
0
  6
Continuous
 62
     1
370
    15
100
AcDbCircle
 10
198.8888481505
 20
433.6975443262
 30
0.0
 40
1.75
  0
CIRCLE
  5
6B
330
1F
100
AcDbEntity
  8
0
  6
Continuous
 62
     1
370
    15
100
AcDbCircle
 10
164.8888481505
 20
365.6975443262
 30
0.0
 40
1.750000000000057
  0
CIRCLE
  5
6C
330
1F
100
AcDbEntity
  8
0
  6
Continuous
 62
     1
370
    15
100
AcDbCircle
 10
130.8888481505
 20
399.6975443262
 30
0.0
 40
1.749999999999943
  0
CIRCLE
  5
6D
330
1F
100
AcDbEntity
  8
0
  6
Continuous
 62
     1
370
    15
100
AcDbCircle
 10
175.4954498683
 20
389.0909426084
 30
0.0
 40
1.60000000000008
  0
CIRCLE
  5
6E
330
1F
100
AcDbEntity
  8
0
  6
Continuous
 62
     1
370
    15
100
AcDbCircle
 10
198.4954498683
 20
389.0909426084
 30
0.0
 40
1.600000000000023
  0
CIRCLE
  5
6F
330
1F
100
AcDbEntity
  8
0
  6
Continuous
 62
     1
370
    15
100
AcDbCircle
 10
198.4954498683
 20
410.304146044
 30
0.0
 40
1.599999999999966
  0
CIRCLE
  5
70
330
1F
100
AcDbEntity
  8
0
  6
Continuous
 62
     1
370
    15
100
AcDbCircle
 10
164.8888481505
 20
414.6975443262
 30
0.0
 40
1.599999999999966
  0
CIRCLE
  5
71
330
1F
100
AcDbEntity
  8
0
  6
Continuous
 62
     1
370
    15
100
AcDbCircle
 10
187.8888481505
 20
399.6975443262
 30
0.0
 40
4.049999999999955
  0
CIRCLE
  5
72
330
1F
100
AcDbEntity
  8
0
  6
Continuous
 62
     1
370
    15
100
AcDbCircle
 10
149.8888481505
 20
399.6975443262
 30
0.0
 40
1.599999999999966
  0
CIRCLE
  5
73
330
1F
100
AcDbEntity
  8
0
  6
Continuous
 62
     1
370
    15
100
AcDbCircle
 10
175.4954498683
 20
366.0909426084
 30
0.0
 40
1.599999999999966
  0
CIRCLE
  5
74
330
1F
100
AcDbEntity
  8
0
  6
Continuous
 62
     1
370
    15
100
AcDbCircle
 10
154.2822464327
 20
366.0909426084
 30
0.0
 40
1.599999999999966
  0
CIRCLE
  5
75
330
1F
100
AcDbEntity
  8
0
  6
Continuous
 62
     1
370
    15
100
AcDbCircle
 10
164.8888481505
 20
376.6975443262
 30
0.0
 40
4.050000000000011
  0
CIRCLE
  5
76
330
1F
100
AcDbEntity
  8
0
  6
Continuous
 62
     1
370
    15
100
AcDbCircle
 10
198.8888481505
 20
365.6975443262
 30
0.0
 40
1.750000000000057
  0
CIRCLE
  5
77
330
1F
100
AcDbEntity
  8
0
  6
Continuous
 62
     1
370
    15
100
AcDbCircle
 10
25.6859101117
 20
259.3834705617
 30
0.0
 40
1.749999999999943
  0
CIRCLE
  5
78
330
1F
100
AcDbEntity
  8
0
  6
Continuous
 62
     1
370
    15
100
AcDbCircle
 10
93.6859101117
 20
293.3834705617
 30
0.0
 40
1.75
  0
CIRCLE
  5
79
330
1F
100
AcDbEntity
  8
0
  6
Continuous
 62
     1
370
    15
100
AcDbCircle
 10
59.6859101117
 20
327.3834705617
 30
0.0
 40
1.75
  0
LINE
  5
7A
330
1F
100
AcDbEntity
  8
0
  6
Continuous
 62
     7
370
    15
100
AcDbLine
 10
108.6859101117
 20
342.3834705617
 30
0.0
 11
10.6859101117
 21
342.3834705617
 31
0.0
  0
LINE
  5
7B
330
1F
100
AcDbEntity
  8
0
  6
Continuous
 62
     7
370
    15
100
AcDbLine
 10
108.6859101117
 20
244.3834705617
 30
0.0
 11
108.6859101117
 21
342.3834705617
 31
0.0
  0
LINE
  5
7C
330
1F
100
AcDbEntity
  8
0
  6
Continuous
 62
     7
370
    15
100
AcDbLine
 10
10.6859101117
 20
244.3834705617
 30
0.0
 11
108.6859101117
 21
244.3834705617
 31
0.0
  0
LINE
  5
7D
330
1F
100
AcDbEntity
  8
0
  6
Continuous
 62
     7
370
    15
100
AcDbLine
 10
10.6859101117
 20
342.3834705617
 30
0.0
 11
10.6859101117
 21
244.3834705617
 31
0.0
  0
CIRCLE
  5
7E
330
1F
100
AcDbEntity
  8
0
  6
Continuous
 62
     1
370
    15
100
AcDbCircle
 10
25.6859101117
 20
327.3834705617
 30
0.0
 40
1.75
  0
CIRCLE
  5
7F
330
1F
100
AcDbEntity
  8
0
  6
Continuous
 62
     1
370
    15
100
AcDbCircle
 10
93.6859101117
 20
327.3834705617
 30
0.0
 40
1.75
  0
CIRCLE
  5
80
330
1F
100
AcDbEntity
  8
0
  6
Continuous
 62
     1
370
    15
100
AcDbCircle
 10
59.6859101117
 20
259.3834705617
 30
0.0
 40
1.749999999999943
  0
CIRCLE
  5
81
330
1F
100
AcDbEntity
  8
0
  6
Continuous
 62
     1
370
    15
100
AcDbCircle
 10
25.6859101117
 20
293.3834705617
 30
0.0
 40
1.750000000000057
  0
CIRCLE
  5
82
330
1F
100
AcDbEntity
  8
0
  6
Continuous
 62
     1
370
    15
100
AcDbCircle
 10
70.2925118295
 20
282.7768688439
 30
0.0
 40
1.600000000000023
  0
CIRCLE
  5
83
330
1F
100
AcDbEntity
  8
0
  6
Continuous
 62
     1
370
    15
100
AcDbCircle
 10
93.2925118295
 20
282.7768688439
 30
0.0
 40
1.600000000000023
  0
CIRCLE
  5
84
330
1F
100
AcDbEntity
  8
0
  6
Continuous
 62
     1
370
    15
100
AcDbCircle
 10
93.2925118295
 20
303.9900722795
 30
0.0
 40
1.599999999999966
  0
CIRCLE
  5
85
330
1F
100
AcDbEntity
  8
0
  6
Continuous
 62
     1
370
    15
100
AcDbCircle
 10
59.6859101117
 20
308.3834705617
 30
0.0
 40
1.599999999999966
  0
CIRCLE
  5
86
330
1F
100
AcDbEntity
  8
0
  6
Continuous
 62
     1
370
    15
100
AcDbCircle
 10
82.6859101117
 20
293.3834705617
 30
0.0
 40
4.050000000000011
  0
CIRCLE
  5
87
330
1F
100
AcDbEntity
  8
0
  6
Continuous
 62
     1
370
    15
100
AcDbCircle
 10
44.6859101117
 20
293.3834705617
 30
0.0
 40
1.600000000000023
  0
CIRCLE
  5
88
330
1F
100
AcDbEntity
  8
0
  6
Continuous
 62
     1
370
    15
100
AcDbCircle
 10
70.2925118295
 20
259.7768688439
 30
0.0
 40
1.600000000000023
  0
CIRCLE
  5
89
330
1F
100
AcDbEntity
  8
0
  6
Continuous
 62
     1
370
    15
100
AcDbCircle
 10
49.0793083939
 20
259.7768688439
 30
0.0
 40
1.600000000000023
  0
CIRCLE
  5
8A
330
1F
100
AcDbEntity
  8
0
  6
Continuous
 62
     1
370
    15
100
AcDbCircle
 10
59.6859101117
 20
270.3834705617
 30
0.0
 40
4.049999999999955
  0
CIRCLE
  5
8B
330
1F
100
AcDbEntity
  8
0
  6
Continuous
 62
     1
370
    15
100
AcDbCircle
 10
93.6859101117
 20
259.3834705617
 30
0.0
 40
1.749999999999943
  0
CIRCLE
  5
8C
330
1F
100
AcDbEntity
  8
0
  6
Continuous
 62
     1
370
    15
100
AcDbCircle
 10
131.4333928161
 20
260.8502872662
 30
0.0
 40
1.750000000000057
  0
CIRCLE
  5
8D
330
1F
100
AcDbEntity
  8
0
  6
Continuous
 62
     1
370
    15
100
AcDbCircle
 10
199.4333928161
 20
294.8502872662
 30
0.0
 40
1.749999999999943
  0
CIRCLE
  5
8E
330
1F
100
AcDbEntity
  8
0
  6
Continuous
 62
     1
370
    15
100
AcDbCircle
 10
165.4333928161
 20
328.8502872662
 30
0.0
 40
1.75
  0
LINE
  5
8F
330
1F
100
AcDbEntity
  8
0
  6
Continuous
 62
     7
370
    15
100
AcDbLine
 10
214.4333928161
 20
343.8502872662
 30
0.0
 11
116.4333928161
 21
343.8502872662
 31
0.0
  0
LINE
  5
90
330
1F
100
AcDbEntity
  8
0
  6
Continuous
 62
     7
370
    15
100
AcDbLine
 10
214.4333928161
 20
245.8502872662
 30
0.0
 11
214.4333928161
 21
343.8502872662
 31
0.0
  0
LINE
  5
91
330
1F
100
AcDbEntity
  8
0
  6
Continuous
 62
     7
370
    15
100
AcDbLine
 10
116.4333928161
 20
245.8502872662
 30
0.0
 11
214.4333928161
 21
245.8502872662
 31
0.0
  0
LINE
  5
92
330
1F
100
AcDbEntity
  8
0
  6
Continuous
 62
     7
370
    15
100
AcDbLine
 10
116.4333928161
 20
343.8502872662
 30
0.0
 11
116.4333928161
 21
245.8502872662
 31
0.0
  0
CIRCLE
  5
93
330
1F
100
AcDbEntity
  8
0
  6
Continuous
 62
     1
370
    15
100
AcDbCircle
 10
131.4333928161
 20
328.8502872662
 30
0.0
 40
1.75
  0
CIRCLE
  5
94
330
1F
100
AcDbEntity
  8
0
  6
Continuous
 62
     1
370
    15
100
AcDbCircle
 10
199.4333928161
 20
328.8502872662
 30
0.0
 40
1.75
  0
CIRCLE
  5
95
330
1F
100
AcDbEntity
  8
0
  6
Continuous
 62
     1
370
    15
100
AcDbCircle
 10
165.4333928161
 20
260.8502872662
 30
0.0
 40
1.750000000000057
  0
CIRCLE
  5
96
330
1F
100
AcDbEntity
  8
0
  6
Continuous
 62
     1
370
    15
100
AcDbCircle
 10
131.4333928161
 20
294.8502872662
 30
0.0
 40
1.749999999999943
  0
CIRCLE
  5
97
330
1F
100
AcDbEntity
  8
0
  6
Continuous
 62
     1
370
    15
100
AcDbCircle
 10
176.0399945339
 20
284.2436855484
 30
0.0
 40
1.600000000000023
  0
CIRCLE
  5
98
330
1F
100
AcDbEntity
  8
0
  6
Continuous
 62
     1
370
    15
100
AcDbCircle
 10
199.0399945339
 20
284.2436855484
 30
0.0
 40
1.599999999999966
  0
CIRCLE
  5
99
330
1F
100
AcDbEntity
  8
0
  6
Continuous
 62
     1
370
    15
100
AcDbCircle
 10
199.0399945339
 20
305.456888984
 30
0.0
 40
1.600000000000023
  0
CIRCLE
  5
9A
330
1F
100
AcDbEntity
  8
0
  6
Continuous
 62
     1
370
    15
100
AcDbCircle
 10
165.4333928161
 20
309.8502872662
 30
0.0
 40
1.600000000000023
  0
CIRCLE
  5
9B
330
1F
100
AcDbEntity
  8
0
  6
Continuous
 62
     1
370
    15
100
AcDbCircle
 10
188.4333928161
 20
294.8502872662
 30
0.0
 40
4.049999999999898
  0
CIRCLE
  5
9C
330
1F
100
AcDbEntity
  8
0
  6
Continuous
 62
     1
370
    15
100
AcDbCircle
 10
150.4333928161
 20
294.8502872662
 30
0.0
 40
1.599999999999966
  0
CIRCLE
  5
9D
330
1F
100
AcDbEntity
  8
0
  6
Continuous
 62
     1
370
    15
100
AcDbCircle
 10
176.0399945339
 20
261.2436855484
 30
0.0
 40
1.600000000000023
  0
CIRCLE
  5
9E
330
1F
100
AcDbEntity
  8
0
  6
Continuous
 62
     1
370
    15
100
AcDbCircle
 10
154.8267910983
 20
261.2436855484
 30
0.0
 40
1.600000000000023
  0
CIRCLE
  5
9F
330
1F
100
AcDbEntity
  8
0
  6
Continuous
 62
     1
370
    15
100
AcDbCircle
 10
165.4333928161
 20
271.8502872662
 30
0.0
 40
4.050000000000011
  0
CIRCLE
  5
A0
330
1F
100
AcDbEntity
  8
0
  6
Continuous
 62
     1
370
    15
100
AcDbCircle
 10
199.4333928161
 20
260.8502872662
 30
0.0
 40
1.750000000000057
  0
CIRCLE
  5
A1
330
1F
100
AcDbEntity
  8
0
  6
Continuous
 62
     1
370
    15
100
AcDbCircle
 10
237.1270251292
 20
399.6975443262
 30
0.0
 40
2.749999999999943
  0
CIRCLE
  5
A2
330
1F
100
AcDbEntity
  8
0
  6
Continuous
 62
     1
370
    15
100
AcDbCircle
 10
271.1270251292
 20
433.6975443262
 30
0.0
 40
2.75
  0
CIRCLE
  5
A3
330
1F
100
AcDbEntity
  8
0
  6
Continuous
 62
     1
370
    15
100
AcDbCircle
 10
305.1270251292
 20
399.6975443262
 30
0.0
 40
2.75
  0
CIRCLE
  5
A4
330
1F
100
AcDbEntity
  8
0
  6
Continuous
 62
     1
370
    15
100
AcDbCircle
 10
271.1270251292
 20
365.6975443262
 30
0.0
 40
2.750000000000057
  0
LINE
  5
A5
330
1F
100
AcDbEntity
  8
0
  6
Continuous
 62
     7
370
    15
100
AcDbLine
 10
320.1270251292
 20
350.6975443262
 30
0.0
 11
320.1270251292
 21
448.6975443262
 31
0.0
  0
LINE
  5
A6
330
1F
100
AcDbEntity
  8
0
  6
Continuous
 62
     7
370
    15
100
AcDbLine
 10
222.1270251292
 20
350.6975443262
 30
0.0
 11
320.1270251292
 21
350.6975443262
 31
0.0
  0
LINE
  5
A7
330
1F
100
AcDbEntity
  8
0
  6
Continuous
 62
     7
370
    15
100
AcDbLine
 10
222.1270251292
 20
448.6975443262
 30
0.0
 11
222.1270251292
 21
350.6975443262
 31
0.0
  0
LINE
  5
A8
330
1F
100
AcDbEntity
  8
0
  6
Continuous
 62
     7
370
    15
100
AcDbLine
 10
320.1270251292
 20
448.6975443262
 30
0.0
 11
222.1270251292
 21
448.6975443262
 31
0.0
  0
CIRCLE
  5
A9
330
1F
100
AcDbEntity
  8
0
  6
Continuous
 62
     1
370
    15
100
AcDbCircle
 10
237.1270251292
 20
365.6975443262
 30
0.0
 40
2.750000000000057
  0
CIRCLE
  5
AA
330
1F
100
AcDbEntity
  8
0
  6
Continuous
 62
     1
370
    15
100
AcDbCircle
 10
305.1270251292
 20
365.6975443262
 30
0.0
 40
2.750000000000057
  0
CIRCLE
  5
AB
330
1F
100
AcDbEntity
  8
0
  6
Continuous
 62
     1
370
    15
100
AcDbCircle
 10
305.1270251292
 20
433.6975443262
 30
0.0
 40
2.75
  0
CIRCLE
  5
AC
330
1F
100
AcDbEntity
  8
0
  6
Continuous
 62
     1
370
    15
100
AcDbCircle
 10
237.1270251292
 20
433.6975443262
 30
0.0
 40
2.75
  0
CIRCLE
  5
AD
330
1F
100
AcDbEntity
  8
0
  6
Continuous
 62
     1
370
    15
100
AcDbCircle
 10
271.1270251292
 20
414.6975443262
 30
0.0
 40
2.749999999999943
  0
CIRCLE
  5
AE
330
1F
100
AcDbEntity
  8
0
  6
Continuous
 62
     1
370
    15
100
AcDbCircle
 10
281.733626847
 20
389.0909426084
 30
0.0
 40
2.750000000000057
  0
CIRCLE
  5
AF
330
1F
100
AcDbEntity
  8
0
  6
Continuous
 62
     1
370
    15
100
AcDbCircle
 10
281.733626847
 20
366.0909426084
 30
0.0
 40
2.749999999999943
  0
CIRCLE
  5
B0
330
1F
100
AcDbEntity
  8
0
  6
Continuous
 62
     1
370
    15
100
AcDbCircle
 10
260.5204234114
 20
366.0909426084
 30
0.0
 40
2.749999999999943
  0
CIRCLE
  5
B1
330
1F
100
AcDbEntity
  8
0
  6
Continuous
 62
     1
370
    15
100
AcDbCircle
 10
256.1270251292
 20
399.6975443262
 30
0.0
 40
2.75
  0
CIRCLE
  5
B2
330
1F
100
AcDbEntity
  8
0
  6
Continuous
 62
     1
370
    15
100
AcDbCircle
 10
304.733626847
 20
389.0909426084
 30
0.0
 40
2.75
  0
CIRCLE
  5
B3
330
1F
100
AcDbEntity
  8
0
  6
Continuous
 62
     1
370
    15
100
AcDbCircle
 10
304.733626847
 20
410.304146044
 30
0.0
 40
2.749999999999943
  0
CIRCLE
  5
B4
330
1F
100
AcDbEntity
  8
0
  6
Continuous
 62
     1
370
    15
100
AcDbCircle
 10
237.0520559788
 20
295.6806700738
 30
0.0
 40
2.749999999999943
  0
CIRCLE
  5
B5
330
1F
100
AcDbEntity
  8
0
  6
Continuous
 62
     1
370
    15
100
AcDbCircle
 10
271.0520559788
 20
329.6806700738
 30
0.0
 40
2.75
  0
CIRCLE
  5
B6
330
1F
100
AcDbEntity
  8
0
  6
Continuous
 62
     1
370
    15
100
AcDbCircle
 10
305.0520559788
 20
295.6806700738
 30
0.0
 40
2.75
  0
CIRCLE
  5
B7
330
1F
100
AcDbEntity
  8
0
  6
Continuous
 62
     1
370
    15
100
AcDbCircle
 10
271.0520559788
 20
261.6806700738
 30
0.0
 40
2.750000000000057
  0
LINE
  5
B8
330
1F
100
AcDbEntity
  8
0
  6
Continuous
 62
     7
370
    15
100
AcDbLine
 10
320.0520559788
 20
246.6806700738
 30
0.0
 11
320.0520559788
 21
344.6806700738
 31
0.0
  0
LINE
  5
B9
330
1F
100
AcDbEntity
  8
0
  6
Continuous
 62
     7
370
    15
100
AcDbLine
 10
222.0520559788
 20
246.6806700738
 30
0.0
 11
320.0520559788
 21
246.6806700738
 31
0.0
  0
LINE
  5
BA
330
1F
100
AcDbEntity
  8
0
  6
Continuous
 62
     7
370
    15
100
AcDbLine
 10
222.0520559788
 20
344.6806700738
 30
0.0
 11
222.0520559788
 21
246.6806700738
 31
0.0
  0
LINE
  5
BB
330
1F
100
AcDbEntity
  8
0
  6
Continuous
 62
     7
370
    15
100
AcDbLine
 10
320.0520559788
 20
344.6806700738
 30
0.0
 11
222.0520559788
 21
344.6806700738
 31
0.0
  0
CIRCLE
  5
BC
330
1F
100
AcDbEntity
  8
0
  6
Continuous
 62
     1
370
    15
100
AcDbCircle
 10
237.0520559788
 20
261.6806700738
 30
0.0
 40
2.750000000000057
  0
CIRCLE
  5
BD
330
1F
100
AcDbEntity
  8
0
  6
Continuous
 62
     1
370
    15
100
AcDbCircle
 10
305.0520559788
 20
261.6806700738
 30
0.0
 40
2.750000000000057
  0
CIRCLE
  5
BE
330
1F
100
AcDbEntity
  8
0
  6
Continuous
 62
     1
370
    15
100
AcDbCircle
 10
305.0520559788
 20
329.6806700738
 30
0.0
 40
2.75
  0
CIRCLE
  5
BF
330
1F
100
AcDbEntity
  8
0
  6
Continuous
 62
     1
370
    15
100
AcDbCircle
 10
237.0520559788
 20
329.6806700738
 30
0.0
 40
2.75
  0
CIRCLE
  5
C0
330
1F
100
AcDbEntity
  8
0
  6
Continuous
 62
     1
370
    15
100
AcDbCircle
 10
271.0520559788
 20
310.6806700738
 30
0.0
 40
2.749999999999943
  0
CIRCLE
  5
C1
330
1F
100
AcDbEntity
  8
0
  6
Continuous
 62
     1
370
    15
100
AcDbCircle
 10
281.6586576966
 20
285.074068356
 30
0.0
 40
2.750000000000057
  0
CIRCLE
  5
C2
330
1F
100
AcDbEntity
  8
0
  6
Continuous
 62
     1
370
    15
100
AcDbCircle
 10
281.6586576966
 20
262.074068356
 30
0.0
 40
2.75
  0
CIRCLE
  5
C3
330
1F
100
AcDbEntity
  8
0
  6
Continuous
 62
     1
370
    15
100
AcDbCircle
 10
260.445454261
 20
262.074068356
 30
0.0
 40
2.75
  0
CIRCLE
  5
C4
330
1F
100
AcDbEntity
  8
0
  6
Continuous
 62
     1
370
    15
100
AcDbCircle
 10
256.0520559788
 20
295.6806700738
 30
0.0
 40
2.75
  0
CIRCLE
  5
C5
330
1F
100
AcDbEntity
  8
0
  6
Continuous
 62
     1
370
    15
100
AcDbCircle
 10
304.6586576966
 20
285.074068356
 30
0.0
 40
2.75
  0
CIRCLE
  5
C6
330
1F
100
AcDbEntity
  8
0
  6
Continuous
 62
     1
370
    15
100
AcDbCircle
 10
304.6586576966
 20
306.2872717916
 30
0.0
 40
2.75
  0
LINE
  5
C7
330
1F
100
AcDbEntity
  8
0
  6
Continuous
 62
     7
370
    15
100
AcDbLine
 10
187.633045257
 20
116.9023521383
 30
0.0
 11
190.433045257
 21
116.9023521383
 31
0.0
  0
LINE
  5
C8
330
1F
100
AcDbEntity
  8
0
  6
Continuous
 62
     7
370
    15
100
AcDbLine
 10
190.433045257
 20
116.9023521383
 30
0.0
 11
190.433045257
 21
96.9023521383
 31
0.0
  0
LINE
  5
C9
330
1F
100
AcDbEntity
  8
0
  6
Continuous
 62
     7
370
    15
100
AcDbLine
 10
190.433045257
 20
96.9023521383
 30
0.0
 11
187.633045257
 21
96.9023521383
 31
0.0
  0
LINE
  5
CA
330
1F
100
AcDbEntity
  8
0
  6
Continuous
 62
     7
370
    15
100
AcDbLine
 10
187.633045257
 20
96.9023521383
 30
0.0
 11
147.633045257
 21
136.9023521383
 31
0.0
  0
LINE
  5
CB
330
1F
100
AcDbEntity
  8
0
  6
Continuous
 62
     7
370
    15
100
AcDbLine
 10
147.633045257
 20
136.9023521383
 30
0.0
 11
147.633045257
 21
142.5023521383
 31
0.0
  0
LINE
  5
CC
330
1F
100
AcDbEntity
  8
0
  6
Continuous
 62
     7
370
    15
100
AcDbLine
 10
147.633045257
 20
142.5023521383
 30
0.0
 11
167.633045257
 21
142.5023521383
 31
0.0
  0
LINE
  5
CD
330
1F
100
AcDbEntity
  8
0
  6
Continuous
 62
     7
370
    15
100
AcDbLine
 10
167.633045257
 20
142.5023521383
 30
0.0
 11
167.633045257
 21
136.9023521383
 31
0.0
  0
LINE
  5
CE
330
1F
100
AcDbEntity
  8
0
  6
Continuous
 62
     7
370
    15
100
AcDbLine
 10
167.633045257
 20
136.9023521383
 30
0.0
 11
187.633045257
 21
136.9023521383
 31
0.0
  0
LINE
  5
CF
330
1F
100
AcDbEntity
  8
0
  6
Continuous
 62
     7
370
    15
100
AcDbLine
 10
187.633045257
 20
136.9023521383
 30
0.0
 11
187.633045257
 21
116.9023521383
 31
0.0
  0
LINE
  5
D0
330
1F
100
AcDbEntity
  8
0
  6
Continuous
 62
     7
370
    15
100
AcDbLine
 10
187.6532568065
 20
163.4000287206
 30
0.0
 11
190.4532568065
 21
163.4000287206
 31
0.0
  0
LINE
  5
D1
330
1F
100
AcDbEntity
  8
0
  6
Continuous
 62
     7
370
    15
100
AcDbLine
 10
190.4532568065
 20
163.4000287206
 30
0.0
 11
190.4532568065
 21
143.4000287206
 31
0.0
  0
LINE
  5
D2
330
1F
100
AcDbEntity
  8
0
  6
Continuous
 62
     7
370
    15
100
AcDbLine
 10
190.4532568065
 20
143.4000287206
 30
0.0
 11
187.6532568065
 21
143.4000287206
 31
0.0
  0
LINE
  5
D3
330
1F
100
AcDbEntity
  8
0
  6
Continuous
 62
     7
370
    15
100
AcDbLine
 10
187.6532568065
 20
143.4000287206
 30
0.0
 11
147.6532568065
 21
183.4000287206
 31
0.0
  0
LINE
  5
D4
330
1F
100
AcDbEntity
  8
0
  6
Continuous
 62
     7
370
    15
100
AcDbLine
 10
147.6532568065
 20
183.4000287206
 30
0.0
 11
147.6532568065
 21
189.0000287206
 31
0.0
  0
LINE
  5
D5
330
1F
100
AcDbEntity
  8
0
  6
Continuous
 62
     7
370
    15
100
AcDbLine
 10
147.6532568065
 20
189.0000287206
 30
0.0
 11
167.6532568065
 21
189.0000287206
 31
0.0
  0
LINE
  5
D6
330
1F
100
AcDbEntity
  8
0
  6
Continuous
 62
     7
370
    15
100
AcDbLine
 10
167.6532568065
 20
189.0000287206
 30
0.0
 11
167.6532568065
 21
183.4000287206
 31
0.0
  0
LINE
  5
D7
330
1F
100
AcDbEntity
  8
0
  6
Continuous
 62
     7
370
    15
100
AcDbLine
 10
167.6532568065
 20
183.4000287206
 30
0.0
 11
187.6532568065
 21
183.4000287206
 31
0.0
  0
LINE
  5
D8
330
1F
100
AcDbEntity
  8
0
  6
Continuous
 62
     7
370
    15
100
AcDbLine
 10
187.6532568065
 20
183.4000287206
 30
0.0
 11
187.6532568065
 21
163.4000287206
 31
0.0
  0
LINE
  5
D9
330
1F
100
AcDbEntity
  8
0
  6
Continuous
 62
     7
370
    15
100
AcDbLine
 10
186.0956185473
 20
212.0036676168
 30
0.0
 11
188.8956185473
 21
212.0036676168
 31
0.0
  0
LINE
  5
DA
330
1F
100
AcDbEntity
  8
0
  6
Continuous
 62
     7
370
    15
100
AcDbLine
 10
188.8956185473
 20
212.0036676168
 30
0.0
 11
188.8956185473
 21
192.0036676168
 31
0.0
  0
LINE
  5
DB
330
1F
100
AcDbEntity
  8
0
  6
Continuous
 62
     7
370
    15
100
AcDbLine
 10
188.8956185473
 20
192.0036676168
 30
0.0
 11
186.0956185473
 21
192.0036676168
 31
0.0
  0
LINE
  5
DC
330
1F
100
AcDbEntity
  8
0
  6
Continuous
 62
     7
370
    15
100
AcDbLine
 10
186.0956185473
 20
192.0036676168
 30
0.0
 11
146.0956185473
 21
232.0036676168
 31
0.0
  0
LINE
  5
DD
330
1F
100
AcDbEntity
  8
0
  6
Continuous
 62
     7
370
    15
100
AcDbLine
 10
146.0956185473
 20
232.0036676168
 30
0.0
 11
146.0956185473
 21
237.6036676168
 31
0.0
  0
LINE
  5
DE
330
1F
100
AcDbEntity
  8
0
  6
Continuous
 62
     7
370
    15
100
AcDbLine
 10
146.0956185473
 20
237.6036676168
 30
0.0
 11
166.0956185473
 21
237.6036676168
 31
0.0
  0
LINE
  5
DF
330
1F
100
AcDbEntity
  8
0
  6
Continuous
 62
     7
370
    15
100
AcDbLine
 10
166.0956185473
 20
237.6036676168
 30
0.0
 11
166.0956185473
 21
232.0036676168
 31
0.0
  0
LINE
  5
E0
330
1F
100
AcDbEntity
  8
0
  6
Continuous
 62
     7
370
    15
100
AcDbLine
 10
166.0956185473
 20
232.0036676168
 30
0.0
 11
186.0956185473
 21
232.0036676168
 31
0.0
  0
LINE
  5
E1
330
1F
100
AcDbEntity
  8
0
  6
Continuous
 62
     7
370
    15
100
AcDbLine
 10
186.0956185473
 20
232.0036676168
 30
0.0
 11
186.0956185473
 21
212.0036676168
 31
0.0
  0
LINE
  5
E2
330
1F
100
AcDbEntity
  8
0
  6
Continuous
 62
     7
370
    15
100
AcDbLine
 10
29.6232064356
 20
215.0292725704
 30
0.0
 11
35.0412259202
 21
215.0292725704
 31
0.0
  0
LINE
  5
E3
330
1F
100
AcDbEntity
  8
0
  6
Continuous
 62
     7
370
    15
100
AcDbLine
 10
35.0412259202
 20
235.0292725704
 30
0.0
 11
35.0412259202
 21
215.0292725704
 31
0.0
  0
LINE
  5
E4
330
1F
100
AcDbEntity
  8
0
  6
Continuous
 62
     7
370
    15
100
AcDbLine
 10
135.0412259202
 20
235.0292725704
 30
0.0
 11
35.0412259202
 21
235.0292725704
 31
0.0
  0
LINE
  5
E5
330
1F
100
AcDbEntity
  8
0
  6
Continuous
 62
     7
370
    15
100
AcDbLine
 10
135.0412259202
 20
235.0292725704
 30
0.0
 11
135.0412259202
 21
215.0292725704
 31
0.0
  0
LINE
  5
E6
330
1F
100
AcDbEntity
  8
0
  6
Continuous
 62
     7
370
    15
100
AcDbLine
 10
140.6412259202
 20
215.0292725704
 30
0.0
 11
135.0412259202
 21
215.0292725704
 31
0.0
  0
LINE
  5
E7
330
1F
100
AcDbEntity
  8
0
  6
Continuous
 62
     7
370
    15
100
AcDbLine
 10
140.6412259202
 20
195.0292725704
 30
0.0
 11
140.6412259202
 21
215.0292725704
 31
0.0
  0
LINE
  5
E8
330
1F
100
AcDbEntity
  8
0
  6
Continuous
 62
     7
370
    15
100
AcDbLine
 10
135.0412259202
 20
195.0292725704
 30
0.0
 11
140.6412259202
 21
195.0292725704
 31
0.0
  0
LINE
  5
E9
330
1F
100
AcDbEntity
  8
0
  6
Continuous
 62
     7
370
    15
100
AcDbLine
 10
135.0412259202
 20
195.0292725704
 30
0.0
 11
135.0412259202
 21
175.0292725704
 31
0.0
  0
LINE
  5
EA
330
1F
100
AcDbEntity
  8
0
  6
Continuous
 62
     7
370
    15
100
AcDbLine
 10
140.6412259202
 20
175.0292725704
 30
0.0
 11
135.0412259202
 21
175.0292725704
 31
0.0
  0
LINE
  5
EB
330
1F
100
AcDbEntity
  8
0
  6
Continuous
 62
     7
370
    15
100
AcDbLine
 10
140.6412259202
 20
175.0292725704
 30
0.0
 11
140.6412259202
 21
155.0292725704
 31
0.0
  0
LINE
  5
EC
330
1F
100
AcDbEntity
  8
0
  6
Continuous
 62
     7
370
    15
100
AcDbLine
 10
140.6412259202
 20
155.0292725704
 30
0.0
 11
135.0412259202
 21
155.0292725704
 31
0.0
  0
LINE
  5
ED
330
1F
100
AcDbEntity
  8
0
  6
Continuous
 62
     7
370
    15
100
AcDbLine
 10
135.0412259202
 20
155.0292725704
 30
0.0
 11
135.0412259202
 21
135.0292725704
 31
0.0
  0
LINE
  5
EE
330
1F
100
AcDbEntity
  8
0
  6
Continuous
 62
     7
370
    15
100
AcDbLine
 10
140.6412259202
 20
135.0292725704
 30
0.0
 11
135.0412259202
 21
135.0292725704
 31
0.0
  0
LINE
  5
EF
330
1F
100
AcDbEntity
  8
0
  6
Continuous
 62
     7
370
    15
100
AcDbLine
 10
140.6412259202
 20
135.0292725704
 30
0.0
 11
140.6412259202
 21
115.0292725704
 31
0.0
  0
LINE
  5
F0
330
1F
100
AcDbEntity
  8
0
  6
Continuous
 62
     7
370
    15
100
AcDbLine
 10
140.6412259202
 20
115.0292725704
 30
0.0
 11
135.0412259202
 21
115.0292725704
 31
0.0
  0
LINE
  5
F1
330
1F
100
AcDbEntity
  8
0
  6
Continuous
 62
     7
370
    15
100
AcDbLine
 10
135.0412259202
 20
115.0292725704
 30
0.0
 11
135.0412259202
 21
95.0292725704
 31
0.0
  0
LINE
  5
F2
330
1F
100
AcDbEntity
  8
0
  6
Continuous
 62
     7
370
    15
100
AcDbLine
 10
140.6412259202
 20
95.0292725704
 30
0.0
 11
135.0412259202
 21
95.0292725704
 31
0.0
  0
LINE
  5
F3
330
1F
100
AcDbEntity
  8
0
  6
Continuous
 62
     7
370
    15
100
AcDbLine
 10
9.4412259202
 20
80.0292725704
 30
0.0
 11
14.4412259202
 21
75.0292725704
 31
0.0
  0
LINE
  5
F4
330
1F
100
AcDbEntity
  8
0
  6
Continuous
 62
     7
370
    15
100
AcDbLine
 10
14.4412259202
 20
95.0292725704
 30
0.0
 11
9.4412259202
 21
90.0292725704
 31
0.0
  0
LINE
  5
F5
330
1F
100
AcDbEntity
  8
0
  6
Continuous
 62
     7
370
    15
100
AcDbLine
 10
14.4412259202
 20
95.0292725704
 30
0.0
 11
20.2592454049
 21
95.0292725704
 31
0.0
  0
LINE
  5
F6
330
1F
100
AcDbEntity
  8
0
  6
Continuous
 62
     7
370
    15
100
AcDbLine
 10
20.2592454049
 20
95.0292725704
 30
0.0
 11
20.2592454049
 21
92.0292725704
 31
0.0
  0
LINE
  5
F7
330
1F
100
AcDbEntity
  8
0
  6
Continuous
 62
     7
370
    15
100
AcDbLine
 10
20.2592454049
 20
92.0292725704
 30
0.0
 11
14.8502356626
 21
86.620262828
 31
0.0
  0
LINE
  5
F8
330
1F
100
AcDbEntity
  8
0
  6
Continuous
 62
     7
370
    15
100
AcDbLine
 10
18.0322161779
 20
83.4382823127
 30
0.0
 11
29.6232064356
 21
95.0292725704
 31
0.0
  0
LINE
  5
F9
330
1F
100
AcDbEntity
  8
0
  6
Continuous
 62
     7
370
    15
100
AcDbLine
 10
29.6232064356
 20
95.0292725704
 30
0.0
 11
35.0412259202
 21
95.0292725704
 31
0.0
  0
LINE
  5
FA
330
1F
100
AcDbEntity
  8
0
  6
Continuous
 62
     7
370
    15
100
AcDbLine
 10
35.0412259202
 20
115.0292725704
 30
0.0
 11
35.0412259202
 21
95.0292725704
 31
0.0
  0
LINE
  5
FB
330
1F
100
AcDbEntity
  8
0
  6
Continuous
 62
     7
370
    15
100
AcDbLine
 10
29.4412259202
 20
115.0292725704
 30
0.0
 11
35.0412259202
 21
115.0292725704
 31
0.0
  0
LINE
  5
FC
330
1F
100
AcDbEntity
  8
0
  6
Continuous
 62
     7
370
    15
100
AcDbLine
 10
29.4412259202
 20
135.0292725704
 30
0.0
 11
29.4412259202
 21
115.0292725704
 31
0.0
  0
LINE
  5
FD
330
1F
100
AcDbEntity
  8
0
  6
Continuous
 62
     7
370
    15
100
AcDbLine
 10
29.4412259202
 20
135.0292725704
 30
0.0
 11
35.0412259202
 21
135.0292725704
 31
0.0
  0
LINE
  5
FE
330
1F
100
AcDbEntity
  8
0
  6
Continuous
 62
     7
370
    15
100
AcDbLine
 10
35.0412259202
 20
155.0292725704
 30
0.0
 11
35.0412259202
 21
135.0292725704
 31
0.0
  0
LINE
  5
FF
330
1F
100
AcDbEntity
  8
0
  6
Continuous
 62
     7
370
    15
100
AcDbLine
 10
29.4412259202
 20
155.0292725704
 30
0.0
 11
35.0412259202
 21
155.0292725704
 31
0.0
  0
LINE
  5
100
330
1F
100
AcDbEntity
  8
0
  6
Continuous
 62
     7
370
    15
100
AcDbLine
 10
29.4412259202
 20
175.0292725704
 30
0.0
 11
29.4412259202
 21
155.0292725704
 31
0.0
  0
LINE
  5
101
330
1F
100
AcDbEntity
  8
0
  6
Continuous
 62
     7
370
    15
100
AcDbLine
 10
29.4412259202
 20
175.0292725704
 30
0.0
 11
35.0412259202
 21
175.0292725704
 31
0.0
  0
LINE
  5
102
330
1F
100
AcDbEntity
  8
0
  6
Continuous
 62
     7
370
    15
100
AcDbLine
 10
35.0412259202
 20
195.0292725704
 30
0.0
 11
35.0412259202
 21
175.0292725704
 31
0.0
  0
LINE
  5
103
330
1F
100
AcDbEntity
  8
0
  6
Continuous
 62
     7
370
    15
100
AcDbLine
 10
14.4412259202
 20
195.0292725704
 30
0.0
 11
35.0412259202
 21
195.0292725704
 31
0.0
  0
LINE
  5
104
330
1F
100
AcDbEntity
  8
0
  6
Continuous
 62
     7
370
    15
100
AcDbLine
 10
9.4412259202
 20
200.0292725704
 30
0.0
 11
14.4412259202
 21
195.0292725704
 31
0.0
  0
LINE
  5
105
330
1F
100
AcDbEntity
  8
0
  6
Continuous
 62
     7
370
    15
100
AcDbLine
 10
9.4412259202
 20
210.0292725704
 30
0.0
 11
9.4412259202
 21
200.0292725704
 31
0.0
  0
LINE
  5
106
330
1F
100
AcDbEntity
  8
0
  6
Continuous
 62
     7
370
    15
100
AcDbLine
 10
14.4412259202
 20
215.0292725704
 30
0.0
 11
9.4412259202
 21
210.0292725704
 31
0.0
  0
LINE
  5
107
330
1F
100
AcDbEntity
  8
0
  6
Continuous
 62
     7
370
    15
100
AcDbLine
 10
14.4412259202
 20
215.0292725704
 30
0.0
 11
20.2592454049
 21
215.0292725704
 31
0.0
  0
LINE
  5
108
330
1F
100
AcDbEntity
  8
0
  6
Continuous
 62
     7
370
    15
100
AcDbLine
 10
20.2592454049
 20
215.0292725704
 30
0.0
 11
20.2592454049
 21
212.0292725704
 31
0.0
  0
LINE
  5
109
330
1F
100
AcDbEntity
  8
0
  6
Continuous
 62
     7
370
    15
100
AcDbLine
 10
20.2592454049
 20
212.0292725704
 30
0.0
 11
14.8502356626
 21
206.620262828
 31
0.0
  0
ARC
  5
10A
330
1F
100
AcDbEntity
  8
0
  6
Continuous
 62
     7
370
    15
100
AcDbCircle
 10
16.4412259202
 20
205.0292725704
 30
0.0
 40
2.250000000000099
100
AcDbArc
 50
135.0
 51
315.0
  0
LINE
  5
10B
330
1F
100
AcDbEntity
  8
0
  6
Continuous
 62
     7
370
    15
100
AcDbLine
 10
18.0322161779
 20
203.4382823127
 30
0.0
 11
29.6232064356
 21
215.0292725704
 31
0.0
  0
ARC
  5
10C
330
1F
100
AcDbEntity
  8
0
  6
Continuous
 62
     7
370
    15
100
AcDbCircle
 10
16.4412259202
 20
85.0292725704
 30
0.0
 40
2.250000000000021
100
AcDbArc
 50
135.0
 51
315.0
  0
LINE
  5
10D
330
1F
100
AcDbEntity
  8
0
  6
Continuous
 62
     7
370
    15
100
AcDbLine
 10
135.0412259202
 20
75.0292725704
 30
0.0
 11
135.0412259202
 21
55.0292725704
 31
0.0
  0
LINE
  5
10E
330
1F
100
AcDbEntity
  8
0
  6
Continuous
 62
     7
370
    15
100
AcDbLine
 10
135.0412259202
 20
55.0292725704
 30
0.0
 11
115.0412259202
 21
55.0292725704
 31
0.0
  0
LINE
  5
10F
330
1F
100
AcDbEntity
  8
0
  6
Continuous
 62
     7
370
    15
100
AcDbLine
 10
115.0412259202
 20
55.0292725704
 30
0.0
 11
115.0412259202
 21
60.6292725704
 31
0.0
  0
LINE
  5
110
330
1F
100
AcDbEntity
  8
0
  6
Continuous
 62
     7
370
    15
100
AcDbLine
 10
115.0412259202
 20
60.6292725704
 30
0.0
 11
95.0412259202
 21
60.6292725704
 31
0.0
  0
LINE
  5
111
330
1F
100
AcDbEntity
  8
0
  6
Continuous
 62
     7
370
    15
100
AcDbLine
 10
95.0412259202
 20
55.0292725704
 30
0.0
 11
95.0412259202
 21
60.6292725704
 31
0.0
  0
LINE
  5
112
330
1F
100
AcDbEntity
  8
0
  6
Continuous
 62
     7
370
    15
100
AcDbLine
 10
95.0412259202
 20
55.0292725704
 30
0.0
 11
73.6412259202
 21
55.0292725704
 31
0.0
  0
LINE
  5
113
330
1F
100
AcDbEntity
  8
0
  6
Continuous
 62
     7
370
    15
100
AcDbLine
 10
73.6412259202
 20
55.0292725704
 30
0.0
 11
73.6412259202
 21
60.6292725704
 31
0.0
  0
LINE
  5
114
330
1F
100
AcDbEntity
  8
0
  6
Continuous
 62
     7
370
    15
100
AcDbLine
 10
53.6412259202
 20
60.6292725704
 30
0.0
 11
73.6412259202
 21
60.6292725704
 31
0.0
  0
LINE
  5
115
330
1F
100
AcDbEntity
  8
0
  6
Continuous
 62
     7
370
    15
100
AcDbLine
 10
53.6412259202
 20
55.0292725704
 30
0.0
 11
53.6412259202
 21
60.6292725704
 31
0.0
  0
LINE
  5
116
330
1F
100
AcDbEntity
  8
0
  6
Continuous
 62
     7
370
    15
100
AcDbLine
 10
53.6412259202
 20
55.0292725704
 30
0.0
 11
35.0412259202
 21
55.0292725704
 31
0.0
  0
LINE
  5
117
330
1F
100
AcDbEntity
  8
0
  6
Continuous
 62
     7
370
    15
100
AcDbLine
 10
35.0412259202
 20
75.0292725704
 30
0.0
 11
35.0412259202
 21
55.0292725704
 31
0.0
  0
LINE
  5
118
330
1F
100
AcDbEntity
  8
0
  6
Continuous
 62
     7
370
    15
100
AcDbLine
 10
14.4412259202
 20
75.0292725704
 30
0.0
 11
35.0412259202
 21
75.0292725704
 31
0.0
  0
LINE
  5
119
330
1F
100
AcDbEntity
  8
0
  6
Continuous
 62
     7
370
    15
100
AcDbLine
 10
9.4412259202
 20
90.0292725704
 30
0.0
 11
9.4412259202
 21
80.0292725704
 31
0.0
  0
LINE
  5
11A
330
1F
100
AcDbEntity
  8
0
  6
Continuous
 62
     7
370
    15
100
AcDbLine
 10
140.6412259202
 20
95.0292725704
 30
0.0
 11
140.6412259202
 21
75.0292725704
 31
0.0
  0
LINE
  5
11B
330
1F
100
AcDbEntity
  8
0
  6
Continuous
 62
     7
370
    15
100
AcDbLine
 10
140.6412259202
 20
75.0292725704
 30
0.0
 11
135.0412259202
 21
75.0292725704
 31
0.0
  0
LINE
  5
11C
330
1F
100
AcDbEntity
  8
0
  6
Continuous
 62
     7
370
    15
100
AcDbLine
 10
216.0595814802
 20
219.0653779592
 30
0.0
 11
221.4776009649
 21
219.0653779592
 31
0.0
  0
LINE
  5
11D
330
1F
100
AcDbEntity
  8
0
  6
Continuous
 62
     7
370
    15
100
AcDbLine
 10
221.4776009649
 20
239.0653779592
 30
0.0
 11
221.4776009649
 21
219.0653779592
 31
0.0
  0
LINE
  5
11E
330
1F
100
AcDbEntity
  8
0
  6
Continuous
 62
     7
370
    15
100
AcDbLine
 10
321.4776009649
 20
239.0653779592
 30
0.0
 11
221.4776009649
 21
239.0653779592
 31
0.0
  0
LINE
  5
11F
330
1F
100
AcDbEntity
  8
0
  6
Continuous
 62
     7
370
    15
100
AcDbLine
 10
321.4776009649
 20
239.0653779592
 30
0.0
 11
321.4776009649
 21
219.0653779592
 31
0.0
  0
LINE
  5
120
330
1F
100
AcDbEntity
  8
0
  6
Continuous
 62
     7
370
    15
100
AcDbLine
 10
327.0776009649
 20
219.0653779592
 30
0.0
 11
321.4776009649
 21
219.0653779592
 31
0.0
  0
LINE
  5
121
330
1F
100
AcDbEntity
  8
0
  6
Continuous
 62
     7
370
    15
100
AcDbLine
 10
327.0776009649
 20
199.0653779592
 30
0.0
 11
327.0776009649
 21
219.0653779592
 31
0.0
  0
LINE
  5
122
330
1F
100
AcDbEntity
  8
0
  6
Continuous
 62
     7
370
    15
100
AcDbLine
 10
321.4776009649
 20
199.0653779592
 30
0.0
 11
327.0776009649
 21
199.0653779592
 31
0.0
  0
LINE
  5
123
330
1F
100
AcDbEntity
  8
0
  6
Continuous
 62
     7
370
    15
100
AcDbLine
 10
321.4776009649
 20
199.0653779592
 30
0.0
 11
321.4776009649
 21
179.0653779592
 31
0.0
  0
LINE
  5
124
330
1F
100
AcDbEntity
  8
0
  6
Continuous
 62
     7
370
    15
100
AcDbLine
 10
327.0776009649
 20
179.0653779592
 30
0.0
 11
321.4776009649
 21
179.0653779592
 31
0.0
  0
LINE
  5
125
330
1F
100
AcDbEntity
  8
0
  6
Continuous
 62
     7
370
    15
100
AcDbLine
 10
327.0776009649
 20
179.0653779592
 30
0.0
 11
327.0776009649
 21
159.0653779592
 31
0.0
  0
LINE
  5
126
330
1F
100
AcDbEntity
  8
0
  6
Continuous
 62
     7
370
    15
100
AcDbLine
 10
327.0776009649
 20
159.0653779592
 30
0.0
 11
321.4776009649
 21
159.0653779592
 31
0.0
  0
LINE
  5
127
330
1F
100
AcDbEntity
  8
0
  6
Continuous
 62
     7
370
    15
100
AcDbLine
 10
321.4776009649
 20
159.0653779592
 30
0.0
 11
321.4776009649
 21
139.0653779592
 31
0.0
  0
LINE
  5
128
330
1F
100
AcDbEntity
  8
0
  6
Continuous
 62
     7
370
    15
100
AcDbLine
 10
327.0776009649
 20
139.0653779592
 30
0.0
 11
321.4776009649
 21
139.0653779592
 31
0.0
  0
LINE
  5
129
330
1F
100
AcDbEntity
  8
0
  6
Continuous
 62
     7
370
    15
100
AcDbLine
 10
327.0776009649
 20
139.0653779592
 30
0.0
 11
327.0776009649
 21
119.0653779592
 31
0.0
  0
LINE
  5
12A
330
1F
100
AcDbEntity
  8
0
  6
Continuous
 62
     7
370
    15
100
AcDbLine
 10
327.0776009649
 20
119.0653779592
 30
0.0
 11
321.4776009649
 21
119.0653779592
 31
0.0
  0
LINE
  5
12B
330
1F
100
AcDbEntity
  8
0
  6
Continuous
 62
     7
370
    15
100
AcDbLine
 10
321.4776009649
 20
119.0653779592
 30
0.0
 11
321.4776009649
 21
99.0653779592
 31
0.0
  0
LINE
  5
12C
330
1F
100
AcDbEntity
  8
0
  6
Continuous
 62
     7
370
    15
100
AcDbLine
 10
327.0776009649
 20
99.0653779592
 30
0.0
 11
321.4776009649
 21
99.0653779592
 31
0.0
  0
LINE
  5
12D
330
1F
100
AcDbEntity
  8
0
  6
Continuous
 62
     7
370
    15
100
AcDbLine
 10
195.8776009649
 20
84.0653779592
 30
0.0
 11
200.8776009649
 21
79.0653779592
 31
0.0
  0
LINE
  5
12E
330
1F
100
AcDbEntity
  8
0
  6
Continuous
 62
     7
370
    15
100
AcDbLine
 10
200.8776009649
 20
99.0653779592
 30
0.0
 11
195.8776009649
 21
94.0653779592
 31
0.0
  0
LINE
  5
12F
330
1F
100
AcDbEntity
  8
0
  6
Continuous
 62
     7
370
    15
100
AcDbLine
 10
200.8776009649
 20
99.0653779592
 30
0.0
 11
206.6956204495
 21
99.0653779592
 31
0.0
  0
LINE
  5
130
330
1F
100
AcDbEntity
  8
0
  6
Continuous
 62
     7
370
    15
100
AcDbLine
 10
206.6956204495
 20
99.0653779592
 30
0.0
 11
206.6956204495
 21
96.0653779592
 31
0.0
  0
LINE
  5
131
330
1F
100
AcDbEntity
  8
0
  6
Continuous
 62
     7
370
    15
100
AcDbLine
 10
206.6956204495
 20
96.0653779592
 30
0.0
 11
201.2866107072
 21
90.6563682168
 31
0.0
  0
LINE
  5
132
330
1F
100
AcDbEntity
  8
0
  6
Continuous
 62
     7
370
    15
100
AcDbLine
 10
204.4685912225
 20
87.4743877015
 30
0.0
 11
216.0595814802
 21
99.0653779592
 31
0.0
  0
LINE
  5
133
330
1F
100
AcDbEntity
  8
0
  6
Continuous
 62
     7
370
    15
100
AcDbLine
 10
216.0595814802
 20
99.0653779592
 30
0.0
 11
221.4776009649
 21
99.0653779592
 31
0.0
  0
LINE
  5
134
330
1F
100
AcDbEntity
  8
0
  6
Continuous
 62
     7
370
    15
100
AcDbLine
 10
221.4776009649
 20
119.0653779592
 30
0.0
 11
221.4776009649
 21
99.0653779592
 31
0.0
  0
LINE
  5
135
330
1F
100
AcDbEntity
  8
0
  6
Continuous
 62
     7
370
    15
100
AcDbLine
 10
215.8776009649
 20
119.0653779592
 30
0.0
 11
221.4776009649
 21
119.0653779592
 31
0.0
  0
LINE
  5
136
330
1F
100
AcDbEntity
  8
0
  6
Continuous
 62
     7
370
    15
100
AcDbLine
 10
215.8776009649
 20
139.0653779592
 30
0.0
 11
215.8776009649
 21
119.0653779592
 31
0.0
  0
LINE
  5
137
330
1F
100
AcDbEntity
  8
0
  6
Continuous
 62
     7
370
    15
100
AcDbLine
 10
215.8776009649
 20
139.0653779592
 30
0.0
 11
221.4776009649
 21
139.0653779592
 31
0.0
  0
LINE
  5
138
330
1F
100
AcDbEntity
  8
0
  6
Continuous
 62
     7
370
    15
100
AcDbLine
 10
221.4776009649
 20
159.0653779592
 30
0.0
 11
221.4776009649
 21
139.0653779592
 31
0.0
  0
LINE
  5
139
330
1F
100
AcDbEntity
  8
0
  6
Continuous
 62
     7
370
    15
100
AcDbLine
 10
215.8776009649
 20
159.0653779592
 30
0.0
 11
221.4776009649
 21
159.0653779592
 31
0.0
  0
LINE
  5
13A
330
1F
100
AcDbEntity
  8
0
  6
Continuous
 62
     7
370
    15
100
AcDbLine
 10
215.8776009649
 20
179.0653779592
 30
0.0
 11
215.8776009649
 21
159.0653779592
 31
0.0
  0
LINE
  5
13B
330
1F
100
AcDbEntity
  8
0
  6
Continuous
 62
     7
370
    15
100
AcDbLine
 10
215.8776009649
 20
179.0653779592
 30
0.0
 11
221.4776009649
 21
179.0653779592
 31
0.0
  0
LINE
  5
13C
330
1F
100
AcDbEntity
  8
0
  6
Continuous
 62
     7
370
    15
100
AcDbLine
 10
221.4776009649
 20
199.0653779592
 30
0.0
 11
221.4776009649
 21
179.0653779592
 31
0.0
  0
LINE
  5
13D
330
1F
100
AcDbEntity
  8
0
  6
Continuous
 62
     7
370
    15
100
AcDbLine
 10
200.8776009649
 20
199.0653779592
 30
0.0
 11
221.4776009649
 21
199.0653779592
 31
0.0
  0
LINE
  5
13E
330
1F
100
AcDbEntity
  8
0
  6
Continuous
 62
     7
370
    15
100
AcDbLine
 10
195.8776009649
 20
204.0653779592
 30
0.0
 11
200.8776009649
 21
199.0653779592
 31
0.0
  0
LINE
  5
13F
330
1F
100
AcDbEntity
  8
0
  6
Continuous
 62
     7
370
    15
100
AcDbLine
 10
195.8776009649
 20
214.0653779592
 30
0.0
 11
195.8776009649
 21
204.0653779592
 31
0.0
  0
LINE
  5
140
330
1F
100
AcDbEntity
  8
0
  6
Continuous
 62
     7
370
    15
100
AcDbLine
 10
200.8776009649
 20
219.0653779592
 30
0.0
 11
195.8776009649
 21
214.0653779592
 31
0.0
  0
LINE
  5
141
330
1F
100
AcDbEntity
  8
0
  6
Continuous
 62
     7
370
    15
100
AcDbLine
 10
200.8776009649
 20
219.0653779592
 30
0.0
 11
206.6956204495
 21
219.0653779592
 31
0.0
  0
LINE
  5
142
330
1F
100
AcDbEntity
  8
0
  6
Continuous
 62
     7
370
    15
100
AcDbLine
 10
206.6956204495
 20
219.0653779592
 30
0.0
 11
206.6956204495
 21
216.0653779592
 31
0.0
  0
LINE
  5
143
330
1F
100
AcDbEntity
  8
0
  6
Continuous
 62
     7
370
    15
100
AcDbLine
 10
206.6956204495
 20
216.0653779592
 30
0.0
 11
201.2866107072
 21
210.6563682168
 31
0.0
  0
ARC
  5
144
330
1F
100
AcDbEntity
  8
0
  6
Continuous
 62
     7
370
    15
100
AcDbCircle
 10
202.8776009649
 20
209.0653779592
 30
0.0
 40
2.250000000000099
100
AcDbArc
 50
135.0
 51
315.0
  0
LINE
  5
145
330
1F
100
AcDbEntity
  8
0
  6
Continuous
 62
     7
370
    15
100
AcDbLine
 10
204.4685912225
 20
207.4743877015
 30
0.0
 11
216.0595814802
 21
219.0653779592
 31
0.0
  0
ARC
  5
146
330
1F
100
AcDbEntity
  8
0
  6
Continuous
 62
     7
370
    15
100
AcDbCircle
 10
202.8776009649
 20
89.0653779592
 30
0.0
 40
2.250000000000038
100
AcDbArc
 50
135.0
 51
315.0
  0
LINE
  5
147
330
1F
100
AcDbEntity
  8
0
  6
Continuous
 62
     7
370
    15
100
AcDbLine
 10
321.4776009649
 20
79.0653779592
 30
0.0
 11
321.4776009649
 21
59.0653779592
 31
0.0
  0
LINE
  5
148
330
1F
100
AcDbEntity
  8
0
  6
Continuous
 62
     7
370
    15
100
AcDbLine
 10
321.4776009649
 20
59.0653779592
 30
0.0
 11
301.4776009649
 21
59.0653779592
 31
0.0
  0
LINE
  5
149
330
1F
100
AcDbEntity
  8
0
  6
Continuous
 62
     7
370
    15
100
AcDbLine
 10
301.4776009649
 20
59.0653779592
 30
0.0
 11
301.4776009649
 21
64.6653779592
 31
0.0
  0
LINE
  5
14A
330
1F
100
AcDbEntity
  8
0
  6
Continuous
 62
     7
370
    15
100
AcDbLine
 10
301.4776009649
 20
64.6653779592
 30
0.0
 11
281.4776009649
 21
64.6653779592
 31
0.0
  0
LINE
  5
14B
330
1F
100
AcDbEntity
  8
0
  6
Continuous
 62
     7
370
    15
100
AcDbLine
 10
281.4776009649
 20
59.0653779592
 30
0.0
 11
281.4776009649
 21
64.6653779592
 31
0.0
  0
LINE
  5
14C
330
1F
100
AcDbEntity
  8
0
  6
Continuous
 62
     7
370
    15
100
AcDbLine
 10
281.4776009649
 20
59.0653779592
 30
0.0
 11
260.0776009649
 21
59.0653779592
 31
0.0
  0
LINE
  5
14D
330
1F
100
AcDbEntity
  8
0
  6
Continuous
 62
     7
370
    15
100
AcDbLine
 10
260.0776009649
 20
59.0653779592
 30
0.0
 11
260.0776009649
 21
64.6653779592
 31
0.0
  0
LINE
  5
14E
330
1F
100
AcDbEntity
  8
0
  6
Continuous
 62
     7
370
    15
100
AcDbLine
 10
240.0776009649
 20
64.6653779592
 30
0.0
 11
260.0776009649
 21
64.6653779592
 31
0.0
  0
LINE
  5
14F
330
1F
100
AcDbEntity
  8
0
  6
Continuous
 62
     7
370
    15
100
AcDbLine
 10
240.0776009649
 20
59.0653779592
 30
0.0
 11
240.0776009649
 21
64.6653779592
 31
0.0
  0
LINE
  5
150
330
1F
100
AcDbEntity
  8
0
  6
Continuous
 62
     7
370
    15
100
AcDbLine
 10
240.0776009649
 20
59.0653779592
 30
0.0
 11
221.4776009649
 21
59.0653779592
 31
0.0
  0
LINE
  5
151
330
1F
100
AcDbEntity
  8
0
  6
Continuous
 62
     7
370
    15
100
AcDbLine
 10
221.4776009649
 20
79.0653779592
 30
0.0
 11
221.4776009649
 21
59.0653779592
 31
0.0
  0
LINE
  5
152
330
1F
100
AcDbEntity
  8
0
  6
Continuous
 62
     7
370
    15
100
AcDbLine
 10
200.8776009649
 20
79.0653779592
 30
0.0
 11
221.4776009649
 21
79.0653779592
 31
0.0
  0
LINE
  5
153
330
1F
100
AcDbEntity
  8
0
  6
Continuous
 62
     7
370
    15
100
AcDbLine
 10
195.8776009649
 20
94.0653779592
 30
0.0
 11
195.8776009649
 21
84.0653779592
 31
0.0
  0
LINE
  5
154
330
1F
100
AcDbEntity
  8
0
  6
Continuous
 62
     7
370
    15
100
AcDbLine
 10
327.0776009649
 20
99.0653779592
 30
0.0
 11
327.0776009649
 21
79.0653779592
 31
0.0
  0
LINE
  5
155
330
1F
100
AcDbEntity
  8
0
  6
Continuous
 62
     7
370
    15
100
AcDbLine
 10
327.0776009649
 20
79.0653779592
 30
0.0
 11
321.4776009649
 21
79.0653779592
 31
0.0
  0
LINE
  5
156
330
1F
100
AcDbEntity
  8
0
  6
Continuous
 62
    70
370
    15
100
AcDbLine
 10
105.5303098238
 20
26.4843878733
 30
0.0
 11
85.5303098238
 21
26.4843878733
 31
0.0
  0
LINE
  5
157
330
1F
100
AcDbEntity
  8
0
  6
Continuous
 62
    70
370
    15
100
AcDbLine
 10
85.5303098238
 20
26.4843878733
 30
0.0
 11
85.5303098238
 21
20.8843878733
 31
0.0
  0
LINE
  5
158
330
1F
100
AcDbEntity
  8
0
  6
Continuous
 62
    70
370
    15
100
AcDbLine
 10
85.5303098238
 20
20.8843878733
 30
0.0
 11
105.5303098238
 21
20.8843878733
 31
0.0
  0
LINE
  5
159
330
1F
100
AcDbEntity
  8
0
  6
Continuous
 62
    70
370
    15
100
AcDbLine
 10
105.5303098238
 20
20.8843878733
 30
0.0
 11
105.5303098238
 21
26.4843878733
 31
0.0
  0
CIRCLE
  5
15A
330
1F
100
AcDbEntity
  8
0
  6
Continuous
 62
    70
370
    15
100
AcDbCircle
 10
95.8996999454
 20
36.4843878733
 30
0.0
 40
2.250000000000007
  0
CIRCLE
  5
15B
330
1F
100
AcDbEntity
  8
0
  6
Continuous
 62
    70
370
    15
100
AcDbCircle
 10
75.5303098238
 20
29.1171723241
 30
0.0
 40
2.75
  0
LINE
  5
15C
330
1F
100
AcDbEntity
  8
0
  6
Continuous
 62
     2
370
    15
100
AcDbLine
 10
105.5303098238
 20
9.2843878733
 30
0.0
 11
105.5303098238
 21
3.6843878733
 31
0.0
  0
LINE
  5
15D
330
1F
100
AcDbEntity
  8
0
  6
Continuous
 62
     2
370
    15
100
AcDbLine
 10
85.5303098238
 20
9.2843878733
 30
0.0
 11
105.5303098238
 21
9.2843878733
 31
0.0
  0
LINE
  5
15E
330
1F
100
AcDbEntity
  8
0
  6
Continuous
 62
     2
370
    15
100
AcDbLine
 10
85.5303098238
 20
3.6843878733
 30
0.0
 11
85.5303098238
 21
9.2843878733
 31
0.0
  0
LINE
  5
15F
330
1F
100
AcDbEntity
  8
0
  6
Continuous
 62
     2
370
    15
100
AcDbLine
 10
65.5303098238
 20
3.6843878733
 30
0.0
 11
85.5303098238
 21
3.6843878733
 31
0.0
  0
LINE
  5
160
330
1F
100
AcDbEntity
  8
0
  6
Continuous
 62
     2
370
    15
100
AcDbLine
 10
65.5303098238
 20
9.2843878733
 30
0.0
 11
65.5303098238
 21
3.6843878733
 31
0.0
  0
LINE
  5
161
330
1F
100
AcDbEntity
  8
0
  6
Continuous
 62
     2
370
    15
100
AcDbLine
 10
45.5303098238
 20
9.2843878733
 30
0.0
 11
65.5303098238
 21
9.2843878733
 31
0.0
  0
LINE
  5
162
330
1F
100
AcDbEntity
  8
0
  6
Continuous
 62
     2
370
    15
100
AcDbLine
 10
45.5303098238
 20
3.6843878733
 30
0.0
 11
45.5303098238
 21
9.2843878733
 31
0.0
  0
LINE
  5
163
330
1F
100
AcDbEntity
  8
0
  6
Continuous
 62
     2
370
    15
100
AcDbLine
 10
25.5303098238
 20
3.6843878733
 30
0.0
 11
45.5303098238
 21
3.6843878733
 31
0.0
  0
LINE
  5
164
330
1F
100
AcDbEntity
  8
0
  6
Continuous
 62
     2
370
    15
100
AcDbLine
 10
25.5303098238
 20
43.6843878733
 30
0.0
 11
25.5303098238
 21
3.6843878733
 31
0.0
  0
LINE
  5
165
330
1F
100
AcDbEntity
  8
0
  6
Continuous
 62
     2
370
    15
100
AcDbLine
 10
45.5303098238
 20
43.6843878733
 30
0.0
 11
25.5303098238
 21
43.6843878733
 31
0.0
  0
LINE
  5
166
330
1F
100
AcDbEntity
  8
0
  6
Continuous
 62
     2
370
    15
100
AcDbLine
 10
45.5303098238
 20
49.2843878733
 30
0.0
 11
45.5303098238
 21
43.6843878733
 31
0.0
  0
LINE
  5
167
330
1F
100
AcDbEntity
  8
0
  6
Continuous
 62
     2
370
    15
100
AcDbLine
 10
65.5303098238
 20
49.2843878733
 30
0.0
 11
45.5303098238
 21
49.2843878733
 31
0.0
  0
LINE
  5
168
330
1F
100
AcDbEntity
  8
0
  6
Continuous
 62
     2
370
    15
100
AcDbLine
 10
65.5303098238
 20
43.6843878733
 30
0.0
 11
65.5303098238
 21
49.2843878733
 31
0.0
  0
LINE
  5
169
330
1F
100
AcDbEntity
  8
0
  6
Continuous
 62
     2
370
    15
100
AcDbLine
 10
85.5303098238
 20
43.6843878733
 30
0.0
 11
65.5303098238
 21
43.6843878733
 31
0.0
  0
LINE
  5
16A
330
1F
100
AcDbEntity
  8
0
  6
Continuous
 62
     2
370
    15
100
AcDbLine
 10
85.5303098238
 20
49.2843878733
 30
0.0
 11
85.5303098238
 21
43.6843878733
 31
0.0
  0
LINE
  5
16B
330
1F
100
AcDbEntity
  8
0
  6
Continuous
 62
     2
370
    15
100
AcDbLine
 10
105.5303098238
 20
49.2843878733
 30
0.0
 11
85.5303098238
 21
49.2843878733
 31
0.0
  0
LINE
  5
16C
330
1F
100
AcDbEntity
  8
0
  6
Continuous
 62
     2
370
    15
100
AcDbLine
 10
105.5303098238
 20
43.6843878733
 30
0.0
 11
105.5303098238
 21
49.2843878733
 31
0.0
  0
LINE
  5
16D
330
1F
100
AcDbEntity
  8
0
  6
Continuous
 62
     2
370
    15
100
AcDbLine
 10
125.5303098238
 20
43.6843878733
 30
0.0
 11
105.5303098238
 21
43.6843878733
 31
0.0
  0
LINE
  5
16E
330
1F
100
AcDbEntity
  8
0
  6
Continuous
 62
     2
370
    15
100
AcDbLine
 10
125.5303098238
 20
3.6843878733
 30
0.0
 11
125.5303098238
 21
43.6843878733
 31
0.0
  0
LINE
  5
16F
330
1F
100
AcDbEntity
  8
0
  6
Continuous
 62
     2
370
    15
100
AcDbLine
 10
105.5303098238
 20
3.6843878733
 30
0.0
 11
125.5303098238
 21
3.6843878733
 31
0.0
  0
CIRCLE
  5
170
330
1F
100
AcDbEntity
  8
0
  6
Continuous
 62
    70
370
    15
100
AcDbCircle
 10
55.5303098238
 20
36.4843878733
 30
0.0
 40
1.599999999999994
  0
LINE
  5
171
330
1F
100
AcDbEntity
  8
0
  6
Continuous
 62
    70
370
    15
100
AcDbLine
 10
65.5303098238
 20
26.4843878733
 30
0.0
 11
45.5303098238
 21
26.4843878733
 31
0.0
  0
LINE
  5
172
330
1F
100
AcDbEntity
  8
0
  6
Continuous
 62
    70
370
    15
100
AcDbLine
 10
45.5303098238
 20
26.4843878733
 30
0.0
 11
45.5303098238
 21
20.8843878733
 31
0.0
  0
LINE
  5
173
330
1F
100
AcDbEntity
  8
0
  6
Continuous
 62
    70
370
    15
100
AcDbLine
 10
45.5303098238
 20
20.8843878733
 30
0.0
 11
65.5303098238
 21
20.8843878733
 31
0.0
  0
LINE
  5
174
330
1F
100
AcDbEntity
  8
0
  6
Continuous
 62
    70
370
    15
100
AcDbLine
 10
65.5303098238
 20
20.8843878733
 30
0.0
 11
65.5303098238
 21
26.4843878733
 31
0.0
  0
LINE
  5
175
330
1F
100
AcDbEntity
  8
0
  6
Continuous
 62
    70
370
    15
100
AcDbLine
 10
210.1016072096
 20
26.5969647377
 30
0.0
 11
190.1016072096
 21
26.5969647377
 31
0.0
  0
LINE
  5
176
330
1F
100
AcDbEntity
  8
0
  6
Continuous
 62
    70
370
    15
100
AcDbLine
 10
190.1016072096
 20
26.5969647377
 30
0.0
 11
190.1016072096
 21
20.9969647377
 31
0.0
  0
LINE
  5
177
330
1F
100
AcDbEntity
  8
0
  6
Continuous
 62
    70
370
    15
100
AcDbLine
 10
190.1016072096
 20
20.9969647377
 30
0.0
 11
210.1016072096
 21
20.9969647377
 31
0.0
  0
LINE
  5
178
330
1F
100
AcDbEntity
  8
0
  6
Continuous
 62
    70
370
    15
100
AcDbLine
 10
210.1016072096
 20
20.9969647377
 30
0.0
 11
210.1016072096
 21
26.5969647377
 31
0.0
  0
CIRCLE
  5
179
330
1F
100
AcDbEntity
  8
0
  6
Continuous
 62
    70
370
    15
100
AcDbCircle
 10
200.4709973312
 20
36.5969647377
 30
0.0
 40
2.250000000000007
  0
CIRCLE
  5
17A
330
1F
100
AcDbEntity
  8
0
  6
Continuous
 62
    70
370
    15
100
AcDbCircle
 10
180.1016072096
 20
29.2297491885
 30
0.0
 40
2.749999999999996
  0
LINE
  5
17B
330
1F
100
AcDbEntity
  8
0
  6
Continuous
 62
     2
370
    15
100
AcDbLine
 10
210.1016072096
 20
9.3969647377
 30
0.0
 11
210.1016072096
 21
3.7969647377
 31
0.0
  0
LINE
  5
17C
330
1F
100
AcDbEntity
  8
0
  6
Continuous
 62
     2
370
    15
100
AcDbLine
 10
190.1016072096
 20
9.3969647377
 30
0.0
 11
210.1016072096
 21
9.3969647377
 31
0.0
  0
LINE
  5
17D
330
1F
100
AcDbEntity
  8
0
  6
Continuous
 62
     2
370
    15
100
AcDbLine
 10
190.1016072096
 20
3.7969647377
 30
0.0
 11
190.1016072096
 21
9.3969647377
 31
0.0
  0
LINE
  5
17E
330
1F
100
AcDbEntity
  8
0
  6
Continuous
 62
     2
370
    15
100
AcDbLine
 10
170.1016072096
 20
3.7969647377
 30
0.0
 11
190.1016072096
 21
3.7969647377
 31
0.0
  0
LINE
  5
17F
330
1F
100
AcDbEntity
  8
0
  6
Continuous
 62
     2
370
    15
100
AcDbLine
 10
170.1016072096
 20
9.3969647377
 30
0.0
 11
170.1016072096
 21
3.7969647377
 31
0.0
  0
LINE
  5
180
330
1F
100
AcDbEntity
  8
0
  6
Continuous
 62
     2
370
    15
100
AcDbLine
 10
150.1016072096
 20
9.3969647377
 30
0.0
 11
170.1016072096
 21
9.3969647377
 31
0.0
  0
LINE
  5
181
330
1F
100
AcDbEntity
  8
0
  6
Continuous
 62
     2
370
    15
100
AcDbLine
 10
150.1016072096
 20
3.7969647377
 30
0.0
 11
150.1016072096
 21
9.3969647377
 31
0.0
  0
LINE
  5
182
330
1F
100
AcDbEntity
  8
0
  6
Continuous
 62
     2
370
    15
100
AcDbLine
 10
130.1016072096
 20
3.7969647377
 30
0.0
 11
150.1016072096
 21
3.7969647377
 31
0.0
  0
LINE
  5
183
330
1F
100
AcDbEntity
  8
0
  6
Continuous
 62
     2
370
    15
100
AcDbLine
 10
130.1016072096
 20
43.7969647377
 30
0.0
 11
130.1016072096
 21
3.7969647377
 31
0.0
  0
LINE
  5
184
330
1F
100
AcDbEntity
  8
0
  6
Continuous
 62
     2
370
    15
100
AcDbLine
 10
150.1016072096
 20
43.7969647377
 30
0.0
 11
130.1016072096
 21
43.7969647377
 31
0.0
  0
LINE
  5
185
330
1F
100
AcDbEntity
  8
0
  6
Continuous
 62
     2
370
    15
100
AcDbLine
 10
150.1016072096
 20
49.3969647377
 30
0.0
 11
150.1016072096
 21
43.7969647377
 31
0.0
  0
LINE
  5
186
330
1F
100
AcDbEntity
  8
0
  6
Continuous
 62
     2
370
    15
100
AcDbLine
 10
170.1016072096
 20
49.3969647377
 30
0.0
 11
150.1016072096
 21
49.3969647377
 31
0.0
  0
LINE
  5
187
330
1F
100
AcDbEntity
  8
0
  6
Continuous
 62
     2
370
    15
100
AcDbLine
 10
170.1016072096
 20
43.7969647377
 30
0.0
 11
170.1016072096
 21
49.3969647377
 31
0.0
  0
LINE
  5
188
330
1F
100
AcDbEntity
  8
0
  6
Continuous
 62
     2
370
    15
100
AcDbLine
 10
190.1016072096
 20
43.7969647377
 30
0.0
 11
170.1016072096
 21
43.7969647377
 31
0.0
  0
LINE
  5
189
330
1F
100
AcDbEntity
  8
0
  6
Continuous
 62
     2
370
    15
100
AcDbLine
 10
190.1016072096
 20
49.3969647377
 30
0.0
 11
190.1016072096
 21
43.7969647377
 31
0.0
  0
LINE
  5
18A
330
1F
100
AcDbEntity
  8
0
  6
Continuous
 62
     2
370
    15
100
AcDbLine
 10
210.1016072096
 20
49.3969647377
 30
0.0
 11
190.1016072096
 21
49.3969647377
 31
0.0
  0
LINE
  5
18B
330
1F
100
AcDbEntity
  8
0
  6
Continuous
 62
     2
370
    15
100
AcDbLine
 10
210.1016072096
 20
43.7969647377
 30
0.0
 11
210.1016072096
 21
49.3969647377
 31
0.0
  0
LINE
  5
18C
330
1F
100
AcDbEntity
  8
0
  6
Continuous
 62
     2
370
    15
100
AcDbLine
 10
230.1016072096
 20
43.7969647377
 30
0.0
 11
210.1016072096
 21
43.7969647377
 31
0.0
  0
LINE
  5
18D
330
1F
100
AcDbEntity
  8
0
  6
Continuous
 62
     2
370
    15
100
AcDbLine
 10
230.1016072096
 20
3.7969647377
 30
0.0
 11
230.1016072096
 21
43.7969647377
 31
0.0
  0
LINE
  5
18E
330
1F
100
AcDbEntity
  8
0
  6
Continuous
 62
     2
370
    15
100
AcDbLine
 10
210.1016072096
 20
3.7969647377
 30
0.0
 11
230.1016072096
 21
3.7969647377
 31
0.0
  0
CIRCLE
  5
18F
330
1F
100
AcDbEntity
  8
0
  6
Continuous
 62
    70
370
    15
100
AcDbCircle
 10
160.1016072096
 20
36.5969647377
 30
0.0
 40
1.599999999999994
  0
LINE
  5
190
330
1F
100
AcDbEntity
  8
0
  6
Continuous
 62
    70
370
    15
100
AcDbLine
 10
170.1016072096
 20
26.5969647377
 30
0.0
 11
150.1016072096
 21
26.5969647377
 31
0.0
  0
LINE
  5
191
330
1F
100
AcDbEntity
  8
0
  6
Continuous
 62
    70
370
    15
100
AcDbLine
 10
150.1016072096
 20
26.5969647377
 30
0.0
 11
150.1016072096
 21
20.9969647377
 31
0.0
  0
LINE
  5
192
330
1F
100
AcDbEntity
  8
0
  6
Continuous
 62
    70
370
    15
100
AcDbLine
 10
150.1016072096
 20
20.9969647377
 30
0.0
 11
170.1016072096
 21
20.9969647377
 31
0.0
  0
LINE
  5
193
330
1F
100
AcDbEntity
  8
0
  6
Continuous
 62
    70
370
    15
100
AcDbLine
 10
170.1016072096
 20
20.9969647377
 30
0.0
 11
170.1016072096
 21
26.5969647377
 31
0.0
  0
MTEXT
  5
195
330
1F
100
AcDbEntity
  8
0
  6
Continuous
 62
     7
100
AcDbMText
 10
0.0
 20
22.0602986318
 30
0.0
 40
7.90956
 41
0.0
 71
     1
 72
     1
  1
SolidWorks Educational Edition.
  7
SLDTEXTSTYLE0
 73
     1
 44
1.0
  0
MTEXT
  5
196
330
1F
100
AcDbEntity
  8
0
  6
Continuous
 62
     7
100
AcDbMText
 10
0.0
 20
10.1959586318
 30
0.0
 40
7.90956
 41
0.0
 71
     1
 72
     1
  1
For Instructional Use Only.
  7
SLDTEXTSTYLE0
 73
     1
 44
1.0
  0
ENDSEC
  0
SECTION
  2
OBJECTS
  0
DICTIONARY
  5
C
330
0
100
AcDbDictionary
281
     1
  3
ACAD_GROUP
350
D
  3
ACAD_LAYOUT
350
1A
  3
ACAD_MLINESTYLE
350
17
  3
ACAD_PLOTSETTINGS
350
19
  3
ACAD_PLOTSTYLENAME
350
E
  0
DICTIONARY
  5
D
102
{ACAD_REACTORS
330
C
102
}
330
C
100
AcDbDictionary
281
     1
  0
DICTIONARY
  5
1A
102
{ACAD_REACTORS
330
C
102
}
330
C
100
AcDbDictionary
281
     1
  3
Layout1
350
1E
  3
Layout2
350
26
  3
Model
350
22
  0
DICTIONARY
  5
17
102
{ACAD_REACTORS
330
C
102
}
330
C
100
AcDbDictionary
281
     1
  3
Standard
350
18
  0
DICTIONARY
  5
19
102
{ACAD_REACTORS
330
C
102
}
330
C
100
AcDbDictionary
281
     1
  0
ACDBDICTIONARYWDFLT
  5
E
102
{ACAD_REACTORS
330
C
102
}
330
C
100
AcDbDictionary
281
     1
  3
Normal
350
F
100
AcDbDictionaryWithDefault
340
F
  0
LAYOUT
  5
1E
102
{ACAD_REACTORS
330
1A
102
}
330
1A
100
AcDbPlotSettings
  1

  2
none_device
  4

  6

 40
0.0
 41
0.0
 42
0.0
 43
0.0
 44
0.0
 45
0.0
 46
0.0
 47
0.0
 48
0.0
 49
0.0
140
0.0
141
0.0
142
1.0
143
1.0
 70
   688
 72
     0
 73
     0
 74
     5
  7

 75
    16
147
1.0
148
0.0
149
0.0
100
AcDbLayout
  1
Layout1
 70
     1
 71
     1
 10
0.0
 20
0.0
 11
420.0
 21
297.0
 12
0.0
 22
0.0
 32
0.0
 14
1.0000000000E+20
 24
1.0000000000E+20
 34
1.0000000000E+20
 15
-1.0000000000E+20
 25
-1.0000000000E+20
 35
-1.0000000000E+20
146
0.0
 13
0.0
 23
0.0
 33
0.0
 16
1.0
 26
0.0
 36
0.0
 17
0.0
 27
1.0
 37
0.0
 76
     0
330
1B
  0
LAYOUT
  5
26
102
{ACAD_REACTORS
330
1A
102
}
330
1A
100
AcDbPlotSettings
  1

  2
none_device
  4

  6

 40
0.0
 41
0.0
 42
0.0
 43
0.0
 44
0.0
 45
0.0
 46
0.0
 47
0.0
 48
0.0
 49
0.0
140
0.0
141
0.0
142
1.0
143
1.0
 70
   688
 72
     0
 73
     0
 74
     5
  7

 75
    16
147
1.0
148
0.0
149
0.0
100
AcDbLayout
  1
Layout2
 70
     1
 71
     2
 10
0.0
 20
0.0
 11
0.0
 21
0.0
 12
0.0
 22
0.0
 32
0.0
 14
0.0
 24
0.0
 34
0.0
 15
0.0
 25
0.0
 35
0.0
146
0.0
 13
0.0
 23
0.0
 33
0.0
 16
1.0
 26
0.0
 36
0.0
 17
0.0
 27
1.0
 37
0.0
 76
     0
330
23
  0
LAYOUT
  5
22
102
{ACAD_REACTORS
330
1A
102
}
330
1A
100
AcDbPlotSettings
  1

  2
none_device
  4

  6

 40
0.0
 41
0.0
 42
0.0
 43
0.0
 44
0.0
 45
0.0
 46
0.0
 47
0.0
 48
0.0
 49
0.0
140
0.0
141
0.0
142
1.0
143
1.0
 70
  1712
 72
     0
 73
     0
 74
     0
  7

 75
     0
147
1.0
148
0.0
149
0.0
100
AcDbLayout
  1
Model
 70
     1
 71
     0
 10
0.0
 20
0.0
 11
609.6
 21
457.2
 12
0.0
 22
0.0
 32
0.0
 14
0.0
 24
0.0
 34
0.0
 15
609.6
 25
457.2
 35
0.0
146
0.0
 13
0.0
 23
0.0
 33
0.0
 16
1.0
 26
0.0
 36
0.0
 17
0.0
 27
1.0
 37
0.0
 76
     0
330
1F
331
29
  0
MLINESTYLE
  5
18
102
{ACAD_REACTORS
330
17
102
}
330
17
100
AcDbMlineStyle
  2
Standard
 70
     0
  3

 62
   256
 51
90.0
 52
90.0
 71
     2
 49
0.5
 62
   256
  6
BYLAYER
 49
-0.5
 62
   256
  6
BYLAYER
  0
ACDBPLACEHOLDER
  5
F
102
{ACAD_REACTORS
330
E
102
}
330
E
  0
ENDSEC
  0
EOF
