  0
SECTION
  2
HEADER
  9
$ACADVER
  1
AC1015
  9
$ACADMAINTVER
 70
     6
  9
$DWGCODEPAGE
  3
ANSI_1252
  9
$INSBASE
 10
0.0
 20
0.0
 30
0.0
  9
$EXTMIN
 10
0.0
 20
0.0
 30
0.0
  9
$EXTMAX
 10
609.6
 20
457.2
 30
0.0
  9
$LIMMIN
 10
0.0
 20
0.0
  9
$LIMMAX
 10
609.6
 20
457.2
  9
$ORTHOMODE
 70
     0
  9
$REGENMODE
 70
     1
  9
$FILLMODE
 70
     1
  9
$QTEXTMODE
 70
     0
  9
$MIRRTEXT
 70
     1
  9
$LTSCALE
 40
1.0
  9
$ATTMODE
 70
     1
  9
$TEXTSIZE
 40
3.175
  9
$TRACEWID
 40
1.0
  9
$TEXTSTYLE
  7
Standard
  9
$CLAYER
  8
0
  9
$CELTYPE
  6
ByLayer
  9
$CECOLOR
 62
   256
  9
$CELTSCALE
 40
1.0
  9
$DISPSILH
 70
     0
  9
$DIMSCALE
 40
1.0
  9
$DIMASZ
 40
3.302
  9
$DIMEXO
 40
1.27
  9
$DIMDLI
 40
3.75
  9
$DIMRND
 40
0.0
  9
$DIMDLE
 40
0.0
  9
$DIMEXE
 40
3.175
  9
$DIMTP
 40
0.0
  9
$DIMTM
 40
0.0
  9
$DIMTXT
 40
3.175
  9
$DIMCEN
 40
2.5
  9
$DIMTSZ
 40
0.0
  9
$DIMTOL
 70
     0
  9
$DIMLIM
 70
     0
  9
$DIMTIH
 70
     1
  9
$DIMTOH
 70
     1
  9
$DIMSE1
 70
     0
  9
$DIMSE2
 70
     0
  9
$DIMTAD
 70
     0
  9
$DIMZIN
 70
     0
  9
$DIMBLK
  1

  9
$DIMASO
 70
     1
  9
$DIMSHO
 70
     1
  9
$DIMPOST
  1

  9
$DIMAPOST
  1

  9
$DIMALT
 70
     0
  9
$DIMALTD
 70
     3
  9
$DIMALTF
 40
0.0393700787
  9
$DIMLFAC
 40
1.0
  9
$DIMTOFL
 70
     1
  9
$DIMTVP
 40
0.0
  9
$DIMTIX
 70
     0
  9
$DIMSOXD
 70
     0
  9
$DIMSAH
 70
     0
  9
$DIMBLK1
  1

  9
$DIMBLK2
  1

  9
$DIMSTYLE
  2
ISO-25
  9
$DIMCLRD
 70
     0
  9
$DIMCLRE
 70
     0
  9
$DIMCLRT
 70
     0
  9
$DIMTFAC
 40
1.0
  9
$DIMGAP
 40
1.524
  9
$DIMJUST
 70
     0
  9
$DIMSD1
 70
     0
  9
$DIMSD2
 70
     0
  9
$DIMTOLJ
 70
     0
  9
$DIMTZIN
 70
     0
  9
$DIMALTZ
 70
     0
  9
$DIMALTTZ
 70
     0
  9
$DIMUPT
 70
     0
  9
$DIMDEC
 70
     2
  9
$DIMTDEC
 70
     2
  9
$DIMALTU
 70
     2
  9
$DIMALTTD
 70
     3
  9
$DIMTXSTY
  7
Standard
  9
$DIMAUNIT
 70
     0
  9
$DIMADEC
 70
     2
  9
$DIMALTRND
 40
0.0
  9
$DIMAZIN
 70
     0
  9
$DIMDSEP
 70
    44
  9
$DIMATFIT
 70
     3
  9
$DIMFRAC
 70
     0
  9
$DIMLDRBLK
  1

  9
$DIMLUNIT
 70
     2
  9
$DIMLWD
 70
    -2
  9
$DIMLWE
 70
    -2
  9
$DIMTMOVE
 70
     0
  9
$LUNITS
 70
     2
  9
$LUPREC
 70
     2
  9
$SKETCHINC
 40
1.0
  9
$FILLETRAD
 40
10.0
  9
$AUNITS
 70
     0
  9
$AUPREC
 70
     2
  9
$MENU
  1
.
  9
$ELEVATION
 40
0.0
  9
$PELEVATION
 40
0.0
  9
$THICKNESS
 40
0.0
  9
$LIMCHECK
 70
     0
  9
$CHAMFERA
 40
10.0
  9
$CHAMFERB
 40
10.0
  9
$CHAMFERC
 40
20.0
  9
$CHAMFERD
 40
0.0
  9
$SKPOLY
 70
     0
  9
$TDCREATE
 40
2456522.37161581
  9
$TDUCREATE
 40
2456522.579949143
  9
$TDUPDATE
 40
2456522.371616157
  9
$TDUUPDATE
 40
2456522.579949491
  9
$TDINDWG
 40
0.0000000116
  9
$TDUSRTIMER
 40
0.0000000116
  9
$USRTIMER
 70
     1
  9
$ANGBASE
 50
0.0
  9
$ANGDIR
 70
     0
  9
$PDMODE
 70
     0
  9
$PDSIZE
 40
-1.0
  9
$PLINEWID
 40
0.0
  9
$SPLFRAME
 70
     0
  9
$SPLINETYPE
 70
     6
  9
$SPLINESEGS
 70
     8
  9
$HANDSEED
  5
249
  9
$SURFTAB1
 70
     6
  9
$SURFTAB2
 70
     6
  9
$SURFTYPE
 70
     6
  9
$SURFU
 70
     6
  9
$SURFV
 70
     6
  9
$UCSBASE
  2

  9
$UCSNAME
  2

  9
$UCSORG
 10
0.0
 20
0.0
 30
0.0
  9
$UCSXDIR
 10
1.0
 20
0.0
 30
0.0
  9
$UCSYDIR
 10
0.0
 20
1.0
 30
0.0
  9
$UCSORTHOREF
  2

  9
$UCSORTHOVIEW
 70
     0
  9
$UCSORGTOP
 10
0.0
 20
0.0
 30
0.0
  9
$UCSORGBOTTOM
 10
0.0
 20
0.0
 30
0.0
  9
$UCSORGLEFT
 10
0.0
 20
0.0
 30
0.0
  9
$UCSORGRIGHT
 10
0.0
 20
0.0
 30
0.0
  9
$UCSORGFRONT
 10
0.0
 20
0.0
 30
0.0
  9
$UCSORGBACK
 10
0.0
 20
0.0
 30
0.0
  9
$PUCSBASE
  2

  9
$PUCSNAME
  2

  9
$PUCSORG
 10
0.0
 20
0.0
 30
0.0
  9
$PUCSXDIR
 10
1.0
 20
0.0
 30
0.0
  9
$PUCSYDIR
 10
0.0
 20
1.0
 30
0.0
  9
$PUCSORTHOREF
  2

  9
$PUCSORTHOVIEW
 70
     0
  9
$PUCSORGTOP
 10
0.0
 20
0.0
 30
0.0
  9
$PUCSORGBOTTOM
 10
0.0
 20
0.0
 30
0.0
  9
$PUCSORGLEFT
 10
0.0
 20
0.0
 30
0.0
  9
$PUCSORGRIGHT
 10
0.0
 20
0.0
 30
0.0
  9
$PUCSORGFRONT
 10
0.0
 20
0.0
 30
0.0
  9
$PUCSORGBACK
 10
0.0
 20
0.0
 30
0.0
  9
$USERI1
 70
     0
  9
$USERI2
 70
     0
  9
$USERI3
 70
     0
  9
$USERI4
 70
     0
  9
$USERI5
 70
     0
  9
$USERR1
 40
0.0
  9
$USERR2
 40
0.0
  9
$USERR3
 40
0.0
  9
$USERR4
 40
0.0
  9
$USERR5
 40
0.0
  9
$WORLDVIEW
 70
     1
  9
$SHADEDGE
 70
     3
  9
$SHADEDIF
 70
    70
  9
$TILEMODE
 70
     1
  9
$MAXACTVP
 70
    64
  9
$PINSBASE
 10
0.0
 20
0.0
 30
0.0
  9
$PLIMCHECK
 70
     0
  9
$PEXTMIN
 10
1.0000000000E+20
 20
1.0000000000E+20
 30
1.0000000000E+20
  9
$PEXTMAX
 10
-1.0000000000E+20
 20
-1.0000000000E+20
 30
-1.0000000000E+20
  9
$PLIMMIN
 10
0.0
 20
0.0
  9
$PLIMMAX
 10
420.0
 20
297.0
  9
$UNITMODE
 70
     0
  9
$VISRETAIN
 70
     1
  9
$PLINEGEN
 70
     0
  9
$PSLTSCALE
 70
     1
  9
$TREEDEPTH
 70
  3020
  9
$CMLSTYLE
  2
Standard
  9
$CMLJUST
 70
     0
  9
$CMLSCALE
 40
20.0
  9
$PROXYGRAPHICS
 70
     1
  9
$MEASUREMENT
 70
     1
  9
$CELWEIGHT
370
    -1
  9
$ENDCAPS
280
     0
  9
$JOINSTYLE
280
     0
  9
$LWDISPLAY
290
     1
  9
$INSUNITS
 70
     4
  9
$HYPERLINKBASE
  1

  9
$STYLESHEET
  1

  9
$XEDIT
290
     1
  9
$CEPSNTYPE
380
     0
  9
$PSTYLEMODE
290
     1
  9
$FINGERPRINTGUID
  2
{818A19DB-B00E-45EB-AC67-8063741C0802}
  9
$VERSIONGUID
  2
{FAEB1C32-E019-11D5-929B-00C0DF256EC4}
  9
$EXTNAMES
290
     1
  9
$PSVPSCALE
 40
0.0
  9
$OLESTARTUP
290
     0
  0
ENDSEC
  0
SECTION
  2
CLASSES
  0
CLASS
  1
ACDBDICTIONARYWDFLT
  2
AcDbDictionaryWithDefault
  3
ObjectDBX Classes
 90
        0
280
     0
281
     0
  0
CLASS
  1
VISUALSTYLE
  2
AcDbVisualStyle
  3
ObjectDBX Classes
 90
     4095
280
     0
281
     0
  0
CLASS
  1
MATERIAL
  2
AcDbMaterial
  3
ObjectDBX Classes
 90
     1153
280
     0
281
     0
  0
CLASS
  1
ACDBPLACEHOLDER
  2
AcDbPlaceHolder
  3
ObjectDBX Classes
 90
        0
280
     0
281
     0
  0
CLASS
  1
LAYOUT
  2
AcDbLayout
  3
ObjectDBX Classes
 90
        0
280
     0
281
     0
  0
ENDSEC
  0
SECTION
  2
TABLES
  0
TABLE
  2
VPORT
  5
8
330
0
100
AcDbSymbolTable
 70
     1
  0
VPORT
  5
29
330
8
100
AcDbSymbolTableRecord
100
AcDbViewportTableRecord
  2
*Active
 70
     0
 10
0.0
 20
0.0
 11
1.0
 21
1.0
 12
304.8
 22
228.6
 13
0.0
 23
0.0
 14
10.0
 24
10.0
 15
10.0
 25
10.0
 16
0.0
 26
0.0
 36
1.0
 17
0.0
 27
0.0
 37
0.0
 40
457.2
 41
1.3333333333
 42
50.0
 43
0.0
 44
0.0
 50
0.0
 51
0.0
 71
     0
 72
  2000
 73
     1
 74
     3
 75
     0
 76
     0
 77
     0
 78
     0
281
     0
 65
     1
110
0.0
120
0.0
130
0.0
111
1.0
121
0.0
131
0.0
112
0.0
122
1.0
132
0.0
 79
     0
146
0.0
  0
ENDTAB
  0
TABLE
  2
LTYPE
  5
5
330
0
100
AcDbSymbolTable
 70
     6
  0
LTYPE
  5
14
330
5
100
AcDbSymbolTableRecord
100
AcDbLinetypeTableRecord
  2
ByBlock
 70
     0
  3

 72
    65
 73
     0
 40
0.0
  0
LTYPE
  5
15
330
5
100
AcDbSymbolTableRecord
100
AcDbLinetypeTableRecord
  2
ByLayer
 70
     0
  3

 72
    65
 73
     0
 40
0.0
  0
LTYPE
  5
16
330
5
100
AcDbSymbolTableRecord
100
AcDbLinetypeTableRecord
  2
Continuous
 70
     0
  3
Solid line
 72
    65
 73
     0
 40
0.0
  0
LTYPE
  5
3F
330
5
100
AcDbSymbolTableRecord
100
AcDbLinetypeTableRecord
  2
HIDDEN
 70
     0
  3
Hidden __ __ __ __ __ __ __ __ __ __ __ __ __ __
 72
    65
 73
     2
 40
1.905
 49
1.27
 74
     0
 49
-0.635
 74
     0
  0
LTYPE
  5
40
330
5
100
AcDbSymbolTableRecord
100
AcDbLinetypeTableRecord
  2
PHANTOM
 70
     0
  3
Phantom ______  __  __  ______  __  __  ______
 72
    65
 73
     6
 40
12.7
 49
6.35
 74
     0
 49
-1.27
 74
     0
 49
1.27
 74
     0
 49
-1.27
 74
     0
 49
1.27
 74
     0
 49
-1.27
 74
     0
  0
LTYPE
  5
41
330
5
100
AcDbSymbolTableRecord
100
AcDbLinetypeTableRecord
  2
CENTER
 70
     0
  3
Center ____ _ ____ _ ____ _ ____ _ ____ _ ____
 72
    65
 73
     4
 40
10.16
 49
6.35
 74
     0
 49
-1.27
 74
     0
 49
1.27
 74
     0
 49
-1.27
 74
     0
  0
LTYPE
  5
42
330
5
100
AcDbSymbolTableRecord
100
AcDbLinetypeTableRecord
  2
CENTERX2
 70
     0
  3
Center (2x) ________  __  ________  __  _____
 72
    65
 73
     4
 40
20.32
 49
12.7
 74
     0
 49
-2.54
 74
     0
 49
2.54
 74
     0
 49
-2.54
 74
     0
  0
LTYPE
  5
43
330
5
100
AcDbSymbolTableRecord
100
AcDbLinetypeTableRecord
  2
DOT2
 70
     0
  3
Dot (.5x) ........................................
 72
    65
 73
     2
 40
0.635
 49
0.0
 74
     0
 49
-0.635
 74
     0
  0
ENDTAB
  0
TABLE
  2
LAYER
  5
2
330
0
100
AcDbSymbolTable
 70
     1
  0
LAYER
  5
10
330
2
100
AcDbSymbolTableRecord
100
AcDbLayerTableRecord
  2
0
 70
     0
 62
     7
  6
Continuous
370
    -3
390
F
  0
ENDTAB
  0
TABLE
  2
STYLE
  5
3
330
0
100
AcDbSymbolTable
 70
     2
  0
STYLE
  5
11
330
3
100
AcDbSymbolTableRecord
100
AcDbTextStyleTableRecord
  2
Standard
 70
     0
 40
0.0
 41
1.0
 50
0.0
 71
     0
 42
3.175
  3
txt
  4

  0
STYLE
  5
246
330
3
100
AcDbSymbolTableRecord
100
AcDbTextStyleTableRecord
  2
SLDTEXTSTYLE0
 70
     0
 40
0.0
 41
0.7
 50
0.0
 71
     0
 42
0.2
  3
TXT
  4

  0
ENDTAB
  0
TABLE
  2
VIEW
  5
6
330
0
100
AcDbSymbolTable
 70
     0
  0
ENDTAB
  0
TABLE
  2
UCS
  5
7
330
0
100
AcDbSymbolTable
 70
     0
  0
ENDTAB
  0
TABLE
  2
APPID
  5
9
330
0
100
AcDbSymbolTable
 70
     1
  0
APPID
  5
12
330
9
100
AcDbSymbolTableRecord
100
AcDbRegAppTableRecord
  2
ACAD
 70
     0
  0
ENDTAB
  0
TABLE
  2
DIMSTYLE
  5
A
330
0
100
AcDbSymbolTable
 70
     1
100
AcDbDimStyleTable
  0
DIMSTYLE
105
27
330
A
100
AcDbSymbolTableRecord
100
AcDbDimStyleTableRecord
  2
ISO-25
 70
     0
 41
2.5
 42
0.625
 43
3.75
 44
1.25
 73
     0
 74
     0
 77
     1
 78
     8
140
2.5
141
2.5
143
0.0393700787
147
0.625
171
     3
172
     1
178
     0
271
     2
272
     2
274
     3
278
    44
283
     0
284
     8
340
11
  0
ENDTAB
  0
TABLE
  2
BLOCK_RECORD
  5
1
330
0
100
AcDbSymbolTable
 70
     1
  0
BLOCK_RECORD
  5
1F
330
1
100
AcDbSymbolTableRecord
100
AcDbBlockTableRecord
  2
*Model_Space
340
22
  0
BLOCK_RECORD
  5
1B
330
1
100
AcDbSymbolTableRecord
100
AcDbBlockTableRecord
  2
*Paper_Space
340
1E
  0
BLOCK_RECORD
  5
23
330
1
100
AcDbSymbolTableRecord
100
AcDbBlockTableRecord
  2
*Paper_Space0
340
26
  0
ENDTAB
  0
ENDSEC
  0
SECTION
  2
BLOCKS
  0
BLOCK
  5
20
330
1F
100
AcDbEntity
  8
0
100
AcDbBlockBegin
  2
*Model_Space
 70
     0
 10
0.0
 20
0.0
 30
0.0
  3
*Model_Space
  1

  0
ENDBLK
  5
21
330
1F
100
AcDbEntity
  8
0
100
AcDbBlockEnd
  0
BLOCK
  5
1C
330
1B
100
AcDbEntity
 67
     1
  8
0
100
AcDbBlockBegin
  2
*Paper_Space
 70
     0
 10
0.0
 20
0.0
 30
0.0
  3
*Paper_Space
  1

  0
ENDBLK
  5
1D
330
1B
100
AcDbEntity
 67
     1
  8
0
100
AcDbBlockEnd
  0
BLOCK
  5
24
330
23
100
AcDbEntity
  8
0
100
AcDbBlockBegin
  2
*Paper_Space0
 70
     0
 10
0.0
 20
0.0
 30
0.0
  3
*Paper_Space0
  1

  0
ENDBLK
  5
25
330
23
100
AcDbEntity
  8
0
100
AcDbBlockEnd
  0
ENDSEC
  0
SECTION
  2
ENTITIES
  0
LINE
  5
44
330
1F
100
AcDbEntity
  8
0
  6
Continuous
 62
     7
370
    15
100
AcDbLine
 10
491.3604935011
 20
428.2038490995
 30
0.0
 11
496.7785129858
 21
428.2038490995
 31
0.0
  0
LINE
  5
45
330
1F
100
AcDbEntity
  8
0
  6
Continuous
 62
     7
370
    15
100
AcDbLine
 10
496.7785129858
 20
448.2038490995
 30
0.0
 11
496.7785129858
 21
428.2038490995
 31
0.0
  0
LINE
  5
46
330
1F
100
AcDbEntity
  8
0
  6
Continuous
 62
     7
370
    15
100
AcDbLine
 10
596.7785129858
 20
448.2038490995
 30
0.0
 11
496.7785129858
 21
448.2038490995
 31
0.0
  0
LINE
  5
47
330
1F
100
AcDbEntity
  8
0
  6
Continuous
 62
     7
370
    15
100
AcDbLine
 10
596.7785129858
 20
448.2038490995
 30
0.0
 11
596.7785129858
 21
428.2038490995
 31
0.0
  0
LINE
  5
48
330
1F
100
AcDbEntity
  8
0
  6
Continuous
 62
     7
370
    15
100
AcDbLine
 10
602.3785129858
 20
428.2038490995
 30
0.0
 11
596.7785129858
 21
428.2038490995
 31
0.0
  0
LINE
  5
49
330
1F
100
AcDbEntity
  8
0
  6
Continuous
 62
     7
370
    15
100
AcDbLine
 10
602.3785129858
 20
408.2038490995
 30
0.0
 11
602.3785129858
 21
428.2038490995
 31
0.0
  0
LINE
  5
4A
330
1F
100
AcDbEntity
  8
0
  6
Continuous
 62
     7
370
    15
100
AcDbLine
 10
596.7785129858
 20
408.2038490995
 30
0.0
 11
602.3785129858
 21
408.2038490995
 31
0.0
  0
LINE
  5
4B
330
1F
100
AcDbEntity
  8
0
  6
Continuous
 62
     7
370
    15
100
AcDbLine
 10
596.7785129858
 20
408.2038490995
 30
0.0
 11
596.7785129858
 21
388.2038490995
 31
0.0
  0
LINE
  5
4C
330
1F
100
AcDbEntity
  8
0
  6
Continuous
 62
     7
370
    15
100
AcDbLine
 10
602.3785129858
 20
388.2038490995
 30
0.0
 11
596.7785129858
 21
388.2038490995
 31
0.0
  0
LINE
  5
4D
330
1F
100
AcDbEntity
  8
0
  6
Continuous
 62
     7
370
    15
100
AcDbLine
 10
602.3785129858
 20
388.2038490995
 30
0.0
 11
602.3785129858
 21
368.2038490995
 31
0.0
  0
LINE
  5
4E
330
1F
100
AcDbEntity
  8
0
  6
Continuous
 62
     7
370
    15
100
AcDbLine
 10
602.3785129858
 20
368.2038490995
 30
0.0
 11
596.7785129858
 21
368.2038490995
 31
0.0
  0
LINE
  5
4F
330
1F
100
AcDbEntity
  8
0
  6
Continuous
 62
     7
370
    15
100
AcDbLine
 10
596.7785129858
 20
368.2038490995
 30
0.0
 11
596.7785129858
 21
348.2038490995
 31
0.0
  0
LINE
  5
50
330
1F
100
AcDbEntity
  8
0
  6
Continuous
 62
     7
370
    15
100
AcDbLine
 10
602.3785129858
 20
348.2038490995
 30
0.0
 11
596.7785129858
 21
348.2038490995
 31
0.0
  0
LINE
  5
51
330
1F
100
AcDbEntity
  8
0
  6
Continuous
 62
     7
370
    15
100
AcDbLine
 10
602.3785129858
 20
348.2038490995
 30
0.0
 11
602.3785129858
 21
328.2038490995
 31
0.0
  0
LINE
  5
52
330
1F
100
AcDbEntity
  8
0
  6
Continuous
 62
     7
370
    15
100
AcDbLine
 10
602.3785129858
 20
328.2038490995
 30
0.0
 11
596.7785129858
 21
328.2038490995
 31
0.0
  0
LINE
  5
53
330
1F
100
AcDbEntity
  8
0
  6
Continuous
 62
     7
370
    15
100
AcDbLine
 10
596.7785129858
 20
328.2038490995
 30
0.0
 11
596.7785129858
 21
308.2038490995
 31
0.0
  0
LINE
  5
54
330
1F
100
AcDbEntity
  8
0
  6
Continuous
 62
     7
370
    15
100
AcDbLine
 10
602.3785129858
 20
308.2038490995
 30
0.0
 11
596.7785129858
 21
308.2038490995
 31
0.0
  0
LINE
  5
55
330
1F
100
AcDbEntity
  8
0
  6
Continuous
 62
     7
370
    15
100
AcDbLine
 10
471.1785129858
 20
293.2038490995
 30
0.0
 11
476.1785129858
 21
288.2038490995
 31
0.0
  0
LINE
  5
56
330
1F
100
AcDbEntity
  8
0
  6
Continuous
 62
     7
370
    15
100
AcDbLine
 10
476.1785129858
 20
308.2038490995
 30
0.0
 11
471.1785129858
 21
303.2038490995
 31
0.0
  0
LINE
  5
57
330
1F
100
AcDbEntity
  8
0
  6
Continuous
 62
     7
370
    15
100
AcDbLine
 10
476.1785129858
 20
308.2038490995
 30
0.0
 11
481.9965324704
 21
308.2038490995
 31
0.0
  0
LINE
  5
58
330
1F
100
AcDbEntity
  8
0
  6
Continuous
 62
     7
370
    15
100
AcDbLine
 10
481.9965324704
 20
308.2038490995
 30
0.0
 11
481.9965324704
 21
305.2038490995
 31
0.0
  0
LINE
  5
59
330
1F
100
AcDbEntity
  8
0
  6
Continuous
 62
     7
370
    15
100
AcDbLine
 10
481.9965324704
 20
305.2038490995
 30
0.0
 11
476.5875227281
 21
299.7948393572
 31
0.0
  0
LINE
  5
5A
330
1F
100
AcDbEntity
  8
0
  6
Continuous
 62
     7
370
    15
100
AcDbLine
 10
479.7695032435
 20
296.6128588419
 30
0.0
 11
491.3604935011
 21
308.2038490995
 31
0.0
  0
LINE
  5
5B
330
1F
100
AcDbEntity
  8
0
  6
Continuous
 62
     7
370
    15
100
AcDbLine
 10
491.3604935011
 20
308.2038490995
 30
0.0
 11
496.7785129858
 21
308.2038490995
 31
0.0
  0
LINE
  5
5C
330
1F
100
AcDbEntity
  8
0
  6
Continuous
 62
     7
370
    15
100
AcDbLine
 10
496.7785129858
 20
328.2038490995
 30
0.0
 11
496.7785129858
 21
308.2038490995
 31
0.0
  0
LINE
  5
5D
330
1F
100
AcDbEntity
  8
0
  6
Continuous
 62
     7
370
    15
100
AcDbLine
 10
491.1785129858
 20
328.2038490995
 30
0.0
 11
496.7785129858
 21
328.2038490995
 31
0.0
  0
LINE
  5
5E
330
1F
100
AcDbEntity
  8
0
  6
Continuous
 62
     7
370
    15
100
AcDbLine
 10
491.1785129858
 20
348.2038490995
 30
0.0
 11
491.1785129858
 21
328.2038490995
 31
0.0
  0
LINE
  5
5F
330
1F
100
AcDbEntity
  8
0
  6
Continuous
 62
     7
370
    15
100
AcDbLine
 10
491.1785129858
 20
348.2038490995
 30
0.0
 11
496.7785129858
 21
348.2038490995
 31
0.0
  0
LINE
  5
60
330
1F
100
AcDbEntity
  8
0
  6
Continuous
 62
     7
370
    15
100
AcDbLine
 10
496.7785129858
 20
368.2038490995
 30
0.0
 11
496.7785129858
 21
348.2038490995
 31
0.0
  0
LINE
  5
61
330
1F
100
AcDbEntity
  8
0
  6
Continuous
 62
     7
370
    15
100
AcDbLine
 10
491.1785129858
 20
368.2038490995
 30
0.0
 11
496.7785129858
 21
368.2038490995
 31
0.0
  0
LINE
  5
62
330
1F
100
AcDbEntity
  8
0
  6
Continuous
 62
     7
370
    15
100
AcDbLine
 10
491.1785129858
 20
388.2038490995
 30
0.0
 11
491.1785129858
 21
368.2038490995
 31
0.0
  0
LINE
  5
63
330
1F
100
AcDbEntity
  8
0
  6
Continuous
 62
     7
370
    15
100
AcDbLine
 10
491.1785129858
 20
388.2038490995
 30
0.0
 11
496.7785129858
 21
388.2038490995
 31
0.0
  0
LINE
  5
64
330
1F
100
AcDbEntity
  8
0
  6
Continuous
 62
     7
370
    15
100
AcDbLine
 10
496.7785129858
 20
408.2038490995
 30
0.0
 11
496.7785129858
 21
388.2038490995
 31
0.0
  0
LINE
  5
65
330
1F
100
AcDbEntity
  8
0
  6
Continuous
 62
     7
370
    15
100
AcDbLine
 10
476.1785129858
 20
408.2038490995
 30
0.0
 11
496.7785129858
 21
408.2038490995
 31
0.0
  0
LINE
  5
66
330
1F
100
AcDbEntity
  8
0
  6
Continuous
 62
     7
370
    15
100
AcDbLine
 10
471.1785129858
 20
413.2038490995
 30
0.0
 11
476.1785129858
 21
408.2038490995
 31
0.0
  0
LINE
  5
67
330
1F
100
AcDbEntity
  8
0
  6
Continuous
 62
     7
370
    15
100
AcDbLine
 10
471.1785129858
 20
423.2038490995
 30
0.0
 11
471.1785129858
 21
413.2038490995
 31
0.0
  0
LINE
  5
68
330
1F
100
AcDbEntity
  8
0
  6
Continuous
 62
     7
370
    15
100
AcDbLine
 10
476.1785129858
 20
428.2038490995
 30
0.0
 11
471.1785129858
 21
423.2038490995
 31
0.0
  0
LINE
  5
69
330
1F
100
AcDbEntity
  8
0
  6
Continuous
 62
     7
370
    15
100
AcDbLine
 10
476.1785129858
 20
428.2038490995
 30
0.0
 11
481.9965324704
 21
428.2038490995
 31
0.0
  0
LINE
  5
6A
330
1F
100
AcDbEntity
  8
0
  6
Continuous
 62
     7
370
    15
100
AcDbLine
 10
481.9965324704
 20
428.2038490995
 30
0.0
 11
481.9965324704
 21
425.2038490995
 31
0.0
  0
LINE
  5
6B
330
1F
100
AcDbEntity
  8
0
  6
Continuous
 62
     7
370
    15
100
AcDbLine
 10
481.9965324704
 20
425.2038490995
 30
0.0
 11
476.5875227281
 21
419.7948393572
 31
0.0
  0
ARC
  5
6C
330
1F
100
AcDbEntity
  8
0
  6
Continuous
 62
     7
370
    15
100
AcDbCircle
 10
478.1785129858
 20
418.2038490995
 30
0.0
 40
2.250000000000139
100
AcDbArc
 50
135.0
 51
315.0
  0
LINE
  5
6D
330
1F
100
AcDbEntity
  8
0
  6
Continuous
 62
     7
370
    15
100
AcDbLine
 10
479.7695032435
 20
416.6128588419
 30
0.0
 11
491.3604935011
 21
428.2038490995
 31
0.0
  0
ARC
  5
6E
330
1F
100
AcDbEntity
  8
0
  6
Continuous
 62
     7
370
    15
100
AcDbCircle
 10
478.1785129858
 20
298.2038490995
 30
0.0
 40
2.250000000000059
100
AcDbArc
 50
135.0
 51
315.0
  0
LINE
  5
6F
330
1F
100
AcDbEntity
  8
0
  6
Continuous
 62
     7
370
    15
100
AcDbLine
 10
596.7785129858
 20
288.2038490995
 30
0.0
 11
596.7785129858
 21
268.2038490995
 31
0.0
  0
LINE
  5
70
330
1F
100
AcDbEntity
  8
0
  6
Continuous
 62
     7
370
    15
100
AcDbLine
 10
596.7785129858
 20
268.2038490995
 30
0.0
 11
576.7785129858
 21
268.2038490995
 31
0.0
  0
LINE
  5
71
330
1F
100
AcDbEntity
  8
0
  6
Continuous
 62
     7
370
    15
100
AcDbLine
 10
576.7785129858
 20
268.2038490995
 30
0.0
 11
576.7785129858
 21
273.8038490995
 31
0.0
  0
LINE
  5
72
330
1F
100
AcDbEntity
  8
0
  6
Continuous
 62
     7
370
    15
100
AcDbLine
 10
576.7785129858
 20
273.8038490995
 30
0.0
 11
556.7785129858
 21
273.8038490995
 31
0.0
  0
LINE
  5
73
330
1F
100
AcDbEntity
  8
0
  6
Continuous
 62
     7
370
    15
100
AcDbLine
 10
556.7785129858
 20
268.2038490995
 30
0.0
 11
556.7785129858
 21
273.8038490995
 31
0.0
  0
LINE
  5
74
330
1F
100
AcDbEntity
  8
0
  6
Continuous
 62
     7
370
    15
100
AcDbLine
 10
556.7785129858
 20
268.2038490995
 30
0.0
 11
535.3785129858
 21
268.2038490995
 31
0.0
  0
LINE
  5
75
330
1F
100
AcDbEntity
  8
0
  6
Continuous
 62
     7
370
    15
100
AcDbLine
 10
535.3785129858
 20
268.2038490995
 30
0.0
 11
535.3785129858
 21
273.8038490995
 31
0.0
  0
LINE
  5
76
330
1F
100
AcDbEntity
  8
0
  6
Continuous
 62
     7
370
    15
100
AcDbLine
 10
515.3785129858
 20
273.8038490995
 30
0.0
 11
535.3785129858
 21
273.8038490995
 31
0.0
  0
LINE
  5
77
330
1F
100
AcDbEntity
  8
0
  6
Continuous
 62
     7
370
    15
100
AcDbLine
 10
515.3785129858
 20
268.2038490995
 30
0.0
 11
515.3785129858
 21
273.8038490995
 31
0.0
  0
LINE
  5
78
330
1F
100
AcDbEntity
  8
0
  6
Continuous
 62
     7
370
    15
100
AcDbLine
 10
515.3785129858
 20
268.2038490995
 30
0.0
 11
496.7785129858
 21
268.2038490995
 31
0.0
  0
LINE
  5
79
330
1F
100
AcDbEntity
  8
0
  6
Continuous
 62
     7
370
    15
100
AcDbLine
 10
496.7785129858
 20
288.2038490995
 30
0.0
 11
496.7785129858
 21
268.2038490995
 31
0.0
  0
LINE
  5
7A
330
1F
100
AcDbEntity
  8
0
  6
Continuous
 62
     7
370
    15
100
AcDbLine
 10
476.1785129858
 20
288.2038490995
 30
0.0
 11
496.7785129858
 21
288.2038490995
 31
0.0
  0
LINE
  5
7B
330
1F
100
AcDbEntity
  8
0
  6
Continuous
 62
     7
370
    15
100
AcDbLine
 10
471.1785129858
 20
303.2038490995
 30
0.0
 11
471.1785129858
 21
293.2038490995
 31
0.0
  0
LINE
  5
7C
330
1F
100
AcDbEntity
  8
0
  6
Continuous
 62
     7
370
    15
100
AcDbLine
 10
602.3785129858
 20
308.2038490995
 30
0.0
 11
602.3785129858
 21
288.2038490995
 31
0.0
  0
LINE
  5
7D
330
1F
100
AcDbEntity
  8
0
  6
Continuous
 62
     7
370
    15
100
AcDbLine
 10
602.3785129858
 20
288.2038490995
 30
0.0
 11
596.7785129858
 21
288.2038490995
 31
0.0
  0
LINE
  5
7E
330
1F
100
AcDbEntity
  8
0
  6
Continuous
 62
     7
370
    15
100
AcDbLine
 10
475.9007684072
 20
159.9680219074
 30
0.0
 11
475.9007684072
 21
178.5680219074
 31
0.0
  0
LINE
  5
7F
330
1F
100
AcDbEntity
  8
0
  6
Continuous
 62
     7
370
    15
100
AcDbLine
 10
475.9007684072
 20
178.5680219074
 30
0.0
 11
473.1007684072
 21
178.5680219074
 31
0.0
  0
LINE
  5
80
330
1F
100
AcDbEntity
  8
0
  6
Continuous
 62
     7
370
    15
100
AcDbLine
 10
473.1007684072
 20
178.5680219074
 30
0.0
 11
473.1007684072
 21
198.5680219074
 31
0.0
  0
LINE
  5
81
330
1F
100
AcDbEntity
  8
0
  6
Continuous
 62
     7
370
    15
100
AcDbLine
 10
473.1007684072
 20
198.5680219074
 30
0.0
 11
475.9007684072
 21
198.5680219074
 31
0.0
  0
LINE
  5
82
330
1F
100
AcDbEntity
  8
0
  6
Continuous
 62
     7
370
    15
100
AcDbLine
 10
475.9007684072
 20
198.5680219074
 30
0.0
 11
475.9007684072
 21
219.9680219074
 31
0.0
  0
LINE
  5
83
330
1F
100
AcDbEntity
  8
0
  6
Continuous
 62
     7
370
    15
100
AcDbLine
 10
475.9007684072
 20
219.9680219074
 30
0.0
 11
473.1007684072
 21
219.9680219074
 31
0.0
  0
LINE
  5
84
330
1F
100
AcDbEntity
  8
0
  6
Continuous
 62
     7
370
    15
100
AcDbLine
 10
473.1007684072
 20
239.9680219074
 30
0.0
 11
475.9007684072
 21
239.9680219074
 31
0.0
  0
LINE
  5
85
330
1F
100
AcDbEntity
  8
0
  6
Continuous
 62
     7
370
    15
100
AcDbLine
 10
475.9007684072
 20
239.9680219074
 30
0.0
 11
475.9007684072
 21
259.9680219074
 31
0.0
  0
LINE
  5
86
330
1F
100
AcDbEntity
  8
0
  6
Continuous
 62
     7
370
    15
100
AcDbLine
 10
475.9007684072
 20
259.9680219074
 30
0.0
 11
575.9007684072
 21
259.9680219074
 31
0.0
  0
LINE
  5
87
330
1F
100
AcDbEntity
  8
0
  6
Continuous
 62
     7
370
    15
100
AcDbLine
 10
575.9007684072
 20
259.9680219074
 30
0.0
 11
575.9007684072
 21
239.9680219074
 31
0.0
  0
LINE
  5
88
330
1F
100
AcDbEntity
  8
0
  6
Continuous
 62
     7
370
    15
100
AcDbLine
 10
575.9007684072
 20
239.9680219074
 30
0.0
 11
578.7007684072
 21
239.9680219074
 31
0.0
  0
LINE
  5
89
330
1F
100
AcDbEntity
  8
0
  6
Continuous
 62
     7
370
    15
100
AcDbLine
 10
578.7007684072
 20
239.9680219074
 30
0.0
 11
578.7007684072
 21
219.9680219074
 31
0.0
  0
LINE
  5
8A
330
1F
100
AcDbEntity
  8
0
  6
Continuous
 62
     7
370
    15
100
AcDbLine
 10
578.7007684072
 20
219.9680219074
 30
0.0
 11
575.9007684072
 21
219.9680219074
 31
0.0
  0
LINE
  5
8B
330
1F
100
AcDbEntity
  8
0
  6
Continuous
 62
     7
370
    15
100
AcDbLine
 10
575.9007684072
 20
219.9680219074
 30
0.0
 11
575.9007684072
 21
198.5680219074
 31
0.0
  0
LINE
  5
8C
330
1F
100
AcDbEntity
  8
0
  6
Continuous
 62
     7
370
    15
100
AcDbLine
 10
575.9007684072
 20
198.5680219074
 30
0.0
 11
578.7007684072
 21
198.5680219074
 31
0.0
  0
LINE
  5
8D
330
1F
100
AcDbEntity
  8
0
  6
Continuous
 62
     7
370
    15
100
AcDbLine
 10
578.7007684072
 20
198.5680219074
 30
0.0
 11
578.7007684072
 21
178.5680219074
 31
0.0
  0
LINE
  5
8E
330
1F
100
AcDbEntity
  8
0
  6
Continuous
 62
     7
370
    15
100
AcDbLine
 10
578.7007684072
 20
178.5680219074
 30
0.0
 11
575.9007684072
 21
178.5680219074
 31
0.0
  0
LINE
  5
8F
330
1F
100
AcDbEntity
  8
0
  6
Continuous
 62
     7
370
    15
100
AcDbLine
 10
575.9007684072
 20
178.5680219074
 30
0.0
 11
575.9007684072
 21
159.9680219074
 31
0.0
  0
LINE
  5
90
330
1F
100
AcDbEntity
  8
0
  6
Continuous
 62
     7
370
    15
100
AcDbLine
 10
575.9007684072
 20
159.9680219074
 30
0.0
 11
475.9007684072
 21
159.9680219074
 31
0.0
  0
CIRCLE
  5
91
330
1F
100
AcDbEntity
  8
0
  6
Continuous
 62
     1
370
    15
100
AcDbCircle
 10
525.9007684072
 20
186.9680219074
 30
0.0
 40
4.099999999999909
  0
CIRCLE
  5
92
330
1F
100
AcDbEntity
  8
0
  6
Continuous
 62
     1
370
    15
100
AcDbCircle
 10
548.9007684072
 20
209.9680219074
 30
0.0
 40
4.100000000000023
  0
CIRCLE
  5
93
330
1F
100
AcDbEntity
  8
0
  6
Continuous
 62
     1
370
    15
100
AcDbCircle
 10
548.9007684072
 20
197.4680219074
 30
0.0
 40
1.600000000000023
  0
CIRCLE
  5
94
330
1F
100
AcDbEntity
  8
0
  6
Continuous
 62
     1
370
    15
100
AcDbCircle
 10
525.9007684072
 20
174.4680219074
 30
0.0
 40
1.600000000000136
  0
CIRCLE
  5
95
330
1F
100
AcDbEntity
  8
0
  6
Continuous
 62
     1
370
    15
100
AcDbCircle
 10
559.7260859545
 20
216.2180219074
 30
0.0
 40
1.599999999999795
  0
CIRCLE
  5
96
330
1F
100
AcDbEntity
  8
0
  6
Continuous
 62
     1
370
    15
100
AcDbCircle
 10
536.7260859545
 20
193.2180219074
 30
0.0
 40
1.599999999999795
  0
CIRCLE
  5
97
330
1F
100
AcDbEntity
  8
0
  6
Continuous
 62
     1
370
    15
100
AcDbCircle
 10
515.0754508599
 20
193.2180219074
 30
0.0
 40
1.600000000000136
  0
CIRCLE
  5
98
330
1F
100
AcDbEntity
  8
0
  6
Continuous
 62
     1
370
    15
100
AcDbCircle
 10
538.0754508599
 20
216.2180219074
 30
0.0
 40
1.600000000000023
  0
CIRCLE
  5
99
330
1F
100
AcDbEntity
  8
0
  6
Continuous
 62
     1
370
    15
100
AcDbCircle
 10
525.9007684072
 20
209.9680219074
 30
0.0
 40
6.499999999999886
  0
LINE
  5
9A
330
1F
100
AcDbEntity
  8
0
  6
Continuous
 62
     7
370
    15
100
AcDbLine
 10
473.1007684072
 20
219.9680219074
 30
0.0
 11
473.1007684072
 21
239.9680219074
 31
0.0
  0
CIRCLE
  5
9B
330
1F
100
AcDbEntity
  8
0
  6
Continuous
 62
     1
370
    15
100
AcDbCircle
 10
35.14199354
 20
393.3802300016
 30
0.0
 40
1.599999999999959
  0
CIRCLE
  5
9C
330
1F
100
AcDbEntity
  8
0
  6
Continuous
 62
     1
370
    15
100
AcDbCircle
 10
68.6026456895
 20
402.3459847233
 30
0.0
 40
1.599999999999966
  0
LINE
  5
9D
330
1F
100
AcDbEntity
  8
0
  6
Continuous
 62
     7
370
    15
100
AcDbLine
 10
382.8605100657
 20
268.2038490995
 30
0.0
 11
382.8605100657
 21
273.8038490995
 31
0.0
  0
LINE
  5
9E
330
1F
100
AcDbEntity
  8
0
  6
Continuous
 62
     7
370
    15
100
AcDbLine
 10
362.8605100657
 20
273.8038490995
 30
0.0
 11
382.8605100657
 21
273.8038490995
 31
0.0
  0
LINE
  5
9F
330
1F
100
AcDbEntity
  8
0
  6
Continuous
 62
     7
370
    15
100
AcDbLine
 10
362.8605100657
 20
268.2038490995
 30
0.0
 11
362.8605100657
 21
273.8038490995
 31
0.0
  0
LINE
  5
A0
330
1F
100
AcDbEntity
  8
0
  6
Continuous
 62
     7
370
    15
100
AcDbLine
 10
106.0605100657
 20
268.2038490995
 30
0.0
 11
362.8605100657
 21
268.2038490995
 31
0.0
  0
LINE
  5
A1
330
1F
100
AcDbEntity
  8
0
  6
Continuous
 62
     7
370
    15
100
AcDbLine
 10
106.0605100657
 20
268.2038490995
 30
0.0
 11
106.0605100657
 21
273.8038490995
 31
0.0
  0
LINE
  5
A2
330
1F
100
AcDbEntity
  8
0
  6
Continuous
 62
     7
370
    15
100
AcDbLine
 10
106.0605100657
 20
273.8038490995
 30
0.0
 11
86.0605100657
 21
273.8038490995
 31
0.0
  0
LINE
  5
A3
330
1F
100
AcDbEntity
  8
0
  6
Continuous
 62
     7
370
    15
100
AcDbLine
 10
86.0605100657
 20
268.2038490995
 30
0.0
 11
86.0605100657
 21
273.8038490995
 31
0.0
  0
LINE
  5
A4
330
1F
100
AcDbEntity
  8
0
  6
Continuous
 62
     7
370
    15
100
AcDbLine
 10
12.4605100657
 20
268.2038490995
 30
0.0
 11
86.0605100657
 21
268.2038490995
 31
0.0
  0
LINE
  5
A5
330
1F
100
AcDbEntity
  8
0
  6
Continuous
 62
     7
370
    15
100
AcDbLine
 10
9.4605100657
 20
271.2038490995
 30
0.0
 11
12.4605100657
 21
268.2038490995
 31
0.0
  0
LINE
  5
A6
330
1F
100
AcDbEntity
  8
0
  6
Continuous
 62
     7
370
    15
100
AcDbLine
 10
9.4605100657
 20
271.2038490995
 30
0.0
 11
9.4605100657
 21
445.2038490995
 31
0.0
  0
LINE
  5
A7
330
1F
100
AcDbEntity
  8
0
  6
Continuous
 62
     7
370
    15
100
AcDbLine
 10
12.4605100657
 20
448.2038490995
 30
0.0
 11
9.4605100657
 21
445.2038490995
 31
0.0
  0
LINE
  5
A8
330
1F
100
AcDbEntity
  8
0
  6
Continuous
 62
     7
370
    15
100
AcDbLine
 10
12.4605100657
 20
448.2038490995
 30
0.0
 11
74.9605100657
 21
448.2038490995
 31
0.0
  0
LINE
  5
A9
330
1F
100
AcDbEntity
  8
0
  6
Continuous
 62
     7
370
    15
100
AcDbLine
 10
79.9605100657
 20
443.2038490995
 30
0.0
 11
74.9605100657
 21
448.2038490995
 31
0.0
  0
LINE
  5
AA
330
1F
100
AcDbEntity
  8
0
  6
Continuous
 62
     7
370
    15
100
AcDbLine
 10
79.9605100657
 20
418.2038490995
 30
0.0
 11
79.9605100657
 21
443.2038490995
 31
0.0
  0
LINE
  5
AB
330
1F
100
AcDbEntity
  8
0
  6
Continuous
 62
     7
370
    15
100
AcDbLine
 10
91.9605100657
 20
418.2038490995
 30
0.0
 11
79.9605100657
 21
418.2038490995
 31
0.0
  0
LINE
  5
AC
330
1F
100
AcDbEntity
  8
0
  6
Continuous
 62
     7
370
    15
100
AcDbLine
 10
119.6222431667
 20
445.8655822005
 30
0.0
 11
91.9605100657
 21
418.2038490995
 31
0.0
  0
ARC
  5
AD
330
1F
100
AcDbEntity
  8
0
  6
Continuous
 62
     7
370
    15
100
AcDbCircle
 10
125.2790974162
 20
440.208727951
 30
0.0
 40
8.000000000000002
100
AcDbArc
 50
92.0011217376
 51
135.0
  0
LINE
  5
AE
330
1F
100
AcDbEntity
  8
0
  6
Continuous
 62
     7
370
    15
100
AcDbLine
 10
124.9997449139
 20
448.2038490995
 30
0.0
 11
343.9212752175
 21
448.2038490995
 31
0.0
  0
ARC
  5
AF
330
1F
100
AcDbEntity
  8
0
  6
Continuous
 62
     7
370
    15
100
AcDbCircle
 10
343.6419227153
 20
440.208727951
 30
0.0
 40
8.000000000000002
100
AcDbArc
 50
45.0
 51
87.9988782624
  0
LINE
  5
B0
330
1F
100
AcDbEntity
  8
0
  6
Continuous
 62
     7
370
    15
100
AcDbLine
 10
349.2987769648
 20
445.8655822005
 30
0.0
 11
376.9605100657
 21
418.2038490995
 31
0.0
  0
LINE
  5
B1
330
1F
100
AcDbEntity
  8
0
  6
Continuous
 62
     7
370
    15
100
AcDbLine
 10
376.9605100657
 20
418.2038490995
 30
0.0
 11
388.9605100657
 21
418.2038490995
 31
0.0
  0
LINE
  5
B2
330
1F
100
AcDbEntity
  8
0
  6
Continuous
 62
     7
370
    15
100
AcDbLine
 10
388.9605100657
 20
418.2038490995
 30
0.0
 11
388.9605100657
 21
443.2038490995
 31
0.0
  0
LINE
  5
B3
330
1F
100
AcDbEntity
  8
0
  6
Continuous
 62
     7
370
    15
100
AcDbLine
 10
388.9605100657
 20
443.2038490995
 30
0.0
 11
393.9605100657
 21
448.2038490995
 31
0.0
  0
LINE
  5
B4
330
1F
100
AcDbEntity
  8
0
  6
Continuous
 62
     7
370
    15
100
AcDbLine
 10
393.9605100657
 20
448.2038490995
 30
0.0
 11
456.4605100657
 21
448.2038490995
 31
0.0
  0
LINE
  5
B5
330
1F
100
AcDbEntity
  8
0
  6
Continuous
 62
     7
370
    15
100
AcDbLine
 10
459.4605100657
 20
445.2038490995
 30
0.0
 11
456.4605100657
 21
448.2038490995
 31
0.0
  0
LINE
  5
B6
330
1F
100
AcDbEntity
  8
0
  6
Continuous
 62
     7
370
    15
100
AcDbLine
 10
459.4605100657
 20
271.2038490995
 30
0.0
 11
459.4605100657
 21
445.2038490995
 31
0.0
  0
LINE
  5
B7
330
1F
100
AcDbEntity
  8
0
  6
Continuous
 62
     7
370
    15
100
AcDbLine
 10
456.4605100657
 20
268.2038490995
 30
0.0
 11
459.4605100657
 21
271.2038490995
 31
0.0
  0
LINE
  5
B8
330
1F
100
AcDbEntity
  8
0
  6
Continuous
 62
     7
370
    15
100
AcDbLine
 10
382.8605100657
 20
268.2038490995
 30
0.0
 11
456.4605100657
 21
268.2038490995
 31
0.0
  0
LINE
  5
B9
330
1F
100
AcDbEntity
  8
0
  6
Continuous
 62
     1
370
    15
100
AcDbLine
 10
413.9605100657
 20
414.3038490995
 30
0.0
 11
398.9605100657
 21
414.3038490995
 31
0.0
  0
ARC
  5
BA
330
1F
100
AcDbEntity
  8
0
  6
Continuous
 62
     1
370
    15
100
AcDbCircle
 10
398.9605100657
 20
412.7038490995
 30
0.0
 40
1.600000000000193
100
AcDbArc
 50
90.0
 51
270.0
  0
LINE
  5
BB
330
1F
100
AcDbEntity
  8
0
  6
Continuous
 62
     1
370
    15
100
AcDbLine
 10
413.9605100657
 20
411.1038490995
 30
0.0
 11
398.9605100657
 21
411.1038490995
 31
0.0
  0
ARC
  5
BC
330
1F
100
AcDbEntity
  8
0
  6
Continuous
 62
     1
370
    15
100
AcDbCircle
 10
413.9605100657
 20
412.7038490995
 30
0.0
 40
1.600000000000421
100
AcDbArc
 50
270.0
 51
90.0
  0
ARC
  5
BD
330
1F
100
AcDbEntity
  8
0
  6
Continuous
 62
     1
370
    15
100
AcDbCircle
 10
34.4605100657
 20
428.2038490995
 30
0.0
 40
0.2500000000000568
100
AcDbArc
 50
88.5674562624
 51
90.0
  0
LINE
  5
BE
330
1F
100
AcDbEntity
  8
0
  6
Continuous
 62
     1
370
    15
100
AcDbLine
 10
34.4605100657
 20
428.4538490995
 30
0.0
 11
30.9641873318
 21
428.4538490995
 31
0.0
  0
ARC
  5
BF
330
1F
100
AcDbEntity
  8
0
  6
Continuous
 62
     1
370
    15
100
AcDbCircle
 10
39.4605100657
 20
428.2038490995
 30
0.0
 40
8.500000000000114
100
AcDbArc
 50
90.0
 51
178.3145869598
  0
ARC
  5
C0
330
1F
100
AcDbEntity
  8
0
  6
Continuous
 62
     1
370
    15
100
AcDbCircle
 10
39.4605100657
 20
428.2038490995
 30
0.0
 40
9.500000000000057
100
AcDbArc
 50
90.0
 51
270.0
  0
LINE
  5
C1
330
1F
100
AcDbEntity
  8
0
  6
Continuous
 62
     1
370
    15
100
AcDbLine
 10
39.4605100657
 20
419.7038490995
 30
0.0
 11
39.4605100657
 21
418.7038490995
 31
0.0
  0
ARC
  5
C2
330
1F
100
AcDbEntity
  8
0
  6
Continuous
 62
     1
370
    15
100
AcDbCircle
 10
39.4605100657
 20
428.2038490995
 30
0.0
 40
8.500000000000018
100
AcDbArc
 50
181.6854130402
 51
270.0
  0
LINE
  5
C3
330
1F
100
AcDbEntity
  8
0
  6
Continuous
 62
     1
370
    15
100
AcDbLine
 10
34.4605100657
 20
427.9538490995
 30
0.0
 11
30.9641873318
 21
427.9538490995
 31
0.0
  0
ARC
  5
C4
330
1F
100
AcDbEntity
  8
0
  6
Continuous
 62
     1
370
    15
100
AcDbCircle
 10
34.4605100657
 20
428.2038490995
 30
0.0
 40
0.2499999999999561
100
AcDbArc
 50
270.0
 51
271.4325437376
  0
ARC
  5
C5
330
1F
100
AcDbEntity
  8
0
  6
Continuous
 62
     1
370
    15
100
AcDbCircle
 10
39.4605100657
 20
428.2038490995
 30
0.0
 40
4.999999999999992
100
AcDbArc
 50
182.8650874751
 51
177.1349125249
  0
ARC
  5
C6
330
1F
100
AcDbEntity
  8
0
  6
Continuous
 62
     1
370
    15
100
AcDbCircle
 10
398.9605100657
 20
443.7038490995
 30
0.0
 40
1.600000000000193
100
AcDbArc
 50
90.0
 51
270.0
  0
LINE
  5
C7
330
1F
100
AcDbEntity
  8
0
  6
Continuous
 62
     1
370
    15
100
AcDbLine
 10
413.9605100657
 20
442.1038490995
 30
0.0
 11
398.9605100657
 21
442.1038490995
 31
0.0
  0
ARC
  5
C8
330
1F
100
AcDbEntity
  8
0
  6
Continuous
 62
     1
370
    15
100
AcDbCircle
 10
413.9605100657
 20
443.7038490995
 30
0.0
 40
1.600000000000421
100
AcDbArc
 50
270.0
 51
90.0
  0
LINE
  5
C9
330
1F
100
AcDbEntity
  8
0
  6
Continuous
 62
     1
370
    15
100
AcDbLine
 10
413.9605100657
 20
445.3038490995
 30
0.0
 11
398.9605100657
 21
445.3038490995
 31
0.0
  0
ARC
  5
CA
330
1F
100
AcDbEntity
  8
0
  6
Continuous
 62
     1
370
    15
100
AcDbCircle
 10
429.9605100657
 20
443.7038490995
 30
0.0
 40
1.600000000000023
100
AcDbArc
 50
90.0
 51
270.0
  0
LINE
  5
CB
330
1F
100
AcDbEntity
  8
0
  6
Continuous
 62
     1
370
    15
100
AcDbLine
 10
444.9605100657
 20
442.1038490995
 30
0.0
 11
429.9605100657
 21
442.1038490995
 31
0.0
  0
ARC
  5
CC
330
1F
100
AcDbEntity
  8
0
  6
Continuous
 62
     1
370
    15
100
AcDbCircle
 10
444.9605100657
 20
443.7038490995
 30
0.0
 40
1.600000000000023
100
AcDbArc
 50
270.0
 51
90.0
  0
LINE
  5
CD
330
1F
100
AcDbEntity
  8
0
  6
Continuous
 62
     1
370
    15
100
AcDbLine
 10
444.9605100657
 20
445.3038490995
 30
0.0
 11
429.9605100657
 21
445.3038490995
 31
0.0
  0
ARC
  5
CE
330
1F
100
AcDbEntity
  8
0
  6
Continuous
 62
     1
370
    15
100
AcDbCircle
 10
429.9605100657
 20
412.7038490995
 30
0.0
 40
1.600000000000023
100
AcDbArc
 50
90.0
 51
270.0
  0
LINE
  5
CF
330
1F
100
AcDbEntity
  8
0
  6
Continuous
 62
     1
370
    15
100
AcDbLine
 10
444.9605100657
 20
411.1038490995
 30
0.0
 11
429.9605100657
 21
411.1038490995
 31
0.0
  0
ARC
  5
D0
330
1F
100
AcDbEntity
  8
0
  6
Continuous
 62
     1
370
    15
100
AcDbCircle
 10
444.9605100657
 20
412.7038490995
 30
0.0
 40
1.600000000000023
100
AcDbArc
 50
270.0
 51
90.0
  0
LINE
  5
D1
330
1F
100
AcDbEntity
  8
0
  6
Continuous
 62
     1
370
    15
100
AcDbLine
 10
444.9605100657
 20
414.3038490995
 30
0.0
 11
429.9605100657
 21
414.3038490995
 31
0.0
  0
ARC
  5
D2
330
1F
100
AcDbEntity
  8
0
  6
Continuous
 62
     1
370
    15
100
AcDbCircle
 10
414.4605100657
 20
428.2038490995
 30
0.0
 40
11.50000000000006
100
AcDbArc
 50
90.0
 51
270.0
  0
LINE
  5
D3
330
1F
100
AcDbEntity
  8
0
  6
Continuous
 62
     1
370
    15
100
AcDbLine
 10
429.4605100657
 20
416.7038490995
 30
0.0
 11
414.4605100657
 21
416.7038490995
 31
0.0
  0
ARC
  5
D4
330
1F
100
AcDbEntity
  8
0
  6
Continuous
 62
     1
370
    15
100
AcDbCircle
 10
429.4605100657
 20
428.2038490995
 30
0.0
 40
11.50000000000011
100
AcDbArc
 50
270.0
 51
90.0
  0
LINE
  5
D5
330
1F
100
AcDbEntity
  8
0
  6
Continuous
 62
     1
370
    15
100
AcDbLine
 10
429.4605100657
 20
439.7038490995
 30
0.0
 11
414.4605100657
 21
439.7038490995
 31
0.0
  0
LINE
  5
D6
330
1F
100
AcDbEntity
  8
0
  6
Continuous
 62
     1
370
    15
100
AcDbLine
 10
231.6605100657
 20
348.2038490995
 30
0.0
 11
231.6605100657
 21
328.2038490995
 31
0.0
  0
LINE
  5
D7
330
1F
100
AcDbEntity
  8
0
  6
Continuous
 62
     1
370
    15
100
AcDbLine
 10
231.6605100657
 20
328.2038490995
 30
0.0
 11
237.2605100657
 21
328.2038490995
 31
0.0
  0
LINE
  5
D8
330
1F
100
AcDbEntity
  8
0
  6
Continuous
 62
     1
370
    15
100
AcDbLine
 10
237.2605100657
 20
348.2038490995
 30
0.0
 11
237.2605100657
 21
328.2038490995
 31
0.0
  0
LINE
  5
D9
330
1F
100
AcDbEntity
  8
0
  6
Continuous
 62
     1
370
    15
100
AcDbLine
 10
231.6605100657
 20
348.2038490995
 30
0.0
 11
237.2605100657
 21
348.2038490995
 31
0.0
  0
LINE
  5
DA
330
1F
100
AcDbEntity
  8
0
  6
Continuous
 62
     1
370
    15
100
AcDbLine
 10
231.6605100657
 20
428.2038490995
 30
0.0
 11
231.6605100657
 21
408.2038490995
 31
0.0
  0
LINE
  5
DB
330
1F
100
AcDbEntity
  8
0
  6
Continuous
 62
     1
370
    15
100
AcDbLine
 10
231.6605100657
 20
408.2038490995
 30
0.0
 11
237.2605100657
 21
408.2038490995
 31
0.0
  0
LINE
  5
DC
330
1F
100
AcDbEntity
  8
0
  6
Continuous
 62
     1
370
    15
100
AcDbLine
 10
237.2605100657
 20
428.2038490995
 30
0.0
 11
237.2605100657
 21
408.2038490995
 31
0.0
  0
LINE
  5
DD
330
1F
100
AcDbEntity
  8
0
  6
Continuous
 62
     1
370
    15
100
AcDbLine
 10
231.6605100657
 20
428.2038490995
 30
0.0
 11
237.2605100657
 21
428.2038490995
 31
0.0
  0
LINE
  5
DE
330
1F
100
AcDbEntity
  8
0
  6
Continuous
 62
     1
370
    15
100
AcDbLine
 10
126.0605100657
 20
428.2038490995
 30
0.0
 11
126.0605100657
 21
408.2038490995
 31
0.0
  0
LINE
  5
DF
330
1F
100
AcDbEntity
  8
0
  6
Continuous
 62
     1
370
    15
100
AcDbLine
 10
131.6605100657
 20
408.2038490995
 30
0.0
 11
126.0605100657
 21
408.2038490995
 31
0.0
  0
LINE
  5
E0
330
1F
100
AcDbEntity
  8
0
  6
Continuous
 62
     1
370
    15
100
AcDbLine
 10
131.6605100657
 20
428.2038490995
 30
0.0
 11
131.6605100657
 21
408.2038490995
 31
0.0
  0
LINE
  5
E1
330
1F
100
AcDbEntity
  8
0
  6
Continuous
 62
     1
370
    15
100
AcDbLine
 10
131.6605100657
 20
428.2038490995
 30
0.0
 11
126.0605100657
 21
428.2038490995
 31
0.0
  0
LINE
  5
E2
330
1F
100
AcDbEntity
  8
0
  6
Continuous
 62
     1
370
    15
100
AcDbLine
 10
126.0605100657
 20
388.2038490995
 30
0.0
 11
126.0605100657
 21
368.2038490995
 31
0.0
  0
LINE
  5
E3
330
1F
100
AcDbEntity
  8
0
  6
Continuous
 62
     1
370
    15
100
AcDbLine
 10
131.6605100657
 20
368.2038490995
 30
0.0
 11
126.0605100657
 21
368.2038490995
 31
0.0
  0
LINE
  5
E4
330
1F
100
AcDbEntity
  8
0
  6
Continuous
 62
     1
370
    15
100
AcDbLine
 10
131.6605100657
 20
388.2038490995
 30
0.0
 11
131.6605100657
 21
368.2038490995
 31
0.0
  0
LINE
  5
E5
330
1F
100
AcDbEntity
  8
0
  6
Continuous
 62
     1
370
    15
100
AcDbLine
 10
131.6605100657
 20
388.2038490995
 30
0.0
 11
126.0605100657
 21
388.2038490995
 31
0.0
  0
LINE
  5
E6
330
1F
100
AcDbEntity
  8
0
  6
Continuous
 62
     1
370
    15
100
AcDbLine
 10
126.0605100657
 20
348.2038490995
 30
0.0
 11
126.0605100657
 21
328.2038490995
 31
0.0
  0
LINE
  5
E7
330
1F
100
AcDbEntity
  8
0
  6
Continuous
 62
     1
370
    15
100
AcDbLine
 10
131.6605100657
 20
328.2038490995
 30
0.0
 11
126.0605100657
 21
328.2038490995
 31
0.0
  0
LINE
  5
E8
330
1F
100
AcDbEntity
  8
0
  6
Continuous
 62
     1
370
    15
100
AcDbLine
 10
131.6605100657
 20
348.2038490995
 30
0.0
 11
131.6605100657
 21
328.2038490995
 31
0.0
  0
LINE
  5
E9
330
1F
100
AcDbEntity
  8
0
  6
Continuous
 62
     1
370
    15
100
AcDbLine
 10
131.6605100657
 20
348.2038490995
 30
0.0
 11
126.0605100657
 21
348.2038490995
 31
0.0
  0
LINE
  5
EA
330
1F
100
AcDbEntity
  8
0
  6
Continuous
 62
     1
370
    15
100
AcDbLine
 10
126.0605100657
 20
308.2038490995
 30
0.0
 11
126.0605100657
 21
288.2038490995
 31
0.0
  0
LINE
  5
EB
330
1F
100
AcDbEntity
  8
0
  6
Continuous
 62
     1
370
    15
100
AcDbLine
 10
131.6605100657
 20
288.2038490995
 30
0.0
 11
126.0605100657
 21
288.2038490995
 31
0.0
  0
LINE
  5
EC
330
1F
100
AcDbEntity
  8
0
  6
Continuous
 62
     1
370
    15
100
AcDbLine
 10
131.6605100657
 20
308.2038490995
 30
0.0
 11
131.6605100657
 21
288.2038490995
 31
0.0
  0
LINE
  5
ED
330
1F
100
AcDbEntity
  8
0
  6
Continuous
 62
     1
370
    15
100
AcDbLine
 10
131.6605100657
 20
308.2038490995
 30
0.0
 11
126.0605100657
 21
308.2038490995
 31
0.0
  0
LINE
  5
EE
330
1F
100
AcDbEntity
  8
0
  6
Continuous
 62
     1
370
    15
100
AcDbLine
 10
337.2605100657
 20
348.2038490995
 30
0.0
 11
337.2605100657
 21
328.2038490995
 31
0.0
  0
LINE
  5
EF
330
1F
100
AcDbEntity
  8
0
  6
Continuous
 62
     1
370
    15
100
AcDbLine
 10
337.2605100657
 20
328.2038490995
 30
0.0
 11
342.8605100657
 21
328.2038490995
 31
0.0
  0
LINE
  5
F0
330
1F
100
AcDbEntity
  8
0
  6
Continuous
 62
     1
370
    15
100
AcDbLine
 10
342.8605100657
 20
348.2038490995
 30
0.0
 11
342.8605100657
 21
328.2038490995
 31
0.0
  0
LINE
  5
F1
330
1F
100
AcDbEntity
  8
0
  6
Continuous
 62
     1
370
    15
100
AcDbLine
 10
337.2605100657
 20
348.2038490995
 30
0.0
 11
342.8605100657
 21
348.2038490995
 31
0.0
  0
LINE
  5
F2
330
1F
100
AcDbEntity
  8
0
  6
Continuous
 62
     1
370
    15
100
AcDbLine
 10
337.2605100657
 20
428.2038490995
 30
0.0
 11
337.2605100657
 21
408.2038490995
 31
0.0
  0
LINE
  5
F3
330
1F
100
AcDbEntity
  8
0
  6
Continuous
 62
     1
370
    15
100
AcDbLine
 10
337.2605100657
 20
408.2038490995
 30
0.0
 11
342.8605100657
 21
408.2038490995
 31
0.0
  0
LINE
  5
F4
330
1F
100
AcDbEntity
  8
0
  6
Continuous
 62
     1
370
    15
100
AcDbLine
 10
342.8605100657
 20
428.2038490995
 30
0.0
 11
342.8605100657
 21
408.2038490995
 31
0.0
  0
LINE
  5
F5
330
1F
100
AcDbEntity
  8
0
  6
Continuous
 62
     1
370
    15
100
AcDbLine
 10
337.2605100657
 20
428.2038490995
 30
0.0
 11
342.8605100657
 21
428.2038490995
 31
0.0
  0
LINE
  5
F6
330
1F
100
AcDbEntity
  8
0
  6
Continuous
 62
     1
370
    15
100
AcDbLine
 10
337.2605100657
 20
388.2038490995
 30
0.0
 11
337.2605100657
 21
368.2038490995
 31
0.0
  0
LINE
  5
F7
330
1F
100
AcDbEntity
  8
0
  6
Continuous
 62
     1
370
    15
100
AcDbLine
 10
337.2605100657
 20
368.2038490995
 30
0.0
 11
342.8605100657
 21
368.2038490995
 31
0.0
  0
LINE
  5
F8
330
1F
100
AcDbEntity
  8
0
  6
Continuous
 62
     1
370
    15
100
AcDbLine
 10
342.8605100657
 20
388.2038490995
 30
0.0
 11
342.8605100657
 21
368.2038490995
 31
0.0
  0
LINE
  5
F9
330
1F
100
AcDbEntity
  8
0
  6
Continuous
 62
     1
370
    15
100
AcDbLine
 10
337.2605100657
 20
388.2038490995
 30
0.0
 11
342.8605100657
 21
388.2038490995
 31
0.0
  0
LINE
  5
FA
330
1F
100
AcDbEntity
  8
0
  6
Continuous
 62
     1
370
    15
100
AcDbLine
 10
337.2605100657
 20
308.2038490995
 30
0.0
 11
337.2605100657
 21
288.2038490995
 31
0.0
  0
LINE
  5
FB
330
1F
100
AcDbEntity
  8
0
  6
Continuous
 62
     1
370
    15
100
AcDbLine
 10
337.2605100657
 20
288.2038490995
 30
0.0
 11
342.8605100657
 21
288.2038490995
 31
0.0
  0
LINE
  5
FC
330
1F
100
AcDbEntity
  8
0
  6
Continuous
 62
     1
370
    15
100
AcDbLine
 10
342.8605100657
 20
308.2038490995
 30
0.0
 11
342.8605100657
 21
288.2038490995
 31
0.0
  0
LINE
  5
FD
330
1F
100
AcDbEntity
  8
0
  6
Continuous
 62
     1
370
    15
100
AcDbLine
 10
337.2605100657
 20
308.2038490995
 30
0.0
 11
342.8605100657
 21
308.2038490995
 31
0.0
  0
LINE
  5
FE
330
1F
100
AcDbEntity
  8
0
  6
Continuous
 62
     1
370
    15
100
AcDbLine
 10
231.6605100657
 20
388.2038490995
 30
0.0
 11
231.6605100657
 21
368.2038490995
 31
0.0
  0
LINE
  5
FF
330
1F
100
AcDbEntity
  8
0
  6
Continuous
 62
     1
370
    15
100
AcDbLine
 10
231.6605100657
 20
368.2038490995
 30
0.0
 11
237.2605100657
 21
368.2038490995
 31
0.0
  0
LINE
  5
100
330
1F
100
AcDbEntity
  8
0
  6
Continuous
 62
     1
370
    15
100
AcDbLine
 10
237.2605100657
 20
388.2038490995
 30
0.0
 11
237.2605100657
 21
368.2038490995
 31
0.0
  0
LINE
  5
101
330
1F
100
AcDbEntity
  8
0
  6
Continuous
 62
     1
370
    15
100
AcDbLine
 10
231.6605100657
 20
388.2038490995
 30
0.0
 11
237.2605100657
 21
388.2038490995
 31
0.0
  0
LINE
  5
102
330
1F
100
AcDbEntity
  8
0
  6
Continuous
 62
     1
370
    15
100
AcDbLine
 10
231.6605100657
 20
308.2038490995
 30
0.0
 11
231.6605100657
 21
288.2038490995
 31
0.0
  0
LINE
  5
103
330
1F
100
AcDbEntity
  8
0
  6
Continuous
 62
     1
370
    15
100
AcDbLine
 10
231.6605100657
 20
288.2038490995
 30
0.0
 11
237.2605100657
 21
288.2038490995
 31
0.0
  0
LINE
  5
104
330
1F
100
AcDbEntity
  8
0
  6
Continuous
 62
     1
370
    15
100
AcDbLine
 10
237.2605100657
 20
308.2038490995
 30
0.0
 11
237.2605100657
 21
288.2038490995
 31
0.0
  0
LINE
  5
105
330
1F
100
AcDbEntity
  8
0
  6
Continuous
 62
     1
370
    15
100
AcDbLine
 10
231.6605100657
 20
308.2038490995
 30
0.0
 11
237.2605100657
 21
308.2038490995
 31
0.0
  0
CIRCLE
  5
106
330
1F
100
AcDbEntity
  8
0
  6
Continuous
 62
     1
370
    15
100
AcDbCircle
 10
414.4605100657
 20
388.2038490995
 30
0.0
 40
4.050000000000011
  0
CIRCLE
  5
107
330
1F
100
AcDbEntity
  8
0
  6
Continuous
 62
     1
370
    15
100
AcDbCircle
 10
400.318374442
 20
402.3459847233
 30
0.0
 40
1.599999999999909
  0
CIRCLE
  5
108
330
1F
100
AcDbEntity
  8
0
  6
Continuous
 62
     1
370
    15
100
AcDbCircle
 10
409.2841291637
 20
368.8853325737
 30
0.0
 40
1.599999999999966
  0
CIRCLE
  5
109
330
1F
100
AcDbEntity
  8
0
  6
Continuous
 62
     1
370
    15
100
AcDbCircle
 10
433.7790265915
 20
393.3802300016
 30
0.0
 40
1.599999999999909
  0
LINE
  5
10A
330
1F
100
AcDbEntity
  8
0
  6
Continuous
 62
     1
370
    15
100
AcDbLine
 10
456.4605100657
 20
408.2038490995
 30
0.0
 11
453.4605100657
 21
408.2038490995
 31
0.0
  0
LINE
  5
10B
330
1F
100
AcDbEntity
  8
0
  6
Continuous
 62
     1
370
    15
100
AcDbLine
 10
453.4605100657
 20
408.2038490995
 30
0.0
 11
453.4605100657
 21
404.2038490995
 31
0.0
  0
LINE
  5
10C
330
1F
100
AcDbEntity
  8
0
  6
Continuous
 62
     1
370
    15
100
AcDbLine
 10
453.4605100657
 20
404.2038490995
 30
0.0
 11
456.4605100657
 21
404.2038490995
 31
0.0
  0
LINE
  5
10D
330
1F
100
AcDbEntity
  8
0
  6
Continuous
 62
     1
370
    15
100
AcDbLine
 10
456.4605100657
 20
404.2038490995
 30
0.0
 11
456.4605100657
 21
408.2038490995
 31
0.0
  0
LINE
  5
10E
330
1F
100
AcDbEntity
  8
0
  6
Continuous
 62
     1
370
    15
100
AcDbLine
 10
453.4605100657
 20
368.2038490995
 30
0.0
 11
453.4605100657
 21
364.2038490995
 31
0.0
  0
LINE
  5
10F
330
1F
100
AcDbEntity
  8
0
  6
Continuous
 62
     1
370
    15
100
AcDbLine
 10
453.4605100657
 20
364.2038490995
 30
0.0
 11
456.4605100657
 21
364.2038490995
 31
0.0
  0
LINE
  5
110
330
1F
100
AcDbEntity
  8
0
  6
Continuous
 62
     1
370
    15
100
AcDbLine
 10
456.4605100657
 20
364.2038490995
 30
0.0
 11
456.4605100657
 21
368.2038490995
 31
0.0
  0
LINE
  5
111
330
1F
100
AcDbEntity
  8
0
  6
Continuous
 62
     1
370
    15
100
AcDbLine
 10
456.4605100657
 20
368.2038490995
 30
0.0
 11
453.4605100657
 21
368.2038490995
 31
0.0
  0
LINE
  5
112
330
1F
100
AcDbEntity
  8
0
  6
Continuous
 62
     1
370
    15
100
AcDbLine
 10
453.4605100657
 20
328.2038490995
 30
0.0
 11
453.4605100657
 21
324.2038490995
 31
0.0
  0
LINE
  5
113
330
1F
100
AcDbEntity
  8
0
  6
Continuous
 62
     1
370
    15
100
AcDbLine
 10
453.4605100657
 20
324.2038490995
 30
0.0
 11
456.4605100657
 21
324.2038490995
 31
0.0
  0
LINE
  5
114
330
1F
100
AcDbEntity
  8
0
  6
Continuous
 62
     1
370
    15
100
AcDbLine
 10
456.4605100657
 20
324.2038490995
 30
0.0
 11
456.4605100657
 21
328.2038490995
 31
0.0
  0
LINE
  5
115
330
1F
100
AcDbEntity
  8
0
  6
Continuous
 62
     1
370
    15
100
AcDbLine
 10
456.4605100657
 20
328.2038490995
 30
0.0
 11
453.4605100657
 21
328.2038490995
 31
0.0
  0
LINE
  5
116
330
1F
100
AcDbEntity
  8
0
  6
Continuous
 62
     1
370
    15
100
AcDbLine
 10
453.4605100657
 20
288.2038490995
 30
0.0
 11
453.4605100657
 21
284.2038490995
 31
0.0
  0
LINE
  5
117
330
1F
100
AcDbEntity
  8
0
  6
Continuous
 62
     1
370
    15
100
AcDbLine
 10
453.4605100657
 20
284.2038490995
 30
0.0
 11
456.4605100657
 21
284.2038490995
 31
0.0
  0
LINE
  5
118
330
1F
100
AcDbEntity
  8
0
  6
Continuous
 62
     1
370
    15
100
AcDbLine
 10
456.4605100657
 20
284.2038490995
 30
0.0
 11
456.4605100657
 21
288.2038490995
 31
0.0
  0
LINE
  5
119
330
1F
100
AcDbEntity
  8
0
  6
Continuous
 62
     1
370
    15
100
AcDbLine
 10
456.4605100657
 20
288.2038490995
 30
0.0
 11
453.4605100657
 21
288.2038490995
 31
0.0
  0
CIRCLE
  5
11A
330
1F
100
AcDbEntity
  8
0
  6
Continuous
 62
     1
370
    15
100
AcDbCircle
 10
453.4605100657
 20
442.2038490995
 30
0.0
 40
1.599999999999909
  0
CIRCLE
  5
11B
330
1F
100
AcDbEntity
  8
0
  6
Continuous
 62
     1
370
    15
100
AcDbCircle
 10
15.4605100657
 20
442.2038490995
 30
0.0
 40
1.599999999999991
  0
LINE
  5
11C
330
1F
100
AcDbEntity
  8
0
  6
Continuous
 62
     1
370
    15
100
AcDbLine
 10
13.8605100657
 20
358.2038490995
 30
0.0
 11
13.8605100657
 21
328.2038490995
 31
0.0
  0
ARC
  5
11D
330
1F
100
AcDbEntity
  8
0
  6
Continuous
 62
     1
370
    15
100
AcDbCircle
 10
15.4605100657
 20
328.2038490995
 30
0.0
 40
1.600000000000019
100
AcDbArc
 50
180.0
 51
0.0
  0
LINE
  5
11E
330
1F
100
AcDbEntity
  8
0
  6
Continuous
 62
     1
370
    15
100
AcDbLine
 10
17.0605100657
 20
328.2038490995
 30
0.0
 11
17.0605100657
 21
358.2038490995
 31
0.0
  0
ARC
  5
11F
330
1F
100
AcDbEntity
  8
0
  6
Continuous
 62
     1
370
    15
100
AcDbCircle
 10
15.4605100657
 20
358.2038490995
 30
0.0
 40
1.600000000000019
100
AcDbArc
 50
0.0
 51
180.0
  0
CIRCLE
  5
120
330
1F
100
AcDbEntity
  8
0
  6
Continuous
 62
     1
370
    15
100
AcDbCircle
 10
54.4605100657
 20
388.2038490995
 30
0.0
 40
4.049999999999997
  0
CIRCLE
  5
121
330
1F
100
AcDbEntity
  8
0
  6
Continuous
 62
     1
370
    15
100
AcDbCircle
 10
59.6368909678
 20
368.8853325737
 30
0.0
 40
1.599999999999959
  0
LINE
  5
122
330
1F
100
AcDbEntity
  8
0
  6
Continuous
 62
     1
370
    15
100
AcDbLine
 10
39.4605100657
 20
436.7038490995
 30
0.0
 11
39.4605100657
 21
437.7038490995
 31
0.0
  0
ARC
  5
123
330
1F
100
AcDbEntity
  8
0
  6
Continuous
 62
     1
370
    15
100
AcDbCircle
 10
29.4605100657
 20
278.2038490995
 30
0.0
 40
1.599999999999934
100
AcDbArc
 50
180.0
 51
0.0
  0
ARC
  5
124
330
1F
100
AcDbEntity
  8
0
  6
Continuous
 62
     1
370
    15
100
AcDbCircle
 10
439.4605100657
 20
278.2038490995
 30
0.0
 40
1.599999999999966
100
AcDbArc
 50
180.0
 51
0.0
  0
LINE
  5
125
330
1F
100
AcDbEntity
  8
0
  6
Continuous
 62
     1
370
    15
100
AcDbLine
 10
441.0605100657
 20
283.2038490995
 30
0.0
 11
441.0605100657
 21
278.2038490995
 31
0.0
  0
ARC
  5
126
330
1F
100
AcDbEntity
  8
0
  6
Continuous
 62
     1
370
    15
100
AcDbCircle
 10
439.4605100657
 20
283.2038490995
 30
0.0
 40
1.599999999999966
100
AcDbArc
 50
0.0
 51
180.0
  0
LINE
  5
127
330
1F
100
AcDbEntity
  8
0
  6
Continuous
 62
     1
370
    15
100
AcDbLine
 10
31.0605100657
 20
283.2038490995
 30
0.0
 11
31.0605100657
 21
278.2038490995
 31
0.0
  0
ARC
  5
128
330
1F
100
AcDbEntity
  8
0
  6
Continuous
 62
     1
370
    15
100
AcDbCircle
 10
29.4605100657
 20
283.2038490995
 30
0.0
 40
1.599999999999934
100
AcDbArc
 50
0.0
 51
180.0
  0
LINE
  5
129
330
1F
100
AcDbEntity
  8
0
  6
Continuous
 62
     1
370
    15
100
AcDbLine
 10
27.8605100657
 20
278.2038490995
 30
0.0
 11
27.8605100657
 21
283.2038490995
 31
0.0
  0
ARC
  5
12A
330
1F
100
AcDbEntity
  8
0
  6
Continuous
 62
     1
370
    15
100
AcDbCircle
 10
49.4605100657
 20
278.2038490995
 30
0.0
 40
1.599999999999937
100
AcDbArc
 50
180.0
 51
0.0
  0
LINE
  5
12B
330
1F
100
AcDbEntity
  8
0
  6
Continuous
 62
     1
370
    15
100
AcDbLine
 10
51.0605100657
 20
283.2038490995
 30
0.0
 11
51.0605100657
 21
278.2038490995
 31
0.0
  0
ARC
  5
12C
330
1F
100
AcDbEntity
  8
0
  6
Continuous
 62
     1
370
    15
100
AcDbCircle
 10
49.4605100657
 20
283.2038490995
 30
0.0
 40
1.599999999999937
100
AcDbArc
 50
0.0
 51
180.0
  0
LINE
  5
12D
330
1F
100
AcDbEntity
  8
0
  6
Continuous
 62
     1
370
    15
100
AcDbLine
 10
47.8605100657
 20
278.2038490995
 30
0.0
 11
47.8605100657
 21
283.2038490995
 31
0.0
  0
ARC
  5
12E
330
1F
100
AcDbEntity
  8
0
  6
Continuous
 62
     1
370
    15
100
AcDbCircle
 10
439.4605100657
 20
313.2038490995
 30
0.0
 40
1.599999999999966
100
AcDbArc
 50
0.0
 51
180.0
  0
LINE
  5
12F
330
1F
100
AcDbEntity
  8
0
  6
Continuous
 62
     1
370
    15
100
AcDbLine
 10
437.8605100657
 20
308.2038490995
 30
0.0
 11
437.8605100657
 21
313.2038490995
 31
0.0
  0
ARC
  5
130
330
1F
100
AcDbEntity
  8
0
  6
Continuous
 62
     1
370
    15
100
AcDbCircle
 10
49.4605100657
 20
308.2038490995
 30
0.0
 40
1.599999999999937
100
AcDbArc
 50
180.0
 51
360.0
  0
LINE
  5
131
330
1F
100
AcDbEntity
  8
0
  6
Continuous
 62
     1
370
    15
100
AcDbLine
 10
51.0605100657
 20
313.2038490995
 30
0.0
 11
51.0605100657
 21
308.2038490995
 31
0.0
  0
ARC
  5
132
330
1F
100
AcDbEntity
  8
0
  6
Continuous
 62
     1
370
    15
100
AcDbCircle
 10
49.4605100657
 20
313.2038490995
 30
0.0
 40
1.599999999999937
100
AcDbArc
 50
0.0
 51
180.0
  0
LINE
  5
133
330
1F
100
AcDbEntity
  8
0
  6
Continuous
 62
     1
370
    15
100
AcDbLine
 10
47.8605100657
 20
308.2038490995
 30
0.0
 11
47.8605100657
 21
313.2038490995
 31
0.0
  0
ARC
  5
134
330
1F
100
AcDbEntity
  8
0
  6
Continuous
 62
     1
370
    15
100
AcDbCircle
 10
29.4605100657
 20
308.2038490995
 30
0.0
 40
1.599999999999937
100
AcDbArc
 50
180.0
 51
360.0
  0
LINE
  5
135
330
1F
100
AcDbEntity
  8
0
  6
Continuous
 62
     1
370
    15
100
AcDbLine
 10
31.0605100657
 20
313.2038490995
 30
0.0
 11
31.0605100657
 21
308.2038490995
 31
0.0
  0
ARC
  5
136
330
1F
100
AcDbEntity
  8
0
  6
Continuous
 62
     1
370
    15
100
AcDbCircle
 10
29.4605100657
 20
313.2038490995
 30
0.0
 40
1.599999999999937
100
AcDbArc
 50
0.0
 51
180.0
  0
LINE
  5
137
330
1F
100
AcDbEntity
  8
0
  6
Continuous
 62
     1
370
    15
100
AcDbLine
 10
27.8605100657
 20
308.2038490995
 30
0.0
 11
27.8605100657
 21
313.2038490995
 31
0.0
  0
ARC
  5
138
330
1F
100
AcDbEntity
  8
0
  6
Continuous
 62
     1
370
    15
100
AcDbCircle
 10
419.4605100657
 20
308.2038490995
 30
0.0
 40
1.599999999999909
100
AcDbArc
 50
180.0
 51
0.0
  0
LINE
  5
139
330
1F
100
AcDbEntity
  8
0
  6
Continuous
 62
     1
370
    15
100
AcDbLine
 10
421.0605100657
 20
313.2038490995
 30
0.0
 11
421.0605100657
 21
308.2038490995
 31
0.0
  0
ARC
  5
13A
330
1F
100
AcDbEntity
  8
0
  6
Continuous
 62
     1
370
    15
100
AcDbCircle
 10
419.4605100657
 20
313.2038490995
 30
0.0
 40
1.599999999999909
100
AcDbArc
 50
0.0
 51
180.0
  0
LINE
  5
13B
330
1F
100
AcDbEntity
  8
0
  6
Continuous
 62
     1
370
    15
100
AcDbLine
 10
417.8605100657
 20
308.2038490995
 30
0.0
 11
417.8605100657
 21
313.2038490995
 31
0.0
  0
LINE
  5
13C
330
1F
100
AcDbEntity
  8
0
  6
Continuous
 62
     1
370
    15
100
AcDbLine
 10
437.8605100657
 20
278.2038490995
 30
0.0
 11
437.8605100657
 21
283.2038490995
 31
0.0
  0
ARC
  5
13D
330
1F
100
AcDbEntity
  8
0
  6
Continuous
 62
     1
370
    15
100
AcDbCircle
 10
419.4605100657
 20
278.2038490995
 30
0.0
 40
1.599999999999966
100
AcDbArc
 50
180.0
 51
0.0
  0
LINE
  5
13E
330
1F
100
AcDbEntity
  8
0
  6
Continuous
 62
     1
370
    15
100
AcDbLine
 10
421.0605100657
 20
283.2038490995
 30
0.0
 11
421.0605100657
 21
278.2038490995
 31
0.0
  0
ARC
  5
13F
330
1F
100
AcDbEntity
  8
0
  6
Continuous
 62
     1
370
    15
100
AcDbCircle
 10
419.4605100657
 20
283.2038490995
 30
0.0
 40
1.599999999999966
100
AcDbArc
 50
0.0
 51
180.0
  0
LINE
  5
140
330
1F
100
AcDbEntity
  8
0
  6
Continuous
 62
     1
370
    15
100
AcDbLine
 10
417.8605100657
 20
278.2038490995
 30
0.0
 11
417.8605100657
 21
283.2038490995
 31
0.0
  0
ARC
  5
141
330
1F
100
AcDbEntity
  8
0
  6
Continuous
 62
     1
370
    15
100
AcDbCircle
 10
439.4605100657
 20
308.2038490995
 30
0.0
 40
1.599999999999966
100
AcDbArc
 50
180.0
 51
0.0
  0
LINE
  5
142
330
1F
100
AcDbEntity
  8
0
  6
Continuous
 62
     1
370
    15
100
AcDbLine
 10
441.0605100657
 20
313.2038490995
 30
0.0
 11
441.0605100657
 21
308.2038490995
 31
0.0
  0
CIRCLE
  5
143
330
1F
100
AcDbEntity
  8
0
  6
Continuous
 62
     1
370
    15
100
AcDbCircle
 10
433.7790265915
 20
204.7093762448
 30
0.0
 40
1.599999999999966
  0
CIRCLE
  5
144
330
1F
100
AcDbEntity
  8
0
  6
Continuous
 62
     1
370
    15
100
AcDbCircle
 10
400.318374442
 20
213.6751309665
 30
0.0
 40
1.600000000000023
  0
LINE
  5
145
330
1F
100
AcDbEntity
  8
0
  6
Continuous
 62
     7
370
    15
100
AcDbLine
 10
12.4605100657
 20
259.5329953427
 30
0.0
 11
9.4605100657
 21
256.5329953427
 31
0.0
  0
LINE
  5
146
330
1F
100
AcDbEntity
  8
0
  6
Continuous
 62
     7
370
    15
100
AcDbLine
 10
74.9605100657
 20
259.5329953427
 30
0.0
 11
12.4605100657
 21
259.5329953427
 31
0.0
  0
LINE
  5
147
330
1F
100
AcDbEntity
  8
0
  6
Continuous
 62
     7
370
    15
100
AcDbLine
 10
74.9605100657
 20
259.5329953427
 30
0.0
 11
79.9605100657
 21
254.5329953427
 31
0.0
  0
LINE
  5
148
330
1F
100
AcDbEntity
  8
0
  6
Continuous
 62
     7
370
    15
100
AcDbLine
 10
79.9605100657
 20
254.5329953427
 30
0.0
 11
79.9605100657
 21
229.5329953427
 31
0.0
  0
LINE
  5
149
330
1F
100
AcDbEntity
  8
0
  6
Continuous
 62
     7
370
    15
100
AcDbLine
 10
79.9605100657
 20
229.5329953427
 30
0.0
 11
91.9605100657
 21
229.5329953427
 31
0.0
  0
LINE
  5
14A
330
1F
100
AcDbEntity
  8
0
  6
Continuous
 62
     7
370
    15
100
AcDbLine
 10
91.9605100657
 20
229.5329953427
 30
0.0
 11
119.6222431667
 21
257.1947284437
 31
0.0
  0
ARC
  5
14B
330
1F
100
AcDbEntity
  8
0
  6
Continuous
 62
     7
370
    15
100
AcDbCircle
 10
125.2790974162
 20
251.5378741942
 30
0.0
 40
8.000000000000034
100
AcDbArc
 50
92.0011217376
 51
135.0
  0
LINE
  5
14C
330
1F
100
AcDbEntity
  8
0
  6
Continuous
 62
     7
370
    15
100
AcDbLine
 10
343.9212752175
 20
259.5329953427
 30
0.0
 11
124.9997449139
 21
259.5329953427
 31
0.0
  0
ARC
  5
14D
330
1F
100
AcDbEntity
  8
0
  6
Continuous
 62
     7
370
    15
100
AcDbCircle
 10
343.6419227153
 20
251.5378741942
 30
0.0
 40
8.000000000000044
100
AcDbArc
 50
45.0
 51
87.9988782624
  0
LINE
  5
14E
330
1F
100
AcDbEntity
  8
0
  6
Continuous
 62
     7
370
    15
100
AcDbLine
 10
376.9605100657
 20
229.5329953427
 30
0.0
 11
349.2987769648
 21
257.1947284437
 31
0.0
  0
LINE
  5
14F
330
1F
100
AcDbEntity
  8
0
  6
Continuous
 62
     7
370
    15
100
AcDbLine
 10
388.9605100657
 20
229.5329953427
 30
0.0
 11
376.9605100657
 21
229.5329953427
 31
0.0
  0
LINE
  5
150
330
1F
100
AcDbEntity
  8
0
  6
Continuous
 62
     7
370
    15
100
AcDbLine
 10
388.9605100657
 20
254.5329953427
 30
0.0
 11
388.9605100657
 21
229.5329953427
 31
0.0
  0
LINE
  5
151
330
1F
100
AcDbEntity
  8
0
  6
Continuous
 62
     7
370
    15
100
AcDbLine
 10
393.9605100657
 20
259.5329953427
 30
0.0
 11
388.9605100657
 21
254.5329953427
 31
0.0
  0
LINE
  5
152
330
1F
100
AcDbEntity
  8
0
  6
Continuous
 62
     7
370
    15
100
AcDbLine
 10
456.4605100657
 20
259.5329953427
 30
0.0
 11
393.9605100657
 21
259.5329953427
 31
0.0
  0
LINE
  5
153
330
1F
100
AcDbEntity
  8
0
  6
Continuous
 62
     7
370
    15
100
AcDbLine
 10
459.4605100657
 20
256.5329953427
 30
0.0
 11
456.4605100657
 21
259.5329953427
 31
0.0
  0
LINE
  5
154
330
1F
100
AcDbEntity
  8
0
  6
Continuous
 62
     7
370
    15
100
AcDbLine
 10
459.4605100657
 20
82.5329953427
 30
0.0
 11
459.4605100657
 21
256.5329953427
 31
0.0
  0
LINE
  5
155
330
1F
100
AcDbEntity
  8
0
  6
Continuous
 62
     7
370
    15
100
AcDbLine
 10
456.4605100657
 20
79.5329953427
 30
0.0
 11
459.4605100657
 21
82.5329953427
 31
0.0
  0
LINE
  5
156
330
1F
100
AcDbEntity
  8
0
  6
Continuous
 62
     7
370
    15
100
AcDbLine
 10
456.4605100657
 20
79.5329953427
 30
0.0
 11
382.8605100657
 21
79.5329953427
 31
0.0
  0
LINE
  5
157
330
1F
100
AcDbEntity
  8
0
  6
Continuous
 62
     7
370
    15
100
AcDbLine
 10
382.8605100657
 20
79.5329953427
 30
0.0
 11
382.8605100657
 21
85.1329953427
 31
0.0
  0
LINE
  5
158
330
1F
100
AcDbEntity
  8
0
  6
Continuous
 62
     7
370
    15
100
AcDbLine
 10
362.8605100657
 20
85.1329953427
 30
0.0
 11
382.8605100657
 21
85.1329953427
 31
0.0
  0
LINE
  5
159
330
1F
100
AcDbEntity
  8
0
  6
Continuous
 62
     7
370
    15
100
AcDbLine
 10
362.8605100657
 20
79.5329953427
 30
0.0
 11
362.8605100657
 21
85.1329953427
 31
0.0
  0
LINE
  5
15A
330
1F
100
AcDbEntity
  8
0
  6
Continuous
 62
     7
370
    15
100
AcDbLine
 10
362.8605100657
 20
79.5329953427
 30
0.0
 11
106.0605100657
 21
79.5329953427
 31
0.0
  0
LINE
  5
15B
330
1F
100
AcDbEntity
  8
0
  6
Continuous
 62
     7
370
    15
100
AcDbLine
 10
106.0605100657
 20
79.5329953427
 30
0.0
 11
106.0605100657
 21
85.1329953427
 31
0.0
  0
LINE
  5
15C
330
1F
100
AcDbEntity
  8
0
  6
Continuous
 62
     7
370
    15
100
AcDbLine
 10
106.0605100657
 20
85.1329953427
 30
0.0
 11
86.0605100657
 21
85.1329953427
 31
0.0
  0
LINE
  5
15D
330
1F
100
AcDbEntity
  8
0
  6
Continuous
 62
     7
370
    15
100
AcDbLine
 10
86.0605100657
 20
79.5329953427
 30
0.0
 11
86.0605100657
 21
85.1329953427
 31
0.0
  0
LINE
  5
15E
330
1F
100
AcDbEntity
  8
0
  6
Continuous
 62
     7
370
    15
100
AcDbLine
 10
86.0605100657
 20
79.5329953427
 30
0.0
 11
12.4605100657
 21
79.5329953427
 31
0.0
  0
LINE
  5
15F
330
1F
100
AcDbEntity
  8
0
  6
Continuous
 62
     7
370
    15
100
AcDbLine
 10
9.4605100657
 20
82.5329953427
 30
0.0
 11
12.4605100657
 21
79.5329953427
 31
0.0
  0
LINE
  5
160
330
1F
100
AcDbEntity
  8
0
  6
Continuous
 62
     7
370
    15
100
AcDbLine
 10
9.4605100657
 20
82.5329953427
 30
0.0
 11
9.4605100657
 21
256.5329953427
 31
0.0
  0
ARC
  5
161
330
1F
100
AcDbEntity
  8
0
  6
Continuous
 62
     1
370
    15
100
AcDbCircle
 10
69.9605100657
 20
224.0329953427
 30
0.0
 40
1.600000000000421
100
AcDbArc
 50
270.0
 51
90.0
  0
LINE
  5
162
330
1F
100
AcDbEntity
  8
0
  6
Continuous
 62
     1
370
    15
100
AcDbLine
 10
54.9605100657
 20
225.6329953427
 30
0.0
 11
69.9605100657
 21
225.6329953427
 31
0.0
  0
ARC
  5
163
330
1F
100
AcDbEntity
  8
0
  6
Continuous
 62
     1
370
    15
100
AcDbCircle
 10
54.9605100657
 20
224.0329953427
 30
0.0
 40
1.600000000000449
100
AcDbArc
 50
90.0
 51
270.0
  0
LINE
  5
164
330
1F
100
AcDbEntity
  8
0
  6
Continuous
 62
     1
370
    15
100
AcDbLine
 10
54.9605100657
 20
222.4329953427
 30
0.0
 11
69.9605100657
 21
222.4329953427
 31
0.0
  0
LINE
  5
165
330
1F
100
AcDbEntity
  8
0
  6
Continuous
 62
     1
370
    15
100
AcDbLine
 10
434.4605100657
 20
239.2829953427
 30
0.0
 11
437.9568327997
 21
239.2829953427
 31
0.0
  0
ARC
  5
166
330
1F
100
AcDbEntity
  8
0
  6
Continuous
 62
     1
370
    15
100
AcDbCircle
 10
429.4605100657
 20
239.5329953427
 30
0.0
 40
8.500000000000062
100
AcDbArc
 50
270.0
 51
358.3145869598
  0
LINE
  5
167
330
1F
100
AcDbEntity
  8
0
  6
Continuous
 62
     1
370
    15
100
AcDbLine
 10
429.4605100657
 20
231.0329953427
 30
0.0
 11
429.4605100657
 21
230.0329953427
 31
0.0
  0
LINE
  5
168
330
1F
100
AcDbEntity
  8
0
  6
Continuous
 62
     1
370
    15
100
AcDbLine
 10
429.4605100657
 20
248.0329953427
 30
0.0
 11
429.4605100657
 21
249.0329953427
 31
0.0
  0
ARC
  5
169
330
1F
100
AcDbEntity
  8
0
  6
Continuous
 62
     1
370
    15
100
AcDbCircle
 10
429.4605100657
 20
239.5329953427
 30
0.0
 40
8.500000000000062
100
AcDbArc
 50
1.6854130402
 51
90.0
  0
LINE
  5
16A
330
1F
100
AcDbEntity
  8
0
  6
Continuous
 62
     1
370
    15
100
AcDbLine
 10
434.4605100657
 20
239.7829953427
 30
0.0
 11
437.9568327997
 21
239.7829953427
 31
0.0
  0
ARC
  5
16B
330
1F
100
AcDbEntity
  8
0
  6
Continuous
 62
     1
370
    15
100
AcDbCircle
 10
434.4605100657
 20
239.5329953427
 30
0.0
 40
0.25
100
AcDbArc
 50
90.0
 51
91.4325437376
  0
ARC
  5
16C
330
1F
100
AcDbEntity
  8
0
  6
Continuous
 62
     1
370
    15
100
AcDbCircle
 10
429.4605100657
 20
239.5329953427
 30
0.0
 40
5.000000000000035
100
AcDbArc
 50
2.8650874751
 51
357.1349125249
  0
ARC
  5
16D
330
1F
100
AcDbEntity
  8
0
  6
Continuous
 62
     1
370
    15
100
AcDbCircle
 10
434.4605100657
 20
239.5329953427
 30
0.0
 40
0.2500000000000116
100
AcDbArc
 50
268.5674562624
 51
270.0
  0
LINE
  5
16E
330
1F
100
AcDbEntity
  8
0
  6
Continuous
 62
     1
370
    15
100
AcDbLine
 10
54.9605100657
 20
253.4329953427
 30
0.0
 11
69.9605100657
 21
253.4329953427
 31
0.0
  0
ARC
  5
16F
330
1F
100
AcDbEntity
  8
0
  6
Continuous
 62
     1
370
    15
100
AcDbCircle
 10
69.9605100657
 20
255.0329953427
 30
0.0
 40
1.600000000000392
100
AcDbArc
 50
270.0
 51
90.0
  0
LINE
  5
170
330
1F
100
AcDbEntity
  8
0
  6
Continuous
 62
     1
370
    15
100
AcDbLine
 10
54.9605100657
 20
256.6329953427
 30
0.0
 11
69.9605100657
 21
256.6329953427
 31
0.0
  0
ARC
  5
171
330
1F
100
AcDbEntity
  8
0
  6
Continuous
 62
     1
370
    15
100
AcDbCircle
 10
54.9605100657
 20
255.0329953427
 30
0.0
 40
1.600000000000392
100
AcDbArc
 50
90.0
 51
270.0
  0
LINE
  5
172
330
1F
100
AcDbEntity
  8
0
  6
Continuous
 62
     1
370
    15
100
AcDbLine
 10
23.9605100657
 20
253.4329953427
 30
0.0
 11
38.9605100657
 21
253.4329953427
 31
0.0
  0
ARC
  5
173
330
1F
100
AcDbEntity
  8
0
  6
Continuous
 62
     1
370
    15
100
AcDbCircle
 10
38.9605100657
 20
255.0329953427
 30
0.0
 40
1.600000000000051
100
AcDbArc
 50
270.0
 51
90.0
  0
LINE
  5
174
330
1F
100
AcDbEntity
  8
0
  6
Continuous
 62
     1
370
    15
100
AcDbLine
 10
23.9605100657
 20
256.6329953427
 30
0.0
 11
38.9605100657
 21
256.6329953427
 31
0.0
  0
ARC
  5
175
330
1F
100
AcDbEntity
  8
0
  6
Continuous
 62
     1
370
    15
100
AcDbCircle
 10
23.9605100657
 20
255.0329953427
 30
0.0
 40
1.600000000000051
100
AcDbArc
 50
90.0
 51
270.0
  0
LINE
  5
176
330
1F
100
AcDbEntity
  8
0
  6
Continuous
 62
     1
370
    15
100
AcDbLine
 10
23.9605100657
 20
222.4329953427
 30
0.0
 11
38.9605100657
 21
222.4329953427
 31
0.0
  0
ARC
  5
177
330
1F
100
AcDbEntity
  8
0
  6
Continuous
 62
     1
370
    15
100
AcDbCircle
 10
38.9605100657
 20
224.0329953427
 30
0.0
 40
1.600000000000023
100
AcDbArc
 50
270.0
 51
90.0
  0
LINE
  5
178
330
1F
100
AcDbEntity
  8
0
  6
Continuous
 62
     1
370
    15
100
AcDbLine
 10
23.9605100657
 20
225.6329953427
 30
0.0
 11
38.9605100657
 21
225.6329953427
 31
0.0
  0
ARC
  5
179
330
1F
100
AcDbEntity
  8
0
  6
Continuous
 62
     1
370
    15
100
AcDbCircle
 10
23.9605100657
 20
224.0329953427
 30
0.0
 40
1.599999999999994
100
AcDbArc
 50
90.0
 51
270.0
  0
LINE
  5
17A
330
1F
100
AcDbEntity
  8
0
  6
Continuous
 62
     1
370
    15
100
AcDbLine
 10
39.4605100657
 20
228.0329953427
 30
0.0
 11
54.4605100657
 21
228.0329953427
 31
0.0
  0
ARC
  5
17B
330
1F
100
AcDbEntity
  8
0
  6
Continuous
 62
     1
370
    15
100
AcDbCircle
 10
54.4605100657
 20
239.5329953427
 30
0.0
 40
11.50000000000003
100
AcDbArc
 50
270.0
 51
90.0
  0
LINE
  5
17C
330
1F
100
AcDbEntity
  8
0
  6
Continuous
 62
     1
370
    15
100
AcDbLine
 10
39.4605100657
 20
251.0329953427
 30
0.0
 11
54.4605100657
 21
251.0329953427
 31
0.0
  0
ARC
  5
17D
330
1F
100
AcDbEntity
  8
0
  6
Continuous
 62
     1
370
    15
100
AcDbCircle
 10
39.4605100657
 20
239.5329953427
 30
0.0
 40
11.50000000000003
100
AcDbArc
 50
90.0
 51
270.0
  0
LINE
  5
17E
330
1F
100
AcDbEntity
  8
0
  6
Continuous
 62
     1
370
    15
100
AcDbLine
 10
231.6605100657
 20
159.5329953427
 30
0.0
 11
231.6605100657
 21
139.5329953427
 31
0.0
  0
LINE
  5
17F
330
1F
100
AcDbEntity
  8
0
  6
Continuous
 62
     1
370
    15
100
AcDbLine
 10
237.2605100657
 20
139.5329953427
 30
0.0
 11
231.6605100657
 21
139.5329953427
 31
0.0
  0
LINE
  5
180
330
1F
100
AcDbEntity
  8
0
  6
Continuous
 62
     1
370
    15
100
AcDbLine
 10
237.2605100657
 20
159.5329953427
 30
0.0
 11
237.2605100657
 21
139.5329953427
 31
0.0
  0
LINE
  5
181
330
1F
100
AcDbEntity
  8
0
  6
Continuous
 62
     1
370
    15
100
AcDbLine
 10
237.2605100657
 20
159.5329953427
 30
0.0
 11
231.6605100657
 21
159.5329953427
 31
0.0
  0
LINE
  5
182
330
1F
100
AcDbEntity
  8
0
  6
Continuous
 62
     1
370
    15
100
AcDbLine
 10
231.6605100657
 20
239.5329953427
 30
0.0
 11
231.6605100657
 21
219.5329953427
 31
0.0
  0
LINE
  5
183
330
1F
100
AcDbEntity
  8
0
  6
Continuous
 62
     1
370
    15
100
AcDbLine
 10
237.2605100657
 20
219.5329953427
 30
0.0
 11
231.6605100657
 21
219.5329953427
 31
0.0
  0
LINE
  5
184
330
1F
100
AcDbEntity
  8
0
  6
Continuous
 62
     1
370
    15
100
AcDbLine
 10
237.2605100657
 20
239.5329953427
 30
0.0
 11
237.2605100657
 21
219.5329953427
 31
0.0
  0
LINE
  5
185
330
1F
100
AcDbEntity
  8
0
  6
Continuous
 62
     1
370
    15
100
AcDbLine
 10
237.2605100657
 20
239.5329953427
 30
0.0
 11
231.6605100657
 21
239.5329953427
 31
0.0
  0
LINE
  5
186
330
1F
100
AcDbEntity
  8
0
  6
Continuous
 62
     1
370
    15
100
AcDbLine
 10
337.2605100657
 20
239.5329953427
 30
0.0
 11
337.2605100657
 21
219.5329953427
 31
0.0
  0
LINE
  5
187
330
1F
100
AcDbEntity
  8
0
  6
Continuous
 62
     1
370
    15
100
AcDbLine
 10
337.2605100657
 20
219.5329953427
 30
0.0
 11
342.8605100657
 21
219.5329953427
 31
0.0
  0
LINE
  5
188
330
1F
100
AcDbEntity
  8
0
  6
Continuous
 62
     1
370
    15
100
AcDbLine
 10
342.8605100657
 20
239.5329953427
 30
0.0
 11
342.8605100657
 21
219.5329953427
 31
0.0
  0
LINE
  5
189
330
1F
100
AcDbEntity
  8
0
  6
Continuous
 62
     1
370
    15
100
AcDbLine
 10
337.2605100657
 20
239.5329953427
 30
0.0
 11
342.8605100657
 21
239.5329953427
 31
0.0
  0
LINE
  5
18A
330
1F
100
AcDbEntity
  8
0
  6
Continuous
 62
     1
370
    15
100
AcDbLine
 10
337.2605100657
 20
199.5329953427
 30
0.0
 11
337.2605100657
 21
179.5329953427
 31
0.0
  0
LINE
  5
18B
330
1F
100
AcDbEntity
  8
0
  6
Continuous
 62
     1
370
    15
100
AcDbLine
 10
337.2605100657
 20
179.5329953427
 30
0.0
 11
342.8605100657
 21
179.5329953427
 31
0.0
  0
LINE
  5
18C
330
1F
100
AcDbEntity
  8
0
  6
Continuous
 62
     1
370
    15
100
AcDbLine
 10
342.8605100657
 20
199.5329953427
 30
0.0
 11
342.8605100657
 21
179.5329953427
 31
0.0
  0
LINE
  5
18D
330
1F
100
AcDbEntity
  8
0
  6
Continuous
 62
     1
370
    15
100
AcDbLine
 10
337.2605100657
 20
199.5329953427
 30
0.0
 11
342.8605100657
 21
199.5329953427
 31
0.0
  0
LINE
  5
18E
330
1F
100
AcDbEntity
  8
0
  6
Continuous
 62
     1
370
    15
100
AcDbLine
 10
337.2605100657
 20
159.5329953427
 30
0.0
 11
337.2605100657
 21
139.5329953427
 31
0.0
  0
LINE
  5
18F
330
1F
100
AcDbEntity
  8
0
  6
Continuous
 62
     1
370
    15
100
AcDbLine
 10
337.2605100657
 20
139.5329953427
 30
0.0
 11
342.8605100657
 21
139.5329953427
 31
0.0
  0
LINE
  5
190
330
1F
100
AcDbEntity
  8
0
  6
Continuous
 62
     1
370
    15
100
AcDbLine
 10
342.8605100657
 20
159.5329953427
 30
0.0
 11
342.8605100657
 21
139.5329953427
 31
0.0
  0
LINE
  5
191
330
1F
100
AcDbEntity
  8
0
  6
Continuous
 62
     1
370
    15
100
AcDbLine
 10
337.2605100657
 20
159.5329953427
 30
0.0
 11
342.8605100657
 21
159.5329953427
 31
0.0
  0
LINE
  5
192
330
1F
100
AcDbEntity
  8
0
  6
Continuous
 62
     1
370
    15
100
AcDbLine
 10
337.2605100657
 20
119.5329953427
 30
0.0
 11
337.2605100657
 21
99.5329953427
 31
0.0
  0
LINE
  5
193
330
1F
100
AcDbEntity
  8
0
  6
Continuous
 62
     1
370
    15
100
AcDbLine
 10
337.2605100657
 20
99.5329953427
 30
0.0
 11
342.8605100657
 21
99.5329953427
 31
0.0
  0
LINE
  5
194
330
1F
100
AcDbEntity
  8
0
  6
Continuous
 62
     1
370
    15
100
AcDbLine
 10
342.8605100657
 20
119.5329953427
 30
0.0
 11
342.8605100657
 21
99.5329953427
 31
0.0
  0
LINE
  5
195
330
1F
100
AcDbEntity
  8
0
  6
Continuous
 62
     1
370
    15
100
AcDbLine
 10
337.2605100657
 20
119.5329953427
 30
0.0
 11
342.8605100657
 21
119.5329953427
 31
0.0
  0
LINE
  5
196
330
1F
100
AcDbEntity
  8
0
  6
Continuous
 62
     1
370
    15
100
AcDbLine
 10
126.0605100657
 20
159.5329953427
 30
0.0
 11
126.0605100657
 21
139.5329953427
 31
0.0
  0
LINE
  5
197
330
1F
100
AcDbEntity
  8
0
  6
Continuous
 62
     1
370
    15
100
AcDbLine
 10
131.6605100657
 20
139.5329953427
 30
0.0
 11
126.0605100657
 21
139.5329953427
 31
0.0
  0
LINE
  5
198
330
1F
100
AcDbEntity
  8
0
  6
Continuous
 62
     1
370
    15
100
AcDbLine
 10
131.6605100657
 20
159.5329953427
 30
0.0
 11
131.6605100657
 21
139.5329953427
 31
0.0
  0
LINE
  5
199
330
1F
100
AcDbEntity
  8
0
  6
Continuous
 62
     1
370
    15
100
AcDbLine
 10
131.6605100657
 20
159.5329953427
 30
0.0
 11
126.0605100657
 21
159.5329953427
 31
0.0
  0
LINE
  5
19A
330
1F
100
AcDbEntity
  8
0
  6
Continuous
 62
     1
370
    15
100
AcDbLine
 10
126.0605100657
 20
239.5329953427
 30
0.0
 11
126.0605100657
 21
219.5329953427
 31
0.0
  0
LINE
  5
19B
330
1F
100
AcDbEntity
  8
0
  6
Continuous
 62
     1
370
    15
100
AcDbLine
 10
131.6605100657
 20
219.5329953427
 30
0.0
 11
126.0605100657
 21
219.5329953427
 31
0.0
  0
LINE
  5
19C
330
1F
100
AcDbEntity
  8
0
  6
Continuous
 62
     1
370
    15
100
AcDbLine
 10
131.6605100657
 20
239.5329953427
 30
0.0
 11
131.6605100657
 21
219.5329953427
 31
0.0
  0
LINE
  5
19D
330
1F
100
AcDbEntity
  8
0
  6
Continuous
 62
     1
370
    15
100
AcDbLine
 10
131.6605100657
 20
239.5329953427
 30
0.0
 11
126.0605100657
 21
239.5329953427
 31
0.0
  0
LINE
  5
19E
330
1F
100
AcDbEntity
  8
0
  6
Continuous
 62
     1
370
    15
100
AcDbLine
 10
126.0605100657
 20
199.5329953427
 30
0.0
 11
126.0605100657
 21
179.5329953427
 31
0.0
  0
LINE
  5
19F
330
1F
100
AcDbEntity
  8
0
  6
Continuous
 62
     1
370
    15
100
AcDbLine
 10
131.6605100657
 20
179.5329953427
 30
0.0
 11
126.0605100657
 21
179.5329953427
 31
0.0
  0
LINE
  5
1A0
330
1F
100
AcDbEntity
  8
0
  6
Continuous
 62
     1
370
    15
100
AcDbLine
 10
131.6605100657
 20
199.5329953427
 30
0.0
 11
131.6605100657
 21
179.5329953427
 31
0.0
  0
LINE
  5
1A1
330
1F
100
AcDbEntity
  8
0
  6
Continuous
 62
     1
370
    15
100
AcDbLine
 10
131.6605100657
 20
199.5329953427
 30
0.0
 11
126.0605100657
 21
199.5329953427
 31
0.0
  0
LINE
  5
1A2
330
1F
100
AcDbEntity
  8
0
  6
Continuous
 62
     1
370
    15
100
AcDbLine
 10
126.0605100657
 20
119.5329953427
 30
0.0
 11
126.0605100657
 21
99.5329953427
 31
0.0
  0
LINE
  5
1A3
330
1F
100
AcDbEntity
  8
0
  6
Continuous
 62
     1
370
    15
100
AcDbLine
 10
131.6605100657
 20
99.5329953427
 30
0.0
 11
126.0605100657
 21
99.5329953427
 31
0.0
  0
LINE
  5
1A4
330
1F
100
AcDbEntity
  8
0
  6
Continuous
 62
     1
370
    15
100
AcDbLine
 10
131.6605100657
 20
119.5329953427
 30
0.0
 11
131.6605100657
 21
99.5329953427
 31
0.0
  0
LINE
  5
1A5
330
1F
100
AcDbEntity
  8
0
  6
Continuous
 62
     1
370
    15
100
AcDbLine
 10
131.6605100657
 20
119.5329953427
 30
0.0
 11
126.0605100657
 21
119.5329953427
 31
0.0
  0
LINE
  5
1A6
330
1F
100
AcDbEntity
  8
0
  6
Continuous
 62
     1
370
    15
100
AcDbLine
 10
231.6605100657
 20
199.5329953427
 30
0.0
 11
231.6605100657
 21
179.5329953427
 31
0.0
  0
LINE
  5
1A7
330
1F
100
AcDbEntity
  8
0
  6
Continuous
 62
     1
370
    15
100
AcDbLine
 10
237.2605100657
 20
179.5329953427
 30
0.0
 11
231.6605100657
 21
179.5329953427
 31
0.0
  0
LINE
  5
1A8
330
1F
100
AcDbEntity
  8
0
  6
Continuous
 62
     1
370
    15
100
AcDbLine
 10
237.2605100657
 20
199.5329953427
 30
0.0
 11
237.2605100657
 21
179.5329953427
 31
0.0
  0
LINE
  5
1A9
330
1F
100
AcDbEntity
  8
0
  6
Continuous
 62
     1
370
    15
100
AcDbLine
 10
237.2605100657
 20
199.5329953427
 30
0.0
 11
231.6605100657
 21
199.5329953427
 31
0.0
  0
LINE
  5
1AA
330
1F
100
AcDbEntity
  8
0
  6
Continuous
 62
     1
370
    15
100
AcDbLine
 10
231.6605100657
 20
119.5329953427
 30
0.0
 11
231.6605100657
 21
99.5329953427
 31
0.0
  0
LINE
  5
1AB
330
1F
100
AcDbEntity
  8
0
  6
Continuous
 62
     1
370
    15
100
AcDbLine
 10
237.2605100657
 20
99.5329953427
 30
0.0
 11
231.6605100657
 21
99.5329953427
 31
0.0
  0
LINE
  5
1AC
330
1F
100
AcDbEntity
  8
0
  6
Continuous
 62
     1
370
    15
100
AcDbLine
 10
237.2605100657
 20
119.5329953427
 30
0.0
 11
237.2605100657
 21
99.5329953427
 31
0.0
  0
LINE
  5
1AD
330
1F
100
AcDbEntity
  8
0
  6
Continuous
 62
     1
370
    15
100
AcDbLine
 10
237.2605100657
 20
119.5329953427
 30
0.0
 11
231.6605100657
 21
119.5329953427
 31
0.0
  0
CIRCLE
  5
1AE
330
1F
100
AcDbEntity
  8
0
  6
Continuous
 62
     1
370
    15
100
AcDbCircle
 10
54.4605100657
 20
199.5329953427
 30
0.0
 40
4.049999999999997
  0
CIRCLE
  5
1AF
330
1F
100
AcDbEntity
  8
0
  6
Continuous
 62
     1
370
    15
100
AcDbCircle
 10
68.6026456895
 20
213.6751309665
 30
0.0
 40
1.599999999999937
  0
CIRCLE
  5
1B0
330
1F
100
AcDbEntity
  8
0
  6
Continuous
 62
     1
370
    15
100
AcDbCircle
 10
59.6368909678
 20
180.214478817
 30
0.0
 40
1.59999999999993
  0
CIRCLE
  5
1B1
330
1F
100
AcDbEntity
  8
0
  6
Continuous
 62
     1
370
    15
100
AcDbCircle
 10
35.14199354
 20
204.7093762448
 30
0.0
 40
1.59999999999993
  0
LINE
  5
1B2
330
1F
100
AcDbEntity
  8
0
  6
Continuous
 62
     1
370
    15
100
AcDbLine
 10
15.4605100657
 20
215.5329953427
 30
0.0
 11
15.4605100657
 21
219.5329953427
 31
0.0
  0
LINE
  5
1B3
330
1F
100
AcDbEntity
  8
0
  6
Continuous
 62
     1
370
    15
100
AcDbLine
 10
15.4605100657
 20
219.5329953427
 30
0.0
 11
12.4605100657
 21
219.5329953427
 31
0.0
  0
LINE
  5
1B4
330
1F
100
AcDbEntity
  8
0
  6
Continuous
 62
     1
370
    15
100
AcDbLine
 10
12.4605100657
 20
219.5329953427
 30
0.0
 11
12.4605100657
 21
215.5329953427
 31
0.0
  0
LINE
  5
1B5
330
1F
100
AcDbEntity
  8
0
  6
Continuous
 62
     1
370
    15
100
AcDbLine
 10
12.4605100657
 20
215.5329953427
 30
0.0
 11
15.4605100657
 21
215.5329953427
 31
0.0
  0
LINE
  5
1B6
330
1F
100
AcDbEntity
  8
0
  6
Continuous
 62
     1
370
    15
100
AcDbLine
 10
12.4605100657
 20
175.5329953427
 30
0.0
 11
15.4605100657
 21
175.5329953427
 31
0.0
  0
LINE
  5
1B7
330
1F
100
AcDbEntity
  8
0
  6
Continuous
 62
     1
370
    15
100
AcDbLine
 10
15.4605100657
 20
175.5329953427
 30
0.0
 11
15.4605100657
 21
179.5329953427
 31
0.0
  0
LINE
  5
1B8
330
1F
100
AcDbEntity
  8
0
  6
Continuous
 62
     1
370
    15
100
AcDbLine
 10
15.4605100657
 20
179.5329953427
 30
0.0
 11
12.4605100657
 21
179.5329953427
 31
0.0
  0
LINE
  5
1B9
330
1F
100
AcDbEntity
  8
0
  6
Continuous
 62
     1
370
    15
100
AcDbLine
 10
12.4605100657
 20
179.5329953427
 30
0.0
 11
12.4605100657
 21
175.5329953427
 31
0.0
  0
LINE
  5
1BA
330
1F
100
AcDbEntity
  8
0
  6
Continuous
 62
     1
370
    15
100
AcDbLine
 10
12.4605100657
 20
135.5329953427
 30
0.0
 11
15.4605100657
 21
135.5329953427
 31
0.0
  0
LINE
  5
1BB
330
1F
100
AcDbEntity
  8
0
  6
Continuous
 62
     1
370
    15
100
AcDbLine
 10
15.4605100657
 20
135.5329953427
 30
0.0
 11
15.4605100657
 21
139.5329953427
 31
0.0
  0
LINE
  5
1BC
330
1F
100
AcDbEntity
  8
0
  6
Continuous
 62
     1
370
    15
100
AcDbLine
 10
15.4605100657
 20
139.5329953427
 30
0.0
 11
12.4605100657
 21
139.5329953427
 31
0.0
  0
LINE
  5
1BD
330
1F
100
AcDbEntity
  8
0
  6
Continuous
 62
     1
370
    15
100
AcDbLine
 10
12.4605100657
 20
139.5329953427
 30
0.0
 11
12.4605100657
 21
135.5329953427
 31
0.0
  0
LINE
  5
1BE
330
1F
100
AcDbEntity
  8
0
  6
Continuous
 62
     1
370
    15
100
AcDbLine
 10
12.4605100657
 20
95.5329953427
 30
0.0
 11
15.4605100657
 21
95.5329953427
 31
0.0
  0
LINE
  5
1BF
330
1F
100
AcDbEntity
  8
0
  6
Continuous
 62
     1
370
    15
100
AcDbLine
 10
15.4605100657
 20
95.5329953427
 30
0.0
 11
15.4605100657
 21
99.5329953427
 31
0.0
  0
LINE
  5
1C0
330
1F
100
AcDbEntity
  8
0
  6
Continuous
 62
     1
370
    15
100
AcDbLine
 10
15.4605100657
 20
99.5329953427
 30
0.0
 11
12.4605100657
 21
99.5329953427
 31
0.0
  0
LINE
  5
1C1
330
1F
100
AcDbEntity
  8
0
  6
Continuous
 62
     1
370
    15
100
AcDbLine
 10
12.4605100657
 20
99.5329953427
 30
0.0
 11
12.4605100657
 21
95.5329953427
 31
0.0
  0
CIRCLE
  5
1C2
330
1F
100
AcDbEntity
  8
0
  6
Continuous
 62
     1
370
    15
100
AcDbCircle
 10
15.4605100657
 20
253.5329953427
 30
0.0
 40
1.599999999999934
  0
CIRCLE
  5
1C3
330
1F
100
AcDbEntity
  8
0
  6
Continuous
 62
     1
370
    15
100
AcDbCircle
 10
453.4605100657
 20
253.5329953427
 30
0.0
 40
1.600000000000023
  0
ARC
  5
1C4
330
1F
100
AcDbEntity
  8
0
  6
Continuous
 62
     1
370
    15
100
AcDbCircle
 10
453.4605100657
 20
139.5329953427
 30
0.0
 40
1.60000000000008
100
AcDbArc
 50
180.0
 51
0.0
  0
LINE
  5
1C5
330
1F
100
AcDbEntity
  8
0
  6
Continuous
 62
     1
370
    15
100
AcDbLine
 10
455.0605100657
 20
139.5329953427
 30
0.0
 11
455.0605100657
 21
169.5329953427
 31
0.0
  0
ARC
  5
1C6
330
1F
100
AcDbEntity
  8
0
  6
Continuous
 62
     1
370
    15
100
AcDbCircle
 10
453.4605100657
 20
169.5329953427
 30
0.0
 40
1.60000000000008
100
AcDbArc
 50
0.0
 51
180.0
  0
LINE
  5
1C7
330
1F
100
AcDbEntity
  8
0
  6
Continuous
 62
     1
370
    15
100
AcDbLine
 10
451.8605100657
 20
169.5329953427
 30
0.0
 11
451.8605100657
 21
139.5329953427
 31
0.0
  0
LINE
  5
1C8
330
1F
100
AcDbEntity
  8
0
  6
Continuous
 62
     1
370
    15
100
AcDbLine
 10
47.8605100657
 20
124.5329953427
 30
0.0
 11
47.8605100657
 21
119.5329953427
 31
0.0
  0
ARC
  5
1C9
330
1F
100
AcDbEntity
  8
0
  6
Continuous
 62
     1
370
    15
100
AcDbCircle
 10
49.4605100657
 20
119.5329953427
 30
0.0
 40
1.599999999999937
100
AcDbArc
 50
180.0
 51
0.0
  0
LINE
  5
1CA
330
1F
100
AcDbEntity
  8
0
  6
Continuous
 62
     1
370
    15
100
AcDbLine
 10
51.0605100657
 20
119.5329953427
 30
0.0
 11
51.0605100657
 21
124.5329953427
 31
0.0
  0
ARC
  5
1CB
330
1F
100
AcDbEntity
  8
0
  6
Continuous
 62
     1
370
    15
100
AcDbCircle
 10
49.4605100657
 20
124.5329953427
 30
0.0
 40
1.599999999999937
100
AcDbArc
 50
0.0
 51
180.0
  0
LINE
  5
1CC
330
1F
100
AcDbEntity
  8
0
  6
Continuous
 62
     1
370
    15
100
AcDbLine
 10
437.8605100657
 20
124.5329953427
 30
0.0
 11
437.8605100657
 21
119.5329953427
 31
0.0
  0
ARC
  5
1CD
330
1F
100
AcDbEntity
  8
0
  6
Continuous
 62
     1
370
    15
100
AcDbCircle
 10
439.4605100657
 20
119.5329953427
 30
0.0
 40
1.599999999999966
100
AcDbArc
 50
180.0
 51
0.0
  0
LINE
  5
1CE
330
1F
100
AcDbEntity
  8
0
  6
Continuous
 62
     1
370
    15
100
AcDbLine
 10
441.0605100657
 20
119.5329953427
 30
0.0
 11
441.0605100657
 21
124.5329953427
 31
0.0
  0
ARC
  5
1CF
330
1F
100
AcDbEntity
  8
0
  6
Continuous
 62
     1
370
    15
100
AcDbCircle
 10
439.4605100657
 20
124.5329953427
 30
0.0
 40
1.599999999999966
100
AcDbArc
 50
0.0
 51
180.0
  0
LINE
  5
1D0
330
1F
100
AcDbEntity
  8
0
  6
Continuous
 62
     1
370
    15
100
AcDbLine
 10
417.8605100657
 20
124.5329953427
 30
0.0
 11
417.8605100657
 21
119.5329953427
 31
0.0
  0
ARC
  5
1D1
330
1F
100
AcDbEntity
  8
0
  6
Continuous
 62
     1
370
    15
100
AcDbCircle
 10
419.4605100657
 20
119.5329953427
 30
0.0
 40
1.599999999999909
100
AcDbArc
 50
180.0
 51
0.0
  0
LINE
  5
1D2
330
1F
100
AcDbEntity
  8
0
  6
Continuous
 62
     1
370
    15
100
AcDbLine
 10
421.0605100657
 20
119.5329953427
 30
0.0
 11
421.0605100657
 21
124.5329953427
 31
0.0
  0
ARC
  5
1D3
330
1F
100
AcDbEntity
  8
0
  6
Continuous
 62
     1
370
    15
100
AcDbCircle
 10
419.4605100657
 20
124.5329953427
 30
0.0
 40
1.599999999999909
100
AcDbArc
 50
0.0
 51
180.0
  0
LINE
  5
1D4
330
1F
100
AcDbEntity
  8
0
  6
Continuous
 62
     1
370
    15
100
AcDbLine
 10
27.8605100657
 20
124.5329953427
 30
0.0
 11
27.8605100657
 21
119.5329953427
 31
0.0
  0
ARC
  5
1D5
330
1F
100
AcDbEntity
  8
0
  6
Continuous
 62
     1
370
    15
100
AcDbCircle
 10
29.4605100657
 20
119.5329953427
 30
0.0
 40
1.599999999999937
100
AcDbArc
 50
180.0
 51
0.0
  0
LINE
  5
1D6
330
1F
100
AcDbEntity
  8
0
  6
Continuous
 62
     1
370
    15
100
AcDbLine
 10
31.0605100657
 20
119.5329953427
 30
0.0
 11
31.0605100657
 21
124.5329953427
 31
0.0
  0
ARC
  5
1D7
330
1F
100
AcDbEntity
  8
0
  6
Continuous
 62
     1
370
    15
100
AcDbCircle
 10
29.4605100657
 20
124.5329953427
 30
0.0
 40
1.599999999999937
100
AcDbArc
 50
0.0
 51
180.0
  0
LINE
  5
1D8
330
1F
100
AcDbEntity
  8
0
  6
Continuous
 62
     1
370
    15
100
AcDbLine
 10
47.8605100657
 20
94.5329953427
 30
0.0
 11
47.8605100657
 21
89.5329953427
 31
0.0
  0
ARC
  5
1D9
330
1F
100
AcDbEntity
  8
0
  6
Continuous
 62
     1
370
    15
100
AcDbCircle
 10
49.4605100657
 20
89.5329953427
 30
0.0
 40
1.599999999999937
100
AcDbArc
 50
180.0
 51
0.0
  0
LINE
  5
1DA
330
1F
100
AcDbEntity
  8
0
  6
Continuous
 62
     1
370
    15
100
AcDbLine
 10
51.0605100657
 20
89.5329953427
 30
0.0
 11
51.0605100657
 21
94.5329953427
 31
0.0
  0
ARC
  5
1DB
330
1F
100
AcDbEntity
  8
0
  6
Continuous
 62
     1
370
    15
100
AcDbCircle
 10
49.4605100657
 20
94.5329953427
 30
0.0
 40
1.599999999999937
100
AcDbArc
 50
0.0
 51
180.0
  0
LINE
  5
1DC
330
1F
100
AcDbEntity
  8
0
  6
Continuous
 62
     1
370
    15
100
AcDbLine
 10
27.8605100657
 20
94.5329953427
 30
0.0
 11
27.8605100657
 21
89.5329953427
 31
0.0
  0
ARC
  5
1DD
330
1F
100
AcDbEntity
  8
0
  6
Continuous
 62
     1
370
    15
100
AcDbCircle
 10
29.4605100657
 20
89.5329953427
 30
0.0
 40
1.599999999999934
100
AcDbArc
 50
180.0
 51
0.0
  0
LINE
  5
1DE
330
1F
100
AcDbEntity
  8
0
  6
Continuous
 62
     1
370
    15
100
AcDbLine
 10
31.0605100657
 20
89.5329953427
 30
0.0
 11
31.0605100657
 21
94.5329953427
 31
0.0
  0
ARC
  5
1DF
330
1F
100
AcDbEntity
  8
0
  6
Continuous
 62
     1
370
    15
100
AcDbCircle
 10
29.4605100657
 20
94.5329953427
 30
0.0
 40
1.599999999999934
100
AcDbArc
 50
0.0
 51
180.0
  0
LINE
  5
1E0
330
1F
100
AcDbEntity
  8
0
  6
Continuous
 62
     1
370
    15
100
AcDbLine
 10
417.8605100657
 20
94.5329953427
 30
0.0
 11
417.8605100657
 21
89.5329953427
 31
0.0
  0
ARC
  5
1E1
330
1F
100
AcDbEntity
  8
0
  6
Continuous
 62
     1
370
    15
100
AcDbCircle
 10
419.4605100657
 20
89.5329953427
 30
0.0
 40
1.599999999999966
100
AcDbArc
 50
180.0
 51
0.0
  0
LINE
  5
1E2
330
1F
100
AcDbEntity
  8
0
  6
Continuous
 62
     1
370
    15
100
AcDbLine
 10
421.0605100657
 20
89.5329953427
 30
0.0
 11
421.0605100657
 21
94.5329953427
 31
0.0
  0
ARC
  5
1E3
330
1F
100
AcDbEntity
  8
0
  6
Continuous
 62
     1
370
    15
100
AcDbCircle
 10
419.4605100657
 20
94.5329953427
 30
0.0
 40
1.599999999999966
100
AcDbArc
 50
0.0
 51
180.0
  0
LINE
  5
1E4
330
1F
100
AcDbEntity
  8
0
  6
Continuous
 62
     1
370
    15
100
AcDbLine
 10
437.8605100657
 20
94.5329953427
 30
0.0
 11
437.8605100657
 21
89.5329953427
 31
0.0
  0
ARC
  5
1E5
330
1F
100
AcDbEntity
  8
0
  6
Continuous
 62
     1
370
    15
100
AcDbCircle
 10
439.4605100657
 20
89.5329953427
 30
0.0
 40
1.599999999999966
100
AcDbArc
 50
180.0
 51
0.0
  0
LINE
  5
1E6
330
1F
100
AcDbEntity
  8
0
  6
Continuous
 62
     1
370
    15
100
AcDbLine
 10
441.0605100657
 20
89.5329953427
 30
0.0
 11
441.0605100657
 21
94.5329953427
 31
0.0
  0
ARC
  5
1E7
330
1F
100
AcDbEntity
  8
0
  6
Continuous
 62
     1
370
    15
100
AcDbCircle
 10
439.4605100657
 20
94.5329953427
 30
0.0
 40
1.599999999999966
100
AcDbArc
 50
0.0
 51
180.0
  0
CIRCLE
  5
1E8
330
1F
100
AcDbEntity
  8
0
  6
Continuous
 62
     1
370
    15
100
AcDbCircle
 10
414.4605100657
 20
199.5329953427
 30
0.0
 40
4.050000000000011
  0
CIRCLE
  5
1E9
330
1F
100
AcDbEntity
  8
0
  6
Continuous
 62
     1
370
    15
100
AcDbCircle
 10
409.2841291637
 20
180.214478817
 30
0.0
 40
1.599999999999909
  0
ARC
  5
1EA
330
1F
100
AcDbEntity
  8
0
  6
Continuous
 62
     1
370
    15
100
AcDbCircle
 10
429.4605100657
 20
239.5329953427
 30
0.0
 40
9.500000000000028
100
AcDbArc
 50
270.0
 51
90.0
  0
LINE
  5
1EB
330
1F
100
AcDbEntity
  8
0
  6
Continuous
 62
     7
370
    15
100
AcDbLine
 10
475.3480494427
 20
54.0670682993
 30
0.0
 11
475.3480494427
 21
72.6670682993
 31
0.0
  0
LINE
  5
1EC
330
1F
100
AcDbEntity
  8
0
  6
Continuous
 62
     7
370
    15
100
AcDbLine
 10
475.3480494427
 20
72.6670682993
 30
0.0
 11
472.5480494427
 21
72.6670682993
 31
0.0
  0
LINE
  5
1ED
330
1F
100
AcDbEntity
  8
0
  6
Continuous
 62
     7
370
    15
100
AcDbLine
 10
472.5480494427
 20
72.6670682993
 30
0.0
 11
472.5480494427
 21
92.6670682993
 31
0.0
  0
LINE
  5
1EE
330
1F
100
AcDbEntity
  8
0
  6
Continuous
 62
     7
370
    15
100
AcDbLine
 10
472.5480494427
 20
92.6670682993
 30
0.0
 11
475.3480494427
 21
92.6670682993
 31
0.0
  0
LINE
  5
1EF
330
1F
100
AcDbEntity
  8
0
  6
Continuous
 62
     7
370
    15
100
AcDbLine
 10
475.3480494427
 20
92.6670682993
 30
0.0
 11
475.3480494427
 21
114.0670682993
 31
0.0
  0
LINE
  5
1F0
330
1F
100
AcDbEntity
  8
0
  6
Continuous
 62
     7
370
    15
100
AcDbLine
 10
475.3480494427
 20
114.0670682993
 30
0.0
 11
472.5480494427
 21
114.0670682993
 31
0.0
  0
LINE
  5
1F1
330
1F
100
AcDbEntity
  8
0
  6
Continuous
 62
     7
370
    15
100
AcDbLine
 10
472.5480494427
 20
134.0670682993
 30
0.0
 11
475.3480494427
 21
134.0670682993
 31
0.0
  0
LINE
  5
1F2
330
1F
100
AcDbEntity
  8
0
  6
Continuous
 62
     7
370
    15
100
AcDbLine
 10
475.3480494427
 20
134.0670682993
 30
0.0
 11
475.3480494427
 21
154.0670682993
 31
0.0
  0
LINE
  5
1F3
330
1F
100
AcDbEntity
  8
0
  6
Continuous
 62
     7
370
    15
100
AcDbLine
 10
475.3480494427
 20
154.0670682993
 30
0.0
 11
575.3480494427
 21
154.0670682993
 31
0.0
  0
LINE
  5
1F4
330
1F
100
AcDbEntity
  8
0
  6
Continuous
 62
     7
370
    15
100
AcDbLine
 10
575.3480494427
 20
154.0670682993
 30
0.0
 11
575.3480494427
 21
134.0670682993
 31
0.0
  0
LINE
  5
1F5
330
1F
100
AcDbEntity
  8
0
  6
Continuous
 62
     7
370
    15
100
AcDbLine
 10
575.3480494427
 20
134.0670682993
 30
0.0
 11
578.1480494427
 21
134.0670682993
 31
0.0
  0
LINE
  5
1F6
330
1F
100
AcDbEntity
  8
0
  6
Continuous
 62
     7
370
    15
100
AcDbLine
 10
578.1480494427
 20
134.0670682993
 30
0.0
 11
578.1480494427
 21
114.0670682993
 31
0.0
  0
LINE
  5
1F7
330
1F
100
AcDbEntity
  8
0
  6
Continuous
 62
     7
370
    15
100
AcDbLine
 10
578.1480494427
 20
114.0670682993
 30
0.0
 11
575.3480494427
 21
114.0670682993
 31
0.0
  0
LINE
  5
1F8
330
1F
100
AcDbEntity
  8
0
  6
Continuous
 62
     7
370
    15
100
AcDbLine
 10
575.3480494427
 20
114.0670682993
 30
0.0
 11
575.3480494427
 21
92.6670682993
 31
0.0
  0
LINE
  5
1F9
330
1F
100
AcDbEntity
  8
0
  6
Continuous
 62
     7
370
    15
100
AcDbLine
 10
575.3480494427
 20
92.6670682993
 30
0.0
 11
578.1480494427
 21
92.6670682993
 31
0.0
  0
LINE
  5
1FA
330
1F
100
AcDbEntity
  8
0
  6
Continuous
 62
     7
370
    15
100
AcDbLine
 10
578.1480494427
 20
92.6670682993
 30
0.0
 11
578.1480494427
 21
72.6670682993
 31
0.0
  0
LINE
  5
1FB
330
1F
100
AcDbEntity
  8
0
  6
Continuous
 62
     7
370
    15
100
AcDbLine
 10
578.1480494427
 20
72.6670682993
 30
0.0
 11
575.3480494427
 21
72.6670682993
 31
0.0
  0
LINE
  5
1FC
330
1F
100
AcDbEntity
  8
0
  6
Continuous
 62
     7
370
    15
100
AcDbLine
 10
575.3480494427
 20
72.6670682993
 30
0.0
 11
575.3480494427
 21
54.0670682993
 31
0.0
  0
LINE
  5
1FD
330
1F
100
AcDbEntity
  8
0
  6
Continuous
 62
     7
370
    15
100
AcDbLine
 10
575.3480494427
 20
54.0670682993
 30
0.0
 11
475.3480494427
 21
54.0670682993
 31
0.0
  0
CIRCLE
  5
1FE
330
1F
100
AcDbEntity
  8
0
  6
Continuous
 62
     1
370
    15
100
AcDbCircle
 10
525.3480494427
 20
81.0670682993
 30
0.0
 40
4.100000000000023
  0
CIRCLE
  5
1FF
330
1F
100
AcDbEntity
  8
0
  6
Continuous
 62
     1
370
    15
100
AcDbCircle
 10
548.3480494427
 20
104.0670682993
 30
0.0
 40
4.100000000000023
  0
CIRCLE
  5
200
330
1F
100
AcDbEntity
  8
0
  6
Continuous
 62
     1
370
    15
100
AcDbCircle
 10
548.3480494427
 20
91.5670682993
 30
0.0
 40
1.599999999999909
  0
CIRCLE
  5
201
330
1F
100
AcDbEntity
  8
0
  6
Continuous
 62
     1
370
    15
100
AcDbCircle
 10
525.3480494427
 20
68.5670682993
 30
0.0
 40
1.600000000000023
  0
CIRCLE
  5
202
330
1F
100
AcDbEntity
  8
0
  6
Continuous
 62
     1
370
    15
100
AcDbCircle
 10
559.17336699
 20
110.3170682993
 30
0.0
 40
1.599999999999682
  0
CIRCLE
  5
203
330
1F
100
AcDbEntity
  8
0
  6
Continuous
 62
     1
370
    15
100
AcDbCircle
 10
536.17336699
 20
87.3170682993
 30
0.0
 40
1.599999999999909
  0
CIRCLE
  5
204
330
1F
100
AcDbEntity
  8
0
  6
Continuous
 62
     1
370
    15
100
AcDbCircle
 10
514.5227318954
 20
87.3170682993
 30
0.0
 40
1.600000000000136
  0
CIRCLE
  5
205
330
1F
100
AcDbEntity
  8
0
  6
Continuous
 62
     1
370
    15
100
AcDbCircle
 10
537.5227318954
 20
110.3170682993
 30
0.0
 40
1.600000000000023
  0
CIRCLE
  5
206
330
1F
100
AcDbEntity
  8
0
  6
Continuous
 62
     1
370
    15
100
AcDbCircle
 10
525.3480494427
 20
104.0670682993
 30
0.0
 40
6.499999999999886
  0
LINE
  5
207
330
1F
100
AcDbEntity
  8
0
  6
Continuous
 62
     7
370
    15
100
AcDbLine
 10
472.5480494427
 20
114.0670682993
 30
0.0
 11
472.5480494427
 21
134.0670682993
 31
0.0
  0
LINE
  5
208
330
1F
100
AcDbEntity
  8
0
  6
Continuous
 62
    70
370
    15
100
AcDbLine
 10
96.1223189784
 20
33.3736866143
 30
0.0
 11
76.1223189784
 21
33.3736866143
 31
0.0
  0
LINE
  5
209
330
1F
100
AcDbEntity
  8
0
  6
Continuous
 62
    70
370
    15
100
AcDbLine
 10
76.1223189784
 20
33.3736866143
 30
0.0
 11
76.1223189784
 21
27.7736866143
 31
0.0
  0
LINE
  5
20A
330
1F
100
AcDbEntity
  8
0
  6
Continuous
 62
    70
370
    15
100
AcDbLine
 10
76.1223189784
 20
27.7736866143
 30
0.0
 11
96.1223189784
 21
27.7736866143
 31
0.0
  0
LINE
  5
20B
330
1F
100
AcDbEntity
  8
0
  6
Continuous
 62
    70
370
    15
100
AcDbLine
 10
96.1223189784
 20
27.7736866143
 30
0.0
 11
96.1223189784
 21
33.3736866143
 31
0.0
  0
CIRCLE
  5
20C
330
1F
100
AcDbEntity
  8
0
  6
Continuous
 62
    70
370
    15
100
AcDbCircle
 10
86.4917091
 20
43.3736866143
 30
0.0
 40
2.25
  0
CIRCLE
  5
20D
330
1F
100
AcDbEntity
  8
0
  6
Continuous
 62
    70
370
    15
100
AcDbCircle
 10
66.1223189784
 20
36.0064710651
 30
0.0
 40
2.749999999999993
  0
LINE
  5
20E
330
1F
100
AcDbEntity
  8
0
  6
Continuous
 62
     2
370
    15
100
AcDbLine
 10
96.1223189784
 20
16.1736866143
 30
0.0
 11
96.1223189784
 21
10.5736866143
 31
0.0
  0
LINE
  5
20F
330
1F
100
AcDbEntity
  8
0
  6
Continuous
 62
     2
370
    15
100
AcDbLine
 10
76.1223189784
 20
16.1736866143
 30
0.0
 11
96.1223189784
 21
16.1736866143
 31
0.0
  0
LINE
  5
210
330
1F
100
AcDbEntity
  8
0
  6
Continuous
 62
     2
370
    15
100
AcDbLine
 10
76.1223189784
 20
10.5736866143
 30
0.0
 11
76.1223189784
 21
16.1736866143
 31
0.0
  0
LINE
  5
211
330
1F
100
AcDbEntity
  8
0
  6
Continuous
 62
     2
370
    15
100
AcDbLine
 10
56.1223189784
 20
10.5736866143
 30
0.0
 11
76.1223189784
 21
10.5736866143
 31
0.0
  0
LINE
  5
212
330
1F
100
AcDbEntity
  8
0
  6
Continuous
 62
     2
370
    15
100
AcDbLine
 10
56.1223189784
 20
16.1736866143
 30
0.0
 11
56.1223189784
 21
10.5736866143
 31
0.0
  0
LINE
  5
213
330
1F
100
AcDbEntity
  8
0
  6
Continuous
 62
     2
370
    15
100
AcDbLine
 10
36.1223189784
 20
16.1736866143
 30
0.0
 11
56.1223189784
 21
16.1736866143
 31
0.0
  0
LINE
  5
214
330
1F
100
AcDbEntity
  8
0
  6
Continuous
 62
     2
370
    15
100
AcDbLine
 10
36.1223189784
 20
10.5736866143
 30
0.0
 11
36.1223189784
 21
16.1736866143
 31
0.0
  0
LINE
  5
215
330
1F
100
AcDbEntity
  8
0
  6
Continuous
 62
     2
370
    15
100
AcDbLine
 10
16.1223189784
 20
10.5736866143
 30
0.0
 11
36.1223189784
 21
10.5736866143
 31
0.0
  0
LINE
  5
216
330
1F
100
AcDbEntity
  8
0
  6
Continuous
 62
     2
370
    15
100
AcDbLine
 10
16.1223189784
 20
50.5736866143
 30
0.0
 11
16.1223189784
 21
10.5736866143
 31
0.0
  0
LINE
  5
217
330
1F
100
AcDbEntity
  8
0
  6
Continuous
 62
     2
370
    15
100
AcDbLine
 10
36.1223189784
 20
50.5736866143
 30
0.0
 11
16.1223189784
 21
50.5736866143
 31
0.0
  0
LINE
  5
218
330
1F
100
AcDbEntity
  8
0
  6
Continuous
 62
     2
370
    15
100
AcDbLine
 10
36.1223189784
 20
56.1736866143
 30
0.0
 11
36.1223189784
 21
50.5736866143
 31
0.0
  0
LINE
  5
219
330
1F
100
AcDbEntity
  8
0
  6
Continuous
 62
     2
370
    15
100
AcDbLine
 10
56.1223189784
 20
56.1736866143
 30
0.0
 11
36.1223189784
 21
56.1736866143
 31
0.0
  0
LINE
  5
21A
330
1F
100
AcDbEntity
  8
0
  6
Continuous
 62
     2
370
    15
100
AcDbLine
 10
56.1223189784
 20
50.5736866143
 30
0.0
 11
56.1223189784
 21
56.1736866143
 31
0.0
  0
LINE
  5
21B
330
1F
100
AcDbEntity
  8
0
  6
Continuous
 62
     2
370
    15
100
AcDbLine
 10
76.1223189784
 20
50.5736866143
 30
0.0
 11
56.1223189784
 21
50.5736866143
 31
0.0
  0
LINE
  5
21C
330
1F
100
AcDbEntity
  8
0
  6
Continuous
 62
     2
370
    15
100
AcDbLine
 10
76.1223189784
 20
56.1736866143
 30
0.0
 11
76.1223189784
 21
50.5736866143
 31
0.0
  0
LINE
  5
21D
330
1F
100
AcDbEntity
  8
0
  6
Continuous
 62
     2
370
    15
100
AcDbLine
 10
96.1223189784
 20
56.1736866143
 30
0.0
 11
76.1223189784
 21
56.1736866143
 31
0.0
  0
LINE
  5
21E
330
1F
100
AcDbEntity
  8
0
  6
Continuous
 62
     2
370
    15
100
AcDbLine
 10
96.1223189784
 20
50.5736866143
 30
0.0
 11
96.1223189784
 21
56.1736866143
 31
0.0
  0
LINE
  5
21F
330
1F
100
AcDbEntity
  8
0
  6
Continuous
 62
     2
370
    15
100
AcDbLine
 10
116.1223189784
 20
50.5736866143
 30
0.0
 11
96.1223189784
 21
50.5736866143
 31
0.0
  0
LINE
  5
220
330
1F
100
AcDbEntity
  8
0
  6
Continuous
 62
     2
370
    15
100
AcDbLine
 10
116.1223189784
 20
10.5736866143
 30
0.0
 11
116.1223189784
 21
50.5736866143
 31
0.0
  0
LINE
  5
221
330
1F
100
AcDbEntity
  8
0
  6
Continuous
 62
     2
370
    15
100
AcDbLine
 10
96.1223189784
 20
10.5736866143
 30
0.0
 11
116.1223189784
 21
10.5736866143
 31
0.0
  0
CIRCLE
  5
222
330
1F
100
AcDbEntity
  8
0
  6
Continuous
 62
    70
370
    15
100
AcDbCircle
 10
46.1223189784
 20
43.3736866143
 30
0.0
 40
1.599999999999987
  0
LINE
  5
223
330
1F
100
AcDbEntity
  8
0
  6
Continuous
 62
    70
370
    15
100
AcDbLine
 10
56.1223189784
 20
33.3736866143
 30
0.0
 11
36.1223189784
 21
33.3736866143
 31
0.0
  0
LINE
  5
224
330
1F
100
AcDbEntity
  8
0
  6
Continuous
 62
    70
370
    15
100
AcDbLine
 10
36.1223189784
 20
33.3736866143
 30
0.0
 11
36.1223189784
 21
27.7736866143
 31
0.0
  0
LINE
  5
225
330
1F
100
AcDbEntity
  8
0
  6
Continuous
 62
    70
370
    15
100
AcDbLine
 10
36.1223189784
 20
27.7736866143
 30
0.0
 11
56.1223189784
 21
27.7736866143
 31
0.0
  0
LINE
  5
226
330
1F
100
AcDbEntity
  8
0
  6
Continuous
 62
    70
370
    15
100
AcDbLine
 10
56.1223189784
 20
27.7736866143
 30
0.0
 11
56.1223189784
 21
33.3736866143
 31
0.0
  0
LINE
  5
227
330
1F
100
AcDbEntity
  8
0
  6
Continuous
 62
    70
370
    15
100
AcDbLine
 10
203.9928853789
 20
33.4001836683
 30
0.0
 11
183.9928853789
 21
33.4001836683
 31
0.0
  0
LINE
  5
228
330
1F
100
AcDbEntity
  8
0
  6
Continuous
 62
    70
370
    15
100
AcDbLine
 10
183.9928853789
 20
33.4001836683
 30
0.0
 11
183.9928853789
 21
27.8001836683
 31
0.0
  0
LINE
  5
229
330
1F
100
AcDbEntity
  8
0
  6
Continuous
 62
    70
370
    15
100
AcDbLine
 10
183.9928853789
 20
27.8001836683
 30
0.0
 11
203.9928853789
 21
27.8001836683
 31
0.0
  0
LINE
  5
22A
330
1F
100
AcDbEntity
  8
0
  6
Continuous
 62
    70
370
    15
100
AcDbLine
 10
203.9928853789
 20
27.8001836683
 30
0.0
 11
203.9928853789
 21
33.4001836683
 31
0.0
  0
CIRCLE
  5
22B
330
1F
100
AcDbEntity
  8
0
  6
Continuous
 62
    70
370
    15
100
AcDbCircle
 10
194.3622755005
 20
43.4001836683
 30
0.0
 40
2.25
  0
CIRCLE
  5
22C
330
1F
100
AcDbEntity
  8
0
  6
Continuous
 62
    70
370
    15
100
AcDbCircle
 10
173.9928853789
 20
36.0329681191
 30
0.0
 40
2.75
  0
LINE
  5
22D
330
1F
100
AcDbEntity
  8
0
  6
Continuous
 62
     2
370
    15
100
AcDbLine
 10
203.9928853789
 20
16.2001836683
 30
0.0
 11
203.9928853789
 21
10.6001836683
 31
0.0
  0
LINE
  5
22E
330
1F
100
AcDbEntity
  8
0
  6
Continuous
 62
     2
370
    15
100
AcDbLine
 10
183.9928853789
 20
16.2001836683
 30
0.0
 11
203.9928853789
 21
16.2001836683
 31
0.0
  0
LINE
  5
22F
330
1F
100
AcDbEntity
  8
0
  6
Continuous
 62
     2
370
    15
100
AcDbLine
 10
183.9928853789
 20
10.6001836683
 30
0.0
 11
183.9928853789
 21
16.2001836683
 31
0.0
  0
LINE
  5
230
330
1F
100
AcDbEntity
  8
0
  6
Continuous
 62
     2
370
    15
100
AcDbLine
 10
163.9928853789
 20
10.6001836683
 30
0.0
 11
183.9928853789
 21
10.6001836683
 31
0.0
  0
LINE
  5
231
330
1F
100
AcDbEntity
  8
0
  6
Continuous
 62
     2
370
    15
100
AcDbLine
 10
163.9928853789
 20
16.2001836683
 30
0.0
 11
163.9928853789
 21
10.6001836683
 31
0.0
  0
LINE
  5
232
330
1F
100
AcDbEntity
  8
0
  6
Continuous
 62
     2
370
    15
100
AcDbLine
 10
143.9928853789
 20
16.2001836683
 30
0.0
 11
163.9928853789
 21
16.2001836683
 31
0.0
  0
LINE
  5
233
330
1F
100
AcDbEntity
  8
0
  6
Continuous
 62
     2
370
    15
100
AcDbLine
 10
143.9928853789
 20
10.6001836683
 30
0.0
 11
143.9928853789
 21
16.2001836683
 31
0.0
  0
LINE
  5
234
330
1F
100
AcDbEntity
  8
0
  6
Continuous
 62
     2
370
    15
100
AcDbLine
 10
123.9928853789
 20
10.6001836683
 30
0.0
 11
143.9928853789
 21
10.6001836683
 31
0.0
  0
LINE
  5
235
330
1F
100
AcDbEntity
  8
0
  6
Continuous
 62
     2
370
    15
100
AcDbLine
 10
123.9928853789
 20
50.6001836683
 30
0.0
 11
123.9928853789
 21
10.6001836683
 31
0.0
  0
LINE
  5
236
330
1F
100
AcDbEntity
  8
0
  6
Continuous
 62
     2
370
    15
100
AcDbLine
 10
143.9928853789
 20
50.6001836683
 30
0.0
 11
123.9928853789
 21
50.6001836683
 31
0.0
  0
LINE
  5
237
330
1F
100
AcDbEntity
  8
0
  6
Continuous
 62
     2
370
    15
100
AcDbLine
 10
143.9928853789
 20
56.2001836683
 30
0.0
 11
143.9928853789
 21
50.6001836683
 31
0.0
  0
LINE
  5
238
330
1F
100
AcDbEntity
  8
0
  6
Continuous
 62
     2
370
    15
100
AcDbLine
 10
163.9928853789
 20
56.2001836683
 30
0.0
 11
143.9928853789
 21
56.2001836683
 31
0.0
  0
LINE
  5
239
330
1F
100
AcDbEntity
  8
0
  6
Continuous
 62
     2
370
    15
100
AcDbLine
 10
163.9928853789
 20
50.6001836683
 30
0.0
 11
163.9928853789
 21
56.2001836683
 31
0.0
  0
LINE
  5
23A
330
1F
100
AcDbEntity
  8
0
  6
Continuous
 62
     2
370
    15
100
AcDbLine
 10
183.9928853789
 20
50.6001836683
 30
0.0
 11
163.9928853789
 21
50.6001836683
 31
0.0
  0
LINE
  5
23B
330
1F
100
AcDbEntity
  8
0
  6
Continuous
 62
     2
370
    15
100
AcDbLine
 10
183.9928853789
 20
56.2001836683
 30
0.0
 11
183.9928853789
 21
50.6001836683
 31
0.0
  0
LINE
  5
23C
330
1F
100
AcDbEntity
  8
0
  6
Continuous
 62
     2
370
    15
100
AcDbLine
 10
203.9928853789
 20
56.2001836683
 30
0.0
 11
183.9928853789
 21
56.2001836683
 31
0.0
  0
LINE
  5
23D
330
1F
100
AcDbEntity
  8
0
  6
Continuous
 62
     2
370
    15
100
AcDbLine
 10
203.9928853789
 20
50.6001836683
 30
0.0
 11
203.9928853789
 21
56.2001836683
 31
0.0
  0
LINE
  5
23E
330
1F
100
AcDbEntity
  8
0
  6
Continuous
 62
     2
370
    15
100
AcDbLine
 10
223.9928853789
 20
50.6001836683
 30
0.0
 11
203.9928853789
 21
50.6001836683
 31
0.0
  0
LINE
  5
23F
330
1F
100
AcDbEntity
  8
0
  6
Continuous
 62
     2
370
    15
100
AcDbLine
 10
223.9928853789
 20
10.6001836683
 30
0.0
 11
223.9928853789
 21
50.6001836683
 31
0.0
  0
LINE
  5
240
330
1F
100
AcDbEntity
  8
0
  6
Continuous
 62
     2
370
    15
100
AcDbLine
 10
203.9928853789
 20
10.6001836683
 30
0.0
 11
223.9928853789
 21
10.6001836683
 31
0.0
  0
CIRCLE
  5
241
330
1F
100
AcDbEntity
  8
0
  6
Continuous
 62
    70
370
    15
100
AcDbCircle
 10
153.9928853789
 20
43.4001836683
 30
0.0
 40
1.600000000000001
  0
LINE
  5
242
330
1F
100
AcDbEntity
  8
0
  6
Continuous
 62
    70
370
    15
100
AcDbLine
 10
163.9928853789
 20
33.4001836683
 30
0.0
 11
143.9928853789
 21
33.4001836683
 31
0.0
  0
LINE
  5
243
330
1F
100
AcDbEntity
  8
0
  6
Continuous
 62
    70
370
    15
100
AcDbLine
 10
143.9928853789
 20
33.4001836683
 30
0.0
 11
143.9928853789
 21
27.8001836683
 31
0.0
  0
LINE
  5
244
330
1F
100
AcDbEntity
  8
0
  6
Continuous
 62
    70
370
    15
100
AcDbLine
 10
143.9928853789
 20
27.8001836683
 30
0.0
 11
163.9928853789
 21
27.8001836683
 31
0.0
  0
LINE
  5
245
330
1F
100
AcDbEntity
  8
0
  6
Continuous
 62
    70
370
    15
100
AcDbLine
 10
163.9928853789
 20
27.8001836683
 30
0.0
 11
163.9928853789
 21
33.4001836683
 31
0.0
  0
MTEXT
  5
247
330
1F
100
AcDbEntity
  8
0
  6
Continuous
 62
     7
100
AcDbMText
 10
0.0
 20
22.0602986318
 30
0.0
 40
7.90956
 41
0.0
 71
     1
 72
     1
  1
SolidWorks Educational Edition.
  7
SLDTEXTSTYLE0
 73
     1
 44
1.0
  0
MTEXT
  5
248
330
1F
100
AcDbEntity
  8
0
  6
Continuous
 62
     7
100
AcDbMText
 10
0.0
 20
10.1959586318
 30
0.0
 40
7.90956
 41
0.0
 71
     1
 72
     1
  1
For Instructional Use Only.
  7
SLDTEXTSTYLE0
 73
     1
 44
1.0
  0
ENDSEC
  0
SECTION
  2
OBJECTS
  0
DICTIONARY
  5
C
330
0
100
AcDbDictionary
281
     1
  3
ACAD_GROUP
350
D
  3
ACAD_LAYOUT
350
1A
  3
ACAD_MLINESTYLE
350
17
  3
ACAD_PLOTSETTINGS
350
19
  3
ACAD_PLOTSTYLENAME
350
E
  0
DICTIONARY
  5
D
102
{ACAD_REACTORS
330
C
102
}
330
C
100
AcDbDictionary
281
     1
  0
DICTIONARY
  5
1A
102
{ACAD_REACTORS
330
C
102
}
330
C
100
AcDbDictionary
281
     1
  3
Layout1
350
1E
  3
Layout2
350
26
  3
Model
350
22
  0
DICTIONARY
  5
17
102
{ACAD_REACTORS
330
C
102
}
330
C
100
AcDbDictionary
281
     1
  3
Standard
350
18
  0
DICTIONARY
  5
19
102
{ACAD_REACTORS
330
C
102
}
330
C
100
AcDbDictionary
281
     1
  0
ACDBDICTIONARYWDFLT
  5
E
102
{ACAD_REACTORS
330
C
102
}
330
C
100
AcDbDictionary
281
     1
  3
Normal
350
F
100
AcDbDictionaryWithDefault
340
F
  0
LAYOUT
  5
1E
102
{ACAD_REACTORS
330
1A
102
}
330
1A
100
AcDbPlotSettings
  1

  2
none_device
  4

  6

 40
0.0
 41
0.0
 42
0.0
 43
0.0
 44
0.0
 45
0.0
 46
0.0
 47
0.0
 48
0.0
 49
0.0
140
0.0
141
0.0
142
1.0
143
1.0
 70
   688
 72
     0
 73
     0
 74
     5
  7

 75
    16
147
1.0
148
0.0
149
0.0
100
AcDbLayout
  1
Layout1
 70
     1
 71
     1
 10
0.0
 20
0.0
 11
420.0
 21
297.0
 12
0.0
 22
0.0
 32
0.0
 14
1.0000000000E+20
 24
1.0000000000E+20
 34
1.0000000000E+20
 15
-1.0000000000E+20
 25
-1.0000000000E+20
 35
-1.0000000000E+20
146
0.0
 13
0.0
 23
0.0
 33
0.0
 16
1.0
 26
0.0
 36
0.0
 17
0.0
 27
1.0
 37
0.0
 76
     0
330
1B
  0
LAYOUT
  5
26
102
{ACAD_REACTORS
330
1A
102
}
330
1A
100
AcDbPlotSettings
  1

  2
none_device
  4

  6

 40
0.0
 41
0.0
 42
0.0
 43
0.0
 44
0.0
 45
0.0
 46
0.0
 47
0.0
 48
0.0
 49
0.0
140
0.0
141
0.0
142
1.0
143
1.0
 70
   688
 72
     0
 73
     0
 74
     5
  7

 75
    16
147
1.0
148
0.0
149
0.0
100
AcDbLayout
  1
Layout2
 70
     1
 71
     2
 10
0.0
 20
0.0
 11
0.0
 21
0.0
 12
0.0
 22
0.0
 32
0.0
 14
0.0
 24
0.0
 34
0.0
 15
0.0
 25
0.0
 35
0.0
146
0.0
 13
0.0
 23
0.0
 33
0.0
 16
1.0
 26
0.0
 36
0.0
 17
0.0
 27
1.0
 37
0.0
 76
     0
330
23
  0
LAYOUT
  5
22
102
{ACAD_REACTORS
330
1A
102
}
330
1A
100
AcDbPlotSettings
  1

  2
none_device
  4

  6

 40
0.0
 41
0.0
 42
0.0
 43
0.0
 44
0.0
 45
0.0
 46
0.0
 47
0.0
 48
0.0
 49
0.0
140
0.0
141
0.0
142
1.0
143
1.0
 70
  1712
 72
     0
 73
     0
 74
     0
  7

 75
     0
147
1.0
148
0.0
149
0.0
100
AcDbLayout
  1
Model
 70
     1
 71
     0
 10
0.0
 20
0.0
 11
609.6
 21
457.2
 12
0.0
 22
0.0
 32
0.0
 14
0.0
 24
0.0
 34
0.0
 15
609.6
 25
457.2
 35
0.0
146
0.0
 13
0.0
 23
0.0
 33
0.0
 16
1.0
 26
0.0
 36
0.0
 17
0.0
 27
1.0
 37
0.0
 76
     0
330
1F
331
29
  0
MLINESTYLE
  5
18
102
{ACAD_REACTORS
330
17
102
}
330
17
100
AcDbMlineStyle
  2
Standard
 70
     0
  3

 62
   256
 51
90.0
 52
90.0
 71
     2
 49
0.5
 62
   256
  6
BYLAYER
 49
-0.5
 62
   256
  6
BYLAYER
  0
ACDBPLACEHOLDER
  5
F
102
{ACAD_REACTORS
330
E
102
}
330
E
  0
ENDSEC
  0
EOF
