  0
SECTION
  2
HEADER
  9
$ACADVER
  1
AC1018
  9
$ACADMAINTVER
 70
     0
  9
$DWGCODEPAGE
  3
ANSI_1252
  9
$INSBASE
 10
0.0
 20
0.0
 30
0.0
  9
$EXTMIN
 10
1.000000000000000E+20
 20
1.000000000000000E+20
 30
1.000000000000000E+20
  9
$EXTMAX
 10
-1.000000000000000E+20
 20
-1.000000000000000E+20
 30
-1.000000000000000E+20
  9
$LIMMIN
 10
0.0
 20
0.0
  9
$LIMMAX
 10
12.0
 20
9.0
  9
$ORTHOMODE
 70
     0
  9
$REGENMODE
 70
     1
  9
$FILLMODE
 70
     1
  9
$QTEXTMODE
 70
     0
  9
$MIRRTEXT
 70
     1
  9
$LTSCALE
 40
1.0
  9
$ATTMODE
 70
     1
  9
$TEXTSIZE
 40
0.2
  9
$TRACEWID
 40
0.05
  9
$TEXTSTYLE
  7
Standard
  9
$CLAYER
  8
0
  9
$CELTYPE
  6
ByLayer
  9
$CECOLOR
 62
   256
  9
$CELTSCALE
 40
1.0
  9
$DISPSILH
 70
     0
  9
$DIMSCALE
 40
1.0
  9
$DIMASZ
 40
0.18
  9
$DIMEXO
 40
0.0625
  9
$DIMDLI
 40
0.38
  9
$DIMRND
 40
0.0
  9
$DIMDLE
 40
0.0
  9
$DIMEXE
 40
0.18
  9
$DIMTP
 40
0.0
  9
$DIMTM
 40
0.0
  9
$DIMTXT
 40
0.18
  9
$DIMCEN
 40
0.09
  9
$DIMTSZ
 40
0.0
  9
$DIMTOL
 70
     0
  9
$DIMLIM
 70
     0
  9
$DIMTIH
 70
     1
  9
$DIMTOH
 70
     1
  9
$DIMSE1
 70
     0
  9
$DIMSE2
 70
     0
  9
$DIMTAD
 70
     0
  9
$DIMZIN
 70
     0
  9
$DIMBLK
  1

  9
$DIMASO
 70
     1
  9
$DIMSHO
 70
     1
  9
$DIMPOST
  1

  9
$DIMAPOST
  1

  9
$DIMALT
 70
     0
  9
$DIMALTD
 70
     2
  9
$DIMALTF
 40
25.4
  9
$DIMLFAC
 40
1.0
  9
$DIMTOFL
 70
     0
  9
$DIMTVP
 40
0.0
  9
$DIMTIX
 70
     0
  9
$DIMSOXD
 70
     0
  9
$DIMSAH
 70
     0
  9
$DIMBLK1
  1

  9
$DIMBLK2
  1

  9
$DIMSTYLE
  2
Standard
  9
$DIMCLRD
 70
     0
  9
$DIMCLRE
 70
     0
  9
$DIMCLRT
 70
     0
  9
$DIMTFAC
 40
1.0
  9
$DIMGAP
 40
0.09
  9
$DIMJUST
 70
     0
  9
$DIMSD1
 70
     0
  9
$DIMSD2
 70
     0
  9
$DIMTOLJ
 70
     1
  9
$DIMTZIN
 70
     0
  9
$DIMALTZ
 70
     0
  9
$DIMALTTZ
 70
     0
  9
$DIMUPT
 70
     0
  9
$DIMDEC
 70
     4
  9
$DIMTDEC
 70
     4
  9
$DIMALTU
 70
     2
  9
$DIMALTTD
 70
     2
  9
$DIMTXSTY
  7
Standard
  9
$DIMAUNIT
 70
     0
  9
$DIMADEC
 70
     0
  9
$DIMALTRND
 40
0.0
  9
$DIMAZIN
 70
     0
  9
$DIMDSEP
 70
    46
  9
$DIMATFIT
 70
     3
  9
$DIMFRAC
 70
     0
  9
$DIMLDRBLK
  1

  9
$DIMLUNIT
 70
     2
  9
$DIMLWD
 70
    -2
  9
$DIMLWE
 70
    -2
  9
$DIMTMOVE
 70
     0
  9
$LUNITS
 70
     2
  9
$LUPREC
 70
     4
  9
$SKETCHINC
 40
0.1
  9
$FILLETRAD
 40
0.5
  9
$AUNITS
 70
     0
  9
$AUPREC
 70
     0
  9
$MENU
  1
.
  9
$ELEVATION
 40
0.0
  9
$PELEVATION
 40
0.0
  9
$THICKNESS
 40
0.0
  9
$LIMCHECK
 70
     0
  9
$CHAMFERA
 40
0.5
  9
$CHAMFERB
 40
0.5
  9
$CHAMFERC
 40
1.0
  9
$CHAMFERD
 40
0.0
  9
$SKPOLY
 70
     0
  9
$TDCREATE
 40
2457920.120352697
  9
$TDUCREATE
 40
2457920.32868603
  9
$TDUPDATE
 40
2457920.120352708
  9
$TDUUPDATE
 40
2457920.328686042
  9
$TDINDWG
 40
0.0000000116
  9
$TDUSRTIMER
 40
0.0000000116
  9
$USRTIMER
 70
     1
  9
$ANGBASE
 50
0.0
  9
$ANGDIR
 70
     0
  9
$PDMODE
 70
     0
  9
$PDSIZE
 40
0.0
  9
$PLINEWID
 40
0.0
  9
$SPLFRAME
 70
     0
  9
$SPLINETYPE
 70
     6
  9
$SPLINESEGS
 70
     8
  9
$HANDSEED
  5
486
  9
$SURFTAB1
 70
     6
  9
$SURFTAB2
 70
     6
  9
$SURFTYPE
 70
     6
  9
$SURFU
 70
     6
  9
$SURFV
 70
     6
  9
$UCSBASE
  2

  9
$UCSNAME
  2

  9
$UCSORG
 10
0.0
 20
0.0
 30
0.0
  9
$UCSXDIR
 10
1.0
 20
0.0
 30
0.0
  9
$UCSYDIR
 10
0.0
 20
1.0
 30
0.0
  9
$UCSORTHOREF
  2

  9
$UCSORTHOVIEW
 70
     0
  9
$UCSORGTOP
 10
0.0
 20
0.0
 30
0.0
  9
$UCSORGBOTTOM
 10
0.0
 20
0.0
 30
0.0
  9
$UCSORGLEFT
 10
0.0
 20
0.0
 30
0.0
  9
$UCSORGRIGHT
 10
0.0
 20
0.0
 30
0.0
  9
$UCSORGFRONT
 10
0.0
 20
0.0
 30
0.0
  9
$UCSORGBACK
 10
0.0
 20
0.0
 30
0.0
  9
$PUCSBASE
  2

  9
$PUCSNAME
  2

  9
$PUCSORG
 10
0.0
 20
0.0
 30
0.0
  9
$PUCSXDIR
 10
1.0
 20
0.0
 30
0.0
  9
$PUCSYDIR
 10
0.0
 20
1.0
 30
0.0
  9
$PUCSORTHOREF
  2

  9
$PUCSORTHOVIEW
 70
     0
  9
$PUCSORGTOP
 10
0.0
 20
0.0
 30
0.0
  9
$PUCSORGBOTTOM
 10
0.0
 20
0.0
 30
0.0
  9
$PUCSORGLEFT
 10
0.0
 20
0.0
 30
0.0
  9
$PUCSORGRIGHT
 10
0.0
 20
0.0
 30
0.0
  9
$PUCSORGFRONT
 10
0.0
 20
0.0
 30
0.0
  9
$PUCSORGBACK
 10
0.0
 20
0.0
 30
0.0
  9
$USERI1
 70
     0
  9
$USERI2
 70
     0
  9
$USERI3
 70
     0
  9
$USERI4
 70
     0
  9
$USERI5
 70
     0
  9
$USERR1
 40
0.0
  9
$USERR2
 40
0.0
  9
$USERR3
 40
0.0
  9
$USERR4
 40
0.0
  9
$USERR5
 40
0.0
  9
$WORLDVIEW
 70
     1
  9
$SHADEDGE
 70
     3
  9
$SHADEDIF
 70
    70
  9
$TILEMODE
 70
     1
  9
$MAXACTVP
 70
    64
  9
$PINSBASE
 10
0.0
 20
0.0
 30
0.0
  9
$PLIMCHECK
 70
     0
  9
$PEXTMIN
 10
1.000000000000000E+20
 20
1.000000000000000E+20
 30
1.000000000000000E+20
  9
$PEXTMAX
 10
-1.000000000000000E+20
 20
-1.000000000000000E+20
 30
-1.000000000000000E+20
  9
$PLIMMIN
 10
0.0
 20
0.0
  9
$PLIMMAX
 10
12.0
 20
9.0
  9
$UNITMODE
 70
     0
  9
$VISRETAIN
 70
     1
  9
$PLINEGEN
 70
     0
  9
$PSLTSCALE
 70
     1
  9
$TREEDEPTH
 70
  3020
  9
$CMLSTYLE
  2
Standard
  9
$CMLJUST
 70
     0
  9
$CMLSCALE
 40
1.0
  9
$PROXYGRAPHICS
 70
     1
  9
$MEASUREMENT
 70
     0
  9
$CELWEIGHT
370
    -1
  9
$ENDCAPS
280
     0
  9
$JOINSTYLE
280
     0
  9
$LWDISPLAY
290
     1
  9
$INSUNITS
 70
     1
  9
$HYPERLINKBASE
  1

  9
$STYLESHEET
  1

  9
$XEDIT
290
     1
  9
$CEPSNTYPE
380
     0
  9
$PSTYLEMODE
290
     1
  9
$FINGERPRINTGUID
  2
{DC4C6233-AAA2-472C-969D-94F98D5895EA}
  9
$VERSIONGUID
  2
{FAEB1C32-E019-11D5-929B-00C0DF256EC4}
  9
$EXTNAMES
290
     1
  9
$PSVPSCALE
 40
0.0
  9
$OLESTARTUP
290
     0
  9
$SORTENTS
280
   127
  9
$INDEXCTL
280
     0
  9
$HIDETEXT
280
     1
  9
$XCLIPFRAME
290
     0
  9
$HALOGAP
280
     0
  9
$OBSCOLOR
 70
   257
  9
$OBSLTYPE
280
     0
  9
$INTERSECTIONDISPLAY
280
     0
  9
$INTERSECTIONCOLOR
 70
   257
  9
$DIMASSOC
280
     2
  9
$PROJECTNAME
  1

  0
ENDSEC
  0
SECTION
  2
CLASSES
  0
CLASS
  1
ACDBDICTIONARYWDFLT
  2
AcDbDictionaryWithDefault
  3
ObjectDBX Classes
 90
        0
 91
        3
280
     0
281
     0
  0
CLASS
  1
VISUALSTYLE
  2
AcDbVisualStyle
  3
ObjectDBX Classes
 90
     4095
 91
        3
280
     0
281
     0
  0
ENDSEC
  0
SECTION
  2
TABLES
  0
TABLE
  2
VPORT
  5
8
330
0
100
AcDbSymbolTable
 70
     1
  0
VPORT
  5
29
330
8
100
AcDbSymbolTableRecord
100
AcDbViewportTableRecord
  2
*Active
 70
     0
 10
0.0
 20
0.0
 11
1.0
 21
1.0
 12
0.0
 22
0.0
 13
0.0
 23
0.0
 14
0.5
 24
0.5
 15
0.5
 25
0.5
 16
0.0
 26
0.0
 36
1.0
 17
107.9499999730125
 27
139.699999965075
 37
0.0
 40
279.39999993015
 41
0.7727272727272728
 42
50.0
 43
0.0
 44
0.0
 50
0.0
 51
0.0
 71
     0
 72
   100
 73
     1
 74
     3
 75
     0
 76
     0
 77
     0
 78
     0
281
     0
 65
     1
110
0.0
120
0.0
130
0.0
111
1.0
121
0.0
131
0.0
112
0.0
122
1.0
132
0.0
 79
     0
146
0.0
  0
ENDTAB
  0
TABLE
  2
LTYPE
  5
5
330
0
100
AcDbSymbolTable
 70
     1
  0
LTYPE
  5
14
330
5
100
AcDbSymbolTableRecord
100
AcDbLinetypeTableRecord
  2
ByBlock
 70
     0
  3

 72
    65
 73
     0
 40
0.0
  0
LTYPE
  5
15
330
5
100
AcDbSymbolTableRecord
100
AcDbLinetypeTableRecord
  2
ByLayer
 70
     0
  3

 72
    65
 73
     0
 40
0.0
  0
LTYPE
  5
16
330
5
100
AcDbSymbolTableRecord
100
AcDbLinetypeTableRecord
  2
Continuous
 70
     0
  3
Solid line
 72
    65
 73
     0
 40
0.0
  0
ENDTAB
  0
TABLE
  2
LAYER
  5
2
330
0
100
AcDbSymbolTable
 70
     1
  0
LAYER
  5
10
330
2
100
AcDbSymbolTableRecord
100
AcDbLayerTableRecord
  2
0
 70
     0
 62
     7
  6
Continuous
370
    -3
390
F
  0
ENDTAB
  0
TABLE
  2
STYLE
  5
3
330
0
100
AcDbSymbolTable
 70
     1
  0
STYLE
  5
11
330
3
100
AcDbSymbolTableRecord
100
AcDbTextStyleTableRecord
  2
Standard
 70
     0
 40
0.0
 41
1.0
 50
0.0
 71
     0
 42
0.2
  3
txt
  4

  0
ENDTAB
  0
TABLE
  2
VIEW
  5
6
330
0
100
AcDbSymbolTable
 70
     0
  0
ENDTAB
  0
TABLE
  2
UCS
  5
7
330
0
100
AcDbSymbolTable
 70
     0
  0
ENDTAB
  0
TABLE
  2
APPID
  5
9
330
0
100
AcDbSymbolTable
 70
     1
  0
APPID
  5
12
330
9
100
AcDbSymbolTableRecord
100
AcDbRegAppTableRecord
  2
ACAD
 70
     0
  0
ENDTAB
  0
TABLE
  2
DIMSTYLE
  5
A
330
0
100
AcDbSymbolTable
 70
     1
100
AcDbDimStyleTable
  0
DIMSTYLE
105
27
330
A
100
AcDbSymbolTableRecord
100
AcDbDimStyleTableRecord
  2
Standard
 70
     0
340
11
  0
ENDTAB
  0
TABLE
  2
BLOCK_RECORD
  5
1
330
0
100
AcDbSymbolTable
 70
   142
  0
BLOCK_RECORD
  5
1F
330
1
100
AcDbSymbolTableRecord
100
AcDbBlockTableRecord
  2
*Model_Space
340
22
  0
BLOCK_RECORD
  5
1B
330
1
100
AcDbSymbolTableRecord
100
AcDbBlockTableRecord
  2
*Paper_Space
340
1E
  0
BLOCK_RECORD
  5
23
330
1
100
AcDbSymbolTableRecord
100
AcDbBlockTableRecord
  2
*Paper_Space0
340
26
  0
BLOCK_RECORD
  5
3B
330
1
100
AcDbSymbolTableRecord
100
AcDbBlockTableRecord
  2
block 2
340
0
102
{BLKREFS
331
3C
102
}
  0
BLOCK_RECORD
  5
40
330
1
100
AcDbSymbolTableRecord
100
AcDbBlockTableRecord
  2
block 3
340
0
102
{BLKREFS
331
41
102
}
  0
BLOCK_RECORD
  5
45
330
1
100
AcDbSymbolTableRecord
100
AcDbBlockTableRecord
  2
block 4
340
0
102
{BLKREFS
331
46
102
}
  0
BLOCK_RECORD
  5
4A
330
1
100
AcDbSymbolTableRecord
100
AcDbBlockTableRecord
  2
block 5
340
0
102
{BLKREFS
331
4B
102
}
  0
BLOCK_RECORD
  5
4F
330
1
100
AcDbSymbolTableRecord
100
AcDbBlockTableRecord
  2
block 6
340
0
102
{BLKREFS
331
50
102
}
  0
BLOCK_RECORD
  5
57
330
1
100
AcDbSymbolTableRecord
100
AcDbBlockTableRecord
  2
block 7
340
0
102
{BLKREFS
331
58
102
}
  0
BLOCK_RECORD
  5
5F
330
1
100
AcDbSymbolTableRecord
100
AcDbBlockTableRecord
  2
block 8
340
0
102
{BLKREFS
331
60
102
}
  0
BLOCK_RECORD
  5
67
330
1
100
AcDbSymbolTableRecord
100
AcDbBlockTableRecord
  2
block 9
340
0
102
{BLKREFS
331
68
102
}
  0
BLOCK_RECORD
  5
6F
330
1
100
AcDbSymbolTableRecord
100
AcDbBlockTableRecord
  2
block 10
340
0
102
{BLKREFS
331
70
102
}
  0
BLOCK_RECORD
  5
77
330
1
100
AcDbSymbolTableRecord
100
AcDbBlockTableRecord
  2
block 11
340
0
102
{BLKREFS
331
78
102
}
  0
BLOCK_RECORD
  5
7F
330
1
100
AcDbSymbolTableRecord
100
AcDbBlockTableRecord
  2
block 12
340
0
102
{BLKREFS
331
80
102
}
  0
BLOCK_RECORD
  5
87
330
1
100
AcDbSymbolTableRecord
100
AcDbBlockTableRecord
  2
block 13
340
0
102
{BLKREFS
331
88
102
}
  0
BLOCK_RECORD
  5
8F
330
1
100
AcDbSymbolTableRecord
100
AcDbBlockTableRecord
  2
block 14
340
0
102
{BLKREFS
331
90
102
}
  0
BLOCK_RECORD
  5
97
330
1
100
AcDbSymbolTableRecord
100
AcDbBlockTableRecord
  2
block 15
340
0
102
{BLKREFS
331
98
102
}
  0
BLOCK_RECORD
  5
9F
330
1
100
AcDbSymbolTableRecord
100
AcDbBlockTableRecord
  2
block 16
340
0
102
{BLKREFS
331
A0
102
}
  0
BLOCK_RECORD
  5
A7
330
1
100
AcDbSymbolTableRecord
100
AcDbBlockTableRecord
  2
block 17
340
0
102
{BLKREFS
331
A8
102
}
  0
BLOCK_RECORD
  5
AF
330
1
100
AcDbSymbolTableRecord
100
AcDbBlockTableRecord
  2
block 18
340
0
102
{BLKREFS
331
B0
102
}
  0
BLOCK_RECORD
  5
B7
330
1
100
AcDbSymbolTableRecord
100
AcDbBlockTableRecord
  2
block 19
340
0
102
{BLKREFS
331
B8
102
}
  0
BLOCK_RECORD
  5
BF
330
1
100
AcDbSymbolTableRecord
100
AcDbBlockTableRecord
  2
block 20
340
0
102
{BLKREFS
331
C0
102
}
  0
BLOCK_RECORD
  5
C7
330
1
100
AcDbSymbolTableRecord
100
AcDbBlockTableRecord
  2
block 21
340
0
102
{BLKREFS
331
C8
102
}
  0
BLOCK_RECORD
  5
CF
330
1
100
AcDbSymbolTableRecord
100
AcDbBlockTableRecord
  2
block 22
340
0
102
{BLKREFS
331
D0
102
}
  0
BLOCK_RECORD
  5
D7
330
1
100
AcDbSymbolTableRecord
100
AcDbBlockTableRecord
  2
block 23
340
0
102
{BLKREFS
331
D8
102
}
  0
BLOCK_RECORD
  5
DF
330
1
100
AcDbSymbolTableRecord
100
AcDbBlockTableRecord
  2
block 24
340
0
102
{BLKREFS
331
E0
102
}
  0
BLOCK_RECORD
  5
E7
330
1
100
AcDbSymbolTableRecord
100
AcDbBlockTableRecord
  2
block 25
340
0
102
{BLKREFS
331
E8
102
}
  0
BLOCK_RECORD
  5
EF
330
1
100
AcDbSymbolTableRecord
100
AcDbBlockTableRecord
  2
block 26
340
0
102
{BLKREFS
331
F0
102
}
  0
BLOCK_RECORD
  5
F7
330
1
100
AcDbSymbolTableRecord
100
AcDbBlockTableRecord
  2
block 27
340
0
102
{BLKREFS
331
F8
102
}
  0
BLOCK_RECORD
  5
FF
330
1
100
AcDbSymbolTableRecord
100
AcDbBlockTableRecord
  2
block 28
340
0
102
{BLKREFS
331
100
102
}
  0
BLOCK_RECORD
  5
107
330
1
100
AcDbSymbolTableRecord
100
AcDbBlockTableRecord
  2
block 29
340
0
102
{BLKREFS
331
108
102
}
  0
BLOCK_RECORD
  5
10F
330
1
100
AcDbSymbolTableRecord
100
AcDbBlockTableRecord
  2
block 30
340
0
102
{BLKREFS
331
110
102
}
  0
BLOCK_RECORD
  5
117
330
1
100
AcDbSymbolTableRecord
100
AcDbBlockTableRecord
  2
block 31
340
0
102
{BLKREFS
331
118
102
}
  0
BLOCK_RECORD
  5
11F
330
1
100
AcDbSymbolTableRecord
100
AcDbBlockTableRecord
  2
block 32
340
0
102
{BLKREFS
331
120
102
}
  0
BLOCK_RECORD
  5
127
330
1
100
AcDbSymbolTableRecord
100
AcDbBlockTableRecord
  2
block 33
340
0
102
{BLKREFS
331
128
102
}
  0
BLOCK_RECORD
  5
12F
330
1
100
AcDbSymbolTableRecord
100
AcDbBlockTableRecord
  2
block 34
340
0
102
{BLKREFS
331
130
102
}
  0
BLOCK_RECORD
  5
137
330
1
100
AcDbSymbolTableRecord
100
AcDbBlockTableRecord
  2
block 35
340
0
102
{BLKREFS
331
138
102
}
  0
BLOCK_RECORD
  5
13F
330
1
100
AcDbSymbolTableRecord
100
AcDbBlockTableRecord
  2
block 36
340
0
102
{BLKREFS
331
140
102
}
  0
BLOCK_RECORD
  5
147
330
1
100
AcDbSymbolTableRecord
100
AcDbBlockTableRecord
  2
block 37
340
0
102
{BLKREFS
331
148
102
}
  0
BLOCK_RECORD
  5
14F
330
1
100
AcDbSymbolTableRecord
100
AcDbBlockTableRecord
  2
block 38
340
0
102
{BLKREFS
331
150
102
}
  0
BLOCK_RECORD
  5
157
330
1
100
AcDbSymbolTableRecord
100
AcDbBlockTableRecord
  2
block 39
340
0
102
{BLKREFS
331
158
102
}
  0
BLOCK_RECORD
  5
15F
330
1
100
AcDbSymbolTableRecord
100
AcDbBlockTableRecord
  2
block 40
340
0
102
{BLKREFS
331
160
102
}
  0
BLOCK_RECORD
  5
167
330
1
100
AcDbSymbolTableRecord
100
AcDbBlockTableRecord
  2
block 41
340
0
102
{BLKREFS
331
168
102
}
  0
BLOCK_RECORD
  5
16F
330
1
100
AcDbSymbolTableRecord
100
AcDbBlockTableRecord
  2
block 42
340
0
102
{BLKREFS
331
170
102
}
  0
BLOCK_RECORD
  5
177
330
1
100
AcDbSymbolTableRecord
100
AcDbBlockTableRecord
  2
block 43
340
0
102
{BLKREFS
331
178
102
}
  0
BLOCK_RECORD
  5
17F
330
1
100
AcDbSymbolTableRecord
100
AcDbBlockTableRecord
  2
block 44
340
0
102
{BLKREFS
331
180
102
}
  0
BLOCK_RECORD
  5
187
330
1
100
AcDbSymbolTableRecord
100
AcDbBlockTableRecord
  2
block 45
340
0
102
{BLKREFS
331
188
102
}
  0
BLOCK_RECORD
  5
18F
330
1
100
AcDbSymbolTableRecord
100
AcDbBlockTableRecord
  2
block 46
340
0
102
{BLKREFS
331
190
102
}
  0
BLOCK_RECORD
  5
197
330
1
100
AcDbSymbolTableRecord
100
AcDbBlockTableRecord
  2
block 47
340
0
102
{BLKREFS
331
198
102
}
  0
BLOCK_RECORD
  5
19F
330
1
100
AcDbSymbolTableRecord
100
AcDbBlockTableRecord
  2
block 48
340
0
102
{BLKREFS
331
1A0
102
}
  0
BLOCK_RECORD
  5
1A7
330
1
100
AcDbSymbolTableRecord
100
AcDbBlockTableRecord
  2
block 49
340
0
102
{BLKREFS
331
1A8
102
}
  0
BLOCK_RECORD
  5
1AF
330
1
100
AcDbSymbolTableRecord
100
AcDbBlockTableRecord
  2
block 50
340
0
102
{BLKREFS
331
1B0
102
}
  0
BLOCK_RECORD
  5
1B7
330
1
100
AcDbSymbolTableRecord
100
AcDbBlockTableRecord
  2
block 51
340
0
102
{BLKREFS
331
1B8
102
}
  0
BLOCK_RECORD
  5
1BF
330
1
100
AcDbSymbolTableRecord
100
AcDbBlockTableRecord
  2
block 52
340
0
102
{BLKREFS
331
1C0
102
}
  0
BLOCK_RECORD
  5
1C7
330
1
100
AcDbSymbolTableRecord
100
AcDbBlockTableRecord
  2
block 53
340
0
102
{BLKREFS
331
1C8
102
}
  0
BLOCK_RECORD
  5
1CF
330
1
100
AcDbSymbolTableRecord
100
AcDbBlockTableRecord
  2
block 54
340
0
102
{BLKREFS
331
1D0
102
}
  0
BLOCK_RECORD
  5
1D7
330
1
100
AcDbSymbolTableRecord
100
AcDbBlockTableRecord
  2
block 55
340
0
102
{BLKREFS
331
1D8
102
}
  0
BLOCK_RECORD
  5
1DF
330
1
100
AcDbSymbolTableRecord
100
AcDbBlockTableRecord
  2
block 56
340
0
102
{BLKREFS
331
1E0
102
}
  0
BLOCK_RECORD
  5
1E7
330
1
100
AcDbSymbolTableRecord
100
AcDbBlockTableRecord
  2
block 57
340
0
102
{BLKREFS
331
1E8
102
}
  0
BLOCK_RECORD
  5
1EF
330
1
100
AcDbSymbolTableRecord
100
AcDbBlockTableRecord
  2
block 58
340
0
102
{BLKREFS
331
1F0
102
}
  0
BLOCK_RECORD
  5
1F7
330
1
100
AcDbSymbolTableRecord
100
AcDbBlockTableRecord
  2
block 59
340
0
102
{BLKREFS
331
1F8
102
}
  0
BLOCK_RECORD
  5
1FF
330
1
100
AcDbSymbolTableRecord
100
AcDbBlockTableRecord
  2
block 60
340
0
102
{BLKREFS
331
200
102
}
  0
BLOCK_RECORD
  5
207
330
1
100
AcDbSymbolTableRecord
100
AcDbBlockTableRecord
  2
block 61
340
0
102
{BLKREFS
331
208
102
}
  0
BLOCK_RECORD
  5
20F
330
1
100
AcDbSymbolTableRecord
100
AcDbBlockTableRecord
  2
block 62
340
0
102
{BLKREFS
331
210
102
}
  0
BLOCK_RECORD
  5
217
330
1
100
AcDbSymbolTableRecord
100
AcDbBlockTableRecord
  2
block 63
340
0
102
{BLKREFS
331
218
102
}
  0
BLOCK_RECORD
  5
21F
330
1
100
AcDbSymbolTableRecord
100
AcDbBlockTableRecord
  2
block 64
340
0
102
{BLKREFS
331
220
102
}
  0
BLOCK_RECORD
  5
227
330
1
100
AcDbSymbolTableRecord
100
AcDbBlockTableRecord
  2
block 65
340
0
102
{BLKREFS
331
228
102
}
  0
BLOCK_RECORD
  5
22F
330
1
100
AcDbSymbolTableRecord
100
AcDbBlockTableRecord
  2
block 66
340
0
102
{BLKREFS
331
230
102
}
  0
BLOCK_RECORD
  5
237
330
1
100
AcDbSymbolTableRecord
100
AcDbBlockTableRecord
  2
block 67
340
0
102
{BLKREFS
331
238
102
}
  0
BLOCK_RECORD
  5
23F
330
1
100
AcDbSymbolTableRecord
100
AcDbBlockTableRecord
  2
block 68
340
0
102
{BLKREFS
331
240
102
}
  0
BLOCK_RECORD
  5
247
330
1
100
AcDbSymbolTableRecord
100
AcDbBlockTableRecord
  2
block 69
340
0
102
{BLKREFS
331
248
102
}
  0
BLOCK_RECORD
  5
24F
330
1
100
AcDbSymbolTableRecord
100
AcDbBlockTableRecord
  2
block 70
340
0
102
{BLKREFS
331
250
102
}
  0
BLOCK_RECORD
  5
257
330
1
100
AcDbSymbolTableRecord
100
AcDbBlockTableRecord
  2
block 71
340
0
102
{BLKREFS
331
258
102
}
  0
BLOCK_RECORD
  5
25F
330
1
100
AcDbSymbolTableRecord
100
AcDbBlockTableRecord
  2
block 72
340
0
102
{BLKREFS
331
260
102
}
  0
BLOCK_RECORD
  5
267
330
1
100
AcDbSymbolTableRecord
100
AcDbBlockTableRecord
  2
block 73
340
0
102
{BLKREFS
331
268
102
}
  0
BLOCK_RECORD
  5
26F
330
1
100
AcDbSymbolTableRecord
100
AcDbBlockTableRecord
  2
block 74
340
0
102
{BLKREFS
331
270
102
}
  0
BLOCK_RECORD
  5
277
330
1
100
AcDbSymbolTableRecord
100
AcDbBlockTableRecord
  2
block 75
340
0
102
{BLKREFS
331
278
102
}
  0
BLOCK_RECORD
  5
27F
330
1
100
AcDbSymbolTableRecord
100
AcDbBlockTableRecord
  2
block 76
340
0
102
{BLKREFS
331
280
102
}
  0
BLOCK_RECORD
  5
287
330
1
100
AcDbSymbolTableRecord
100
AcDbBlockTableRecord
  2
block 77
340
0
102
{BLKREFS
331
288
102
}
  0
BLOCK_RECORD
  5
28F
330
1
100
AcDbSymbolTableRecord
100
AcDbBlockTableRecord
  2
block 78
340
0
102
{BLKREFS
331
290
102
}
  0
BLOCK_RECORD
  5
297
330
1
100
AcDbSymbolTableRecord
100
AcDbBlockTableRecord
  2
block 79
340
0
102
{BLKREFS
331
298
102
}
  0
BLOCK_RECORD
  5
29F
330
1
100
AcDbSymbolTableRecord
100
AcDbBlockTableRecord
  2
block 80
340
0
102
{BLKREFS
331
2A0
102
}
  0
BLOCK_RECORD
  5
2A7
330
1
100
AcDbSymbolTableRecord
100
AcDbBlockTableRecord
  2
block 81
340
0
102
{BLKREFS
331
2A8
102
}
  0
BLOCK_RECORD
  5
2AF
330
1
100
AcDbSymbolTableRecord
100
AcDbBlockTableRecord
  2
block 82
340
0
102
{BLKREFS
331
2B0
102
}
  0
BLOCK_RECORD
  5
2B7
330
1
100
AcDbSymbolTableRecord
100
AcDbBlockTableRecord
  2
block 83
340
0
102
{BLKREFS
331
2B8
102
}
  0
BLOCK_RECORD
  5
2BF
330
1
100
AcDbSymbolTableRecord
100
AcDbBlockTableRecord
  2
block 84
340
0
102
{BLKREFS
331
2C0
102
}
  0
BLOCK_RECORD
  5
2C7
330
1
100
AcDbSymbolTableRecord
100
AcDbBlockTableRecord
  2
block 85
340
0
102
{BLKREFS
331
2C8
102
}
  0
BLOCK_RECORD
  5
2CF
330
1
100
AcDbSymbolTableRecord
100
AcDbBlockTableRecord
  2
block 86
340
0
102
{BLKREFS
331
2D0
102
}
  0
BLOCK_RECORD
  5
2D7
330
1
100
AcDbSymbolTableRecord
100
AcDbBlockTableRecord
  2
block 87
340
0
102
{BLKREFS
331
2D8
102
}
  0
BLOCK_RECORD
  5
2DF
330
1
100
AcDbSymbolTableRecord
100
AcDbBlockTableRecord
  2
block 88
340
0
102
{BLKREFS
331
2E0
102
}
  0
BLOCK_RECORD
  5
2E7
330
1
100
AcDbSymbolTableRecord
100
AcDbBlockTableRecord
  2
block 89
340
0
102
{BLKREFS
331
2E8
102
}
  0
BLOCK_RECORD
  5
2EF
330
1
100
AcDbSymbolTableRecord
100
AcDbBlockTableRecord
  2
block 90
340
0
102
{BLKREFS
331
2F0
102
}
  0
BLOCK_RECORD
  5
2F7
330
1
100
AcDbSymbolTableRecord
100
AcDbBlockTableRecord
  2
block 91
340
0
102
{BLKREFS
331
2F8
102
}
  0
BLOCK_RECORD
  5
2FF
330
1
100
AcDbSymbolTableRecord
100
AcDbBlockTableRecord
  2
block 92
340
0
102
{BLKREFS
331
300
102
}
  0
BLOCK_RECORD
  5
307
330
1
100
AcDbSymbolTableRecord
100
AcDbBlockTableRecord
  2
block 93
340
0
102
{BLKREFS
331
308
102
}
  0
BLOCK_RECORD
  5
30F
330
1
100
AcDbSymbolTableRecord
100
AcDbBlockTableRecord
  2
block 94
340
0
102
{BLKREFS
331
310
102
}
  0
BLOCK_RECORD
  5
317
330
1
100
AcDbSymbolTableRecord
100
AcDbBlockTableRecord
  2
block 95
340
0
102
{BLKREFS
331
318
102
}
  0
BLOCK_RECORD
  5
31F
330
1
100
AcDbSymbolTableRecord
100
AcDbBlockTableRecord
  2
block 96
340
0
102
{BLKREFS
331
320
102
}
  0
BLOCK_RECORD
  5
327
330
1
100
AcDbSymbolTableRecord
100
AcDbBlockTableRecord
  2
block 97
340
0
102
{BLKREFS
331
328
102
}
  0
BLOCK_RECORD
  5
32F
330
1
100
AcDbSymbolTableRecord
100
AcDbBlockTableRecord
  2
block 98
340
0
102
{BLKREFS
331
330
102
}
  0
BLOCK_RECORD
  5
337
330
1
100
AcDbSymbolTableRecord
100
AcDbBlockTableRecord
  2
block 99
340
0
102
{BLKREFS
331
338
102
}
  0
BLOCK_RECORD
  5
33F
330
1
100
AcDbSymbolTableRecord
100
AcDbBlockTableRecord
  2
block 100
340
0
102
{BLKREFS
331
340
102
}
  0
BLOCK_RECORD
  5
347
330
1
100
AcDbSymbolTableRecord
100
AcDbBlockTableRecord
  2
block 101
340
0
102
{BLKREFS
331
348
102
}
  0
BLOCK_RECORD
  5
34F
330
1
100
AcDbSymbolTableRecord
100
AcDbBlockTableRecord
  2
block 102
340
0
102
{BLKREFS
331
350
102
}
  0
BLOCK_RECORD
  5
357
330
1
100
AcDbSymbolTableRecord
100
AcDbBlockTableRecord
  2
block 103
340
0
102
{BLKREFS
331
358
102
}
  0
BLOCK_RECORD
  5
35F
330
1
100
AcDbSymbolTableRecord
100
AcDbBlockTableRecord
  2
block 104
340
0
102
{BLKREFS
331
360
102
}
  0
BLOCK_RECORD
  5
367
330
1
100
AcDbSymbolTableRecord
100
AcDbBlockTableRecord
  2
block 105
340
0
102
{BLKREFS
331
368
102
}
  0
BLOCK_RECORD
  5
36F
330
1
100
AcDbSymbolTableRecord
100
AcDbBlockTableRecord
  2
block 106
340
0
102
{BLKREFS
331
370
102
}
  0
BLOCK_RECORD
  5
377
330
1
100
AcDbSymbolTableRecord
100
AcDbBlockTableRecord
  2
block 107
340
0
102
{BLKREFS
331
378
102
}
  0
BLOCK_RECORD
  5
37F
330
1
100
AcDbSymbolTableRecord
100
AcDbBlockTableRecord
  2
block 108
340
0
102
{BLKREFS
331
380
102
}
  0
BLOCK_RECORD
  5
387
330
1
100
AcDbSymbolTableRecord
100
AcDbBlockTableRecord
  2
block 109
340
0
102
{BLKREFS
331
388
102
}
  0
BLOCK_RECORD
  5
38F
330
1
100
AcDbSymbolTableRecord
100
AcDbBlockTableRecord
  2
block 110
340
0
102
{BLKREFS
331
390
102
}
  0
BLOCK_RECORD
  5
397
330
1
100
AcDbSymbolTableRecord
100
AcDbBlockTableRecord
  2
block 111
340
0
102
{BLKREFS
331
398
102
}
  0
BLOCK_RECORD
  5
39F
330
1
100
AcDbSymbolTableRecord
100
AcDbBlockTableRecord
  2
block 112
340
0
102
{BLKREFS
331
3A0
102
}
  0
BLOCK_RECORD
  5
3A7
330
1
100
AcDbSymbolTableRecord
100
AcDbBlockTableRecord
  2
block 113
340
0
102
{BLKREFS
331
3A8
102
}
  0
BLOCK_RECORD
  5
3AF
330
1
100
AcDbSymbolTableRecord
100
AcDbBlockTableRecord
  2
block 114
340
0
102
{BLKREFS
331
3B0
102
}
  0
BLOCK_RECORD
  5
3B7
330
1
100
AcDbSymbolTableRecord
100
AcDbBlockTableRecord
  2
block 115
340
0
102
{BLKREFS
331
3B8
102
}
  0
BLOCK_RECORD
  5
3BF
330
1
100
AcDbSymbolTableRecord
100
AcDbBlockTableRecord
  2
block 116
340
0
102
{BLKREFS
331
3C0
102
}
  0
BLOCK_RECORD
  5
3C7
330
1
100
AcDbSymbolTableRecord
100
AcDbBlockTableRecord
  2
block 117
340
0
102
{BLKREFS
331
3C8
102
}
  0
BLOCK_RECORD
  5
3CF
330
1
100
AcDbSymbolTableRecord
100
AcDbBlockTableRecord
  2
block 118
340
0
102
{BLKREFS
331
3D0
102
}
  0
BLOCK_RECORD
  5
3D7
330
1
100
AcDbSymbolTableRecord
100
AcDbBlockTableRecord
  2
block 119
340
0
102
{BLKREFS
331
3D8
102
}
  0
BLOCK_RECORD
  5
3DF
330
1
100
AcDbSymbolTableRecord
100
AcDbBlockTableRecord
  2
block 120
340
0
102
{BLKREFS
331
3E0
102
}
  0
BLOCK_RECORD
  5
3E7
330
1
100
AcDbSymbolTableRecord
100
AcDbBlockTableRecord
  2
block 121
340
0
102
{BLKREFS
331
3E8
102
}
  0
BLOCK_RECORD
  5
3EF
330
1
100
AcDbSymbolTableRecord
100
AcDbBlockTableRecord
  2
block 122
340
0
102
{BLKREFS
331
3F0
102
}
  0
BLOCK_RECORD
  5
3F7
330
1
100
AcDbSymbolTableRecord
100
AcDbBlockTableRecord
  2
block 123
340
0
102
{BLKREFS
331
3F8
102
}
  0
BLOCK_RECORD
  5
3FF
330
1
100
AcDbSymbolTableRecord
100
AcDbBlockTableRecord
  2
block 124
340
0
102
{BLKREFS
331
400
102
}
  0
BLOCK_RECORD
  5
407
330
1
100
AcDbSymbolTableRecord
100
AcDbBlockTableRecord
  2
block 125
340
0
102
{BLKREFS
331
408
102
}
  0
BLOCK_RECORD
  5
40F
330
1
100
AcDbSymbolTableRecord
100
AcDbBlockTableRecord
  2
block 126
340
0
102
{BLKREFS
331
410
102
}
  0
BLOCK_RECORD
  5
417
330
1
100
AcDbSymbolTableRecord
100
AcDbBlockTableRecord
  2
block 127
340
0
102
{BLKREFS
331
418
102
}
  0
BLOCK_RECORD
  5
41F
330
1
100
AcDbSymbolTableRecord
100
AcDbBlockTableRecord
  2
block 128
340
0
102
{BLKREFS
331
420
102
}
  0
BLOCK_RECORD
  5
427
330
1
100
AcDbSymbolTableRecord
100
AcDbBlockTableRecord
  2
block 129
340
0
102
{BLKREFS
331
428
102
}
  0
BLOCK_RECORD
  5
42F
330
1
100
AcDbSymbolTableRecord
100
AcDbBlockTableRecord
  2
block 130
340
0
102
{BLKREFS
331
430
102
}
  0
BLOCK_RECORD
  5
437
330
1
100
AcDbSymbolTableRecord
100
AcDbBlockTableRecord
  2
block 131
340
0
102
{BLKREFS
331
438
102
}
  0
BLOCK_RECORD
  5
43F
330
1
100
AcDbSymbolTableRecord
100
AcDbBlockTableRecord
  2
block 132
340
0
102
{BLKREFS
331
440
102
}
  0
BLOCK_RECORD
  5
447
330
1
100
AcDbSymbolTableRecord
100
AcDbBlockTableRecord
  2
block 133
340
0
102
{BLKREFS
331
448
102
}
  0
BLOCK_RECORD
  5
44F
330
1
100
AcDbSymbolTableRecord
100
AcDbBlockTableRecord
  2
block 134
340
0
102
{BLKREFS
331
450
102
}
  0
BLOCK_RECORD
  5
457
330
1
100
AcDbSymbolTableRecord
100
AcDbBlockTableRecord
  2
block 135
340
0
102
{BLKREFS
331
458
102
}
  0
BLOCK_RECORD
  5
45F
330
1
100
AcDbSymbolTableRecord
100
AcDbBlockTableRecord
  2
block 136
340
0
102
{BLKREFS
331
460
102
}
  0
BLOCK_RECORD
  5
467
330
1
100
AcDbSymbolTableRecord
100
AcDbBlockTableRecord
  2
block 137
340
0
102
{BLKREFS
331
468
102
}
  0
BLOCK_RECORD
  5
46C
330
1
100
AcDbSymbolTableRecord
100
AcDbBlockTableRecord
  2
block 138
340
0
102
{BLKREFS
331
46D
102
}
  0
BLOCK_RECORD
  5
471
330
1
100
AcDbSymbolTableRecord
100
AcDbBlockTableRecord
  2
block 139
340
0
102
{BLKREFS
331
472
102
}
  0
BLOCK_RECORD
  5
476
330
1
100
AcDbSymbolTableRecord
100
AcDbBlockTableRecord
  2
block 140
340
0
102
{BLKREFS
331
477
102
}
  0
BLOCK_RECORD
  5
47B
330
1
100
AcDbSymbolTableRecord
100
AcDbBlockTableRecord
  2
block 141
340
0
102
{BLKREFS
331
47C
102
}
  0
BLOCK_RECORD
  5
480
330
1
100
AcDbSymbolTableRecord
100
AcDbBlockTableRecord
  2
block 142
340
0
102
{BLKREFS
331
481
102
}
  0
ENDTAB
  0
ENDSEC
  0
SECTION
  2
BLOCKS
  0
BLOCK
  5
20
330
1F
100
AcDbEntity
  8
0
100
AcDbBlockBegin
  2
*Model_Space
 70
     0
 71
     0
 10
0.0
 20
0.0
 30
0.0
  3
*Model_Space
  1

  0
ENDBLK
  5
21
330
1F
100
AcDbEntity
  8
0
100
AcDbBlockEnd
  0
BLOCK
  5
1C
330
1B
100
AcDbEntity
 67
     1
  8
0
100
AcDbBlockBegin
  2
*Paper_Space
 70
     0
 71
     0
 10
0.0
 20
0.0
 30
0.0
  3
*Paper_Space
  1

  0
ENDBLK
  5
1D
330
1B
100
AcDbEntity
 67
     1
  8
0
100
AcDbBlockEnd
  0
BLOCK
  5
24
330
23
100
AcDbEntity
  8
0
100
AcDbBlockBegin
  2
*Paper_Space0
 70
     0
 71
     0
 10
0.0
 20
0.0
 30
0.0
  3
*Paper_Space0
  1

  0
ENDBLK
  5
25
330
23
100
AcDbEntity
  8
0
100
AcDbBlockEnd
  0
BLOCK
  5
3D
330
3B
100
AcDbEntity
  8
0
100
AcDbBlockBegin
  2
block 2
 70
     0
 71
     0
 10
0.0
 20
0.0
 30
0.0
  3
block 2
  1

  0
SPLINE
  5
3F
330
3B
100
AcDbEntity
  8
0
 62
     7
420
 16777215
370
    25
100
AcDbSpline
210
0.0
220
0.0
230
1.0
 70
    11
 71
     3
 72
    23
 73
    19
 74
     0
 42
0.0000000001
 43
0.0000000001
 40
0.0
 40
0.0
 40
0.0
 40
0.0
 40
1.0
 40
1.0
 40
1.0
 40
2.0
 40
2.0
 40
2.0
 40
3.0
 40
3.0
 40
3.0
 40
4.0
 40
4.0
 40
4.0
 40
5.0
 40
5.0
 40
5.0
 40
6.0
 40
6.0
 40
6.0
 40
6.0
 10
58.45000676707153
 20
196.2123127764678
 30
0.0
 10
58.45000676707153
 20
197.3169826438131
 30
0.0
 10
59.34538708368796
 20
198.2123629604295
 30
0.0
 10
60.45005695103332
 20
198.2123629604295
 30
0.0
 10
61.55455456360442
 20
198.2123629604295
 30
0.0
 10
62.44993488022085
 20
197.3169826438131
 30
0.0
 10
62.44993488022085
 20
196.2123127764678
 30
0.0
 10
62.44993488022085
 20
196.2123127764678
 30
0.0
 10
62.44993488022085
 20
188.2124565501691
 30
0.0
 10
62.44993488022085
 20
188.2124565501691
 30
0.0
 10
62.44993488022085
 20
187.1077866828238
 30
0.0
 10
61.55455456360442
 20
186.2124063662073
 30
0.0
 10
60.45005695103332
 20
186.2124063662073
 30
0.0
 10
59.34538708368796
 20
186.2124063662073
 30
0.0
 10
58.45000676707153
 20
187.1077866828238
 30
0.0
 10
58.45000676707153
 20
188.2124565501691
 30
0.0
 10
58.45000676707153
 20
188.2124565501691
 30
0.0
 10
58.45000676707153
 20
196.2123127764678
 30
0.0
 10
58.45000676707153
 20
196.2123127764678
 30
0.0
  0
ENDBLK
  5
3E
330
3B
100
AcDbEntity
  8
0
100
AcDbBlockEnd
  0
BLOCK
  5
42
330
40
100
AcDbEntity
  8
0
100
AcDbBlockBegin
  2
block 3
 70
     0
 71
     0
 10
0.0
 20
0.0
 30
0.0
  3
block 3
  1

  0
SPLINE
  5
44
330
40
100
AcDbEntity
  8
0
 62
     7
420
 16777215
370
    25
100
AcDbSpline
210
0.0
220
0.0
230
1.0
 70
    11
 71
     3
 72
    23
 73
    19
 74
     0
 42
0.0000000001
 43
0.0000000001
 40
0.0
 40
0.0
 40
0.0
 40
0.0
 40
1.0
 40
1.0
 40
1.0
 40
2.0
 40
2.0
 40
2.0
 40
3.0
 40
3.0
 40
3.0
 40
4.0
 40
4.0
 40
4.0
 40
5.0
 40
5.0
 40
5.0
 40
6.0
 40
6.0
 40
6.0
 40
6.0
 10
153.4500650658042
 20
196.2123127764678
 30
0.0
 10
153.4500650658042
 20
197.3169826438131
 30
0.0
 10
154.3454453824206
 20
198.2123629604295
 30
0.0
 10
155.4499429949917
 20
198.2123629604295
 30
0.0
 10
156.5544406075628
 20
198.2123629604295
 30
0.0
 10
157.4501654337277
 20
197.3169826438131
 30
0.0
 10
157.4501654337277
 20
196.2123127764678
 30
0.0
 10
157.4501654337277
 20
196.2123127764678
 30
0.0
 10
157.4501654337277
 20
188.2124565501691
 30
0.0
 10
157.4501654337277
 20
188.2124565501691
 30
0.0
 10
157.4501654337277
 20
187.1077866828238
 30
0.0
 10
156.5544406075628
 20
186.2124063662073
 30
0.0
 10
155.4499429949917
 20
186.2124063662073
 30
0.0
 10
154.3454453824206
 20
186.2124063662073
 30
0.0
 10
153.4500650658042
 20
187.1077866828238
 30
0.0
 10
153.4500650658042
 20
188.2124565501691
 30
0.0
 10
153.4500650658042
 20
188.2124565501691
 30
0.0
 10
153.4500650658042
 20
196.2123127764678
 30
0.0
 10
153.4500650658042
 20
196.2123127764678
 30
0.0
  0
ENDBLK
  5
43
330
40
100
AcDbEntity
  8
0
100
AcDbBlockEnd
  0
BLOCK
  5
47
330
45
100
AcDbEntity
  8
0
100
AcDbBlockBegin
  2
block 4
 70
     0
 71
     0
 10
0.0
 20
0.0
 30
0.0
  3
block 4
  1

  0
SPLINE
  5
49
330
45
100
AcDbEntity
  8
0
 62
     7
420
 16777215
370
    25
100
AcDbSpline
210
0.0
220
0.0
230
1.0
 70
    11
 71
     3
 72
    23
 73
    19
 74
     0
 42
0.0000000001
 43
0.0000000001
 40
0.0
 40
0.0
 40
0.0
 40
0.0
 40
1.0
 40
1.0
 40
1.0
 40
2.0
 40
2.0
 40
2.0
 40
3.0
 40
3.0
 40
3.0
 40
4.0
 40
4.0
 40
4.0
 40
5.0
 40
5.0
 40
5.0
 40
6.0
 40
6.0
 40
6.0
 40
6.0
 10
62.44993488022085
 20
93.21222599666223
 30
0.0
 10
62.44993488022085
 20
92.10772838409113
 30
0.0
 10
61.55455456360442
 20
91.2123480674747
 30
0.0
 10
60.45005695103332
 20
91.2123480674747
 30
0.0
 10
59.34538708368796
 20
91.2123480674747
 30
0.0
 10
58.45000676707153
 20
92.10772838409113
 30
0.0
 10
58.45000676707153
 20
93.21222599666223
 30
0.0
 10
58.45000676707153
 20
93.21222599666223
 30
0.0
 10
58.45000676707153
 20
101.2124267325094
 30
0.0
 10
58.45000676707153
 20
101.2124267325094
 30
0.0
 10
58.45000676707153
 20
102.3169243450805
 30
0.0
 10
59.34538708368796
 20
103.2123046616969
 30
0.0
 10
60.45005695103332
 20
103.2123046616969
 30
0.0
 10
61.55455456360442
 20
103.2123046616969
 30
0.0
 10
62.44993488022085
 20
102.3169243450805
 30
0.0
 10
62.44993488022085
 20
101.2124267325094
 30
0.0
 10
62.44993488022085
 20
101.2124267325094
 30
0.0
 10
62.44993488022085
 20
93.21222599666223
 30
0.0
 10
62.44993488022085
 20
93.21222599666223
 30
0.0
  0
ENDBLK
  5
48
330
45
100
AcDbEntity
  8
0
100
AcDbBlockEnd
  0
BLOCK
  5
4C
330
4A
100
AcDbEntity
  8
0
100
AcDbBlockBegin
  2
block 5
 70
     0
 71
     0
 10
0.0
 20
0.0
 30
0.0
  3
block 5
  1

  0
SPLINE
  5
4E
330
4A
100
AcDbEntity
  8
0
 62
     7
420
 16777215
370
    25
100
AcDbSpline
210
0.0
220
0.0
230
1.0
 70
    11
 71
     3
 72
    23
 73
    19
 74
     0
 42
0.0000000001
 43
0.0000000001
 40
0.0
 40
0.0
 40
0.0
 40
0.0
 40
1.0
 40
1.0
 40
1.0
 40
2.0
 40
2.0
 40
2.0
 40
3.0
 40
3.0
 40
3.0
 40
4.0
 40
4.0
 40
4.0
 40
5.0
 40
5.0
 40
5.0
 40
6.0
 40
6.0
 40
6.0
 40
6.0
 10
153.4500650658042
 20
101.2124267325094
 30
0.0
 10
153.4500650658042
 20
102.3169243450805
 30
0.0
 10
154.3454453824206
 20
103.2123046616969
 30
0.0
 10
155.4499429949917
 20
103.2123046616969
 30
0.0
 10
156.5544406075628
 20
103.2123046616969
 30
0.0
 10
157.4501654337277
 20
102.3169243450805
 30
0.0
 10
157.4501654337277
 20
101.2124267325094
 30
0.0
 10
157.4501654337277
 20
101.2124267325094
 30
0.0
 10
157.4501654337277
 20
93.21222599666223
 30
0.0
 10
157.4501654337277
 20
93.21222599666223
 30
0.0
 10
157.4501654337277
 20
92.10772838409113
 30
0.0
 10
156.5544406075628
 20
91.2123480674747
 30
0.0
 10
155.4499429949917
 20
91.2123480674747
 30
0.0
 10
154.3454453824206
 20
91.2123480674747
 30
0.0
 10
153.4500650658042
 20
92.10772838409113
 30
0.0
 10
153.4500650658042
 20
93.21222599666223
 30
0.0
 10
153.4500650658042
 20
93.21222599666223
 30
0.0
 10
153.4500650658042
 20
101.2124267325094
 30
0.0
 10
153.4500650658042
 20
101.2124267325094
 30
0.0
  0
ENDBLK
  5
4D
330
4A
100
AcDbEntity
  8
0
100
AcDbBlockEnd
  0
BLOCK
  5
51
330
4F
100
AcDbEntity
  8
0
100
AcDbBlockBegin
  2
block 6
 70
     0
 71
     0
 10
0.0
 20
0.0
 30
0.0
  3
block 6
  1

  0
POLYLINE
  5
53
330
4F
100
AcDbEntity
  8
0
 62
     7
420
 16777215
370
    25
100
AcDb2dPolyline
 66
     1
 10
0.0
 20
0.0
 30
0.0
  0
VERTEX
  5
54
330
53
100
AcDbEntity
  8
0
 62
     7
420
 16777215
370
    25
100
AcDbVertex
100
AcDb2dVertex
 10
53.95002304423819
 20
214.099937554982
 30
0.0
  0
VERTEX
  5
55
330
53
100
AcDbEntity
  8
0
 62
     7
420
 16777215
370
    25
100
AcDbVertex
100
AcDb2dVertex
 10
53.95002304423819
 20
219.6999402662556
 30
0.0
  0
SEQEND
  5
56
330
53
100
AcDbEntity
  8
0
370
    25
  0
ENDBLK
  5
52
330
4F
100
AcDbEntity
  8
0
100
AcDbBlockEnd
  0
BLOCK
  5
59
330
57
100
AcDbEntity
  8
0
100
AcDbBlockBegin
  2
block 7
 70
     0
 71
     0
 10
0.0
 20
0.0
 30
0.0
  3
block 7
  1

  0
POLYLINE
  5
5B
330
57
100
AcDbEntity
  8
0
 62
     7
420
 16777215
370
    25
100
AcDb2dPolyline
 66
     1
 10
0.0
 20
0.0
 30
0.0
  0
VERTEX
  5
5C
330
5B
100
AcDbEntity
  8
0
 62
     7
420
 16777215
370
    25
100
AcDbVertex
100
AcDb2dVertex
 10
53.95002304423819
 20
219.6999402662556
 30
0.0
  0
VERTEX
  5
5D
330
5B
100
AcDbEntity
  8
0
 62
     7
420
 16777215
370
    25
100
AcDbVertex
100
AcDb2dVertex
 10
41.95006645001596
 20
219.6999402662556
 30
0.0
  0
SEQEND
  5
5E
330
5B
100
AcDbEntity
  8
0
370
    25
  0
ENDBLK
  5
5A
330
57
100
AcDbEntity
  8
0
100
AcDbBlockEnd
  0
BLOCK
  5
61
330
5F
100
AcDbEntity
  8
0
100
AcDbBlockBegin
  2
block 8
 70
     0
 71
     0
 10
0.0
 20
0.0
 30
0.0
  3
block 8
  1

  0
POLYLINE
  5
63
330
5F
100
AcDbEntity
  8
0
 62
     7
420
 16777215
370
    25
100
AcDb2dPolyline
 66
     1
 10
0.0
 20
0.0
 30
0.0
  0
VERTEX
  5
64
330
63
100
AcDbEntity
  8
0
 62
     7
420
 16777215
370
    25
100
AcDbVertex
100
AcDb2dVertex
 10
41.95006645001596
 20
219.6999402662556
 30
0.0
  0
VERTEX
  5
65
330
63
100
AcDbEntity
  8
0
 62
     7
420
 16777215
370
    25
100
AcDbVertex
100
AcDb2dVertex
 10
41.95006645001596
 20
214.099937554982
 30
0.0
  0
SEQEND
  5
66
330
63
100
AcDbEntity
  8
0
370
    25
  0
ENDBLK
  5
62
330
5F
100
AcDbEntity
  8
0
100
AcDbBlockEnd
  0
BLOCK
  5
69
330
67
100
AcDbEntity
  8
0
100
AcDbBlockBegin
  2
block 9
 70
     0
 71
     0
 10
0.0
 20
0.0
 30
0.0
  3
block 9
  1

  0
POLYLINE
  5
6B
330
67
100
AcDbEntity
  8
0
 62
     7
420
 16777215
370
    25
100
AcDb2dPolyline
 66
     1
 10
0.0
 20
0.0
 30
0.0
  0
VERTEX
  5
6C
330
6B
100
AcDbEntity
  8
0
 62
     7
420
 16777215
370
    25
100
AcDbVertex
100
AcDb2dVertex
 10
41.95006645001596
 20
214.099937554982
 30
0.0
  0
VERTEX
  5
6D
330
6B
100
AcDbEntity
  8
0
 62
     7
420
 16777215
370
    25
100
AcDbVertex
100
AcDb2dVertex
 10
35.94991589813058
 20
214.099937554982
 30
0.0
  0
SEQEND
  5
6E
330
6B
100
AcDbEntity
  8
0
370
    25
  0
ENDBLK
  5
6A
330
67
100
AcDbEntity
  8
0
100
AcDbBlockEnd
  0
BLOCK
  5
71
330
6F
100
AcDbEntity
  8
0
100
AcDbBlockBegin
  2
block 10
 70
     0
 71
     0
 10
0.0
 20
0.0
 30
0.0
  3
block 10
  1

  0
POLYLINE
  5
73
330
6F
100
AcDbEntity
  8
0
 62
     7
420
 16777215
370
    25
100
AcDb2dPolyline
 66
     1
 10
0.0
 20
0.0
 30
0.0
  0
VERTEX
  5
74
330
73
100
AcDbEntity
  8
0
 62
     7
420
 16777215
370
    25
100
AcDbVertex
100
AcDb2dVertex
 10
35.94991589813058
 20
214.099937554982
 30
0.0
  0
VERTEX
  5
75
330
73
100
AcDbEntity
  8
0
 62
     7
420
 16777215
370
    25
100
AcDbVertex
100
AcDb2dVertex
 10
35.34995251937432
 20
214.099937554982
 30
0.0
  0
SEQEND
  5
76
330
73
100
AcDbEntity
  8
0
370
    25
  0
ENDBLK
  5
72
330
6F
100
AcDbEntity
  8
0
100
AcDbBlockEnd
  0
BLOCK
  5
79
330
77
100
AcDbEntity
  8
0
100
AcDbBlockBegin
  2
block 11
 70
     0
 71
     0
 10
0.0
 20
0.0
 30
0.0
  3
block 11
  1

  0
POLYLINE
  5
7B
330
77
100
AcDbEntity
  8
0
 62
     7
420
 16777215
370
    25
100
AcDb2dPolyline
 66
     1
 10
0.0
 20
0.0
 30
0.0
  0
VERTEX
  5
7C
330
7B
100
AcDbEntity
  8
0
 62
     7
420
 16777215
370
    25
100
AcDbVertex
100
AcDb2dVertex
 10
35.34995251937432
 20
214.099937554982
 30
0.0
  0
VERTEX
  5
7D
330
7B
100
AcDbEntity
  8
0
 62
     7
420
 16777215
370
    25
100
AcDbVertex
100
AcDb2dVertex
 10
35.34995251937432
 20
207.6999836720333
 30
0.0
  0
SEQEND
  5
7E
330
7B
100
AcDbEntity
  8
0
370
    25
  0
ENDBLK
  5
7A
330
77
100
AcDbEntity
  8
0
100
AcDbBlockEnd
  0
BLOCK
  5
81
330
7F
100
AcDbEntity
  8
0
100
AcDbBlockBegin
  2
block 12
 70
     0
 71
     0
 10
0.0
 20
0.0
 30
0.0
  3
block 12
  1

  0
POLYLINE
  5
83
330
7F
100
AcDbEntity
  8
0
 62
     7
420
 16777215
370
    25
100
AcDb2dPolyline
 66
     1
 10
0.0
 20
0.0
 30
0.0
  0
VERTEX
  5
84
330
83
100
AcDbEntity
  8
0
 62
     7
420
 16777215
370
    25
100
AcDbVertex
100
AcDb2dVertex
 10
35.34995251937432
 20
207.6999836720333
 30
0.0
  0
VERTEX
  5
85
330
83
100
AcDbEntity
  8
0
 62
     7
420
 16777215
370
    25
100
AcDbVertex
100
AcDb2dVertex
 10
29.74994980810071
 20
207.6999836720333
 30
0.0
  0
SEQEND
  5
86
330
83
100
AcDbEntity
  8
0
370
    25
  0
ENDBLK
  5
82
330
7F
100
AcDbEntity
  8
0
100
AcDbBlockEnd
  0
BLOCK
  5
89
330
87
100
AcDbEntity
  8
0
100
AcDbBlockBegin
  2
block 13
 70
     0
 71
     0
 10
0.0
 20
0.0
 30
0.0
  3
block 13
  1

  0
POLYLINE
  5
8B
330
87
100
AcDbEntity
  8
0
 62
     7
420
 16777215
370
    25
100
AcDb2dPolyline
 66
     1
 10
0.0
 20
0.0
 30
0.0
  0
VERTEX
  5
8C
330
8B
100
AcDbEntity
  8
0
 62
     7
420
 16777215
370
    25
100
AcDbVertex
100
AcDb2dVertex
 10
29.74994980810071
 20
207.6999836720333
 30
0.0
  0
VERTEX
  5
8D
330
8B
100
AcDbEntity
  8
0
 62
     7
420
 16777215
370
    25
100
AcDbVertex
100
AcDb2dVertex
 10
29.74994980810071
 20
195.7000270778111
 30
0.0
  0
SEQEND
  5
8E
330
8B
100
AcDbEntity
  8
0
370
    25
  0
ENDBLK
  5
8A
330
87
100
AcDbEntity
  8
0
100
AcDbBlockEnd
  0
BLOCK
  5
91
330
8F
100
AcDbEntity
  8
0
100
AcDbBlockBegin
  2
block 14
 70
     0
 71
     0
 10
0.0
 20
0.0
 30
0.0
  3
block 14
  1

  0
POLYLINE
  5
93
330
8F
100
AcDbEntity
  8
0
 62
     7
420
 16777215
370
    25
100
AcDb2dPolyline
 66
     1
 10
0.0
 20
0.0
 30
0.0
  0
VERTEX
  5
94
330
93
100
AcDbEntity
  8
0
 62
     7
420
 16777215
370
    25
100
AcDbVertex
100
AcDb2dVertex
 10
29.74994980810071
 20
195.7000270778111
 30
0.0
  0
VERTEX
  5
95
330
93
100
AcDbEntity
  8
0
 62
     7
420
 16777215
370
    25
100
AcDbVertex
100
AcDb2dVertex
 10
35.34995251937432
 20
195.7000270778111
 30
0.0
  0
SEQEND
  5
96
330
93
100
AcDbEntity
  8
0
370
    25
  0
ENDBLK
  5
92
330
8F
100
AcDbEntity
  8
0
100
AcDbBlockEnd
  0
BLOCK
  5
99
330
97
100
AcDbEntity
  8
0
100
AcDbBlockBegin
  2
block 15
 70
     0
 71
     0
 10
0.0
 20
0.0
 30
0.0
  3
block 15
  1

  0
POLYLINE
  5
9B
330
97
100
AcDbEntity
  8
0
 62
     7
420
 16777215
370
    25
100
AcDb2dPolyline
 66
     1
 10
0.0
 20
0.0
 30
0.0
  0
VERTEX
  5
9C
330
9B
100
AcDbEntity
  8
0
 62
     7
420
 16777215
370
    25
100
AcDbVertex
100
AcDb2dVertex
 10
35.34995251937432
 20
195.7000270778111
 30
0.0
  0
VERTEX
  5
9D
330
9B
100
AcDbEntity
  8
0
 62
     7
420
 16777215
370
    25
100
AcDbVertex
100
AcDb2dVertex
 10
35.34995251937432
 20
191.29995112405
 30
0.0
  0
SEQEND
  5
9E
330
9B
100
AcDbEntity
  8
0
370
    25
  0
ENDBLK
  5
9A
330
97
100
AcDbEntity
  8
0
100
AcDbBlockEnd
  0
BLOCK
  5
A1
330
9F
100
AcDbEntity
  8
0
100
AcDbBlockBegin
  2
block 16
 70
     0
 71
     0
 10
0.0
 20
0.0
 30
0.0
  3
block 16
  1

  0
POLYLINE
  5
A3
330
9F
100
AcDbEntity
  8
0
 62
     7
420
 16777215
370
    25
100
AcDb2dPolyline
 66
     1
 10
0.0
 20
0.0
 30
0.0
  0
VERTEX
  5
A4
330
A3
100
AcDbEntity
  8
0
 62
     7
420
 16777215
370
    25
100
AcDbVertex
100
AcDb2dVertex
 10
35.34995251937432
 20
191.29995112405
 30
0.0
  0
VERTEX
  5
A5
330
A3
100
AcDbEntity
  8
0
 62
     7
420
 16777215
370
    25
100
AcDbVertex
100
AcDb2dVertex
 10
39.70007458859929
 20
191.29995112405
 30
0.0
  0
SEQEND
  5
A6
330
A3
100
AcDbEntity
  8
0
370
    25
  0
ENDBLK
  5
A2
330
9F
100
AcDbEntity
  8
0
100
AcDbBlockEnd
  0
BLOCK
  5
A9
330
A7
100
AcDbEntity
  8
0
100
AcDbBlockBegin
  2
block 17
 70
     0
 71
     0
 10
0.0
 20
0.0
 30
0.0
  3
block 17
  1

  0
POLYLINE
  5
AB
330
A7
100
AcDbEntity
  8
0
 62
     7
420
 16777215
370
    25
100
AcDb2dPolyline
 66
     1
 10
0.0
 20
0.0
 30
0.0
  0
VERTEX
  5
AC
330
AB
100
AcDbEntity
  8
0
 62
     7
420
 16777215
370
    25
100
AcDbVertex
100
AcDb2dVertex
 10
39.70007458859929
 20
191.29995112405
 30
0.0
  0
VERTEX
  5
AD
330
AB
100
AcDbEntity
  8
0
 62
     7
420
 16777215
370
    25
100
AcDbVertex
100
AcDb2dVertex
 10
39.70007458859929
 20
192.599957905409
 30
0.0
  0
SEQEND
  5
AE
330
AB
100
AcDbEntity
  8
0
370
    25
  0
ENDBLK
  5
AA
330
A7
100
AcDbEntity
  8
0
100
AcDbBlockEnd
  0
BLOCK
  5
B1
330
AF
100
AcDbEntity
  8
0
100
AcDbBlockBegin
  2
block 18
 70
     0
 71
     0
 10
0.0
 20
0.0
 30
0.0
  3
block 18
  1

  0
POLYLINE
  5
B3
330
AF
100
AcDbEntity
  8
0
 62
     7
420
 16777215
370
    25
100
AcDb2dPolyline
 66
     1
 10
0.0
 20
0.0
 30
0.0
  0
VERTEX
  5
B4
330
B3
100
AcDbEntity
  8
0
 62
     7
420
 16777215
370
    25
100
AcDbVertex
100
AcDb2dVertex
 10
39.70007458859929
 20
192.599957905409
 30
0.0
  0
VERTEX
  5
B5
330
B3
100
AcDbEntity
  8
0
 62
     7
420
 16777215
370
    25
100
AcDbVertex
100
AcDb2dVertex
 10
42.70006373715485
 20
192.599957905409
 30
0.0
  0
SEQEND
  5
B6
330
B3
100
AcDbEntity
  8
0
370
    25
  0
ENDBLK
  5
B2
330
AF
100
AcDbEntity
  8
0
100
AcDbBlockEnd
  0
BLOCK
  5
B9
330
B7
100
AcDbEntity
  8
0
100
AcDbBlockBegin
  2
block 19
 70
     0
 71
     0
 10
0.0
 20
0.0
 30
0.0
  3
block 19
  1

  0
POLYLINE
  5
BB
330
B7
100
AcDbEntity
  8
0
 62
     7
420
 16777215
370
    25
100
AcDb2dPolyline
 66
     1
 10
0.0
 20
0.0
 30
0.0
  0
VERTEX
  5
BC
330
BB
100
AcDbEntity
  8
0
 62
     7
420
 16777215
370
    25
100
AcDbVertex
100
AcDb2dVertex
 10
42.70006373715485
 20
192.599957905409
 30
0.0
  0
VERTEX
  5
BD
330
BB
100
AcDbEntity
  8
0
 62
     7
420
 16777215
370
    25
100
AcDbVertex
100
AcDb2dVertex
 10
42.70006373715485
 20
191.29995112405
 30
0.0
  0
SEQEND
  5
BE
330
BB
100
AcDbEntity
  8
0
370
    25
  0
ENDBLK
  5
BA
330
B7
100
AcDbEntity
  8
0
100
AcDbBlockEnd
  0
BLOCK
  5
C1
330
BF
100
AcDbEntity
  8
0
100
AcDbBlockBegin
  2
block 20
 70
     0
 71
     0
 10
0.0
 20
0.0
 30
0.0
  3
block 20
  1

  0
POLYLINE
  5
C3
330
BF
100
AcDbEntity
  8
0
 62
     7
420
 16777215
370
    25
100
AcDb2dPolyline
 66
     1
 10
0.0
 20
0.0
 30
0.0
  0
VERTEX
  5
C4
330
C3
100
AcDbEntity
  8
0
 62
     7
420
 16777215
370
    25
100
AcDbVertex
100
AcDb2dVertex
 10
42.70006373715485
 20
191.29995112405
 30
0.0
  0
VERTEX
  5
C5
330
C3
100
AcDbEntity
  8
0
 62
     7
420
 16777215
370
    25
100
AcDbVertex
100
AcDb2dVertex
 10
45.70005288571041
 20
191.29995112405
 30
0.0
  0
SEQEND
  5
C6
330
C3
100
AcDbEntity
  8
0
370
    25
  0
ENDBLK
  5
C2
330
BF
100
AcDbEntity
  8
0
100
AcDbBlockEnd
  0
BLOCK
  5
C9
330
C7
100
AcDbEntity
  8
0
100
AcDbBlockBegin
  2
block 21
 70
     0
 71
     0
 10
0.0
 20
0.0
 30
0.0
  3
block 21
  1

  0
POLYLINE
  5
CB
330
C7
100
AcDbEntity
  8
0
 62
     7
420
 16777215
370
    25
100
AcDb2dPolyline
 66
     1
 10
0.0
 20
0.0
 30
0.0
  0
VERTEX
  5
CC
330
CB
100
AcDbEntity
  8
0
 62
     7
420
 16777215
370
    25
100
AcDbVertex
100
AcDb2dVertex
 10
45.70005288571041
 20
191.29995112405
 30
0.0
  0
VERTEX
  5
CD
330
CB
100
AcDbEntity
  8
0
 62
     7
420
 16777215
370
    25
100
AcDbVertex
100
AcDb2dVertex
 10
45.70005288571041
 20
188.0999741825757
 30
0.0
  0
SEQEND
  5
CE
330
CB
100
AcDbEntity
  8
0
370
    25
  0
ENDBLK
  5
CA
330
C7
100
AcDbEntity
  8
0
100
AcDbBlockEnd
  0
BLOCK
  5
D1
330
CF
100
AcDbEntity
  8
0
100
AcDbBlockBegin
  2
block 22
 70
     0
 71
     0
 10
0.0
 20
0.0
 30
0.0
  3
block 22
  1

  0
POLYLINE
  5
D3
330
CF
100
AcDbEntity
  8
0
 62
     7
420
 16777215
370
    25
100
AcDb2dPolyline
 66
     1
 10
0.0
 20
0.0
 30
0.0
  0
VERTEX
  5
D4
330
D3
100
AcDbEntity
  8
0
 62
     7
420
 16777215
370
    25
100
AcDbVertex
100
AcDb2dVertex
 10
45.70005288571041
 20
188.0999741825757
 30
0.0
  0
VERTEX
  5
D5
330
D3
100
AcDbEntity
  8
0
 62
     7
420
 16777215
370
    25
100
AcDbVertex
100
AcDb2dVertex
 10
42.70006373715485
 20
188.0999741825757
 30
0.0
  0
SEQEND
  5
D6
330
D3
100
AcDbEntity
  8
0
370
    25
  0
ENDBLK
  5
D2
330
CF
100
AcDbEntity
  8
0
100
AcDbBlockEnd
  0
BLOCK
  5
D9
330
D7
100
AcDbEntity
  8
0
100
AcDbBlockBegin
  2
block 23
 70
     0
 71
     0
 10
0.0
 20
0.0
 30
0.0
  3
block 23
  1

  0
POLYLINE
  5
DB
330
D7
100
AcDbEntity
  8
0
 62
     7
420
 16777215
370
    25
100
AcDb2dPolyline
 66
     1
 10
0.0
 20
0.0
 30
0.0
  0
VERTEX
  5
DC
330
DB
100
AcDbEntity
  8
0
 62
     7
420
 16777215
370
    25
100
AcDbVertex
100
AcDb2dVertex
 10
42.70006373715485
 20
188.0999741825757
 30
0.0
  0
VERTEX
  5
DD
330
DB
100
AcDbEntity
  8
0
 62
     7
420
 16777215
370
    25
100
AcDbVertex
100
AcDb2dVertex
 10
42.70006373715485
 20
186.7999674012167
 30
0.0
  0
SEQEND
  5
DE
330
DB
100
AcDbEntity
  8
0
370
    25
  0
ENDBLK
  5
DA
330
D7
100
AcDbEntity
  8
0
100
AcDbBlockEnd
  0
BLOCK
  5
E1
330
DF
100
AcDbEntity
  8
0
100
AcDbBlockBegin
  2
block 24
 70
     0
 71
     0
 10
0.0
 20
0.0
 30
0.0
  3
block 24
  1

  0
POLYLINE
  5
E3
330
DF
100
AcDbEntity
  8
0
 62
     7
420
 16777215
370
    25
100
AcDb2dPolyline
 66
     1
 10
0.0
 20
0.0
 30
0.0
  0
VERTEX
  5
E4
330
E3
100
AcDbEntity
  8
0
 62
     7
420
 16777215
370
    25
100
AcDbVertex
100
AcDb2dVertex
 10
42.70006373715485
 20
186.7999674012167
 30
0.0
  0
VERTEX
  5
E5
330
E3
100
AcDbEntity
  8
0
 62
     7
420
 16777215
370
    25
100
AcDbVertex
100
AcDb2dVertex
 10
39.70007458859929
 20
186.7999674012167
 30
0.0
  0
SEQEND
  5
E6
330
E3
100
AcDbEntity
  8
0
370
    25
  0
ENDBLK
  5
E2
330
DF
100
AcDbEntity
  8
0
100
AcDbBlockEnd
  0
BLOCK
  5
E9
330
E7
100
AcDbEntity
  8
0
100
AcDbBlockBegin
  2
block 25
 70
     0
 71
     0
 10
0.0
 20
0.0
 30
0.0
  3
block 25
  1

  0
POLYLINE
  5
EB
330
E7
100
AcDbEntity
  8
0
 62
     7
420
 16777215
370
    25
100
AcDb2dPolyline
 66
     1
 10
0.0
 20
0.0
 30
0.0
  0
VERTEX
  5
EC
330
EB
100
AcDbEntity
  8
0
 62
     7
420
 16777215
370
    25
100
AcDbVertex
100
AcDb2dVertex
 10
39.70007458859929
 20
186.7999674012167
 30
0.0
  0
VERTEX
  5
ED
330
EB
100
AcDbEntity
  8
0
 62
     7
420
 16777215
370
    25
100
AcDbVertex
100
AcDb2dVertex
 10
39.70007458859929
 20
188.0999741825757
 30
0.0
  0
SEQEND
  5
EE
330
EB
100
AcDbEntity
  8
0
370
    25
  0
ENDBLK
  5
EA
330
E7
100
AcDbEntity
  8
0
100
AcDbBlockEnd
  0
BLOCK
  5
F1
330
EF
100
AcDbEntity
  8
0
100
AcDbBlockBegin
  2
block 26
 70
     0
 71
     0
 10
0.0
 20
0.0
 30
0.0
  3
block 26
  1

  0
POLYLINE
  5
F3
330
EF
100
AcDbEntity
  8
0
 62
     7
420
 16777215
370
    25
100
AcDb2dPolyline
 66
     1
 10
0.0
 20
0.0
 30
0.0
  0
VERTEX
  5
F4
330
F3
100
AcDbEntity
  8
0
 62
     7
420
 16777215
370
    25
100
AcDbVertex
100
AcDb2dVertex
 10
39.70007458859929
 20
188.0999741825757
 30
0.0
  0
VERTEX
  5
F5
330
F3
100
AcDbEntity
  8
0
 62
     7
420
 16777215
370
    25
100
AcDbVertex
100
AcDb2dVertex
 10
35.34995251937432
 20
188.0999741825757
 30
0.0
  0
SEQEND
  5
F6
330
F3
100
AcDbEntity
  8
0
370
    25
  0
ENDBLK
  5
F2
330
EF
100
AcDbEntity
  8
0
100
AcDbBlockEnd
  0
BLOCK
  5
F9
330
F7
100
AcDbEntity
  8
0
100
AcDbBlockBegin
  2
block 27
 70
     0
 71
     0
 10
0.0
 20
0.0
 30
0.0
  3
block 27
  1

  0
POLYLINE
  5
FB
330
F7
100
AcDbEntity
  8
0
 62
     7
420
 16777215
370
    25
100
AcDb2dPolyline
 66
     1
 10
0.0
 20
0.0
 30
0.0
  0
VERTEX
  5
FC
330
FB
100
AcDbEntity
  8
0
 62
     7
420
 16777215
370
    25
100
AcDbVertex
100
AcDb2dVertex
 10
35.34995251937432
 20
188.0999741825757
 30
0.0
  0
VERTEX
  5
FD
330
FB
100
AcDbEntity
  8
0
 62
     7
420
 16777215
370
    25
100
AcDbVertex
100
AcDb2dVertex
 10
35.34995251937432
 20
183.7000704835889
 30
0.0
  0
SEQEND
  5
FE
330
FB
100
AcDbEntity
  8
0
370
    25
  0
ENDBLK
  5
FA
330
F7
100
AcDbEntity
  8
0
100
AcDbBlockEnd
  0
BLOCK
  5
101
330
FF
100
AcDbEntity
  8
0
100
AcDbBlockBegin
  2
block 28
 70
     0
 71
     0
 10
0.0
 20
0.0
 30
0.0
  3
block 28
  1

  0
POLYLINE
  5
103
330
FF
100
AcDbEntity
  8
0
 62
     7
420
 16777215
370
    25
100
AcDb2dPolyline
 66
     1
 10
0.0
 20
0.0
 30
0.0
  0
VERTEX
  5
104
330
103
100
AcDbEntity
  8
0
 62
     7
420
 16777215
370
    25
100
AcDbVertex
100
AcDb2dVertex
 10
35.34995251937432
 20
183.7000704835889
 30
0.0
  0
VERTEX
  5
105
330
103
100
AcDbEntity
  8
0
 62
     7
420
 16777215
370
    25
100
AcDbVertex
100
AcDb2dVertex
 10
29.74994980810071
 20
183.7000704835889
 30
0.0
  0
SEQEND
  5
106
330
103
100
AcDbEntity
  8
0
370
    25
  0
ENDBLK
  5
102
330
FF
100
AcDbEntity
  8
0
100
AcDbBlockEnd
  0
BLOCK
  5
109
330
107
100
AcDbEntity
  8
0
100
AcDbBlockBegin
  2
block 29
 70
     0
 71
     0
 10
0.0
 20
0.0
 30
0.0
  3
block 29
  1

  0
POLYLINE
  5
10B
330
107
100
AcDbEntity
  8
0
 62
     7
420
 16777215
370
    25
100
AcDb2dPolyline
 66
     1
 10
0.0
 20
0.0
 30
0.0
  0
VERTEX
  5
10C
330
10B
100
AcDbEntity
  8
0
 62
     7
420
 16777215
370
    25
100
AcDbVertex
100
AcDb2dVertex
 10
29.74994980810071
 20
183.7000704835889
 30
0.0
  0
VERTEX
  5
10D
330
10B
100
AcDbEntity
  8
0
 62
     7
420
 16777215
370
    25
100
AcDbVertex
100
AcDb2dVertex
 10
29.74994980810071
 20
171.6999416345924
 30
0.0
  0
SEQEND
  5
10E
330
10B
100
AcDbEntity
  8
0
370
    25
  0
ENDBLK
  5
10A
330
107
100
AcDbEntity
  8
0
100
AcDbBlockEnd
  0
BLOCK
  5
111
330
10F
100
AcDbEntity
  8
0
100
AcDbBlockBegin
  2
block 30
 70
     0
 71
     0
 10
0.0
 20
0.0
 30
0.0
  3
block 30
  1

  0
POLYLINE
  5
113
330
10F
100
AcDbEntity
  8
0
 62
     7
420
 16777215
370
    25
100
AcDb2dPolyline
 66
     1
 10
0.0
 20
0.0
 30
0.0
  0
VERTEX
  5
114
330
113
100
AcDbEntity
  8
0
 62
     7
420
 16777215
370
    25
100
AcDbVertex
100
AcDb2dVertex
 10
29.74994980810071
 20
171.6999416345924
 30
0.0
  0
VERTEX
  5
115
330
113
100
AcDbEntity
  8
0
 62
     7
420
 16777215
370
    25
100
AcDbVertex
100
AcDb2dVertex
 10
35.34995251937432
 20
171.6999416345924
 30
0.0
  0
SEQEND
  5
116
330
113
100
AcDbEntity
  8
0
370
    25
  0
ENDBLK
  5
112
330
10F
100
AcDbEntity
  8
0
100
AcDbBlockEnd
  0
BLOCK
  5
119
330
117
100
AcDbEntity
  8
0
100
AcDbBlockBegin
  2
block 31
 70
     0
 71
     0
 10
0.0
 20
0.0
 30
0.0
  3
block 31
  1

  0
POLYLINE
  5
11B
330
117
100
AcDbEntity
  8
0
 62
     7
420
 16777215
370
    25
100
AcDb2dPolyline
 66
     1
 10
0.0
 20
0.0
 30
0.0
  0
VERTEX
  5
11C
330
11B
100
AcDbEntity
  8
0
 62
     7
420
 16777215
370
    25
100
AcDbVertex
100
AcDb2dVertex
 10
35.34995251937432
 20
171.6999416345924
 30
0.0
  0
VERTEX
  5
11D
330
11B
100
AcDbEntity
  8
0
 62
     7
420
 16777215
370
    25
100
AcDbVertex
100
AcDb2dVertex
 10
35.34995251937432
 20
159.6999850403701
 30
0.0
  0
SEQEND
  5
11E
330
11B
100
AcDbEntity
  8
0
370
    25
  0
ENDBLK
  5
11A
330
117
100
AcDbEntity
  8
0
100
AcDbBlockEnd
  0
BLOCK
  5
121
330
11F
100
AcDbEntity
  8
0
100
AcDbBlockBegin
  2
block 32
 70
     0
 71
     0
 10
0.0
 20
0.0
 30
0.0
  3
block 32
  1

  0
POLYLINE
  5
123
330
11F
100
AcDbEntity
  8
0
 62
     7
420
 16777215
370
    25
100
AcDb2dPolyline
 66
     1
 10
0.0
 20
0.0
 30
0.0
  0
VERTEX
  5
124
330
123
100
AcDbEntity
  8
0
 62
     7
420
 16777215
370
    25
100
AcDbVertex
100
AcDb2dVertex
 10
35.34995251937432
 20
159.6999850403701
 30
0.0
  0
VERTEX
  5
125
330
123
100
AcDbEntity
  8
0
 62
     7
420
 16777215
370
    25
100
AcDbVertex
100
AcDb2dVertex
 10
29.74994980810071
 20
159.6999850403701
 30
0.0
  0
SEQEND
  5
126
330
123
100
AcDbEntity
  8
0
370
    25
  0
ENDBLK
  5
122
330
11F
100
AcDbEntity
  8
0
100
AcDbBlockEnd
  0
BLOCK
  5
129
330
127
100
AcDbEntity
  8
0
100
AcDbBlockBegin
  2
block 33
 70
     0
 71
     0
 10
0.0
 20
0.0
 30
0.0
  3
block 33
  1

  0
POLYLINE
  5
12B
330
127
100
AcDbEntity
  8
0
 62
     7
420
 16777215
370
    25
100
AcDb2dPolyline
 66
     1
 10
0.0
 20
0.0
 30
0.0
  0
VERTEX
  5
12C
330
12B
100
AcDbEntity
  8
0
 62
     7
420
 16777215
370
    25
100
AcDbVertex
100
AcDb2dVertex
 10
29.74994980810071
 20
159.6999850403701
 30
0.0
  0
VERTEX
  5
12D
330
12B
100
AcDbEntity
  8
0
 62
     7
420
 16777215
370
    25
100
AcDbVertex
100
AcDb2dVertex
 10
29.74994980810071
 20
147.7000284461479
 30
0.0
  0
SEQEND
  5
12E
330
12B
100
AcDbEntity
  8
0
370
    25
  0
ENDBLK
  5
12A
330
127
100
AcDbEntity
  8
0
100
AcDbBlockEnd
  0
BLOCK
  5
131
330
12F
100
AcDbEntity
  8
0
100
AcDbBlockBegin
  2
block 34
 70
     0
 71
     0
 10
0.0
 20
0.0
 30
0.0
  3
block 34
  1

  0
POLYLINE
  5
133
330
12F
100
AcDbEntity
  8
0
 62
     7
420
 16777215
370
    25
100
AcDb2dPolyline
 66
     1
 10
0.0
 20
0.0
 30
0.0
  0
VERTEX
  5
134
330
133
100
AcDbEntity
  8
0
 62
     7
420
 16777215
370
    25
100
AcDbVertex
100
AcDb2dVertex
 10
29.74994980810071
 20
147.7000284461479
 30
0.0
  0
VERTEX
  5
135
330
133
100
AcDbEntity
  8
0
 62
     7
420
 16777215
370
    25
100
AcDbVertex
100
AcDb2dVertex
 10
35.34995251937432
 20
147.7000284461479
 30
0.0
  0
SEQEND
  5
136
330
133
100
AcDbEntity
  8
0
370
    25
  0
ENDBLK
  5
132
330
12F
100
AcDbEntity
  8
0
100
AcDbBlockEnd
  0
BLOCK
  5
139
330
137
100
AcDbEntity
  8
0
100
AcDbBlockBegin
  2
block 35
 70
     0
 71
     0
 10
0.0
 20
0.0
 30
0.0
  3
block 35
  1

  0
POLYLINE
  5
13B
330
137
100
AcDbEntity
  8
0
 62
     7
420
 16777215
370
    25
100
AcDb2dPolyline
 66
     1
 10
0.0
 20
0.0
 30
0.0
  0
VERTEX
  5
13C
330
13B
100
AcDbEntity
  8
0
 62
     7
420
 16777215
370
    25
100
AcDbVertex
100
AcDb2dVertex
 10
35.34995251937432
 20
147.7000284461479
 30
0.0
  0
VERTEX
  5
13D
330
13B
100
AcDbEntity
  8
0
 62
     7
420
 16777215
370
    25
100
AcDbVertex
100
AcDb2dVertex
 10
35.34995251937432
 20
135.6998995971514
 30
0.0
  0
SEQEND
  5
13E
330
13B
100
AcDbEntity
  8
0
370
    25
  0
ENDBLK
  5
13A
330
137
100
AcDbEntity
  8
0
100
AcDbBlockEnd
  0
BLOCK
  5
141
330
13F
100
AcDbEntity
  8
0
100
AcDbBlockBegin
  2
block 36
 70
     0
 71
     0
 10
0.0
 20
0.0
 30
0.0
  3
block 36
  1

  0
POLYLINE
  5
143
330
13F
100
AcDbEntity
  8
0
 62
     7
420
 16777215
370
    25
100
AcDb2dPolyline
 66
     1
 10
0.0
 20
0.0
 30
0.0
  0
VERTEX
  5
144
330
143
100
AcDbEntity
  8
0
 62
     7
420
 16777215
370
    25
100
AcDbVertex
100
AcDb2dVertex
 10
35.34995251937432
 20
135.6998995971514
 30
0.0
  0
VERTEX
  5
145
330
143
100
AcDbEntity
  8
0
 62
     7
420
 16777215
370
    25
100
AcDbVertex
100
AcDb2dVertex
 10
29.74994980810071
 20
135.6998995971514
 30
0.0
  0
SEQEND
  5
146
330
143
100
AcDbEntity
  8
0
370
    25
  0
ENDBLK
  5
142
330
13F
100
AcDbEntity
  8
0
100
AcDbBlockEnd
  0
BLOCK
  5
149
330
147
100
AcDbEntity
  8
0
100
AcDbBlockBegin
  2
block 37
 70
     0
 71
     0
 10
0.0
 20
0.0
 30
0.0
  3
block 37
  1

  0
POLYLINE
  5
14B
330
147
100
AcDbEntity
  8
0
 62
     7
420
 16777215
370
    25
100
AcDb2dPolyline
 66
     1
 10
0.0
 20
0.0
 30
0.0
  0
VERTEX
  5
14C
330
14B
100
AcDbEntity
  8
0
 62
     7
420
 16777215
370
    25
100
AcDbVertex
100
AcDb2dVertex
 10
29.74994980810071
 20
135.6998995971514
 30
0.0
  0
VERTEX
  5
14D
330
14B
100
AcDbEntity
  8
0
 62
     7
420
 16777215
370
    25
100
AcDbVertex
100
AcDb2dVertex
 10
29.74994980810071
 20
123.6999430029292
 30
0.0
  0
SEQEND
  5
14E
330
14B
100
AcDbEntity
  8
0
370
    25
  0
ENDBLK
  5
14A
330
147
100
AcDbEntity
  8
0
100
AcDbBlockEnd
  0
BLOCK
  5
151
330
14F
100
AcDbEntity
  8
0
100
AcDbBlockBegin
  2
block 38
 70
     0
 71
     0
 10
0.0
 20
0.0
 30
0.0
  3
block 38
  1

  0
POLYLINE
  5
153
330
14F
100
AcDbEntity
  8
0
 62
     7
420
 16777215
370
    25
100
AcDb2dPolyline
 66
     1
 10
0.0
 20
0.0
 30
0.0
  0
VERTEX
  5
154
330
153
100
AcDbEntity
  8
0
 62
     7
420
 16777215
370
    25
100
AcDbVertex
100
AcDb2dVertex
 10
29.74994980810071
 20
123.6999430029292
 30
0.0
  0
VERTEX
  5
155
330
153
100
AcDbEntity
  8
0
 62
     7
420
 16777215
370
    25
100
AcDbVertex
100
AcDb2dVertex
 10
35.34995251937432
 20
123.6999430029292
 30
0.0
  0
SEQEND
  5
156
330
153
100
AcDbEntity
  8
0
370
    25
  0
ENDBLK
  5
152
330
14F
100
AcDbEntity
  8
0
100
AcDbBlockEnd
  0
BLOCK
  5
159
330
157
100
AcDbEntity
  8
0
100
AcDbBlockBegin
  2
block 39
 70
     0
 71
     0
 10
0.0
 20
0.0
 30
0.0
  3
block 39
  1

  0
POLYLINE
  5
15B
330
157
100
AcDbEntity
  8
0
 62
     7
420
 16777215
370
    25
100
AcDb2dPolyline
 66
     1
 10
0.0
 20
0.0
 30
0.0
  0
VERTEX
  5
15C
330
15B
100
AcDbEntity
  8
0
 62
     7
420
 16777215
370
    25
100
AcDbVertex
100
AcDb2dVertex
 10
35.34995251937432
 20
123.6999430029292
 30
0.0
  0
VERTEX
  5
15D
330
15B
100
AcDbEntity
  8
0
 62
     7
420
 16777215
370
    25
100
AcDbVertex
100
AcDb2dVertex
 10
35.34995251937432
 20
119.2998670491681
 30
0.0
  0
SEQEND
  5
15E
330
15B
100
AcDbEntity
  8
0
370
    25
  0
ENDBLK
  5
15A
330
157
100
AcDbEntity
  8
0
100
AcDbBlockEnd
  0
BLOCK
  5
161
330
15F
100
AcDbEntity
  8
0
100
AcDbBlockBegin
  2
block 40
 70
     0
 71
     0
 10
0.0
 20
0.0
 30
0.0
  3
block 40
  1

  0
POLYLINE
  5
163
330
15F
100
AcDbEntity
  8
0
 62
     7
420
 16777215
370
    25
100
AcDb2dPolyline
 66
     1
 10
0.0
 20
0.0
 30
0.0
  0
VERTEX
  5
164
330
163
100
AcDbEntity
  8
0
 62
     7
420
 16777215
370
    25
100
AcDbVertex
100
AcDb2dVertex
 10
35.34995251937432
 20
119.2998670491681
 30
0.0
  0
VERTEX
  5
165
330
163
100
AcDbEntity
  8
0
 62
     7
420
 16777215
370
    25
100
AcDbVertex
100
AcDb2dVertex
 10
39.70007458859929
 20
119.2998670491681
 30
0.0
  0
SEQEND
  5
166
330
163
100
AcDbEntity
  8
0
370
    25
  0
ENDBLK
  5
162
330
15F
100
AcDbEntity
  8
0
100
AcDbBlockEnd
  0
BLOCK
  5
169
330
167
100
AcDbEntity
  8
0
100
AcDbBlockBegin
  2
block 41
 70
     0
 71
     0
 10
0.0
 20
0.0
 30
0.0
  3
block 41
  1

  0
POLYLINE
  5
16B
330
167
100
AcDbEntity
  8
0
 62
     7
420
 16777215
370
    25
100
AcDb2dPolyline
 66
     1
 10
0.0
 20
0.0
 30
0.0
  0
VERTEX
  5
16C
330
16B
100
AcDbEntity
  8
0
 62
     7
420
 16777215
370
    25
100
AcDbVertex
100
AcDb2dVertex
 10
39.70007458859929
 20
119.2998670491681
 30
0.0
  0
VERTEX
  5
16D
330
16B
100
AcDbEntity
  8
0
 62
     7
420
 16777215
370
    25
100
AcDbVertex
100
AcDb2dVertex
 10
39.70007458859929
 20
120.6000460853014
 30
0.0
  0
SEQEND
  5
16E
330
16B
100
AcDbEntity
  8
0
370
    25
  0
ENDBLK
  5
16A
330
167
100
AcDbEntity
  8
0
100
AcDbBlockEnd
  0
BLOCK
  5
171
330
16F
100
AcDbEntity
  8
0
100
AcDbBlockBegin
  2
block 42
 70
     0
 71
     0
 10
0.0
 20
0.0
 30
0.0
  3
block 42
  1

  0
POLYLINE
  5
173
330
16F
100
AcDbEntity
  8
0
 62
     7
420
 16777215
370
    25
100
AcDb2dPolyline
 66
     1
 10
0.0
 20
0.0
 30
0.0
  0
VERTEX
  5
174
330
173
100
AcDbEntity
  8
0
 62
     7
420
 16777215
370
    25
100
AcDbVertex
100
AcDb2dVertex
 10
39.70007458859929
 20
120.6000460853014
 30
0.0
  0
VERTEX
  5
175
330
173
100
AcDbEntity
  8
0
 62
     7
420
 16777215
370
    25
100
AcDbVertex
100
AcDb2dVertex
 10
42.70006373715485
 20
120.6000460853014
 30
0.0
  0
SEQEND
  5
176
330
173
100
AcDbEntity
  8
0
370
    25
  0
ENDBLK
  5
172
330
16F
100
AcDbEntity
  8
0
100
AcDbBlockEnd
  0
BLOCK
  5
179
330
177
100
AcDbEntity
  8
0
100
AcDbBlockBegin
  2
block 43
 70
     0
 71
     0
 10
0.0
 20
0.0
 30
0.0
  3
block 43
  1

  0
POLYLINE
  5
17B
330
177
100
AcDbEntity
  8
0
 62
     7
420
 16777215
370
    25
100
AcDb2dPolyline
 66
     1
 10
0.0
 20
0.0
 30
0.0
  0
VERTEX
  5
17C
330
17B
100
AcDbEntity
  8
0
 62
     7
420
 16777215
370
    25
100
AcDbVertex
100
AcDb2dVertex
 10
42.70006373715485
 20
120.6000460853014
 30
0.0
  0
VERTEX
  5
17D
330
17B
100
AcDbEntity
  8
0
 62
     7
420
 16777215
370
    25
100
AcDbVertex
100
AcDb2dVertex
 10
42.70006373715485
 20
119.2998670491681
 30
0.0
  0
SEQEND
  5
17E
330
17B
100
AcDbEntity
  8
0
370
    25
  0
ENDBLK
  5
17A
330
177
100
AcDbEntity
  8
0
100
AcDbBlockEnd
  0
BLOCK
  5
181
330
17F
100
AcDbEntity
  8
0
100
AcDbBlockBegin
  2
block 44
 70
     0
 71
     0
 10
0.0
 20
0.0
 30
0.0
  3
block 44
  1

  0
POLYLINE
  5
183
330
17F
100
AcDbEntity
  8
0
 62
     7
420
 16777215
370
    25
100
AcDb2dPolyline
 66
     1
 10
0.0
 20
0.0
 30
0.0
  0
VERTEX
  5
184
330
183
100
AcDbEntity
  8
0
 62
     7
420
 16777215
370
    25
100
AcDbVertex
100
AcDb2dVertex
 10
42.70006373715485
 20
119.2998670491681
 30
0.0
  0
VERTEX
  5
185
330
183
100
AcDbEntity
  8
0
 62
     7
420
 16777215
370
    25
100
AcDbVertex
100
AcDb2dVertex
 10
45.70005288571041
 20
119.2998670491681
 30
0.0
  0
SEQEND
  5
186
330
183
100
AcDbEntity
  8
0
370
    25
  0
ENDBLK
  5
182
330
17F
100
AcDbEntity
  8
0
100
AcDbBlockEnd
  0
BLOCK
  5
189
330
187
100
AcDbEntity
  8
0
100
AcDbBlockBegin
  2
block 45
 70
     0
 71
     0
 10
0.0
 20
0.0
 30
0.0
  3
block 45
  1

  0
POLYLINE
  5
18B
330
187
100
AcDbEntity
  8
0
 62
     7
420
 16777215
370
    25
100
AcDb2dPolyline
 66
     1
 10
0.0
 20
0.0
 30
0.0
  0
VERTEX
  5
18C
330
18B
100
AcDbEntity
  8
0
 62
     7
420
 16777215
370
    25
100
AcDbVertex
100
AcDb2dVertex
 10
45.70005288571041
 20
119.2998670491681
 30
0.0
  0
VERTEX
  5
18D
330
18B
100
AcDbEntity
  8
0
 62
     7
420
 16777215
370
    25
100
AcDbVertex
100
AcDb2dVertex
 10
45.70005288571041
 20
116.1000623624681
 30
0.0
  0
SEQEND
  5
18E
330
18B
100
AcDbEntity
  8
0
370
    25
  0
ENDBLK
  5
18A
330
187
100
AcDbEntity
  8
0
100
AcDbBlockEnd
  0
BLOCK
  5
191
330
18F
100
AcDbEntity
  8
0
100
AcDbBlockBegin
  2
block 46
 70
     0
 71
     0
 10
0.0
 20
0.0
 30
0.0
  3
block 46
  1

  0
POLYLINE
  5
193
330
18F
100
AcDbEntity
  8
0
 62
     7
420
 16777215
370
    25
100
AcDb2dPolyline
 66
     1
 10
0.0
 20
0.0
 30
0.0
  0
VERTEX
  5
194
330
193
100
AcDbEntity
  8
0
 62
     7
420
 16777215
370
    25
100
AcDbVertex
100
AcDb2dVertex
 10
45.70005288571041
 20
116.1000623624681
 30
0.0
  0
VERTEX
  5
195
330
193
100
AcDbEntity
  8
0
 62
     7
420
 16777215
370
    25
100
AcDbVertex
100
AcDb2dVertex
 10
42.70006373715485
 20
116.1000623624681
 30
0.0
  0
SEQEND
  5
196
330
193
100
AcDbEntity
  8
0
370
    25
  0
ENDBLK
  5
192
330
18F
100
AcDbEntity
  8
0
100
AcDbBlockEnd
  0
BLOCK
  5
199
330
197
100
AcDbEntity
  8
0
100
AcDbBlockBegin
  2
block 47
 70
     0
 71
     0
 10
0.0
 20
0.0
 30
0.0
  3
block 47
  1

  0
POLYLINE
  5
19B
330
197
100
AcDbEntity
  8
0
 62
     7
420
 16777215
370
    25
100
AcDb2dPolyline
 66
     1
 10
0.0
 20
0.0
 30
0.0
  0
VERTEX
  5
19C
330
19B
100
AcDbEntity
  8
0
 62
     7
420
 16777215
370
    25
100
AcDbVertex
100
AcDb2dVertex
 10
42.70006373715485
 20
116.1000623624681
 30
0.0
  0
VERTEX
  5
19D
330
19B
100
AcDbEntity
  8
0
 62
     7
420
 16777215
370
    25
100
AcDbVertex
100
AcDb2dVertex
 10
42.70006373715485
 20
114.7998833263348
 30
0.0
  0
SEQEND
  5
19E
330
19B
100
AcDbEntity
  8
0
370
    25
  0
ENDBLK
  5
19A
330
197
100
AcDbEntity
  8
0
100
AcDbBlockEnd
  0
BLOCK
  5
1A1
330
19F
100
AcDbEntity
  8
0
100
AcDbBlockBegin
  2
block 48
 70
     0
 71
     0
 10
0.0
 20
0.0
 30
0.0
  3
block 48
  1

  0
POLYLINE
  5
1A3
330
19F
100
AcDbEntity
  8
0
 62
     7
420
 16777215
370
    25
100
AcDb2dPolyline
 66
     1
 10
0.0
 20
0.0
 30
0.0
  0
VERTEX
  5
1A4
330
1A3
100
AcDbEntity
  8
0
 62
     7
420
 16777215
370
    25
100
AcDbVertex
100
AcDb2dVertex
 10
42.70006373715485
 20
114.7998833263348
 30
0.0
  0
VERTEX
  5
1A5
330
1A3
100
AcDbEntity
  8
0
 62
     7
420
 16777215
370
    25
100
AcDbVertex
100
AcDb2dVertex
 10
39.70007458859929
 20
114.7998833263348
 30
0.0
  0
SEQEND
  5
1A6
330
1A3
100
AcDbEntity
  8
0
370
    25
  0
ENDBLK
  5
1A2
330
19F
100
AcDbEntity
  8
0
100
AcDbBlockEnd
  0
BLOCK
  5
1A9
330
1A7
100
AcDbEntity
  8
0
100
AcDbBlockBegin
  2
block 49
 70
     0
 71
     0
 10
0.0
 20
0.0
 30
0.0
  3
block 49
  1

  0
POLYLINE
  5
1AB
330
1A7
100
AcDbEntity
  8
0
 62
     7
420
 16777215
370
    25
100
AcDb2dPolyline
 66
     1
 10
0.0
 20
0.0
 30
0.0
  0
VERTEX
  5
1AC
330
1AB
100
AcDbEntity
  8
0
 62
     7
420
 16777215
370
    25
100
AcDbVertex
100
AcDb2dVertex
 10
39.70007458859929
 20
114.7998833263348
 30
0.0
  0
VERTEX
  5
1AD
330
1AB
100
AcDbEntity
  8
0
 62
     7
420
 16777215
370
    25
100
AcDbVertex
100
AcDb2dVertex
 10
39.70007458859929
 20
116.1000623624681
 30
0.0
  0
SEQEND
  5
1AE
330
1AB
100
AcDbEntity
  8
0
370
    25
  0
ENDBLK
  5
1AA
330
1A7
100
AcDbEntity
  8
0
100
AcDbBlockEnd
  0
BLOCK
  5
1B1
330
1AF
100
AcDbEntity
  8
0
100
AcDbBlockBegin
  2
block 50
 70
     0
 71
     0
 10
0.0
 20
0.0
 30
0.0
  3
block 50
  1

  0
POLYLINE
  5
1B3
330
1AF
100
AcDbEntity
  8
0
 62
     7
420
 16777215
370
    25
100
AcDb2dPolyline
 66
     1
 10
0.0
 20
0.0
 30
0.0
  0
VERTEX
  5
1B4
330
1B3
100
AcDbEntity
  8
0
 62
     7
420
 16777215
370
    25
100
AcDbVertex
100
AcDb2dVertex
 10
39.70007458859929
 20
116.1000623624681
 30
0.0
  0
VERTEX
  5
1B5
330
1B3
100
AcDbEntity
  8
0
 62
     7
420
 16777215
370
    25
100
AcDbVertex
100
AcDb2dVertex
 10
35.34995251937432
 20
116.1000623624681
 30
0.0
  0
SEQEND
  5
1B6
330
1B3
100
AcDbEntity
  8
0
370
    25
  0
ENDBLK
  5
1B2
330
1AF
100
AcDbEntity
  8
0
100
AcDbBlockEnd
  0
BLOCK
  5
1B9
330
1B7
100
AcDbEntity
  8
0
100
AcDbBlockBegin
  2
block 51
 70
     0
 71
     0
 10
0.0
 20
0.0
 30
0.0
  3
block 51
  1

  0
POLYLINE
  5
1BB
330
1B7
100
AcDbEntity
  8
0
 62
     7
420
 16777215
370
    25
100
AcDb2dPolyline
 66
     1
 10
0.0
 20
0.0
 30
0.0
  0
VERTEX
  5
1BC
330
1BB
100
AcDbEntity
  8
0
 62
     7
420
 16777215
370
    25
100
AcDbVertex
100
AcDb2dVertex
 10
35.34995251937432
 20
116.1000623624681
 30
0.0
  0
VERTEX
  5
1BD
330
1BB
100
AcDbEntity
  8
0
 62
     7
420
 16777215
370
    25
100
AcDbVertex
100
AcDb2dVertex
 10
35.34995251937432
 20
111.6999864087069
 30
0.0
  0
SEQEND
  5
1BE
330
1BB
100
AcDbEntity
  8
0
370
    25
  0
ENDBLK
  5
1BA
330
1B7
100
AcDbEntity
  8
0
100
AcDbBlockEnd
  0
BLOCK
  5
1C1
330
1BF
100
AcDbEntity
  8
0
100
AcDbBlockBegin
  2
block 52
 70
     0
 71
     0
 10
0.0
 20
0.0
 30
0.0
  3
block 52
  1

  0
POLYLINE
  5
1C3
330
1BF
100
AcDbEntity
  8
0
 62
     7
420
 16777215
370
    25
100
AcDb2dPolyline
 66
     1
 10
0.0
 20
0.0
 30
0.0
  0
VERTEX
  5
1C4
330
1C3
100
AcDbEntity
  8
0
 62
     7
420
 16777215
370
    25
100
AcDbVertex
100
AcDb2dVertex
 10
35.34995251937432
 20
111.6999864087069
 30
0.0
  0
VERTEX
  5
1C5
330
1C3
100
AcDbEntity
  8
0
 62
     7
420
 16777215
370
    25
100
AcDbVertex
100
AcDb2dVertex
 10
29.74994980810071
 20
111.6999864087069
 30
0.0
  0
SEQEND
  5
1C6
330
1C3
100
AcDbEntity
  8
0
370
    25
  0
ENDBLK
  5
1C2
330
1BF
100
AcDbEntity
  8
0
100
AcDbBlockEnd
  0
BLOCK
  5
1C9
330
1C7
100
AcDbEntity
  8
0
100
AcDbBlockBegin
  2
block 53
 70
     0
 71
     0
 10
0.0
 20
0.0
 30
0.0
  3
block 53
  1

  0
POLYLINE
  5
1CB
330
1C7
100
AcDbEntity
  8
0
 62
     7
420
 16777215
370
    25
100
AcDb2dPolyline
 66
     1
 10
0.0
 20
0.0
 30
0.0
  0
VERTEX
  5
1CC
330
1CB
100
AcDbEntity
  8
0
 62
     7
420
 16777215
370
    25
100
AcDbVertex
100
AcDb2dVertex
 10
29.74994980810071
 20
111.6999864087069
 30
0.0
  0
VERTEX
  5
1CD
330
1CB
100
AcDbEntity
  8
0
 62
     7
420
 16777215
370
    25
100
AcDbVertex
100
AcDb2dVertex
 10
29.74994980810071
 20
99.70002981448472
 30
0.0
  0
SEQEND
  5
1CE
330
1CB
100
AcDbEntity
  8
0
370
    25
  0
ENDBLK
  5
1CA
330
1C7
100
AcDbEntity
  8
0
100
AcDbBlockEnd
  0
BLOCK
  5
1D1
330
1CF
100
AcDbEntity
  8
0
100
AcDbBlockBegin
  2
block 54
 70
     0
 71
     0
 10
0.0
 20
0.0
 30
0.0
  3
block 54
  1

  0
POLYLINE
  5
1D3
330
1CF
100
AcDbEntity
  8
0
 62
     7
420
 16777215
370
    25
100
AcDb2dPolyline
 66
     1
 10
0.0
 20
0.0
 30
0.0
  0
VERTEX
  5
1D4
330
1D3
100
AcDbEntity
  8
0
 62
     7
420
 16777215
370
    25
100
AcDbVertex
100
AcDb2dVertex
 10
29.74994980810071
 20
99.70002981448472
 30
0.0
  0
VERTEX
  5
1D5
330
1D3
100
AcDbEntity
  8
0
 62
     7
420
 16777215
370
    25
100
AcDbVertex
100
AcDb2dVertex
 10
35.34995251937432
 20
99.70002981448472
 30
0.0
  0
SEQEND
  5
1D6
330
1D3
100
AcDbEntity
  8
0
370
    25
  0
ENDBLK
  5
1D2
330
1CF
100
AcDbEntity
  8
0
100
AcDbBlockEnd
  0
BLOCK
  5
1D9
330
1D7
100
AcDbEntity
  8
0
100
AcDbBlockBegin
  2
block 55
 70
     0
 71
     0
 10
0.0
 20
0.0
 30
0.0
  3
block 55
  1

  0
POLYLINE
  5
1DB
330
1D7
100
AcDbEntity
  8
0
 62
     7
420
 16777215
370
    25
100
AcDb2dPolyline
 66
     1
 10
0.0
 20
0.0
 30
0.0
  0
VERTEX
  5
1DC
330
1DB
100
AcDbEntity
  8
0
 62
     7
420
 16777215
370
    25
100
AcDbVertex
100
AcDb2dVertex
 10
35.34995251937432
 20
99.70002981448472
 30
0.0
  0
VERTEX
  5
1DD
330
1DB
100
AcDbEntity
  8
0
 62
     7
420
 16777215
370
    25
100
AcDbVertex
100
AcDb2dVertex
 10
35.34995251937432
 20
87.70007322026248
 30
0.0
  0
SEQEND
  5
1DE
330
1DB
100
AcDbEntity
  8
0
370
    25
  0
ENDBLK
  5
1DA
330
1D7
100
AcDbEntity
  8
0
100
AcDbBlockEnd
  0
BLOCK
  5
1E1
330
1DF
100
AcDbEntity
  8
0
100
AcDbBlockBegin
  2
block 56
 70
     0
 71
     0
 10
0.0
 20
0.0
 30
0.0
  3
block 56
  1

  0
POLYLINE
  5
1E3
330
1DF
100
AcDbEntity
  8
0
 62
     7
420
 16777215
370
    25
100
AcDb2dPolyline
 66
     1
 10
0.0
 20
0.0
 30
0.0
  0
VERTEX
  5
1E4
330
1E3
100
AcDbEntity
  8
0
 62
     7
420
 16777215
370
    25
100
AcDbVertex
100
AcDb2dVertex
 10
35.34995251937432
 20
87.70007322026248
 30
0.0
  0
VERTEX
  5
1E5
330
1E3
100
AcDbEntity
  8
0
 62
     7
420
 16777215
370
    25
100
AcDbVertex
100
AcDb2dVertex
 10
29.74994980810071
 20
87.70007322026248
 30
0.0
  0
SEQEND
  5
1E6
330
1E3
100
AcDbEntity
  8
0
370
    25
  0
ENDBLK
  5
1E2
330
1DF
100
AcDbEntity
  8
0
100
AcDbBlockEnd
  0
BLOCK
  5
1E9
330
1E7
100
AcDbEntity
  8
0
100
AcDbBlockBegin
  2
block 57
 70
     0
 71
     0
 10
0.0
 20
0.0
 30
0.0
  3
block 57
  1

  0
POLYLINE
  5
1EB
330
1E7
100
AcDbEntity
  8
0
 62
     7
420
 16777215
370
    25
100
AcDb2dPolyline
 66
     1
 10
0.0
 20
0.0
 30
0.0
  0
VERTEX
  5
1EC
330
1EB
100
AcDbEntity
  8
0
 62
     7
420
 16777215
370
    25
100
AcDbVertex
100
AcDb2dVertex
 10
29.74994980810071
 20
87.70007322026248
 30
0.0
  0
VERTEX
  5
1ED
330
1EB
100
AcDbEntity
  8
0
 62
     7
420
 16777215
370
    25
100
AcDbVertex
100
AcDb2dVertex
 10
29.74994980810071
 20
75.70011662604026
 30
0.0
  0
SEQEND
  5
1EE
330
1EB
100
AcDbEntity
  8
0
370
    25
  0
ENDBLK
  5
1EA
330
1E7
100
AcDbEntity
  8
0
100
AcDbBlockEnd
  0
BLOCK
  5
1F1
330
1EF
100
AcDbEntity
  8
0
100
AcDbBlockBegin
  2
block 58
 70
     0
 71
     0
 10
0.0
 20
0.0
 30
0.0
  3
block 58
  1

  0
POLYLINE
  5
1F3
330
1EF
100
AcDbEntity
  8
0
 62
     7
420
 16777215
370
    25
100
AcDb2dPolyline
 66
     1
 10
0.0
 20
0.0
 30
0.0
  0
VERTEX
  5
1F4
330
1F3
100
AcDbEntity
  8
0
 62
     7
420
 16777215
370
    25
100
AcDbVertex
100
AcDb2dVertex
 10
29.74994980810071
 20
75.70011662604026
 30
0.0
  0
VERTEX
  5
1F5
330
1F3
100
AcDbEntity
  8
0
 62
     7
420
 16777215
370
    25
100
AcDbVertex
100
AcDb2dVertex
 10
35.34995251937432
 20
75.70011662604026
 30
0.0
  0
SEQEND
  5
1F6
330
1F3
100
AcDbEntity
  8
0
370
    25
  0
ENDBLK
  5
1F2
330
1EF
100
AcDbEntity
  8
0
100
AcDbBlockEnd
  0
BLOCK
  5
1F9
330
1F7
100
AcDbEntity
  8
0
100
AcDbBlockBegin
  2
block 59
 70
     0
 71
     0
 10
0.0
 20
0.0
 30
0.0
  3
block 59
  1

  0
POLYLINE
  5
1FB
330
1F7
100
AcDbEntity
  8
0
 62
     7
420
 16777215
370
    25
100
AcDb2dPolyline
 66
     1
 10
0.0
 20
0.0
 30
0.0
  0
VERTEX
  5
1FC
330
1FB
100
AcDbEntity
  8
0
 62
     7
420
 16777215
370
    25
100
AcDbVertex
100
AcDb2dVertex
 10
35.34995251937432
 20
75.70011662604026
 30
0.0
  0
VERTEX
  5
1FD
330
1FB
100
AcDbEntity
  8
0
 62
     7
420
 16777215
370
    25
100
AcDbVertex
100
AcDb2dVertex
 10
35.34995251937432
 20
59.70005966389443
 30
0.0
  0
SEQEND
  5
1FE
330
1FB
100
AcDbEntity
  8
0
370
    25
  0
ENDBLK
  5
1FA
330
1F7
100
AcDbEntity
  8
0
100
AcDbBlockEnd
  0
BLOCK
  5
201
330
1FF
100
AcDbEntity
  8
0
100
AcDbBlockBegin
  2
block 60
 70
     0
 71
     0
 10
0.0
 20
0.0
 30
0.0
  3
block 60
  1

  0
POLYLINE
  5
203
330
1FF
100
AcDbEntity
  8
0
 62
     7
420
 16777215
370
    25
100
AcDb2dPolyline
 66
     1
 10
0.0
 20
0.0
 30
0.0
  0
VERTEX
  5
204
330
203
100
AcDbEntity
  8
0
 62
     7
420
 16777215
370
    25
100
AcDbVertex
100
AcDb2dVertex
 10
35.34995251937432
 20
59.70005966389443
 30
0.0
  0
VERTEX
  5
205
330
203
100
AcDbEntity
  8
0
 62
     7
420
 16777215
370
    25
100
AcDbVertex
100
AcDb2dVertex
 10
180.5498751718764
 20
59.70005966389443
 30
0.0
  0
SEQEND
  5
206
330
203
100
AcDbEntity
  8
0
370
    25
  0
ENDBLK
  5
202
330
1FF
100
AcDbEntity
  8
0
100
AcDbBlockEnd
  0
BLOCK
  5
209
330
207
100
AcDbEntity
  8
0
100
AcDbBlockBegin
  2
block 61
 70
     0
 71
     0
 10
0.0
 20
0.0
 30
0.0
  3
block 61
  1

  0
POLYLINE
  5
20B
330
207
100
AcDbEntity
  8
0
 62
     7
420
 16777215
370
    25
100
AcDb2dPolyline
 66
     1
 10
0.0
 20
0.0
 30
0.0
  0
VERTEX
  5
20C
330
20B
100
AcDbEntity
  8
0
 62
     7
420
 16777215
370
    25
100
AcDbVertex
100
AcDb2dVertex
 10
180.5498751718764
 20
59.70005966389443
 30
0.0
  0
VERTEX
  5
20D
330
20B
100
AcDbEntity
  8
0
 62
     7
420
 16777215
370
    25
100
AcDbVertex
100
AcDb2dVertex
 10
180.5498751718764
 20
75.70011662604026
 30
0.0
  0
SEQEND
  5
20E
330
20B
100
AcDbEntity
  8
0
370
    25
  0
ENDBLK
  5
20A
330
207
100
AcDbEntity
  8
0
100
AcDbBlockEnd
  0
BLOCK
  5
211
330
20F
100
AcDbEntity
  8
0
100
AcDbBlockBegin
  2
block 62
 70
     0
 71
     0
 10
0.0
 20
0.0
 30
0.0
  3
block 62
  1

  0
POLYLINE
  5
213
330
20F
100
AcDbEntity
  8
0
 62
     7
420
 16777215
370
    25
100
AcDb2dPolyline
 66
     1
 10
0.0
 20
0.0
 30
0.0
  0
VERTEX
  5
214
330
213
100
AcDbEntity
  8
0
 62
     7
420
 16777215
370
    25
100
AcDbVertex
100
AcDb2dVertex
 10
180.5498751718764
 20
75.70011662604026
 30
0.0
  0
VERTEX
  5
215
330
213
100
AcDbEntity
  8
0
 62
     7
420
 16777215
370
    25
100
AcDbVertex
100
AcDb2dVertex
 10
186.14987788315
 20
75.70011662604026
 30
0.0
  0
SEQEND
  5
216
330
213
100
AcDbEntity
  8
0
370
    25
  0
ENDBLK
  5
212
330
20F
100
AcDbEntity
  8
0
100
AcDbBlockEnd
  0
BLOCK
  5
219
330
217
100
AcDbEntity
  8
0
100
AcDbBlockBegin
  2
block 63
 70
     0
 71
     0
 10
0.0
 20
0.0
 30
0.0
  3
block 63
  1

  0
POLYLINE
  5
21B
330
217
100
AcDbEntity
  8
0
 62
     7
420
 16777215
370
    25
100
AcDb2dPolyline
 66
     1
 10
0.0
 20
0.0
 30
0.0
  0
VERTEX
  5
21C
330
21B
100
AcDbEntity
  8
0
 62
     7
420
 16777215
370
    25
100
AcDbVertex
100
AcDb2dVertex
 10
186.14987788315
 20
75.70011662604026
 30
0.0
  0
VERTEX
  5
21D
330
21B
100
AcDbEntity
  8
0
 62
     7
420
 16777215
370
    25
100
AcDbVertex
100
AcDb2dVertex
 10
186.14987788315
 20
87.70007322026248
 30
0.0
  0
SEQEND
  5
21E
330
21B
100
AcDbEntity
  8
0
370
    25
  0
ENDBLK
  5
21A
330
217
100
AcDbEntity
  8
0
100
AcDbBlockEnd
  0
BLOCK
  5
221
330
21F
100
AcDbEntity
  8
0
100
AcDbBlockBegin
  2
block 64
 70
     0
 71
     0
 10
0.0
 20
0.0
 30
0.0
  3
block 64
  1

  0
POLYLINE
  5
223
330
21F
100
AcDbEntity
  8
0
 62
     7
420
 16777215
370
    25
100
AcDb2dPolyline
 66
     1
 10
0.0
 20
0.0
 30
0.0
  0
VERTEX
  5
224
330
223
100
AcDbEntity
  8
0
 62
     7
420
 16777215
370
    25
100
AcDbVertex
100
AcDb2dVertex
 10
186.14987788315
 20
87.70007322026248
 30
0.0
  0
VERTEX
  5
225
330
223
100
AcDbEntity
  8
0
 62
     7
420
 16777215
370
    25
100
AcDbVertex
100
AcDb2dVertex
 10
180.5498751718764
 20
87.70007322026248
 30
0.0
  0
SEQEND
  5
226
330
223
100
AcDbEntity
  8
0
370
    25
  0
ENDBLK
  5
222
330
21F
100
AcDbEntity
  8
0
100
AcDbBlockEnd
  0
BLOCK
  5
229
330
227
100
AcDbEntity
  8
0
100
AcDbBlockBegin
  2
block 65
 70
     0
 71
     0
 10
0.0
 20
0.0
 30
0.0
  3
block 65
  1

  0
POLYLINE
  5
22B
330
227
100
AcDbEntity
  8
0
 62
     7
420
 16777215
370
    25
100
AcDb2dPolyline
 66
     1
 10
0.0
 20
0.0
 30
0.0
  0
VERTEX
  5
22C
330
22B
100
AcDbEntity
  8
0
 62
     7
420
 16777215
370
    25
100
AcDbVertex
100
AcDb2dVertex
 10
180.5498751718764
 20
87.70007322026248
 30
0.0
  0
VERTEX
  5
22D
330
22B
100
AcDbEntity
  8
0
 62
     7
420
 16777215
370
    25
100
AcDbVertex
100
AcDb2dVertex
 10
180.5498751718764
 20
99.70002981448472
 30
0.0
  0
SEQEND
  5
22E
330
22B
100
AcDbEntity
  8
0
370
    25
  0
ENDBLK
  5
22A
330
227
100
AcDbEntity
  8
0
100
AcDbBlockEnd
  0
BLOCK
  5
231
330
22F
100
AcDbEntity
  8
0
100
AcDbBlockBegin
  2
block 66
 70
     0
 71
     0
 10
0.0
 20
0.0
 30
0.0
  3
block 66
  1

  0
POLYLINE
  5
233
330
22F
100
AcDbEntity
  8
0
 62
     7
420
 16777215
370
    25
100
AcDb2dPolyline
 66
     1
 10
0.0
 20
0.0
 30
0.0
  0
VERTEX
  5
234
330
233
100
AcDbEntity
  8
0
 62
     7
420
 16777215
370
    25
100
AcDbVertex
100
AcDb2dVertex
 10
180.5498751718764
 20
99.70002981448472
 30
0.0
  0
VERTEX
  5
235
330
233
100
AcDbEntity
  8
0
 62
     7
420
 16777215
370
    25
100
AcDbVertex
100
AcDb2dVertex
 10
186.14987788315
 20
99.70002981448472
 30
0.0
  0
SEQEND
  5
236
330
233
100
AcDbEntity
  8
0
370
    25
  0
ENDBLK
  5
232
330
22F
100
AcDbEntity
  8
0
100
AcDbBlockEnd
  0
BLOCK
  5
239
330
237
100
AcDbEntity
  8
0
100
AcDbBlockBegin
  2
block 67
 70
     0
 71
     0
 10
0.0
 20
0.0
 30
0.0
  3
block 67
  1

  0
POLYLINE
  5
23B
330
237
100
AcDbEntity
  8
0
 62
     7
420
 16777215
370
    25
100
AcDb2dPolyline
 66
     1
 10
0.0
 20
0.0
 30
0.0
  0
VERTEX
  5
23C
330
23B
100
AcDbEntity
  8
0
 62
     7
420
 16777215
370
    25
100
AcDbVertex
100
AcDb2dVertex
 10
186.14987788315
 20
99.70002981448472
 30
0.0
  0
VERTEX
  5
23D
330
23B
100
AcDbEntity
  8
0
 62
     7
420
 16777215
370
    25
100
AcDbVertex
100
AcDb2dVertex
 10
186.14987788315
 20
111.6999864087069
 30
0.0
  0
SEQEND
  5
23E
330
23B
100
AcDbEntity
  8
0
370
    25
  0
ENDBLK
  5
23A
330
237
100
AcDbEntity
  8
0
100
AcDbBlockEnd
  0
BLOCK
  5
241
330
23F
100
AcDbEntity
  8
0
100
AcDbBlockBegin
  2
block 68
 70
     0
 71
     0
 10
0.0
 20
0.0
 30
0.0
  3
block 68
  1

  0
POLYLINE
  5
243
330
23F
100
AcDbEntity
  8
0
 62
     7
420
 16777215
370
    25
100
AcDb2dPolyline
 66
     1
 10
0.0
 20
0.0
 30
0.0
  0
VERTEX
  5
244
330
243
100
AcDbEntity
  8
0
 62
     7
420
 16777215
370
    25
100
AcDbVertex
100
AcDb2dVertex
 10
186.14987788315
 20
111.6999864087069
 30
0.0
  0
VERTEX
  5
245
330
243
100
AcDbEntity
  8
0
 62
     7
420
 16777215
370
    25
100
AcDbVertex
100
AcDb2dVertex
 10
180.5498751718764
 20
111.6999864087069
 30
0.0
  0
SEQEND
  5
246
330
243
100
AcDbEntity
  8
0
370
    25
  0
ENDBLK
  5
242
330
23F
100
AcDbEntity
  8
0
100
AcDbBlockEnd
  0
BLOCK
  5
249
330
247
100
AcDbEntity
  8
0
100
AcDbBlockBegin
  2
block 69
 70
     0
 71
     0
 10
0.0
 20
0.0
 30
0.0
  3
block 69
  1

  0
POLYLINE
  5
24B
330
247
100
AcDbEntity
  8
0
 62
     7
420
 16777215
370
    25
100
AcDb2dPolyline
 66
     1
 10
0.0
 20
0.0
 30
0.0
  0
VERTEX
  5
24C
330
24B
100
AcDbEntity
  8
0
 62
     7
420
 16777215
370
    25
100
AcDbVertex
100
AcDb2dVertex
 10
180.5498751718764
 20
111.6999864087069
 30
0.0
  0
VERTEX
  5
24D
330
24B
100
AcDbEntity
  8
0
 62
     7
420
 16777215
370
    25
100
AcDbVertex
100
AcDb2dVertex
 10
180.5498751718764
 20
116.1000623624681
 30
0.0
  0
SEQEND
  5
24E
330
24B
100
AcDbEntity
  8
0
370
    25
  0
ENDBLK
  5
24A
330
247
100
AcDbEntity
  8
0
100
AcDbBlockEnd
  0
BLOCK
  5
251
330
24F
100
AcDbEntity
  8
0
100
AcDbBlockBegin
  2
block 70
 70
     0
 71
     0
 10
0.0
 20
0.0
 30
0.0
  3
block 70
  1

  0
POLYLINE
  5
253
330
24F
100
AcDbEntity
  8
0
 62
     7
420
 16777215
370
    25
100
AcDb2dPolyline
 66
     1
 10
0.0
 20
0.0
 30
0.0
  0
VERTEX
  5
254
330
253
100
AcDbEntity
  8
0
 62
     7
420
 16777215
370
    25
100
AcDbVertex
100
AcDb2dVertex
 10
180.5498751718764
 20
116.1000623624681
 30
0.0
  0
VERTEX
  5
255
330
253
100
AcDbEntity
  8
0
 62
     7
420
 16777215
370
    25
100
AcDbVertex
100
AcDb2dVertex
 10
176.2000976122
 20
116.1000623624681
 30
0.0
  0
SEQEND
  5
256
330
253
100
AcDbEntity
  8
0
370
    25
  0
ENDBLK
  5
252
330
24F
100
AcDbEntity
  8
0
100
AcDbBlockEnd
  0
BLOCK
  5
259
330
257
100
AcDbEntity
  8
0
100
AcDbBlockBegin
  2
block 71
 70
     0
 71
     0
 10
0.0
 20
0.0
 30
0.0
  3
block 71
  1

  0
POLYLINE
  5
25B
330
257
100
AcDbEntity
  8
0
 62
     7
420
 16777215
370
    25
100
AcDb2dPolyline
 66
     1
 10
0.0
 20
0.0
 30
0.0
  0
VERTEX
  5
25C
330
25B
100
AcDbEntity
  8
0
 62
     7
420
 16777215
370
    25
100
AcDbVertex
100
AcDb2dVertex
 10
176.2000976122
 20
116.1000623624681
 30
0.0
  0
VERTEX
  5
25D
330
25B
100
AcDbEntity
  8
0
 62
     7
420
 16777215
370
    25
100
AcDbVertex
100
AcDb2dVertex
 10
176.2000976122
 20
114.7998833263348
 30
0.0
  0
SEQEND
  5
25E
330
25B
100
AcDbEntity
  8
0
370
    25
  0
ENDBLK
  5
25A
330
257
100
AcDbEntity
  8
0
100
AcDbBlockEnd
  0
BLOCK
  5
261
330
25F
100
AcDbEntity
  8
0
100
AcDbBlockBegin
  2
block 72
 70
     0
 71
     0
 10
0.0
 20
0.0
 30
0.0
  3
block 72
  1

  0
POLYLINE
  5
263
330
25F
100
AcDbEntity
  8
0
 62
     7
420
 16777215
370
    25
100
AcDb2dPolyline
 66
     1
 10
0.0
 20
0.0
 30
0.0
  0
VERTEX
  5
264
330
263
100
AcDbEntity
  8
0
 62
     7
420
 16777215
370
    25
100
AcDbVertex
100
AcDb2dVertex
 10
176.2000976122
 20
114.7998833263348
 30
0.0
  0
VERTEX
  5
265
330
263
100
AcDbEntity
  8
0
 62
     7
420
 16777215
370
    25
100
AcDbVertex
100
AcDb2dVertex
 10
173.2001084636444
 20
114.7998833263348
 30
0.0
  0
SEQEND
  5
266
330
263
100
AcDbEntity
  8
0
370
    25
  0
ENDBLK
  5
262
330
25F
100
AcDbEntity
  8
0
100
AcDbBlockEnd
  0
BLOCK
  5
269
330
267
100
AcDbEntity
  8
0
100
AcDbBlockBegin
  2
block 73
 70
     0
 71
     0
 10
0.0
 20
0.0
 30
0.0
  3
block 73
  1

  0
POLYLINE
  5
26B
330
267
100
AcDbEntity
  8
0
 62
     7
420
 16777215
370
    25
100
AcDb2dPolyline
 66
     1
 10
0.0
 20
0.0
 30
0.0
  0
VERTEX
  5
26C
330
26B
100
AcDbEntity
  8
0
 62
     7
420
 16777215
370
    25
100
AcDbVertex
100
AcDb2dVertex
 10
173.2001084636444
 20
114.7998833263348
 30
0.0
  0
VERTEX
  5
26D
330
26B
100
AcDbEntity
  8
0
 62
     7
420
 16777215
370
    25
100
AcDbVertex
100
AcDb2dVertex
 10
173.2001084636444
 20
116.1000623624681
 30
0.0
  0
SEQEND
  5
26E
330
26B
100
AcDbEntity
  8
0
370
    25
  0
ENDBLK
  5
26A
330
267
100
AcDbEntity
  8
0
100
AcDbBlockEnd
  0
BLOCK
  5
271
330
26F
100
AcDbEntity
  8
0
100
AcDbBlockBegin
  2
block 74
 70
     0
 71
     0
 10
0.0
 20
0.0
 30
0.0
  3
block 74
  1

  0
POLYLINE
  5
273
330
26F
100
AcDbEntity
  8
0
 62
     7
420
 16777215
370
    25
100
AcDb2dPolyline
 66
     1
 10
0.0
 20
0.0
 30
0.0
  0
VERTEX
  5
274
330
273
100
AcDbEntity
  8
0
 62
     7
420
 16777215
370
    25
100
AcDbVertex
100
AcDb2dVertex
 10
173.2001084636444
 20
116.1000623624681
 30
0.0
  0
VERTEX
  5
275
330
273
100
AcDbEntity
  8
0
 62
     7
420
 16777215
370
    25
100
AcDbVertex
100
AcDb2dVertex
 10
170.2001193150889
 20
116.1000623624681
 30
0.0
  0
SEQEND
  5
276
330
273
100
AcDbEntity
  8
0
370
    25
  0
ENDBLK
  5
272
330
26F
100
AcDbEntity
  8
0
100
AcDbBlockEnd
  0
BLOCK
  5
279
330
277
100
AcDbEntity
  8
0
100
AcDbBlockBegin
  2
block 75
 70
     0
 71
     0
 10
0.0
 20
0.0
 30
0.0
  3
block 75
  1

  0
POLYLINE
  5
27B
330
277
100
AcDbEntity
  8
0
 62
     7
420
 16777215
370
    25
100
AcDb2dPolyline
 66
     1
 10
0.0
 20
0.0
 30
0.0
  0
VERTEX
  5
27C
330
27B
100
AcDbEntity
  8
0
 62
     7
420
 16777215
370
    25
100
AcDbVertex
100
AcDb2dVertex
 10
170.2001193150889
 20
116.1000623624681
 30
0.0
  0
VERTEX
  5
27D
330
27B
100
AcDbEntity
  8
0
 62
     7
420
 16777215
370
    25
100
AcDbVertex
100
AcDb2dVertex
 10
170.2001193150889
 20
119.2998670491681
 30
0.0
  0
SEQEND
  5
27E
330
27B
100
AcDbEntity
  8
0
370
    25
  0
ENDBLK
  5
27A
330
277
100
AcDbEntity
  8
0
100
AcDbBlockEnd
  0
BLOCK
  5
281
330
27F
100
AcDbEntity
  8
0
100
AcDbBlockBegin
  2
block 76
 70
     0
 71
     0
 10
0.0
 20
0.0
 30
0.0
  3
block 76
  1

  0
POLYLINE
  5
283
330
27F
100
AcDbEntity
  8
0
 62
     7
420
 16777215
370
    25
100
AcDb2dPolyline
 66
     1
 10
0.0
 20
0.0
 30
0.0
  0
VERTEX
  5
284
330
283
100
AcDbEntity
  8
0
 62
     7
420
 16777215
370
    25
100
AcDbVertex
100
AcDb2dVertex
 10
170.2001193150889
 20
119.2998670491681
 30
0.0
  0
VERTEX
  5
285
330
283
100
AcDbEntity
  8
0
 62
     7
420
 16777215
370
    25
100
AcDbVertex
100
AcDb2dVertex
 10
173.2001084636444
 20
119.2998670491681
 30
0.0
  0
SEQEND
  5
286
330
283
100
AcDbEntity
  8
0
370
    25
  0
ENDBLK
  5
282
330
27F
100
AcDbEntity
  8
0
100
AcDbBlockEnd
  0
BLOCK
  5
289
330
287
100
AcDbEntity
  8
0
100
AcDbBlockBegin
  2
block 77
 70
     0
 71
     0
 10
0.0
 20
0.0
 30
0.0
  3
block 77
  1

  0
POLYLINE
  5
28B
330
287
100
AcDbEntity
  8
0
 62
     7
420
 16777215
370
    25
100
AcDb2dPolyline
 66
     1
 10
0.0
 20
0.0
 30
0.0
  0
VERTEX
  5
28C
330
28B
100
AcDbEntity
  8
0
 62
     7
420
 16777215
370
    25
100
AcDbVertex
100
AcDb2dVertex
 10
173.2001084636444
 20
119.2998670491681
 30
0.0
  0
VERTEX
  5
28D
330
28B
100
AcDbEntity
  8
0
 62
     7
420
 16777215
370
    25
100
AcDbVertex
100
AcDb2dVertex
 10
173.2001084636444
 20
120.6000460853014
 30
0.0
  0
SEQEND
  5
28E
330
28B
100
AcDbEntity
  8
0
370
    25
  0
ENDBLK
  5
28A
330
287
100
AcDbEntity
  8
0
100
AcDbBlockEnd
  0
BLOCK
  5
291
330
28F
100
AcDbEntity
  8
0
100
AcDbBlockBegin
  2
block 78
 70
     0
 71
     0
 10
0.0
 20
0.0
 30
0.0
  3
block 78
  1

  0
POLYLINE
  5
293
330
28F
100
AcDbEntity
  8
0
 62
     7
420
 16777215
370
    25
100
AcDb2dPolyline
 66
     1
 10
0.0
 20
0.0
 30
0.0
  0
VERTEX
  5
294
330
293
100
AcDbEntity
  8
0
 62
     7
420
 16777215
370
    25
100
AcDbVertex
100
AcDb2dVertex
 10
173.2001084636444
 20
120.6000460853014
 30
0.0
  0
VERTEX
  5
295
330
293
100
AcDbEntity
  8
0
 62
     7
420
 16777215
370
    25
100
AcDbVertex
100
AcDb2dVertex
 10
176.2000976122
 20
120.6000460853014
 30
0.0
  0
SEQEND
  5
296
330
293
100
AcDbEntity
  8
0
370
    25
  0
ENDBLK
  5
292
330
28F
100
AcDbEntity
  8
0
100
AcDbBlockEnd
  0
BLOCK
  5
299
330
297
100
AcDbEntity
  8
0
100
AcDbBlockBegin
  2
block 79
 70
     0
 71
     0
 10
0.0
 20
0.0
 30
0.0
  3
block 79
  1

  0
POLYLINE
  5
29B
330
297
100
AcDbEntity
  8
0
 62
     7
420
 16777215
370
    25
100
AcDb2dPolyline
 66
     1
 10
0.0
 20
0.0
 30
0.0
  0
VERTEX
  5
29C
330
29B
100
AcDbEntity
  8
0
 62
     7
420
 16777215
370
    25
100
AcDbVertex
100
AcDb2dVertex
 10
176.2000976122
 20
120.6000460853014
 30
0.0
  0
VERTEX
  5
29D
330
29B
100
AcDbEntity
  8
0
 62
     7
420
 16777215
370
    25
100
AcDbVertex
100
AcDb2dVertex
 10
176.2000976122
 20
119.2998670491681
 30
0.0
  0
SEQEND
  5
29E
330
29B
100
AcDbEntity
  8
0
370
    25
  0
ENDBLK
  5
29A
330
297
100
AcDbEntity
  8
0
100
AcDbBlockEnd
  0
BLOCK
  5
2A1
330
29F
100
AcDbEntity
  8
0
100
AcDbBlockBegin
  2
block 80
 70
     0
 71
     0
 10
0.0
 20
0.0
 30
0.0
  3
block 80
  1

  0
POLYLINE
  5
2A3
330
29F
100
AcDbEntity
  8
0
 62
     7
420
 16777215
370
    25
100
AcDb2dPolyline
 66
     1
 10
0.0
 20
0.0
 30
0.0
  0
VERTEX
  5
2A4
330
2A3
100
AcDbEntity
  8
0
 62
     7
420
 16777215
370
    25
100
AcDbVertex
100
AcDb2dVertex
 10
176.2000976122
 20
119.2998670491681
 30
0.0
  0
VERTEX
  5
2A5
330
2A3
100
AcDbEntity
  8
0
 62
     7
420
 16777215
370
    25
100
AcDbVertex
100
AcDb2dVertex
 10
180.5498751718764
 20
119.2998670491681
 30
0.0
  0
SEQEND
  5
2A6
330
2A3
100
AcDbEntity
  8
0
370
    25
  0
ENDBLK
  5
2A2
330
29F
100
AcDbEntity
  8
0
100
AcDbBlockEnd
  0
BLOCK
  5
2A9
330
2A7
100
AcDbEntity
  8
0
100
AcDbBlockBegin
  2
block 81
 70
     0
 71
     0
 10
0.0
 20
0.0
 30
0.0
  3
block 81
  1

  0
POLYLINE
  5
2AB
330
2A7
100
AcDbEntity
  8
0
 62
     7
420
 16777215
370
    25
100
AcDb2dPolyline
 66
     1
 10
0.0
 20
0.0
 30
0.0
  0
VERTEX
  5
2AC
330
2AB
100
AcDbEntity
  8
0
 62
     7
420
 16777215
370
    25
100
AcDbVertex
100
AcDb2dVertex
 10
180.5498751718764
 20
119.2998670491681
 30
0.0
  0
VERTEX
  5
2AD
330
2AB
100
AcDbEntity
  8
0
 62
     7
420
 16777215
370
    25
100
AcDbVertex
100
AcDb2dVertex
 10
180.5498751718764
 20
123.6999430029292
 30
0.0
  0
SEQEND
  5
2AE
330
2AB
100
AcDbEntity
  8
0
370
    25
  0
ENDBLK
  5
2AA
330
2A7
100
AcDbEntity
  8
0
100
AcDbBlockEnd
  0
BLOCK
  5
2B1
330
2AF
100
AcDbEntity
  8
0
100
AcDbBlockBegin
  2
block 82
 70
     0
 71
     0
 10
0.0
 20
0.0
 30
0.0
  3
block 82
  1

  0
POLYLINE
  5
2B3
330
2AF
100
AcDbEntity
  8
0
 62
     7
420
 16777215
370
    25
100
AcDb2dPolyline
 66
     1
 10
0.0
 20
0.0
 30
0.0
  0
VERTEX
  5
2B4
330
2B3
100
AcDbEntity
  8
0
 62
     7
420
 16777215
370
    25
100
AcDbVertex
100
AcDb2dVertex
 10
180.5498751718764
 20
123.6999430029292
 30
0.0
  0
VERTEX
  5
2B5
330
2B3
100
AcDbEntity
  8
0
 62
     7
420
 16777215
370
    25
100
AcDbVertex
100
AcDb2dVertex
 10
186.14987788315
 20
123.6999430029292
 30
0.0
  0
SEQEND
  5
2B6
330
2B3
100
AcDbEntity
  8
0
370
    25
  0
ENDBLK
  5
2B2
330
2AF
100
AcDbEntity
  8
0
100
AcDbBlockEnd
  0
BLOCK
  5
2B9
330
2B7
100
AcDbEntity
  8
0
100
AcDbBlockBegin
  2
block 83
 70
     0
 71
     0
 10
0.0
 20
0.0
 30
0.0
  3
block 83
  1

  0
POLYLINE
  5
2BB
330
2B7
100
AcDbEntity
  8
0
 62
     7
420
 16777215
370
    25
100
AcDb2dPolyline
 66
     1
 10
0.0
 20
0.0
 30
0.0
  0
VERTEX
  5
2BC
330
2BB
100
AcDbEntity
  8
0
 62
     7
420
 16777215
370
    25
100
AcDbVertex
100
AcDb2dVertex
 10
186.14987788315
 20
123.6999430029292
 30
0.0
  0
VERTEX
  5
2BD
330
2BB
100
AcDbEntity
  8
0
 62
     7
420
 16777215
370
    25
100
AcDbVertex
100
AcDb2dVertex
 10
186.14987788315
 20
135.6998995971514
 30
0.0
  0
SEQEND
  5
2BE
330
2BB
100
AcDbEntity
  8
0
370
    25
  0
ENDBLK
  5
2BA
330
2B7
100
AcDbEntity
  8
0
100
AcDbBlockEnd
  0
BLOCK
  5
2C1
330
2BF
100
AcDbEntity
  8
0
100
AcDbBlockBegin
  2
block 84
 70
     0
 71
     0
 10
0.0
 20
0.0
 30
0.0
  3
block 84
  1

  0
POLYLINE
  5
2C3
330
2BF
100
AcDbEntity
  8
0
 62
     7
420
 16777215
370
    25
100
AcDb2dPolyline
 66
     1
 10
0.0
 20
0.0
 30
0.0
  0
VERTEX
  5
2C4
330
2C3
100
AcDbEntity
  8
0
 62
     7
420
 16777215
370
    25
100
AcDbVertex
100
AcDb2dVertex
 10
186.14987788315
 20
135.6998995971514
 30
0.0
  0
VERTEX
  5
2C5
330
2C3
100
AcDbEntity
  8
0
 62
     7
420
 16777215
370
    25
100
AcDbVertex
100
AcDb2dVertex
 10
180.5498751718764
 20
135.6998995971514
 30
0.0
  0
SEQEND
  5
2C6
330
2C3
100
AcDbEntity
  8
0
370
    25
  0
ENDBLK
  5
2C2
330
2BF
100
AcDbEntity
  8
0
100
AcDbBlockEnd
  0
BLOCK
  5
2C9
330
2C7
100
AcDbEntity
  8
0
100
AcDbBlockBegin
  2
block 85
 70
     0
 71
     0
 10
0.0
 20
0.0
 30
0.0
  3
block 85
  1

  0
POLYLINE
  5
2CB
330
2C7
100
AcDbEntity
  8
0
 62
     7
420
 16777215
370
    25
100
AcDb2dPolyline
 66
     1
 10
0.0
 20
0.0
 30
0.0
  0
VERTEX
  5
2CC
330
2CB
100
AcDbEntity
  8
0
 62
     7
420
 16777215
370
    25
100
AcDbVertex
100
AcDb2dVertex
 10
180.5498751718764
 20
135.6998995971514
 30
0.0
  0
VERTEX
  5
2CD
330
2CB
100
AcDbEntity
  8
0
 62
     7
420
 16777215
370
    25
100
AcDbVertex
100
AcDb2dVertex
 10
180.5498751718764
 20
147.7000284461479
 30
0.0
  0
SEQEND
  5
2CE
330
2CB
100
AcDbEntity
  8
0
370
    25
  0
ENDBLK
  5
2CA
330
2C7
100
AcDbEntity
  8
0
100
AcDbBlockEnd
  0
BLOCK
  5
2D1
330
2CF
100
AcDbEntity
  8
0
100
AcDbBlockBegin
  2
block 86
 70
     0
 71
     0
 10
0.0
 20
0.0
 30
0.0
  3
block 86
  1

  0
POLYLINE
  5
2D3
330
2CF
100
AcDbEntity
  8
0
 62
     7
420
 16777215
370
    25
100
AcDb2dPolyline
 66
     1
 10
0.0
 20
0.0
 30
0.0
  0
VERTEX
  5
2D4
330
2D3
100
AcDbEntity
  8
0
 62
     7
420
 16777215
370
    25
100
AcDbVertex
100
AcDb2dVertex
 10
180.5498751718764
 20
147.7000284461479
 30
0.0
  0
VERTEX
  5
2D5
330
2D3
100
AcDbEntity
  8
0
 62
     7
420
 16777215
370
    25
100
AcDbVertex
100
AcDb2dVertex
 10
186.14987788315
 20
147.7000284461479
 30
0.0
  0
SEQEND
  5
2D6
330
2D3
100
AcDbEntity
  8
0
370
    25
  0
ENDBLK
  5
2D2
330
2CF
100
AcDbEntity
  8
0
100
AcDbBlockEnd
  0
BLOCK
  5
2D9
330
2D7
100
AcDbEntity
  8
0
100
AcDbBlockBegin
  2
block 87
 70
     0
 71
     0
 10
0.0
 20
0.0
 30
0.0
  3
block 87
  1

  0
POLYLINE
  5
2DB
330
2D7
100
AcDbEntity
  8
0
 62
     7
420
 16777215
370
    25
100
AcDb2dPolyline
 66
     1
 10
0.0
 20
0.0
 30
0.0
  0
VERTEX
  5
2DC
330
2DB
100
AcDbEntity
  8
0
 62
     7
420
 16777215
370
    25
100
AcDbVertex
100
AcDb2dVertex
 10
186.14987788315
 20
147.7000284461479
 30
0.0
  0
VERTEX
  5
2DD
330
2DB
100
AcDbEntity
  8
0
 62
     7
420
 16777215
370
    25
100
AcDbVertex
100
AcDb2dVertex
 10
186.14987788315
 20
159.6999850403701
 30
0.0
  0
SEQEND
  5
2DE
330
2DB
100
AcDbEntity
  8
0
370
    25
  0
ENDBLK
  5
2DA
330
2D7
100
AcDbEntity
  8
0
100
AcDbBlockEnd
  0
BLOCK
  5
2E1
330
2DF
100
AcDbEntity
  8
0
100
AcDbBlockBegin
  2
block 88
 70
     0
 71
     0
 10
0.0
 20
0.0
 30
0.0
  3
block 88
  1

  0
POLYLINE
  5
2E3
330
2DF
100
AcDbEntity
  8
0
 62
     7
420
 16777215
370
    25
100
AcDb2dPolyline
 66
     1
 10
0.0
 20
0.0
 30
0.0
  0
VERTEX
  5
2E4
330
2E3
100
AcDbEntity
  8
0
 62
     7
420
 16777215
370
    25
100
AcDbVertex
100
AcDb2dVertex
 10
186.14987788315
 20
159.6999850403701
 30
0.0
  0
VERTEX
  5
2E5
330
2E3
100
AcDbEntity
  8
0
 62
     7
420
 16777215
370
    25
100
AcDbVertex
100
AcDb2dVertex
 10
180.5498751718764
 20
159.6999850403701
 30
0.0
  0
SEQEND
  5
2E6
330
2E3
100
AcDbEntity
  8
0
370
    25
  0
ENDBLK
  5
2E2
330
2DF
100
AcDbEntity
  8
0
100
AcDbBlockEnd
  0
BLOCK
  5
2E9
330
2E7
100
AcDbEntity
  8
0
100
AcDbBlockBegin
  2
block 89
 70
     0
 71
     0
 10
0.0
 20
0.0
 30
0.0
  3
block 89
  1

  0
POLYLINE
  5
2EB
330
2E7
100
AcDbEntity
  8
0
 62
     7
420
 16777215
370
    25
100
AcDb2dPolyline
 66
     1
 10
0.0
 20
0.0
 30
0.0
  0
VERTEX
  5
2EC
330
2EB
100
AcDbEntity
  8
0
 62
     7
420
 16777215
370
    25
100
AcDbVertex
100
AcDb2dVertex
 10
180.5498751718764
 20
159.6999850403701
 30
0.0
  0
VERTEX
  5
2ED
330
2EB
100
AcDbEntity
  8
0
 62
     7
420
 16777215
370
    25
100
AcDbVertex
100
AcDb2dVertex
 10
180.5498751718764
 20
171.6999416345924
 30
0.0
  0
SEQEND
  5
2EE
330
2EB
100
AcDbEntity
  8
0
370
    25
  0
ENDBLK
  5
2EA
330
2E7
100
AcDbEntity
  8
0
100
AcDbBlockEnd
  0
BLOCK
  5
2F1
330
2EF
100
AcDbEntity
  8
0
100
AcDbBlockBegin
  2
block 90
 70
     0
 71
     0
 10
0.0
 20
0.0
 30
0.0
  3
block 90
  1

  0
POLYLINE
  5
2F3
330
2EF
100
AcDbEntity
  8
0
 62
     7
420
 16777215
370
    25
100
AcDb2dPolyline
 66
     1
 10
0.0
 20
0.0
 30
0.0
  0
VERTEX
  5
2F4
330
2F3
100
AcDbEntity
  8
0
 62
     7
420
 16777215
370
    25
100
AcDbVertex
100
AcDb2dVertex
 10
180.5498751718764
 20
171.6999416345924
 30
0.0
  0
VERTEX
  5
2F5
330
2F3
100
AcDbEntity
  8
0
 62
     7
420
 16777215
370
    25
100
AcDbVertex
100
AcDb2dVertex
 10
186.14987788315
 20
171.6999416345924
 30
0.0
  0
SEQEND
  5
2F6
330
2F3
100
AcDbEntity
  8
0
370
    25
  0
ENDBLK
  5
2F2
330
2EF
100
AcDbEntity
  8
0
100
AcDbBlockEnd
  0
BLOCK
  5
2F9
330
2F7
100
AcDbEntity
  8
0
100
AcDbBlockBegin
  2
block 91
 70
     0
 71
     0
 10
0.0
 20
0.0
 30
0.0
  3
block 91
  1

  0
POLYLINE
  5
2FB
330
2F7
100
AcDbEntity
  8
0
 62
     7
420
 16777215
370
    25
100
AcDb2dPolyline
 66
     1
 10
0.0
 20
0.0
 30
0.0
  0
VERTEX
  5
2FC
330
2FB
100
AcDbEntity
  8
0
 62
     7
420
 16777215
370
    25
100
AcDbVertex
100
AcDb2dVertex
 10
186.14987788315
 20
171.6999416345924
 30
0.0
  0
VERTEX
  5
2FD
330
2FB
100
AcDbEntity
  8
0
 62
     7
420
 16777215
370
    25
100
AcDbVertex
100
AcDb2dVertex
 10
186.14987788315
 20
183.7000704835889
 30
0.0
  0
SEQEND
  5
2FE
330
2FB
100
AcDbEntity
  8
0
370
    25
  0
ENDBLK
  5
2FA
330
2F7
100
AcDbEntity
  8
0
100
AcDbBlockEnd
  0
BLOCK
  5
301
330
2FF
100
AcDbEntity
  8
0
100
AcDbBlockBegin
  2
block 92
 70
     0
 71
     0
 10
0.0
 20
0.0
 30
0.0
  3
block 92
  1

  0
POLYLINE
  5
303
330
2FF
100
AcDbEntity
  8
0
 62
     7
420
 16777215
370
    25
100
AcDb2dPolyline
 66
     1
 10
0.0
 20
0.0
 30
0.0
  0
VERTEX
  5
304
330
303
100
AcDbEntity
  8
0
 62
     7
420
 16777215
370
    25
100
AcDbVertex
100
AcDb2dVertex
 10
186.14987788315
 20
183.7000704835889
 30
0.0
  0
VERTEX
  5
305
330
303
100
AcDbEntity
  8
0
 62
     7
420
 16777215
370
    25
100
AcDbVertex
100
AcDb2dVertex
 10
180.5498751718764
 20
183.7000704835889
 30
0.0
  0
SEQEND
  5
306
330
303
100
AcDbEntity
  8
0
370
    25
  0
ENDBLK
  5
302
330
2FF
100
AcDbEntity
  8
0
100
AcDbBlockEnd
  0
BLOCK
  5
309
330
307
100
AcDbEntity
  8
0
100
AcDbBlockBegin
  2
block 93
 70
     0
 71
     0
 10
0.0
 20
0.0
 30
0.0
  3
block 93
  1

  0
POLYLINE
  5
30B
330
307
100
AcDbEntity
  8
0
 62
     7
420
 16777215
370
    25
100
AcDb2dPolyline
 66
     1
 10
0.0
 20
0.0
 30
0.0
  0
VERTEX
  5
30C
330
30B
100
AcDbEntity
  8
0
 62
     7
420
 16777215
370
    25
100
AcDbVertex
100
AcDb2dVertex
 10
180.5498751718764
 20
183.7000704835889
 30
0.0
  0
VERTEX
  5
30D
330
30B
100
AcDbEntity
  8
0
 62
     7
420
 16777215
370
    25
100
AcDbVertex
100
AcDb2dVertex
 10
180.5498751718764
 20
188.0999741825757
 30
0.0
  0
SEQEND
  5
30E
330
30B
100
AcDbEntity
  8
0
370
    25
  0
ENDBLK
  5
30A
330
307
100
AcDbEntity
  8
0
100
AcDbBlockEnd
  0
BLOCK
  5
311
330
30F
100
AcDbEntity
  8
0
100
AcDbBlockBegin
  2
block 94
 70
     0
 71
     0
 10
0.0
 20
0.0
 30
0.0
  3
block 94
  1

  0
POLYLINE
  5
313
330
30F
100
AcDbEntity
  8
0
 62
     7
420
 16777215
370
    25
100
AcDb2dPolyline
 66
     1
 10
0.0
 20
0.0
 30
0.0
  0
VERTEX
  5
314
330
313
100
AcDbEntity
  8
0
 62
     7
420
 16777215
370
    25
100
AcDbVertex
100
AcDb2dVertex
 10
180.5498751718764
 20
188.0999741825757
 30
0.0
  0
VERTEX
  5
315
330
313
100
AcDbEntity
  8
0
 62
     7
420
 16777215
370
    25
100
AcDbVertex
100
AcDb2dVertex
 10
176.2000976122
 20
188.0999741825757
 30
0.0
  0
SEQEND
  5
316
330
313
100
AcDbEntity
  8
0
370
    25
  0
ENDBLK
  5
312
330
30F
100
AcDbEntity
  8
0
100
AcDbBlockEnd
  0
BLOCK
  5
319
330
317
100
AcDbEntity
  8
0
100
AcDbBlockBegin
  2
block 95
 70
     0
 71
     0
 10
0.0
 20
0.0
 30
0.0
  3
block 95
  1

  0
POLYLINE
  5
31B
330
317
100
AcDbEntity
  8
0
 62
     7
420
 16777215
370
    25
100
AcDb2dPolyline
 66
     1
 10
0.0
 20
0.0
 30
0.0
  0
VERTEX
  5
31C
330
31B
100
AcDbEntity
  8
0
 62
     7
420
 16777215
370
    25
100
AcDbVertex
100
AcDb2dVertex
 10
176.2000976122
 20
188.0999741825757
 30
0.0
  0
VERTEX
  5
31D
330
31B
100
AcDbEntity
  8
0
 62
     7
420
 16777215
370
    25
100
AcDbVertex
100
AcDb2dVertex
 10
176.2000976122
 20
186.7999674012167
 30
0.0
  0
SEQEND
  5
31E
330
31B
100
AcDbEntity
  8
0
370
    25
  0
ENDBLK
  5
31A
330
317
100
AcDbEntity
  8
0
100
AcDbBlockEnd
  0
BLOCK
  5
321
330
31F
100
AcDbEntity
  8
0
100
AcDbBlockBegin
  2
block 96
 70
     0
 71
     0
 10
0.0
 20
0.0
 30
0.0
  3
block 96
  1

  0
POLYLINE
  5
323
330
31F
100
AcDbEntity
  8
0
 62
     7
420
 16777215
370
    25
100
AcDb2dPolyline
 66
     1
 10
0.0
 20
0.0
 30
0.0
  0
VERTEX
  5
324
330
323
100
AcDbEntity
  8
0
 62
     7
420
 16777215
370
    25
100
AcDbVertex
100
AcDb2dVertex
 10
176.2000976122
 20
186.7999674012167
 30
0.0
  0
VERTEX
  5
325
330
323
100
AcDbEntity
  8
0
 62
     7
420
 16777215
370
    25
100
AcDbVertex
100
AcDb2dVertex
 10
173.2001084636444
 20
186.7999674012167
 30
0.0
  0
SEQEND
  5
326
330
323
100
AcDbEntity
  8
0
370
    25
  0
ENDBLK
  5
322
330
31F
100
AcDbEntity
  8
0
100
AcDbBlockEnd
  0
BLOCK
  5
329
330
327
100
AcDbEntity
  8
0
100
AcDbBlockBegin
  2
block 97
 70
     0
 71
     0
 10
0.0
 20
0.0
 30
0.0
  3
block 97
  1

  0
POLYLINE
  5
32B
330
327
100
AcDbEntity
  8
0
 62
     7
420
 16777215
370
    25
100
AcDb2dPolyline
 66
     1
 10
0.0
 20
0.0
 30
0.0
  0
VERTEX
  5
32C
330
32B
100
AcDbEntity
  8
0
 62
     7
420
 16777215
370
    25
100
AcDbVertex
100
AcDb2dVertex
 10
173.2001084636444
 20
186.7999674012167
 30
0.0
  0
VERTEX
  5
32D
330
32B
100
AcDbEntity
  8
0
 62
     7
420
 16777215
370
    25
100
AcDbVertex
100
AcDb2dVertex
 10
173.2001084636444
 20
188.0999741825757
 30
0.0
  0
SEQEND
  5
32E
330
32B
100
AcDbEntity
  8
0
370
    25
  0
ENDBLK
  5
32A
330
327
100
AcDbEntity
  8
0
100
AcDbBlockEnd
  0
BLOCK
  5
331
330
32F
100
AcDbEntity
  8
0
100
AcDbBlockBegin
  2
block 98
 70
     0
 71
     0
 10
0.0
 20
0.0
 30
0.0
  3
block 98
  1

  0
POLYLINE
  5
333
330
32F
100
AcDbEntity
  8
0
 62
     7
420
 16777215
370
    25
100
AcDb2dPolyline
 66
     1
 10
0.0
 20
0.0
 30
0.0
  0
VERTEX
  5
334
330
333
100
AcDbEntity
  8
0
 62
     7
420
 16777215
370
    25
100
AcDbVertex
100
AcDb2dVertex
 10
173.2001084636444
 20
188.0999741825757
 30
0.0
  0
VERTEX
  5
335
330
333
100
AcDbEntity
  8
0
 62
     7
420
 16777215
370
    25
100
AcDbVertex
100
AcDb2dVertex
 10
170.2001193150889
 20
188.0999741825757
 30
0.0
  0
SEQEND
  5
336
330
333
100
AcDbEntity
  8
0
370
    25
  0
ENDBLK
  5
332
330
32F
100
AcDbEntity
  8
0
100
AcDbBlockEnd
  0
BLOCK
  5
339
330
337
100
AcDbEntity
  8
0
100
AcDbBlockBegin
  2
block 99
 70
     0
 71
     0
 10
0.0
 20
0.0
 30
0.0
  3
block 99
  1

  0
POLYLINE
  5
33B
330
337
100
AcDbEntity
  8
0
 62
     7
420
 16777215
370
    25
100
AcDb2dPolyline
 66
     1
 10
0.0
 20
0.0
 30
0.0
  0
VERTEX
  5
33C
330
33B
100
AcDbEntity
  8
0
 62
     7
420
 16777215
370
    25
100
AcDbVertex
100
AcDb2dVertex
 10
170.2001193150889
 20
188.0999741825757
 30
0.0
  0
VERTEX
  5
33D
330
33B
100
AcDbEntity
  8
0
 62
     7
420
 16777215
370
    25
100
AcDbVertex
100
AcDb2dVertex
 10
170.2001193150889
 20
191.29995112405
 30
0.0
  0
SEQEND
  5
33E
330
33B
100
AcDbEntity
  8
0
370
    25
  0
ENDBLK
  5
33A
330
337
100
AcDbEntity
  8
0
100
AcDbBlockEnd
  0
BLOCK
  5
341
330
33F
100
AcDbEntity
  8
0
100
AcDbBlockBegin
  2
block 100
 70
     0
 71
     0
 10
0.0
 20
0.0
 30
0.0
  3
block 100
  1

  0
POLYLINE
  5
343
330
33F
100
AcDbEntity
  8
0
 62
     7
420
 16777215
370
    25
100
AcDb2dPolyline
 66
     1
 10
0.0
 20
0.0
 30
0.0
  0
VERTEX
  5
344
330
343
100
AcDbEntity
  8
0
 62
     7
420
 16777215
370
    25
100
AcDbVertex
100
AcDb2dVertex
 10
170.2001193150889
 20
191.29995112405
 30
0.0
  0
VERTEX
  5
345
330
343
100
AcDbEntity
  8
0
 62
     7
420
 16777215
370
    25
100
AcDbVertex
100
AcDb2dVertex
 10
173.2001084636444
 20
191.29995112405
 30
0.0
  0
SEQEND
  5
346
330
343
100
AcDbEntity
  8
0
370
    25
  0
ENDBLK
  5
342
330
33F
100
AcDbEntity
  8
0
100
AcDbBlockEnd
  0
BLOCK
  5
349
330
347
100
AcDbEntity
  8
0
100
AcDbBlockBegin
  2
block 101
 70
     0
 71
     0
 10
0.0
 20
0.0
 30
0.0
  3
block 101
  1

  0
POLYLINE
  5
34B
330
347
100
AcDbEntity
  8
0
 62
     7
420
 16777215
370
    25
100
AcDb2dPolyline
 66
     1
 10
0.0
 20
0.0
 30
0.0
  0
VERTEX
  5
34C
330
34B
100
AcDbEntity
  8
0
 62
     7
420
 16777215
370
    25
100
AcDbVertex
100
AcDb2dVertex
 10
173.2001084636444
 20
191.29995112405
 30
0.0
  0
VERTEX
  5
34D
330
34B
100
AcDbEntity
  8
0
 62
     7
420
 16777215
370
    25
100
AcDbVertex
100
AcDb2dVertex
 10
173.2001084636444
 20
192.599957905409
 30
0.0
  0
SEQEND
  5
34E
330
34B
100
AcDbEntity
  8
0
370
    25
  0
ENDBLK
  5
34A
330
347
100
AcDbEntity
  8
0
100
AcDbBlockEnd
  0
BLOCK
  5
351
330
34F
100
AcDbEntity
  8
0
100
AcDbBlockBegin
  2
block 102
 70
     0
 71
     0
 10
0.0
 20
0.0
 30
0.0
  3
block 102
  1

  0
POLYLINE
  5
353
330
34F
100
AcDbEntity
  8
0
 62
     7
420
 16777215
370
    25
100
AcDb2dPolyline
 66
     1
 10
0.0
 20
0.0
 30
0.0
  0
VERTEX
  5
354
330
353
100
AcDbEntity
  8
0
 62
     7
420
 16777215
370
    25
100
AcDbVertex
100
AcDb2dVertex
 10
173.2001084636444
 20
192.599957905409
 30
0.0
  0
VERTEX
  5
355
330
353
100
AcDbEntity
  8
0
 62
     7
420
 16777215
370
    25
100
AcDbVertex
100
AcDb2dVertex
 10
176.2000976122
 20
192.599957905409
 30
0.0
  0
SEQEND
  5
356
330
353
100
AcDbEntity
  8
0
370
    25
  0
ENDBLK
  5
352
330
34F
100
AcDbEntity
  8
0
100
AcDbBlockEnd
  0
BLOCK
  5
359
330
357
100
AcDbEntity
  8
0
100
AcDbBlockBegin
  2
block 103
 70
     0
 71
     0
 10
0.0
 20
0.0
 30
0.0
  3
block 103
  1

  0
POLYLINE
  5
35B
330
357
100
AcDbEntity
  8
0
 62
     7
420
 16777215
370
    25
100
AcDb2dPolyline
 66
     1
 10
0.0
 20
0.0
 30
0.0
  0
VERTEX
  5
35C
330
35B
100
AcDbEntity
  8
0
 62
     7
420
 16777215
370
    25
100
AcDbVertex
100
AcDb2dVertex
 10
176.2000976122
 20
192.599957905409
 30
0.0
  0
VERTEX
  5
35D
330
35B
100
AcDbEntity
  8
0
 62
     7
420
 16777215
370
    25
100
AcDbVertex
100
AcDb2dVertex
 10
176.2000976122
 20
191.29995112405
 30
0.0
  0
SEQEND
  5
35E
330
35B
100
AcDbEntity
  8
0
370
    25
  0
ENDBLK
  5
35A
330
357
100
AcDbEntity
  8
0
100
AcDbBlockEnd
  0
BLOCK
  5
361
330
35F
100
AcDbEntity
  8
0
100
AcDbBlockBegin
  2
block 104
 70
     0
 71
     0
 10
0.0
 20
0.0
 30
0.0
  3
block 104
  1

  0
POLYLINE
  5
363
330
35F
100
AcDbEntity
  8
0
 62
     7
420
 16777215
370
    25
100
AcDb2dPolyline
 66
     1
 10
0.0
 20
0.0
 30
0.0
  0
VERTEX
  5
364
330
363
100
AcDbEntity
  8
0
 62
     7
420
 16777215
370
    25
100
AcDbVertex
100
AcDb2dVertex
 10
176.2000976122
 20
191.29995112405
 30
0.0
  0
VERTEX
  5
365
330
363
100
AcDbEntity
  8
0
 62
     7
420
 16777215
370
    25
100
AcDbVertex
100
AcDb2dVertex
 10
180.5498751718764
 20
191.29995112405
 30
0.0
  0
SEQEND
  5
366
330
363
100
AcDbEntity
  8
0
370
    25
  0
ENDBLK
  5
362
330
35F
100
AcDbEntity
  8
0
100
AcDbBlockEnd
  0
BLOCK
  5
369
330
367
100
AcDbEntity
  8
0
100
AcDbBlockBegin
  2
block 105
 70
     0
 71
     0
 10
0.0
 20
0.0
 30
0.0
  3
block 105
  1

  0
POLYLINE
  5
36B
330
367
100
AcDbEntity
  8
0
 62
     7
420
 16777215
370
    25
100
AcDb2dPolyline
 66
     1
 10
0.0
 20
0.0
 30
0.0
  0
VERTEX
  5
36C
330
36B
100
AcDbEntity
  8
0
 62
     7
420
 16777215
370
    25
100
AcDbVertex
100
AcDb2dVertex
 10
180.5498751718764
 20
191.29995112405
 30
0.0
  0
VERTEX
  5
36D
330
36B
100
AcDbEntity
  8
0
 62
     7
420
 16777215
370
    25
100
AcDbVertex
100
AcDb2dVertex
 10
180.5498751718764
 20
195.7000270778111
 30
0.0
  0
SEQEND
  5
36E
330
36B
100
AcDbEntity
  8
0
370
    25
  0
ENDBLK
  5
36A
330
367
100
AcDbEntity
  8
0
100
AcDbBlockEnd
  0
BLOCK
  5
371
330
36F
100
AcDbEntity
  8
0
100
AcDbBlockBegin
  2
block 106
 70
     0
 71
     0
 10
0.0
 20
0.0
 30
0.0
  3
block 106
  1

  0
POLYLINE
  5
373
330
36F
100
AcDbEntity
  8
0
 62
     7
420
 16777215
370
    25
100
AcDb2dPolyline
 66
     1
 10
0.0
 20
0.0
 30
0.0
  0
VERTEX
  5
374
330
373
100
AcDbEntity
  8
0
 62
     7
420
 16777215
370
    25
100
AcDbVertex
100
AcDb2dVertex
 10
180.5498751718764
 20
195.7000270778111
 30
0.0
  0
VERTEX
  5
375
330
373
100
AcDbEntity
  8
0
 62
     7
420
 16777215
370
    25
100
AcDbVertex
100
AcDb2dVertex
 10
186.14987788315
 20
195.7000270778111
 30
0.0
  0
SEQEND
  5
376
330
373
100
AcDbEntity
  8
0
370
    25
  0
ENDBLK
  5
372
330
36F
100
AcDbEntity
  8
0
100
AcDbBlockEnd
  0
BLOCK
  5
379
330
377
100
AcDbEntity
  8
0
100
AcDbBlockBegin
  2
block 107
 70
     0
 71
     0
 10
0.0
 20
0.0
 30
0.0
  3
block 107
  1

  0
POLYLINE
  5
37B
330
377
100
AcDbEntity
  8
0
 62
     7
420
 16777215
370
    25
100
AcDb2dPolyline
 66
     1
 10
0.0
 20
0.0
 30
0.0
  0
VERTEX
  5
37C
330
37B
100
AcDbEntity
  8
0
 62
     7
420
 16777215
370
    25
100
AcDbVertex
100
AcDb2dVertex
 10
186.14987788315
 20
195.7000270778111
 30
0.0
  0
VERTEX
  5
37D
330
37B
100
AcDbEntity
  8
0
 62
     7
420
 16777215
370
    25
100
AcDbVertex
100
AcDb2dVertex
 10
186.14987788315
 20
207.6999836720333
 30
0.0
  0
SEQEND
  5
37E
330
37B
100
AcDbEntity
  8
0
370
    25
  0
ENDBLK
  5
37A
330
377
100
AcDbEntity
  8
0
100
AcDbBlockEnd
  0
BLOCK
  5
381
330
37F
100
AcDbEntity
  8
0
100
AcDbBlockBegin
  2
block 108
 70
     0
 71
     0
 10
0.0
 20
0.0
 30
0.0
  3
block 108
  1

  0
POLYLINE
  5
383
330
37F
100
AcDbEntity
  8
0
 62
     7
420
 16777215
370
    25
100
AcDb2dPolyline
 66
     1
 10
0.0
 20
0.0
 30
0.0
  0
VERTEX
  5
384
330
383
100
AcDbEntity
  8
0
 62
     7
420
 16777215
370
    25
100
AcDbVertex
100
AcDb2dVertex
 10
186.14987788315
 20
207.6999836720333
 30
0.0
  0
VERTEX
  5
385
330
383
100
AcDbEntity
  8
0
 62
     7
420
 16777215
370
    25
100
AcDbVertex
100
AcDb2dVertex
 10
180.5498751718764
 20
207.6999836720333
 30
0.0
  0
SEQEND
  5
386
330
383
100
AcDbEntity
  8
0
370
    25
  0
ENDBLK
  5
382
330
37F
100
AcDbEntity
  8
0
100
AcDbBlockEnd
  0
BLOCK
  5
389
330
387
100
AcDbEntity
  8
0
100
AcDbBlockBegin
  2
block 109
 70
     0
 71
     0
 10
0.0
 20
0.0
 30
0.0
  3
block 109
  1

  0
POLYLINE
  5
38B
330
387
100
AcDbEntity
  8
0
 62
     7
420
 16777215
370
    25
100
AcDb2dPolyline
 66
     1
 10
0.0
 20
0.0
 30
0.0
  0
VERTEX
  5
38C
330
38B
100
AcDbEntity
  8
0
 62
     7
420
 16777215
370
    25
100
AcDbVertex
100
AcDb2dVertex
 10
180.5498751718764
 20
207.6999836720333
 30
0.0
  0
VERTEX
  5
38D
330
38B
100
AcDbEntity
  8
0
 62
     7
420
 16777215
370
    25
100
AcDbVertex
100
AcDb2dVertex
 10
180.5498751718764
 20
214.099937554982
 30
0.0
  0
SEQEND
  5
38E
330
38B
100
AcDbEntity
  8
0
370
    25
  0
ENDBLK
  5
38A
330
387
100
AcDbEntity
  8
0
100
AcDbBlockEnd
  0
BLOCK
  5
391
330
38F
100
AcDbEntity
  8
0
100
AcDbBlockBegin
  2
block 110
 70
     0
 71
     0
 10
0.0
 20
0.0
 30
0.0
  3
block 110
  1

  0
POLYLINE
  5
393
330
38F
100
AcDbEntity
  8
0
 62
     7
420
 16777215
370
    25
100
AcDb2dPolyline
 66
     1
 10
0.0
 20
0.0
 30
0.0
  0
VERTEX
  5
394
330
393
100
AcDbEntity
  8
0
 62
     7
420
 16777215
370
    25
100
AcDbVertex
100
AcDb2dVertex
 10
180.5498751718764
 20
214.099937554982
 30
0.0
  0
VERTEX
  5
395
330
393
100
AcDbEntity
  8
0
 62
     7
420
 16777215
370
    25
100
AcDbVertex
100
AcDb2dVertex
 10
179.9500840478944
 20
214.099937554982
 30
0.0
  0
SEQEND
  5
396
330
393
100
AcDbEntity
  8
0
370
    25
  0
ENDBLK
  5
392
330
38F
100
AcDbEntity
  8
0
100
AcDbBlockEnd
  0
BLOCK
  5
399
330
397
100
AcDbEntity
  8
0
100
AcDbBlockBegin
  2
block 111
 70
     0
 71
     0
 10
0.0
 20
0.0
 30
0.0
  3
block 111
  1

  0
POLYLINE
  5
39B
330
397
100
AcDbEntity
  8
0
 62
     7
420
 16777215
370
    25
100
AcDb2dPolyline
 66
     1
 10
0.0
 20
0.0
 30
0.0
  0
VERTEX
  5
39C
330
39B
100
AcDbEntity
  8
0
 62
     7
420
 16777215
370
    25
100
AcDbVertex
100
AcDb2dVertex
 10
179.9500840478944
 20
214.099937554982
 30
0.0
  0
VERTEX
  5
39D
330
39B
100
AcDbEntity
  8
0
 62
     7
420
 16777215
370
    25
100
AcDbVertex
100
AcDb2dVertex
 10
173.9501057507833
 20
214.099937554982
 30
0.0
  0
SEQEND
  5
39E
330
39B
100
AcDbEntity
  8
0
370
    25
  0
ENDBLK
  5
39A
330
397
100
AcDbEntity
  8
0
100
AcDbBlockEnd
  0
BLOCK
  5
3A1
330
39F
100
AcDbEntity
  8
0
100
AcDbBlockBegin
  2
block 112
 70
     0
 71
     0
 10
0.0
 20
0.0
 30
0.0
  3
block 112
  1

  0
POLYLINE
  5
3A3
330
39F
100
AcDbEntity
  8
0
 62
     7
420
 16777215
370
    25
100
AcDb2dPolyline
 66
     1
 10
0.0
 20
0.0
 30
0.0
  0
VERTEX
  5
3A4
330
3A3
100
AcDbEntity
  8
0
 62
     7
420
 16777215
370
    25
100
AcDbVertex
100
AcDb2dVertex
 10
173.9501057507833
 20
214.099937554982
 30
0.0
  0
VERTEX
  5
3A5
330
3A3
100
AcDbEntity
  8
0
 62
     7
420
 16777215
370
    25
100
AcDbVertex
100
AcDb2dVertex
 10
173.9501057507833
 20
219.6999402662556
 30
0.0
  0
SEQEND
  5
3A6
330
3A3
100
AcDbEntity
  8
0
370
    25
  0
ENDBLK
  5
3A2
330
39F
100
AcDbEntity
  8
0
100
AcDbBlockEnd
  0
BLOCK
  5
3A9
330
3A7
100
AcDbEntity
  8
0
100
AcDbBlockBegin
  2
block 113
 70
     0
 71
     0
 10
0.0
 20
0.0
 30
0.0
  3
block 113
  1

  0
POLYLINE
  5
3AB
330
3A7
100
AcDbEntity
  8
0
 62
     7
420
 16777215
370
    25
100
AcDb2dPolyline
 66
     1
 10
0.0
 20
0.0
 30
0.0
  0
VERTEX
  5
3AC
330
3AB
100
AcDbEntity
  8
0
 62
     7
420
 16777215
370
    25
100
AcDbVertex
100
AcDb2dVertex
 10
173.9501057507833
 20
219.6999402662556
 30
0.0
  0
VERTEX
  5
3AD
330
3AB
100
AcDbEntity
  8
0
 62
     7
420
 16777215
370
    25
100
AcDbVertex
100
AcDb2dVertex
 10
161.9501491565611
 20
219.6999402662556
 30
0.0
  0
SEQEND
  5
3AE
330
3AB
100
AcDbEntity
  8
0
370
    25
  0
ENDBLK
  5
3AA
330
3A7
100
AcDbEntity
  8
0
100
AcDbBlockEnd
  0
BLOCK
  5
3B1
330
3AF
100
AcDbEntity
  8
0
100
AcDbBlockBegin
  2
block 114
 70
     0
 71
     0
 10
0.0
 20
0.0
 30
0.0
  3
block 114
  1

  0
POLYLINE
  5
3B3
330
3AF
100
AcDbEntity
  8
0
 62
     7
420
 16777215
370
    25
100
AcDb2dPolyline
 66
     1
 10
0.0
 20
0.0
 30
0.0
  0
VERTEX
  5
3B4
330
3B3
100
AcDbEntity
  8
0
 62
     7
420
 16777215
370
    25
100
AcDbVertex
100
AcDb2dVertex
 10
161.9501491565611
 20
219.6999402662556
 30
0.0
  0
VERTEX
  5
3B5
330
3B3
100
AcDbEntity
  8
0
 62
     7
420
 16777215
370
    25
100
AcDbVertex
100
AcDb2dVertex
 10
161.9501491565611
 20
214.099937554982
 30
0.0
  0
SEQEND
  5
3B6
330
3B3
100
AcDbEntity
  8
0
370
    25
  0
ENDBLK
  5
3B2
330
3AF
100
AcDbEntity
  8
0
100
AcDbBlockEnd
  0
BLOCK
  5
3B9
330
3B7
100
AcDbEntity
  8
0
100
AcDbBlockBegin
  2
block 115
 70
     0
 71
     0
 10
0.0
 20
0.0
 30
0.0
  3
block 115
  1

  0
POLYLINE
  5
3BB
330
3B7
100
AcDbEntity
  8
0
 62
     7
420
 16777215
370
    25
100
AcDb2dPolyline
 66
     1
 10
0.0
 20
0.0
 30
0.0
  0
VERTEX
  5
3BC
330
3BB
100
AcDbEntity
  8
0
 62
     7
420
 16777215
370
    25
100
AcDbVertex
100
AcDb2dVertex
 10
161.9501491565611
 20
214.099937554982
 30
0.0
  0
VERTEX
  5
3BD
330
3BB
100
AcDbEntity
  8
0
 62
     7
420
 16777215
370
    25
100
AcDbVertex
100
AcDb2dVertex
 10
155.9498263499014
 20
214.099937554982
 30
0.0
  0
SEQEND
  5
3BE
330
3BB
100
AcDbEntity
  8
0
370
    25
  0
ENDBLK
  5
3BA
330
3B7
100
AcDbEntity
  8
0
100
AcDbBlockEnd
  0
BLOCK
  5
3C1
330
3BF
100
AcDbEntity
  8
0
100
AcDbBlockBegin
  2
block 116
 70
     0
 71
     0
 10
0.0
 20
0.0
 30
0.0
  3
block 116
  1

  0
POLYLINE
  5
3C3
330
3BF
100
AcDbEntity
  8
0
 62
     7
420
 16777215
370
    25
100
AcDb2dPolyline
 66
     1
 10
0.0
 20
0.0
 30
0.0
  0
VERTEX
  5
3C4
330
3C3
100
AcDbEntity
  8
0
 62
     7
420
 16777215
370
    25
100
AcDbVertex
100
AcDb2dVertex
 10
155.9498263499014
 20
214.099937554982
 30
0.0
  0
VERTEX
  5
3C5
330
3C3
100
AcDbEntity
  8
0
 62
     7
420
 16777215
370
    25
100
AcDbVertex
100
AcDb2dVertex
 10
149.9498480527903
 20
214.099937554982
 30
0.0
  0
SEQEND
  5
3C6
330
3C3
100
AcDbEntity
  8
0
370
    25
  0
ENDBLK
  5
3C2
330
3BF
100
AcDbEntity
  8
0
100
AcDbBlockEnd
  0
BLOCK
  5
3C9
330
3C7
100
AcDbEntity
  8
0
100
AcDbBlockBegin
  2
block 117
 70
     0
 71
     0
 10
0.0
 20
0.0
 30
0.0
  3
block 117
  1

  0
POLYLINE
  5
3CB
330
3C7
100
AcDbEntity
  8
0
 62
     7
420
 16777215
370
    25
100
AcDb2dPolyline
 66
     1
 10
0.0
 20
0.0
 30
0.0
  0
VERTEX
  5
3CC
330
3CB
100
AcDbEntity
  8
0
 62
     7
420
 16777215
370
    25
100
AcDbVertex
100
AcDb2dVertex
 10
149.9498480527903
 20
214.099937554982
 30
0.0
  0
VERTEX
  5
3CD
330
3CB
100
AcDbEntity
  8
0
 62
     7
420
 16777215
370
    25
100
AcDbVertex
100
AcDb2dVertex
 10
149.9498480527903
 20
219.6999402662556
 30
0.0
  0
SEQEND
  5
3CE
330
3CB
100
AcDbEntity
  8
0
370
    25
  0
ENDBLK
  5
3CA
330
3C7
100
AcDbEntity
  8
0
100
AcDbBlockEnd
  0
BLOCK
  5
3D1
330
3CF
100
AcDbEntity
  8
0
100
AcDbBlockBegin
  2
block 118
 70
     0
 71
     0
 10
0.0
 20
0.0
 30
0.0
  3
block 118
  1

  0
POLYLINE
  5
3D3
330
3CF
100
AcDbEntity
  8
0
 62
     7
420
 16777215
370
    25
100
AcDb2dPolyline
 66
     1
 10
0.0
 20
0.0
 30
0.0
  0
VERTEX
  5
3D4
330
3D3
100
AcDbEntity
  8
0
 62
     7
420
 16777215
370
    25
100
AcDbVertex
100
AcDb2dVertex
 10
149.9498480527903
 20
219.6999402662556
 30
0.0
  0
VERTEX
  5
3D5
330
3D3
100
AcDbEntity
  8
0
 62
     7
420
 16777215
370
    25
100
AcDbVertex
100
AcDb2dVertex
 10
137.9498914585681
 20
219.6999402662556
 30
0.0
  0
SEQEND
  5
3D6
330
3D3
100
AcDbEntity
  8
0
370
    25
  0
ENDBLK
  5
3D2
330
3CF
100
AcDbEntity
  8
0
100
AcDbBlockEnd
  0
BLOCK
  5
3D9
330
3D7
100
AcDbEntity
  8
0
100
AcDbBlockBegin
  2
block 119
 70
     0
 71
     0
 10
0.0
 20
0.0
 30
0.0
  3
block 119
  1

  0
POLYLINE
  5
3DB
330
3D7
100
AcDbEntity
  8
0
 62
     7
420
 16777215
370
    25
100
AcDb2dPolyline
 66
     1
 10
0.0
 20
0.0
 30
0.0
  0
VERTEX
  5
3DC
330
3DB
100
AcDbEntity
  8
0
 62
     7
420
 16777215
370
    25
100
AcDbVertex
100
AcDb2dVertex
 10
137.9498914585681
 20
219.6999402662556
 30
0.0
  0
VERTEX
  5
3DD
330
3DB
100
AcDbEntity
  8
0
 62
     7
420
 16777215
370
    25
100
AcDbVertex
100
AcDb2dVertex
 10
137.9498914585681
 20
214.099937554982
 30
0.0
  0
SEQEND
  5
3DE
330
3DB
100
AcDbEntity
  8
0
370
    25
  0
ENDBLK
  5
3DA
330
3D7
100
AcDbEntity
  8
0
100
AcDbBlockEnd
  0
BLOCK
  5
3E1
330
3DF
100
AcDbEntity
  8
0
100
AcDbBlockBegin
  2
block 120
 70
     0
 71
     0
 10
0.0
 20
0.0
 30
0.0
  3
block 120
  1

  0
POLYLINE
  5
3E3
330
3DF
100
AcDbEntity
  8
0
 62
     7
420
 16777215
370
    25
100
AcDb2dPolyline
 66
     1
 10
0.0
 20
0.0
 30
0.0
  0
VERTEX
  5
3E4
330
3E3
100
AcDbEntity
  8
0
 62
     7
420
 16777215
370
    25
100
AcDbVertex
100
AcDb2dVertex
 10
137.9498914585681
 20
214.099937554982
 30
0.0
  0
VERTEX
  5
3E5
330
3E3
100
AcDbEntity
  8
0
 62
     7
420
 16777215
370
    25
100
AcDbVertex
100
AcDb2dVertex
 10
131.949913161457
 20
214.099937554982
 30
0.0
  0
SEQEND
  5
3E6
330
3E3
100
AcDbEntity
  8
0
370
    25
  0
ENDBLK
  5
3E2
330
3DF
100
AcDbEntity
  8
0
100
AcDbBlockEnd
  0
BLOCK
  5
3E9
330
3E7
100
AcDbEntity
  8
0
100
AcDbBlockBegin
  2
block 121
 70
     0
 71
     0
 10
0.0
 20
0.0
 30
0.0
  3
block 121
  1

  0
POLYLINE
  5
3EB
330
3E7
100
AcDbEntity
  8
0
 62
     7
420
 16777215
370
    25
100
AcDb2dPolyline
 66
     1
 10
0.0
 20
0.0
 30
0.0
  0
VERTEX
  5
3EC
330
3EB
100
AcDbEntity
  8
0
 62
     7
420
 16777215
370
    25
100
AcDbVertex
100
AcDb2dVertex
 10
131.949913161457
 20
214.099937554982
 30
0.0
  0
VERTEX
  5
3ED
330
3EB
100
AcDbEntity
  8
0
 62
     7
420
 16777215
370
    25
100
AcDbVertex
100
AcDb2dVertex
 10
125.9499348643458
 20
214.099937554982
 30
0.0
  0
SEQEND
  5
3EE
330
3EB
100
AcDbEntity
  8
0
370
    25
  0
ENDBLK
  5
3EA
330
3E7
100
AcDbEntity
  8
0
100
AcDbBlockEnd
  0
BLOCK
  5
3F1
330
3EF
100
AcDbEntity
  8
0
100
AcDbBlockBegin
  2
block 122
 70
     0
 71
     0
 10
0.0
 20
0.0
 30
0.0
  3
block 122
  1

  0
POLYLINE
  5
3F3
330
3EF
100
AcDbEntity
  8
0
 62
     7
420
 16777215
370
    25
100
AcDb2dPolyline
 66
     1
 10
0.0
 20
0.0
 30
0.0
  0
VERTEX
  5
3F4
330
3F3
100
AcDbEntity
  8
0
 62
     7
420
 16777215
370
    25
100
AcDbVertex
100
AcDb2dVertex
 10
125.9499348643458
 20
214.099937554982
 30
0.0
  0
VERTEX
  5
3F5
330
3F3
100
AcDbEntity
  8
0
 62
     7
420
 16777215
370
    25
100
AcDbVertex
100
AcDb2dVertex
 10
125.9499348643458
 20
219.6999402662556
 30
0.0
  0
SEQEND
  5
3F6
330
3F3
100
AcDbEntity
  8
0
370
    25
  0
ENDBLK
  5
3F2
330
3EF
100
AcDbEntity
  8
0
100
AcDbBlockEnd
  0
BLOCK
  5
3F9
330
3F7
100
AcDbEntity
  8
0
100
AcDbBlockBegin
  2
block 123
 70
     0
 71
     0
 10
0.0
 20
0.0
 30
0.0
  3
block 123
  1

  0
POLYLINE
  5
3FB
330
3F7
100
AcDbEntity
  8
0
 62
     7
420
 16777215
370
    25
100
AcDb2dPolyline
 66
     1
 10
0.0
 20
0.0
 30
0.0
  0
VERTEX
  5
3FC
330
3FB
100
AcDbEntity
  8
0
 62
     7
420
 16777215
370
    25
100
AcDbVertex
100
AcDb2dVertex
 10
125.9499348643458
 20
219.6999402662556
 30
0.0
  0
VERTEX
  5
3FD
330
3FB
100
AcDbEntity
  8
0
 62
     7
420
 16777215
370
    25
100
AcDbVertex
100
AcDb2dVertex
 10
113.9499782701236
 20
219.6999402662556
 30
0.0
  0
SEQEND
  5
3FE
330
3FB
100
AcDbEntity
  8
0
370
    25
  0
ENDBLK
  5
3FA
330
3F7
100
AcDbEntity
  8
0
100
AcDbBlockEnd
  0
BLOCK
  5
401
330
3FF
100
AcDbEntity
  8
0
100
AcDbBlockBegin
  2
block 124
 70
     0
 71
     0
 10
0.0
 20
0.0
 30
0.0
  3
block 124
  1

  0
POLYLINE
  5
403
330
3FF
100
AcDbEntity
  8
0
 62
     7
420
 16777215
370
    25
100
AcDb2dPolyline
 66
     1
 10
0.0
 20
0.0
 30
0.0
  0
VERTEX
  5
404
330
403
100
AcDbEntity
  8
0
 62
     7
420
 16777215
370
    25
100
AcDbVertex
100
AcDb2dVertex
 10
113.9499782701236
 20
219.6999402662556
 30
0.0
  0
VERTEX
  5
405
330
403
100
AcDbEntity
  8
0
 62
     7
420
 16777215
370
    25
100
AcDbVertex
100
AcDb2dVertex
 10
113.9499782701236
 20
214.099937554982
 30
0.0
  0
SEQEND
  5
406
330
403
100
AcDbEntity
  8
0
370
    25
  0
ENDBLK
  5
402
330
3FF
100
AcDbEntity
  8
0
100
AcDbBlockEnd
  0
BLOCK
  5
409
330
407
100
AcDbEntity
  8
0
100
AcDbBlockBegin
  2
block 125
 70
     0
 71
     0
 10
0.0
 20
0.0
 30
0.0
  3
block 125
  1

  0
POLYLINE
  5
40B
330
407
100
AcDbEntity
  8
0
 62
     7
420
 16777215
370
    25
100
AcDb2dPolyline
 66
     1
 10
0.0
 20
0.0
 30
0.0
  0
VERTEX
  5
40C
330
40B
100
AcDbEntity
  8
0
 62
     7
420
 16777215
370
    25
100
AcDbVertex
100
AcDb2dVertex
 10
113.9499782701236
 20
214.099937554982
 30
0.0
  0
VERTEX
  5
40D
330
40B
100
AcDbEntity
  8
0
 62
     7
420
 16777215
370
    25
100
AcDbVertex
100
AcDb2dVertex
 10
107.9499999730125
 20
214.099937554982
 30
0.0
  0
SEQEND
  5
40E
330
40B
100
AcDbEntity
  8
0
370
    25
  0
ENDBLK
  5
40A
330
407
100
AcDbEntity
  8
0
100
AcDbBlockEnd
  0
BLOCK
  5
411
330
40F
100
AcDbEntity
  8
0
100
AcDbBlockBegin
  2
block 126
 70
     0
 71
     0
 10
0.0
 20
0.0
 30
0.0
  3
block 126
  1

  0
POLYLINE
  5
413
330
40F
100
AcDbEntity
  8
0
 62
     7
420
 16777215
370
    25
100
AcDb2dPolyline
 66
     1
 10
0.0
 20
0.0
 30
0.0
  0
VERTEX
  5
414
330
413
100
AcDbEntity
  8
0
 62
     7
420
 16777215
370
    25
100
AcDbVertex
100
AcDb2dVertex
 10
107.9499999730125
 20
214.099937554982
 30
0.0
  0
VERTEX
  5
415
330
413
100
AcDbEntity
  8
0
 62
     7
420
 16777215
370
    25
100
AcDbVertex
100
AcDb2dVertex
 10
101.9500216759014
 20
214.099937554982
 30
0.0
  0
SEQEND
  5
416
330
413
100
AcDbEntity
  8
0
370
    25
  0
ENDBLK
  5
412
330
40F
100
AcDbEntity
  8
0
100
AcDbBlockEnd
  0
BLOCK
  5
419
330
417
100
AcDbEntity
  8
0
100
AcDbBlockBegin
  2
block 127
 70
     0
 71
     0
 10
0.0
 20
0.0
 30
0.0
  3
block 127
  1

  0
POLYLINE
  5
41B
330
417
100
AcDbEntity
  8
0
 62
     7
420
 16777215
370
    25
100
AcDb2dPolyline
 66
     1
 10
0.0
 20
0.0
 30
0.0
  0
VERTEX
  5
41C
330
41B
100
AcDbEntity
  8
0
 62
     7
420
 16777215
370
    25
100
AcDbVertex
100
AcDb2dVertex
 10
101.9500216759014
 20
214.099937554982
 30
0.0
  0
VERTEX
  5
41D
330
41B
100
AcDbEntity
  8
0
 62
     7
420
 16777215
370
    25
100
AcDbVertex
100
AcDb2dVertex
 10
101.9500216759014
 20
219.6999402662556
 30
0.0
  0
SEQEND
  5
41E
330
41B
100
AcDbEntity
  8
0
370
    25
  0
ENDBLK
  5
41A
330
417
100
AcDbEntity
  8
0
100
AcDbBlockEnd
  0
BLOCK
  5
421
330
41F
100
AcDbEntity
  8
0
100
AcDbBlockBegin
  2
block 128
 70
     0
 71
     0
 10
0.0
 20
0.0
 30
0.0
  3
block 128
  1

  0
POLYLINE
  5
423
330
41F
100
AcDbEntity
  8
0
 62
     7
420
 16777215
370
    25
100
AcDb2dPolyline
 66
     1
 10
0.0
 20
0.0
 30
0.0
  0
VERTEX
  5
424
330
423
100
AcDbEntity
  8
0
 62
     7
420
 16777215
370
    25
100
AcDbVertex
100
AcDb2dVertex
 10
101.9500216759014
 20
219.6999402662556
 30
0.0
  0
VERTEX
  5
425
330
423
100
AcDbEntity
  8
0
 62
     7
420
 16777215
370
    25
100
AcDbVertex
100
AcDb2dVertex
 10
89.95006508167916
 20
219.6999402662556
 30
0.0
  0
SEQEND
  5
426
330
423
100
AcDbEntity
  8
0
370
    25
  0
ENDBLK
  5
422
330
41F
100
AcDbEntity
  8
0
100
AcDbBlockEnd
  0
BLOCK
  5
429
330
427
100
AcDbEntity
  8
0
100
AcDbBlockBegin
  2
block 129
 70
     0
 71
     0
 10
0.0
 20
0.0
 30
0.0
  3
block 129
  1

  0
POLYLINE
  5
42B
330
427
100
AcDbEntity
  8
0
 62
     7
420
 16777215
370
    25
100
AcDb2dPolyline
 66
     1
 10
0.0
 20
0.0
 30
0.0
  0
VERTEX
  5
42C
330
42B
100
AcDbEntity
  8
0
 62
     7
420
 16777215
370
    25
100
AcDbVertex
100
AcDb2dVertex
 10
89.95006508167916
 20
219.6999402662556
 30
0.0
  0
VERTEX
  5
42D
330
42B
100
AcDbEntity
  8
0
 62
     7
420
 16777215
370
    25
100
AcDbVertex
100
AcDb2dVertex
 10
89.95006508167916
 20
214.099937554982
 30
0.0
  0
SEQEND
  5
42E
330
42B
100
AcDbEntity
  8
0
370
    25
  0
ENDBLK
  5
42A
330
427
100
AcDbEntity
  8
0
100
AcDbBlockEnd
  0
BLOCK
  5
431
330
42F
100
AcDbEntity
  8
0
100
AcDbBlockBegin
  2
block 130
 70
     0
 71
     0
 10
0.0
 20
0.0
 30
0.0
  3
block 130
  1

  0
POLYLINE
  5
433
330
42F
100
AcDbEntity
  8
0
 62
     7
420
 16777215
370
    25
100
AcDb2dPolyline
 66
     1
 10
0.0
 20
0.0
 30
0.0
  0
VERTEX
  5
434
330
433
100
AcDbEntity
  8
0
 62
     7
420
 16777215
370
    25
100
AcDbVertex
100
AcDb2dVertex
 10
89.95006508167916
 20
214.099937554982
 30
0.0
  0
VERTEX
  5
435
330
433
100
AcDbEntity
  8
0
 62
     7
420
 16777215
370
    25
100
AcDbVertex
100
AcDb2dVertex
 10
83.95008678456804
 20
214.099937554982
 30
0.0
  0
SEQEND
  5
436
330
433
100
AcDbEntity
  8
0
370
    25
  0
ENDBLK
  5
432
330
42F
100
AcDbEntity
  8
0
100
AcDbBlockEnd
  0
BLOCK
  5
439
330
437
100
AcDbEntity
  8
0
100
AcDbBlockBegin
  2
block 131
 70
     0
 71
     0
 10
0.0
 20
0.0
 30
0.0
  3
block 131
  1

  0
POLYLINE
  5
43B
330
437
100
AcDbEntity
  8
0
 62
     7
420
 16777215
370
    25
100
AcDb2dPolyline
 66
     1
 10
0.0
 20
0.0
 30
0.0
  0
VERTEX
  5
43C
330
43B
100
AcDbEntity
  8
0
 62
     7
420
 16777215
370
    25
100
AcDbVertex
100
AcDb2dVertex
 10
83.95008678456804
 20
214.099937554982
 30
0.0
  0
VERTEX
  5
43D
330
43B
100
AcDbEntity
  8
0
 62
     7
420
 16777215
370
    25
100
AcDbVertex
100
AcDb2dVertex
 10
77.94993623268266
 20
214.099937554982
 30
0.0
  0
SEQEND
  5
43E
330
43B
100
AcDbEntity
  8
0
370
    25
  0
ENDBLK
  5
43A
330
437
100
AcDbEntity
  8
0
100
AcDbBlockEnd
  0
BLOCK
  5
441
330
43F
100
AcDbEntity
  8
0
100
AcDbBlockBegin
  2
block 132
 70
     0
 71
     0
 10
0.0
 20
0.0
 30
0.0
  3
block 132
  1

  0
POLYLINE
  5
443
330
43F
100
AcDbEntity
  8
0
 62
     7
420
 16777215
370
    25
100
AcDb2dPolyline
 66
     1
 10
0.0
 20
0.0
 30
0.0
  0
VERTEX
  5
444
330
443
100
AcDbEntity
  8
0
 62
     7
420
 16777215
370
    25
100
AcDbVertex
100
AcDb2dVertex
 10
77.94993623268266
 20
214.099937554982
 30
0.0
  0
VERTEX
  5
445
330
443
100
AcDbEntity
  8
0
 62
     7
420
 16777215
370
    25
100
AcDbVertex
100
AcDb2dVertex
 10
77.94993623268266
 20
219.6999402662556
 30
0.0
  0
SEQEND
  5
446
330
443
100
AcDbEntity
  8
0
370
    25
  0
ENDBLK
  5
442
330
43F
100
AcDbEntity
  8
0
100
AcDbBlockEnd
  0
BLOCK
  5
449
330
447
100
AcDbEntity
  8
0
100
AcDbBlockBegin
  2
block 133
 70
     0
 71
     0
 10
0.0
 20
0.0
 30
0.0
  3
block 133
  1

  0
POLYLINE
  5
44B
330
447
100
AcDbEntity
  8
0
 62
     7
420
 16777215
370
    25
100
AcDb2dPolyline
 66
     1
 10
0.0
 20
0.0
 30
0.0
  0
VERTEX
  5
44C
330
44B
100
AcDbEntity
  8
0
 62
     7
420
 16777215
370
    25
100
AcDbVertex
100
AcDb2dVertex
 10
77.94993623268266
 20
219.6999402662556
 30
0.0
  0
VERTEX
  5
44D
330
44B
100
AcDbEntity
  8
0
 62
     7
420
 16777215
370
    25
100
AcDbVertex
100
AcDb2dVertex
 10
65.94997963846042
 20
219.6999402662556
 30
0.0
  0
SEQEND
  5
44E
330
44B
100
AcDbEntity
  8
0
370
    25
  0
ENDBLK
  5
44A
330
447
100
AcDbEntity
  8
0
100
AcDbBlockEnd
  0
BLOCK
  5
451
330
44F
100
AcDbEntity
  8
0
100
AcDbBlockBegin
  2
block 134
 70
     0
 71
     0
 10
0.0
 20
0.0
 30
0.0
  3
block 134
  1

  0
POLYLINE
  5
453
330
44F
100
AcDbEntity
  8
0
 62
     7
420
 16777215
370
    25
100
AcDb2dPolyline
 66
     1
 10
0.0
 20
0.0
 30
0.0
  0
VERTEX
  5
454
330
453
100
AcDbEntity
  8
0
 62
     7
420
 16777215
370
    25
100
AcDbVertex
100
AcDb2dVertex
 10
65.94997963846042
 20
219.6999402662556
 30
0.0
  0
VERTEX
  5
455
330
453
100
AcDbEntity
  8
0
 62
     7
420
 16777215
370
    25
100
AcDbVertex
100
AcDb2dVertex
 10
65.94997963846042
 20
214.099937554982
 30
0.0
  0
SEQEND
  5
456
330
453
100
AcDbEntity
  8
0
370
    25
  0
ENDBLK
  5
452
330
44F
100
AcDbEntity
  8
0
100
AcDbBlockEnd
  0
BLOCK
  5
459
330
457
100
AcDbEntity
  8
0
100
AcDbBlockBegin
  2
block 135
 70
     0
 71
     0
 10
0.0
 20
0.0
 30
0.0
  3
block 135
  1

  0
POLYLINE
  5
45B
330
457
100
AcDbEntity
  8
0
 62
     7
420
 16777215
370
    25
100
AcDb2dPolyline
 66
     1
 10
0.0
 20
0.0
 30
0.0
  0
VERTEX
  5
45C
330
45B
100
AcDbEntity
  8
0
 62
     7
420
 16777215
370
    25
100
AcDbVertex
100
AcDb2dVertex
 10
65.94997963846042
 20
214.099937554982
 30
0.0
  0
VERTEX
  5
45D
330
45B
100
AcDbEntity
  8
0
 62
     7
420
 16777215
370
    25
100
AcDbVertex
100
AcDb2dVertex
 10
59.95000134134931
 20
214.099937554982
 30
0.0
  0
SEQEND
  5
45E
330
45B
100
AcDbEntity
  8
0
370
    25
  0
ENDBLK
  5
45A
330
457
100
AcDbEntity
  8
0
100
AcDbBlockEnd
  0
BLOCK
  5
461
330
45F
100
AcDbEntity
  8
0
100
AcDbBlockBegin
  2
block 136
 70
     0
 71
     0
 10
0.0
 20
0.0
 30
0.0
  3
block 136
  1

  0
POLYLINE
  5
463
330
45F
100
AcDbEntity
  8
0
 62
     7
420
 16777215
370
    25
100
AcDb2dPolyline
 66
     1
 10
0.0
 20
0.0
 30
0.0
  0
VERTEX
  5
464
330
463
100
AcDbEntity
  8
0
 62
     7
420
 16777215
370
    25
100
AcDbVertex
100
AcDb2dVertex
 10
59.95000134134931
 20
214.099937554982
 30
0.0
  0
VERTEX
  5
465
330
463
100
AcDbEntity
  8
0
 62
     7
420
 16777215
370
    25
100
AcDbVertex
100
AcDb2dVertex
 10
53.95002304423819
 20
214.099937554982
 30
0.0
  0
SEQEND
  5
466
330
463
100
AcDbEntity
  8
0
370
    25
  0
ENDBLK
  5
462
330
45F
100
AcDbEntity
  8
0
100
AcDbBlockEnd
  0
BLOCK
  5
469
330
467
100
AcDbEntity
  8
0
100
AcDbBlockBegin
  2
block 137
 70
     0
 71
     0
 10
0.0
 20
0.0
 30
0.0
  3
block 137
  1

  0
SPLINE
  5
46B
330
467
100
AcDbEntity
  8
0
 62
     7
420
 16777215
370
    25
100
AcDbSpline
210
0.0
220
0.0
230
1.0
 70
    11
 71
     3
 72
    23
 73
    19
 74
     0
 42
0.0000000001
 43
0.0000000001
 40
0.0
 40
0.0
 40
0.0
 40
0.0
 40
1.0
 40
1.0
 40
1.0
 40
2.0
 40
2.0
 40
2.0
 40
3.0
 40
3.0
 40
3.0
 40
4.0
 40
4.0
 40
4.0
 40
5.0
 40
5.0
 40
5.0
 40
6.0
 40
6.0
 40
6.0
 40
6.0
 10
58.09722898938195
 20
181.0428683358157
 30
0.0
 10
58.09722898938195
 20
182.147538203161
 30
0.0
 10
58.99260930599838
 20
183.0429185197775
 30
0.0
 10
60.09727917334374
 20
183.0429185197775
 30
0.0
 10
61.20177678591484
 20
183.0429185197775
 30
0.0
 10
62.09715710253127
 20
182.147538203161
 30
0.0
 10
62.09715710253127
 20
181.0428683358157
 30
0.0
 10
62.09715710253127
 20
181.0428683358157
 30
0.0
 10
62.09715710253127
 20
173.043012109517
 30
0.0
 10
62.09715710253127
 20
173.043012109517
 30
0.0
 10
62.09715710253127
 20
171.9385144969459
 30
0.0
 10
61.20177678591484
 20
171.042789670781
 30
0.0
 10
60.09727917334374
 20
171.042789670781
 30
0.0
 10
58.99260930599838
 20
171.042789670781
 30
0.0
 10
58.09722898938195
 20
171.9385144969459
 30
0.0
 10
58.09722898938195
 20
173.043012109517
 30
0.0
 10
58.09722898938195
 20
173.043012109517
 30
0.0
 10
58.09722898938195
 20
181.0428683358157
 30
0.0
 10
58.09722898938195
 20
181.0428683358157
 30
0.0
  0
ENDBLK
  5
46A
330
467
100
AcDbEntity
  8
0
100
AcDbBlockEnd
  0
BLOCK
  5
46E
330
46C
100
AcDbEntity
  8
0
100
AcDbBlockBegin
  2
block 138
 70
     0
 71
     0
 10
0.0
 20
0.0
 30
0.0
  3
block 138
  1

  0
SPLINE
  5
470
330
46C
100
AcDbEntity
  8
0
 62
     7
420
 16777215
370
    25
100
AcDbSpline
210
0.0
220
0.0
230
1.0
 70
    11
 71
     3
 72
    23
 73
    19
 74
     0
 42
0.0000000001
 43
0.0000000001
 40
0.0
 40
0.0
 40
0.0
 40
0.0
 40
1.0
 40
1.0
 40
1.0
 40
2.0
 40
2.0
 40
2.0
 40
3.0
 40
3.0
 40
3.0
 40
4.0
 40
4.0
 40
4.0
 40
5.0
 40
5.0
 40
5.0
 40
6.0
 40
6.0
 40
6.0
 40
6.0
 10
153.0972872881146
 20
181.0428683358157
 30
0.0
 10
153.0972872881146
 20
182.147538203161
 30
0.0
 10
153.992667604731
 20
183.0429185197775
 30
0.0
 10
155.0971652173021
 20
183.0429185197775
 30
0.0
 10
156.2016628298732
 20
183.0429185197775
 30
0.0
 10
157.0973876560382
 20
182.147538203161
 30
0.0
 10
157.0973876560382
 20
181.0428683358157
 30
0.0
 10
157.0973876560382
 20
181.0428683358157
 30
0.0
 10
157.0973876560382
 20
173.043012109517
 30
0.0
 10
157.0973876560382
 20
173.043012109517
 30
0.0
 10
157.0973876560382
 20
171.9385144969459
 30
0.0
 10
156.2016628298732
 20
171.042789670781
 30
0.0
 10
155.0971652173021
 20
171.042789670781
 30
0.0
 10
153.992667604731
 20
171.042789670781
 30
0.0
 10
153.0972872881146
 20
171.9385144969459
 30
0.0
 10
153.0972872881146
 20
173.043012109517
 30
0.0
 10
153.0972872881146
 20
173.043012109517
 30
0.0
 10
153.0972872881146
 20
181.0428683358157
 30
0.0
 10
153.0972872881146
 20
181.0428683358157
 30
0.0
  0
ENDBLK
  5
46F
330
46C
100
AcDbEntity
  8
0
100
AcDbBlockEnd
  0
BLOCK
  5
473
330
471
100
AcDbEntity
  8
0
100
AcDbBlockBegin
  2
block 139
 70
     0
 71
     0
 10
0.0
 20
0.0
 30
0.0
  3
block 139
  1

  0
SPLINE
  5
475
330
471
100
AcDbEntity
  8
0
 62
     7
420
 16777215
370
    25
100
AcDbSpline
210
0.0
220
0.0
230
1.0
 70
    11
 71
     3
 72
    23
 73
    19
 74
     0
 42
0.0000000001
 43
0.0000000001
 40
0.0
 40
0.0
 40
0.0
 40
0.0
 40
1.0
 40
1.0
 40
1.0
 40
2.0
 40
2.0
 40
2.0
 40
3.0
 40
3.0
 40
3.0
 40
4.0
 40
4.0
 40
4.0
 40
5.0
 40
5.0
 40
5.0
 40
6.0
 40
6.0
 40
6.0
 40
6.0
 10
58.45000676707153
 20
166.9317572282324
 30
0.0
 10
58.45000676707153
 20
168.0364270955777
 30
0.0
 10
59.34538708368796
 20
168.9318074121941
 30
0.0
 10
60.45005695103332
 20
168.9318074121941
 30
0.0
 10
61.55455456360442
 20
168.9318074121941
 30
0.0
 10
62.44993488022085
 20
168.0364270955777
 30
0.0
 10
62.44993488022085
 20
166.9317572282324
 30
0.0
 10
62.44993488022085
 20
166.9317572282324
 30
0.0
 10
62.44993488022085
 20
158.9319010019337
 30
0.0
 10
62.44993488022085
 20
158.9319010019337
 30
0.0
 10
62.44993488022085
 20
157.8274033893626
 30
0.0
 10
61.55455456360442
 20
156.9316785631976
 30
0.0
 10
60.45005695103332
 20
156.9316785631976
 30
0.0
 10
59.34538708368796
 20
156.9316785631976
 30
0.0
 10
58.45000676707153
 20
157.8274033893626
 30
0.0
 10
58.45000676707153
 20
158.9319010019337
 30
0.0
 10
58.45000676707153
 20
158.9319010019337
 30
0.0
 10
58.45000676707153
 20
166.9317572282324
 30
0.0
 10
58.45000676707153
 20
166.9317572282324
 30
0.0
  0
ENDBLK
  5
474
330
471
100
AcDbEntity
  8
0
100
AcDbBlockEnd
  0
BLOCK
  5
478
330
476
100
AcDbEntity
  8
0
100
AcDbBlockBegin
  2
block 140
 70
     0
 71
     0
 10
0.0
 20
0.0
 30
0.0
  3
block 140
  1

  0
SPLINE
  5
47A
330
476
100
AcDbEntity
  8
0
 62
     7
420
 16777215
370
    25
100
AcDbSpline
210
0.0
220
0.0
230
1.0
 70
    11
 71
     3
 72
    23
 73
    19
 74
     0
 42
0.0000000001
 43
0.0000000001
 40
0.0
 40
0.0
 40
0.0
 40
0.0
 40
1.0
 40
1.0
 40
1.0
 40
2.0
 40
2.0
 40
2.0
 40
3.0
 40
3.0
 40
3.0
 40
4.0
 40
4.0
 40
4.0
 40
5.0
 40
5.0
 40
5.0
 40
6.0
 40
6.0
 40
6.0
 40
6.0
 10
153.4500650658042
 20
166.9317572282324
 30
0.0
 10
153.4500650658042
 20
168.0364270955777
 30
0.0
 10
154.3454453824206
 20
168.9318074121941
 30
0.0
 10
155.4499429949917
 20
168.9318074121941
 30
0.0
 10
156.5544406075628
 20
168.9318074121941
 30
0.0
 10
157.4501654337277
 20
168.0364270955777
 30
0.0
 10
157.4501654337277
 20
166.9317572282324
 30
0.0
 10
157.4501654337277
 20
166.9317572282324
 30
0.0
 10
157.4501654337277
 20
158.9319010019337
 30
0.0
 10
157.4501654337277
 20
158.9319010019337
 30
0.0
 10
157.4501654337277
 20
157.8274033893626
 30
0.0
 10
156.5544406075628
 20
156.9316785631976
 30
0.0
 10
155.4499429949917
 20
156.9316785631976
 30
0.0
 10
154.3454453824206
 20
156.9316785631976
 30
0.0
 10
153.4500650658042
 20
157.8274033893626
 30
0.0
 10
153.4500650658042
 20
158.9319010019337
 30
0.0
 10
153.4500650658042
 20
158.9319010019337
 30
0.0
 10
153.4500650658042
 20
166.9317572282324
 30
0.0
 10
153.4500650658042
 20
166.9317572282324
 30
0.0
  0
ENDBLK
  5
479
330
476
100
AcDbEntity
  8
0
100
AcDbBlockEnd
  0
BLOCK
  5
47D
330
47B
100
AcDbEntity
  8
0
100
AcDbBlockBegin
  2
block 141
 70
     0
 71
     0
 10
0.0
 20
0.0
 30
0.0
  3
block 141
  1

  0
SPLINE
  5
47F
330
47B
100
AcDbEntity
  8
0
 62
     7
420
 16777215
370
    25
100
AcDbSpline
210
0.0
220
0.0
230
1.0
 70
    11
 71
     3
 72
    23
 73
    19
 74
     0
 42
0.0000000001
 43
0.0000000001
 40
0.0
 40
0.0
 40
0.0
 40
0.0
 40
1.0
 40
1.0
 40
1.0
 40
2.0
 40
2.0
 40
2.0
 40
3.0
 40
3.0
 40
3.0
 40
4.0
 40
4.0
 40
4.0
 40
5.0
 40
5.0
 40
5.0
 40
6.0
 40
6.0
 40
6.0
 40
6.0
 10
58.09722898938195
 20
153.8789794537178
 30
0.0
 10
58.09722898938195
 20
154.9836493210631
 30
0.0
 10
58.99260930599838
 20
155.8790296376796
 30
0.0
 10
60.09727917334374
 20
155.8790296376796
 30
0.0
 10
61.20177678591484
 20
155.8790296376796
 30
0.0
 10
62.09715710253127
 20
154.9836493210631
 30
0.0
 10
62.09715710253127
 20
153.8789794537178
 30
0.0
 10
62.09715710253127
 20
153.8789794537178
 30
0.0
 10
62.09715710253127
 20
145.8791232274191
 30
0.0
 10
62.09715710253127
 20
145.8791232274191
 30
0.0
 10
62.09715710253127
 20
144.774625614848
 30
0.0
 10
61.20177678591484
 20
143.8789007886831
 30
0.0
 10
60.09727917334374
 20
143.8789007886831
 30
0.0
 10
58.99260930599838
 20
143.8789007886831
 30
0.0
 10
58.09722898938195
 20
144.774625614848
 30
0.0
 10
58.09722898938195
 20
145.8791232274191
 30
0.0
 10
58.09722898938195
 20
145.8791232274191
 30
0.0
 10
58.09722898938195
 20
153.8789794537178
 30
0.0
 10
58.09722898938195
 20
153.8789794537178
 30
0.0
  0
ENDBLK
  5
47E
330
47B
100
AcDbEntity
  8
0
100
AcDbBlockEnd
  0
BLOCK
  5
482
330
480
100
AcDbEntity
  8
0
100
AcDbBlockBegin
  2
block 142
 70
     0
 71
     0
 10
0.0
 20
0.0
 30
0.0
  3
block 142
  1

  0
SPLINE
  5
484
330
480
100
AcDbEntity
  8
0
 62
     7
420
 16777215
370
    25
100
AcDbSpline
210
0.0
220
0.0
230
1.0
 70
    11
 71
     3
 72
    23
 73
    19
 74
     0
 42
0.0000000001
 43
0.0000000001
 40
0.0
 40
0.0
 40
0.0
 40
0.0
 40
1.0
 40
1.0
 40
1.0
 40
2.0
 40
2.0
 40
2.0
 40
3.0
 40
3.0
 40
3.0
 40
4.0
 40
4.0
 40
4.0
 40
5.0
 40
5.0
 40
5.0
 40
6.0
 40
6.0
 40
6.0
 40
6.0
 10
153.0972872881146
 20
153.8789794537178
 30
0.0
 10
153.0972872881146
 20
154.9836493210631
 30
0.0
 10
153.992667604731
 20
155.8790296376796
 30
0.0
 10
155.0971652173021
 20
155.8790296376796
 30
0.0
 10
156.2016628298732
 20
155.8790296376796
 30
0.0
 10
157.0973876560382
 20
154.9836493210631
 30
0.0
 10
157.0973876560382
 20
153.8789794537178
 30
0.0
 10
157.0973876560382
 20
153.8789794537178
 30
0.0
 10
157.0973876560382
 20
145.8791232274191
 30
0.0
 10
157.0973876560382
 20
145.8791232274191
 30
0.0
 10
157.0973876560382
 20
144.774625614848
 30
0.0
 10
156.2016628298732
 20
143.8789007886831
 30
0.0
 10
155.0971652173021
 20
143.8789007886831
 30
0.0
 10
153.992667604731
 20
143.8789007886831
 30
0.0
 10
153.0972872881146
 20
144.774625614848
 30
0.0
 10
153.0972872881146
 20
145.8791232274191
 30
0.0
 10
153.0972872881146
 20
145.8791232274191
 30
0.0
 10
153.0972872881146
 20
153.8789794537178
 30
0.0
 10
153.0972872881146
 20
153.8789794537178
 30
0.0
  0
ENDBLK
  5
483
330
480
100
AcDbEntity
  8
0
100
AcDbBlockEnd
  0
ENDSEC
  0
SECTION
  2
ENTITIES
  0
INSERT
  5
3C
330
1F
100
AcDbEntity
  8
0
100
AcDbBlockReference
  2
block 2
 10
0.0
 20
0.0
 30
0.0
  0
INSERT
  5
41
330
1F
100
AcDbEntity
  8
0
100
AcDbBlockReference
  2
block 3
 10
0.0
 20
0.0
 30
0.0
  0
INSERT
  5
46
330
1F
100
AcDbEntity
  8
0
100
AcDbBlockReference
  2
block 4
 10
0.0
 20
0.0
 30
0.0
  0
INSERT
  5
4B
330
1F
100
AcDbEntity
  8
0
100
AcDbBlockReference
  2
block 5
 10
0.0
 20
0.0
 30
0.0
  0
INSERT
  5
50
330
1F
100
AcDbEntity
  8
0
100
AcDbBlockReference
  2
block 6
 10
0.0
 20
0.0
 30
0.0
  0
INSERT
  5
58
330
1F
100
AcDbEntity
  8
0
100
AcDbBlockReference
  2
block 7
 10
0.0
 20
0.0
 30
0.0
  0
INSERT
  5
60
330
1F
100
AcDbEntity
  8
0
100
AcDbBlockReference
  2
block 8
 10
0.0
 20
0.0
 30
0.0
  0
INSERT
  5
68
330
1F
100
AcDbEntity
  8
0
100
AcDbBlockReference
  2
block 9
 10
0.0
 20
0.0
 30
0.0
  0
INSERT
  5
70
330
1F
100
AcDbEntity
  8
0
100
AcDbBlockReference
  2
block 10
 10
0.0
 20
0.0
 30
0.0
  0
INSERT
  5
78
330
1F
100
AcDbEntity
  8
0
100
AcDbBlockReference
  2
block 11
 10
0.0
 20
0.0
 30
0.0
  0
INSERT
  5
80
330
1F
100
AcDbEntity
  8
0
100
AcDbBlockReference
  2
block 12
 10
0.0
 20
0.0
 30
0.0
  0
INSERT
  5
88
330
1F
100
AcDbEntity
  8
0
100
AcDbBlockReference
  2
block 13
 10
0.0
 20
0.0
 30
0.0
  0
INSERT
  5
90
330
1F
100
AcDbEntity
  8
0
100
AcDbBlockReference
  2
block 14
 10
0.0
 20
0.0
 30
0.0
  0
INSERT
  5
98
330
1F
100
AcDbEntity
  8
0
100
AcDbBlockReference
  2
block 15
 10
0.0
 20
0.0
 30
0.0
  0
INSERT
  5
A0
330
1F
100
AcDbEntity
  8
0
100
AcDbBlockReference
  2
block 16
 10
0.0
 20
0.0
 30
0.0
  0
INSERT
  5
A8
330
1F
100
AcDbEntity
  8
0
100
AcDbBlockReference
  2
block 17
 10
0.0
 20
0.0
 30
0.0
  0
INSERT
  5
B0
330
1F
100
AcDbEntity
  8
0
100
AcDbBlockReference
  2
block 18
 10
0.0
 20
0.0
 30
0.0
  0
INSERT
  5
B8
330
1F
100
AcDbEntity
  8
0
100
AcDbBlockReference
  2
block 19
 10
0.0
 20
0.0
 30
0.0
  0
INSERT
  5
C0
330
1F
100
AcDbEntity
  8
0
100
AcDbBlockReference
  2
block 20
 10
0.0
 20
0.0
 30
0.0
  0
INSERT
  5
C8
330
1F
100
AcDbEntity
  8
0
100
AcDbBlockReference
  2
block 21
 10
0.0
 20
0.0
 30
0.0
  0
INSERT
  5
D0
330
1F
100
AcDbEntity
  8
0
100
AcDbBlockReference
  2
block 22
 10
0.0
 20
0.0
 30
0.0
  0
INSERT
  5
D8
330
1F
100
AcDbEntity
  8
0
100
AcDbBlockReference
  2
block 23
 10
0.0
 20
0.0
 30
0.0
  0
INSERT
  5
E0
330
1F
100
AcDbEntity
  8
0
100
AcDbBlockReference
  2
block 24
 10
0.0
 20
0.0
 30
0.0
  0
INSERT
  5
E8
330
1F
100
AcDbEntity
  8
0
100
AcDbBlockReference
  2
block 25
 10
0.0
 20
0.0
 30
0.0
  0
INSERT
  5
F0
330
1F
100
AcDbEntity
  8
0
100
AcDbBlockReference
  2
block 26
 10
0.0
 20
0.0
 30
0.0
  0
INSERT
  5
F8
330
1F
100
AcDbEntity
  8
0
100
AcDbBlockReference
  2
block 27
 10
0.0
 20
0.0
 30
0.0
  0
INSERT
  5
100
330
1F
100
AcDbEntity
  8
0
100
AcDbBlockReference
  2
block 28
 10
0.0
 20
0.0
 30
0.0
  0
INSERT
  5
108
330
1F
100
AcDbEntity
  8
0
100
AcDbBlockReference
  2
block 29
 10
0.0
 20
0.0
 30
0.0
  0
INSERT
  5
110
330
1F
100
AcDbEntity
  8
0
100
AcDbBlockReference
  2
block 30
 10
0.0
 20
0.0
 30
0.0
  0
INSERT
  5
118
330
1F
100
AcDbEntity
  8
0
100
AcDbBlockReference
  2
block 31
 10
0.0
 20
0.0
 30
0.0
  0
INSERT
  5
120
330
1F
100
AcDbEntity
  8
0
100
AcDbBlockReference
  2
block 32
 10
0.0
 20
0.0
 30
0.0
  0
INSERT
  5
128
330
1F
100
AcDbEntity
  8
0
100
AcDbBlockReference
  2
block 33
 10
0.0
 20
0.0
 30
0.0
  0
INSERT
  5
130
330
1F
100
AcDbEntity
  8
0
100
AcDbBlockReference
  2
block 34
 10
0.0
 20
0.0
 30
0.0
  0
INSERT
  5
138
330
1F
100
AcDbEntity
  8
0
100
AcDbBlockReference
  2
block 35
 10
0.0
 20
0.0
 30
0.0
  0
INSERT
  5
140
330
1F
100
AcDbEntity
  8
0
100
AcDbBlockReference
  2
block 36
 10
0.0
 20
0.0
 30
0.0
  0
INSERT
  5
148
330
1F
100
AcDbEntity
  8
0
100
AcDbBlockReference
  2
block 37
 10
0.0
 20
0.0
 30
0.0
  0
INSERT
  5
150
330
1F
100
AcDbEntity
  8
0
100
AcDbBlockReference
  2
block 38
 10
0.0
 20
0.0
 30
0.0
  0
INSERT
  5
158
330
1F
100
AcDbEntity
  8
0
100
AcDbBlockReference
  2
block 39
 10
0.0
 20
0.0
 30
0.0
  0
INSERT
  5
160
330
1F
100
AcDbEntity
  8
0
100
AcDbBlockReference
  2
block 40
 10
0.0
 20
0.0
 30
0.0
  0
INSERT
  5
168
330
1F
100
AcDbEntity
  8
0
100
AcDbBlockReference
  2
block 41
 10
0.0
 20
0.0
 30
0.0
  0
INSERT
  5
170
330
1F
100
AcDbEntity
  8
0
100
AcDbBlockReference
  2
block 42
 10
0.0
 20
0.0
 30
0.0
  0
INSERT
  5
178
330
1F
100
AcDbEntity
  8
0
100
AcDbBlockReference
  2
block 43
 10
0.0
 20
0.0
 30
0.0
  0
INSERT
  5
180
330
1F
100
AcDbEntity
  8
0
100
AcDbBlockReference
  2
block 44
 10
0.0
 20
0.0
 30
0.0
  0
INSERT
  5
188
330
1F
100
AcDbEntity
  8
0
100
AcDbBlockReference
  2
block 45
 10
0.0
 20
0.0
 30
0.0
  0
INSERT
  5
190
330
1F
100
AcDbEntity
  8
0
100
AcDbBlockReference
  2
block 46
 10
0.0
 20
0.0
 30
0.0
  0
INSERT
  5
198
330
1F
100
AcDbEntity
  8
0
100
AcDbBlockReference
  2
block 47
 10
0.0
 20
0.0
 30
0.0
  0
INSERT
  5
1A0
330
1F
100
AcDbEntity
  8
0
100
AcDbBlockReference
  2
block 48
 10
0.0
 20
0.0
 30
0.0
  0
INSERT
  5
1A8
330
1F
100
AcDbEntity
  8
0
100
AcDbBlockReference
  2
block 49
 10
0.0
 20
0.0
 30
0.0
  0
INSERT
  5
1B0
330
1F
100
AcDbEntity
  8
0
100
AcDbBlockReference
  2
block 50
 10
0.0
 20
0.0
 30
0.0
  0
INSERT
  5
1B8
330
1F
100
AcDbEntity
  8
0
100
AcDbBlockReference
  2
block 51
 10
0.0
 20
0.0
 30
0.0
  0
INSERT
  5
1C0
330
1F
100
AcDbEntity
  8
0
100
AcDbBlockReference
  2
block 52
 10
0.0
 20
0.0
 30
0.0
  0
INSERT
  5
1C8
330
1F
100
AcDbEntity
  8
0
100
AcDbBlockReference
  2
block 53
 10
0.0
 20
0.0
 30
0.0
  0
INSERT
  5
1D0
330
1F
100
AcDbEntity
  8
0
100
AcDbBlockReference
  2
block 54
 10
0.0
 20
0.0
 30
0.0
  0
INSERT
  5
1D8
330
1F
100
AcDbEntity
  8
0
100
AcDbBlockReference
  2
block 55
 10
0.0
 20
0.0
 30
0.0
  0
INSERT
  5
1E0
330
1F
100
AcDbEntity
  8
0
100
AcDbBlockReference
  2
block 56
 10
0.0
 20
0.0
 30
0.0
  0
INSERT
  5
1E8
330
1F
100
AcDbEntity
  8
0
100
AcDbBlockReference
  2
block 57
 10
0.0
 20
0.0
 30
0.0
  0
INSERT
  5
1F0
330
1F
100
AcDbEntity
  8
0
100
AcDbBlockReference
  2
block 58
 10
0.0
 20
0.0
 30
0.0
  0
INSERT
  5
1F8
330
1F
100
AcDbEntity
  8
0
100
AcDbBlockReference
  2
block 59
 10
0.0
 20
0.0
 30
0.0
  0
INSERT
  5
200
330
1F
100
AcDbEntity
  8
0
100
AcDbBlockReference
  2
block 60
 10
0.0
 20
0.0
 30
0.0
  0
INSERT
  5
208
330
1F
100
AcDbEntity
  8
0
100
AcDbBlockReference
  2
block 61
 10
0.0
 20
0.0
 30
0.0
  0
INSERT
  5
210
330
1F
100
AcDbEntity
  8
0
100
AcDbBlockReference
  2
block 62
 10
0.0
 20
0.0
 30
0.0
  0
INSERT
  5
218
330
1F
100
AcDbEntity
  8
0
100
AcDbBlockReference
  2
block 63
 10
0.0
 20
0.0
 30
0.0
  0
INSERT
  5
220
330
1F
100
AcDbEntity
  8
0
100
AcDbBlockReference
  2
block 64
 10
0.0
 20
0.0
 30
0.0
  0
INSERT
  5
228
330
1F
100
AcDbEntity
  8
0
100
AcDbBlockReference
  2
block 65
 10
0.0
 20
0.0
 30
0.0
  0
INSERT
  5
230
330
1F
100
AcDbEntity
  8
0
100
AcDbBlockReference
  2
block 66
 10
0.0
 20
0.0
 30
0.0
  0
INSERT
  5
238
330
1F
100
AcDbEntity
  8
0
100
AcDbBlockReference
  2
block 67
 10
0.0
 20
0.0
 30
0.0
  0
INSERT
  5
240
330
1F
100
AcDbEntity
  8
0
100
AcDbBlockReference
  2
block 68
 10
0.0
 20
0.0
 30
0.0
  0
INSERT
  5
248
330
1F
100
AcDbEntity
  8
0
100
AcDbBlockReference
  2
block 69
 10
0.0
 20
0.0
 30
0.0
  0
INSERT
  5
250
330
1F
100
AcDbEntity
  8
0
100
AcDbBlockReference
  2
block 70
 10
0.0
 20
0.0
 30
0.0
  0
INSERT
  5
258
330
1F
100
AcDbEntity
  8
0
100
AcDbBlockReference
  2
block 71
 10
0.0
 20
0.0
 30
0.0
  0
INSERT
  5
260
330
1F
100
AcDbEntity
  8
0
100
AcDbBlockReference
  2
block 72
 10
0.0
 20
0.0
 30
0.0
  0
INSERT
  5
268
330
1F
100
AcDbEntity
  8
0
100
AcDbBlockReference
  2
block 73
 10
0.0
 20
0.0
 30
0.0
  0
INSERT
  5
270
330
1F
100
AcDbEntity
  8
0
100
AcDbBlockReference
  2
block 74
 10
0.0
 20
0.0
 30
0.0
  0
INSERT
  5
278
330
1F
100
AcDbEntity
  8
0
100
AcDbBlockReference
  2
block 75
 10
0.0
 20
0.0
 30
0.0
  0
INSERT
  5
280
330
1F
100
AcDbEntity
  8
0
100
AcDbBlockReference
  2
block 76
 10
0.0
 20
0.0
 30
0.0
  0
INSERT
  5
288
330
1F
100
AcDbEntity
  8
0
100
AcDbBlockReference
  2
block 77
 10
0.0
 20
0.0
 30
0.0
  0
INSERT
  5
290
330
1F
100
AcDbEntity
  8
0
100
AcDbBlockReference
  2
block 78
 10
0.0
 20
0.0
 30
0.0
  0
INSERT
  5
298
330
1F
100
AcDbEntity
  8
0
100
AcDbBlockReference
  2
block 79
 10
0.0
 20
0.0
 30
0.0
  0
INSERT
  5
2A0
330
1F
100
AcDbEntity
  8
0
100
AcDbBlockReference
  2
block 80
 10
0.0
 20
0.0
 30
0.0
  0
INSERT
  5
2A8
330
1F
100
AcDbEntity
  8
0
100
AcDbBlockReference
  2
block 81
 10
0.0
 20
0.0
 30
0.0
  0
INSERT
  5
2B0
330
1F
100
AcDbEntity
  8
0
100
AcDbBlockReference
  2
block 82
 10
0.0
 20
0.0
 30
0.0
  0
INSERT
  5
2B8
330
1F
100
AcDbEntity
  8
0
100
AcDbBlockReference
  2
block 83
 10
0.0
 20
0.0
 30
0.0
  0
INSERT
  5
2C0
330
1F
100
AcDbEntity
  8
0
100
AcDbBlockReference
  2
block 84
 10
0.0
 20
0.0
 30
0.0
  0
INSERT
  5
2C8
330
1F
100
AcDbEntity
  8
0
100
AcDbBlockReference
  2
block 85
 10
0.0
 20
0.0
 30
0.0
  0
INSERT
  5
2D0
330
1F
100
AcDbEntity
  8
0
100
AcDbBlockReference
  2
block 86
 10
0.0
 20
0.0
 30
0.0
  0
INSERT
  5
2D8
330
1F
100
AcDbEntity
  8
0
100
AcDbBlockReference
  2
block 87
 10
0.0
 20
0.0
 30
0.0
  0
INSERT
  5
2E0
330
1F
100
AcDbEntity
  8
0
100
AcDbBlockReference
  2
block 88
 10
0.0
 20
0.0
 30
0.0
  0
INSERT
  5
2E8
330
1F
100
AcDbEntity
  8
0
100
AcDbBlockReference
  2
block 89
 10
0.0
 20
0.0
 30
0.0
  0
INSERT
  5
2F0
330
1F
100
AcDbEntity
  8
0
100
AcDbBlockReference
  2
block 90
 10
0.0
 20
0.0
 30
0.0
  0
INSERT
  5
2F8
330
1F
100
AcDbEntity
  8
0
100
AcDbBlockReference
  2
block 91
 10
0.0
 20
0.0
 30
0.0
  0
INSERT
  5
300
330
1F
100
AcDbEntity
  8
0
100
AcDbBlockReference
  2
block 92
 10
0.0
 20
0.0
 30
0.0
  0
INSERT
  5
308
330
1F
100
AcDbEntity
  8
0
100
AcDbBlockReference
  2
block 93
 10
0.0
 20
0.0
 30
0.0
  0
INSERT
  5
310
330
1F
100
AcDbEntity
  8
0
100
AcDbBlockReference
  2
block 94
 10
0.0
 20
0.0
 30
0.0
  0
INSERT
  5
318
330
1F
100
AcDbEntity
  8
0
100
AcDbBlockReference
  2
block 95
 10
0.0
 20
0.0
 30
0.0
  0
INSERT
  5
320
330
1F
100
AcDbEntity
  8
0
100
AcDbBlockReference
  2
block 96
 10
0.0
 20
0.0
 30
0.0
  0
INSERT
  5
328
330
1F
100
AcDbEntity
  8
0
100
AcDbBlockReference
  2
block 97
 10
0.0
 20
0.0
 30
0.0
  0
INSERT
  5
330
330
1F
100
AcDbEntity
  8
0
100
AcDbBlockReference
  2
block 98
 10
0.0
 20
0.0
 30
0.0
  0
INSERT
  5
338
330
1F
100
AcDbEntity
  8
0
100
AcDbBlockReference
  2
block 99
 10
0.0
 20
0.0
 30
0.0
  0
INSERT
  5
340
330
1F
100
AcDbEntity
  8
0
100
AcDbBlockReference
  2
block 100
 10
0.0
 20
0.0
 30
0.0
  0
INSERT
  5
348
330
1F
100
AcDbEntity
  8
0
100
AcDbBlockReference
  2
block 101
 10
0.0
 20
0.0
 30
0.0
  0
INSERT
  5
350
330
1F
100
AcDbEntity
  8
0
100
AcDbBlockReference
  2
block 102
 10
0.0
 20
0.0
 30
0.0
  0
INSERT
  5
358
330
1F
100
AcDbEntity
  8
0
100
AcDbBlockReference
  2
block 103
 10
0.0
 20
0.0
 30
0.0
  0
INSERT
  5
360
330
1F
100
AcDbEntity
  8
0
100
AcDbBlockReference
  2
block 104
 10
0.0
 20
0.0
 30
0.0
  0
INSERT
  5
368
330
1F
100
AcDbEntity
  8
0
100
AcDbBlockReference
  2
block 105
 10
0.0
 20
0.0
 30
0.0
  0
INSERT
  5
370
330
1F
100
AcDbEntity
  8
0
100
AcDbBlockReference
  2
block 106
 10
0.0
 20
0.0
 30
0.0
  0
INSERT
  5
378
330
1F
100
AcDbEntity
  8
0
100
AcDbBlockReference
  2
block 107
 10
0.0
 20
0.0
 30
0.0
  0
INSERT
  5
380
330
1F
100
AcDbEntity
  8
0
100
AcDbBlockReference
  2
block 108
 10
0.0
 20
0.0
 30
0.0
  0
INSERT
  5
388
330
1F
100
AcDbEntity
  8
0
100
AcDbBlockReference
  2
block 109
 10
0.0
 20
0.0
 30
0.0
  0
INSERT
  5
390
330
1F
100
AcDbEntity
  8
0
100
AcDbBlockReference
  2
block 110
 10
0.0
 20
0.0
 30
0.0
  0
INSERT
  5
398
330
1F
100
AcDbEntity
  8
0
100
AcDbBlockReference
  2
block 111
 10
0.0
 20
0.0
 30
0.0
  0
INSERT
  5
3A0
330
1F
100
AcDbEntity
  8
0
100
AcDbBlockReference
  2
block 112
 10
0.0
 20
0.0
 30
0.0
  0
INSERT
  5
3A8
330
1F
100
AcDbEntity
  8
0
100
AcDbBlockReference
  2
block 113
 10
0.0
 20
0.0
 30
0.0
  0
INSERT
  5
3B0
330
1F
100
AcDbEntity
  8
0
100
AcDbBlockReference
  2
block 114
 10
0.0
 20
0.0
 30
0.0
  0
INSERT
  5
3B8
330
1F
100
AcDbEntity
  8
0
100
AcDbBlockReference
  2
block 115
 10
0.0
 20
0.0
 30
0.0
  0
INSERT
  5
3C0
330
1F
100
AcDbEntity
  8
0
100
AcDbBlockReference
  2
block 116
 10
0.0
 20
0.0
 30
0.0
  0
INSERT
  5
3C8
330
1F
100
AcDbEntity
  8
0
100
AcDbBlockReference
  2
block 117
 10
0.0
 20
0.0
 30
0.0
  0
INSERT
  5
3D0
330
1F
100
AcDbEntity
  8
0
100
AcDbBlockReference
  2
block 118
 10
0.0
 20
0.0
 30
0.0
  0
INSERT
  5
3D8
330
1F
100
AcDbEntity
  8
0
100
AcDbBlockReference
  2
block 119
 10
0.0
 20
0.0
 30
0.0
  0
INSERT
  5
3E0
330
1F
100
AcDbEntity
  8
0
100
AcDbBlockReference
  2
block 120
 10
0.0
 20
0.0
 30
0.0
  0
INSERT
  5
3E8
330
1F
100
AcDbEntity
  8
0
100
AcDbBlockReference
  2
block 121
 10
0.0
 20
0.0
 30
0.0
  0
INSERT
  5
3F0
330
1F
100
AcDbEntity
  8
0
100
AcDbBlockReference
  2
block 122
 10
0.0
 20
0.0
 30
0.0
  0
INSERT
  5
3F8
330
1F
100
AcDbEntity
  8
0
100
AcDbBlockReference
  2
block 123
 10
0.0
 20
0.0
 30
0.0
  0
INSERT
  5
400
330
1F
100
AcDbEntity
  8
0
100
AcDbBlockReference
  2
block 124
 10
0.0
 20
0.0
 30
0.0
  0
INSERT
  5
408
330
1F
100
AcDbEntity
  8
0
100
AcDbBlockReference
  2
block 125
 10
0.0
 20
0.0
 30
0.0
  0
INSERT
  5
410
330
1F
100
AcDbEntity
  8
0
100
AcDbBlockReference
  2
block 126
 10
0.0
 20
0.0
 30
0.0
  0
INSERT
  5
418
330
1F
100
AcDbEntity
  8
0
100
AcDbBlockReference
  2
block 127
 10
0.0
 20
0.0
 30
0.0
  0
INSERT
  5
420
330
1F
100
AcDbEntity
  8
0
100
AcDbBlockReference
  2
block 128
 10
0.0
 20
0.0
 30
0.0
  0
INSERT
  5
428
330
1F
100
AcDbEntity
  8
0
100
AcDbBlockReference
  2
block 129
 10
0.0
 20
0.0
 30
0.0
  0
INSERT
  5
430
330
1F
100
AcDbEntity
  8
0
100
AcDbBlockReference
  2
block 130
 10
0.0
 20
0.0
 30
0.0
  0
INSERT
  5
438
330
1F
100
AcDbEntity
  8
0
100
AcDbBlockReference
  2
block 131
 10
0.0
 20
0.0
 30
0.0
  0
INSERT
  5
440
330
1F
100
AcDbEntity
  8
0
100
AcDbBlockReference
  2
block 132
 10
0.0
 20
0.0
 30
0.0
  0
INSERT
  5
448
330
1F
100
AcDbEntity
  8
0
100
AcDbBlockReference
  2
block 133
 10
0.0
 20
0.0
 30
0.0
  0
INSERT
  5
450
330
1F
100
AcDbEntity
  8
0
100
AcDbBlockReference
  2
block 134
 10
0.0
 20
0.0
 30
0.0
  0
INSERT
  5
458
330
1F
100
AcDbEntity
  8
0
100
AcDbBlockReference
  2
block 135
 10
0.0
 20
0.0
 30
0.0
  0
INSERT
  5
460
330
1F
100
AcDbEntity
  8
0
100
AcDbBlockReference
  2
block 136
 10
0.0
 20
0.0
 30
0.0
  0
INSERT
  5
468
330
1F
100
AcDbEntity
  8
0
100
AcDbBlockReference
  2
block 137
 10
0.0
 20
0.0
 30
0.0
  0
INSERT
  5
46D
330
1F
100
AcDbEntity
  8
0
100
AcDbBlockReference
  2
block 138
 10
0.0
 20
0.0
 30
0.0
  0
INSERT
  5
472
330
1F
100
AcDbEntity
  8
0
100
AcDbBlockReference
  2
block 139
 10
0.0
 20
0.0
 30
0.0
  0
INSERT
  5
477
330
1F
100
AcDbEntity
  8
0
100
AcDbBlockReference
  2
block 140
 10
0.0
 20
0.0
 30
0.0
  0
INSERT
  5
47C
330
1F
100
AcDbEntity
  8
0
100
AcDbBlockReference
  2
block 141
 10
0.0
 20
0.0
 30
0.0
  0
INSERT
  5
481
330
1F
100
AcDbEntity
  8
0
100
AcDbBlockReference
  2
block 142
 10
0.0
 20
0.0
 30
0.0
  0
ENDSEC
  0
SECTION
  2
OBJECTS
  0
DICTIONARY
  5
C
330
0
100
AcDbDictionary
281
     1
  3
ACAD_GROUP
350
D
  3
ACAD_LAYOUT
350
1A
  3
ACAD_MLINESTYLE
350
17
  3
ACAD_PLOTSETTINGS
350
19
  3
ACAD_PLOTSTYLENAME
350
E
  3
ACAD_TABLESTYLE
350
485
  3
ACAD_VISUALSTYLE
350
2A
  0
DICTIONARY
  5
D
102
{ACAD_REACTORS
330
C
102
}
330
C
100
AcDbDictionary
281
     1
  0
DICTIONARY
  5
1A
102
{ACAD_REACTORS
330
C
102
}
330
C
100
AcDbDictionary
281
     1
  3
Layout1
350
1E
  3
Layout2
350
26
  3
Model
350
22
  0
DICTIONARY
  5
17
102
{ACAD_REACTORS
330
C
102
}
330
C
100
AcDbDictionary
281
     1
  3
Standard
350
18
  0
DICTIONARY
  5
19
102
{ACAD_REACTORS
330
C
102
}
330
C
100
AcDbDictionary
281
     1
  0
ACDBDICTIONARYWDFLT
  5
E
102
{ACAD_REACTORS
330
C
102
}
330
C
100
AcDbDictionary
281
     1
  3
Normal
350
F
100
AcDbDictionaryWithDefault
340
F
  0
DICTIONARY
  5
485
102
{ACAD_REACTORS
330
C
102
}
330
C
100
AcDbDictionary
281
     1
  0
DICTIONARY
  5
2A
102
{ACAD_REACTORS
330
C
102
}
330
C
100
AcDbDictionary
281
     1
  3
2dWireframe
350
2F
  3
3D Hidden
350
31
  3
3dWireframe
350
30
  3
Basic
350
32
  3
Brighten
350
36
  3
ColorChange
350
3A
  3
Conceptual
350
34
  3
Dim
350
35
  3
Facepattern
350
39
  3
Flat
350
2B
  3
FlatWithEdges
350
2C
  3
Gouraud
350
2D
  3
GouraudWithEdges
350
2E
  3
Linepattern
350
38
  3
Realistic
350
33
  3
Thicken
350
37
  0
LAYOUT
  5
1E
102
{ACAD_REACTORS
330
1A
102
}
330
1A
100
AcDbPlotSettings
  1

  2
none_device
  4

  6

 40
0.0
 41
0.0
 42
0.0
 43
0.0
 44
0.0
 45
0.0
 46
0.0
 47
0.0
 48
0.0
 49
0.0
140
0.0
141
0.0
142
1.0
143
1.0
 70
   688
 72
     0
 73
     0
 74
     5
  7

 75
    16
 76
     0
 77
     2
 78
   300
147
1.0
148
0.0
149
0.0
100
AcDbLayout
  1
Layout1
 70
     1
 71
     1
 10
0.0
 20
0.0
 11
12.0
 21
9.0
 12
0.0
 22
0.0
 32
0.0
 14
1.000000000000000E+20
 24
1.000000000000000E+20
 34
1.000000000000000E+20
 15
-1.000000000000000E+20
 25
-1.000000000000000E+20
 35
-1.000000000000000E+20
146
0.0
 13
0.0
 23
0.0
 33
0.0
 16
1.0
 26
0.0
 36
0.0
 17
0.0
 27
1.0
 37
0.0
 76
     0
330
1B
  0
LAYOUT
  5
26
102
{ACAD_REACTORS
330
1A
102
}
330
1A
100
AcDbPlotSettings
  1

  2
none_device
  4

  6

 40
0.0
 41
0.0
 42
0.0
 43
0.0
 44
0.0
 45
0.0
 46
0.0
 47
0.0
 48
0.0
 49
0.0
140
0.0
141
0.0
142
1.0
143
1.0
 70
   688
 72
     0
 73
     0
 74
     5
  7

 75
    16
 76
     0
 77
     2
 78
   300
147
1.0
148
0.0
149
0.0
100
AcDbLayout
  1
Layout2
 70
     1
 71
     2
 10
0.0
 20
0.0
 11
0.0
 21
0.0
 12
0.0
 22
0.0
 32
0.0
 14
0.0
 24
0.0
 34
0.0
 15
0.0
 25
0.0
 35
0.0
146
0.0
 13
0.0
 23
0.0
 33
0.0
 16
1.0
 26
0.0
 36
0.0
 17
0.0
 27
1.0
 37
0.0
 76
     0
330
23
  0
LAYOUT
  5
22
102
{ACAD_REACTORS
330
1A
102
}
330
1A
100
AcDbPlotSettings
  1

  2
none_device
  4

  6

 40
0.0
 41
0.0
 42
0.0
 43
0.0
 44
0.0
 45
0.0
 46
0.0
 47
0.0
 48
0.0
 49
0.0
140
0.0
141
0.0
142
1.0
143
1.0
 70
  1712
 72
     0
 73
     0
 74
     0
  7

 75
     0
 76
     0
 77
     2
 78
   300
147
1.0
148
0.0
149
0.0
100
AcDbLayout
  1
Model
 70
     1
 71
     0
 10
0.0
 20
0.0
 11
12.0
 21
9.0
 12
0.0
 22
0.0
 32
0.0
 14
1.000000000000000E+20
 24
1.000000000000000E+20
 34
1.000000000000000E+20
 15
-1.000000000000000E+20
 25
-1.000000000000000E+20
 35
-1.000000000000000E+20
146
0.0
 13
0.0
 23
0.0
 33
0.0
 16
1.0
 26
0.0
 36
0.0
 17
0.0
 27
1.0
 37
0.0
 76
     0
330
1F
331
29
  0
MLINESTYLE
  5
18
102
{ACAD_REACTORS
330
17
102
}
330
17
100
AcDbMlineStyle
  2
Standard
 70
     0
  3

 62
   256
 51
90.0
 52
90.0
 71
     2
 49
0.5
 62
   256
  6
BYLAYER
 49
-0.5
 62
   256
  6
BYLAYER
  0
ACDBPLACEHOLDER
  5
F
102
{ACAD_REACTORS
330
E
102
}
330
E
  0
VISUALSTYLE
  5
2F
102
{ACAD_REACTORS
330
2A
102
}
330
2A
100
AcDbVisualStyle
  2
2dWireframe
 70
     4
 71
     0
 72
     2
 73
     0
 90
        0
 40
-0.6
 41
-30.0
 62
     5
 63
     7
421
 16777215
 74
     1
 91
        4
 64
     7
 65
   257
 75
     1
175
     1
 42
1.0
 92
        0
 66
   257
 43
1.0
 76
     1
 77
     6
 78
     2
 67
     7
 79
     5
170
     0
171
     0
290
     0
174
     0
 93
        1
 44
0.0
173
     0
291
     0
 45
0.0
1001
ACAD
1000
AcDbSavedByObjectVersion
1070
     0
  0
VISUALSTYLE
  5
31
102
{ACAD_REACTORS
330
2A
102
}
330
2A
100
AcDbVisualStyle
  2
3D Hidden
 70
     6
 71
     1
 72
     2
 73
     2
 90
        0
 40
-0.6
 41
-30.0
 62
     5
 63
     7
421
 16777215
 74
     2
 91
        2
 64
     7
 65
   257
 75
     2
175
     1
 42
40.0
 92
        0
 66
   257
 43
1.0
 76
     1
 77
     6
 78
     2
 67
     7
 79
     3
170
     0
171
     0
290
     0
174
     0
 93
        1
 44
0.0
173
     0
291
     0
 45
0.0
1001
ACAD
1000
AcDbSavedByObjectVersion
1070
     0
  0
VISUALSTYLE
  5
30
102
{ACAD_REACTORS
330
2A
102
}
330
2A
100
AcDbVisualStyle
  2
3dWireframe
 70
     5
 71
     0
 72
     2
 73
     0
 90
        0
 40
-0.6
 41
-30.0
 62
     5
 63
     7
421
 16777215
 74
     1
 91
        4
 64
     7
 65
   257
 75
     1
175
     1
 42
1.0
 92
        0
 66
   257
 43
1.0
 76
     1
 77
     6
 78
     2
 67
     7
 79
     5
170
     0
171
     0
290
     0
174
     0
 93
        1
 44
0.0
173
     0
291
     0
 45
0.0
1001
ACAD
1000
AcDbSavedByObjectVersion
1070
     0
  0
VISUALSTYLE
  5
32
102
{ACAD_REACTORS
330
2A
102
}
330
2A
100
AcDbVisualStyle
  2
Basic
 70
     7
 71
     1
 72
     0
 73
     1
 90
        0
 40
-0.6
 41
-30.0
 62
     5
 63
     7
421
 16777215
 74
     0
 91
        4
 64
     7
 65
   257
 75
     1
175
     1
 42
1.0
 92
        8
 66
     7
 43
1.0
 76
     1
 77
     6
 78
     2
 67
     7
 79
     5
170
     0
171
     0
290
     0
174
     0
 93
        1
 44
0.0
173
     0
291
     1
 45
0.0
1001
ACAD
1000
AcDbSavedByObjectVersion
1070
     0
  0
VISUALSTYLE
  5
36
102
{ACAD_REACTORS
330
2A
102
}
330
2A
100
AcDbVisualStyle
  2
Brighten
 70
    12
 71
     2
 72
     2
 73
     0
 90
        0
 40
-0.6
 41
-30.0
 62
     5
 63
     7
421
 16777215
 74
     1
 91
        4
 64
     7
 65
   257
 75
     1
175
     1
 42
1.0
 92
        8
 66
     7
 43
1.0
 76
     1
 77
     6
 78
     2
 67
     7
 79
     5
170
     0
171
     0
290
     0
174
     0
 93
        1
 44
50.0
173
     0
291
     1
 45
0.0
1001
ACAD
1000
AcDbSavedByObjectVersion
1070
     0
  0
VISUALSTYLE
  5
3A
102
{ACAD_REACTORS
330
2A
102
}
330
2A
100
AcDbVisualStyle
  2
ColorChange
 70
    16
 71
     2
 72
     2
 73
     3
 90
        0
 40
-0.6
 41
-30.0
 62
     5
 63
     8
421
  8421504
 74
     1
 91
        4
 64
     7
 65
   257
 75
     1
175
     1
 42
1.0
 92
        8
 66
     8
424
  8421504
 43
1.0
 76
     1
 77
     6
 78
     2
 67
     7
 79
     5
170
     0
171
     0
290
     0
174
     0
 93
        1
 44
0.0
173
     0
291
     1
 45
0.0
1001
ACAD
1000
AcDbSavedByObjectVersion
1070
     0
  0
VISUALSTYLE
  5
34
102
{ACAD_REACTORS
330
2A
102
}
330
2A
100
AcDbVisualStyle
  2
Conceptual
 70
     9
 71
     3
 72
     2
 73
     0
 90
        0
 40
-0.6
 41
-30.0
 62
     5
 63
     7
421
 16777215
 74
     2
 91
        2
 64
     7
 65
   257
 75
     1
175
     1
 42
40.0
 92
        8
 66
     7
 43
1.0
 76
     1
 77
     6
 78
     2
 67
     7
 79
     3
170
     0
171
     0
290
     0
174
     0
 93
        1
 44
0.0
173
     0
291
     0
 45
0.0
1001
ACAD
1000
AcDbSavedByObjectVersion
1070
     0
  0
VISUALSTYLE
  5
35
102
{ACAD_REACTORS
330
2A
102
}
330
2A
100
AcDbVisualStyle
  2
Dim
 70
    11
 71
     2
 72
     2
 73
     0
 90
        0
 40
-0.6
 41
-30.0
 62
     5
 63
     7
421
 16777215
 74
     1
 91
        4
 64
     7
 65
   257
 75
     1
175
     1
 42
1.0
 92
        8
 66
     7
 43
1.0
 76
     1
 77
     6
 78
     2
 67
     7
 79
     5
170
     0
171
     0
290
     0
174
     0
 93
        1
 44
-50.0
173
     0
291
     1
 45
0.0
1001
ACAD
1000
AcDbSavedByObjectVersion
1070
     0
  0
VISUALSTYLE
  5
39
102
{ACAD_REACTORS
330
2A
102
}
330
2A
100
AcDbVisualStyle
  2
Facepattern
 70
    15
 71
     2
 72
     2
 73
     0
 90
        0
 40
-0.6
 41
-30.0
 62
     5
 63
     7
421
 16777215
 74
     1
 91
        4
 64
     7
 65
   257
 75
     1
175
     1
 42
1.0
 92
        8
 66
     7
 43
1.0
 76
     1
 77
     6
 78
     2
 67
     7
 79
     5
170
     0
171
     0
290
     0
174
     0
 93
        1
 44
0.0
173
     0
291
     1
 45
0.0
1001
ACAD
1000
AcDbSavedByObjectVersion
1070
     0
  0
VISUALSTYLE
  5
2B
102
{ACAD_REACTORS
330
2A
102
}
330
2A
100
AcDbVisualStyle
  2
Flat
 70
     0
 71
     2
 72
     1
 73
     1
 90
        2
 40
-0.6
 41
30.0
 62
     5
 63
     7
421
 16777215
 74
     0
 91
        4
 64
     7
 65
   257
 75
     1
175
     1
 42
1.0
 92
        8
 66
     7
 43
1.0
 76
     1
 77
     6
 78
     2
 67
     7
 79
     5
170
     0
171
     0
290
     0
174
     0
 93
       13
 44
0.0
173
     0
291
     1
 45
0.0
1001
ACAD
1000
AcDbSavedByObjectVersion
1070
     0
  0
VISUALSTYLE
  5
2C
102
{ACAD_REACTORS
330
2A
102
}
330
2A
100
AcDbVisualStyle
  2
FlatWithEdges
 70
     1
 71
     2
 72
     1
 73
     1
 90
        2
 40
-0.6
 41
30.0
 62
     5
 63
     7
421
 16777215
 74
     1
 91
        4
 64
     7
 65
   257
 75
     1
175
     1
 42
1.0
 92
        0
 66
   257
 43
1.0
 76
     1
 77
     6
 78
     2
 67
     7
 79
     5
170
     0
171
     0
290
     0
174
     0
 93
       13
 44
0.0
173
     0
291
     1
 45
0.0
1001
ACAD
1000
AcDbSavedByObjectVersion
1070
     0
  0
VISUALSTYLE
  5
2D
102
{ACAD_REACTORS
330
2A
102
}
330
2A
100
AcDbVisualStyle
  2
Gouraud
 70
     2
 71
     2
 72
     2
 73
     1
 90
        2
 40
-0.6
 41
30.0
 62
     5
 63
     7
421
 16777215
 74
     0
 91
        4
 64
     7
 65
   257
 75
     1
175
     1
 42
1.0
 92
        0
 66
     7
 43
1.0
 76
     1
 77
     6
 78
     2
 67
     7
 79
     5
170
     0
171
     0
290
     0
174
     0
 93
       13
 44
0.0
173
     0
291
     1
 45
0.0
1001
ACAD
1000
AcDbSavedByObjectVersion
1070
     0
  0
VISUALSTYLE
  5
2E
102
{ACAD_REACTORS
330
2A
102
}
330
2A
100
AcDbVisualStyle
  2
GouraudWithEdges
 70
     3
 71
     2
 72
     2
 73
     1
 90
        2
 40
-0.6
 41
30.0
 62
     5
 63
     7
421
 16777215
 74
     1
 91
        4
 64
     7
 65
   257
 75
     1
175
     1
 42
1.0
 92
        0
 66
   257
 43
1.0
 76
     1
 77
     6
 78
     2
 67
     7
 79
     5
170
     0
171
     0
290
     0
174
     0
 93
       13
 44
0.0
173
     0
291
     1
 45
0.0
1001
ACAD
1000
AcDbSavedByObjectVersion
1070
     0
  0
VISUALSTYLE
  5
38
102
{ACAD_REACTORS
330
2A
102
}
330
2A
100
AcDbVisualStyle
  2
Linepattern
 70
    14
 71
     2
 72
     2
 73
     0
 90
        0
 40
-0.6
 41
-30.0
 62
     5
 63
     7
421
 16777215
 74
     1
 91
        4
 64
     7
 65
   257
 75
     7
175
     7
 42
1.0
 92
        8
 66
     7
 43
1.0
 76
     1
 77
     6
 78
     2
 67
     7
 79
     5
170
     0
171
     0
290
     0
174
     0
 93
        1
 44
0.0
173
     0
291
     1
 45
0.0
1001
ACAD
1000
AcDbSavedByObjectVersion
1070
     0
  0
VISUALSTYLE
  5
33
102
{ACAD_REACTORS
330
2A
102
}
330
2A
100
AcDbVisualStyle
  2
Realistic
 70
     8
 71
     2
 72
     2
 73
     0
 90
        0
 40
-0.6
 41
-30.0
 62
     5
 63
     7
421
 16777215
 74
     1
 91
        0
 64
     7
 65
   257
 75
     1
175
     1
 42
1.0
 92
        8
 66
     8
424
  7895160
 43
1.0
 76
     1
 77
     6
 78
     2
 67
     7
 79
     5
170
     0
171
     0
290
     0
174
     0
 93
       13
 44
0.0
173
     0
291
     0
 45
0.0
1001
ACAD
1000
AcDbSavedByObjectVersion
1070
     0
  0
VISUALSTYLE
  5
37
102
{ACAD_REACTORS
330
2A
102
}
330
2A
100
AcDbVisualStyle
  2
Thicken
 70
    13
 71
     2
 72
     2
 73
     0
 90
        0
 40
-0.6
 41
-30.0
 62
     5
 63
     7
421
 16777215
 74
     1
 91
        4
 64
     7
 65
   257
 75
     1
175
     1
 42
1.0
 92
       12
 66
     7
 43
1.0
 76
     1
 77
     6
 78
     2
 67
     7
 79
     5
170
     0
171
     0
290
     0
174
     0
 93
        1
 44
0.0
173
     0
291
     1
 45
0.0
1001
ACAD
1000
AcDbSavedByObjectVersion
1070
     0
  0
ENDSEC
  0
EOF
