0
SECTION
2
HEADER
9
$INSUNITS
70
4
9
$ACADVER
1
AC1014
9
$HANDSEED
5
FFFF
0
ENDSEC
0
SECTION
2
TABLES
0
TABLE
2
VPORT
5
8
100
AcDbSymbolTable
0
ENDTAB
0
TABLE
2
LTYPE
5
5
100
AcDbSymbolTable
0
LTYPE
5
14
100
AcDbSymbolTableRecord
100
AcDbLinetypeTableRecord
2
BYBLOCK
70
0
0
LTYPE
5
15
100
AcDbSymbolTableRecord
100
AcDbLinetypeTableRecord
2
BYLAYER
70
0
0
ENDTAB
0
TABLE
2
LAYER
5
2
100
AcDbSymbolTable
70
2
0
LAYER
5
50
100
AcDbSymbolTableRecord
100
AcDbLayerTableRecord
2
0
70
0
6
CONTINUOUS
0
ENDTAB
0
TABLE
2
STYLE
5
3
100
AcDbSymbolTable
70
1
0
STYLE
5
11
100
AcDbSymbolTableRecord
100
AcDbTextStyleTableRecord
2
STANDARD
70
0
0
ENDTAB
0
TABLE
2
VIEW
5
6
100
AcDbSymbolTable
70
0
0
ENDTAB
0
TABLE
2
UCS
5
7
100
AcDbSymbolTable
70
0
0
ENDTAB
0
TABLE
2
APPID
5
9
100
AcDbSymbolTable
70
2
0
APPID
5
12
100
AcDbSymbolTableRecord
100
AcDbRegAppTableRecord
2
ACAD
70
0
0
ENDTAB
0
TABLE
2
DIMSTYLE
5
A
100
AcDbSymbolTable
70
1
0
ENDTAB
0
TABLE
2
BLOCK_RECORD
5
1
100
AcDbSymbolTable
70
1
0
BLOCK_RECORD
5
1F
100
AcDbSymbolTableRecord
100
AcDbBlockTableRecord
2
*MODEL_SPACE
0
BLOCK_RECORD
5
1B
100
AcDbSymbolTableRecord
100
AcDbBlockTableRecord
2
*PAPER_SPACE
0
ENDTAB
0
ENDSEC
0
SECTION
2
BLOCKS
0
BLOCK
5
20
100
AcDbEntity
100
AcDbBlockBegin
2
*MODEL_SPACE
0
ENDBLK
5
21
100
AcDbEntity
100
AcDbBlockEnd
0
BLOCK
5
1C
100
AcDbEntity
100
AcDbBlockBegin
2
*PAPER_SPACE
0
ENDBLK
5
1D
100
AcDbEntity
100
AcDbBlockEnd
0
ENDSEC
0
SECTION
2
ENTITIES
0
LWPOLYLINE
5
100
100
AcDbEntity
8
0
100
AcDbPolyline
90
3
70
1
43
0.0
10
-45.000000000000043
20
-55.000000000000064
10
-15.000000000000044
20
-55.000000000000064
10
-45.000000000000043
20
-25.000000000000053
0
LWPOLYLINE
5
101
100
AcDbEntity
8
0
100
AcDbPolyline
90
3
70
1
43
0.0
10
14.999999999999956
20
-55.000000000000064
10
44.999999999999957
20
-55.000000000000064
10
44.999999999999957
20
-25.000000000000053
0
LWPOLYLINE
5
102
100
AcDbEntity
8
0
100
AcDbPolyline
90
3
70
1
43
0.0
10
44.999999999999957
20
24.999999999999957
10
44.999999999999957
20
54.999999999999943
10
14.999999999999956
20
54.999999999999943
0
LWPOLYLINE
5
103
100
AcDbEntity
8
0
100
AcDbPolyline
90
4
70
1
43
0.0
10
10.311471579079488
20
6.1378789630758348
10
19.034874358256975
20
6.1378789630758313
42
0.72824862281851566
10
-19.034874358257063
20
6.1378789630758313
10
-10.311471579079514
20
6.1378789630757913
42
-0.56850481241023454
0
LWPOLYLINE
5
104
100
AcDbEntity
8
0
100
AcDbPolyline
90
3
70
1
43
0.0
10
-15.000000000000044
20
54.999999999999943
10
-45.000000000000043
20
54.999999999999943
10
-45.000000000000043
20
24.999999999999957
0
LWPOLYLINE
5
105
100
AcDbEntity
8
0
100
AcDbPolyline
90
4
70
1
43
0.0
10
19.03487435825706
20
-6.1378789630759423
42
-0.72824862281851233
10
-19.034874358257056
20
-6.1378789630759343
10
-10.311471579079583
20
-6.1378789630759343
42
0.56850481241022988
10
10.311471579079491
20
-6.1378789630759307
0
LWPOLYLINE
5
106
100
AcDbEntity
8
0
100
AcDbPolyline
90
60
70
1
43
0.0
10
22.499999999999957
20
64.999999999999929
10
42.499999999999936
20
64.999999999999929
10
42.499999999999936
20
70.599999999999966
10
54.999999999999957
20
70.599999999999966
10
54.999999999999957
20
56.99999999999995
10
60.599999999999959
20
56.99999999999995
10
60.599999999999959
20
40.499999999999943
10
54.999999999999957
20
40.499999999999943
10
54.999999999999957
20
24.499999999999957
10
60.599999999999959
20
24.499999999999957
10
60.599999999999959
20
7.999999999999952
10
54.999999999999957
20
7.999999999999952
10
54.999999999999957
20
-8.0000000000000497
10
60.599999999999959
20
-8.0000000000000462
10
60.599999999999959
20
-24.500000000000057
10
54.999999999999957
20
-24.500000000000057
10
54.999999999999957
20
-40.50000000000005
10
60.599999999999959
20
-40.50000000000005
10
60.599999999999959
20
-57.000000000000064
10
54.999999999999957
20
-57.000000000000064
10
54.999999999999957
20
-70.630000000000081
10
42.499999999999936
20
-70.630000000000081
10
42.499999999999936
20
-65.000000000000057
10
22.499999999999957
20
-65.000000000000057
10
22.499999999999957
20
-70.630000000000081
10
9.9999999999999556
20
-70.630000000000081
10
9.9999999999999556
20
-65.000000000000057
10
-10.000000000000044
20
-65.000000000000057
10
-10.000000000000044
20
-70.630000000000081
10
-22.50000000000005
20
-70.630000000000081
10
-22.50000000000005
20
-65.000000000000057
10
-42.500000000000043
20
-65.000000000000057
10
-42.500000000000043
20
-70.630000000000081
10
-55.000000000000043
20
-70.630000000000081
10
-55.000000000000043
20
-57.000000000000064
10
-60.600000000000051
20
-57.000000000000064
10
-60.600000000000051
20
-40.50000000000005
10
-55.000000000000043
20
-40.50000000000005
10
-55.000000000000043
20
-24.500000000000057
10
-60.600000000000051
20
-24.500000000000057
10
-60.600000000000051
20
-8.0000000000000497
10
-55.000000000000043
20
-8.0000000000000497
10
-55.000000000000043
20
7.999999999999952
10
-60.600000000000051
20
7.9999999999999538
10
-60.600000000000051
20
24.499999999999957
10
-55.000000000000043
20
24.499999999999957
10
-55.000000000000043
20
40.499999999999943
10
-60.600000000000051
20
40.499999999999943
10
-60.600000000000051
20
56.99999999999995
10
-55.000000000000043
20
56.99999999999995
10
-55.000000000000043
20
70.599999999999966
10
-42.500000000000043
20
70.599999999999966
10
-42.500000000000043
20
64.999999999999929
10
-22.50000000000005
20
64.999999999999929
10
-22.50000000000005
20
70.599999999999966
10
-10.000000000000044
20
70.599999999999966
10
-10.000000000000044
20
64.999999999999929
10
9.9999999999999556
20
64.999999999999929
10
9.9999999999999556
20
70.599999999999966
10
22.499999999999957
20
70.599999999999966
0
CIRCLE
5
107
100
AcDbEntity
8
0
100
AcDbCircle
10
34.250000000000057
20
-4.8875786898711166e-14
30
0
40
6.1499999999999977
210
0
220
0
230
-1
0
CIRCLE
5
108
100
AcDbEntity
8
0
100
AcDbCircle
10
-13.613447261928947
20
19.999999999999957
30
0
40
1.6500000000000004
210
0
220
0
230
-1
0
CIRCLE
5
109
100
AcDbEntity
8
0
100
AcDbCircle
10
13.613447261929037
20
19.999999999999957
30
0
40
1.6500000000000004
210
0
220
0
230
-1
0
CIRCLE
5
110
100
AcDbEntity
8
0
100
AcDbCircle
10
3.6803893266323946e-14
20
34.249999999999957
30
1.7763568394002505e-14
40
6.1500000000000021
210
0
220
0
230
-1
0
CIRCLE
5
111
100
AcDbEntity
8
0
100
AcDbCircle
10
0
20
0
30
0
40
6.5
210
0
220
0
230
-1
0
CIRCLE
5
112
100
AcDbEntity
8
0
100
AcDbCircle
10
4.2894191624432798
20
-8.2500000000000462
30
0
40
1.6500000000000004
210
0
220
0
230
-1
0
CIRCLE
5
113
100
AcDbEntity
8
0
100
AcDbCircle
10
4.2894191624432825
20
8.249999999999952
30
0
40
1.6500000000000004
210
0
220
0
230
-1
0
CIRCLE
5
114
100
AcDbEntity
8
0
100
AcDbCircle
10
-9.9999999999999538
20
-4.8875786898711166e-14
30
0
40
1.6500000000000015
210
0
220
0
230
-1
0
CIRCLE
5
115
100
AcDbEntity
8
0
100
AcDbCircle
10
-13.613447261928947
20
-20.00000000000005
30
0
40
1.6500000000000004
210
0
220
0
230
-1
0
CIRCLE
5
116
100
AcDbEntity
8
0
100
AcDbCircle
10
-34.249999999999964
20
-5.3070202185790851e-14
30
0
40
6.1500000000000021
210
0
220
0
230
-1
0
CIRCLE
5
117
100
AcDbEntity
8
0
100
AcDbCircle
10
3.6803893266323946e-14
20
-34.250000000000064
30
0
40
6.1500000000000021
210
0
220
0
230
-1
0
CIRCLE
5
118
100
AcDbEntity
8
0
100
AcDbCircle
10
13.613447261929037
20
-20.00000000000005
30
0
40
1.6500000000000004
210
0
220
0
230
-1
0
ENDSEC
0
SECTION
2
OBJECTS
0
DICTIONARY
5
C
100
AcDbDictionary
3
ACAD_GROUP
350
D
3
ACAD_MLINESTYLE
350
17
0
DICTIONARY
5
D
100
AcDbDictionary
0
DICTIONARY
5
1A
330
C
100
AcDbDictionary
0
DICTIONARY
5
17
100
AcDbDictionary
0
ENDSEC
0
EOF
