0
SECTION
2
HEADER
9
$INSUNITS
70
4
9
$ACADVER
1
AC1014
9
$HANDSEED
5
FFFF
0
ENDSEC
0
SECTION
2
TABLES
0
TABLE
2
VPORT
5
8
100
AcDbSymbolTable
0
ENDTAB
0
TABLE
2
LTYPE
5
5
100
AcDbSymbolTable
0
LTYPE
5
14
100
AcDbSymbolTableRecord
100
AcDbLinetypeTableRecord
2
BYBLOCK
70
0
0
LTYPE
5
15
100
AcDbSymbolTableRecord
100
AcDbLinetypeTableRecord
2
BYLAYER
70
0
0
ENDTAB
0
TABLE
2
LAYER
5
2
100
AcDbSymbolTable
70
2
0
LAYER
5
50
100
AcDbSymbolTableRecord
100
AcDbLayerTableRecord
2
0
70
0
6
CONTINUOUS
0
ENDTAB
0
TABLE
2
STYLE
5
3
100
AcDbSymbolTable
70
1
0
STYLE
5
11
100
AcDbSymbolTableRecord
100
AcDbTextStyleTableRecord
2
STANDARD
70
0
0
ENDTAB
0
TABLE
2
VIEW
5
6
100
AcDbSymbolTable
70
0
0
ENDTAB
0
TABLE
2
UCS
5
7
100
AcDbSymbolTable
70
0
0
ENDTAB
0
TABLE
2
APPID
5
9
100
AcDbSymbolTable
70
2
0
APPID
5
12
100
AcDbSymbolTableRecord
100
AcDbRegAppTableRecord
2
ACAD
70
0
0
ENDTAB
0
TABLE
2
DIMSTYLE
5
A
100
AcDbSymbolTable
70
1
0
ENDTAB
0
TABLE
2
BLOCK_RECORD
5
1
100
AcDbSymbolTable
70
1
0
BLOCK_RECORD
5
1F
100
AcDbSymbolTableRecord
100
AcDbBlockTableRecord
2
*MODEL_SPACE
0
BLOCK_RECORD
5
1B
100
AcDbSymbolTableRecord
100
AcDbBlockTableRecord
2
*PAPER_SPACE
0
ENDTAB
0
ENDSEC
0
SECTION
2
BLOCKS
0
BLOCK
5
20
100
AcDbEntity
100
AcDbBlockBegin
2
*MODEL_SPACE
0
ENDBLK
5
21
100
AcDbEntity
100
AcDbBlockEnd
0
BLOCK
5
1C
100
AcDbEntity
100
AcDbBlockBegin
2
*PAPER_SPACE
0
ENDBLK
5
1D
100
AcDbEntity
100
AcDbBlockEnd
0
ENDSEC
0
SECTION
2
ENTITIES
0
LWPOLYLINE
5
100
100
AcDbEntity
8
0
100
AcDbPolyline
90
4
70
1
43
0.0
10
90.199998301031911
20
255.60000000000002
10
-66.199994903095899
20
255.60000000000002
10
-66.199994903095885
20
-56.799999999999997
10
90.199998301031911
20
-56.799999999999997
0
LWPOLYLINE
5
101
100
AcDbEntity
8
0
100
AcDbPolyline
90
4
70
1
43
0.0
10
-60.599994903095897
20
243.59999999999999
10
-66.199994903095899
20
243.59999999999999
10
-66.199994903095899
20
231.60000000000002
10
-60.599994903095897
20
231.60000000000002
0
LWPOLYLINE
5
102
100
AcDbEntity
8
0
100
AcDbPolyline
90
4
70
1
43
0.0
10
-60.599994903095897
20
219.60000000000002
10
-66.199994903095899
20
219.60000000000002
10
-66.199994903095899
20
207.60000000000005
10
-60.599994903095897
20
207.60000000000005
0
LINE
5
103
100
AcDbEntity
8
0
100
AcDbLine
10
-66.199994903095899
20
183.60000000000002
30
0
11
-66.199994903095899
21
195.60000000000002
31
0
0
LWPOLYLINE
5
104
100
AcDbEntity
8
0
100
AcDbPolyline
90
4
70
1
43
0.0
10
-60.599994903095897
20
171.60000000000002
10
-66.199994903095899
20
171.60000000000002
10
-66.199994903095899
20
159.60000000000002
10
-60.599994903095897
20
159.60000000000002
0
LWPOLYLINE
5
105
100
AcDbEntity
8
0
100
AcDbPolyline
90
4
70
1
43
0.0
10
-60.599994903095897
20
147.60000000000002
10
-66.199994903095899
20
147.60000000000002
10
-66.199994903095899
20
135.60000000000002
10
-60.599994903095897
20
135.60000000000002
0
LWPOLYLINE
5
106
100
AcDbEntity
8
0
100
AcDbPolyline
90
4
70
1
43
0.0
10
-60.599994903095897
20
123.60000000000001
10
-66.199994903095899
20
123.60000000000001
10
-66.199994903095899
20
111.60000000000002
10
-60.599994903095897
20
111.60000000000002
0
LWPOLYLINE
5
107
100
AcDbEntity
8
0
100
AcDbPolyline
90
4
70
1
43
0.0
10
-60.599994903095897
20
99.600000000000023
10
-66.199994903095899
20
99.600000000000023
10
-66.199994903095899
20
87.600000000000023
10
-60.599994903095897
20
87.600000000000023
0
LWPOLYLINE
5
108
100
AcDbEntity
8
0
100
AcDbPolyline
90
4
70
1
43
0.0
10
-60.599994903095897
20
75.600000000000023
10
-66.199994903095899
20
75.600000000000023
10
-66.199994903095899
20
63.599999999999994
10
-60.599994903095897
20
63.599999999999994
0
LWPOLYLINE
5
109
100
AcDbEntity
8
0
100
AcDbPolyline
90
4
70
1
43
0.0
10
-60.599994903095897
20
51.600000000000001
10
-66.199994903095899
20
51.600000000000001
10
-66.199994903095899
20
39.600000000000009
10
-60.599994903095897
20
39.600000000000009
0
LWPOLYLINE
5
110
100
AcDbEntity
8
0
100
AcDbPolyline
90
4
70
1
43
0.0
10
-60.599994903095897
20
3.6000000000000298
10
-66.199994903095899
20
3.6000000000000298
10
-66.199994903095899
20
-8.3999999999999986
10
-60.599994903095897
20
-8.3999999999999986
0
LWPOLYLINE
5
111
100
AcDbEntity
8
0
100
AcDbPolyline
90
4
70
1
43
0.0
10
-60.599994903095897
20
-20.399999999999991
10
-66.199994903095899
20
-20.399999999999991
10
-66.199994903095899
20
-32.40000000000002
10
-60.599994903095897
20
-32.40000000000002
0
LWPOLYLINE
5
112
100
AcDbEntity
8
0
100
AcDbPolyline
90
4
70
1
43
0.0
10
84.599998301031931
20
-32.40000000000002
10
90.199998301031911
20
-32.40000000000002
10
90.199998301031911
20
-20.399999999999991
10
84.599998301031931
20
-20.399999999999991
0
LWPOLYLINE
5
113
100
AcDbEntity
8
0
100
AcDbPolyline
90
4
70
1
43
0.0
10
84.599998301031931
20
-8.3999999999999986
10
90.199998301031911
20
-8.3999999999999986
10
90.199998301031911
20
3.6000000000000298
10
84.599998301031931
20
3.6000000000000298
0
LWPOLYLINE
5
114
100
AcDbEntity
8
0
100
AcDbPolyline
90
4
70
1
43
0.0
10
90.199998301031911
20
51.600000000000001
10
84.599998301031931
20
51.600000000000001
10
84.599998301031931
20
39.600000000000009
10
90.199998301031911
20
39.600000000000009
0
LWPOLYLINE
5
115
100
AcDbEntity
8
0
100
AcDbPolyline
90
4
70
1
43
0.0
10
90.199998301031911
20
75.600000000000023
10
84.599998301031931
20
75.600000000000023
10
84.599998301031931
20
63.599999999999994
10
90.199998301031911
20
63.599999999999994
0
LWPOLYLINE
5
116
100
AcDbEntity
8
0
100
AcDbPolyline
90
4
70
1
43
0.0
10
90.199998301031911
20
99.600000000000023
10
84.599998301031931
20
99.600000000000023
10
84.599998301031931
20
87.600000000000023
10
90.199998301031911
20
87.600000000000023
0
LWPOLYLINE
5
117
100
AcDbEntity
8
0
100
AcDbPolyline
90
4
70
1
43
0.0
10
90.199998301031911
20
123.60000000000001
10
84.599998301031931
20
123.60000000000001
10
84.599998301031931
20
111.60000000000002
10
90.199998301031911
20
111.60000000000002
0
LWPOLYLINE
5
118
100
AcDbEntity
8
0
100
AcDbPolyline
90
4
70
1
43
0.0
10
84.599998301031931
20
135.60000000000002
10
90.199998301031911
20
135.60000000000002
10
90.199998301031911
20
147.60000000000002
10
84.599998301031931
20
147.60000000000002
0
LWPOLYLINE
5
119
100
AcDbEntity
8
0
100
AcDbPolyline
90
4
70
1
43
0.0
10
84.599998301031931
20
159.60000000000002
10
90.199998301031911
20
159.60000000000002
10
90.199998301031911
20
171.60000000000002
10
84.599998301031931
20
171.60000000000002
0
LINE
5
120
100
AcDbEntity
8
0
100
AcDbLine
10
90.199998301031911
20
195.60000000000002
30
0
11
90.199998301031911
21
183.59999999999999
31
0
0
LWPOLYLINE
5
121
100
AcDbEntity
8
0
100
AcDbPolyline
90
4
70
1
43
0.0
10
84.599998301031931
20
207.60000000000005
10
90.199998301031911
20
207.60000000000005
10
90.199998301031911
20
219.60000000000002
10
84.599998301031931
20
219.60000000000002
0
LWPOLYLINE
5
122
100
AcDbEntity
8
0
100
AcDbPolyline
90
4
70
1
43
0.0
10
84.599998301031931
20
231.60000000000002
10
90.199998301031911
20
231.60000000000002
10
90.199998301031911
20
243.60000000000002
10
84.599998301031931
20
243.60000000000002
0
LWPOLYLINE
5
123
100
AcDbEntity
8
0
100
AcDbPolyline
90
4
70
1
43
0.0
10
-42.000001698968028
20
199.59999999999994
10
-53.999998301031987
20
199.59999999999994
10
-53.999998301031987
20
193.99999999999991
10
-42.000001698968028
20
193.99999999999991
0
LWPOLYLINE
5
124
100
AcDbEntity
8
0
100
AcDbPolyline
90
4
70
1
43
0.0
10
-18.000001698968017
20
199.59999999999994
10
-29.999998301031987
20
199.59999999999994
10
-29.999998301031987
20
193.99999999999991
10
-18.000001698968017
20
193.99999999999991
0
LWPOLYLINE
5
125
100
AcDbEntity
8
0
100
AcDbPolyline
90
4
70
1
43
0.0
10
5.9999983010319857
20
199.59999999999994
10
-5.9999983010319813
20
199.59999999999994
10
-5.9999983010319813
20
193.99999999999991
10
5.9999983010319857
20
193.99999999999991
0
LWPOLYLINE
5
126
100
AcDbEntity
8
0
100
AcDbPolyline
90
4
70
1
43
0.0
10
29.99999830103199
20
199.59999999999994
10
18.00000169896802
20
199.59999999999994
10
18.00000169896802
20
193.99999999999991
10
29.99999830103199
20
193.99999999999991
0
LWPOLYLINE
5
127
100
AcDbEntity
8
0
100
AcDbPolyline
90
4
70
1
43
0.0
10
53.999998301031987
20
199.59999999999994
10
42.00000169896802
20
199.59999999999994
10
42.00000169896802
20
193.99999999999991
10
53.999998301031987
20
193.99999999999991
0
LWPOLYLINE
5
128
100
AcDbEntity
8
0
100
AcDbPolyline
90
4
70
1
43
0.0
10
77.999998301031994
20
199.59999999999994
10
66.000001698968035
20
199.59999999999994
10
66.000001698968035
20
193.99999999999991
10
77.999998301031994
20
193.99999999999991
0
LWPOLYLINE
5
129
100
AcDbEntity
8
0
100
AcDbPolyline
90
4
70
1
43
0.0
10
-42.000001698968028
20
2.8000000000000114
10
-53.999998301031987
20
2.8000000000000114
10
-53.999998301031987
20
-2.7999999999999936
10
-42.000001698968028
20
-2.7999999999999936
0
LWPOLYLINE
5
130
100
AcDbEntity
8
0
100
AcDbPolyline
90
4
70
1
43
0.0
10
-18.00000169896802
20
2.8000000000000114
10
-29.999998301031987
20
2.8000000000000114
10
-29.999998301031987
20
-2.7999999999999936
10
-18.00000169896802
20
-2.7999999999999936
0
LWPOLYLINE
5
131
100
AcDbEntity
8
0
100
AcDbPolyline
90
4
70
1
43
0.0
10
5.9999983010319813
20
2.8000000000000114
10
-5.9999983010319857
20
2.8000000000000114
10
-5.9999983010319857
20
-2.7999999999999936
10
5.9999983010319813
20
-2.7999999999999936
0
LWPOLYLINE
5
132
100
AcDbEntity
8
0
100
AcDbPolyline
90
4
70
1
43
0.0
10
29.99999830103199
20
2.8000000000000114
10
18.000001698968017
20
2.8000000000000114
10
18.000001698968017
20
-2.7999999999999936
10
29.99999830103199
20
-2.7999999999999936
0
LWPOLYLINE
5
133
100
AcDbEntity
8
0
100
AcDbPolyline
90
4
70
1
43
0.0
10
53.999998301031987
20
2.8000000000000114
10
42.00000169896802
20
2.8000000000000114
10
42.00000169896802
20
-2.7999999999999936
10
53.999998301031987
20
-2.7999999999999936
0
LWPOLYLINE
5
134
100
AcDbEntity
8
0
100
AcDbPolyline
90
4
70
1
43
0.0
10
77.999998301031994
20
2.8000000000000114
10
66.000001698968035
20
2.8000000000000114
10
66.000001698968035
20
-2.7999999999999936
10
77.999998301031994
20
-2.7999999999999936
0
LINE
5
135
100
AcDbEntity
8
0
100
AcDbLine
10
84.599998301031931
20
3.6000000000000298
30
0
11
88.599998301031931
21
3.6000000000000298
31
0
0
LWPOLYLINE
5
136
100
AcDbEntity
8
0
100
AcDbPolyline
90
4
70
1
43
0.0
10
80.249998301031965
20
4.9521162784454731
10
-56.835452225749435
20
4.9521162784454731
10
-56.835452225749435
20
191.95211627844546
10
80.249998301031965
20
191.95211627844546
0
LINE
5
137
100
AcDbEntity
8
0
100
AcDbLine
10
84.599998301031931
20
18.000000000000025
30
0
11
90.199998301031911
21
18.000000000000043
31
0
0
LINE
5
138
100
AcDbEntity
8
0
100
AcDbLine
10
87.399998301031928
20
18.000000000000036
30
0
11
87.399998301031928
21
19.600000000000037
31
0
0
LINE
5
139
100
AcDbEntity
8
0
100
AcDbLine
10
87.399998301031928
20
18.000000000000036
30
0
11
85.79999830103192
21
18.000000000000036
31
0
0
CIRCLE
5
140
100
AcDbEntity
8
0
100
AcDbCircle
10
87.399998301031928
20
19.600000000000037
30
0
40
1.5999999999999988
0
LINE
5
141
100
AcDbEntity
8
0
100
AcDbLine
10
84.599998301031931
20
186
30
0
11
90.199998301031911
21
186
31
0
0
LINE
5
142
100
AcDbEntity
8
0
100
AcDbLine
10
87.399998301031928
20
186
30
0
11
87.399998301031928
21
187.60000000000002
31
0
0
LINE
5
143
100
AcDbEntity
8
0
100
AcDbLine
10
87.399998301031928
20
186
30
0
11
85.79999830103192
21
186
31
0
0
CIRCLE
5
144
100
AcDbEntity
8
0
100
AcDbCircle
10
87.399998301031928
20
187.60000000000002
30
0
40
1.600000000000007
0
LINE
5
145
100
AcDbEntity
8
0
100
AcDbLine
10
-60.599994903095897
20
186
30
0
11
-66.199994903095899
21
186
31
0
0
LINE
5
146
100
AcDbEntity
8
0
100
AcDbLine
10
-63.399994903095887
20
186
30
0
11
-63.399994903095887
21
187.60000000000002
31
0
0
LINE
5
147
100
AcDbEntity
8
0
100
AcDbLine
10
-63.399994903095887
20
186
30
0
11
-64.999994903095896
21
186
31
0
0
CIRCLE
5
148
100
AcDbEntity
8
0
100
AcDbCircle
10
-63.399994903095887
20
187.60000000000002
30
0
40
1.6000000000000014
0
LINE
5
149
100
AcDbEntity
8
0
100
AcDbLine
10
-60.599994903095897
20
18.000000000000025
30
0
11
-66.199994903095899
21
18.000000000000043
31
0
0
LINE
5
150
100
AcDbEntity
8
0
100
AcDbLine
10
-63.399994903095887
20
18.000000000000036
30
0
11
-63.399994903095887
21
19.600000000000037
31
0
0
LINE
5
151
100
AcDbEntity
8
0
100
AcDbLine
10
-63.399994903095887
20
18.000000000000036
30
0
11
-64.999994903095896
21
18.000000000000036
31
0
0
CIRCLE
5
152
100
AcDbEntity
8
0
100
AcDbCircle
10
-63.399994903095887
20
19.600000000000037
30
0
40
1.6000000000000014
0
LINE
5
153
100
AcDbEntity
8
0
100
AcDbLine
10
-66.199994903095899
20
111.60000000000002
30
0
11
-66.199994903095899
21
99.600000000000023
31
0
0
LINE
5
154
100
AcDbEntity
8
0
100
AcDbLine
10
90.199998301031911
20
111.60000000000002
30
0
11
90.199998301031911
21
99.600000000000023
31
0
0
LINE
5
155
100
AcDbEntity
8
0
100
AcDbLine
10
-66.199994903095899
20
105.60000000000002
30
0
11
-56.835452225749435
21
105.60000000000002
31
0
0
LINE
5
156
100
AcDbEntity
8
0
100
AcDbLine
10
80.249998301031965
20
105.60000000000002
30
0
11
90.199998301031911
21
105.60000000000002
31
0
0
ENDSEC
0
SECTION
2
OBJECTS
0
DICTIONARY
5
C
100
AcDbDictionary
3
ACAD_GROUP
350
D
3
ACAD_MLINESTYLE
350
17
0
DICTIONARY
5
D
100
AcDbDictionary
0
DICTIONARY
5
1A
330
C
100
AcDbDictionary
0
DICTIONARY
5
17
100
AcDbDictionary
0
ENDSEC
0
EOF
