  0
SECTION
  2
HEADER
  9
$ACADVER
  1
AC1015
  9
$ACADMAINTVER
 70
     6
  9
$DWGCODEPAGE
  3
ANSI_1252
  9
$INSBASE
 10
0.0
 20
0.0
 30
0.0
  9
$EXTMIN
 10
0.0
 20
0.0
 30
0.0
  9
$EXTMAX
 10
600.0
 20
300.0
 30
0.0
  9
$LIMMIN
 10
0.0
 20
0.0
  9
$LIMMAX
 10
600.0
 20
300.0
  9
$ORTHOMODE
 70
     0
  9
$REGENMODE
 70
     1
  9
$FILLMODE
 70
     1
  9
$QTEXTMODE
 70
     0
  9
$MIRRTEXT
 70
     1
  9
$LTSCALE
 40
1.0
  9
$ATTMODE
 70
     1
  9
$TEXTSIZE
 40
3.5
  9
$TRACEWID
 40
1.0
  9
$TEXTSTYLE
  7
Standard
  9
$CLAYER
  8
0
  9
$CELTYPE
  6
ByLayer
  9
$CECOLOR
 62
   256
  9
$CELTSCALE
 40
1.0
  9
$DISPSILH
 70
     0
  9
$DIMSCALE
 40
1.0
  9
$DIMASZ
 40
3.302
  9
$DIMEXO
 40
1.0
  9
$DIMDLI
 40
3.75
  9
$DIMRND
 40
0.0
  9
$DIMDLE
 40
0.0
  9
$DIMEXE
 40
1.0
  9
$DIMTP
 40
0.0
  9
$DIMTM
 40
0.0
  9
$DIMTXT
 40
3.5
  9
$DIMCEN
 40
2.5
  9
$DIMTSZ
 40
0.0
  9
$DIMTOL
 70
     0
  9
$DIMLIM
 70
     0
  9
$DIMTIH
 70
     1
  9
$DIMTOH
 70
     1
  9
$DIMSE1
 70
     0
  9
$DIMSE2
 70
     0
  9
$DIMTAD
 70
     1
  9
$DIMZIN
 70
     0
  9
$DIMBLK
  1

  9
$DIMASO
 70
     1
  9
$DIMSHO
 70
     1
  9
$DIMPOST
  1

  9
$DIMAPOST
  1

  9
$DIMALT
 70
     0
  9
$DIMALTD
 70
     3
  9
$DIMALTF
 40
0.0393700787
  9
$DIMLFAC
 40
1.0
  9
$DIMTOFL
 70
     1
  9
$DIMTVP
 40
0.0
  9
$DIMTIX
 70
     0
  9
$DIMSOXD
 70
     0
  9
$DIMSAH
 70
     0
  9
$DIMBLK1
  1

  9
$DIMBLK2
  1

  9
$DIMSTYLE
  2
ISO-25
  9
$DIMCLRD
 70
     0
  9
$DIMCLRE
 70
     0
  9
$DIMCLRT
 70
     0
  9
$DIMTFAC
 40
1.0
  9
$DIMGAP
 40
1.524
  9
$DIMJUST
 70
     0
  9
$DIMSD1
 70
     0
  9
$DIMSD2
 70
     0
  9
$DIMTOLJ
 70
     0
  9
$DIMTZIN
 70
     0
  9
$DIMALTZ
 70
     0
  9
$DIMALTTZ
 70
     0
  9
$DIMUPT
 70
     0
  9
$DIMDEC
 70
     2
  9
$DIMTDEC
 70
     2
  9
$DIMALTU
 70
     2
  9
$DIMALTTD
 70
     3
  9
$DIMTXSTY
  7
Standard
  9
$DIMAUNIT
 70
     0
  9
$DIMADEC
 70
     2
  9
$DIMALTRND
 40
0.0
  9
$DIMAZIN
 70
     0
  9
$DIMDSEP
 70
    44
  9
$DIMATFIT
 70
     3
  9
$DIMFRAC
 70
     0
  9
$DIMLDRBLK
  1

  9
$DIMLUNIT
 70
     2
  9
$DIMLWD
 70
    -2
  9
$DIMLWE
 70
    -2
  9
$DIMTMOVE
 70
     0
  9
$LUNITS
 70
     2
  9
$LUPREC
 70
     2
  9
$SKETCHINC
 40
1.0
  9
$FILLETRAD
 40
10.0
  9
$AUNITS
 70
     0
  9
$AUPREC
 70
     2
  9
$MENU
  1
.
  9
$ELEVATION
 40
0.0
  9
$PELEVATION
 40
0.0
  9
$THICKNESS
 40
0.0
  9
$LIMCHECK
 70
     0
  9
$CHAMFERA
 40
10.0
  9
$CHAMFERB
 40
10.0
  9
$CHAMFERC
 40
20.0
  9
$CHAMFERD
 40
0.0
  9
$SKPOLY
 70
     0
  9
$TDCREATE
 40
2456561.834773206
  9
$TDUCREATE
 40
2456562.043106539
  9
$TDUPDATE
 40
2456561.834773808
  9
$TDUUPDATE
 40
2456562.043107141
  9
$TDINDWG
 40
0.0000000116
  9
$TDUSRTIMER
 40
0.0000000116
  9
$USRTIMER
 70
     1
  9
$ANGBASE
 50
0.0
  9
$ANGDIR
 70
     0
  9
$PDMODE
 70
     0
  9
$PDSIZE
 40
-1.0
  9
$PLINEWID
 40
0.0
  9
$SPLFRAME
 70
     0
  9
$SPLINETYPE
 70
     6
  9
$SPLINESEGS
 70
     8
  9
$HANDSEED
  5
297
  9
$SURFTAB1
 70
     6
  9
$SURFTAB2
 70
     6
  9
$SURFTYPE
 70
     6
  9
$SURFU
 70
     6
  9
$SURFV
 70
     6
  9
$UCSBASE
  2

  9
$UCSNAME
  2

  9
$UCSORG
 10
0.0
 20
0.0
 30
0.0
  9
$UCSXDIR
 10
1.0
 20
0.0
 30
0.0
  9
$UCSYDIR
 10
0.0
 20
1.0
 30
0.0
  9
$UCSORTHOREF
  2

  9
$UCSORTHOVIEW
 70
     0
  9
$UCSORGTOP
 10
0.0
 20
0.0
 30
0.0
  9
$UCSORGBOTTOM
 10
0.0
 20
0.0
 30
0.0
  9
$UCSORGLEFT
 10
0.0
 20
0.0
 30
0.0
  9
$UCSORGRIGHT
 10
0.0
 20
0.0
 30
0.0
  9
$UCSORGFRONT
 10
0.0
 20
0.0
 30
0.0
  9
$UCSORGBACK
 10
0.0
 20
0.0
 30
0.0
  9
$PUCSBASE
  2

  9
$PUCSNAME
  2

  9
$PUCSORG
 10
0.0
 20
0.0
 30
0.0
  9
$PUCSXDIR
 10
1.0
 20
0.0
 30
0.0
  9
$PUCSYDIR
 10
0.0
 20
1.0
 30
0.0
  9
$PUCSORTHOREF
  2

  9
$PUCSORTHOVIEW
 70
     0
  9
$PUCSORGTOP
 10
0.0
 20
0.0
 30
0.0
  9
$PUCSORGBOTTOM
 10
0.0
 20
0.0
 30
0.0
  9
$PUCSORGLEFT
 10
0.0
 20
0.0
 30
0.0
  9
$PUCSORGRIGHT
 10
0.0
 20
0.0
 30
0.0
  9
$PUCSORGFRONT
 10
0.0
 20
0.0
 30
0.0
  9
$PUCSORGBACK
 10
0.0
 20
0.0
 30
0.0
  9
$USERI1
 70
     0
  9
$USERI2
 70
     0
  9
$USERI3
 70
     0
  9
$USERI4
 70
     0
  9
$USERI5
 70
     0
  9
$USERR1
 40
0.0
  9
$USERR2
 40
0.0
  9
$USERR3
 40
0.0
  9
$USERR4
 40
0.0
  9
$USERR5
 40
0.0
  9
$WORLDVIEW
 70
     1
  9
$SHADEDGE
 70
     3
  9
$SHADEDIF
 70
    70
  9
$TILEMODE
 70
     1
  9
$MAXACTVP
 70
    64
  9
$PINSBASE
 10
0.0
 20
0.0
 30
0.0
  9
$PLIMCHECK
 70
     0
  9
$PEXTMIN
 10
1.0000000000E+20
 20
1.0000000000E+20
 30
1.0000000000E+20
  9
$PEXTMAX
 10
-1.0000000000E+20
 20
-1.0000000000E+20
 30
-1.0000000000E+20
  9
$PLIMMIN
 10
0.0
 20
0.0
  9
$PLIMMAX
 10
420.0
 20
297.0
  9
$UNITMODE
 70
     0
  9
$VISRETAIN
 70
     1
  9
$PLINEGEN
 70
     0
  9
$PSLTSCALE
 70
     1
  9
$TREEDEPTH
 70
  3020
  9
$CMLSTYLE
  2
Standard
  9
$CMLJUST
 70
     0
  9
$CMLSCALE
 40
20.0
  9
$PROXYGRAPHICS
 70
     1
  9
$MEASUREMENT
 70
     1
  9
$CELWEIGHT
370
    -1
  9
$ENDCAPS
280
     0
  9
$JOINSTYLE
280
     0
  9
$LWDISPLAY
290
     1
  9
$INSUNITS
 70
     4
  9
$HYPERLINKBASE
  1

  9
$STYLESHEET
  1

  9
$XEDIT
290
     1
  9
$CEPSNTYPE
380
     0
  9
$PSTYLEMODE
290
     1
  9
$FINGERPRINTGUID
  2
{75440112-72DF-4482-B3B2-D8230847D56F}
  9
$VERSIONGUID
  2
{FAEB1C32-E019-11D5-929B-00C0DF256EC4}
  9
$EXTNAMES
290
     1
  9
$PSVPSCALE
 40
0.0
  9
$OLESTARTUP
290
     0
  0
ENDSEC
  0
SECTION
  2
CLASSES
  0
CLASS
  1
ACDBDICTIONARYWDFLT
  2
AcDbDictionaryWithDefault
  3
ObjectDBX Classes
 90
        0
280
     0
281
     0
  0
CLASS
  1
VISUALSTYLE
  2
AcDbVisualStyle
  3
ObjectDBX Classes
 90
     4095
280
     0
281
     0
  0
CLASS
  1
MATERIAL
  2
AcDbMaterial
  3
ObjectDBX Classes
 90
     1153
280
     0
281
     0
  0
CLASS
  1
ACDBPLACEHOLDER
  2
AcDbPlaceHolder
  3
ObjectDBX Classes
 90
        0
280
     0
281
     0
  0
CLASS
  1
LAYOUT
  2
AcDbLayout
  3
ObjectDBX Classes
 90
        0
280
     0
281
     0
  0
ENDSEC
  0
SECTION
  2
TABLES
  0
TABLE
  2
VPORT
  5
8
330
0
100
AcDbSymbolTable
 70
     1
  0
VPORT
  5
29
330
8
100
AcDbSymbolTableRecord
100
AcDbViewportTableRecord
  2
*Active
 70
     0
 10
0.0
 20
0.0
 11
1.0
 21
1.0
 12
300.0
 22
150.0
 13
0.0
 23
0.0
 14
10.0
 24
10.0
 15
10.0
 25
10.0
 16
0.0
 26
0.0
 36
1.0
 17
0.0
 27
0.0
 37
0.0
 40
300.0
 41
2.0
 42
50.0
 43
0.0
 44
0.0
 50
0.0
 51
0.0
 71
     0
 72
  2000
 73
     1
 74
     3
 75
     0
 76
     0
 77
     0
 78
     0
281
     0
 65
     1
110
0.0
120
0.0
130
0.0
111
1.0
121
0.0
131
0.0
112
0.0
122
1.0
132
0.0
 79
     0
146
0.0
  0
ENDTAB
  0
TABLE
  2
LTYPE
  5
5
330
0
100
AcDbSymbolTable
 70
     6
  0
LTYPE
  5
14
330
5
100
AcDbSymbolTableRecord
100
AcDbLinetypeTableRecord
  2
ByBlock
 70
     0
  3

 72
    65
 73
     0
 40
0.0
  0
LTYPE
  5
15
330
5
100
AcDbSymbolTableRecord
100
AcDbLinetypeTableRecord
  2
ByLayer
 70
     0
  3

 72
    65
 73
     0
 40
0.0
  0
LTYPE
  5
16
330
5
100
AcDbSymbolTableRecord
100
AcDbLinetypeTableRecord
  2
Continuous
 70
     0
  3
Solid line
 72
    65
 73
     0
 40
0.0
  0
LTYPE
  5
3F
330
5
100
AcDbSymbolTableRecord
100
AcDbLinetypeTableRecord
  2
HIDDEN
 70
     0
  3
Hidden __ __ __ __ __ __ __ __ __ __ __ __ __ __
 72
    65
 73
     2
 40
1.905
 49
1.27
 74
     0
 49
-0.635
 74
     0
  0
LTYPE
  5
40
330
5
100
AcDbSymbolTableRecord
100
AcDbLinetypeTableRecord
  2
PHANTOM
 70
     0
  3
Phantom ______  __  __  ______  __  __  ______
 72
    65
 73
     6
 40
12.7
 49
6.35
 74
     0
 49
-1.27
 74
     0
 49
1.27
 74
     0
 49
-1.27
 74
     0
 49
1.27
 74
     0
 49
-1.27
 74
     0
  0
LTYPE
  5
41
330
5
100
AcDbSymbolTableRecord
100
AcDbLinetypeTableRecord
  2
CENTER
 70
     0
  3
Center ____ _ ____ _ ____ _ ____ _ ____ _ ____
 72
    65
 73
     4
 40
10.16
 49
6.35
 74
     0
 49
-1.27
 74
     0
 49
1.27
 74
     0
 49
-1.27
 74
     0
  0
LTYPE
  5
42
330
5
100
AcDbSymbolTableRecord
100
AcDbLinetypeTableRecord
  2
CENTERX2
 70
     0
  3
Center (2x) ________  __  ________  __  _____
 72
    65
 73
     4
 40
20.32
 49
12.7
 74
     0
 49
-2.54
 74
     0
 49
2.54
 74
     0
 49
-2.54
 74
     0
  0
LTYPE
  5
43
330
5
100
AcDbSymbolTableRecord
100
AcDbLinetypeTableRecord
  2
DOT2
 70
     0
  3
Dot (.5x) ........................................
 72
    65
 73
     2
 40
0.635
 49
0.0
 74
     0
 49
-0.635
 74
     0
  0
ENDTAB
  0
TABLE
  2
LAYER
  5
2
330
0
100
AcDbSymbolTable
 70
     1
  0
LAYER
  5
10
330
2
100
AcDbSymbolTableRecord
100
AcDbLayerTableRecord
  2
0
 70
     0
 62
     7
  6
Continuous
370
    -3
390
F
  0
ENDTAB
  0
TABLE
  2
STYLE
  5
3
330
0
100
AcDbSymbolTable
 70
     2
  0
STYLE
  5
11
330
3
100
AcDbSymbolTableRecord
100
AcDbTextStyleTableRecord
  2
Standard
 70
     0
 40
0.0
 41
1.0
 50
0.0
 71
     0
 42
3.5
  3
txt
  4

  0
STYLE
  5
294
330
3
100
AcDbSymbolTableRecord
100
AcDbTextStyleTableRecord
  2
SLDTEXTSTYLE0
 70
     0
 40
0.0
 41
0.7
 50
0.0
 71
     0
 42
0.2
  3
TXT
  4

  0
ENDTAB
  0
TABLE
  2
VIEW
  5
6
330
0
100
AcDbSymbolTable
 70
     0
  0
ENDTAB
  0
TABLE
  2
UCS
  5
7
330
0
100
AcDbSymbolTable
 70
     0
  0
ENDTAB
  0
TABLE
  2
APPID
  5
9
330
0
100
AcDbSymbolTable
 70
     1
  0
APPID
  5
12
330
9
100
AcDbSymbolTableRecord
100
AcDbRegAppTableRecord
  2
ACAD
 70
     0
  0
ENDTAB
  0
TABLE
  2
DIMSTYLE
  5
A
330
0
100
AcDbSymbolTable
 70
     1
100
AcDbDimStyleTable
  0
DIMSTYLE
105
27
330
A
100
AcDbSymbolTableRecord
100
AcDbDimStyleTableRecord
  2
ISO-25
 70
     0
 41
2.5
 42
0.625
 43
3.75
 44
1.25
 73
     0
 74
     0
 77
     1
 78
     8
140
2.5
141
2.5
143
0.0393700787
147
0.625
171
     3
172
     1
178
     0
271
     2
272
     2
274
     3
278
    44
283
     0
284
     8
340
11
  0
ENDTAB
  0
TABLE
  2
BLOCK_RECORD
  5
1
330
0
100
AcDbSymbolTable
 70
     1
  0
BLOCK_RECORD
  5
1F
330
1
100
AcDbSymbolTableRecord
100
AcDbBlockTableRecord
  2
*Model_Space
340
22
  0
BLOCK_RECORD
  5
1B
330
1
100
AcDbSymbolTableRecord
100
AcDbBlockTableRecord
  2
*Paper_Space
340
1E
  0
BLOCK_RECORD
  5
23
330
1
100
AcDbSymbolTableRecord
100
AcDbBlockTableRecord
  2
*Paper_Space0
340
26
  0
ENDTAB
  0
ENDSEC
  0
SECTION
  2
BLOCKS
  0
BLOCK
  5
20
330
1F
100
AcDbEntity
  8
0
100
AcDbBlockBegin
  2
*Model_Space
 70
     0
 10
0.0
 20
0.0
 30
0.0
  3
*Model_Space
  1

  0
ENDBLK
  5
21
330
1F
100
AcDbEntity
  8
0
100
AcDbBlockEnd
  0
BLOCK
  5
1C
330
1B
100
AcDbEntity
 67
     1
  8
0
100
AcDbBlockBegin
  2
*Paper_Space
 70
     0
 10
0.0
 20
0.0
 30
0.0
  3
*Paper_Space
  1

  0
ENDBLK
  5
1D
330
1B
100
AcDbEntity
 67
     1
  8
0
100
AcDbBlockEnd
  0
BLOCK
  5
24
330
23
100
AcDbEntity
  8
0
100
AcDbBlockBegin
  2
*Paper_Space0
 70
     0
 10
0.0
 20
0.0
 30
0.0
  3
*Paper_Space0
  1

  0
ENDBLK
  5
25
330
23
100
AcDbEntity
  8
0
100
AcDbBlockEnd
  0
ENDSEC
  0
SECTION
  2
ENTITIES
  0
LINE
  5
44
330
1F
100
AcDbEntity
  8
0
  6
Continuous
 62
     7
370
    15
100
AcDbLine
 10
190.7081411765
 20
123.0487529412
 30
0.0
 11
187.5881411765
 21
123.0487529412
 31
0.0
  0
LINE
  5
45
330
1F
100
AcDbEntity
  8
0
  6
Continuous
 62
     7
370
    15
100
AcDbLine
 10
190.7081411765
 20
133.0487529412
 30
0.0
 11
190.7081411765
 21
123.0487529412
 31
0.0
  0
LINE
  5
46
330
1F
100
AcDbEntity
  8
0
  6
Continuous
 62
     7
370
    15
100
AcDbLine
 10
187.5881411765
 20
133.0487529412
 30
0.0
 11
190.7081411765
 21
133.0487529412
 31
0.0
  0
LINE
  5
47
330
1F
100
AcDbEntity
  8
0
  6
Continuous
 62
     7
370
    15
100
AcDbLine
 10
187.5881411765
 20
143.0487529412
 30
0.0
 11
187.5881411765
 21
133.0487529412
 31
0.0
  0
LINE
  5
48
330
1F
100
AcDbEntity
  8
0
  6
Continuous
 62
     7
370
    15
100
AcDbLine
 10
190.7081411765
 20
143.0487529412
 30
0.0
 11
187.5881411765
 21
143.0487529412
 31
0.0
  0
LINE
  5
49
330
1F
100
AcDbEntity
  8
0
  6
Continuous
 62
     7
370
    15
100
AcDbLine
 10
190.7081411765
 20
153.0487529412
 30
0.0
 11
190.7081411765
 21
143.0487529412
 31
0.0
  0
LINE
  5
4A
330
1F
100
AcDbEntity
  8
0
  6
Continuous
 62
     7
370
    15
100
AcDbLine
 10
187.5881411765
 20
153.0487529412
 30
0.0
 11
190.7081411765
 21
153.0487529412
 31
0.0
  0
LINE
  5
4B
330
1F
100
AcDbEntity
  8
0
  6
Continuous
 62
     7
370
    15
100
AcDbLine
 10
187.5881411765
 20
293.0487529412
 30
0.0
 11
187.5881411765
 21
153.0487529412
 31
0.0
  0
LINE
  5
4C
330
1F
100
AcDbEntity
  8
0
  6
Continuous
 62
     7
370
    15
100
AcDbLine
 10
287.5881411765
 20
293.0487529412
 30
0.0
 11
187.5881411765
 21
293.0487529412
 31
0.0
  0
LINE
  5
4D
330
1F
100
AcDbEntity
  8
0
  6
Continuous
 62
     7
370
    15
100
AcDbLine
 10
287.5881411765
 20
153.0487529412
 30
0.0
 11
287.5881411765
 21
293.0487529412
 31
0.0
  0
LINE
  5
4E
330
1F
100
AcDbEntity
  8
0
  6
Continuous
 62
     7
370
    15
100
AcDbLine
 10
284.4681411765
 20
153.0487529412
 30
0.0
 11
287.5881411765
 21
153.0487529412
 31
0.0
  0
LINE
  5
4F
330
1F
100
AcDbEntity
  8
0
  6
Continuous
 62
     7
370
    15
100
AcDbLine
 10
284.4681411765
 20
143.0487529412
 30
0.0
 11
284.4681411765
 21
153.0487529412
 31
0.0
  0
LINE
  5
50
330
1F
100
AcDbEntity
  8
0
  6
Continuous
 62
     7
370
    15
100
AcDbLine
 10
287.5881411765
 20
143.0487529412
 30
0.0
 11
284.4681411765
 21
143.0487529412
 31
0.0
  0
LINE
  5
51
330
1F
100
AcDbEntity
  8
0
  6
Continuous
 62
     7
370
    15
100
AcDbLine
 10
287.5881411765
 20
133.0487529412
 30
0.0
 11
287.5881411765
 21
143.0487529412
 31
0.0
  0
LINE
  5
52
330
1F
100
AcDbEntity
  8
0
  6
Continuous
 62
     7
370
    15
100
AcDbLine
 10
284.4681411765
 20
133.0487529412
 30
0.0
 11
287.5881411765
 21
133.0487529412
 31
0.0
  0
LINE
  5
53
330
1F
100
AcDbEntity
  8
0
  6
Continuous
 62
     7
370
    15
100
AcDbLine
 10
284.4681411765
 20
123.0487529412
 30
0.0
 11
284.4681411765
 21
133.0487529412
 31
0.0
  0
LINE
  5
54
330
1F
100
AcDbEntity
  8
0
  6
Continuous
 62
     7
370
    15
100
AcDbLine
 10
287.5881411765
 20
123.0487529412
 30
0.0
 11
284.4681411765
 21
123.0487529412
 31
0.0
  0
LINE
  5
55
330
1F
100
AcDbEntity
  8
0
  6
Continuous
 62
     7
370
    15
100
AcDbLine
 10
287.5881411765
 20
116.1687529412
 30
0.0
 11
287.5881411765
 21
123.0487529412
 31
0.0
  0
LINE
  5
56
330
1F
100
AcDbEntity
  8
0
  6
Continuous
 62
     7
370
    15
100
AcDbLine
 10
277.5881411765
 20
116.1687529412
 30
0.0
 11
287.5881411765
 21
116.1687529412
 31
0.0
  0
LINE
  5
57
330
1F
100
AcDbEntity
  8
0
  6
Continuous
 62
     7
370
    15
100
AcDbLine
 10
277.5881411765
 20
113.0487529412
 30
0.0
 11
277.5881411765
 21
116.1687529412
 31
0.0
  0
LINE
  5
58
330
1F
100
AcDbEntity
  8
0
  6
Continuous
 62
     7
370
    15
100
AcDbLine
 10
267.5881411765
 20
113.0487529412
 30
0.0
 11
277.5881411765
 21
113.0487529412
 31
0.0
  0
LINE
  5
59
330
1F
100
AcDbEntity
  8
0
  6
Continuous
 62
     7
370
    15
100
AcDbLine
 10
267.5881411765
 20
116.1687529412
 30
0.0
 11
267.5881411765
 21
113.0487529412
 31
0.0
  0
LINE
  5
5A
330
1F
100
AcDbEntity
  8
0
  6
Continuous
 62
     7
370
    15
100
AcDbLine
 10
257.5881411765
 20
116.1687529412
 30
0.0
 11
267.5881411765
 21
116.1687529412
 31
0.0
  0
LINE
  5
5B
330
1F
100
AcDbEntity
  8
0
  6
Continuous
 62
     7
370
    15
100
AcDbLine
 10
257.5881411765
 20
113.0487529412
 30
0.0
 11
257.5881411765
 21
116.1687529412
 31
0.0
  0
LINE
  5
5C
330
1F
100
AcDbEntity
  8
0
  6
Continuous
 62
     7
370
    15
100
AcDbLine
 10
247.5881411765
 20
113.0487529412
 30
0.0
 11
257.5881411765
 21
113.0487529412
 31
0.0
  0
LINE
  5
5D
330
1F
100
AcDbEntity
  8
0
  6
Continuous
 62
     7
370
    15
100
AcDbLine
 10
247.5881411765
 20
116.1687529412
 30
0.0
 11
247.5881411765
 21
113.0487529412
 31
0.0
  0
LINE
  5
5E
330
1F
100
AcDbEntity
  8
0
  6
Continuous
 62
     7
370
    15
100
AcDbLine
 10
237.5881411765
 20
116.1687529412
 30
0.0
 11
247.5881411765
 21
116.1687529412
 31
0.0
  0
LINE
  5
5F
330
1F
100
AcDbEntity
  8
0
  6
Continuous
 62
     7
370
    15
100
AcDbLine
 10
237.5881411765
 20
113.0487529412
 30
0.0
 11
237.5881411765
 21
116.1687529412
 31
0.0
  0
LINE
  5
60
330
1F
100
AcDbEntity
  8
0
  6
Continuous
 62
     7
370
    15
100
AcDbLine
 10
227.5881411765
 20
113.0487529412
 30
0.0
 11
237.5881411765
 21
113.0487529412
 31
0.0
  0
LINE
  5
61
330
1F
100
AcDbEntity
  8
0
  6
Continuous
 62
     7
370
    15
100
AcDbLine
 10
227.5881411765
 20
116.1687529412
 30
0.0
 11
227.5881411765
 21
113.0487529412
 31
0.0
  0
LINE
  5
62
330
1F
100
AcDbEntity
  8
0
  6
Continuous
 62
     7
370
    15
100
AcDbLine
 10
217.5881411765
 20
116.1687529412
 30
0.0
 11
227.5881411765
 21
116.1687529412
 31
0.0
  0
LINE
  5
63
330
1F
100
AcDbEntity
  8
0
  6
Continuous
 62
     7
370
    15
100
AcDbLine
 10
217.5881411765
 20
113.0487529412
 30
0.0
 11
217.5881411765
 21
116.1687529412
 31
0.0
  0
LINE
  5
64
330
1F
100
AcDbEntity
  8
0
  6
Continuous
 62
     7
370
    15
100
AcDbLine
 10
207.5881411765
 20
113.0487529412
 30
0.0
 11
217.5881411765
 21
113.0487529412
 31
0.0
  0
LINE
  5
65
330
1F
100
AcDbEntity
  8
0
  6
Continuous
 62
     7
370
    15
100
AcDbLine
 10
207.5881411765
 20
116.1687529412
 30
0.0
 11
207.5881411765
 21
113.0487529412
 31
0.0
  0
LINE
  5
66
330
1F
100
AcDbEntity
  8
0
  6
Continuous
 62
     7
370
    15
100
AcDbLine
 10
197.5881411765
 20
116.1687529412
 30
0.0
 11
207.5881411765
 21
116.1687529412
 31
0.0
  0
LINE
  5
67
330
1F
100
AcDbEntity
  8
0
  6
Continuous
 62
     7
370
    15
100
AcDbLine
 10
197.5881411765
 20
113.0487529412
 30
0.0
 11
197.5881411765
 21
116.1687529412
 31
0.0
  0
LINE
  5
68
330
1F
100
AcDbEntity
  8
0
  6
Continuous
 62
     7
370
    15
100
AcDbLine
 10
187.5881411765
 20
113.0487529412
 30
0.0
 11
197.5881411765
 21
113.0487529412
 31
0.0
  0
LINE
  5
69
330
1F
100
AcDbEntity
  8
0
  6
Continuous
 62
     7
370
    15
100
AcDbLine
 10
187.5881411765
 20
123.0487529412
 30
0.0
 11
187.5881411765
 21
113.0487529412
 31
0.0
  0
LINE
  5
6A
330
1F
100
AcDbEntity
  8
0
  6
Continuous
 62
     7
370
    15
100
AcDbLine
 10
187.5881411765
 20
106.500116077
 30
0.0
 11
197.588140953
 21
106.500116077
 31
0.0
  0
LINE
  5
6B
330
1F
100
AcDbEntity
  8
0
  6
Continuous
 62
     7
370
    15
100
AcDbLine
 10
197.588140953
 20
106.500116077
 30
0.0
 11
197.588140953
 21
109.6201160855
 31
0.0
  0
LINE
  5
6C
330
1F
100
AcDbEntity
  8
0
  6
Continuous
 62
     7
370
    15
100
AcDbLine
 10
197.588140953
 20
109.6201160855
 30
0.0
 11
207.5881407294
 21
109.6201160855
 31
0.0
  0
LINE
  5
6D
330
1F
100
AcDbEntity
  8
0
  6
Continuous
 62
     7
370
    15
100
AcDbLine
 10
207.5881407294
 20
109.6201160855
 30
0.0
 11
207.5881407294
 21
106.500116077
 31
0.0
  0
LINE
  5
6E
330
1F
100
AcDbEntity
  8
0
  6
Continuous
 62
     7
370
    15
100
AcDbLine
 10
207.5881407294
 20
106.500116077
 30
0.0
 11
217.5881405059
 21
106.500116077
 31
0.0
  0
LINE
  5
6F
330
1F
100
AcDbEntity
  8
0
  6
Continuous
 62
     7
370
    15
100
AcDbLine
 10
217.5881405059
 20
106.500116077
 30
0.0
 11
217.5881405059
 21
109.6201160855
 31
0.0
  0
LINE
  5
70
330
1F
100
AcDbEntity
  8
0
  6
Continuous
 62
     7
370
    15
100
AcDbLine
 10
217.5881405059
 20
109.6201160855
 30
0.0
 11
227.5881402824
 21
109.6201160855
 31
0.0
  0
LINE
  5
71
330
1F
100
AcDbEntity
  8
0
  6
Continuous
 62
     7
370
    15
100
AcDbLine
 10
227.5881402824
 20
109.6201160855
 30
0.0
 11
227.5881402824
 21
106.500116077
 31
0.0
  0
LINE
  5
72
330
1F
100
AcDbEntity
  8
0
  6
Continuous
 62
     7
370
    15
100
AcDbLine
 10
227.5881402824
 20
106.500116077
 30
0.0
 11
237.5881419215
 21
106.500116077
 31
0.0
  0
LINE
  5
73
330
1F
100
AcDbEntity
  8
0
  6
Continuous
 62
     7
370
    15
100
AcDbLine
 10
237.5881419215
 20
106.500116077
 30
0.0
 11
237.5881419215
 21
109.6201160855
 31
0.0
  0
LINE
  5
74
330
1F
100
AcDbEntity
  8
0
  6
Continuous
 62
     7
370
    15
100
AcDbLine
 10
237.5881419215
 20
109.6201160855
 30
0.0
 11
247.5881398354
 21
109.6201160855
 31
0.0
  0
LINE
  5
75
330
1F
100
AcDbEntity
  8
0
  6
Continuous
 62
     7
370
    15
100
AcDbLine
 10
247.5881398354
 20
109.6201160855
 30
0.0
 11
247.5881398354
 21
106.500116077
 31
0.0
  0
LINE
  5
76
330
1F
100
AcDbEntity
  8
0
  6
Continuous
 62
     7
370
    15
100
AcDbLine
 10
247.5881398354
 20
106.500116077
 30
0.0
 11
257.5881414745
 21
106.500116077
 31
0.0
  0
LINE
  5
77
330
1F
100
AcDbEntity
  8
0
  6
Continuous
 62
     7
370
    15
100
AcDbLine
 10
257.5881414745
 20
106.500116077
 30
0.0
 11
257.5881414745
 21
109.6201160855
 31
0.0
  0
LINE
  5
78
330
1F
100
AcDbEntity
  8
0
  6
Continuous
 62
     7
370
    15
100
AcDbLine
 10
257.5881414745
 20
109.6201160855
 30
0.0
 11
267.5881393883
 21
109.6201160855
 31
0.0
  0
LINE
  5
79
330
1F
100
AcDbEntity
  8
0
  6
Continuous
 62
     7
370
    15
100
AcDbLine
 10
267.5881393883
 20
109.6201160855
 30
0.0
 11
267.5881393883
 21
106.500116077
 31
0.0
  0
LINE
  5
7A
330
1F
100
AcDbEntity
  8
0
  6
Continuous
 62
     7
370
    15
100
AcDbLine
 10
267.5881393883
 20
106.500116077
 30
0.0
 11
277.5881447527
 21
106.500116077
 31
0.0
  0
LINE
  5
7B
330
1F
100
AcDbEntity
  8
0
  6
Continuous
 62
     7
370
    15
100
AcDbLine
 10
277.5881447527
 20
106.500116077
 30
0.0
 11
277.5881447527
 21
109.6201160855
 31
0.0
  0
LINE
  5
7C
330
1F
100
AcDbEntity
  8
0
  6
Continuous
 62
     7
370
    15
100
AcDbLine
 10
277.5881447527
 20
109.6201160855
 30
0.0
 11
287.5881426666
 21
109.6201160855
 31
0.0
  0
LINE
  5
7D
330
1F
100
AcDbEntity
  8
0
  6
Continuous
 62
     7
370
    15
100
AcDbLine
 10
287.5881426666
 20
109.6201160855
 30
0.0
 11
287.5881426666
 21
96.5001158349
 31
0.0
  0
LINE
  5
7E
330
1F
100
AcDbEntity
  8
0
  6
Continuous
 62
     7
370
    15
100
AcDbLine
 10
287.5881426666
 20
96.5001158349
 30
0.0
 11
284.4681375358
 21
96.5001158349
 31
0.0
  0
LINE
  5
7F
330
1F
100
AcDbEntity
  8
0
  6
Continuous
 62
     7
370
    15
100
AcDbLine
 10
284.4681375358
 20
96.5001158349
 30
0.0
 11
284.4681375358
 21
86.5001169897
 31
0.0
  0
LINE
  5
80
330
1F
100
AcDbEntity
  8
0
  6
Continuous
 62
     7
370
    15
100
AcDbLine
 10
284.4681375358
 20
86.5001169897
 30
0.0
 11
287.5881426666
 21
86.5001169897
 31
0.0
  0
LINE
  5
81
330
1F
100
AcDbEntity
  8
0
  6
Continuous
 62
     7
370
    15
100
AcDbLine
 10
287.5881426666
 20
86.5001169897
 30
0.0
 11
287.5881426666
 21
76.5001172133
 31
0.0
  0
LINE
  5
82
330
1F
100
AcDbEntity
  8
0
  6
Continuous
 62
     7
370
    15
100
AcDbLine
 10
287.5881426666
 20
76.5001172133
 30
0.0
 11
284.4681375358
 21
76.5001172133
 31
0.0
  0
LINE
  5
83
330
1F
100
AcDbEntity
  8
0
  6
Continuous
 62
     7
370
    15
100
AcDbLine
 10
284.4681375358
 20
76.5001172133
 30
0.0
 11
284.4681375358
 21
66.5001155741
 31
0.0
  0
LINE
  5
84
330
1F
100
AcDbEntity
  8
0
  6
Continuous
 62
     7
370
    15
100
AcDbLine
 10
284.4681375358
 20
66.5001155741
 30
0.0
 11
190.708141185
 21
66.5001155741
 31
0.0
  0
LINE
  5
85
330
1F
100
AcDbEntity
  8
0
  6
Continuous
 62
     7
370
    15
100
AcDbLine
 10
190.708141185
 20
66.5001155741
 30
0.0
 11
190.708141185
 21
76.5001172133
 31
0.0
  0
LINE
  5
86
330
1F
100
AcDbEntity
  8
0
  6
Continuous
 62
     7
370
    15
100
AcDbLine
 10
190.708141185
 20
76.5001172133
 30
0.0
 11
187.5881411765
 21
76.5001172133
 31
0.0
  0
LINE
  5
87
330
1F
100
AcDbEntity
  8
0
  6
Continuous
 62
     7
370
    15
100
AcDbLine
 10
187.5881411765
 20
76.5001172133
 30
0.0
 11
187.5881411765
 21
86.5001169897
 31
0.0
  0
LINE
  5
88
330
1F
100
AcDbEntity
  8
0
  6
Continuous
 62
     7
370
    15
100
AcDbLine
 10
187.5881411765
 20
86.5001169897
 30
0.0
 11
190.708141185
 21
86.5001169897
 31
0.0
  0
LINE
  5
89
330
1F
100
AcDbEntity
  8
0
  6
Continuous
 62
     7
370
    15
100
AcDbLine
 10
190.708141185
 20
86.5001169897
 30
0.0
 11
190.708141185
 21
96.5001158349
 31
0.0
  0
LINE
  5
8A
330
1F
100
AcDbEntity
  8
0
  6
Continuous
 62
     7
370
    15
100
AcDbLine
 10
190.708141185
 20
96.5001158349
 30
0.0
 11
187.5881411765
 21
96.5001158349
 31
0.0
  0
LINE
  5
8B
330
1F
100
AcDbEntity
  8
0
  6
Continuous
 62
     7
370
    15
100
AcDbLine
 10
187.5881411765
 20
96.5001158349
 30
0.0
 11
187.5881411765
 21
106.500116077
 31
0.0
  0
LINE
  5
8C
330
1F
100
AcDbEntity
  8
0
  6
Continuous
 62
     7
370
    15
100
AcDbLine
 10
192.6596398496
 20
18.2046388839
 30
0.0
 11
189.5396398411
 21
18.2046388839
 31
0.0
  0
LINE
  5
8D
330
1F
100
AcDbEntity
  8
0
  6
Continuous
 62
     7
370
    15
100
AcDbLine
 10
189.5396398411
 20
18.2046388839
 30
0.0
 11
189.5396398411
 21
28.2046386604
 31
0.0
  0
LINE
  5
8E
330
1F
100
AcDbEntity
  8
0
  6
Continuous
 62
     7
370
    15
100
AcDbLine
 10
189.5396398411
 20
28.2046386604
 30
0.0
 11
192.6596398496
 21
28.2046386604
 31
0.0
  0
LINE
  5
8F
330
1F
100
AcDbEntity
  8
0
  6
Continuous
 62
     7
370
    15
100
AcDbLine
 10
192.6596398496
 20
28.2046386604
 30
0.0
 11
192.6596398496
 21
38.2046384369
 31
0.0
  0
LINE
  5
90
330
1F
100
AcDbEntity
  8
0
  6
Continuous
 62
     7
370
    15
100
AcDbLine
 10
192.6596398496
 20
38.2046384369
 30
0.0
 11
189.5396398411
 21
38.2046384369
 31
0.0
  0
LINE
  5
91
330
1F
100
AcDbEntity
  8
0
  6
Continuous
 62
     7
370
    15
100
AcDbLine
 10
189.5396398411
 20
38.2046384369
 30
0.0
 11
189.5396398411
 21
48.2046382134
 31
0.0
  0
LINE
  5
92
330
1F
100
AcDbEntity
  8
0
  6
Continuous
 62
     7
370
    15
100
AcDbLine
 10
189.5396398411
 20
48.2046382134
 30
0.0
 11
192.6596398496
 21
48.2046382134
 31
0.0
  0
LINE
  5
93
330
1F
100
AcDbEntity
  8
0
  6
Continuous
 62
     7
370
    15
100
AcDbLine
 10
192.6596398496
 20
48.2046382134
 30
0.0
 11
192.6596398496
 21
55.0846379814
 31
0.0
  0
LINE
  5
94
330
1F
100
AcDbEntity
  8
0
  6
Continuous
 62
     7
370
    15
100
AcDbLine
 10
192.6596398496
 20
55.0846379814
 30
0.0
 11
202.6596400918
 21
55.0846379814
 31
0.0
  0
LINE
  5
95
330
1F
100
AcDbEntity
  8
0
  6
Continuous
 62
     7
370
    15
100
AcDbLine
 10
202.6596400918
 20
55.0846379814
 30
0.0
 11
202.6596400918
 21
58.2046379899
 31
0.0
  0
LINE
  5
96
330
1F
100
AcDbEntity
  8
0
  6
Continuous
 62
     7
370
    15
100
AcDbLine
 10
202.6596400918
 20
58.2046379899
 30
0.0
 11
212.6596389369
 21
58.2046379899
 31
0.0
  0
LINE
  5
97
330
1F
100
AcDbEntity
  8
0
  6
Continuous
 62
     7
370
    15
100
AcDbLine
 10
212.6596389369
 20
58.2046379899
 30
0.0
 11
212.6596389369
 21
55.0846379814
 31
0.0
  0
LINE
  5
98
330
1F
100
AcDbEntity
  8
0
  6
Continuous
 62
     7
370
    15
100
AcDbLine
 10
212.6596389369
 20
55.0846379814
 30
0.0
 11
222.6596387134
 21
55.0846379814
 31
0.0
  0
LINE
  5
99
330
1F
100
AcDbEntity
  8
0
  6
Continuous
 62
     7
370
    15
100
AcDbLine
 10
222.6596387134
 20
55.0846379814
 30
0.0
 11
222.6596387134
 21
58.2046379899
 31
0.0
  0
LINE
  5
9A
330
1F
100
AcDbEntity
  8
0
  6
Continuous
 62
     7
370
    15
100
AcDbLine
 10
222.6596387134
 20
58.2046379899
 30
0.0
 11
232.6596403525
 21
58.2046379899
 31
0.0
  0
LINE
  5
9B
330
1F
100
AcDbEntity
  8
0
  6
Continuous
 62
     7
370
    15
100
AcDbLine
 10
232.6596403525
 20
58.2046379899
 30
0.0
 11
232.6596403525
 21
55.0846379814
 31
0.0
  0
LINE
  5
9C
330
1F
100
AcDbEntity
  8
0
  6
Continuous
 62
     7
370
    15
100
AcDbLine
 10
232.6596403525
 20
55.0846379814
 30
0.0
 11
192.6596398496
 21
18.2046388839
 31
0.0
  0
LINE
  5
9D
330
1F
100
AcDbEntity
  8
0
  6
Continuous
 62
     7
370
    15
100
AcDbLine
 10
90.9482461155
 20
44.2312622711
 30
0.0
 11
87.828246107
 21
44.2312622711
 31
0.0
  0
LINE
  5
9E
330
1F
100
AcDbEntity
  8
0
  6
Continuous
 62
     7
370
    15
100
AcDbLine
 10
87.828246107
 20
44.2312622711
 30
0.0
 11
87.828246107
 21
34.2312624947
 31
0.0
  0
LINE
  5
9F
330
1F
100
AcDbEntity
  8
0
  6
Continuous
 62
     7
370
    15
100
AcDbLine
 10
87.828246107
 20
34.2312624947
 30
0.0
 11
90.9482461155
 21
34.2312624947
 31
0.0
  0
LINE
  5
A0
330
1F
100
AcDbEntity
  8
0
  6
Continuous
 62
     7
370
    15
100
AcDbLine
 10
90.9482461155
 20
34.2312624947
 30
0.0
 11
90.9482461155
 21
24.2312627182
 31
0.0
  0
LINE
  5
A1
330
1F
100
AcDbEntity
  8
0
  6
Continuous
 62
     7
370
    15
100
AcDbLine
 10
90.9482461155
 20
24.2312627182
 30
0.0
 11
87.828246107
 21
24.2312627182
 31
0.0
  0
LINE
  5
A2
330
1F
100
AcDbEntity
  8
0
  6
Continuous
 62
     7
370
    15
100
AcDbLine
 10
87.828246107
 20
24.2312627182
 30
0.0
 11
87.828246107
 21
14.2312629417
 31
0.0
  0
LINE
  5
A3
330
1F
100
AcDbEntity
  8
0
  6
Continuous
 62
     7
370
    15
100
AcDbLine
 10
87.828246107
 20
14.2312629417
 30
0.0
 11
90.9482461155
 21
14.2312629417
 31
0.0
  0
LINE
  5
A4
330
1F
100
AcDbEntity
  8
0
  6
Continuous
 62
     7
370
    15
100
AcDbLine
 10
90.9482461155
 20
14.2312629417
 30
0.0
 11
90.9482461155
 21
7.3512631737
 31
0.0
  0
LINE
  5
A5
330
1F
100
AcDbEntity
  8
0
  6
Continuous
 62
     7
370
    15
100
AcDbLine
 10
90.9482461155
 20
7.3512631737
 30
0.0
 11
100.9482463577
 21
7.3512631737
 31
0.0
  0
LINE
  5
A6
330
1F
100
AcDbEntity
  8
0
  6
Continuous
 62
     7
370
    15
100
AcDbLine
 10
100.9482463577
 20
7.3512631737
 30
0.0
 11
100.9482463577
 21
4.2312631652
 31
0.0
  0
LINE
  5
A7
330
1F
100
AcDbEntity
  8
0
  6
Continuous
 62
     7
370
    15
100
AcDbLine
 10
100.9482463577
 20
4.2312631652
 30
0.0
 11
110.9482452028
 21
4.2312631652
 31
0.0
  0
LINE
  5
A8
330
1F
100
AcDbEntity
  8
0
  6
Continuous
 62
     7
370
    15
100
AcDbLine
 10
110.9482452028
 20
4.2312631652
 30
0.0
 11
110.9482452028
 21
7.3512631737
 31
0.0
  0
LINE
  5
A9
330
1F
100
AcDbEntity
  8
0
  6
Continuous
 62
     7
370
    15
100
AcDbLine
 10
110.9482452028
 20
7.3512631737
 30
0.0
 11
120.9482449793
 21
7.3512631737
 31
0.0
  0
LINE
  5
AA
330
1F
100
AcDbEntity
  8
0
  6
Continuous
 62
     7
370
    15
100
AcDbLine
 10
120.9482449793
 20
7.3512631737
 30
0.0
 11
120.9482449793
 21
4.2312631652
 31
0.0
  0
LINE
  5
AB
330
1F
100
AcDbEntity
  8
0
  6
Continuous
 62
     7
370
    15
100
AcDbLine
 10
120.9482449793
 20
4.2312631652
 30
0.0
 11
130.9482466184
 21
4.2312631652
 31
0.0
  0
LINE
  5
AC
330
1F
100
AcDbEntity
  8
0
  6
Continuous
 62
     7
370
    15
100
AcDbLine
 10
130.9482466184
 20
4.2312631652
 30
0.0
 11
130.9482466184
 21
7.3512631737
 31
0.0
  0
LINE
  5
AD
330
1F
100
AcDbEntity
  8
0
  6
Continuous
 62
     7
370
    15
100
AcDbLine
 10
130.9482466184
 20
7.3512631737
 30
0.0
 11
90.9482461155
 21
44.2312622711
 31
0.0
  0
LINE
  5
AE
330
1F
100
AcDbEntity
  8
0
  6
Continuous
 62
     7
370
    15
100
AcDbLine
 10
86.7761293182
 20
123.7793485948
 30
0.0
 11
83.6561293182
 21
123.7793485948
 31
0.0
  0
LINE
  5
AF
330
1F
100
AcDbEntity
  8
0
  6
Continuous
 62
     7
370
    15
100
AcDbLine
 10
86.7761293182
 20
133.7793485948
 30
0.0
 11
86.7761293182
 21
123.7793485948
 31
0.0
  0
LINE
  5
B0
330
1F
100
AcDbEntity
  8
0
  6
Continuous
 62
     7
370
    15
100
AcDbLine
 10
83.6561293182
 20
133.7793485948
 30
0.0
 11
86.7761293182
 21
133.7793485948
 31
0.0
  0
LINE
  5
B1
330
1F
100
AcDbEntity
  8
0
  6
Continuous
 62
     7
370
    15
100
AcDbLine
 10
83.6561293182
 20
143.7793485948
 30
0.0
 11
83.6561293182
 21
133.7793485948
 31
0.0
  0
LINE
  5
B2
330
1F
100
AcDbEntity
  8
0
  6
Continuous
 62
     7
370
    15
100
AcDbLine
 10
86.7761293182
 20
143.7793485948
 30
0.0
 11
83.6561293182
 21
143.7793485948
 31
0.0
  0
LINE
  5
B3
330
1F
100
AcDbEntity
  8
0
  6
Continuous
 62
     7
370
    15
100
AcDbLine
 10
86.7761293182
 20
153.7793485948
 30
0.0
 11
86.7761293182
 21
143.7793485948
 31
0.0
  0
LINE
  5
B4
330
1F
100
AcDbEntity
  8
0
  6
Continuous
 62
     7
370
    15
100
AcDbLine
 10
83.6561293182
 20
153.7793485948
 30
0.0
 11
86.7761293182
 21
153.7793485948
 31
0.0
  0
LINE
  5
B5
330
1F
100
AcDbEntity
  8
0
  6
Continuous
 62
     7
370
    15
100
AcDbLine
 10
83.6561293182
 20
293.7793485948
 30
0.0
 11
83.6561293182
 21
153.7793485948
 31
0.0
  0
LINE
  5
B6
330
1F
100
AcDbEntity
  8
0
  6
Continuous
 62
     7
370
    15
100
AcDbLine
 10
183.6561293182
 20
293.7793485948
 30
0.0
 11
83.6561293182
 21
293.7793485948
 31
0.0
  0
LINE
  5
B7
330
1F
100
AcDbEntity
  8
0
  6
Continuous
 62
     7
370
    15
100
AcDbLine
 10
183.6561293182
 20
153.7793485948
 30
0.0
 11
183.6561293182
 21
293.7793485948
 31
0.0
  0
LINE
  5
B8
330
1F
100
AcDbEntity
  8
0
  6
Continuous
 62
     7
370
    15
100
AcDbLine
 10
180.5361293182
 20
153.7793485948
 30
0.0
 11
183.6561293182
 21
153.7793485948
 31
0.0
  0
LINE
  5
B9
330
1F
100
AcDbEntity
  8
0
  6
Continuous
 62
     7
370
    15
100
AcDbLine
 10
180.5361293182
 20
143.7793485948
 30
0.0
 11
180.5361293182
 21
153.7793485948
 31
0.0
  0
LINE
  5
BA
330
1F
100
AcDbEntity
  8
0
  6
Continuous
 62
     7
370
    15
100
AcDbLine
 10
183.6561293182
 20
143.7793485948
 30
0.0
 11
180.5361293182
 21
143.7793485948
 31
0.0
  0
LINE
  5
BB
330
1F
100
AcDbEntity
  8
0
  6
Continuous
 62
     7
370
    15
100
AcDbLine
 10
183.6561293182
 20
133.7793485948
 30
0.0
 11
183.6561293182
 21
143.7793485948
 31
0.0
  0
LINE
  5
BC
330
1F
100
AcDbEntity
  8
0
  6
Continuous
 62
     7
370
    15
100
AcDbLine
 10
180.5361293182
 20
133.7793485948
 30
0.0
 11
183.6561293182
 21
133.7793485948
 31
0.0
  0
LINE
  5
BD
330
1F
100
AcDbEntity
  8
0
  6
Continuous
 62
     7
370
    15
100
AcDbLine
 10
180.5361293182
 20
123.7793485948
 30
0.0
 11
180.5361293182
 21
133.7793485948
 31
0.0
  0
LINE
  5
BE
330
1F
100
AcDbEntity
  8
0
  6
Continuous
 62
     7
370
    15
100
AcDbLine
 10
183.6561293182
 20
123.7793485948
 30
0.0
 11
180.5361293182
 21
123.7793485948
 31
0.0
  0
LINE
  5
BF
330
1F
100
AcDbEntity
  8
0
  6
Continuous
 62
     7
370
    15
100
AcDbLine
 10
183.6561293182
 20
116.8993485948
 30
0.0
 11
183.6561293182
 21
123.7793485948
 31
0.0
  0
LINE
  5
C0
330
1F
100
AcDbEntity
  8
0
  6
Continuous
 62
     7
370
    15
100
AcDbLine
 10
173.6561293182
 20
116.8993485948
 30
0.0
 11
183.6561293182
 21
116.8993485948
 31
0.0
  0
LINE
  5
C1
330
1F
100
AcDbEntity
  8
0
  6
Continuous
 62
     7
370
    15
100
AcDbLine
 10
173.6561293182
 20
113.7793485948
 30
0.0
 11
173.6561293182
 21
116.8993485948
 31
0.0
  0
LINE
  5
C2
330
1F
100
AcDbEntity
  8
0
  6
Continuous
 62
     7
370
    15
100
AcDbLine
 10
163.6561293182
 20
113.7793485948
 30
0.0
 11
173.6561293182
 21
113.7793485948
 31
0.0
  0
LINE
  5
C3
330
1F
100
AcDbEntity
  8
0
  6
Continuous
 62
     7
370
    15
100
AcDbLine
 10
163.6561293182
 20
116.8993485948
 30
0.0
 11
163.6561293182
 21
113.7793485948
 31
0.0
  0
LINE
  5
C4
330
1F
100
AcDbEntity
  8
0
  6
Continuous
 62
     7
370
    15
100
AcDbLine
 10
153.6561293182
 20
116.8993485948
 30
0.0
 11
163.6561293182
 21
116.8993485948
 31
0.0
  0
LINE
  5
C5
330
1F
100
AcDbEntity
  8
0
  6
Continuous
 62
     7
370
    15
100
AcDbLine
 10
153.6561293182
 20
113.7793485948
 30
0.0
 11
153.6561293182
 21
116.8993485948
 31
0.0
  0
LINE
  5
C6
330
1F
100
AcDbEntity
  8
0
  6
Continuous
 62
     7
370
    15
100
AcDbLine
 10
143.6561293182
 20
113.7793485948
 30
0.0
 11
153.6561293182
 21
113.7793485948
 31
0.0
  0
LINE
  5
C7
330
1F
100
AcDbEntity
  8
0
  6
Continuous
 62
     7
370
    15
100
AcDbLine
 10
143.6561293182
 20
116.8993485948
 30
0.0
 11
143.6561293182
 21
113.7793485948
 31
0.0
  0
LINE
  5
C8
330
1F
100
AcDbEntity
  8
0
  6
Continuous
 62
     7
370
    15
100
AcDbLine
 10
133.6561293182
 20
116.8993485948
 30
0.0
 11
143.6561293182
 21
116.8993485948
 31
0.0
  0
LINE
  5
C9
330
1F
100
AcDbEntity
  8
0
  6
Continuous
 62
     7
370
    15
100
AcDbLine
 10
133.6561293182
 20
113.7793485948
 30
0.0
 11
133.6561293182
 21
116.8993485948
 31
0.0
  0
LINE
  5
CA
330
1F
100
AcDbEntity
  8
0
  6
Continuous
 62
     7
370
    15
100
AcDbLine
 10
123.6561293182
 20
113.7793485948
 30
0.0
 11
133.6561293182
 21
113.7793485948
 31
0.0
  0
LINE
  5
CB
330
1F
100
AcDbEntity
  8
0
  6
Continuous
 62
     7
370
    15
100
AcDbLine
 10
123.6561293182
 20
116.8993485948
 30
0.0
 11
123.6561293182
 21
113.7793485948
 31
0.0
  0
LINE
  5
CC
330
1F
100
AcDbEntity
  8
0
  6
Continuous
 62
     7
370
    15
100
AcDbLine
 10
113.6561293182
 20
116.8993485948
 30
0.0
 11
123.6561293182
 21
116.8993485948
 31
0.0
  0
LINE
  5
CD
330
1F
100
AcDbEntity
  8
0
  6
Continuous
 62
     7
370
    15
100
AcDbLine
 10
113.6561293182
 20
113.7793485948
 30
0.0
 11
113.6561293182
 21
116.8993485948
 31
0.0
  0
LINE
  5
CE
330
1F
100
AcDbEntity
  8
0
  6
Continuous
 62
     7
370
    15
100
AcDbLine
 10
103.6561293182
 20
113.7793485948
 30
0.0
 11
113.6561293182
 21
113.7793485948
 31
0.0
  0
LINE
  5
CF
330
1F
100
AcDbEntity
  8
0
  6
Continuous
 62
     7
370
    15
100
AcDbLine
 10
103.6561293182
 20
116.8993485948
 30
0.0
 11
103.6561293182
 21
113.7793485948
 31
0.0
  0
LINE
  5
D0
330
1F
100
AcDbEntity
  8
0
  6
Continuous
 62
     7
370
    15
100
AcDbLine
 10
93.6561293182
 20
116.8993485948
 30
0.0
 11
103.6561293182
 21
116.8993485948
 31
0.0
  0
LINE
  5
D1
330
1F
100
AcDbEntity
  8
0
  6
Continuous
 62
     7
370
    15
100
AcDbLine
 10
93.6561293182
 20
113.7793485948
 30
0.0
 11
93.6561293182
 21
116.8993485948
 31
0.0
  0
LINE
  5
D2
330
1F
100
AcDbEntity
  8
0
  6
Continuous
 62
     7
370
    15
100
AcDbLine
 10
83.6561293182
 20
113.7793485948
 30
0.0
 11
93.6561293182
 21
113.7793485948
 31
0.0
  0
LINE
  5
D3
330
1F
100
AcDbEntity
  8
0
  6
Continuous
 62
     7
370
    15
100
AcDbLine
 10
83.6561293182
 20
123.7793485948
 30
0.0
 11
83.6561293182
 21
113.7793485948
 31
0.0
  0
LINE
  5
D4
330
1F
100
AcDbEntity
  8
0
  6
Continuous
 62
     7
370
    15
100
AcDbLine
 10
83.6561293182
 20
104.0863932468
 30
0.0
 11
93.6561290947
 21
104.0863932468
 31
0.0
  0
LINE
  5
D5
330
1F
100
AcDbEntity
  8
0
  6
Continuous
 62
     7
370
    15
100
AcDbLine
 10
93.6561290947
 20
104.0863932468
 30
0.0
 11
93.6561290947
 21
107.2063932553
 31
0.0
  0
LINE
  5
D6
330
1F
100
AcDbEntity
  8
0
  6
Continuous
 62
     7
370
    15
100
AcDbLine
 10
93.6561290947
 20
107.2063932553
 30
0.0
 11
103.6561288712
 21
107.2063932553
 31
0.0
  0
LINE
  5
D7
330
1F
100
AcDbEntity
  8
0
  6
Continuous
 62
     7
370
    15
100
AcDbLine
 10
103.6561288712
 20
107.2063932553
 30
0.0
 11
103.6561288712
 21
104.0863932468
 31
0.0
  0
LINE
  5
D8
330
1F
100
AcDbEntity
  8
0
  6
Continuous
 62
     7
370
    15
100
AcDbLine
 10
103.6561288712
 20
104.0863932468
 30
0.0
 11
113.6561286477
 21
104.0863932468
 31
0.0
  0
LINE
  5
D9
330
1F
100
AcDbEntity
  8
0
  6
Continuous
 62
     7
370
    15
100
AcDbLine
 10
113.6561286477
 20
104.0863932468
 30
0.0
 11
113.6561286477
 21
107.2063932553
 31
0.0
  0
LINE
  5
DA
330
1F
100
AcDbEntity
  8
0
  6
Continuous
 62
     7
370
    15
100
AcDbLine
 10
113.6561286477
 20
107.2063932553
 30
0.0
 11
123.6561284242
 21
107.2063932553
 31
0.0
  0
LINE
  5
DB
330
1F
100
AcDbEntity
  8
0
  6
Continuous
 62
     7
370
    15
100
AcDbLine
 10
123.6561284242
 20
107.2063932553
 30
0.0
 11
123.6561284242
 21
104.0863932468
 31
0.0
  0
LINE
  5
DC
330
1F
100
AcDbEntity
  8
0
  6
Continuous
 62
     7
370
    15
100
AcDbLine
 10
123.6561284242
 20
104.0863932468
 30
0.0
 11
133.6561300633
 21
104.0863932468
 31
0.0
  0
LINE
  5
DD
330
1F
100
AcDbEntity
  8
0
  6
Continuous
 62
     7
370
    15
100
AcDbLine
 10
133.6561300633
 20
104.0863932468
 30
0.0
 11
133.6561300633
 21
107.2063932553
 31
0.0
  0
LINE
  5
DE
330
1F
100
AcDbEntity
  8
0
  6
Continuous
 62
     7
370
    15
100
AcDbLine
 10
133.6561300633
 20
107.2063932553
 30
0.0
 11
143.6561279771
 21
107.2063932553
 31
0.0
  0
LINE
  5
DF
330
1F
100
AcDbEntity
  8
0
  6
Continuous
 62
     7
370
    15
100
AcDbLine
 10
143.6561279771
 20
107.2063932553
 30
0.0
 11
143.6561279771
 21
104.0863932468
 31
0.0
  0
LINE
  5
E0
330
1F
100
AcDbEntity
  8
0
  6
Continuous
 62
     7
370
    15
100
AcDbLine
 10
143.6561279771
 20
104.0863932468
 30
0.0
 11
153.6561296163
 21
104.0863932468
 31
0.0
  0
LINE
  5
E1
330
1F
100
AcDbEntity
  8
0
  6
Continuous
 62
     7
370
    15
100
AcDbLine
 10
153.6561296163
 20
104.0863932468
 30
0.0
 11
153.6561296163
 21
107.2063932553
 31
0.0
  0
LINE
  5
E2
330
1F
100
AcDbEntity
  8
0
  6
Continuous
 62
     7
370
    15
100
AcDbLine
 10
153.6561296163
 20
107.2063932553
 30
0.0
 11
163.6561275301
 21
107.2063932553
 31
0.0
  0
LINE
  5
E3
330
1F
100
AcDbEntity
  8
0
  6
Continuous
 62
     7
370
    15
100
AcDbLine
 10
163.6561275301
 20
107.2063932553
 30
0.0
 11
163.6561275301
 21
104.0863932468
 31
0.0
  0
LINE
  5
E4
330
1F
100
AcDbEntity
  8
0
  6
Continuous
 62
     7
370
    15
100
AcDbLine
 10
163.6561275301
 20
104.0863932468
 30
0.0
 11
173.6561328945
 21
104.0863932468
 31
0.0
  0
LINE
  5
E5
330
1F
100
AcDbEntity
  8
0
  6
Continuous
 62
     7
370
    15
100
AcDbLine
 10
173.6561328945
 20
104.0863932468
 30
0.0
 11
173.6561328945
 21
107.2063932553
 31
0.0
  0
LINE
  5
E6
330
1F
100
AcDbEntity
  8
0
  6
Continuous
 62
     7
370
    15
100
AcDbLine
 10
173.6561328945
 20
107.2063932553
 30
0.0
 11
183.6561308084
 21
107.2063932553
 31
0.0
  0
LINE
  5
E7
330
1F
100
AcDbEntity
  8
0
  6
Continuous
 62
     7
370
    15
100
AcDbLine
 10
183.6561308084
 20
107.2063932553
 30
0.0
 11
183.6561308084
 21
94.0863930047
 31
0.0
  0
LINE
  5
E8
330
1F
100
AcDbEntity
  8
0
  6
Continuous
 62
     7
370
    15
100
AcDbLine
 10
183.6561308084
 20
94.0863930047
 30
0.0
 11
180.5361256776
 21
94.0863930047
 31
0.0
  0
LINE
  5
E9
330
1F
100
AcDbEntity
  8
0
  6
Continuous
 62
     7
370
    15
100
AcDbLine
 10
180.5361256776
 20
94.0863930047
 30
0.0
 11
180.5361256776
 21
84.0863941595
 31
0.0
  0
LINE
  5
EA
330
1F
100
AcDbEntity
  8
0
  6
Continuous
 62
     7
370
    15
100
AcDbLine
 10
180.5361256776
 20
84.0863941595
 30
0.0
 11
183.6561308084
 21
84.0863941595
 31
0.0
  0
LINE
  5
EB
330
1F
100
AcDbEntity
  8
0
  6
Continuous
 62
     7
370
    15
100
AcDbLine
 10
183.6561308084
 20
84.0863941595
 30
0.0
 11
183.6561308084
 21
74.086394383
 31
0.0
  0
LINE
  5
EC
330
1F
100
AcDbEntity
  8
0
  6
Continuous
 62
     7
370
    15
100
AcDbLine
 10
183.6561308084
 20
74.086394383
 30
0.0
 11
180.5361256776
 21
74.086394383
 31
0.0
  0
LINE
  5
ED
330
1F
100
AcDbEntity
  8
0
  6
Continuous
 62
     7
370
    15
100
AcDbLine
 10
180.5361256776
 20
74.086394383
 30
0.0
 11
180.5361256776
 21
64.0863927439
 31
0.0
  0
LINE
  5
EE
330
1F
100
AcDbEntity
  8
0
  6
Continuous
 62
     7
370
    15
100
AcDbLine
 10
180.5361256776
 20
64.0863927439
 30
0.0
 11
86.7761293267
 21
64.0863927439
 31
0.0
  0
LINE
  5
EF
330
1F
100
AcDbEntity
  8
0
  6
Continuous
 62
     7
370
    15
100
AcDbLine
 10
86.7761293267
 20
64.0863927439
 30
0.0
 11
86.7761293267
 21
74.086394383
 31
0.0
  0
LINE
  5
F0
330
1F
100
AcDbEntity
  8
0
  6
Continuous
 62
     7
370
    15
100
AcDbLine
 10
86.7761293267
 20
74.086394383
 30
0.0
 11
83.6561293182
 21
74.086394383
 31
0.0
  0
LINE
  5
F1
330
1F
100
AcDbEntity
  8
0
  6
Continuous
 62
     7
370
    15
100
AcDbLine
 10
83.6561293182
 20
74.086394383
 30
0.0
 11
83.6561293182
 21
84.0863941595
 31
0.0
  0
LINE
  5
F2
330
1F
100
AcDbEntity
  8
0
  6
Continuous
 62
     7
370
    15
100
AcDbLine
 10
83.6561293182
 20
84.0863941595
 30
0.0
 11
86.7761293267
 21
84.0863941595
 31
0.0
  0
LINE
  5
F3
330
1F
100
AcDbEntity
  8
0
  6
Continuous
 62
     7
370
    15
100
AcDbLine
 10
86.7761293267
 20
84.0863941595
 30
0.0
 11
86.7761293267
 21
94.0863930047
 31
0.0
  0
LINE
  5
F4
330
1F
100
AcDbEntity
  8
0
  6
Continuous
 62
     7
370
    15
100
AcDbLine
 10
86.7761293267
 20
94.0863930047
 30
0.0
 11
83.6561293182
 21
94.0863930047
 31
0.0
  0
LINE
  5
F5
330
1F
100
AcDbEntity
  8
0
  6
Continuous
 62
     7
370
    15
100
AcDbLine
 10
83.6561293182
 20
94.0863930047
 30
0.0
 11
83.6561293182
 21
104.0863932468
 31
0.0
  0
LINE
  5
F6
330
1F
100
AcDbEntity
  8
0
  6
Continuous
 62
     7
370
    15
100
AcDbLine
 10
241.3295809382
 20
19.3596587691
 30
0.0
 11
238.2095809297
 21
19.3596587691
 31
0.0
  0
LINE
  5
F7
330
1F
100
AcDbEntity
  8
0
  6
Continuous
 62
     7
370
    15
100
AcDbLine
 10
238.2095809297
 20
19.3596587691
 30
0.0
 11
238.2095809297
 21
29.3596585456
 31
0.0
  0
LINE
  5
F8
330
1F
100
AcDbEntity
  8
0
  6
Continuous
 62
     7
370
    15
100
AcDbLine
 10
238.2095809297
 20
29.3596585456
 30
0.0
 11
241.3295809382
 21
29.3596585456
 31
0.0
  0
LINE
  5
F9
330
1F
100
AcDbEntity
  8
0
  6
Continuous
 62
     7
370
    15
100
AcDbLine
 10
241.3295809382
 20
29.3596585456
 30
0.0
 11
241.3295809382
 21
39.3596583221
 31
0.0
  0
LINE
  5
FA
330
1F
100
AcDbEntity
  8
0
  6
Continuous
 62
     7
370
    15
100
AcDbLine
 10
241.3295809382
 20
39.3596583221
 30
0.0
 11
238.2095809297
 21
39.3596583221
 31
0.0
  0
LINE
  5
FB
330
1F
100
AcDbEntity
  8
0
  6
Continuous
 62
     7
370
    15
100
AcDbLine
 10
238.2095809297
 20
39.3596583221
 30
0.0
 11
238.2095809297
 21
49.3596580985
 31
0.0
  0
LINE
  5
FC
330
1F
100
AcDbEntity
  8
0
  6
Continuous
 62
     7
370
    15
100
AcDbLine
 10
238.2095809297
 20
49.3596580985
 30
0.0
 11
241.3295809382
 21
49.3596580985
 31
0.0
  0
LINE
  5
FD
330
1F
100
AcDbEntity
  8
0
  6
Continuous
 62
     7
370
    15
100
AcDbLine
 10
241.3295809382
 20
49.3596580985
 30
0.0
 11
241.3295809382
 21
56.2396578665
 31
0.0
  0
LINE
  5
FE
330
1F
100
AcDbEntity
  8
0
  6
Continuous
 62
     7
370
    15
100
AcDbLine
 10
241.3295809382
 20
56.2396578665
 30
0.0
 11
251.3295811804
 21
56.2396578665
 31
0.0
  0
LINE
  5
FF
330
1F
100
AcDbEntity
  8
0
  6
Continuous
 62
     7
370
    15
100
AcDbLine
 10
251.3295811804
 20
56.2396578665
 30
0.0
 11
251.3295811804
 21
59.359657875
 31
0.0
  0
LINE
  5
100
330
1F
100
AcDbEntity
  8
0
  6
Continuous
 62
     7
370
    15
100
AcDbLine
 10
251.3295811804
 20
59.359657875
 30
0.0
 11
261.3295800255
 21
59.359657875
 31
0.0
  0
LINE
  5
101
330
1F
100
AcDbEntity
  8
0
  6
Continuous
 62
     7
370
    15
100
AcDbLine
 10
261.3295800255
 20
59.359657875
 30
0.0
 11
261.3295800255
 21
56.2396578665
 31
0.0
  0
LINE
  5
102
330
1F
100
AcDbEntity
  8
0
  6
Continuous
 62
     7
370
    15
100
AcDbLine
 10
261.3295800255
 20
56.2396578665
 30
0.0
 11
271.329579802
 21
56.2396578665
 31
0.0
  0
LINE
  5
103
330
1F
100
AcDbEntity
  8
0
  6
Continuous
 62
     7
370
    15
100
AcDbLine
 10
271.329579802
 20
56.2396578665
 30
0.0
 11
271.329579802
 21
59.359657875
 31
0.0
  0
LINE
  5
104
330
1F
100
AcDbEntity
  8
0
  6
Continuous
 62
     7
370
    15
100
AcDbLine
 10
271.329579802
 20
59.359657875
 30
0.0
 11
281.3295814411
 21
59.359657875
 31
0.0
  0
LINE
  5
105
330
1F
100
AcDbEntity
  8
0
  6
Continuous
 62
     7
370
    15
100
AcDbLine
 10
281.3295814411
 20
59.359657875
 30
0.0
 11
281.3295814411
 21
56.2396578665
 31
0.0
  0
LINE
  5
106
330
1F
100
AcDbEntity
  8
0
  6
Continuous
 62
     7
370
    15
100
AcDbLine
 10
281.3295814411
 20
56.2396578665
 30
0.0
 11
241.3295809382
 21
19.3596587691
 31
0.0
  0
LINE
  5
107
330
1F
100
AcDbEntity
  8
0
  6
Continuous
 62
     7
370
    15
100
AcDbLine
 10
128.1955048342
 20
17.4478454392
 30
0.0
 11
131.3155048427
 21
17.4478454392
 31
0.0
  0
LINE
  5
108
330
1F
100
AcDbEntity
  8
0
  6
Continuous
 62
     7
370
    15
100
AcDbLine
 10
131.3155048427
 20
17.4478454392
 30
0.0
 11
131.3155048427
 21
27.4478452157
 31
0.0
  0
LINE
  5
109
330
1F
100
AcDbEntity
  8
0
  6
Continuous
 62
     7
370
    15
100
AcDbLine
 10
131.3155048427
 20
27.4478452157
 30
0.0
 11
128.1955048342
 21
27.4478452157
 31
0.0
  0
LINE
  5
10A
330
1F
100
AcDbEntity
  8
0
  6
Continuous
 62
     7
370
    15
100
AcDbLine
 10
128.1955048342
 20
27.4478452157
 30
0.0
 11
128.1955048342
 21
37.4478449922
 31
0.0
  0
LINE
  5
10B
330
1F
100
AcDbEntity
  8
0
  6
Continuous
 62
     7
370
    15
100
AcDbLine
 10
128.1955048342
 20
37.4478449922
 30
0.0
 11
131.3155048427
 21
37.4478449922
 31
0.0
  0
LINE
  5
10C
330
1F
100
AcDbEntity
  8
0
  6
Continuous
 62
     7
370
    15
100
AcDbLine
 10
131.3155048427
 20
37.4478449922
 30
0.0
 11
131.3155048427
 21
47.4478447686
 31
0.0
  0
LINE
  5
10D
330
1F
100
AcDbEntity
  8
0
  6
Continuous
 62
     7
370
    15
100
AcDbLine
 10
131.3155048427
 20
47.4478447686
 30
0.0
 11
128.1955048342
 21
47.4478447686
 31
0.0
  0
LINE
  5
10E
330
1F
100
AcDbEntity
  8
0
  6
Continuous
 62
     7
370
    15
100
AcDbLine
 10
128.1955048342
 20
47.4478447686
 30
0.0
 11
128.1955048342
 21
54.3278445366
 31
0.0
  0
LINE
  5
10F
330
1F
100
AcDbEntity
  8
0
  6
Continuous
 62
     7
370
    15
100
AcDbLine
 10
128.1955048342
 20
54.3278445366
 30
0.0
 11
118.195504592
 21
54.3278445366
 31
0.0
  0
LINE
  5
110
330
1F
100
AcDbEntity
  8
0
  6
Continuous
 62
     7
370
    15
100
AcDbLine
 10
118.195504592
 20
54.3278445366
 30
0.0
 11
118.195504592
 21
57.4478445451
 31
0.0
  0
LINE
  5
111
330
1F
100
AcDbEntity
  8
0
  6
Continuous
 62
     7
370
    15
100
AcDbLine
 10
118.195504592
 20
57.4478445451
 30
0.0
 11
108.1955057469
 21
57.4478445451
 31
0.0
  0
LINE
  5
112
330
1F
100
AcDbEntity
  8
0
  6
Continuous
 62
     7
370
    15
100
AcDbLine
 10
108.1955057469
 20
57.4478445451
 30
0.0
 11
108.1955057469
 21
54.3278445366
 31
0.0
  0
LINE
  5
113
330
1F
100
AcDbEntity
  8
0
  6
Continuous
 62
     7
370
    15
100
AcDbLine
 10
108.1955057469
 20
54.3278445366
 30
0.0
 11
98.1955059704
 21
54.3278445366
 31
0.0
  0
LINE
  5
114
330
1F
100
AcDbEntity
  8
0
  6
Continuous
 62
     7
370
    15
100
AcDbLine
 10
98.1955059704
 20
54.3278445366
 30
0.0
 11
98.1955059704
 21
57.4478445451
 31
0.0
  0
LINE
  5
115
330
1F
100
AcDbEntity
  8
0
  6
Continuous
 62
     7
370
    15
100
AcDbLine
 10
98.1955059704
 20
57.4478445451
 30
0.0
 11
88.1955043313
 21
57.4478445451
 31
0.0
  0
LINE
  5
116
330
1F
100
AcDbEntity
  8
0
  6
Continuous
 62
     7
370
    15
100
AcDbLine
 10
88.1955043313
 20
57.4478445451
 30
0.0
 11
88.1955043313
 21
54.3278445366
 31
0.0
  0
LINE
  5
117
330
1F
100
AcDbEntity
  8
0
  6
Continuous
 62
     7
370
    15
100
AcDbLine
 10
88.1955043313
 20
54.3278445366
 30
0.0
 11
128.1955048342
 21
17.4478454392
 31
0.0
  0
LINE
  5
118
330
1F
100
AcDbEntity
  8
0
  6
Continuous
 62
     7
370
    15
100
AcDbLine
 10
592.9784470588
 20
159.7305411765
 30
0.0
 11
589.8584470588
 21
159.7305411765
 31
0.0
  0
LINE
  5
119
330
1F
100
AcDbEntity
  8
0
  6
Continuous
 62
     7
370
    15
100
AcDbLine
 10
589.8584470588
 20
159.7305411765
 30
0.0
 11
589.8584470588
 21
149.7305411765
 31
0.0
  0
LINE
  5
11A
330
1F
100
AcDbEntity
  8
0
  6
Continuous
 62
     7
370
    15
100
AcDbLine
 10
296.0984470588
 20
159.7305411765
 30
0.0
 11
296.0984470588
 21
149.7305411765
 31
0.0
  0
LINE
  5
11B
330
1F
100
AcDbEntity
  8
0
  6
Continuous
 62
     7
370
    15
100
AcDbLine
 10
292.9784470588
 20
159.7305411765
 30
0.0
 11
296.0984470588
 21
159.7305411765
 31
0.0
  0
LINE
  5
11C
330
1F
100
AcDbEntity
  8
0
  6
Continuous
 62
     7
370
    15
100
AcDbLine
 10
296.0984470588
 20
169.7305411765
 30
0.0
 11
292.9784470588
 21
169.7305411765
 31
0.0
  0
LINE
  5
11D
330
1F
100
AcDbEntity
  8
0
  6
Continuous
 62
     7
370
    15
100
AcDbLine
 10
296.0984470588
 20
179.7305411765
 30
0.0
 11
296.0984470588
 21
169.7305411765
 31
0.0
  0
LINE
  5
11E
330
1F
100
AcDbEntity
  8
0
  6
Continuous
 62
     7
370
    15
100
AcDbLine
 10
292.9784470588
 20
179.7305411765
 30
0.0
 11
296.0984470588
 21
179.7305411765
 31
0.0
  0
LINE
  5
11F
330
1F
100
AcDbEntity
  8
0
  6
Continuous
 62
     7
370
    15
100
AcDbLine
 10
302.9784470588
 20
186.6105411765
 30
0.0
 11
292.9784470588
 21
186.6105411765
 31
0.0
  0
LINE
  5
120
330
1F
100
AcDbEntity
  8
0
  6
Continuous
 62
     7
370
    15
100
AcDbLine
 10
302.9784470588
 20
189.7305411765
 30
0.0
 11
302.9784470588
 21
186.6105411765
 31
0.0
  0
LINE
  5
121
330
1F
100
AcDbEntity
  8
0
  6
Continuous
 62
     7
370
    15
100
AcDbLine
 10
312.9784470588
 20
186.6105411765
 30
0.0
 11
312.9784470588
 21
189.7305411765
 31
0.0
  0
LINE
  5
122
330
1F
100
AcDbEntity
  8
0
  6
Continuous
 62
     7
370
    15
100
AcDbLine
 10
322.9784470588
 20
186.6105411765
 30
0.0
 11
312.9784470588
 21
186.6105411765
 31
0.0
  0
LINE
  5
123
330
1F
100
AcDbEntity
  8
0
  6
Continuous
 62
     7
370
    15
100
AcDbLine
 10
322.9784470588
 20
189.7305411765
 30
0.0
 11
322.9784470588
 21
186.6105411765
 31
0.0
  0
LINE
  5
124
330
1F
100
AcDbEntity
  8
0
  6
Continuous
 62
     7
370
    15
100
AcDbLine
 10
332.9784470588
 20
186.6105411765
 30
0.0
 11
332.9784470588
 21
189.7305411765
 31
0.0
  0
LINE
  5
125
330
1F
100
AcDbEntity
  8
0
  6
Continuous
 62
     7
370
    15
100
AcDbLine
 10
342.9784470588
 20
186.6105411765
 30
0.0
 11
332.9784470588
 21
186.6105411765
 31
0.0
  0
LINE
  5
126
330
1F
100
AcDbEntity
  8
0
  6
Continuous
 62
     7
370
    15
100
AcDbLine
 10
342.9784470588
 20
189.7305411765
 30
0.0
 11
342.9784470588
 21
186.6105411765
 31
0.0
  0
LINE
  5
127
330
1F
100
AcDbEntity
  8
0
  6
Continuous
 62
     7
370
    15
100
AcDbLine
 10
352.9784470588
 20
186.6105411765
 30
0.0
 11
352.9784470588
 21
189.7305411765
 31
0.0
  0
LINE
  5
128
330
1F
100
AcDbEntity
  8
0
  6
Continuous
 62
     7
370
    15
100
AcDbLine
 10
362.9784470588
 20
186.6105411765
 30
0.0
 11
352.9784470588
 21
186.6105411765
 31
0.0
  0
LINE
  5
129
330
1F
100
AcDbEntity
  8
0
  6
Continuous
 62
     7
370
    15
100
AcDbLine
 10
362.9784470588
 20
189.7305411765
 30
0.0
 11
362.9784470588
 21
186.6105411765
 31
0.0
  0
LINE
  5
12A
330
1F
100
AcDbEntity
  8
0
  6
Continuous
 62
     7
370
    15
100
AcDbLine
 10
372.9784470588
 20
186.6105411765
 30
0.0
 11
372.9784470588
 21
189.7305411765
 31
0.0
  0
LINE
  5
12B
330
1F
100
AcDbEntity
  8
0
  6
Continuous
 62
     7
370
    15
100
AcDbLine
 10
382.9784470588
 20
186.6105411765
 30
0.0
 11
372.9784470588
 21
186.6105411765
 31
0.0
  0
LINE
  5
12C
330
1F
100
AcDbEntity
  8
0
  6
Continuous
 62
     7
370
    15
100
AcDbLine
 10
382.9784470588
 20
189.7305411765
 30
0.0
 11
382.9784470588
 21
186.6105411765
 31
0.0
  0
LINE
  5
12D
330
1F
100
AcDbEntity
  8
0
  6
Continuous
 62
     7
370
    15
100
AcDbLine
 10
392.9784470588
 20
186.6105411765
 30
0.0
 11
392.9784470588
 21
189.7305411765
 31
0.0
  0
LINE
  5
12E
330
1F
100
AcDbEntity
  8
0
  6
Continuous
 62
     7
370
    15
100
AcDbLine
 10
402.9784470588
 20
186.6105411765
 30
0.0
 11
392.9784470588
 21
186.6105411765
 31
0.0
  0
LINE
  5
12F
330
1F
100
AcDbEntity
  8
0
  6
Continuous
 62
     7
370
    15
100
AcDbLine
 10
402.9784470588
 20
189.7305411765
 30
0.0
 11
402.9784470588
 21
186.6105411765
 31
0.0
  0
LINE
  5
130
330
1F
100
AcDbEntity
  8
0
  6
Continuous
 62
     7
370
    15
100
AcDbLine
 10
412.9784470588
 20
186.6105411765
 30
0.0
 11
412.9784470588
 21
189.7305411765
 31
0.0
  0
LINE
  5
131
330
1F
100
AcDbEntity
  8
0
  6
Continuous
 62
     7
370
    15
100
AcDbLine
 10
422.9784470588
 20
186.6105411765
 30
0.0
 11
412.9784470588
 21
186.6105411765
 31
0.0
  0
LINE
  5
132
330
1F
100
AcDbEntity
  8
0
  6
Continuous
 62
     7
370
    15
100
AcDbLine
 10
422.9784470588
 20
189.7305411765
 30
0.0
 11
422.9784470588
 21
186.6105411765
 31
0.0
  0
LINE
  5
133
330
1F
100
AcDbEntity
  8
0
  6
Continuous
 62
     7
370
    15
100
AcDbLine
 10
432.9784470588
 20
186.6105411765
 30
0.0
 11
432.9784470588
 21
189.7305411765
 31
0.0
  0
LINE
  5
134
330
1F
100
AcDbEntity
  8
0
  6
Continuous
 62
     7
370
    15
100
AcDbLine
 10
442.9784470588
 20
186.6105411765
 30
0.0
 11
432.9784470588
 21
186.6105411765
 31
0.0
  0
LINE
  5
135
330
1F
100
AcDbEntity
  8
0
  6
Continuous
 62
     7
370
    15
100
AcDbLine
 10
442.9784470588
 20
189.7305411765
 30
0.0
 11
442.9784470588
 21
186.6105411765
 31
0.0
  0
LINE
  5
136
330
1F
100
AcDbEntity
  8
0
  6
Continuous
 62
     7
370
    15
100
AcDbLine
 10
452.9784470588
 20
186.6105411765
 30
0.0
 11
452.9784470588
 21
189.7305411765
 31
0.0
  0
LINE
  5
137
330
1F
100
AcDbEntity
  8
0
  6
Continuous
 62
     7
370
    15
100
AcDbLine
 10
462.9784470588
 20
186.6105411765
 30
0.0
 11
452.9784470588
 21
186.6105411765
 31
0.0
  0
LINE
  5
138
330
1F
100
AcDbEntity
  8
0
  6
Continuous
 62
     7
370
    15
100
AcDbLine
 10
462.9784470588
 20
189.7305411765
 30
0.0
 11
462.9784470588
 21
186.6105411765
 31
0.0
  0
LINE
  5
139
330
1F
100
AcDbEntity
  8
0
  6
Continuous
 62
     7
370
    15
100
AcDbLine
 10
472.9784470588
 20
186.6105411765
 30
0.0
 11
472.9784470588
 21
189.7305411765
 31
0.0
  0
LINE
  5
13A
330
1F
100
AcDbEntity
  8
0
  6
Continuous
 62
     7
370
    15
100
AcDbLine
 10
482.9784470588
 20
186.6105411765
 30
0.0
 11
472.9784470588
 21
186.6105411765
 31
0.0
  0
LINE
  5
13B
330
1F
100
AcDbEntity
  8
0
  6
Continuous
 62
     7
370
    15
100
AcDbLine
 10
482.9784470588
 20
189.7305411765
 30
0.0
 11
482.9784470588
 21
186.6105411765
 31
0.0
  0
LINE
  5
13C
330
1F
100
AcDbEntity
  8
0
  6
Continuous
 62
     7
370
    15
100
AcDbLine
 10
492.9784470588
 20
186.6105411765
 30
0.0
 11
492.9784470588
 21
189.7305411765
 31
0.0
  0
LINE
  5
13D
330
1F
100
AcDbEntity
  8
0
  6
Continuous
 62
     7
370
    15
100
AcDbLine
 10
502.9784470588
 20
186.6105411765
 30
0.0
 11
492.9784470588
 21
186.6105411765
 31
0.0
  0
LINE
  5
13E
330
1F
100
AcDbEntity
  8
0
  6
Continuous
 62
     7
370
    15
100
AcDbLine
 10
502.9784470588
 20
189.7305411765
 30
0.0
 11
502.9784470588
 21
186.6105411765
 31
0.0
  0
LINE
  5
13F
330
1F
100
AcDbEntity
  8
0
  6
Continuous
 62
     7
370
    15
100
AcDbLine
 10
512.9784470588
 20
186.6105411765
 30
0.0
 11
512.9784470588
 21
189.7305411765
 31
0.0
  0
LINE
  5
140
330
1F
100
AcDbEntity
  8
0
  6
Continuous
 62
     7
370
    15
100
AcDbLine
 10
522.9784470588
 20
186.6105411765
 30
0.0
 11
512.9784470588
 21
186.6105411765
 31
0.0
  0
LINE
  5
141
330
1F
100
AcDbEntity
  8
0
  6
Continuous
 62
     7
370
    15
100
AcDbLine
 10
522.9784470588
 20
189.7305411765
 30
0.0
 11
522.9784470588
 21
186.6105411765
 31
0.0
  0
LINE
  5
142
330
1F
100
AcDbEntity
  8
0
  6
Continuous
 62
     7
370
    15
100
AcDbLine
 10
532.9784470588
 20
186.6105411765
 30
0.0
 11
532.9784470588
 21
189.7305411765
 31
0.0
  0
LINE
  5
143
330
1F
100
AcDbEntity
  8
0
  6
Continuous
 62
     7
370
    15
100
AcDbLine
 10
542.9784470588
 20
186.6105411765
 30
0.0
 11
532.9784470588
 21
186.6105411765
 31
0.0
  0
LINE
  5
144
330
1F
100
AcDbEntity
  8
0
  6
Continuous
 62
     7
370
    15
100
AcDbLine
 10
542.9784470588
 20
189.7305411765
 30
0.0
 11
542.9784470588
 21
186.6105411765
 31
0.0
  0
LINE
  5
145
330
1F
100
AcDbEntity
  8
0
  6
Continuous
 62
     7
370
    15
100
AcDbLine
 10
552.9784470588
 20
186.6105411765
 30
0.0
 11
552.9784470588
 21
189.7305411765
 31
0.0
  0
LINE
  5
146
330
1F
100
AcDbEntity
  8
0
  6
Continuous
 62
     7
370
    15
100
AcDbLine
 10
562.9784470588
 20
186.6105411765
 30
0.0
 11
552.9784470588
 21
186.6105411765
 31
0.0
  0
LINE
  5
147
330
1F
100
AcDbEntity
  8
0
  6
Continuous
 62
     7
370
    15
100
AcDbLine
 10
562.9784470588
 20
189.7305411765
 30
0.0
 11
562.9784470588
 21
186.6105411765
 31
0.0
  0
LINE
  5
148
330
1F
100
AcDbEntity
  8
0
  6
Continuous
 62
     7
370
    15
100
AcDbLine
 10
572.9784470588
 20
186.6105411765
 30
0.0
 11
572.9784470588
 21
189.7305411765
 31
0.0
  0
LINE
  5
149
330
1F
100
AcDbEntity
  8
0
  6
Continuous
 62
     7
370
    15
100
AcDbLine
 10
582.9784470588
 20
186.6105411765
 30
0.0
 11
572.9784470588
 21
186.6105411765
 31
0.0
  0
LINE
  5
14A
330
1F
100
AcDbEntity
  8
0
  6
Continuous
 62
     7
370
    15
100
AcDbLine
 10
582.9784470588
 20
189.7305411765
 30
0.0
 11
582.9784470588
 21
186.6105411765
 31
0.0
  0
LINE
  5
14B
330
1F
100
AcDbEntity
  8
0
  6
Continuous
 62
     7
370
    15
100
AcDbLine
 10
592.9784470588
 20
179.7305411765
 30
0.0
 11
589.8584470588
 21
179.7305411765
 31
0.0
  0
LINE
  5
14C
330
1F
100
AcDbEntity
  8
0
  6
Continuous
 62
     7
370
    15
100
AcDbLine
 10
589.8584470588
 20
179.7305411765
 30
0.0
 11
589.8584470588
 21
169.7305411765
 31
0.0
  0
LINE
  5
14D
330
1F
100
AcDbEntity
  8
0
  6
Continuous
 62
     7
370
    15
100
AcDbLine
 10
589.8584470588
 20
169.7305411765
 30
0.0
 11
592.9784470588
 21
169.7305411765
 31
0.0
  0
LINE
  5
14E
330
1F
100
AcDbEntity
  8
0
  6
Continuous
 62
     7
370
    15
100
AcDbLine
 10
582.9784470588
 20
189.7305411765
 30
0.0
 11
592.9784470588
 21
189.7305411765
 31
0.0
  0
LINE
  5
14F
330
1F
100
AcDbEntity
  8
0
  6
Continuous
 62
     7
370
    15
100
AcDbLine
 10
592.9784470588
 20
189.7305411765
 30
0.0
 11
592.9784470588
 21
179.7305411765
 31
0.0
  0
LINE
  5
150
330
1F
100
AcDbEntity
  8
0
  6
Continuous
 62
     7
370
    15
100
AcDbLine
 10
589.8584470588
 20
149.7305411765
 30
0.0
 11
296.0984470588
 21
149.7305411765
 31
0.0
  0
LINE
  5
151
330
1F
100
AcDbEntity
  8
0
  6
Continuous
 62
     7
370
    15
100
AcDbLine
 10
292.9784470588
 20
179.7305411765
 30
0.0
 11
292.9784470588
 21
186.6105411765
 31
0.0
  0
LINE
  5
152
330
1F
100
AcDbEntity
  8
0
  6
Continuous
 62
     7
370
    15
100
AcDbLine
 10
302.9784470588
 20
189.7305411765
 30
0.0
 11
312.9784470588
 21
189.7305411765
 31
0.0
  0
LINE
  5
153
330
1F
100
AcDbEntity
  8
0
  6
Continuous
 62
     7
370
    15
100
AcDbLine
 10
322.9784470588
 20
189.7305411765
 30
0.0
 11
332.9784470588
 21
189.7305411765
 31
0.0
  0
LINE
  5
154
330
1F
100
AcDbEntity
  8
0
  6
Continuous
 62
     7
370
    15
100
AcDbLine
 10
342.9784470588
 20
189.7305411765
 30
0.0
 11
352.9784470588
 21
189.7305411765
 31
0.0
  0
LINE
  5
155
330
1F
100
AcDbEntity
  8
0
  6
Continuous
 62
     7
370
    15
100
AcDbLine
 10
362.9784470588
 20
189.7305411765
 30
0.0
 11
372.9784470588
 21
189.7305411765
 31
0.0
  0
LINE
  5
156
330
1F
100
AcDbEntity
  8
0
  6
Continuous
 62
     7
370
    15
100
AcDbLine
 10
382.9784470588
 20
189.7305411765
 30
0.0
 11
392.9784470588
 21
189.7305411765
 31
0.0
  0
LINE
  5
157
330
1F
100
AcDbEntity
  8
0
  6
Continuous
 62
     7
370
    15
100
AcDbLine
 10
402.9784470588
 20
189.7305411765
 30
0.0
 11
412.9784470588
 21
189.7305411765
 31
0.0
  0
LINE
  5
158
330
1F
100
AcDbEntity
  8
0
  6
Continuous
 62
     7
370
    15
100
AcDbLine
 10
422.9784470588
 20
189.7305411765
 30
0.0
 11
432.9784470588
 21
189.7305411765
 31
0.0
  0
LINE
  5
159
330
1F
100
AcDbEntity
  8
0
  6
Continuous
 62
     7
370
    15
100
AcDbLine
 10
442.9784470588
 20
189.7305411765
 30
0.0
 11
452.9784470588
 21
189.7305411765
 31
0.0
  0
LINE
  5
15A
330
1F
100
AcDbEntity
  8
0
  6
Continuous
 62
     7
370
    15
100
AcDbLine
 10
462.9784470588
 20
189.7305411765
 30
0.0
 11
472.9784470588
 21
189.7305411765
 31
0.0
  0
LINE
  5
15B
330
1F
100
AcDbEntity
  8
0
  6
Continuous
 62
     7
370
    15
100
AcDbLine
 10
482.9784470588
 20
189.7305411765
 30
0.0
 11
492.9784470588
 21
189.7305411765
 31
0.0
  0
LINE
  5
15C
330
1F
100
AcDbEntity
  8
0
  6
Continuous
 62
     7
370
    15
100
AcDbLine
 10
502.9784470588
 20
189.7305411765
 30
0.0
 11
512.9784470588
 21
189.7305411765
 31
0.0
  0
LINE
  5
15D
330
1F
100
AcDbEntity
  8
0
  6
Continuous
 62
     7
370
    15
100
AcDbLine
 10
522.9784470588
 20
189.7305411765
 30
0.0
 11
532.9784470588
 21
189.7305411765
 31
0.0
  0
LINE
  5
15E
330
1F
100
AcDbEntity
  8
0
  6
Continuous
 62
     7
370
    15
100
AcDbLine
 10
542.9784470588
 20
189.7305411765
 30
0.0
 11
552.9784470588
 21
189.7305411765
 31
0.0
  0
LINE
  5
15F
330
1F
100
AcDbEntity
  8
0
  6
Continuous
 62
     7
370
    15
100
AcDbLine
 10
562.9784470588
 20
189.7305411765
 30
0.0
 11
572.9784470588
 21
189.7305411765
 31
0.0
  0
LINE
  5
160
330
1F
100
AcDbEntity
  8
0
  6
Continuous
 62
     7
370
    15
100
AcDbLine
 10
292.9784470588
 20
159.7305411765
 30
0.0
 11
292.9784470588
 21
169.7305411765
 31
0.0
  0
LINE
  5
161
330
1F
100
AcDbEntity
  8
0
  6
Continuous
 62
     7
370
    15
100
AcDbLine
 10
592.9784470588
 20
169.7305411765
 30
0.0
 11
592.9784470588
 21
159.7305411765
 31
0.0
  0
CIRCLE
  5
162
330
1F
100
AcDbEntity
  8
0
  6
Continuous
 62
     1
370
    15
100
AcDbCircle
 10
583.7040941176
 20
201.6142117647
 30
0.0
 40
1.600000000000136
  0
LINE
  5
163
330
1F
100
AcDbEntity
  8
0
  6
Continuous
 62
     7
370
    15
100
AcDbLine
 10
593.7040941176
 20
211.6142117647
 30
0.0
 11
593.7040941176
 21
221.6142117647
 31
0.0
  0
LINE
  5
164
330
1F
100
AcDbEntity
  8
0
  6
Continuous
 62
     7
370
    15
100
AcDbLine
 10
590.5840941176
 20
211.6142117647
 30
0.0
 11
593.7040941176
 21
211.6142117647
 31
0.0
  0
LINE
  5
165
330
1F
100
AcDbEntity
  8
0
  6
Continuous
 62
     7
370
    15
100
AcDbLine
 10
590.5840941176
 20
201.6142117647
 30
0.0
 11
590.5840941176
 21
211.6142117647
 31
0.0
  0
LINE
  5
166
330
1F
100
AcDbEntity
  8
0
  6
Continuous
 62
     7
370
    15
100
AcDbLine
 10
593.7040941176
 20
201.6142117647
 30
0.0
 11
590.5840941176
 21
201.6142117647
 31
0.0
  0
LINE
  5
167
330
1F
100
AcDbEntity
  8
0
  6
Continuous
 62
     7
370
    15
100
AcDbLine
 10
593.7040941176
 20
194.7342117647
 30
0.0
 11
593.7040941176
 21
201.6142117647
 31
0.0
  0
LINE
  5
168
330
1F
100
AcDbEntity
  8
0
  6
Continuous
 62
     7
370
    15
100
AcDbLine
 10
593.7040941176
 20
194.7342117647
 30
0.0
 11
583.7040941176
 21
194.7342117647
 31
0.0
  0
LINE
  5
169
330
1F
100
AcDbEntity
  8
0
  6
Continuous
 62
     7
370
    15
100
AcDbLine
 10
583.7040941176
 20
194.7342117647
 30
0.0
 11
583.7040941176
 21
191.6142117647
 31
0.0
  0
LINE
  5
16A
330
1F
100
AcDbEntity
  8
0
  6
Continuous
 62
     7
370
    15
100
AcDbLine
 10
573.7040941176
 20
191.6142117647
 30
0.0
 11
583.7040941176
 21
191.6142117647
 31
0.0
  0
LINE
  5
16B
330
1F
100
AcDbEntity
  8
0
  6
Continuous
 62
     7
370
    15
100
AcDbLine
 10
573.7040941176
 20
191.6142117647
 30
0.0
 11
573.7040941176
 21
194.7342117647
 31
0.0
  0
LINE
  5
16C
330
1F
100
AcDbEntity
  8
0
  6
Continuous
 62
     7
370
    15
100
AcDbLine
 10
573.7040941176
 20
194.7342117647
 30
0.0
 11
563.7040941176
 21
194.7342117647
 31
0.0
  0
LINE
  5
16D
330
1F
100
AcDbEntity
  8
0
  6
Continuous
 62
     7
370
    15
100
AcDbLine
 10
563.7040941176
 20
194.7342117647
 30
0.0
 11
563.7040941176
 21
191.6142117647
 31
0.0
  0
LINE
  5
16E
330
1F
100
AcDbEntity
  8
0
  6
Continuous
 62
     7
370
    15
100
AcDbLine
 10
553.7040941176
 20
191.6142117647
 30
0.0
 11
563.7040941176
 21
191.6142117647
 31
0.0
  0
LINE
  5
16F
330
1F
100
AcDbEntity
  8
0
  6
Continuous
 62
     7
370
    15
100
AcDbLine
 10
553.7040941176
 20
191.6142117647
 30
0.0
 11
553.7040941176
 21
194.7342117647
 31
0.0
  0
LINE
  5
170
330
1F
100
AcDbEntity
  8
0
  6
Continuous
 62
     7
370
    15
100
AcDbLine
 10
553.7040941176
 20
194.7342117647
 30
0.0
 11
543.7040941176
 21
194.7342117647
 31
0.0
  0
LINE
  5
171
330
1F
100
AcDbEntity
  8
0
  6
Continuous
 62
     7
370
    15
100
AcDbLine
 10
543.7040941176
 20
194.7342117647
 30
0.0
 11
543.7040941176
 21
191.6142117647
 31
0.0
  0
LINE
  5
172
330
1F
100
AcDbEntity
  8
0
  6
Continuous
 62
     7
370
    15
100
AcDbLine
 10
533.7040941176
 20
191.6142117647
 30
0.0
 11
543.7040941176
 21
191.6142117647
 31
0.0
  0
LINE
  5
173
330
1F
100
AcDbEntity
  8
0
  6
Continuous
 62
     7
370
    15
100
AcDbLine
 10
533.7040941176
 20
191.6142117647
 30
0.0
 11
533.7040941176
 21
194.7342117647
 31
0.0
  0
LINE
  5
174
330
1F
100
AcDbEntity
  8
0
  6
Continuous
 62
     7
370
    15
100
AcDbLine
 10
533.7040941176
 20
194.7342117647
 30
0.0
 11
523.7040941176
 21
194.7342117647
 31
0.0
  0
LINE
  5
175
330
1F
100
AcDbEntity
  8
0
  6
Continuous
 62
     7
370
    15
100
AcDbLine
 10
523.7040941176
 20
194.7342117647
 30
0.0
 11
523.7040941176
 21
191.6142117647
 31
0.0
  0
LINE
  5
176
330
1F
100
AcDbEntity
  8
0
  6
Continuous
 62
     7
370
    15
100
AcDbLine
 10
513.7040941176
 20
191.6142117647
 30
0.0
 11
523.7040941176
 21
191.6142117647
 31
0.0
  0
LINE
  5
177
330
1F
100
AcDbEntity
  8
0
  6
Continuous
 62
     7
370
    15
100
AcDbLine
 10
513.7040941176
 20
191.6142117647
 30
0.0
 11
513.7040941176
 21
194.7342117647
 31
0.0
  0
LINE
  5
178
330
1F
100
AcDbEntity
  8
0
  6
Continuous
 62
     7
370
    15
100
AcDbLine
 10
513.7040941176
 20
194.7342117647
 30
0.0
 11
503.7040941176
 21
194.7342117647
 31
0.0
  0
LINE
  5
179
330
1F
100
AcDbEntity
  8
0
  6
Continuous
 62
     7
370
    15
100
AcDbLine
 10
503.7040941176
 20
194.7342117647
 30
0.0
 11
503.7040941176
 21
191.6142117647
 31
0.0
  0
LINE
  5
17A
330
1F
100
AcDbEntity
  8
0
  6
Continuous
 62
     7
370
    15
100
AcDbLine
 10
493.7040941176
 20
191.6142117647
 30
0.0
 11
503.7040941176
 21
191.6142117647
 31
0.0
  0
LINE
  5
17B
330
1F
100
AcDbEntity
  8
0
  6
Continuous
 62
     7
370
    15
100
AcDbLine
 10
493.7040941176
 20
191.6142117647
 30
0.0
 11
493.7040941176
 21
194.7342117647
 31
0.0
  0
LINE
  5
17C
330
1F
100
AcDbEntity
  8
0
  6
Continuous
 62
     7
370
    15
100
AcDbLine
 10
493.7040941176
 20
194.7342117647
 30
0.0
 11
483.7040941176
 21
194.7342117647
 31
0.0
  0
LINE
  5
17D
330
1F
100
AcDbEntity
  8
0
  6
Continuous
 62
     7
370
    15
100
AcDbLine
 10
483.7040941176
 20
194.7342117647
 30
0.0
 11
483.7040941176
 21
191.6142117647
 31
0.0
  0
LINE
  5
17E
330
1F
100
AcDbEntity
  8
0
  6
Continuous
 62
     7
370
    15
100
AcDbLine
 10
473.7040941176
 20
191.6142117647
 30
0.0
 11
483.7040941176
 21
191.6142117647
 31
0.0
  0
LINE
  5
17F
330
1F
100
AcDbEntity
  8
0
  6
Continuous
 62
     7
370
    15
100
AcDbLine
 10
473.7040941176
 20
191.6142117647
 30
0.0
 11
473.7040941176
 21
194.7342117647
 31
0.0
  0
LINE
  5
180
330
1F
100
AcDbEntity
  8
0
  6
Continuous
 62
     7
370
    15
100
AcDbLine
 10
473.7040941176
 20
194.7342117647
 30
0.0
 11
463.7040941176
 21
194.7342117647
 31
0.0
  0
LINE
  5
181
330
1F
100
AcDbEntity
  8
0
  6
Continuous
 62
     7
370
    15
100
AcDbLine
 10
463.7040941176
 20
194.7342117647
 30
0.0
 11
463.7040941176
 21
191.6142117647
 31
0.0
  0
LINE
  5
182
330
1F
100
AcDbEntity
  8
0
  6
Continuous
 62
     7
370
    15
100
AcDbLine
 10
453.7040941176
 20
191.6142117647
 30
0.0
 11
463.7040941176
 21
191.6142117647
 31
0.0
  0
LINE
  5
183
330
1F
100
AcDbEntity
  8
0
  6
Continuous
 62
     7
370
    15
100
AcDbLine
 10
453.7040941176
 20
191.6142117647
 30
0.0
 11
453.7040941176
 21
194.7342117647
 31
0.0
  0
LINE
  5
184
330
1F
100
AcDbEntity
  8
0
  6
Continuous
 62
     7
370
    15
100
AcDbLine
 10
453.7040941176
 20
194.7342117647
 30
0.0
 11
443.7040941176
 21
194.7342117647
 31
0.0
  0
LINE
  5
185
330
1F
100
AcDbEntity
  8
0
  6
Continuous
 62
     7
370
    15
100
AcDbLine
 10
443.7040941176
 20
194.7342117647
 30
0.0
 11
443.7040941176
 21
191.6142117647
 31
0.0
  0
LINE
  5
186
330
1F
100
AcDbEntity
  8
0
  6
Continuous
 62
     7
370
    15
100
AcDbLine
 10
433.7040941176
 20
191.6142117647
 30
0.0
 11
443.7040941176
 21
191.6142117647
 31
0.0
  0
LINE
  5
187
330
1F
100
AcDbEntity
  8
0
  6
Continuous
 62
     7
370
    15
100
AcDbLine
 10
433.7040941176
 20
191.6142117647
 30
0.0
 11
433.7040941176
 21
194.7342117647
 31
0.0
  0
LINE
  5
188
330
1F
100
AcDbEntity
  8
0
  6
Continuous
 62
     7
370
    15
100
AcDbLine
 10
433.7040941176
 20
194.7342117647
 30
0.0
 11
423.7040941176
 21
194.7342117647
 31
0.0
  0
LINE
  5
189
330
1F
100
AcDbEntity
  8
0
  6
Continuous
 62
     7
370
    15
100
AcDbLine
 10
423.7040941176
 20
194.7342117647
 30
0.0
 11
423.7040941176
 21
191.6142117647
 31
0.0
  0
LINE
  5
18A
330
1F
100
AcDbEntity
  8
0
  6
Continuous
 62
     7
370
    15
100
AcDbLine
 10
413.7040941176
 20
191.6142117647
 30
0.0
 11
423.7040941176
 21
191.6142117647
 31
0.0
  0
LINE
  5
18B
330
1F
100
AcDbEntity
  8
0
  6
Continuous
 62
     7
370
    15
100
AcDbLine
 10
413.7040941176
 20
191.6142117647
 30
0.0
 11
413.7040941176
 21
194.7342117647
 31
0.0
  0
LINE
  5
18C
330
1F
100
AcDbEntity
  8
0
  6
Continuous
 62
     7
370
    15
100
AcDbLine
 10
413.7040941176
 20
194.7342117647
 30
0.0
 11
403.7040941176
 21
194.7342117647
 31
0.0
  0
LINE
  5
18D
330
1F
100
AcDbEntity
  8
0
  6
Continuous
 62
     7
370
    15
100
AcDbLine
 10
403.7040941176
 20
194.7342117647
 30
0.0
 11
403.7040941176
 21
191.6142117647
 31
0.0
  0
LINE
  5
18E
330
1F
100
AcDbEntity
  8
0
  6
Continuous
 62
     7
370
    15
100
AcDbLine
 10
393.7040941176
 20
191.6142117647
 30
0.0
 11
403.7040941176
 21
191.6142117647
 31
0.0
  0
LINE
  5
18F
330
1F
100
AcDbEntity
  8
0
  6
Continuous
 62
     7
370
    15
100
AcDbLine
 10
393.7040941176
 20
191.6142117647
 30
0.0
 11
393.7040941176
 21
194.7342117647
 31
0.0
  0
LINE
  5
190
330
1F
100
AcDbEntity
  8
0
  6
Continuous
 62
     7
370
    15
100
AcDbLine
 10
393.7040941176
 20
194.7342117647
 30
0.0
 11
383.7040941176
 21
194.7342117647
 31
0.0
  0
LINE
  5
191
330
1F
100
AcDbEntity
  8
0
  6
Continuous
 62
     7
370
    15
100
AcDbLine
 10
383.7040941176
 20
194.7342117647
 30
0.0
 11
383.7040941176
 21
191.6142117647
 31
0.0
  0
LINE
  5
192
330
1F
100
AcDbEntity
  8
0
  6
Continuous
 62
     7
370
    15
100
AcDbLine
 10
373.7040941176
 20
191.6142117647
 30
0.0
 11
383.7040941176
 21
191.6142117647
 31
0.0
  0
LINE
  5
193
330
1F
100
AcDbEntity
  8
0
  6
Continuous
 62
     7
370
    15
100
AcDbLine
 10
373.7040941176
 20
191.6142117647
 30
0.0
 11
373.7040941176
 21
194.7342117647
 31
0.0
  0
LINE
  5
194
330
1F
100
AcDbEntity
  8
0
  6
Continuous
 62
     7
370
    15
100
AcDbLine
 10
373.7040941176
 20
194.7342117647
 30
0.0
 11
363.7040941176
 21
194.7342117647
 31
0.0
  0
LINE
  5
195
330
1F
100
AcDbEntity
  8
0
  6
Continuous
 62
     7
370
    15
100
AcDbLine
 10
363.7040941176
 20
194.7342117647
 30
0.0
 11
363.7040941176
 21
191.6142117647
 31
0.0
  0
LINE
  5
196
330
1F
100
AcDbEntity
  8
0
  6
Continuous
 62
     7
370
    15
100
AcDbLine
 10
353.7040941176
 20
191.6142117647
 30
0.0
 11
363.7040941176
 21
191.6142117647
 31
0.0
  0
LINE
  5
197
330
1F
100
AcDbEntity
  8
0
  6
Continuous
 62
     7
370
    15
100
AcDbLine
 10
353.7040941176
 20
191.6142117647
 30
0.0
 11
353.7040941176
 21
194.7342117647
 31
0.0
  0
LINE
  5
198
330
1F
100
AcDbEntity
  8
0
  6
Continuous
 62
     7
370
    15
100
AcDbLine
 10
353.7040941176
 20
194.7342117647
 30
0.0
 11
343.7040941176
 21
194.7342117647
 31
0.0
  0
LINE
  5
199
330
1F
100
AcDbEntity
  8
0
  6
Continuous
 62
     7
370
    15
100
AcDbLine
 10
343.7040941176
 20
194.7342117647
 30
0.0
 11
343.7040941176
 21
191.6142117647
 31
0.0
  0
LINE
  5
19A
330
1F
100
AcDbEntity
  8
0
  6
Continuous
 62
     7
370
    15
100
AcDbLine
 10
333.7040941176
 20
191.6142117647
 30
0.0
 11
343.7040941176
 21
191.6142117647
 31
0.0
  0
LINE
  5
19B
330
1F
100
AcDbEntity
  8
0
  6
Continuous
 62
     7
370
    15
100
AcDbLine
 10
333.7040941176
 20
191.6142117647
 30
0.0
 11
333.7040941176
 21
194.7342117647
 31
0.0
  0
LINE
  5
19C
330
1F
100
AcDbEntity
  8
0
  6
Continuous
 62
     7
370
    15
100
AcDbLine
 10
333.7040941176
 20
194.7342117647
 30
0.0
 11
323.7040941176
 21
194.7342117647
 31
0.0
  0
LINE
  5
19D
330
1F
100
AcDbEntity
  8
0
  6
Continuous
 62
     7
370
    15
100
AcDbLine
 10
323.7040941176
 20
194.7342117647
 30
0.0
 11
323.7040941176
 21
191.6142117647
 31
0.0
  0
LINE
  5
19E
330
1F
100
AcDbEntity
  8
0
  6
Continuous
 62
     7
370
    15
100
AcDbLine
 10
313.7040941176
 20
191.6142117647
 30
0.0
 11
323.7040941176
 21
191.6142117647
 31
0.0
  0
LINE
  5
19F
330
1F
100
AcDbEntity
  8
0
  6
Continuous
 62
     7
370
    15
100
AcDbLine
 10
313.7040941176
 20
191.6142117647
 30
0.0
 11
313.7040941176
 21
194.7342117647
 31
0.0
  0
LINE
  5
1A0
330
1F
100
AcDbEntity
  8
0
  6
Continuous
 62
     7
370
    15
100
AcDbLine
 10
313.7040941176
 20
194.7342117647
 30
0.0
 11
303.7040941176
 21
194.7342117647
 31
0.0
  0
LINE
  5
1A1
330
1F
100
AcDbEntity
  8
0
  6
Continuous
 62
     7
370
    15
100
AcDbLine
 10
303.7040941176
 20
194.7342117647
 30
0.0
 11
303.7040941176
 21
191.6142117647
 31
0.0
  0
LINE
  5
1A2
330
1F
100
AcDbEntity
  8
0
  6
Continuous
 62
     7
370
    15
100
AcDbLine
 10
293.7040941176
 20
191.6142117647
 30
0.0
 11
303.7040941176
 21
191.6142117647
 31
0.0
  0
LINE
  5
1A3
330
1F
100
AcDbEntity
  8
0
  6
Continuous
 62
     7
370
    15
100
AcDbLine
 10
293.7040941176
 20
201.6142117647
 30
0.0
 11
293.7040941176
 21
191.6142117647
 31
0.0
  0
LINE
  5
1A4
330
1F
100
AcDbEntity
  8
0
  6
Continuous
 62
     7
370
    15
100
AcDbLine
 10
293.7040941176
 20
201.6142117647
 30
0.0
 11
296.8240941176
 21
201.6142117647
 31
0.0
  0
LINE
  5
1A5
330
1F
100
AcDbEntity
  8
0
  6
Continuous
 62
     7
370
    15
100
AcDbLine
 10
296.8240941176
 20
201.6142117647
 30
0.0
 11
296.8240941176
 21
211.6142117647
 31
0.0
  0
LINE
  5
1A6
330
1F
100
AcDbEntity
  8
0
  6
Continuous
 62
     7
370
    15
100
AcDbLine
 10
296.8240941176
 20
211.6142117647
 30
0.0
 11
293.7040941176
 21
211.6142117647
 31
0.0
  0
LINE
  5
1A7
330
1F
100
AcDbEntity
  8
0
  6
Continuous
 62
     7
370
    15
100
AcDbLine
 10
293.7040941176
 20
221.6142117647
 30
0.0
 11
293.7040941176
 21
211.6142117647
 31
0.0
  0
LINE
  5
1A8
330
1F
100
AcDbEntity
  8
0
  6
Continuous
 62
     7
370
    15
100
AcDbLine
 10
293.7040941176
 20
221.6142117647
 30
0.0
 11
296.8240941176
 21
221.6142117647
 31
0.0
  0
LINE
  5
1A9
330
1F
100
AcDbEntity
  8
0
  6
Continuous
 62
     7
370
    15
100
AcDbLine
 10
296.8240941176
 20
221.6142117647
 30
0.0
 11
296.8240941176
 21
231.6142117647
 31
0.0
  0
LINE
  5
1AA
330
1F
100
AcDbEntity
  8
0
  6
Continuous
 62
     7
370
    15
100
AcDbLine
 10
296.8240941176
 20
231.6142117647
 30
0.0
 11
293.7040941176
 21
231.6142117647
 31
0.0
  0
LINE
  5
1AB
330
1F
100
AcDbEntity
  8
0
  6
Continuous
 62
     7
370
    15
100
AcDbLine
 10
293.7040941176
 20
291.6142117647
 30
0.0
 11
293.7040941176
 21
231.6142117647
 31
0.0
  0
LINE
  5
1AC
330
1F
100
AcDbEntity
  8
0
  6
Continuous
 62
     7
370
    15
100
AcDbLine
 10
593.7040941176
 20
291.6142117647
 30
0.0
 11
293.7040941176
 21
291.6142117647
 31
0.0
  0
LINE
  5
1AD
330
1F
100
AcDbEntity
  8
0
  6
Continuous
 62
     7
370
    15
100
AcDbLine
 10
593.7040941176
 20
231.6142117647
 30
0.0
 11
593.7040941176
 21
291.6142117647
 31
0.0
  0
LINE
  5
1AE
330
1F
100
AcDbEntity
  8
0
  6
Continuous
 62
     7
370
    15
100
AcDbLine
 10
590.5840941176
 20
231.6142117647
 30
0.0
 11
593.7040941176
 21
231.6142117647
 31
0.0
  0
LINE
  5
1AF
330
1F
100
AcDbEntity
  8
0
  6
Continuous
 62
     7
370
    15
100
AcDbLine
 10
590.5840941176
 20
221.6142117647
 30
0.0
 11
590.5840941176
 21
231.6142117647
 31
0.0
  0
LINE
  5
1B0
330
1F
100
AcDbEntity
  8
0
  6
Continuous
 62
     7
370
    15
100
AcDbLine
 10
593.7040941176
 20
221.6142117647
 30
0.0
 11
590.5840941176
 21
221.6142117647
 31
0.0
  0
CIRCLE
  5
1B1
330
1F
100
AcDbEntity
  8
0
  6
Continuous
 62
     1
370
    15
100
AcDbCircle
 10
303.7040941176
 20
211.6142117647
 30
0.0
 40
1.599999999999966
  0
CIRCLE
  5
1B2
330
1F
100
AcDbEntity
  8
0
  6
Continuous
 62
     1
370
    15
100
AcDbCircle
 10
303.7040941176
 20
201.6142117647
 30
0.0
 40
1.599999999999966
  0
CIRCLE
  5
1B3
330
1F
100
AcDbEntity
  8
0
  6
Continuous
 62
     1
370
    15
100
AcDbCircle
 10
583.7040941176
 20
211.6142117647
 30
0.0
 40
1.600000000000136
  0
LINE
  5
1B4
330
1F
100
AcDbEntity
  8
0
  6
Continuous
 62
     7
370
    15
100
AcDbLine
 10
178.9782588235
 20
48.1672470588
 30
0.0
 11
182.0982588235
 21
48.1672470588
 31
0.0
  0
LINE
  5
1B5
330
1F
100
AcDbEntity
  8
0
  6
Continuous
 62
     7
370
    15
100
AcDbLine
 10
182.0982588235
 20
48.1672470588
 30
0.0
 11
182.0982588235
 21
38.1672470588
 31
0.0
  0
LINE
  5
1B6
330
1F
100
AcDbEntity
  8
0
  6
Continuous
 62
     7
370
    15
100
AcDbLine
 10
182.0982588235
 20
38.1672470588
 30
0.0
 11
178.9782588235
 21
38.1672470588
 31
0.0
  0
LINE
  5
1B7
330
1F
100
AcDbEntity
  8
0
  6
Continuous
 62
     7
370
    15
100
AcDbLine
 10
178.9782588235
 20
38.1672470588
 30
0.0
 11
178.9782588235
 21
28.1672470588
 31
0.0
  0
LINE
  5
1B8
330
1F
100
AcDbEntity
  8
0
  6
Continuous
 62
     7
370
    15
100
AcDbLine
 10
178.9782588235
 20
28.1672470588
 30
0.0
 11
182.0982588235
 21
28.1672470588
 31
0.0
  0
LINE
  5
1B9
330
1F
100
AcDbEntity
  8
0
  6
Continuous
 62
     7
370
    15
100
AcDbLine
 10
182.0982588235
 20
28.1672470588
 30
0.0
 11
182.0982588235
 21
18.1672470588
 31
0.0
  0
LINE
  5
1BA
330
1F
100
AcDbEntity
  8
0
  6
Continuous
 62
     7
370
    15
100
AcDbLine
 10
182.0982588235
 20
18.1672470588
 30
0.0
 11
178.9782588235
 21
18.1672470588
 31
0.0
  0
LINE
  5
1BB
330
1F
100
AcDbEntity
  8
0
  6
Continuous
 62
     7
370
    15
100
AcDbLine
 10
178.9782588235
 20
18.1672470588
 30
0.0
 11
178.9782588235
 21
11.2872470588
 31
0.0
  0
LINE
  5
1BC
330
1F
100
AcDbEntity
  8
0
  6
Continuous
 62
     7
370
    15
100
AcDbLine
 10
178.9782588235
 20
11.2872470588
 30
0.0
 11
172.0982588235
 21
11.2872470588
 31
0.0
  0
LINE
  5
1BD
330
1F
100
AcDbEntity
  8
0
  6
Continuous
 62
     7
370
    15
100
AcDbLine
 10
172.0982588235
 20
11.2872470588
 30
0.0
 11
172.0982588235
 21
8.1672470588
 31
0.0
  0
LINE
  5
1BE
330
1F
100
AcDbEntity
  8
0
  6
Continuous
 62
     7
370
    15
100
AcDbLine
 10
172.0982588235
 20
8.1672470588
 30
0.0
 11
162.0982588235
 21
8.1672470588
 31
0.0
  0
LINE
  5
1BF
330
1F
100
AcDbEntity
  8
0
  6
Continuous
 62
     7
370
    15
100
AcDbLine
 10
162.0982588235
 20
8.1672470588
 30
0.0
 11
162.0982588235
 21
11.2872470588
 31
0.0
  0
LINE
  5
1C0
330
1F
100
AcDbEntity
  8
0
  6
Continuous
 62
     7
370
    15
100
AcDbLine
 10
162.0982588235
 20
11.2872470588
 30
0.0
 11
152.0982588235
 21
11.2872470588
 31
0.0
  0
LINE
  5
1C1
330
1F
100
AcDbEntity
  8
0
  6
Continuous
 62
     7
370
    15
100
AcDbLine
 10
152.0982588235
 20
11.2872470588
 30
0.0
 11
152.0982588235
 21
8.1672470588
 31
0.0
  0
LINE
  5
1C2
330
1F
100
AcDbEntity
  8
0
  6
Continuous
 62
     7
370
    15
100
AcDbLine
 10
152.0982588235
 20
8.1672470588
 30
0.0
 11
142.0982588235
 21
8.1672470588
 31
0.0
  0
LINE
  5
1C3
330
1F
100
AcDbEntity
  8
0
  6
Continuous
 62
     7
370
    15
100
AcDbLine
 10
142.0982588235
 20
8.1672470588
 30
0.0
 11
142.0982588235
 21
11.2872470588
 31
0.0
  0
LINE
  5
1C4
330
1F
100
AcDbEntity
  8
0
  6
Continuous
 62
     7
370
    15
100
AcDbLine
 10
142.0982588235
 20
11.2872470588
 30
0.0
 11
178.9782588235
 21
48.1672470588
 31
0.0
  0
LINE
  5
1C5
330
1F
100
AcDbEntity
  8
0
  6
Continuous
 62
     7
370
    15
100
AcDbLine
 10
138.5321411765
 20
17.3284705882
 30
0.0
 11
135.4121411765
 21
17.3284705882
 31
0.0
  0
LINE
  5
1C6
330
1F
100
AcDbEntity
  8
0
  6
Continuous
 62
     7
370
    15
100
AcDbLine
 10
135.4121411765
 20
17.3284705882
 30
0.0
 11
135.4121411765
 21
27.3284705882
 31
0.0
  0
LINE
  5
1C7
330
1F
100
AcDbEntity
  8
0
  6
Continuous
 62
     7
370
    15
100
AcDbLine
 10
135.4121411765
 20
27.3284705882
 30
0.0
 11
138.5321411765
 21
27.3284705882
 31
0.0
  0
LINE
  5
1C8
330
1F
100
AcDbEntity
  8
0
  6
Continuous
 62
     7
370
    15
100
AcDbLine
 10
138.5321411765
 20
27.3284705882
 30
0.0
 11
138.5321411765
 21
37.3284705882
 31
0.0
  0
LINE
  5
1C9
330
1F
100
AcDbEntity
  8
0
  6
Continuous
 62
     7
370
    15
100
AcDbLine
 10
138.5321411765
 20
37.3284705882
 30
0.0
 11
135.4121411765
 21
37.3284705882
 31
0.0
  0
LINE
  5
1CA
330
1F
100
AcDbEntity
  8
0
  6
Continuous
 62
     7
370
    15
100
AcDbLine
 10
135.4121411765
 20
37.3284705882
 30
0.0
 11
135.4121411765
 21
47.3284705882
 31
0.0
  0
LINE
  5
1CB
330
1F
100
AcDbEntity
  8
0
  6
Continuous
 62
     7
370
    15
100
AcDbLine
 10
135.4121411765
 20
47.3284705882
 30
0.0
 11
138.5321411765
 21
47.3284705882
 31
0.0
  0
LINE
  5
1CC
330
1F
100
AcDbEntity
  8
0
  6
Continuous
 62
     7
370
    15
100
AcDbLine
 10
138.5321411765
 20
47.3284705882
 30
0.0
 11
138.5321411765
 21
54.2084705882
 31
0.0
  0
LINE
  5
1CD
330
1F
100
AcDbEntity
  8
0
  6
Continuous
 62
     7
370
    15
100
AcDbLine
 10
138.5321411765
 20
54.2084705882
 30
0.0
 11
145.4121411765
 21
54.2084705882
 31
0.0
  0
LINE
  5
1CE
330
1F
100
AcDbEntity
  8
0
  6
Continuous
 62
     7
370
    15
100
AcDbLine
 10
145.4121411765
 20
54.2084705882
 30
0.0
 11
145.4121411765
 21
57.3284705882
 31
0.0
  0
LINE
  5
1CF
330
1F
100
AcDbEntity
  8
0
  6
Continuous
 62
     7
370
    15
100
AcDbLine
 10
145.4121411765
 20
57.3284705882
 30
0.0
 11
155.4121411765
 21
57.3284705882
 31
0.0
  0
LINE
  5
1D0
330
1F
100
AcDbEntity
  8
0
  6
Continuous
 62
     7
370
    15
100
AcDbLine
 10
155.4121411765
 20
57.3284705882
 30
0.0
 11
155.4121411765
 21
54.2084705882
 31
0.0
  0
LINE
  5
1D1
330
1F
100
AcDbEntity
  8
0
  6
Continuous
 62
     7
370
    15
100
AcDbLine
 10
155.4121411765
 20
54.2084705882
 30
0.0
 11
165.4121411765
 21
54.2084705882
 31
0.0
  0
LINE
  5
1D2
330
1F
100
AcDbEntity
  8
0
  6
Continuous
 62
     7
370
    15
100
AcDbLine
 10
165.4121411765
 20
54.2084705882
 30
0.0
 11
165.4121411765
 21
57.3284705882
 31
0.0
  0
LINE
  5
1D3
330
1F
100
AcDbEntity
  8
0
  6
Continuous
 62
     7
370
    15
100
AcDbLine
 10
165.4121411765
 20
57.3284705882
 30
0.0
 11
175.4121411765
 21
57.3284705882
 31
0.0
  0
LINE
  5
1D4
330
1F
100
AcDbEntity
  8
0
  6
Continuous
 62
     7
370
    15
100
AcDbLine
 10
175.4121411765
 20
57.3284705882
 30
0.0
 11
175.4121411765
 21
54.2084705882
 31
0.0
  0
LINE
  5
1D5
330
1F
100
AcDbEntity
  8
0
  6
Continuous
 62
     7
370
    15
100
AcDbLine
 10
175.4121411765
 20
54.2084705882
 30
0.0
 11
138.5321411765
 21
17.3284705882
 31
0.0
  0
LINE
  5
1D6
330
1F
100
AcDbEntity
  8
0
  6
Continuous
 62
     7
370
    15
100
AcDbLine
 10
227.5390117647
 20
44.1809882353
 30
0.0
 11
230.6590117647
 21
44.1809882353
 31
0.0
  0
LINE
  5
1D7
330
1F
100
AcDbEntity
  8
0
  6
Continuous
 62
     7
370
    15
100
AcDbLine
 10
230.6590117647
 20
44.1809882353
 30
0.0
 11
230.6590117647
 21
34.1809882353
 31
0.0
  0
LINE
  5
1D8
330
1F
100
AcDbEntity
  8
0
  6
Continuous
 62
     7
370
    15
100
AcDbLine
 10
230.6590117647
 20
34.1809882353
 30
0.0
 11
227.5390117647
 21
34.1809882353
 31
0.0
  0
LINE
  5
1D9
330
1F
100
AcDbEntity
  8
0
  6
Continuous
 62
     7
370
    15
100
AcDbLine
 10
227.5390117647
 20
34.1809882353
 30
0.0
 11
227.5390117647
 21
24.1809882353
 31
0.0
  0
LINE
  5
1DA
330
1F
100
AcDbEntity
  8
0
  6
Continuous
 62
     7
370
    15
100
AcDbLine
 10
227.5390117647
 20
24.1809882353
 30
0.0
 11
230.6590117647
 21
24.1809882353
 31
0.0
  0
LINE
  5
1DB
330
1F
100
AcDbEntity
  8
0
  6
Continuous
 62
     7
370
    15
100
AcDbLine
 10
230.6590117647
 20
24.1809882353
 30
0.0
 11
230.6590117647
 21
14.1809882353
 31
0.0
  0
LINE
  5
1DC
330
1F
100
AcDbEntity
  8
0
  6
Continuous
 62
     7
370
    15
100
AcDbLine
 10
230.6590117647
 20
14.1809882353
 30
0.0
 11
227.5390117647
 21
14.1809882353
 31
0.0
  0
LINE
  5
1DD
330
1F
100
AcDbEntity
  8
0
  6
Continuous
 62
     7
370
    15
100
AcDbLine
 10
227.5390117647
 20
14.1809882353
 30
0.0
 11
227.5390117647
 21
7.3009882353
 31
0.0
  0
LINE
  5
1DE
330
1F
100
AcDbEntity
  8
0
  6
Continuous
 62
     7
370
    15
100
AcDbLine
 10
227.5390117647
 20
7.3009882353
 30
0.0
 11
220.6590117647
 21
7.3009882353
 31
0.0
  0
LINE
  5
1DF
330
1F
100
AcDbEntity
  8
0
  6
Continuous
 62
     7
370
    15
100
AcDbLine
 10
220.6590117647
 20
7.3009882353
 30
0.0
 11
220.6590117647
 21
4.1809882353
 31
0.0
  0
LINE
  5
1E0
330
1F
100
AcDbEntity
  8
0
  6
Continuous
 62
     7
370
    15
100
AcDbLine
 10
220.6590117647
 20
4.1809882353
 30
0.0
 11
210.6590117647
 21
4.1809882353
 31
0.0
  0
LINE
  5
1E1
330
1F
100
AcDbEntity
  8
0
  6
Continuous
 62
     7
370
    15
100
AcDbLine
 10
210.6590117647
 20
4.1809882353
 30
0.0
 11
210.6590117647
 21
7.3009882353
 31
0.0
  0
LINE
  5
1E2
330
1F
100
AcDbEntity
  8
0
  6
Continuous
 62
     7
370
    15
100
AcDbLine
 10
210.6590117647
 20
7.3009882353
 30
0.0
 11
200.6590117647
 21
7.3009882353
 31
0.0
  0
LINE
  5
1E3
330
1F
100
AcDbEntity
  8
0
  6
Continuous
 62
     7
370
    15
100
AcDbLine
 10
200.6590117647
 20
7.3009882353
 30
0.0
 11
200.6590117647
 21
4.1809882353
 31
0.0
  0
LINE
  5
1E4
330
1F
100
AcDbEntity
  8
0
  6
Continuous
 62
     7
370
    15
100
AcDbLine
 10
200.6590117647
 20
4.1809882353
 30
0.0
 11
190.6590117647
 21
4.1809882353
 31
0.0
  0
LINE
  5
1E5
330
1F
100
AcDbEntity
  8
0
  6
Continuous
 62
     7
370
    15
100
AcDbLine
 10
190.6590117647
 20
4.1809882353
 30
0.0
 11
190.6590117647
 21
7.3009882353
 31
0.0
  0
LINE
  5
1E6
330
1F
100
AcDbEntity
  8
0
  6
Continuous
 62
     7
370
    15
100
AcDbLine
 10
190.6590117647
 20
7.3009882353
 30
0.0
 11
227.5390117647
 21
44.1809882353
 31
0.0
  0
LINE
  5
1E7
330
1F
100
AcDbEntity
  8
0
  6
Continuous
 62
     7
370
    15
100
AcDbLine
 10
275.9241411765
 20
44.4774588235
 30
0.0
 11
279.0441411765
 21
44.4774588235
 31
0.0
  0
LINE
  5
1E8
330
1F
100
AcDbEntity
  8
0
  6
Continuous
 62
     7
370
    15
100
AcDbLine
 10
279.0441411765
 20
44.4774588235
 30
0.0
 11
279.0441411765
 21
34.4774588235
 31
0.0
  0
LINE
  5
1E9
330
1F
100
AcDbEntity
  8
0
  6
Continuous
 62
     7
370
    15
100
AcDbLine
 10
279.0441411765
 20
34.4774588235
 30
0.0
 11
275.9241411765
 21
34.4774588235
 31
0.0
  0
LINE
  5
1EA
330
1F
100
AcDbEntity
  8
0
  6
Continuous
 62
     7
370
    15
100
AcDbLine
 10
275.9241411765
 20
34.4774588235
 30
0.0
 11
275.9241411765
 21
24.4774588235
 31
0.0
  0
LINE
  5
1EB
330
1F
100
AcDbEntity
  8
0
  6
Continuous
 62
     7
370
    15
100
AcDbLine
 10
275.9241411765
 20
24.4774588235
 30
0.0
 11
279.0441411765
 21
24.4774588235
 31
0.0
  0
LINE
  5
1EC
330
1F
100
AcDbEntity
  8
0
  6
Continuous
 62
     7
370
    15
100
AcDbLine
 10
279.0441411765
 20
24.4774588235
 30
0.0
 11
279.0441411765
 21
14.4774588235
 31
0.0
  0
LINE
  5
1ED
330
1F
100
AcDbEntity
  8
0
  6
Continuous
 62
     7
370
    15
100
AcDbLine
 10
279.0441411765
 20
14.4774588235
 30
0.0
 11
275.9241411765
 21
14.4774588235
 31
0.0
  0
LINE
  5
1EE
330
1F
100
AcDbEntity
  8
0
  6
Continuous
 62
     7
370
    15
100
AcDbLine
 10
275.9241411765
 20
14.4774588235
 30
0.0
 11
275.9241411765
 21
7.5974588235
 31
0.0
  0
LINE
  5
1EF
330
1F
100
AcDbEntity
  8
0
  6
Continuous
 62
     7
370
    15
100
AcDbLine
 10
275.9241411765
 20
7.5974588235
 30
0.0
 11
269.0441411765
 21
7.5974588235
 31
0.0
  0
LINE
  5
1F0
330
1F
100
AcDbEntity
  8
0
  6
Continuous
 62
     7
370
    15
100
AcDbLine
 10
269.0441411765
 20
7.5974588235
 30
0.0
 11
269.0441411765
 21
4.4774588235
 31
0.0
  0
LINE
  5
1F1
330
1F
100
AcDbEntity
  8
0
  6
Continuous
 62
     7
370
    15
100
AcDbLine
 10
269.0441411765
 20
4.4774588235
 30
0.0
 11
259.0441411765
 21
4.4774588235
 31
0.0
  0
LINE
  5
1F2
330
1F
100
AcDbEntity
  8
0
  6
Continuous
 62
     7
370
    15
100
AcDbLine
 10
259.0441411765
 20
4.4774588235
 30
0.0
 11
259.0441411765
 21
7.5974588235
 31
0.0
  0
LINE
  5
1F3
330
1F
100
AcDbEntity
  8
0
  6
Continuous
 62
     7
370
    15
100
AcDbLine
 10
259.0441411765
 20
7.5974588235
 30
0.0
 11
249.0441411765
 21
7.5974588235
 31
0.0
  0
LINE
  5
1F4
330
1F
100
AcDbEntity
  8
0
  6
Continuous
 62
     7
370
    15
100
AcDbLine
 10
249.0441411765
 20
7.5974588235
 30
0.0
 11
249.0441411765
 21
4.4774588235
 31
0.0
  0
LINE
  5
1F5
330
1F
100
AcDbEntity
  8
0
  6
Continuous
 62
     7
370
    15
100
AcDbLine
 10
249.0441411765
 20
4.4774588235
 30
0.0
 11
239.0441411765
 21
4.4774588235
 31
0.0
  0
LINE
  5
1F6
330
1F
100
AcDbEntity
  8
0
  6
Continuous
 62
     7
370
    15
100
AcDbLine
 10
239.0441411765
 20
4.4774588235
 30
0.0
 11
239.0441411765
 21
7.5974588235
 31
0.0
  0
LINE
  5
1F7
330
1F
100
AcDbEntity
  8
0
  6
Continuous
 62
     7
370
    15
100
AcDbLine
 10
239.0441411765
 20
7.5974588235
 30
0.0
 11
275.9241411765
 21
44.4774588235
 31
0.0
  0
LINE
  5
1F8
330
1F
100
AcDbEntity
  8
0
  6
Continuous
 62
     7
370
    15
100
AcDbLine
 10
589.4222117647
 20
13.3107764706
 30
0.0
 11
586.3022117647
 21
13.3107764706
 31
0.0
  0
LINE
  5
1F9
330
1F
100
AcDbEntity
  8
0
  6
Continuous
 62
     7
370
    15
100
AcDbLine
 10
586.3022117647
 20
13.3107764706
 30
0.0
 11
586.3022117647
 21
3.3107764706
 31
0.0
  0
LINE
  5
1FA
330
1F
100
AcDbEntity
  8
0
  6
Continuous
 62
     7
370
    15
100
AcDbLine
 10
292.5422117647
 20
13.3107764706
 30
0.0
 11
292.5422117647
 21
3.3107764706
 31
0.0
  0
LINE
  5
1FB
330
1F
100
AcDbEntity
  8
0
  6
Continuous
 62
     7
370
    15
100
AcDbLine
 10
289.4222117647
 20
13.3107764706
 30
0.0
 11
292.5422117647
 21
13.3107764706
 31
0.0
  0
LINE
  5
1FC
330
1F
100
AcDbEntity
  8
0
  6
Continuous
 62
     7
370
    15
100
AcDbLine
 10
292.5422117647
 20
23.3107764706
 30
0.0
 11
289.4222117647
 21
23.3107764706
 31
0.0
  0
LINE
  5
1FD
330
1F
100
AcDbEntity
  8
0
  6
Continuous
 62
     7
370
    15
100
AcDbLine
 10
292.5422117647
 20
33.3107764706
 30
0.0
 11
292.5422117647
 21
23.3107764706
 31
0.0
  0
LINE
  5
1FE
330
1F
100
AcDbEntity
  8
0
  6
Continuous
 62
     7
370
    15
100
AcDbLine
 10
289.4222117647
 20
33.3107764706
 30
0.0
 11
292.5422117647
 21
33.3107764706
 31
0.0
  0
LINE
  5
1FF
330
1F
100
AcDbEntity
  8
0
  6
Continuous
 62
     7
370
    15
100
AcDbLine
 10
299.4222117647
 20
40.1907764706
 30
0.0
 11
289.4222117647
 21
40.1907764706
 31
0.0
  0
LINE
  5
200
330
1F
100
AcDbEntity
  8
0
  6
Continuous
 62
     7
370
    15
100
AcDbLine
 10
299.4222117647
 20
43.3107764706
 30
0.0
 11
299.4222117647
 21
40.1907764706
 31
0.0
  0
LINE
  5
201
330
1F
100
AcDbEntity
  8
0
  6
Continuous
 62
     7
370
    15
100
AcDbLine
 10
309.4222117647
 20
40.1907764706
 30
0.0
 11
309.4222117647
 21
43.3107764706
 31
0.0
  0
LINE
  5
202
330
1F
100
AcDbEntity
  8
0
  6
Continuous
 62
     7
370
    15
100
AcDbLine
 10
319.4222117647
 20
40.1907764706
 30
0.0
 11
309.4222117647
 21
40.1907764706
 31
0.0
  0
LINE
  5
203
330
1F
100
AcDbEntity
  8
0
  6
Continuous
 62
     7
370
    15
100
AcDbLine
 10
319.4222117647
 20
43.3107764706
 30
0.0
 11
319.4222117647
 21
40.1907764706
 31
0.0
  0
LINE
  5
204
330
1F
100
AcDbEntity
  8
0
  6
Continuous
 62
     7
370
    15
100
AcDbLine
 10
329.4222117647
 20
40.1907764706
 30
0.0
 11
329.4222117647
 21
43.3107764706
 31
0.0
  0
LINE
  5
205
330
1F
100
AcDbEntity
  8
0
  6
Continuous
 62
     7
370
    15
100
AcDbLine
 10
339.4222117647
 20
40.1907764706
 30
0.0
 11
329.4222117647
 21
40.1907764706
 31
0.0
  0
LINE
  5
206
330
1F
100
AcDbEntity
  8
0
  6
Continuous
 62
     7
370
    15
100
AcDbLine
 10
339.4222117647
 20
43.3107764706
 30
0.0
 11
339.4222117647
 21
40.1907764706
 31
0.0
  0
LINE
  5
207
330
1F
100
AcDbEntity
  8
0
  6
Continuous
 62
     7
370
    15
100
AcDbLine
 10
349.4222117647
 20
40.1907764706
 30
0.0
 11
349.4222117647
 21
43.3107764706
 31
0.0
  0
LINE
  5
208
330
1F
100
AcDbEntity
  8
0
  6
Continuous
 62
     7
370
    15
100
AcDbLine
 10
359.4222117647
 20
40.1907764706
 30
0.0
 11
349.4222117647
 21
40.1907764706
 31
0.0
  0
LINE
  5
209
330
1F
100
AcDbEntity
  8
0
  6
Continuous
 62
     7
370
    15
100
AcDbLine
 10
359.4222117647
 20
43.3107764706
 30
0.0
 11
359.4222117647
 21
40.1907764706
 31
0.0
  0
LINE
  5
20A
330
1F
100
AcDbEntity
  8
0
  6
Continuous
 62
     7
370
    15
100
AcDbLine
 10
369.4222117647
 20
40.1907764706
 30
0.0
 11
369.4222117647
 21
43.3107764706
 31
0.0
  0
LINE
  5
20B
330
1F
100
AcDbEntity
  8
0
  6
Continuous
 62
     7
370
    15
100
AcDbLine
 10
379.4222117647
 20
40.1907764706
 30
0.0
 11
369.4222117647
 21
40.1907764706
 31
0.0
  0
LINE
  5
20C
330
1F
100
AcDbEntity
  8
0
  6
Continuous
 62
     7
370
    15
100
AcDbLine
 10
379.4222117647
 20
43.3107764706
 30
0.0
 11
379.4222117647
 21
40.1907764706
 31
0.0
  0
LINE
  5
20D
330
1F
100
AcDbEntity
  8
0
  6
Continuous
 62
     7
370
    15
100
AcDbLine
 10
389.4222117647
 20
40.1907764706
 30
0.0
 11
389.4222117647
 21
43.3107764706
 31
0.0
  0
LINE
  5
20E
330
1F
100
AcDbEntity
  8
0
  6
Continuous
 62
     7
370
    15
100
AcDbLine
 10
399.4222117647
 20
40.1907764706
 30
0.0
 11
389.4222117647
 21
40.1907764706
 31
0.0
  0
LINE
  5
20F
330
1F
100
AcDbEntity
  8
0
  6
Continuous
 62
     7
370
    15
100
AcDbLine
 10
399.4222117647
 20
43.3107764706
 30
0.0
 11
399.4222117647
 21
40.1907764706
 31
0.0
  0
LINE
  5
210
330
1F
100
AcDbEntity
  8
0
  6
Continuous
 62
     7
370
    15
100
AcDbLine
 10
409.4222117647
 20
40.1907764706
 30
0.0
 11
409.4222117647
 21
43.3107764706
 31
0.0
  0
LINE
  5
211
330
1F
100
AcDbEntity
  8
0
  6
Continuous
 62
     7
370
    15
100
AcDbLine
 10
419.4222117647
 20
40.1907764706
 30
0.0
 11
409.4222117647
 21
40.1907764706
 31
0.0
  0
LINE
  5
212
330
1F
100
AcDbEntity
  8
0
  6
Continuous
 62
     7
370
    15
100
AcDbLine
 10
419.4222117647
 20
43.3107764706
 30
0.0
 11
419.4222117647
 21
40.1907764706
 31
0.0
  0
LINE
  5
213
330
1F
100
AcDbEntity
  8
0
  6
Continuous
 62
     7
370
    15
100
AcDbLine
 10
429.4222117647
 20
40.1907764706
 30
0.0
 11
429.4222117647
 21
43.3107764706
 31
0.0
  0
LINE
  5
214
330
1F
100
AcDbEntity
  8
0
  6
Continuous
 62
     7
370
    15
100
AcDbLine
 10
439.4222117647
 20
40.1907764706
 30
0.0
 11
429.4222117647
 21
40.1907764706
 31
0.0
  0
LINE
  5
215
330
1F
100
AcDbEntity
  8
0
  6
Continuous
 62
     7
370
    15
100
AcDbLine
 10
439.4222117647
 20
43.3107764706
 30
0.0
 11
439.4222117647
 21
40.1907764706
 31
0.0
  0
LINE
  5
216
330
1F
100
AcDbEntity
  8
0
  6
Continuous
 62
     7
370
    15
100
AcDbLine
 10
449.4222117647
 20
40.1907764706
 30
0.0
 11
449.4222117647
 21
43.3107764706
 31
0.0
  0
LINE
  5
217
330
1F
100
AcDbEntity
  8
0
  6
Continuous
 62
     7
370
    15
100
AcDbLine
 10
459.4222117647
 20
40.1907764706
 30
0.0
 11
449.4222117647
 21
40.1907764706
 31
0.0
  0
LINE
  5
218
330
1F
100
AcDbEntity
  8
0
  6
Continuous
 62
     7
370
    15
100
AcDbLine
 10
459.4222117647
 20
43.3107764706
 30
0.0
 11
459.4222117647
 21
40.1907764706
 31
0.0
  0
LINE
  5
219
330
1F
100
AcDbEntity
  8
0
  6
Continuous
 62
     7
370
    15
100
AcDbLine
 10
469.4222117647
 20
40.1907764706
 30
0.0
 11
469.4222117647
 21
43.3107764706
 31
0.0
  0
LINE
  5
21A
330
1F
100
AcDbEntity
  8
0
  6
Continuous
 62
     7
370
    15
100
AcDbLine
 10
479.4222117647
 20
40.1907764706
 30
0.0
 11
469.4222117647
 21
40.1907764706
 31
0.0
  0
LINE
  5
21B
330
1F
100
AcDbEntity
  8
0
  6
Continuous
 62
     7
370
    15
100
AcDbLine
 10
479.4222117647
 20
43.3107764706
 30
0.0
 11
479.4222117647
 21
40.1907764706
 31
0.0
  0
LINE
  5
21C
330
1F
100
AcDbEntity
  8
0
  6
Continuous
 62
     7
370
    15
100
AcDbLine
 10
489.4222117647
 20
40.1907764706
 30
0.0
 11
489.4222117647
 21
43.3107764706
 31
0.0
  0
LINE
  5
21D
330
1F
100
AcDbEntity
  8
0
  6
Continuous
 62
     7
370
    15
100
AcDbLine
 10
499.4222117647
 20
40.1907764706
 30
0.0
 11
489.4222117647
 21
40.1907764706
 31
0.0
  0
LINE
  5
21E
330
1F
100
AcDbEntity
  8
0
  6
Continuous
 62
     7
370
    15
100
AcDbLine
 10
499.4222117647
 20
43.3107764706
 30
0.0
 11
499.4222117647
 21
40.1907764706
 31
0.0
  0
LINE
  5
21F
330
1F
100
AcDbEntity
  8
0
  6
Continuous
 62
     7
370
    15
100
AcDbLine
 10
509.4222117647
 20
40.1907764706
 30
0.0
 11
509.4222117647
 21
43.3107764706
 31
0.0
  0
LINE
  5
220
330
1F
100
AcDbEntity
  8
0
  6
Continuous
 62
     7
370
    15
100
AcDbLine
 10
519.4222117647
 20
40.1907764706
 30
0.0
 11
509.4222117647
 21
40.1907764706
 31
0.0
  0
LINE
  5
221
330
1F
100
AcDbEntity
  8
0
  6
Continuous
 62
     7
370
    15
100
AcDbLine
 10
519.4222117647
 20
43.3107764706
 30
0.0
 11
519.4222117647
 21
40.1907764706
 31
0.0
  0
LINE
  5
222
330
1F
100
AcDbEntity
  8
0
  6
Continuous
 62
     7
370
    15
100
AcDbLine
 10
529.4222117647
 20
40.1907764706
 30
0.0
 11
529.4222117647
 21
43.3107764706
 31
0.0
  0
LINE
  5
223
330
1F
100
AcDbEntity
  8
0
  6
Continuous
 62
     7
370
    15
100
AcDbLine
 10
539.4222117647
 20
40.1907764706
 30
0.0
 11
529.4222117647
 21
40.1907764706
 31
0.0
  0
LINE
  5
224
330
1F
100
AcDbEntity
  8
0
  6
Continuous
 62
     7
370
    15
100
AcDbLine
 10
539.4222117647
 20
43.3107764706
 30
0.0
 11
539.4222117647
 21
40.1907764706
 31
0.0
  0
LINE
  5
225
330
1F
100
AcDbEntity
  8
0
  6
Continuous
 62
     7
370
    15
100
AcDbLine
 10
549.4222117647
 20
40.1907764706
 30
0.0
 11
549.4222117647
 21
43.3107764706
 31
0.0
  0
LINE
  5
226
330
1F
100
AcDbEntity
  8
0
  6
Continuous
 62
     7
370
    15
100
AcDbLine
 10
559.4222117647
 20
40.1907764706
 30
0.0
 11
549.4222117647
 21
40.1907764706
 31
0.0
  0
LINE
  5
227
330
1F
100
AcDbEntity
  8
0
  6
Continuous
 62
     7
370
    15
100
AcDbLine
 10
559.4222117647
 20
43.3107764706
 30
0.0
 11
559.4222117647
 21
40.1907764706
 31
0.0
  0
LINE
  5
228
330
1F
100
AcDbEntity
  8
0
  6
Continuous
 62
     7
370
    15
100
AcDbLine
 10
569.4222117647
 20
40.1907764706
 30
0.0
 11
569.4222117647
 21
43.3107764706
 31
0.0
  0
LINE
  5
229
330
1F
100
AcDbEntity
  8
0
  6
Continuous
 62
     7
370
    15
100
AcDbLine
 10
579.4222117647
 20
40.1907764706
 30
0.0
 11
569.4222117647
 21
40.1907764706
 31
0.0
  0
LINE
  5
22A
330
1F
100
AcDbEntity
  8
0
  6
Continuous
 62
     7
370
    15
100
AcDbLine
 10
579.4222117647
 20
43.3107764706
 30
0.0
 11
579.4222117647
 21
40.1907764706
 31
0.0
  0
LINE
  5
22B
330
1F
100
AcDbEntity
  8
0
  6
Continuous
 62
     7
370
    15
100
AcDbLine
 10
589.4222117647
 20
33.3107764706
 30
0.0
 11
586.3022117647
 21
33.3107764706
 31
0.0
  0
LINE
  5
22C
330
1F
100
AcDbEntity
  8
0
  6
Continuous
 62
     7
370
    15
100
AcDbLine
 10
586.3022117647
 20
33.3107764706
 30
0.0
 11
586.3022117647
 21
23.3107764706
 31
0.0
  0
LINE
  5
22D
330
1F
100
AcDbEntity
  8
0
  6
Continuous
 62
     7
370
    15
100
AcDbLine
 10
586.3022117647
 20
23.3107764706
 30
0.0
 11
589.4222117647
 21
23.3107764706
 31
0.0
  0
LINE
  5
22E
330
1F
100
AcDbEntity
  8
0
  6
Continuous
 62
     7
370
    15
100
AcDbLine
 10
579.4222117647
 20
43.3107764706
 30
0.0
 11
589.4222117647
 21
43.3107764706
 31
0.0
  0
LINE
  5
22F
330
1F
100
AcDbEntity
  8
0
  6
Continuous
 62
     7
370
    15
100
AcDbLine
 10
589.4222117647
 20
43.3107764706
 30
0.0
 11
589.4222117647
 21
33.3107764706
 31
0.0
  0
LINE
  5
230
330
1F
100
AcDbEntity
  8
0
  6
Continuous
 62
     7
370
    15
100
AcDbLine
 10
586.3022117647
 20
3.3107764706
 30
0.0
 11
292.5422117647
 21
3.3107764706
 31
0.0
  0
LINE
  5
231
330
1F
100
AcDbEntity
  8
0
  6
Continuous
 62
     7
370
    15
100
AcDbLine
 10
289.4222117647
 20
33.3107764706
 30
0.0
 11
289.4222117647
 21
40.1907764706
 31
0.0
  0
LINE
  5
232
330
1F
100
AcDbEntity
  8
0
  6
Continuous
 62
     7
370
    15
100
AcDbLine
 10
299.4222117647
 20
43.3107764706
 30
0.0
 11
309.4222117647
 21
43.3107764706
 31
0.0
  0
LINE
  5
233
330
1F
100
AcDbEntity
  8
0
  6
Continuous
 62
     7
370
    15
100
AcDbLine
 10
319.4222117647
 20
43.3107764706
 30
0.0
 11
329.4222117647
 21
43.3107764706
 31
0.0
  0
LINE
  5
234
330
1F
100
AcDbEntity
  8
0
  6
Continuous
 62
     7
370
    15
100
AcDbLine
 10
339.4222117647
 20
43.3107764706
 30
0.0
 11
349.4222117647
 21
43.3107764706
 31
0.0
  0
LINE
  5
235
330
1F
100
AcDbEntity
  8
0
  6
Continuous
 62
     7
370
    15
100
AcDbLine
 10
359.4222117647
 20
43.3107764706
 30
0.0
 11
369.4222117647
 21
43.3107764706
 31
0.0
  0
LINE
  5
236
330
1F
100
AcDbEntity
  8
0
  6
Continuous
 62
     7
370
    15
100
AcDbLine
 10
379.4222117647
 20
43.3107764706
 30
0.0
 11
389.4222117647
 21
43.3107764706
 31
0.0
  0
LINE
  5
237
330
1F
100
AcDbEntity
  8
0
  6
Continuous
 62
     7
370
    15
100
AcDbLine
 10
399.4222117647
 20
43.3107764706
 30
0.0
 11
409.4222117647
 21
43.3107764706
 31
0.0
  0
LINE
  5
238
330
1F
100
AcDbEntity
  8
0
  6
Continuous
 62
     7
370
    15
100
AcDbLine
 10
419.4222117647
 20
43.3107764706
 30
0.0
 11
429.4222117647
 21
43.3107764706
 31
0.0
  0
LINE
  5
239
330
1F
100
AcDbEntity
  8
0
  6
Continuous
 62
     7
370
    15
100
AcDbLine
 10
439.4222117647
 20
43.3107764706
 30
0.0
 11
449.4222117647
 21
43.3107764706
 31
0.0
  0
LINE
  5
23A
330
1F
100
AcDbEntity
  8
0
  6
Continuous
 62
     7
370
    15
100
AcDbLine
 10
459.4222117647
 20
43.3107764706
 30
0.0
 11
469.4222117647
 21
43.3107764706
 31
0.0
  0
LINE
  5
23B
330
1F
100
AcDbEntity
  8
0
  6
Continuous
 62
     7
370
    15
100
AcDbLine
 10
479.4222117647
 20
43.3107764706
 30
0.0
 11
489.4222117647
 21
43.3107764706
 31
0.0
  0
LINE
  5
23C
330
1F
100
AcDbEntity
  8
0
  6
Continuous
 62
     7
370
    15
100
AcDbLine
 10
499.4222117647
 20
43.3107764706
 30
0.0
 11
509.4222117647
 21
43.3107764706
 31
0.0
  0
LINE
  5
23D
330
1F
100
AcDbEntity
  8
0
  6
Continuous
 62
     7
370
    15
100
AcDbLine
 10
519.4222117647
 20
43.3107764706
 30
0.0
 11
529.4222117647
 21
43.3107764706
 31
0.0
  0
LINE
  5
23E
330
1F
100
AcDbEntity
  8
0
  6
Continuous
 62
     7
370
    15
100
AcDbLine
 10
539.4222117647
 20
43.3107764706
 30
0.0
 11
549.4222117647
 21
43.3107764706
 31
0.0
  0
LINE
  5
23F
330
1F
100
AcDbEntity
  8
0
  6
Continuous
 62
     7
370
    15
100
AcDbLine
 10
559.4222117647
 20
43.3107764706
 30
0.0
 11
569.4222117647
 21
43.3107764706
 31
0.0
  0
LINE
  5
240
330
1F
100
AcDbEntity
  8
0
  6
Continuous
 62
     7
370
    15
100
AcDbLine
 10
289.4222117647
 20
13.3107764706
 30
0.0
 11
289.4222117647
 21
23.3107764706
 31
0.0
  0
LINE
  5
241
330
1F
100
AcDbEntity
  8
0
  6
Continuous
 62
     7
370
    15
100
AcDbLine
 10
589.4222117647
 20
23.3107764706
 30
0.0
 11
589.4222117647
 21
13.3107764706
 31
0.0
  0
CIRCLE
  5
242
330
1F
100
AcDbEntity
  8
0
  6
Continuous
 62
     1
370
    15
100
AcDbCircle
 10
581.6115764706
 20
55.9263058824
 30
0.0
 40
1.599999999999909
  0
LINE
  5
243
330
1F
100
AcDbEntity
  8
0
  6
Continuous
 62
     7
370
    15
100
AcDbLine
 10
591.6115764706
 20
65.9263058824
 30
0.0
 11
591.6115764706
 21
75.9263058824
 31
0.0
  0
LINE
  5
244
330
1F
100
AcDbEntity
  8
0
  6
Continuous
 62
     7
370
    15
100
AcDbLine
 10
588.4915764706
 20
65.9263058824
 30
0.0
 11
591.6115764706
 21
65.9263058824
 31
0.0
  0
LINE
  5
245
330
1F
100
AcDbEntity
  8
0
  6
Continuous
 62
     7
370
    15
100
AcDbLine
 10
588.4915764706
 20
55.9263058824
 30
0.0
 11
588.4915764706
 21
65.9263058824
 31
0.0
  0
LINE
  5
246
330
1F
100
AcDbEntity
  8
0
  6
Continuous
 62
     7
370
    15
100
AcDbLine
 10
591.6115764706
 20
55.9263058824
 30
0.0
 11
588.4915764706
 21
55.9263058824
 31
0.0
  0
LINE
  5
247
330
1F
100
AcDbEntity
  8
0
  6
Continuous
 62
     7
370
    15
100
AcDbLine
 10
591.6115764706
 20
49.0463058824
 30
0.0
 11
591.6115764706
 21
55.9263058824
 31
0.0
  0
LINE
  5
248
330
1F
100
AcDbEntity
  8
0
  6
Continuous
 62
     7
370
    15
100
AcDbLine
 10
591.6115764706
 20
49.0463058824
 30
0.0
 11
581.6115764706
 21
49.0463058824
 31
0.0
  0
LINE
  5
249
330
1F
100
AcDbEntity
  8
0
  6
Continuous
 62
     7
370
    15
100
AcDbLine
 10
581.6115764706
 20
49.0463058824
 30
0.0
 11
581.6115764706
 21
45.9263058824
 31
0.0
  0
LINE
  5
24A
330
1F
100
AcDbEntity
  8
0
  6
Continuous
 62
     7
370
    15
100
AcDbLine
 10
571.6115764706
 20
45.9263058824
 30
0.0
 11
581.6115764706
 21
45.9263058824
 31
0.0
  0
LINE
  5
24B
330
1F
100
AcDbEntity
  8
0
  6
Continuous
 62
     7
370
    15
100
AcDbLine
 10
571.6115764706
 20
45.9263058824
 30
0.0
 11
571.6115764706
 21
49.0463058824
 31
0.0
  0
LINE
  5
24C
330
1F
100
AcDbEntity
  8
0
  6
Continuous
 62
     7
370
    15
100
AcDbLine
 10
571.6115764706
 20
49.0463058824
 30
0.0
 11
561.6115764706
 21
49.0463058824
 31
0.0
  0
LINE
  5
24D
330
1F
100
AcDbEntity
  8
0
  6
Continuous
 62
     7
370
    15
100
AcDbLine
 10
561.6115764706
 20
49.0463058824
 30
0.0
 11
561.6115764706
 21
45.9263058824
 31
0.0
  0
LINE
  5
24E
330
1F
100
AcDbEntity
  8
0
  6
Continuous
 62
     7
370
    15
100
AcDbLine
 10
551.6115764706
 20
45.9263058824
 30
0.0
 11
561.6115764706
 21
45.9263058824
 31
0.0
  0
LINE
  5
24F
330
1F
100
AcDbEntity
  8
0
  6
Continuous
 62
     7
370
    15
100
AcDbLine
 10
551.6115764706
 20
45.9263058824
 30
0.0
 11
551.6115764706
 21
49.0463058824
 31
0.0
  0
LINE
  5
250
330
1F
100
AcDbEntity
  8
0
  6
Continuous
 62
     7
370
    15
100
AcDbLine
 10
551.6115764706
 20
49.0463058824
 30
0.0
 11
541.6115764706
 21
49.0463058824
 31
0.0
  0
LINE
  5
251
330
1F
100
AcDbEntity
  8
0
  6
Continuous
 62
     7
370
    15
100
AcDbLine
 10
541.6115764706
 20
49.0463058824
 30
0.0
 11
541.6115764706
 21
45.9263058824
 31
0.0
  0
LINE
  5
252
330
1F
100
AcDbEntity
  8
0
  6
Continuous
 62
     7
370
    15
100
AcDbLine
 10
531.6115764706
 20
45.9263058824
 30
0.0
 11
541.6115764706
 21
45.9263058824
 31
0.0
  0
LINE
  5
253
330
1F
100
AcDbEntity
  8
0
  6
Continuous
 62
     7
370
    15
100
AcDbLine
 10
531.6115764706
 20
45.9263058824
 30
0.0
 11
531.6115764706
 21
49.0463058824
 31
0.0
  0
LINE
  5
254
330
1F
100
AcDbEntity
  8
0
  6
Continuous
 62
     7
370
    15
100
AcDbLine
 10
531.6115764706
 20
49.0463058824
 30
0.0
 11
521.6115764706
 21
49.0463058824
 31
0.0
  0
LINE
  5
255
330
1F
100
AcDbEntity
  8
0
  6
Continuous
 62
     7
370
    15
100
AcDbLine
 10
521.6115764706
 20
49.0463058824
 30
0.0
 11
521.6115764706
 21
45.9263058824
 31
0.0
  0
LINE
  5
256
330
1F
100
AcDbEntity
  8
0
  6
Continuous
 62
     7
370
    15
100
AcDbLine
 10
511.6115764706
 20
45.9263058824
 30
0.0
 11
521.6115764706
 21
45.9263058824
 31
0.0
  0
LINE
  5
257
330
1F
100
AcDbEntity
  8
0
  6
Continuous
 62
     7
370
    15
100
AcDbLine
 10
511.6115764706
 20
45.9263058824
 30
0.0
 11
511.6115764706
 21
49.0463058824
 31
0.0
  0
LINE
  5
258
330
1F
100
AcDbEntity
  8
0
  6
Continuous
 62
     7
370
    15
100
AcDbLine
 10
511.6115764706
 20
49.0463058824
 30
0.0
 11
501.6115764706
 21
49.0463058824
 31
0.0
  0
LINE
  5
259
330
1F
100
AcDbEntity
  8
0
  6
Continuous
 62
     7
370
    15
100
AcDbLine
 10
501.6115764706
 20
49.0463058824
 30
0.0
 11
501.6115764706
 21
45.9263058824
 31
0.0
  0
LINE
  5
25A
330
1F
100
AcDbEntity
  8
0
  6
Continuous
 62
     7
370
    15
100
AcDbLine
 10
491.6115764706
 20
45.9263058824
 30
0.0
 11
501.6115764706
 21
45.9263058824
 31
0.0
  0
LINE
  5
25B
330
1F
100
AcDbEntity
  8
0
  6
Continuous
 62
     7
370
    15
100
AcDbLine
 10
491.6115764706
 20
45.9263058824
 30
0.0
 11
491.6115764706
 21
49.0463058824
 31
0.0
  0
LINE
  5
25C
330
1F
100
AcDbEntity
  8
0
  6
Continuous
 62
     7
370
    15
100
AcDbLine
 10
491.6115764706
 20
49.0463058824
 30
0.0
 11
481.6115764706
 21
49.0463058824
 31
0.0
  0
LINE
  5
25D
330
1F
100
AcDbEntity
  8
0
  6
Continuous
 62
     7
370
    15
100
AcDbLine
 10
481.6115764706
 20
49.0463058824
 30
0.0
 11
481.6115764706
 21
45.9263058824
 31
0.0
  0
LINE
  5
25E
330
1F
100
AcDbEntity
  8
0
  6
Continuous
 62
     7
370
    15
100
AcDbLine
 10
471.6115764706
 20
45.9263058824
 30
0.0
 11
481.6115764706
 21
45.9263058824
 31
0.0
  0
LINE
  5
25F
330
1F
100
AcDbEntity
  8
0
  6
Continuous
 62
     7
370
    15
100
AcDbLine
 10
471.6115764706
 20
45.9263058824
 30
0.0
 11
471.6115764706
 21
49.0463058824
 31
0.0
  0
LINE
  5
260
330
1F
100
AcDbEntity
  8
0
  6
Continuous
 62
     7
370
    15
100
AcDbLine
 10
471.6115764706
 20
49.0463058824
 30
0.0
 11
461.6115764706
 21
49.0463058824
 31
0.0
  0
LINE
  5
261
330
1F
100
AcDbEntity
  8
0
  6
Continuous
 62
     7
370
    15
100
AcDbLine
 10
461.6115764706
 20
49.0463058824
 30
0.0
 11
461.6115764706
 21
45.9263058824
 31
0.0
  0
LINE
  5
262
330
1F
100
AcDbEntity
  8
0
  6
Continuous
 62
     7
370
    15
100
AcDbLine
 10
451.6115764706
 20
45.9263058824
 30
0.0
 11
461.6115764706
 21
45.9263058824
 31
0.0
  0
LINE
  5
263
330
1F
100
AcDbEntity
  8
0
  6
Continuous
 62
     7
370
    15
100
AcDbLine
 10
451.6115764706
 20
45.9263058824
 30
0.0
 11
451.6115764706
 21
49.0463058824
 31
0.0
  0
LINE
  5
264
330
1F
100
AcDbEntity
  8
0
  6
Continuous
 62
     7
370
    15
100
AcDbLine
 10
451.6115764706
 20
49.0463058824
 30
0.0
 11
441.6115764706
 21
49.0463058824
 31
0.0
  0
LINE
  5
265
330
1F
100
AcDbEntity
  8
0
  6
Continuous
 62
     7
370
    15
100
AcDbLine
 10
441.6115764706
 20
49.0463058824
 30
0.0
 11
441.6115764706
 21
45.9263058824
 31
0.0
  0
LINE
  5
266
330
1F
100
AcDbEntity
  8
0
  6
Continuous
 62
     7
370
    15
100
AcDbLine
 10
431.6115764706
 20
45.9263058824
 30
0.0
 11
441.6115764706
 21
45.9263058824
 31
0.0
  0
LINE
  5
267
330
1F
100
AcDbEntity
  8
0
  6
Continuous
 62
     7
370
    15
100
AcDbLine
 10
431.6115764706
 20
45.9263058824
 30
0.0
 11
431.6115764706
 21
49.0463058824
 31
0.0
  0
LINE
  5
268
330
1F
100
AcDbEntity
  8
0
  6
Continuous
 62
     7
370
    15
100
AcDbLine
 10
431.6115764706
 20
49.0463058824
 30
0.0
 11
421.6115764706
 21
49.0463058824
 31
0.0
  0
LINE
  5
269
330
1F
100
AcDbEntity
  8
0
  6
Continuous
 62
     7
370
    15
100
AcDbLine
 10
421.6115764706
 20
49.0463058824
 30
0.0
 11
421.6115764706
 21
45.9263058824
 31
0.0
  0
LINE
  5
26A
330
1F
100
AcDbEntity
  8
0
  6
Continuous
 62
     7
370
    15
100
AcDbLine
 10
411.6115764706
 20
45.9263058824
 30
0.0
 11
421.6115764706
 21
45.9263058824
 31
0.0
  0
LINE
  5
26B
330
1F
100
AcDbEntity
  8
0
  6
Continuous
 62
     7
370
    15
100
AcDbLine
 10
411.6115764706
 20
45.9263058824
 30
0.0
 11
411.6115764706
 21
49.0463058824
 31
0.0
  0
LINE
  5
26C
330
1F
100
AcDbEntity
  8
0
  6
Continuous
 62
     7
370
    15
100
AcDbLine
 10
411.6115764706
 20
49.0463058824
 30
0.0
 11
401.6115764706
 21
49.0463058824
 31
0.0
  0
LINE
  5
26D
330
1F
100
AcDbEntity
  8
0
  6
Continuous
 62
     7
370
    15
100
AcDbLine
 10
401.6115764706
 20
49.0463058824
 30
0.0
 11
401.6115764706
 21
45.9263058824
 31
0.0
  0
LINE
  5
26E
330
1F
100
AcDbEntity
  8
0
  6
Continuous
 62
     7
370
    15
100
AcDbLine
 10
391.6115764706
 20
45.9263058824
 30
0.0
 11
401.6115764706
 21
45.9263058824
 31
0.0
  0
LINE
  5
26F
330
1F
100
AcDbEntity
  8
0
  6
Continuous
 62
     7
370
    15
100
AcDbLine
 10
391.6115764706
 20
45.9263058824
 30
0.0
 11
391.6115764706
 21
49.0463058824
 31
0.0
  0
LINE
  5
270
330
1F
100
AcDbEntity
  8
0
  6
Continuous
 62
     7
370
    15
100
AcDbLine
 10
391.6115764706
 20
49.0463058824
 30
0.0
 11
381.6115764706
 21
49.0463058824
 31
0.0
  0
LINE
  5
271
330
1F
100
AcDbEntity
  8
0
  6
Continuous
 62
     7
370
    15
100
AcDbLine
 10
381.6115764706
 20
49.0463058824
 30
0.0
 11
381.6115764706
 21
45.9263058824
 31
0.0
  0
LINE
  5
272
330
1F
100
AcDbEntity
  8
0
  6
Continuous
 62
     7
370
    15
100
AcDbLine
 10
371.6115764706
 20
45.9263058824
 30
0.0
 11
381.6115764706
 21
45.9263058824
 31
0.0
  0
LINE
  5
273
330
1F
100
AcDbEntity
  8
0
  6
Continuous
 62
     7
370
    15
100
AcDbLine
 10
371.6115764706
 20
45.9263058824
 30
0.0
 11
371.6115764706
 21
49.0463058824
 31
0.0
  0
LINE
  5
274
330
1F
100
AcDbEntity
  8
0
  6
Continuous
 62
     7
370
    15
100
AcDbLine
 10
371.6115764706
 20
49.0463058824
 30
0.0
 11
361.6115764706
 21
49.0463058824
 31
0.0
  0
LINE
  5
275
330
1F
100
AcDbEntity
  8
0
  6
Continuous
 62
     7
370
    15
100
AcDbLine
 10
361.6115764706
 20
49.0463058824
 30
0.0
 11
361.6115764706
 21
45.9263058824
 31
0.0
  0
LINE
  5
276
330
1F
100
AcDbEntity
  8
0
  6
Continuous
 62
     7
370
    15
100
AcDbLine
 10
351.6115764706
 20
45.9263058824
 30
0.0
 11
361.6115764706
 21
45.9263058824
 31
0.0
  0
LINE
  5
277
330
1F
100
AcDbEntity
  8
0
  6
Continuous
 62
     7
370
    15
100
AcDbLine
 10
351.6115764706
 20
45.9263058824
 30
0.0
 11
351.6115764706
 21
49.0463058824
 31
0.0
  0
LINE
  5
278
330
1F
100
AcDbEntity
  8
0
  6
Continuous
 62
     7
370
    15
100
AcDbLine
 10
351.6115764706
 20
49.0463058824
 30
0.0
 11
341.6115764706
 21
49.0463058824
 31
0.0
  0
LINE
  5
279
330
1F
100
AcDbEntity
  8
0
  6
Continuous
 62
     7
370
    15
100
AcDbLine
 10
341.6115764706
 20
49.0463058824
 30
0.0
 11
341.6115764706
 21
45.9263058824
 31
0.0
  0
LINE
  5
27A
330
1F
100
AcDbEntity
  8
0
  6
Continuous
 62
     7
370
    15
100
AcDbLine
 10
331.6115764706
 20
45.9263058824
 30
0.0
 11
341.6115764706
 21
45.9263058824
 31
0.0
  0
LINE
  5
27B
330
1F
100
AcDbEntity
  8
0
  6
Continuous
 62
     7
370
    15
100
AcDbLine
 10
331.6115764706
 20
45.9263058824
 30
0.0
 11
331.6115764706
 21
49.0463058824
 31
0.0
  0
LINE
  5
27C
330
1F
100
AcDbEntity
  8
0
  6
Continuous
 62
     7
370
    15
100
AcDbLine
 10
331.6115764706
 20
49.0463058824
 30
0.0
 11
321.6115764706
 21
49.0463058824
 31
0.0
  0
LINE
  5
27D
330
1F
100
AcDbEntity
  8
0
  6
Continuous
 62
     7
370
    15
100
AcDbLine
 10
321.6115764706
 20
49.0463058824
 30
0.0
 11
321.6115764706
 21
45.9263058824
 31
0.0
  0
LINE
  5
27E
330
1F
100
AcDbEntity
  8
0
  6
Continuous
 62
     7
370
    15
100
AcDbLine
 10
311.6115764706
 20
45.9263058824
 30
0.0
 11
321.6115764706
 21
45.9263058824
 31
0.0
  0
LINE
  5
27F
330
1F
100
AcDbEntity
  8
0
  6
Continuous
 62
     7
370
    15
100
AcDbLine
 10
311.6115764706
 20
45.9263058824
 30
0.0
 11
311.6115764706
 21
49.0463058824
 31
0.0
  0
LINE
  5
280
330
1F
100
AcDbEntity
  8
0
  6
Continuous
 62
     7
370
    15
100
AcDbLine
 10
311.6115764706
 20
49.0463058824
 30
0.0
 11
301.6115764706
 21
49.0463058824
 31
0.0
  0
LINE
  5
281
330
1F
100
AcDbEntity
  8
0
  6
Continuous
 62
     7
370
    15
100
AcDbLine
 10
301.6115764706
 20
49.0463058824
 30
0.0
 11
301.6115764706
 21
45.9263058824
 31
0.0
  0
LINE
  5
282
330
1F
100
AcDbEntity
  8
0
  6
Continuous
 62
     7
370
    15
100
AcDbLine
 10
291.6115764706
 20
45.9263058824
 30
0.0
 11
301.6115764706
 21
45.9263058824
 31
0.0
  0
LINE
  5
283
330
1F
100
AcDbEntity
  8
0
  6
Continuous
 62
     7
370
    15
100
AcDbLine
 10
291.6115764706
 20
55.9263058824
 30
0.0
 11
291.6115764706
 21
45.9263058824
 31
0.0
  0
LINE
  5
284
330
1F
100
AcDbEntity
  8
0
  6
Continuous
 62
     7
370
    15
100
AcDbLine
 10
291.6115764706
 20
55.9263058824
 30
0.0
 11
294.7315764706
 21
55.9263058824
 31
0.0
  0
LINE
  5
285
330
1F
100
AcDbEntity
  8
0
  6
Continuous
 62
     7
370
    15
100
AcDbLine
 10
294.7315764706
 20
55.9263058824
 30
0.0
 11
294.7315764706
 21
65.9263058824
 31
0.0
  0
LINE
  5
286
330
1F
100
AcDbEntity
  8
0
  6
Continuous
 62
     7
370
    15
100
AcDbLine
 10
294.7315764706
 20
65.9263058824
 30
0.0
 11
291.6115764706
 21
65.9263058824
 31
0.0
  0
LINE
  5
287
330
1F
100
AcDbEntity
  8
0
  6
Continuous
 62
     7
370
    15
100
AcDbLine
 10
291.6115764706
 20
75.9263058824
 30
0.0
 11
291.6115764706
 21
65.9263058824
 31
0.0
  0
LINE
  5
288
330
1F
100
AcDbEntity
  8
0
  6
Continuous
 62
     7
370
    15
100
AcDbLine
 10
291.6115764706
 20
75.9263058824
 30
0.0
 11
294.7315764706
 21
75.9263058824
 31
0.0
  0
LINE
  5
289
330
1F
100
AcDbEntity
  8
0
  6
Continuous
 62
     7
370
    15
100
AcDbLine
 10
294.7315764706
 20
75.9263058824
 30
0.0
 11
294.7315764706
 21
85.9263058824
 31
0.0
  0
LINE
  5
28A
330
1F
100
AcDbEntity
  8
0
  6
Continuous
 62
     7
370
    15
100
AcDbLine
 10
294.7315764706
 20
85.9263058824
 30
0.0
 11
291.6115764706
 21
85.9263058824
 31
0.0
  0
LINE
  5
28B
330
1F
100
AcDbEntity
  8
0
  6
Continuous
 62
     7
370
    15
100
AcDbLine
 10
291.6115764706
 20
145.9263058824
 30
0.0
 11
291.6115764706
 21
85.9263058824
 31
0.0
  0
LINE
  5
28C
330
1F
100
AcDbEntity
  8
0
  6
Continuous
 62
     7
370
    15
100
AcDbLine
 10
591.6115764706
 20
145.9263058824
 30
0.0
 11
291.6115764706
 21
145.9263058824
 31
0.0
  0
LINE
  5
28D
330
1F
100
AcDbEntity
  8
0
  6
Continuous
 62
     7
370
    15
100
AcDbLine
 10
591.6115764706
 20
85.9263058824
 30
0.0
 11
591.6115764706
 21
145.9263058824
 31
0.0
  0
LINE
  5
28E
330
1F
100
AcDbEntity
  8
0
  6
Continuous
 62
     7
370
    15
100
AcDbLine
 10
588.4915764706
 20
85.9263058824
 30
0.0
 11
591.6115764706
 21
85.9263058824
 31
0.0
  0
LINE
  5
28F
330
1F
100
AcDbEntity
  8
0
  6
Continuous
 62
     7
370
    15
100
AcDbLine
 10
588.4915764706
 20
75.9263058824
 30
0.0
 11
588.4915764706
 21
85.9263058824
 31
0.0
  0
LINE
  5
290
330
1F
100
AcDbEntity
  8
0
  6
Continuous
 62
     7
370
    15
100
AcDbLine
 10
591.6115764706
 20
75.9263058824
 30
0.0
 11
588.4915764706
 21
75.9263058824
 31
0.0
  0
CIRCLE
  5
291
330
1F
100
AcDbEntity
  8
0
  6
Continuous
 62
     1
370
    15
100
AcDbCircle
 10
301.6115764706
 20
65.9263058824
 30
0.0
 40
1.599999999999966
  0
CIRCLE
  5
292
330
1F
100
AcDbEntity
  8
0
  6
Continuous
 62
     1
370
    15
100
AcDbCircle
 10
301.6115764706
 20
55.9263058824
 30
0.0
 40
1.599999999999966
  0
CIRCLE
  5
293
330
1F
100
AcDbEntity
  8
0
  6
Continuous
 62
     1
370
    15
100
AcDbCircle
 10
581.6115764706
 20
65.9263058824
 30
0.0
 40
1.599999999999909
  0
MTEXT
  5
295
330
1F
100
AcDbEntity
  8
0
  6
Continuous
 62
     7
100
AcDbMText
 10
0.0
 20
14.4752615694
 30
0.0
 40
5.19
 41
0.0
 71
     1
 72
     1
  1
SolidWorks Educational Edition.
  7
SLDTEXTSTYLE0
 73
     1
 44
1.0
  0
MTEXT
  5
296
330
1F
100
AcDbEntity
  8
0
  6
Continuous
 62
     7
100
AcDbMText
 10
0.0
 20
6.6902615694
 30
0.0
 40
5.19
 41
0.0
 71
     1
 72
     1
  1
For Instructional Use Only.
  7
SLDTEXTSTYLE0
 73
     1
 44
1.0
  0
ENDSEC
  0
SECTION
  2
OBJECTS
  0
DICTIONARY
  5
C
330
0
100
AcDbDictionary
281
     1
  3
ACAD_GROUP
350
D
  3
ACAD_LAYOUT
350
1A
  3
ACAD_MLINESTYLE
350
17
  3
ACAD_PLOTSETTINGS
350
19
  3
ACAD_PLOTSTYLENAME
350
E
  0
DICTIONARY
  5
D
102
{ACAD_REACTORS
330
C
102
}
330
C
100
AcDbDictionary
281
     1
  0
DICTIONARY
  5
1A
102
{ACAD_REACTORS
330
C
102
}
330
C
100
AcDbDictionary
281
     1
  3
Layout1
350
1E
  3
Layout2
350
26
  3
Model
350
22
  0
DICTIONARY
  5
17
102
{ACAD_REACTORS
330
C
102
}
330
C
100
AcDbDictionary
281
     1
  3
Standard
350
18
  0
DICTIONARY
  5
19
102
{ACAD_REACTORS
330
C
102
}
330
C
100
AcDbDictionary
281
     1
  0
ACDBDICTIONARYWDFLT
  5
E
102
{ACAD_REACTORS
330
C
102
}
330
C
100
AcDbDictionary
281
     1
  3
Normal
350
F
100
AcDbDictionaryWithDefault
340
F
  0
LAYOUT
  5
1E
102
{ACAD_REACTORS
330
1A
102
}
330
1A
100
AcDbPlotSettings
  1

  2
none_device
  4

  6

 40
0.0
 41
0.0
 42
0.0
 43
0.0
 44
0.0
 45
0.0
 46
0.0
 47
0.0
 48
0.0
 49
0.0
140
0.0
141
0.0
142
1.0
143
1.0
 70
   688
 72
     0
 73
     0
 74
     5
  7

 75
    16
147
1.0
148
0.0
149
0.0
100
AcDbLayout
  1
Layout1
 70
     1
 71
     1
 10
0.0
 20
0.0
 11
420.0
 21
297.0
 12
0.0
 22
0.0
 32
0.0
 14
1.0000000000E+20
 24
1.0000000000E+20
 34
1.0000000000E+20
 15
-1.0000000000E+20
 25
-1.0000000000E+20
 35
-1.0000000000E+20
146
0.0
 13
0.0
 23
0.0
 33
0.0
 16
1.0
 26
0.0
 36
0.0
 17
0.0
 27
1.0
 37
0.0
 76
     0
330
1B
  0
LAYOUT
  5
26
102
{ACAD_REACTORS
330
1A
102
}
330
1A
100
AcDbPlotSettings
  1

  2
none_device
  4

  6

 40
0.0
 41
0.0
 42
0.0
 43
0.0
 44
0.0
 45
0.0
 46
0.0
 47
0.0
 48
0.0
 49
0.0
140
0.0
141
0.0
142
1.0
143
1.0
 70
   688
 72
     0
 73
     0
 74
     5
  7

 75
    16
147
1.0
148
0.0
149
0.0
100
AcDbLayout
  1
Layout2
 70
     1
 71
     2
 10
0.0
 20
0.0
 11
0.0
 21
0.0
 12
0.0
 22
0.0
 32
0.0
 14
0.0
 24
0.0
 34
0.0
 15
0.0
 25
0.0
 35
0.0
146
0.0
 13
0.0
 23
0.0
 33
0.0
 16
1.0
 26
0.0
 36
0.0
 17
0.0
 27
1.0
 37
0.0
 76
     0
330
23
  0
LAYOUT
  5
22
102
{ACAD_REACTORS
330
1A
102
}
330
1A
100
AcDbPlotSettings
  1

  2
none_device
  4

  6

 40
0.0
 41
0.0
 42
0.0
 43
0.0
 44
0.0
 45
0.0
 46
0.0
 47
0.0
 48
0.0
 49
0.0
140
0.0
141
0.0
142
1.0
143
1.0
 70
  1712
 72
     0
 73
     0
 74
     0
  7

 75
     0
147
1.0
148
0.0
149
0.0
100
AcDbLayout
  1
Model
 70
     1
 71
     0
 10
0.0
 20
0.0
 11
600.0
 21
300.0
 12
0.0
 22
0.0
 32
0.0
 14
0.0
 24
0.0
 34
0.0
 15
600.0
 25
300.0
 35
0.0
146
0.0
 13
0.0
 23
0.0
 33
0.0
 16
1.0
 26
0.0
 36
0.0
 17
0.0
 27
1.0
 37
0.0
 76
     0
330
1F
331
29
  0
MLINESTYLE
  5
18
102
{ACAD_REACTORS
330
17
102
}
330
17
100
AcDbMlineStyle
  2
Standard
 70
     0
  3

 62
   256
 51
90.0
 52
90.0
 71
     2
 49
0.5
 62
   256
  6
BYLAYER
 49
-0.5
 62
   256
  6
BYLAYER
  0
ACDBPLACEHOLDER
  5
F
102
{ACAD_REACTORS
330
E
102
}
330
E
  0
ENDSEC
  0
EOF
