  0
SECTION
  2
HEADER
  9
$ACADVER
  1
AC1015
  9
$ACADMAINTVER
 70
     6
  9
$DWGCODEPAGE
  3
ANSI_1252
  9
$INSBASE
 10
0.0
 20
0.0
 30
0.0
  9
$EXTMIN
 10
0.0
 20
0.0
 30
0.0
  9
$EXTMAX
 10
600.0
 20
450.0
 30
0.0
  9
$LIMMIN
 10
0.0
 20
0.0
  9
$LIMMAX
 10
600.0
 20
450.0
  9
$ORTHOMODE
 70
     0
  9
$REGENMODE
 70
     1
  9
$FILLMODE
 70
     1
  9
$QTEXTMODE
 70
     0
  9
$MIRRTEXT
 70
     1
  9
$LTSCALE
 40
1.0
  9
$ATTMODE
 70
     1
  9
$TEXTSIZE
 40
3.5
  9
$TRACEWID
 40
1.0
  9
$TEXTSTYLE
  7
Standard
  9
$CLAYER
  8
0
  9
$CELTYPE
  6
ByLayer
  9
$CECOLOR
 62
   256
  9
$CELTSCALE
 40
1.0
  9
$DISPSILH
 70
     0
  9
$DIMSCALE
 40
1.0
  9
$DIMASZ
 40
3.302
  9
$DIMEXO
 40
1.0
  9
$DIMDLI
 40
3.75
  9
$DIMRND
 40
0.0
  9
$DIMDLE
 40
0.0
  9
$DIMEXE
 40
1.0
  9
$DIMTP
 40
0.0
  9
$DIMTM
 40
0.0
  9
$DIMTXT
 40
3.5
  9
$DIMCEN
 40
2.5
  9
$DIMTSZ
 40
0.0
  9
$DIMTOL
 70
     0
  9
$DIMLIM
 70
     0
  9
$DIMTIH
 70
     1
  9
$DIMTOH
 70
     1
  9
$DIMSE1
 70
     0
  9
$DIMSE2
 70
     0
  9
$DIMTAD
 70
     1
  9
$DIMZIN
 70
     0
  9
$DIMBLK
  1

  9
$DIMASO
 70
     1
  9
$DIMSHO
 70
     1
  9
$DIMPOST
  1

  9
$DIMAPOST
  1

  9
$DIMALT
 70
     0
  9
$DIMALTD
 70
     3
  9
$DIMALTF
 40
0.0393700787
  9
$DIMLFAC
 40
1.0
  9
$DIMTOFL
 70
     1
  9
$DIMTVP
 40
0.0
  9
$DIMTIX
 70
     0
  9
$DIMSOXD
 70
     0
  9
$DIMSAH
 70
     0
  9
$DIMBLK1
  1

  9
$DIMBLK2
  1

  9
$DIMSTYLE
  2
ISO-25
  9
$DIMCLRD
 70
     0
  9
$DIMCLRE
 70
     0
  9
$DIMCLRT
 70
     0
  9
$DIMTFAC
 40
1.0
  9
$DIMGAP
 40
1.524
  9
$DIMJUST
 70
     0
  9
$DIMSD1
 70
     0
  9
$DIMSD2
 70
     0
  9
$DIMTOLJ
 70
     0
  9
$DIMTZIN
 70
     0
  9
$DIMALTZ
 70
     0
  9
$DIMALTTZ
 70
     0
  9
$DIMUPT
 70
     0
  9
$DIMDEC
 70
     2
  9
$DIMTDEC
 70
     2
  9
$DIMALTU
 70
     2
  9
$DIMALTTD
 70
     3
  9
$DIMTXSTY
  7
Standard
  9
$DIMAUNIT
 70
     0
  9
$DIMADEC
 70
     2
  9
$DIMALTRND
 40
0.0
  9
$DIMAZIN
 70
     0
  9
$DIMDSEP
 70
    44
  9
$DIMATFIT
 70
     3
  9
$DIMFRAC
 70
     0
  9
$DIMLDRBLK
  1

  9
$DIMLUNIT
 70
     2
  9
$DIMLWD
 70
    -2
  9
$DIMLWE
 70
    -2
  9
$DIMTMOVE
 70
     0
  9
$LUNITS
 70
     2
  9
$LUPREC
 70
     2
  9
$SKETCHINC
 40
1.0
  9
$FILLETRAD
 40
10.0
  9
$AUNITS
 70
     0
  9
$AUPREC
 70
     2
  9
$MENU
  1
.
  9
$ELEVATION
 40
0.0
  9
$PELEVATION
 40
0.0
  9
$THICKNESS
 40
0.0
  9
$LIMCHECK
 70
     0
  9
$CHAMFERA
 40
10.0
  9
$CHAMFERB
 40
10.0
  9
$CHAMFERC
 40
20.0
  9
$CHAMFERD
 40
0.0
  9
$SKPOLY
 70
     0
  9
$TDCREATE
 40
2456561.833031447
  9
$TDUCREATE
 40
2456562.04136478
  9
$TDUPDATE
 40
2456561.833033739
  9
$TDUUPDATE
 40
2456562.041367072
  9
$TDINDWG
 40
0.0000000116
  9
$TDUSRTIMER
 40
0.0000000116
  9
$USRTIMER
 70
     1
  9
$ANGBASE
 50
0.0
  9
$ANGDIR
 70
     0
  9
$PDMODE
 70
     0
  9
$PDSIZE
 40
-1.0
  9
$PLINEWID
 40
0.0
  9
$SPLFRAME
 70
     0
  9
$SPLINETYPE
 70
     6
  9
$SPLINESEGS
 70
     8
  9
$HANDSEED
  5
1CB
  9
$SURFTAB1
 70
     6
  9
$SURFTAB2
 70
     6
  9
$SURFTYPE
 70
     6
  9
$SURFU
 70
     6
  9
$SURFV
 70
     6
  9
$UCSBASE
  2

  9
$UCSNAME
  2

  9
$UCSORG
 10
0.0
 20
0.0
 30
0.0
  9
$UCSXDIR
 10
1.0
 20
0.0
 30
0.0
  9
$UCSYDIR
 10
0.0
 20
1.0
 30
0.0
  9
$UCSORTHOREF
  2

  9
$UCSORTHOVIEW
 70
     0
  9
$UCSORGTOP
 10
0.0
 20
0.0
 30
0.0
  9
$UCSORGBOTTOM
 10
0.0
 20
0.0
 30
0.0
  9
$UCSORGLEFT
 10
0.0
 20
0.0
 30
0.0
  9
$UCSORGRIGHT
 10
0.0
 20
0.0
 30
0.0
  9
$UCSORGFRONT
 10
0.0
 20
0.0
 30
0.0
  9
$UCSORGBACK
 10
0.0
 20
0.0
 30
0.0
  9
$PUCSBASE
  2

  9
$PUCSNAME
  2

  9
$PUCSORG
 10
0.0
 20
0.0
 30
0.0
  9
$PUCSXDIR
 10
1.0
 20
0.0
 30
0.0
  9
$PUCSYDIR
 10
0.0
 20
1.0
 30
0.0
  9
$PUCSORTHOREF
  2

  9
$PUCSORTHOVIEW
 70
     0
  9
$PUCSORGTOP
 10
0.0
 20
0.0
 30
0.0
  9
$PUCSORGBOTTOM
 10
0.0
 20
0.0
 30
0.0
  9
$PUCSORGLEFT
 10
0.0
 20
0.0
 30
0.0
  9
$PUCSORGRIGHT
 10
0.0
 20
0.0
 30
0.0
  9
$PUCSORGFRONT
 10
0.0
 20
0.0
 30
0.0
  9
$PUCSORGBACK
 10
0.0
 20
0.0
 30
0.0
  9
$USERI1
 70
     0
  9
$USERI2
 70
     0
  9
$USERI3
 70
     0
  9
$USERI4
 70
     0
  9
$USERI5
 70
     0
  9
$USERR1
 40
0.0
  9
$USERR2
 40
0.0
  9
$USERR3
 40
0.0
  9
$USERR4
 40
0.0
  9
$USERR5
 40
0.0
  9
$WORLDVIEW
 70
     1
  9
$SHADEDGE
 70
     3
  9
$SHADEDIF
 70
    70
  9
$TILEMODE
 70
     1
  9
$MAXACTVP
 70
    64
  9
$PINSBASE
 10
0.0
 20
0.0
 30
0.0
  9
$PLIMCHECK
 70
     0
  9
$PEXTMIN
 10
1.0000000000E+20
 20
1.0000000000E+20
 30
1.0000000000E+20
  9
$PEXTMAX
 10
-1.0000000000E+20
 20
-1.0000000000E+20
 30
-1.0000000000E+20
  9
$PLIMMIN
 10
0.0
 20
0.0
  9
$PLIMMAX
 10
420.0
 20
297.0
  9
$UNITMODE
 70
     0
  9
$VISRETAIN
 70
     1
  9
$PLINEGEN
 70
     0
  9
$PSLTSCALE
 70
     1
  9
$TREEDEPTH
 70
  3020
  9
$CMLSTYLE
  2
Standard
  9
$CMLJUST
 70
     0
  9
$CMLSCALE
 40
20.0
  9
$PROXYGRAPHICS
 70
     1
  9
$MEASUREMENT
 70
     1
  9
$CELWEIGHT
370
    -1
  9
$ENDCAPS
280
     0
  9
$JOINSTYLE
280
     0
  9
$LWDISPLAY
290
     1
  9
$INSUNITS
 70
     4
  9
$HYPERLINKBASE
  1

  9
$STYLESHEET
  1

  9
$XEDIT
290
     1
  9
$CEPSNTYPE
380
     0
  9
$PSTYLEMODE
290
     1
  9
$FINGERPRINTGUID
  2
{CA5887AF-BA6E-4494-91AC-DF6FBA448A21}
  9
$VERSIONGUID
  2
{FAEB1C32-E019-11D5-929B-00C0DF256EC4}
  9
$EXTNAMES
290
     1
  9
$PSVPSCALE
 40
0.0
  9
$OLESTARTUP
290
     0
  0
ENDSEC
  0
SECTION
  2
CLASSES
  0
CLASS
  1
ACDBDICTIONARYWDFLT
  2
AcDbDictionaryWithDefault
  3
ObjectDBX Classes
 90
        0
280
     0
281
     0
  0
CLASS
  1
VISUALSTYLE
  2
AcDbVisualStyle
  3
ObjectDBX Classes
 90
     4095
280
     0
281
     0
  0
CLASS
  1
MATERIAL
  2
AcDbMaterial
  3
ObjectDBX Classes
 90
     1153
280
     0
281
     0
  0
CLASS
  1
ACDBPLACEHOLDER
  2
AcDbPlaceHolder
  3
ObjectDBX Classes
 90
        0
280
     0
281
     0
  0
CLASS
  1
LAYOUT
  2
AcDbLayout
  3
ObjectDBX Classes
 90
        0
280
     0
281
     0
  0
ENDSEC
  0
SECTION
  2
TABLES
  0
TABLE
  2
VPORT
  5
8
330
0
100
AcDbSymbolTable
 70
     1
  0
VPORT
  5
29
330
8
100
AcDbSymbolTableRecord
100
AcDbViewportTableRecord
  2
*Active
 70
     0
 10
0.0
 20
0.0
 11
1.0
 21
1.0
 12
300.0
 22
225.0
 13
0.0
 23
0.0
 14
10.0
 24
10.0
 15
10.0
 25
10.0
 16
0.0
 26
0.0
 36
1.0
 17
0.0
 27
0.0
 37
0.0
 40
450.0
 41
1.3333333333
 42
50.0
 43
0.0
 44
0.0
 50
0.0
 51
0.0
 71
     0
 72
  2000
 73
     1
 74
     3
 75
     0
 76
     0
 77
     0
 78
     0
281
     0
 65
     1
110
0.0
120
0.0
130
0.0
111
1.0
121
0.0
131
0.0
112
0.0
122
1.0
132
0.0
 79
     0
146
0.0
  0
ENDTAB
  0
TABLE
  2
LTYPE
  5
5
330
0
100
AcDbSymbolTable
 70
     6
  0
LTYPE
  5
14
330
5
100
AcDbSymbolTableRecord
100
AcDbLinetypeTableRecord
  2
ByBlock
 70
     0
  3

 72
    65
 73
     0
 40
0.0
  0
LTYPE
  5
15
330
5
100
AcDbSymbolTableRecord
100
AcDbLinetypeTableRecord
  2
ByLayer
 70
     0
  3

 72
    65
 73
     0
 40
0.0
  0
LTYPE
  5
16
330
5
100
AcDbSymbolTableRecord
100
AcDbLinetypeTableRecord
  2
Continuous
 70
     0
  3
Solid line
 72
    65
 73
     0
 40
0.0
  0
LTYPE
  5
3F
330
5
100
AcDbSymbolTableRecord
100
AcDbLinetypeTableRecord
  2
HIDDEN
 70
     0
  3
Hidden __ __ __ __ __ __ __ __ __ __ __ __ __ __
 72
    65
 73
     2
 40
1.905
 49
1.27
 74
     0
 49
-0.635
 74
     0
  0
LTYPE
  5
40
330
5
100
AcDbSymbolTableRecord
100
AcDbLinetypeTableRecord
  2
PHANTOM
 70
     0
  3
Phantom ______  __  __  ______  __  __  ______
 72
    65
 73
     6
 40
12.7
 49
6.35
 74
     0
 49
-1.27
 74
     0
 49
1.27
 74
     0
 49
-1.27
 74
     0
 49
1.27
 74
     0
 49
-1.27
 74
     0
  0
LTYPE
  5
41
330
5
100
AcDbSymbolTableRecord
100
AcDbLinetypeTableRecord
  2
CENTER
 70
     0
  3
Center ____ _ ____ _ ____ _ ____ _ ____ _ ____
 72
    65
 73
     4
 40
10.16
 49
6.35
 74
     0
 49
-1.27
 74
     0
 49
1.27
 74
     0
 49
-1.27
 74
     0
  0
LTYPE
  5
42
330
5
100
AcDbSymbolTableRecord
100
AcDbLinetypeTableRecord
  2
CENTERX2
 70
     0
  3
Center (2x) ________  __  ________  __  _____
 72
    65
 73
     4
 40
20.32
 49
12.7
 74
     0
 49
-2.54
 74
     0
 49
2.54
 74
     0
 49
-2.54
 74
     0
  0
LTYPE
  5
43
330
5
100
AcDbSymbolTableRecord
100
AcDbLinetypeTableRecord
  2
DOT2
 70
     0
  3
Dot (.5x) ........................................
 72
    65
 73
     2
 40
0.635
 49
0.0
 74
     0
 49
-0.635
 74
     0
  0
ENDTAB
  0
TABLE
  2
LAYER
  5
2
330
0
100
AcDbSymbolTable
 70
     1
  0
LAYER
  5
10
330
2
100
AcDbSymbolTableRecord
100
AcDbLayerTableRecord
  2
0
 70
     0
 62
     7
  6
Continuous
370
    -3
390
F
  0
ENDTAB
  0
TABLE
  2
STYLE
  5
3
330
0
100
AcDbSymbolTable
 70
     2
  0
STYLE
  5
11
330
3
100
AcDbSymbolTableRecord
100
AcDbTextStyleTableRecord
  2
Standard
 70
     0
 40
0.0
 41
1.0
 50
0.0
 71
     0
 42
3.5
  3
txt
  4

  0
STYLE
  5
1C8
330
3
100
AcDbSymbolTableRecord
100
AcDbTextStyleTableRecord
  2
SLDTEXTSTYLE0
 70
     0
 40
0.0
 41
0.7
 50
0.0
 71
     0
 42
0.2
  3
TXT
  4

  0
ENDTAB
  0
TABLE
  2
VIEW
  5
6
330
0
100
AcDbSymbolTable
 70
     0
  0
ENDTAB
  0
TABLE
  2
UCS
  5
7
330
0
100
AcDbSymbolTable
 70
     0
  0
ENDTAB
  0
TABLE
  2
APPID
  5
9
330
0
100
AcDbSymbolTable
 70
     1
  0
APPID
  5
12
330
9
100
AcDbSymbolTableRecord
100
AcDbRegAppTableRecord
  2
ACAD
 70
     0
  0
ENDTAB
  0
TABLE
  2
DIMSTYLE
  5
A
330
0
100
AcDbSymbolTable
 70
     1
100
AcDbDimStyleTable
  0
DIMSTYLE
105
27
330
A
100
AcDbSymbolTableRecord
100
AcDbDimStyleTableRecord
  2
ISO-25
 70
     0
 41
2.5
 42
0.625
 43
3.75
 44
1.25
 73
     0
 74
     0
 77
     1
 78
     8
140
2.5
141
2.5
143
0.0393700787
147
0.625
171
     3
172
     1
178
     0
271
     2
272
     2
274
     3
278
    44
283
     0
284
     8
340
11
  0
ENDTAB
  0
TABLE
  2
BLOCK_RECORD
  5
1
330
0
100
AcDbSymbolTable
 70
     1
  0
BLOCK_RECORD
  5
1F
330
1
100
AcDbSymbolTableRecord
100
AcDbBlockTableRecord
  2
*Model_Space
340
22
  0
BLOCK_RECORD
  5
1B
330
1
100
AcDbSymbolTableRecord
100
AcDbBlockTableRecord
  2
*Paper_Space
340
1E
  0
BLOCK_RECORD
  5
23
330
1
100
AcDbSymbolTableRecord
100
AcDbBlockTableRecord
  2
*Paper_Space0
340
26
  0
ENDTAB
  0
ENDSEC
  0
SECTION
  2
BLOCKS
  0
BLOCK
  5
20
330
1F
100
AcDbEntity
  8
0
100
AcDbBlockBegin
  2
*Model_Space
 70
     0
 10
0.0
 20
0.0
 30
0.0
  3
*Model_Space
  1

  0
ENDBLK
  5
21
330
1F
100
AcDbEntity
  8
0
100
AcDbBlockEnd
  0
BLOCK
  5
1C
330
1B
100
AcDbEntity
 67
     1
  8
0
100
AcDbBlockBegin
  2
*Paper_Space
 70
     0
 10
0.0
 20
0.0
 30
0.0
  3
*Paper_Space
  1

  0
ENDBLK
  5
1D
330
1B
100
AcDbEntity
 67
     1
  8
0
100
AcDbBlockEnd
  0
BLOCK
  5
24
330
23
100
AcDbEntity
  8
0
100
AcDbBlockBegin
  2
*Paper_Space0
 70
     0
 10
0.0
 20
0.0
 30
0.0
  3
*Paper_Space0
  1

  0
ENDBLK
  5
25
330
23
100
AcDbEntity
  8
0
100
AcDbBlockEnd
  0
ENDSEC
  0
SECTION
  2
ENTITIES
  0
LINE
  5
44
330
1F
100
AcDbEntity
  8
0
  6
Continuous
 62
     5
370
    15
100
AcDbLine
 10
526.6490719649
 20
31.5065497871
 30
0.0
 11
526.6490719649
 21
25.8065497871
 31
0.0
  0
LINE
  5
45
330
1F
100
AcDbEntity
  8
0
  6
Continuous
 62
     5
370
    15
100
AcDbLine
 10
526.6490719649
 20
25.8065497871
 30
0.0
 11
516.6490719649
 21
25.8065497871
 31
0.0
  0
LINE
  5
46
330
1F
100
AcDbEntity
  8
0
  6
Continuous
 62
     5
370
    15
100
AcDbLine
 10
516.6490719649
 20
25.8065497871
 30
0.0
 11
516.6490719649
 21
31.5065497871
 31
0.0
  0
LINE
  5
47
330
1F
100
AcDbEntity
  8
0
  6
Continuous
 62
     5
370
    15
100
AcDbLine
 10
516.6490719649
 20
31.5065497871
 30
0.0
 11
506.6490719649
 21
31.5065497871
 31
0.0
  0
LINE
  5
48
330
1F
100
AcDbEntity
  8
0
  6
Continuous
 62
     5
370
    15
100
AcDbLine
 10
506.6490719649
 20
31.5065497871
 30
0.0
 11
506.6490719649
 21
25.8065497871
 31
0.0
  0
LINE
  5
49
330
1F
100
AcDbEntity
  8
0
  6
Continuous
 62
     5
370
    15
100
AcDbLine
 10
506.6490719649
 20
25.8065497871
 30
0.0
 11
496.6490719649
 21
25.8065497871
 31
0.0
  0
LINE
  5
4A
330
1F
100
AcDbEntity
  8
0
  6
Continuous
 62
     5
370
    15
100
AcDbLine
 10
496.6490719649
 20
25.8065497871
 30
0.0
 11
496.6490719649
 21
31.5065497871
 31
0.0
  0
LINE
  5
4B
330
1F
100
AcDbEntity
  8
0
  6
Continuous
 62
     5
370
    15
100
AcDbLine
 10
496.6490719649
 20
31.5065497871
 30
0.0
 11
486.6490719649
 21
31.5065497871
 31
0.0
  0
LINE
  5
4C
330
1F
100
AcDbEntity
  8
0
  6
Continuous
 62
     5
370
    15
100
AcDbLine
 10
486.6490719649
 20
31.5065497871
 30
0.0
 11
486.6490719649
 21
41.5065497871
 31
0.0
  0
LINE
  5
4D
330
1F
100
AcDbEntity
  8
0
  6
Continuous
 62
     5
370
    15
100
AcDbLine
 10
486.6490719649
 20
41.5065497871
 30
0.0
 11
480.9490719649
 21
41.5065497871
 31
0.0
  0
LINE
  5
4E
330
1F
100
AcDbEntity
  8
0
  6
Continuous
 62
     5
370
    15
100
AcDbLine
 10
480.9490719649
 20
41.5065497871
 30
0.0
 11
480.9490719649
 21
51.5065497871
 31
0.0
  0
LINE
  5
4F
330
1F
100
AcDbEntity
  8
0
  6
Continuous
 62
     5
370
    15
100
AcDbLine
 10
480.9490719649
 20
51.5065497871
 30
0.0
 11
486.6490719649
 21
51.5065497871
 31
0.0
  0
LINE
  5
50
330
1F
100
AcDbEntity
  8
0
  6
Continuous
 62
     5
370
    15
100
AcDbLine
 10
486.6490719649
 20
51.5065497871
 30
0.0
 11
486.6490719649
 21
61.5065497871
 31
0.0
  0
LINE
  5
51
330
1F
100
AcDbEntity
  8
0
  6
Continuous
 62
     5
370
    15
100
AcDbLine
 10
486.6490719649
 20
61.5065497871
 30
0.0
 11
480.9490719649
 21
61.5065497871
 31
0.0
  0
LINE
  5
52
330
1F
100
AcDbEntity
  8
0
  6
Continuous
 62
     5
370
    15
100
AcDbLine
 10
480.9490719649
 20
61.5065497871
 30
0.0
 11
480.9490719649
 21
71.5065497871
 31
0.0
  0
LINE
  5
53
330
1F
100
AcDbEntity
  8
0
  6
Continuous
 62
     5
370
    15
100
AcDbLine
 10
480.9490719649
 20
71.5065497871
 30
0.0
 11
486.6490719649
 21
71.5065497871
 31
0.0
  0
LINE
  5
54
330
1F
100
AcDbEntity
  8
0
  6
Continuous
 62
     5
370
    15
100
AcDbLine
 10
486.6490719649
 20
71.5065497871
 30
0.0
 11
526.6490719649
 21
31.5065497871
 31
0.0
  0
LINE
  5
55
330
1F
100
AcDbEntity
  8
0
  6
Continuous
 62
     1
370
    15
100
AcDbLine
 10
565.2578851413
 20
369.7577554019
 30
0.0
 11
565.2578851413
 21
419.7577554019
 31
0.0
  0
LINE
  5
56
330
1F
100
AcDbEntity
  8
0
  6
Continuous
 62
     1
370
    15
100
AcDbLine
 10
565.2578851413
 20
419.7577554019
 30
0.0
 11
560.2578851413
 21
424.7577554019
 31
0.0
  0
LINE
  5
57
330
1F
100
AcDbEntity
  8
0
  6
Continuous
 62
     1
370
    15
100
AcDbLine
 10
560.2578851413
 20
424.7577554019
 30
0.0
 11
478.8578851413
 21
424.7577554019
 31
0.0
  0
LINE
  5
58
330
1F
100
AcDbEntity
  8
0
  6
Continuous
 62
     1
370
    15
100
AcDbLine
 10
478.8578851413
 20
424.7577554019
 30
0.0
 11
473.8578851413
 21
419.7577554019
 31
0.0
  0
LINE
  5
59
330
1F
100
AcDbEntity
  8
0
  6
Continuous
 62
     1
370
    15
100
AcDbLine
 10
473.8578851413
 20
419.7577554019
 30
0.0
 11
473.8578851413
 21
369.7577554019
 31
0.0
  0
LINE
  5
5A
330
1F
100
AcDbEntity
  8
0
  6
Continuous
 62
     1
370
    15
100
AcDbLine
 10
473.8578851413
 20
369.7577554019
 30
0.0
 11
478.8578851413
 21
364.7577554019
 31
0.0
  0
LINE
  5
5B
330
1F
100
AcDbEntity
  8
0
  6
Continuous
 62
     1
370
    15
100
AcDbLine
 10
478.8578851413
 20
364.7577554019
 30
0.0
 11
560.2578851413
 21
364.7577554019
 31
0.0
  0
LINE
  5
5C
330
1F
100
AcDbEntity
  8
0
  6
Continuous
 62
     1
370
    15
100
AcDbLine
 10
560.2578851413
 20
364.7577554019
 30
0.0
 11
565.2578851413
 21
369.7577554019
 31
0.0
  0
LINE
  5
5D
330
1F
100
AcDbEntity
  8
0
  6
Continuous
 62
     1
370
    15
100
AcDbLine
 10
473.8578851413
 20
299.7577554019
 30
0.0
 11
478.8578851413
 21
304.7577554019
 31
0.0
  0
LINE
  5
5E
330
1F
100
AcDbEntity
  8
0
  6
Continuous
 62
     1
370
    15
100
AcDbLine
 10
473.8578851413
 20
249.7577554019
 30
0.0
 11
473.8578851413
 21
299.7577554019
 31
0.0
  0
LINE
  5
5F
330
1F
100
AcDbEntity
  8
0
  6
Continuous
 62
     1
370
    15
100
AcDbLine
 10
478.8578851413
 20
244.7577554019
 30
0.0
 11
473.8578851413
 21
249.7577554019
 31
0.0
  0
LINE
  5
60
330
1F
100
AcDbEntity
  8
0
  6
Continuous
 62
     1
370
    15
100
AcDbLine
 10
560.2578851413
 20
244.7577554019
 30
0.0
 11
478.8578851413
 21
244.7577554019
 31
0.0
  0
LINE
  5
61
330
1F
100
AcDbEntity
  8
0
  6
Continuous
 62
     1
370
    15
100
AcDbLine
 10
565.2578851413
 20
249.7577554019
 30
0.0
 11
560.2578851413
 21
244.7577554019
 31
0.0
  0
LINE
  5
62
330
1F
100
AcDbEntity
  8
0
  6
Continuous
 62
     1
370
    15
100
AcDbLine
 10
565.2578851413
 20
299.7577554019
 30
0.0
 11
565.2578851413
 21
249.7577554019
 31
0.0
  0
LINE
  5
63
330
1F
100
AcDbEntity
  8
0
  6
Continuous
 62
     1
370
    15
100
AcDbLine
 10
560.2578851413
 20
304.7577554019
 30
0.0
 11
565.2578851413
 21
299.7577554019
 31
0.0
  0
LINE
  5
64
330
1F
100
AcDbEntity
  8
0
  6
Continuous
 62
     1
370
    15
100
AcDbLine
 10
478.8578851413
 20
304.7577554019
 30
0.0
 11
560.2578851413
 21
304.7577554019
 31
0.0
  0
LINE
  5
65
330
1F
100
AcDbEntity
  8
0
  6
Continuous
 62
     7
370
    15
100
AcDbLine
 10
535.2578851413
 20
230.4577554019
 30
0.0
 11
535.2578851413
 21
224.7577554019
 31
0.0
  0
LINE
  5
66
330
1F
100
AcDbEntity
  8
0
  6
Continuous
 62
     7
370
    15
100
AcDbLine
 10
535.2578851413
 20
224.7577554019
 30
0.0
 11
503.8578851413
 21
224.7577554019
 31
0.0
  0
LINE
  5
67
330
1F
100
AcDbEntity
  8
0
  6
Continuous
 62
     7
370
    15
100
AcDbLine
 10
503.8578851413
 20
230.4577554019
 30
0.0
 11
503.8578851413
 21
224.7577554019
 31
0.0
  0
LINE
  5
68
330
1F
100
AcDbEntity
  8
0
  6
Continuous
 62
     7
370
    15
100
AcDbLine
 10
503.8578851413
 20
230.4577554019
 30
0.0
 11
493.8578851413
 21
230.4577554019
 31
0.0
  0
LINE
  5
69
330
1F
100
AcDbEntity
  8
0
  6
Continuous
 62
     7
370
    15
100
AcDbLine
 10
493.8578851413
 20
230.4577554019
 30
0.0
 11
493.8578851413
 21
224.7577554019
 31
0.0
  0
LINE
  5
6A
330
1F
100
AcDbEntity
  8
0
  6
Continuous
 62
     7
370
    15
100
AcDbLine
 10
483.8578851413
 20
230.4577554019
 30
0.0
 11
483.8578851413
 21
224.7577554019
 31
0.0
  0
LINE
  5
6B
330
1F
100
AcDbEntity
  8
0
  6
Continuous
 62
     7
370
    15
100
AcDbLine
 10
483.8578851413
 20
230.4577554019
 30
0.0
 11
473.8578851413
 21
230.4577554019
 31
0.0
  0
LINE
  5
6C
330
1F
100
AcDbEntity
  8
0
  6
Continuous
 62
     7
370
    15
100
AcDbLine
 10
473.8578851413
 20
230.4577554019
 30
0.0
 11
473.8578851413
 21
224.7577554019
 31
0.0
  0
LINE
  5
6D
330
1F
100
AcDbEntity
  8
0
  6
Continuous
 62
     7
370
    15
100
AcDbLine
 10
463.8578851413
 20
224.7577554019
 30
0.0
 11
463.8578851413
 21
244.7577554019
 31
0.0
  0
LINE
  5
6E
330
1F
100
AcDbEntity
  8
0
  6
Continuous
 62
     7
370
    15
100
AcDbLine
 10
463.8578851413
 20
244.7577554019
 30
0.0
 11
458.1578851413
 21
244.7577554019
 31
0.0
  0
LINE
  5
6F
330
1F
100
AcDbEntity
  8
0
  6
Continuous
 62
     7
370
    15
100
AcDbLine
 10
458.1578851413
 20
244.7577554019
 30
0.0
 11
458.1578851413
 21
264.7577554019
 31
0.0
  0
LINE
  5
70
330
1F
100
AcDbEntity
  8
0
  6
Continuous
 62
     7
370
    15
100
AcDbLine
 10
458.1578851413
 20
264.7577554019
 30
0.0
 11
463.8578851413
 21
264.7577554019
 31
0.0
  0
LINE
  5
71
330
1F
100
AcDbEntity
  8
0
  6
Continuous
 62
     7
370
    15
100
AcDbLine
 10
463.8578851413
 20
264.7577554019
 30
0.0
 11
463.8578851413
 21
284.7577554019
 31
0.0
  0
LINE
  5
72
330
1F
100
AcDbEntity
  8
0
  6
Continuous
 62
     7
370
    15
100
AcDbLine
 10
463.8578851413
 20
284.7577554019
 30
0.0
 11
458.1578851413
 21
284.7577554019
 31
0.0
  0
LINE
  5
73
330
1F
100
AcDbEntity
  8
0
  6
Continuous
 62
     7
370
    15
100
AcDbLine
 10
458.1578851413
 20
284.7577554019
 30
0.0
 11
458.1578851413
 21
304.7577554019
 31
0.0
  0
LINE
  5
74
330
1F
100
AcDbEntity
  8
0
  6
Continuous
 62
     7
370
    15
100
AcDbLine
 10
458.1578851413
 20
304.7577554019
 30
0.0
 11
463.8578851413
 21
304.7577554019
 31
0.0
  0
LINE
  5
75
330
1F
100
AcDbEntity
  8
0
  6
Continuous
 62
     7
370
    15
100
AcDbLine
 10
463.8578851413
 20
304.7577554019
 30
0.0
 11
463.8578851413
 21
324.7577554019
 31
0.0
  0
LINE
  5
76
330
1F
100
AcDbEntity
  8
0
  6
Continuous
 62
     7
370
    15
100
AcDbLine
 10
463.8578851413
 20
324.7577554019
 30
0.0
 11
458.1578851413
 21
324.7577554019
 31
0.0
  0
LINE
  5
77
330
1F
100
AcDbEntity
  8
0
  6
Continuous
 62
     7
370
    15
100
AcDbLine
 10
458.1578851413
 20
324.7577554019
 30
0.0
 11
458.1578851413
 21
344.7577554019
 31
0.0
  0
LINE
  5
78
330
1F
100
AcDbEntity
  8
0
  6
Continuous
 62
     7
370
    15
100
AcDbLine
 10
458.1578851413
 20
344.7577554019
 30
0.0
 11
463.8578851413
 21
344.7577554019
 31
0.0
  0
LINE
  5
79
330
1F
100
AcDbEntity
  8
0
  6
Continuous
 62
     7
370
    15
100
AcDbLine
 10
463.8578851413
 20
344.7577554019
 30
0.0
 11
463.8578851413
 21
364.7577554019
 31
0.0
  0
LINE
  5
7A
330
1F
100
AcDbEntity
  8
0
  6
Continuous
 62
     7
370
    15
100
AcDbLine
 10
463.8578851413
 20
364.7577554019
 30
0.0
 11
458.1578851413
 21
364.7577554019
 31
0.0
  0
LINE
  5
7B
330
1F
100
AcDbEntity
  8
0
  6
Continuous
 62
     7
370
    15
100
AcDbLine
 10
458.1578851413
 20
364.7577554019
 30
0.0
 11
458.1578851413
 21
384.7577554019
 31
0.0
  0
LINE
  5
7C
330
1F
100
AcDbEntity
  8
0
  6
Continuous
 62
     7
370
    15
100
AcDbLine
 10
458.1578851413
 20
384.7577554019
 30
0.0
 11
463.8578851413
 21
384.7577554019
 31
0.0
  0
LINE
  5
7D
330
1F
100
AcDbEntity
  8
0
  6
Continuous
 62
     7
370
    15
100
AcDbLine
 10
463.8578851413
 20
384.7577554019
 30
0.0
 11
463.8578851413
 21
404.7577554019
 31
0.0
  0
LINE
  5
7E
330
1F
100
AcDbEntity
  8
0
  6
Continuous
 62
     7
370
    15
100
AcDbLine
 10
463.8578851413
 20
404.7577554019
 30
0.0
 11
458.1578851413
 21
404.7577554019
 31
0.0
  0
LINE
  5
7F
330
1F
100
AcDbEntity
  8
0
  6
Continuous
 62
     7
370
    15
100
AcDbLine
 10
458.1578851413
 20
404.7577554019
 30
0.0
 11
458.1578851413
 21
424.7577554019
 31
0.0
  0
LINE
  5
80
330
1F
100
AcDbEntity
  8
0
  6
Continuous
 62
     7
370
    15
100
AcDbLine
 10
458.1578851413
 20
424.7577554019
 30
0.0
 11
463.8578851413
 21
424.7577554019
 31
0.0
  0
LINE
  5
81
330
1F
100
AcDbEntity
  8
0
  6
Continuous
 62
     7
370
    15
100
AcDbLine
 10
463.8578851413
 20
424.7577554019
 30
0.0
 11
463.8578851413
 21
444.7577554019
 31
0.0
  0
LINE
  5
82
330
1F
100
AcDbEntity
  8
0
  6
Continuous
 62
     7
370
    15
100
AcDbLine
 10
463.8578851413
 20
444.7577554019
 30
0.0
 11
575.2578851413
 21
444.7577554019
 31
0.0
  0
LINE
  5
83
330
1F
100
AcDbEntity
  8
0
  6
Continuous
 62
     7
370
    15
100
AcDbLine
 10
575.2578851413
 20
424.7577554019
 30
0.0
 11
575.2578851413
 21
444.7577554019
 31
0.0
  0
LINE
  5
84
330
1F
100
AcDbEntity
  8
0
  6
Continuous
 62
     7
370
    15
100
AcDbLine
 10
580.9578851413
 20
424.7577554019
 30
0.0
 11
575.2578851413
 21
424.7577554019
 31
0.0
  0
LINE
  5
85
330
1F
100
AcDbEntity
  8
0
  6
Continuous
 62
     7
370
    15
100
AcDbLine
 10
580.9578851413
 20
424.7577554019
 30
0.0
 11
580.9578851413
 21
404.7577554019
 31
0.0
  0
LINE
  5
86
330
1F
100
AcDbEntity
  8
0
  6
Continuous
 62
     7
370
    15
100
AcDbLine
 10
575.2578851413
 20
404.7577554019
 30
0.0
 11
580.9578851413
 21
404.7577554019
 31
0.0
  0
LINE
  5
87
330
1F
100
AcDbEntity
  8
0
  6
Continuous
 62
     7
370
    15
100
AcDbLine
 10
575.2578851413
 20
384.7577554019
 30
0.0
 11
575.2578851413
 21
404.7577554019
 31
0.0
  0
LINE
  5
88
330
1F
100
AcDbEntity
  8
0
  6
Continuous
 62
     7
370
    15
100
AcDbLine
 10
580.9578851413
 20
384.7577554019
 30
0.0
 11
575.2578851413
 21
384.7577554019
 31
0.0
  0
LINE
  5
89
330
1F
100
AcDbEntity
  8
0
  6
Continuous
 62
     7
370
    15
100
AcDbLine
 10
580.9578851413
 20
384.7577554019
 30
0.0
 11
580.9578851413
 21
364.7577554019
 31
0.0
  0
LINE
  5
8A
330
1F
100
AcDbEntity
  8
0
  6
Continuous
 62
     7
370
    15
100
AcDbLine
 10
575.2578851413
 20
364.7577554019
 30
0.0
 11
580.9578851413
 21
364.7577554019
 31
0.0
  0
LINE
  5
8B
330
1F
100
AcDbEntity
  8
0
  6
Continuous
 62
     7
370
    15
100
AcDbLine
 10
575.2578851413
 20
344.7577554019
 30
0.0
 11
575.2578851413
 21
364.7577554019
 31
0.0
  0
LINE
  5
8C
330
1F
100
AcDbEntity
  8
0
  6
Continuous
 62
     7
370
    15
100
AcDbLine
 10
580.9578851413
 20
344.7577554019
 30
0.0
 11
575.2578851413
 21
344.7577554019
 31
0.0
  0
LINE
  5
8D
330
1F
100
AcDbEntity
  8
0
  6
Continuous
 62
     7
370
    15
100
AcDbLine
 10
580.9578851413
 20
344.7577554019
 30
0.0
 11
580.9578851413
 21
324.7577554019
 31
0.0
  0
LINE
  5
8E
330
1F
100
AcDbEntity
  8
0
  6
Continuous
 62
     7
370
    15
100
AcDbLine
 10
575.2578851413
 20
324.7577554019
 30
0.0
 11
580.9578851413
 21
324.7577554019
 31
0.0
  0
LINE
  5
8F
330
1F
100
AcDbEntity
  8
0
  6
Continuous
 62
     7
370
    15
100
AcDbLine
 10
575.2578851413
 20
304.7577554019
 30
0.0
 11
575.2578851413
 21
324.7577554019
 31
0.0
  0
LINE
  5
90
330
1F
100
AcDbEntity
  8
0
  6
Continuous
 62
     7
370
    15
100
AcDbLine
 10
580.9578851413
 20
304.7577554019
 30
0.0
 11
575.2578851413
 21
304.7577554019
 31
0.0
  0
LINE
  5
91
330
1F
100
AcDbEntity
  8
0
  6
Continuous
 62
     7
370
    15
100
AcDbLine
 10
580.9578851413
 20
304.7577554019
 30
0.0
 11
580.9578851413
 21
284.7577554019
 31
0.0
  0
LINE
  5
92
330
1F
100
AcDbEntity
  8
0
  6
Continuous
 62
     7
370
    15
100
AcDbLine
 10
575.2578851413
 20
284.7577554019
 30
0.0
 11
580.9578851413
 21
284.7577554019
 31
0.0
  0
LINE
  5
93
330
1F
100
AcDbEntity
  8
0
  6
Continuous
 62
     7
370
    15
100
AcDbLine
 10
575.2578851413
 20
264.7577554019
 30
0.0
 11
575.2578851413
 21
284.7577554019
 31
0.0
  0
LINE
  5
94
330
1F
100
AcDbEntity
  8
0
  6
Continuous
 62
     7
370
    15
100
AcDbLine
 10
580.9578851413
 20
264.7577554019
 30
0.0
 11
575.2578851413
 21
264.7577554019
 31
0.0
  0
LINE
  5
95
330
1F
100
AcDbEntity
  8
0
  6
Continuous
 62
     7
370
    15
100
AcDbLine
 10
580.9578851413
 20
264.7577554019
 30
0.0
 11
580.9578851413
 21
244.7577554019
 31
0.0
  0
LINE
  5
96
330
1F
100
AcDbEntity
  8
0
  6
Continuous
 62
     7
370
    15
100
AcDbLine
 10
575.2578851413
 20
244.7577554019
 30
0.0
 11
580.9578851413
 21
244.7577554019
 31
0.0
  0
LINE
  5
97
330
1F
100
AcDbEntity
  8
0
  6
Continuous
 62
     7
370
    15
100
AcDbLine
 10
575.2578851413
 20
224.7577554019
 30
0.0
 11
575.2578851413
 21
244.7577554019
 31
0.0
  0
LINE
  5
98
330
1F
100
AcDbEntity
  8
0
  6
Continuous
 62
     7
370
    15
100
AcDbLine
 10
565.2578851413
 20
230.4577554019
 30
0.0
 11
565.2578851413
 21
224.7577554019
 31
0.0
  0
LINE
  5
99
330
1F
100
AcDbEntity
  8
0
  6
Continuous
 62
     7
370
    15
100
AcDbLine
 10
555.2578851413
 20
230.4577554019
 30
0.0
 11
565.2578851413
 21
230.4577554019
 31
0.0
  0
LINE
  5
9A
330
1F
100
AcDbEntity
  8
0
  6
Continuous
 62
     7
370
    15
100
AcDbLine
 10
555.2578851413
 20
230.4577554019
 30
0.0
 11
555.2578851413
 21
224.7577554019
 31
0.0
  0
LINE
  5
9B
330
1F
100
AcDbEntity
  8
0
  6
Continuous
 62
     7
370
    15
100
AcDbLine
 10
545.2578851413
 20
230.4577554019
 30
0.0
 11
545.2578851413
 21
224.7577554019
 31
0.0
  0
LINE
  5
9C
330
1F
100
AcDbEntity
  8
0
  6
Continuous
 62
     7
370
    15
100
AcDbLine
 10
535.2578851413
 20
230.4577554019
 30
0.0
 11
545.2578851413
 21
230.4577554019
 31
0.0
  0
LINE
  5
9D
330
1F
100
AcDbEntity
  8
0
  6
Continuous
 62
     7
370
    15
100
AcDbLine
 10
493.8578851413
 20
224.7577554019
 30
0.0
 11
483.8578851413
 21
224.7577554019
 31
0.0
  0
LINE
  5
9E
330
1F
100
AcDbEntity
  8
0
  6
Continuous
 62
     7
370
    15
100
AcDbLine
 10
473.8578851413
 20
224.7577554019
 30
0.0
 11
463.8578851413
 21
224.7577554019
 31
0.0
  0
LINE
  5
9F
330
1F
100
AcDbEntity
  8
0
  6
Continuous
 62
     7
370
    15
100
AcDbLine
 10
575.2578851413
 20
224.7577554019
 30
0.0
 11
565.2578851413
 21
224.7577554019
 31
0.0
  0
LINE
  5
A0
330
1F
100
AcDbEntity
  8
0
  6
Continuous
 62
     7
370
    15
100
AcDbLine
 10
555.2578851413
 20
224.7577554019
 30
0.0
 11
545.2578851413
 21
224.7577554019
 31
0.0
  0
LINE
  5
A1
330
1F
100
AcDbEntity
  8
0
  6
Continuous
 62
     1
370
    15
100
AcDbLine
 10
143.2708484409
 20
396.8098259608
 30
0.0
 11
153.2708484409
 21
406.8098259608
 31
0.0
  0
LINE
  5
A2
330
1F
100
AcDbEntity
  8
0
  6
Continuous
 62
     1
370
    15
100
AcDbLine
 10
143.2708484409
 20
276.8098259608
 30
0.0
 11
143.2708484409
 21
396.8098259608
 31
0.0
  0
LINE
  5
A3
330
1F
100
AcDbEntity
  8
0
  6
Continuous
 62
     1
370
    15
100
AcDbLine
 10
153.2708484409
 20
266.8098259608
 30
0.0
 11
143.2708484409
 21
276.8098259608
 31
0.0
  0
LINE
  5
A4
330
1F
100
AcDbEntity
  8
0
  6
Continuous
 62
     1
370
    15
100
AcDbLine
 10
303.2708484409
 20
266.8098259608
 30
0.0
 11
153.2708484409
 21
266.8098259608
 31
0.0
  0
LINE
  5
A5
330
1F
100
AcDbEntity
  8
0
  6
Continuous
 62
     1
370
    15
100
AcDbLine
 10
313.2708484409
 20
276.8098259608
 30
0.0
 11
303.2708484409
 21
266.8098259608
 31
0.0
  0
LINE
  5
A6
330
1F
100
AcDbEntity
  8
0
  6
Continuous
 62
     1
370
    15
100
AcDbLine
 10
313.2708484409
 20
396.8098259608
 30
0.0
 11
313.2708484409
 21
276.8098259608
 31
0.0
  0
LINE
  5
A7
330
1F
100
AcDbEntity
  8
0
  6
Continuous
 62
     1
370
    15
100
AcDbLine
 10
303.2708484409
 20
406.8098259608
 30
0.0
 11
313.2708484409
 21
396.8098259608
 31
0.0
  0
LINE
  5
A8
330
1F
100
AcDbEntity
  8
0
  6
Continuous
 62
     1
370
    15
100
AcDbLine
 10
153.2708484409
 20
406.8098259608
 30
0.0
 11
303.2708484409
 21
406.8098259608
 31
0.0
  0
CIRCLE
  5
A9
330
1F
100
AcDbEntity
  8
0
  6
Continuous
 62
     1
370
    15
100
AcDbCircle
 10
338.0208484409
 20
383.8098259608
 30
0.0
 40
1.600000000000023
  0
CIRCLE
  5
AA
330
1F
100
AcDbEntity
  8
0
  6
Continuous
 62
     1
370
    15
100
AcDbCircle
 10
23.2708484409
 20
287.2898259608
 30
0.0
 40
1.599999999999991
  0
CIRCLE
  5
AB
330
1F
100
AcDbEntity
  8
0
  6
Continuous
 62
     1
370
    15
100
AcDbCircle
 10
118.5208484409
 20
383.8098259608
 30
0.0
 40
1.599999999999994
  0
CIRCLE
  5
AC
330
1F
100
AcDbEntity
  8
0
  6
Continuous
 62
     1
370
    15
100
AcDbCircle
 10
23.2708484409
 20
383.8098259608
 30
0.0
 40
1.599999999999991
  0
CIRCLE
  5
AD
330
1F
100
AcDbEntity
  8
0
  6
Continuous
 62
     1
370
    15
100
AcDbCircle
 10
433.2708484409
 20
287.2898259608
 30
0.0
 40
1.599999999999966
  0
CIRCLE
  5
AE
330
1F
100
AcDbEntity
  8
0
  6
Continuous
 62
     1
370
    15
100
AcDbCircle
 10
118.5208484409
 20
287.2898259608
 30
0.0
 40
1.59999999999998
  0
CIRCLE
  5
AF
330
1F
100
AcDbEntity
  8
0
  6
Continuous
 62
     1
370
    15
100
AcDbCircle
 10
338.0208484409
 20
287.2898259608
 30
0.0
 40
1.599999999999966
  0
CIRCLE
  5
B0
330
1F
100
AcDbEntity
  8
0
  6
Continuous
 62
     1
370
    15
100
AcDbCircle
 10
433.2708484409
 20
383.8098259608
 30
0.0
 40
1.60000000000008
  0
LINE
  5
B1
330
1F
100
AcDbEntity
  8
0
  6
Continuous
 62
     7
370
    15
100
AcDbLine
 10
427.5708484409
 20
232.5098259608
 30
0.0
 11
427.5708484409
 21
226.8098259608
 31
0.0
  0
LINE
  5
B2
330
1F
100
AcDbEntity
  8
0
  6
Continuous
 62
     7
370
    15
100
AcDbLine
 10
417.5708484409
 20
226.8098259608
 30
0.0
 11
427.5708484409
 21
226.8098259608
 31
0.0
  0
LINE
  5
B3
330
1F
100
AcDbEntity
  8
0
  6
Continuous
 62
     7
370
    15
100
AcDbLine
 10
417.5708484409
 20
232.5098259608
 30
0.0
 11
417.5708484409
 21
226.8098259608
 31
0.0
  0
LINE
  5
B4
330
1F
100
AcDbEntity
  8
0
  6
Continuous
 62
     7
370
    15
100
AcDbLine
 10
417.5708484409
 20
232.5098259608
 30
0.0
 11
407.5708484409
 21
232.5098259608
 31
0.0
  0
LINE
  5
B5
330
1F
100
AcDbEntity
  8
0
  6
Continuous
 62
     7
370
    15
100
AcDbLine
 10
407.5708484409
 20
232.5098259608
 30
0.0
 11
407.5708484409
 21
226.8098259608
 31
0.0
  0
LINE
  5
B6
330
1F
100
AcDbEntity
  8
0
  6
Continuous
 62
     7
370
    15
100
AcDbLine
 10
48.9708484409
 20
226.8098259608
 30
0.0
 11
407.5708484409
 21
226.8098259608
 31
0.0
  0
LINE
  5
B7
330
1F
100
AcDbEntity
  8
0
  6
Continuous
 62
     7
370
    15
100
AcDbLine
 10
48.9708484409
 20
232.5098259608
 30
0.0
 11
48.9708484409
 21
226.8098259608
 31
0.0
  0
LINE
  5
B8
330
1F
100
AcDbEntity
  8
0
  6
Continuous
 62
     7
370
    15
100
AcDbLine
 10
38.9708484409
 20
232.5098259608
 30
0.0
 11
48.9708484409
 21
232.5098259608
 31
0.0
  0
LINE
  5
B9
330
1F
100
AcDbEntity
  8
0
  6
Continuous
 62
     7
370
    15
100
AcDbLine
 10
38.9708484409
 20
232.5098259608
 30
0.0
 11
38.9708484409
 21
226.8098259608
 31
0.0
  0
LINE
  5
BA
330
1F
100
AcDbEntity
  8
0
  6
Continuous
 62
     7
370
    15
100
AcDbLine
 10
28.9708484409
 20
226.8098259608
 30
0.0
 11
38.9708484409
 21
226.8098259608
 31
0.0
  0
LINE
  5
BB
330
1F
100
AcDbEntity
  8
0
  6
Continuous
 62
     7
370
    15
100
AcDbLine
 10
28.9708484409
 20
232.5098259608
 30
0.0
 11
28.9708484409
 21
226.8098259608
 31
0.0
  0
LINE
  5
BC
330
1F
100
AcDbEntity
  8
0
  6
Continuous
 62
     7
370
    15
100
AcDbLine
 10
18.9708484409
 20
232.5098259608
 30
0.0
 11
28.9708484409
 21
232.5098259608
 31
0.0
  0
LINE
  5
BD
330
1F
100
AcDbEntity
  8
0
  6
Continuous
 62
     7
370
    15
100
AcDbLine
 10
18.9708484409
 20
232.5098259608
 30
0.0
 11
18.9708484409
 21
226.8098259608
 31
0.0
  0
LINE
  5
BE
330
1F
100
AcDbEntity
  8
0
  6
Continuous
 62
     7
370
    15
100
AcDbLine
 10
3.2708484409
 20
246.8098259608
 30
0.0
 11
3.2708484409
 21
226.8098259608
 31
0.0
  0
LINE
  5
BF
330
1F
100
AcDbEntity
  8
0
  6
Continuous
 62
     7
370
    15
100
AcDbLine
 10
3.2708484409
 20
246.8098259608
 30
0.0
 11
8.9708484409
 21
246.8098259608
 31
0.0
  0
LINE
  5
C0
330
1F
100
AcDbEntity
  8
0
  6
Continuous
 62
     7
370
    15
100
AcDbLine
 10
8.9708484409
 20
246.8098259608
 30
0.0
 11
8.9708484409
 21
266.8098259608
 31
0.0
  0
LINE
  5
C1
330
1F
100
AcDbEntity
  8
0
  6
Continuous
 62
     7
370
    15
100
AcDbLine
 10
8.9708484409
 20
266.8098259608
 30
0.0
 11
3.2708484409
 21
266.8098259608
 31
0.0
  0
LINE
  5
C2
330
1F
100
AcDbEntity
  8
0
  6
Continuous
 62
     7
370
    15
100
AcDbLine
 10
3.2708484409
 20
286.8098259608
 30
0.0
 11
3.2708484409
 21
266.8098259608
 31
0.0
  0
LINE
  5
C3
330
1F
100
AcDbEntity
  8
0
  6
Continuous
 62
     7
370
    15
100
AcDbLine
 10
3.2708484409
 20
286.8098259608
 30
0.0
 11
8.9708484409
 21
286.8098259608
 31
0.0
  0
LINE
  5
C4
330
1F
100
AcDbEntity
  8
0
  6
Continuous
 62
     7
370
    15
100
AcDbLine
 10
8.9708484409
 20
286.8098259608
 30
0.0
 11
8.9708484409
 21
306.8098259608
 31
0.0
  0
LINE
  5
C5
330
1F
100
AcDbEntity
  8
0
  6
Continuous
 62
     7
370
    15
100
AcDbLine
 10
8.9708484409
 20
306.8098259608
 30
0.0
 11
3.2708484409
 21
306.8098259608
 31
0.0
  0
LINE
  5
C6
330
1F
100
AcDbEntity
  8
0
  6
Continuous
 62
     7
370
    15
100
AcDbLine
 10
3.2708484409
 20
326.8098259608
 30
0.0
 11
3.2708484409
 21
306.8098259608
 31
0.0
  0
LINE
  5
C7
330
1F
100
AcDbEntity
  8
0
  6
Continuous
 62
     7
370
    15
100
AcDbLine
 10
3.2708484409
 20
326.8098259608
 30
0.0
 11
8.9708484409
 21
326.8098259608
 31
0.0
  0
LINE
  5
C8
330
1F
100
AcDbEntity
  8
0
  6
Continuous
 62
     7
370
    15
100
AcDbLine
 10
3.2708484409
 20
366.8098259608
 30
0.0
 11
3.2708484409
 21
346.8098259608
 31
0.0
  0
LINE
  5
C9
330
1F
100
AcDbEntity
  8
0
  6
Continuous
 62
     7
370
    15
100
AcDbLine
 10
3.2708484409
 20
366.8098259608
 30
0.0
 11
8.9708484409
 21
366.8098259608
 31
0.0
  0
LINE
  5
CA
330
1F
100
AcDbEntity
  8
0
  6
Continuous
 62
     7
370
    15
100
AcDbLine
 10
8.9708484409
 20
366.8098259608
 30
0.0
 11
8.9708484409
 21
386.8098259608
 31
0.0
  0
LINE
  5
CB
330
1F
100
AcDbEntity
  8
0
  6
Continuous
 62
     7
370
    15
100
AcDbLine
 10
8.9708484409
 20
386.8098259608
 30
0.0
 11
3.2708484409
 21
386.8098259608
 31
0.0
  0
LINE
  5
CC
330
1F
100
AcDbEntity
  8
0
  6
Continuous
 62
     7
370
    15
100
AcDbLine
 10
3.2708484409
 20
406.8098259608
 30
0.0
 11
3.2708484409
 21
386.8098259608
 31
0.0
  0
LINE
  5
CD
330
1F
100
AcDbEntity
  8
0
  6
Continuous
 62
     7
370
    15
100
AcDbLine
 10
3.2708484409
 20
406.8098259608
 30
0.0
 11
8.9708484409
 21
406.8098259608
 31
0.0
  0
LINE
  5
CE
330
1F
100
AcDbEntity
  8
0
  6
Continuous
 62
     7
370
    15
100
AcDbLine
 10
8.9708484409
 20
406.8098259608
 30
0.0
 11
8.9708484409
 21
426.8098259608
 31
0.0
  0
LINE
  5
CF
330
1F
100
AcDbEntity
  8
0
  6
Continuous
 62
     7
370
    15
100
AcDbLine
 10
8.9708484409
 20
426.8098259608
 30
0.0
 11
3.2708484409
 21
426.8098259608
 31
0.0
  0
LINE
  5
D0
330
1F
100
AcDbEntity
  8
0
  6
Continuous
 62
     7
370
    15
100
AcDbLine
 10
3.2708484409
 20
446.8098259608
 30
0.0
 11
3.2708484409
 21
426.8098259608
 31
0.0
  0
LINE
  5
D1
330
1F
100
AcDbEntity
  8
0
  6
Continuous
 62
     7
370
    15
100
AcDbLine
 10
17.7708484409
 20
441.8098259608
 30
0.0
 11
17.7708484409
 21
446.8098259608
 31
0.0
  0
LINE
  5
D2
330
1F
100
AcDbEntity
  8
0
  6
Continuous
 62
     7
370
    15
100
AcDbLine
 10
48.7708484409
 20
441.8098259608
 30
0.0
 11
17.7708484409
 21
441.8098259608
 31
0.0
  0
LINE
  5
D3
330
1F
100
AcDbEntity
  8
0
  6
Continuous
 62
     7
370
    15
100
AcDbLine
 10
48.7708484409
 20
446.8098259608
 30
0.0
 11
48.7708484409
 21
441.8098259608
 31
0.0
  0
LINE
  5
D4
330
1F
100
AcDbEntity
  8
0
  6
Continuous
 62
     7
370
    15
100
AcDbLine
 10
407.7708484409
 20
446.8098259608
 30
0.0
 11
48.7708484409
 21
446.8098259608
 31
0.0
  0
LINE
  5
D5
330
1F
100
AcDbEntity
  8
0
  6
Continuous
 62
     7
370
    15
100
AcDbLine
 10
407.7708484409
 20
446.8098259608
 30
0.0
 11
407.7708484409
 21
441.8098259608
 31
0.0
  0
LINE
  5
D6
330
1F
100
AcDbEntity
  8
0
  6
Continuous
 62
     7
370
    15
100
AcDbLine
 10
407.7708484409
 20
441.8098259608
 30
0.0
 11
438.7708484409
 21
441.8098259608
 31
0.0
  0
LINE
  5
D7
330
1F
100
AcDbEntity
  8
0
  6
Continuous
 62
     7
370
    15
100
AcDbLine
 10
438.7708484409
 20
441.8098259608
 30
0.0
 11
438.7708484409
 21
446.8098259608
 31
0.0
  0
LINE
  5
D8
330
1F
100
AcDbEntity
  8
0
  6
Continuous
 62
     7
370
    15
100
AcDbLine
 10
453.2708484409
 20
426.8098259608
 30
0.0
 11
453.2708484409
 21
446.8098259608
 31
0.0
  0
LINE
  5
D9
330
1F
100
AcDbEntity
  8
0
  6
Continuous
 62
     7
370
    15
100
AcDbLine
 10
447.5708484409
 20
426.8098259608
 30
0.0
 11
453.2708484409
 21
426.8098259608
 31
0.0
  0
LINE
  5
DA
330
1F
100
AcDbEntity
  8
0
  6
Continuous
 62
     7
370
    15
100
AcDbLine
 10
447.5708484409
 20
406.8098259608
 30
0.0
 11
447.5708484409
 21
426.8098259608
 31
0.0
  0
LINE
  5
DB
330
1F
100
AcDbEntity
  8
0
  6
Continuous
 62
     7
370
    15
100
AcDbLine
 10
453.2708484409
 20
406.8098259608
 30
0.0
 11
447.5708484409
 21
406.8098259608
 31
0.0
  0
LINE
  5
DC
330
1F
100
AcDbEntity
  8
0
  6
Continuous
 62
     7
370
    15
100
AcDbLine
 10
453.2708484409
 20
386.8098259608
 30
0.0
 11
453.2708484409
 21
406.8098259608
 31
0.0
  0
LINE
  5
DD
330
1F
100
AcDbEntity
  8
0
  6
Continuous
 62
     7
370
    15
100
AcDbLine
 10
447.5708484409
 20
386.8098259608
 30
0.0
 11
453.2708484409
 21
386.8098259608
 31
0.0
  0
LINE
  5
DE
330
1F
100
AcDbEntity
  8
0
  6
Continuous
 62
     7
370
    15
100
AcDbLine
 10
447.5708484409
 20
366.8098259608
 30
0.0
 11
447.5708484409
 21
386.8098259608
 31
0.0
  0
LINE
  5
DF
330
1F
100
AcDbEntity
  8
0
  6
Continuous
 62
     7
370
    15
100
AcDbLine
 10
453.2708484409
 20
366.8098259608
 30
0.0
 11
447.5708484409
 21
366.8098259608
 31
0.0
  0
LINE
  5
E0
330
1F
100
AcDbEntity
  8
0
  6
Continuous
 62
     7
370
    15
100
AcDbLine
 10
453.2708484409
 20
346.8098259608
 30
0.0
 11
453.2708484409
 21
366.8098259608
 31
0.0
  0
LINE
  5
E1
330
1F
100
AcDbEntity
  8
0
  6
Continuous
 62
     7
370
    15
100
AcDbLine
 10
447.5708484409
 20
346.8098259608
 30
0.0
 11
453.2708484409
 21
346.8098259608
 31
0.0
  0
LINE
  5
E2
330
1F
100
AcDbEntity
  8
0
  6
Continuous
 62
     7
370
    15
100
AcDbLine
 10
447.5708484409
 20
326.8098259608
 30
0.0
 11
447.5708484409
 21
346.8098259608
 31
0.0
  0
LINE
  5
E3
330
1F
100
AcDbEntity
  8
0
  6
Continuous
 62
     7
370
    15
100
AcDbLine
 10
453.2708484409
 20
326.8098259608
 30
0.0
 11
447.5708484409
 21
326.8098259608
 31
0.0
  0
LINE
  5
E4
330
1F
100
AcDbEntity
  8
0
  6
Continuous
 62
     7
370
    15
100
AcDbLine
 10
453.2708484409
 20
306.8098259608
 30
0.0
 11
453.2708484409
 21
326.8098259608
 31
0.0
  0
LINE
  5
E5
330
1F
100
AcDbEntity
  8
0
  6
Continuous
 62
     7
370
    15
100
AcDbLine
 10
447.5708484409
 20
306.8098259608
 30
0.0
 11
453.2708484409
 21
306.8098259608
 31
0.0
  0
LINE
  5
E6
330
1F
100
AcDbEntity
  8
0
  6
Continuous
 62
     7
370
    15
100
AcDbLine
 10
447.5708484409
 20
286.8098259608
 30
0.0
 11
447.5708484409
 21
306.8098259608
 31
0.0
  0
LINE
  5
E7
330
1F
100
AcDbEntity
  8
0
  6
Continuous
 62
     7
370
    15
100
AcDbLine
 10
453.2708484409
 20
286.8098259608
 30
0.0
 11
447.5708484409
 21
286.8098259608
 31
0.0
  0
LINE
  5
E8
330
1F
100
AcDbEntity
  8
0
  6
Continuous
 62
     7
370
    15
100
AcDbLine
 10
453.2708484409
 20
266.8098259608
 30
0.0
 11
453.2708484409
 21
286.8098259608
 31
0.0
  0
LINE
  5
E9
330
1F
100
AcDbEntity
  8
0
  6
Continuous
 62
     7
370
    15
100
AcDbLine
 10
447.5708484409
 20
266.8098259608
 30
0.0
 11
453.2708484409
 21
266.8098259608
 31
0.0
  0
LINE
  5
EA
330
1F
100
AcDbEntity
  8
0
  6
Continuous
 62
     7
370
    15
100
AcDbLine
 10
447.5708484409
 20
246.8098259608
 30
0.0
 11
447.5708484409
 21
266.8098259608
 31
0.0
  0
LINE
  5
EB
330
1F
100
AcDbEntity
  8
0
  6
Continuous
 62
     7
370
    15
100
AcDbLine
 10
453.2708484409
 20
246.8098259608
 30
0.0
 11
447.5708484409
 21
246.8098259608
 31
0.0
  0
LINE
  5
EC
330
1F
100
AcDbEntity
  8
0
  6
Continuous
 62
     7
370
    15
100
AcDbLine
 10
453.2708484409
 20
226.8098259608
 30
0.0
 11
453.2708484409
 21
246.8098259608
 31
0.0
  0
LINE
  5
ED
330
1F
100
AcDbEntity
  8
0
  6
Continuous
 62
     7
370
    15
100
AcDbLine
 10
437.5708484409
 20
232.5098259608
 30
0.0
 11
437.5708484409
 21
226.8098259608
 31
0.0
  0
LINE
  5
EE
330
1F
100
AcDbEntity
  8
0
  6
Continuous
 62
     7
370
    15
100
AcDbLine
 10
437.5708484409
 20
232.5098259608
 30
0.0
 11
427.5708484409
 21
232.5098259608
 31
0.0
  0
LINE
  5
EF
330
1F
100
AcDbEntity
  8
0
  6
Continuous
 62
     7
370
    15
100
AcDbLine
 10
17.7708484409
 20
446.8098259608
 30
0.0
 11
3.2708484409
 21
446.8098259608
 31
0.0
  0
LINE
  5
F0
330
1F
100
AcDbEntity
  8
0
  6
Continuous
 62
     7
370
    15
100
AcDbLine
 10
453.2708484409
 20
446.8098259608
 30
0.0
 11
438.7708484409
 21
446.8098259608
 31
0.0
  0
LINE
  5
F1
330
1F
100
AcDbEntity
  8
0
  6
Continuous
 62
     7
370
    15
100
AcDbLine
 10
3.2708484409
 20
226.8098259608
 30
0.0
 11
18.9708484409
 21
226.8098259608
 31
0.0
  0
LINE
  5
F2
330
1F
100
AcDbEntity
  8
0
  6
Continuous
 62
     7
370
    15
100
AcDbLine
 10
8.9708484409
 20
326.8098259608
 30
0.0
 11
8.9708484409
 21
346.8098259608
 31
0.0
  0
LINE
  5
F3
330
1F
100
AcDbEntity
  8
0
  6
Continuous
 62
     7
370
    15
100
AcDbLine
 10
8.9708484409
 20
346.8098259608
 30
0.0
 11
3.2708484409
 21
346.8098259608
 31
0.0
  0
LINE
  5
F4
330
1F
100
AcDbEntity
  8
0
  6
Continuous
 62
     7
370
    15
100
AcDbLine
 10
437.5708484409
 20
226.8098259608
 30
0.0
 11
453.2708484409
 21
226.8098259608
 31
0.0
  0
LINE
  5
F5
330
1F
100
AcDbEntity
  8
0
  6
Continuous
 62
     1
370
    15
100
AcDbLine
 10
144.4080855693
 20
173.6617113851
 30
0.0
 11
154.4080855693
 21
183.6617113851
 31
0.0
  0
LINE
  5
F6
330
1F
100
AcDbEntity
  8
0
  6
Continuous
 62
     1
370
    15
100
AcDbLine
 10
144.4080855693
 20
53.6617113851
 30
0.0
 11
144.4080855693
 21
173.6617113851
 31
0.0
  0
LINE
  5
F7
330
1F
100
AcDbEntity
  8
0
  6
Continuous
 62
     1
370
    15
100
AcDbLine
 10
154.4080855693
 20
43.6617113851
 30
0.0
 11
144.4080855693
 21
53.6617113851
 31
0.0
  0
LINE
  5
F8
330
1F
100
AcDbEntity
  8
0
  6
Continuous
 62
     1
370
    15
100
AcDbLine
 10
304.4080855693
 20
43.6617113851
 30
0.0
 11
154.4080855693
 21
43.6617113851
 31
0.0
  0
LINE
  5
F9
330
1F
100
AcDbEntity
  8
0
  6
Continuous
 62
     1
370
    15
100
AcDbLine
 10
314.4080855693
 20
53.6617113851
 30
0.0
 11
304.4080855693
 21
43.6617113851
 31
0.0
  0
LINE
  5
FA
330
1F
100
AcDbEntity
  8
0
  6
Continuous
 62
     1
370
    15
100
AcDbLine
 10
314.4080855693
 20
173.6617113851
 30
0.0
 11
314.4080855693
 21
53.6617113851
 31
0.0
  0
LINE
  5
FB
330
1F
100
AcDbEntity
  8
0
  6
Continuous
 62
     1
370
    15
100
AcDbLine
 10
304.4080855693
 20
183.6617113851
 30
0.0
 11
314.4080855693
 21
173.6617113851
 31
0.0
  0
LINE
  5
FC
330
1F
100
AcDbEntity
  8
0
  6
Continuous
 62
     1
370
    15
100
AcDbLine
 10
154.4080855693
 20
183.6617113851
 30
0.0
 11
304.4080855693
 21
183.6617113851
 31
0.0
  0
CIRCLE
  5
FD
330
1F
100
AcDbEntity
  8
0
  6
Continuous
 62
     1
370
    15
100
AcDbCircle
 10
339.1580855693
 20
160.6617113851
 30
0.0
 40
1.599999999999966
  0
CIRCLE
  5
FE
330
1F
100
AcDbEntity
  8
0
  6
Continuous
 62
     1
370
    15
100
AcDbCircle
 10
24.4080855693
 20
64.1417113851
 30
0.0
 40
1.599999999999987
  0
CIRCLE
  5
FF
330
1F
100
AcDbEntity
  8
0
  6
Continuous
 62
     1
370
    15
100
AcDbCircle
 10
119.6580855693
 20
160.6617113851
 30
0.0
 40
1.599999999999994
  0
CIRCLE
  5
100
330
1F
100
AcDbEntity
  8
0
  6
Continuous
 62
     1
370
    15
100
AcDbCircle
 10
24.4080855693
 20
160.6617113851
 30
0.0
 40
1.599999999999987
  0
CIRCLE
  5
101
330
1F
100
AcDbEntity
  8
0
  6
Continuous
 62
     1
370
    15
100
AcDbCircle
 10
434.4080855693
 20
64.1417113851
 30
0.0
 40
1.599999999999909
  0
CIRCLE
  5
102
330
1F
100
AcDbEntity
  8
0
  6
Continuous
 62
     1
370
    15
100
AcDbCircle
 10
119.6580855693
 20
64.1417113851
 30
0.0
 40
1.599999999999994
  0
CIRCLE
  5
103
330
1F
100
AcDbEntity
  8
0
  6
Continuous
 62
     1
370
    15
100
AcDbCircle
 10
339.1580855693
 20
64.1417113851
 30
0.0
 40
1.599999999999909
  0
CIRCLE
  5
104
330
1F
100
AcDbEntity
  8
0
  6
Continuous
 62
     1
370
    15
100
AcDbCircle
 10
434.4080855693
 20
160.6617113851
 30
0.0
 40
1.60000000000008
  0
LINE
  5
105
330
1F
100
AcDbEntity
  8
0
  6
Continuous
 62
     7
370
    15
100
AcDbLine
 10
428.7080855693
 20
9.3617113851
 30
0.0
 11
428.7080855693
 21
3.6617113851
 31
0.0
  0
LINE
  5
106
330
1F
100
AcDbEntity
  8
0
  6
Continuous
 62
     7
370
    15
100
AcDbLine
 10
418.7080855693
 20
3.6617113851
 30
0.0
 11
428.7080855693
 21
3.6617113851
 31
0.0
  0
LINE
  5
107
330
1F
100
AcDbEntity
  8
0
  6
Continuous
 62
     7
370
    15
100
AcDbLine
 10
418.7080855693
 20
9.3617113851
 30
0.0
 11
418.7080855693
 21
3.6617113851
 31
0.0
  0
LINE
  5
108
330
1F
100
AcDbEntity
  8
0
  6
Continuous
 62
     7
370
    15
100
AcDbLine
 10
418.7080855693
 20
9.3617113851
 30
0.0
 11
408.7080855693
 21
9.3617113851
 31
0.0
  0
LINE
  5
109
330
1F
100
AcDbEntity
  8
0
  6
Continuous
 62
     7
370
    15
100
AcDbLine
 10
408.7080855693
 20
9.3617113851
 30
0.0
 11
408.7080855693
 21
3.6617113851
 31
0.0
  0
LINE
  5
10A
330
1F
100
AcDbEntity
  8
0
  6
Continuous
 62
     7
370
    15
100
AcDbLine
 10
50.1080855693
 20
3.6617113851
 30
0.0
 11
408.7080855693
 21
3.6617113851
 31
0.0
  0
LINE
  5
10B
330
1F
100
AcDbEntity
  8
0
  6
Continuous
 62
     7
370
    15
100
AcDbLine
 10
50.1080855693
 20
9.3617113851
 30
0.0
 11
50.1080855693
 21
3.6617113851
 31
0.0
  0
LINE
  5
10C
330
1F
100
AcDbEntity
  8
0
  6
Continuous
 62
     7
370
    15
100
AcDbLine
 10
40.1080855693
 20
9.3617113851
 30
0.0
 11
50.1080855693
 21
9.3617113851
 31
0.0
  0
LINE
  5
10D
330
1F
100
AcDbEntity
  8
0
  6
Continuous
 62
     7
370
    15
100
AcDbLine
 10
40.1080855693
 20
9.3617113851
 30
0.0
 11
40.1080855693
 21
3.6617113851
 31
0.0
  0
LINE
  5
10E
330
1F
100
AcDbEntity
  8
0
  6
Continuous
 62
     7
370
    15
100
AcDbLine
 10
30.1080855693
 20
3.6617113851
 30
0.0
 11
40.1080855693
 21
3.6617113851
 31
0.0
  0
LINE
  5
10F
330
1F
100
AcDbEntity
  8
0
  6
Continuous
 62
     7
370
    15
100
AcDbLine
 10
30.1080855693
 20
9.3617113851
 30
0.0
 11
30.1080855693
 21
3.6617113851
 31
0.0
  0
LINE
  5
110
330
1F
100
AcDbEntity
  8
0
  6
Continuous
 62
     7
370
    15
100
AcDbLine
 10
20.1080855693
 20
9.3617113851
 30
0.0
 11
30.1080855693
 21
9.3617113851
 31
0.0
  0
LINE
  5
111
330
1F
100
AcDbEntity
  8
0
  6
Continuous
 62
     7
370
    15
100
AcDbLine
 10
20.1080855693
 20
9.3617113851
 30
0.0
 11
20.1080855693
 21
3.6617113851
 31
0.0
  0
LINE
  5
112
330
1F
100
AcDbEntity
  8
0
  6
Continuous
 62
     7
370
    15
100
AcDbLine
 10
4.4080855693
 20
23.6617113851
 30
0.0
 11
4.4080855693
 21
3.6617113851
 31
0.0
  0
LINE
  5
113
330
1F
100
AcDbEntity
  8
0
  6
Continuous
 62
     7
370
    15
100
AcDbLine
 10
4.4080855693
 20
23.6617113851
 30
0.0
 11
10.1080855693
 21
23.6617113851
 31
0.0
  0
LINE
  5
114
330
1F
100
AcDbEntity
  8
0
  6
Continuous
 62
     7
370
    15
100
AcDbLine
 10
10.1080855693
 20
23.6617113851
 30
0.0
 11
10.1080855693
 21
43.6617113851
 31
0.0
  0
LINE
  5
115
330
1F
100
AcDbEntity
  8
0
  6
Continuous
 62
     7
370
    15
100
AcDbLine
 10
10.1080855693
 20
43.6617113851
 30
0.0
 11
4.4080855693
 21
43.6617113851
 31
0.0
  0
LINE
  5
116
330
1F
100
AcDbEntity
  8
0
  6
Continuous
 62
     7
370
    15
100
AcDbLine
 10
4.4080855693
 20
63.6617113851
 30
0.0
 11
4.4080855693
 21
43.6617113851
 31
0.0
  0
LINE
  5
117
330
1F
100
AcDbEntity
  8
0
  6
Continuous
 62
     7
370
    15
100
AcDbLine
 10
4.4080855693
 20
63.6617113851
 30
0.0
 11
10.1080855693
 21
63.6617113851
 31
0.0
  0
LINE
  5
118
330
1F
100
AcDbEntity
  8
0
  6
Continuous
 62
     7
370
    15
100
AcDbLine
 10
10.1080855693
 20
63.6617113851
 30
0.0
 11
10.1080855693
 21
83.6617113851
 31
0.0
  0
LINE
  5
119
330
1F
100
AcDbEntity
  8
0
  6
Continuous
 62
     7
370
    15
100
AcDbLine
 10
10.1080855693
 20
83.6617113851
 30
0.0
 11
4.4080855693
 21
83.6617113851
 31
0.0
  0
LINE
  5
11A
330
1F
100
AcDbEntity
  8
0
  6
Continuous
 62
     7
370
    15
100
AcDbLine
 10
4.4080855693
 20
103.6617113851
 30
0.0
 11
4.4080855693
 21
83.6617113851
 31
0.0
  0
LINE
  5
11B
330
1F
100
AcDbEntity
  8
0
  6
Continuous
 62
     7
370
    15
100
AcDbLine
 10
4.4080855693
 20
103.6617113851
 30
0.0
 11
10.1080855693
 21
103.6617113851
 31
0.0
  0
LINE
  5
11C
330
1F
100
AcDbEntity
  8
0
  6
Continuous
 62
     7
370
    15
100
AcDbLine
 10
4.4080855693
 20
143.6617113851
 30
0.0
 11
4.4080855693
 21
123.6617113851
 31
0.0
  0
LINE
  5
11D
330
1F
100
AcDbEntity
  8
0
  6
Continuous
 62
     7
370
    15
100
AcDbLine
 10
4.4080855693
 20
143.6617113851
 30
0.0
 11
10.1080855693
 21
143.6617113851
 31
0.0
  0
LINE
  5
11E
330
1F
100
AcDbEntity
  8
0
  6
Continuous
 62
     7
370
    15
100
AcDbLine
 10
10.1080855693
 20
143.6617113851
 30
0.0
 11
10.1080855693
 21
163.6617113851
 31
0.0
  0
LINE
  5
11F
330
1F
100
AcDbEntity
  8
0
  6
Continuous
 62
     7
370
    15
100
AcDbLine
 10
10.1080855693
 20
163.6617113851
 30
0.0
 11
4.4080855693
 21
163.6617113851
 31
0.0
  0
LINE
  5
120
330
1F
100
AcDbEntity
  8
0
  6
Continuous
 62
     7
370
    15
100
AcDbLine
 10
4.4080855693
 20
183.6617113851
 30
0.0
 11
4.4080855693
 21
163.6617113851
 31
0.0
  0
LINE
  5
121
330
1F
100
AcDbEntity
  8
0
  6
Continuous
 62
     7
370
    15
100
AcDbLine
 10
4.4080855693
 20
183.6617113851
 30
0.0
 11
10.1080855693
 21
183.6617113851
 31
0.0
  0
LINE
  5
122
330
1F
100
AcDbEntity
  8
0
  6
Continuous
 62
     7
370
    15
100
AcDbLine
 10
10.1080855693
 20
183.6617113851
 30
0.0
 11
10.1080855693
 21
203.6617113851
 31
0.0
  0
LINE
  5
123
330
1F
100
AcDbEntity
  8
0
  6
Continuous
 62
     7
370
    15
100
AcDbLine
 10
10.1080855693
 20
203.6617113851
 30
0.0
 11
4.4080855693
 21
203.6617113851
 31
0.0
  0
LINE
  5
124
330
1F
100
AcDbEntity
  8
0
  6
Continuous
 62
     7
370
    15
100
AcDbLine
 10
4.4080855693
 20
223.6617113851
 30
0.0
 11
4.4080855693
 21
203.6617113851
 31
0.0
  0
LINE
  5
125
330
1F
100
AcDbEntity
  8
0
  6
Continuous
 62
     7
370
    15
100
AcDbLine
 10
18.9080855693
 20
218.6617113851
 30
0.0
 11
18.9080855693
 21
223.6617113851
 31
0.0
  0
LINE
  5
126
330
1F
100
AcDbEntity
  8
0
  6
Continuous
 62
     7
370
    15
100
AcDbLine
 10
49.9080855693
 20
218.6617113851
 30
0.0
 11
18.9080855693
 21
218.6617113851
 31
0.0
  0
LINE
  5
127
330
1F
100
AcDbEntity
  8
0
  6
Continuous
 62
     7
370
    15
100
AcDbLine
 10
49.9080855693
 20
223.6617113851
 30
0.0
 11
49.9080855693
 21
218.6617113851
 31
0.0
  0
LINE
  5
128
330
1F
100
AcDbEntity
  8
0
  6
Continuous
 62
     7
370
    15
100
AcDbLine
 10
408.9080855693
 20
223.6617113851
 30
0.0
 11
49.9080855693
 21
223.6617113851
 31
0.0
  0
LINE
  5
129
330
1F
100
AcDbEntity
  8
0
  6
Continuous
 62
     7
370
    15
100
AcDbLine
 10
408.9080855693
 20
223.6617113851
 30
0.0
 11
408.9080855693
 21
218.6617113851
 31
0.0
  0
LINE
  5
12A
330
1F
100
AcDbEntity
  8
0
  6
Continuous
 62
     7
370
    15
100
AcDbLine
 10
408.9080855693
 20
218.6617113851
 30
0.0
 11
439.9080855693
 21
218.6617113851
 31
0.0
  0
LINE
  5
12B
330
1F
100
AcDbEntity
  8
0
  6
Continuous
 62
     7
370
    15
100
AcDbLine
 10
439.9080855693
 20
218.6617113851
 30
0.0
 11
439.9080855693
 21
223.6617113851
 31
0.0
  0
LINE
  5
12C
330
1F
100
AcDbEntity
  8
0
  6
Continuous
 62
     7
370
    15
100
AcDbLine
 10
454.4080855693
 20
203.6617113851
 30
0.0
 11
454.4080855693
 21
223.6617113851
 31
0.0
  0
LINE
  5
12D
330
1F
100
AcDbEntity
  8
0
  6
Continuous
 62
     7
370
    15
100
AcDbLine
 10
448.7080855693
 20
203.6617113851
 30
0.0
 11
454.4080855693
 21
203.6617113851
 31
0.0
  0
LINE
  5
12E
330
1F
100
AcDbEntity
  8
0
  6
Continuous
 62
     7
370
    15
100
AcDbLine
 10
448.7080855693
 20
183.6617113851
 30
0.0
 11
448.7080855693
 21
203.6617113851
 31
0.0
  0
LINE
  5
12F
330
1F
100
AcDbEntity
  8
0
  6
Continuous
 62
     7
370
    15
100
AcDbLine
 10
454.4080855693
 20
183.6617113851
 30
0.0
 11
448.7080855693
 21
183.6617113851
 31
0.0
  0
LINE
  5
130
330
1F
100
AcDbEntity
  8
0
  6
Continuous
 62
     7
370
    15
100
AcDbLine
 10
454.4080855693
 20
163.6617113851
 30
0.0
 11
454.4080855693
 21
183.6617113851
 31
0.0
  0
LINE
  5
131
330
1F
100
AcDbEntity
  8
0
  6
Continuous
 62
     7
370
    15
100
AcDbLine
 10
448.7080855693
 20
163.6617113851
 30
0.0
 11
454.4080855693
 21
163.6617113851
 31
0.0
  0
LINE
  5
132
330
1F
100
AcDbEntity
  8
0
  6
Continuous
 62
     7
370
    15
100
AcDbLine
 10
448.7080855693
 20
143.6617113851
 30
0.0
 11
448.7080855693
 21
163.6617113851
 31
0.0
  0
LINE
  5
133
330
1F
100
AcDbEntity
  8
0
  6
Continuous
 62
     7
370
    15
100
AcDbLine
 10
454.4080855693
 20
143.6617113851
 30
0.0
 11
448.7080855693
 21
143.6617113851
 31
0.0
  0
LINE
  5
134
330
1F
100
AcDbEntity
  8
0
  6
Continuous
 62
     7
370
    15
100
AcDbLine
 10
454.4080855693
 20
123.6617113851
 30
0.0
 11
454.4080855693
 21
143.6617113851
 31
0.0
  0
LINE
  5
135
330
1F
100
AcDbEntity
  8
0
  6
Continuous
 62
     7
370
    15
100
AcDbLine
 10
448.7080855693
 20
123.6617113851
 30
0.0
 11
454.4080855693
 21
123.6617113851
 31
0.0
  0
LINE
  5
136
330
1F
100
AcDbEntity
  8
0
  6
Continuous
 62
     7
370
    15
100
AcDbLine
 10
448.7080855693
 20
103.6617113851
 30
0.0
 11
448.7080855693
 21
123.6617113851
 31
0.0
  0
LINE
  5
137
330
1F
100
AcDbEntity
  8
0
  6
Continuous
 62
     7
370
    15
100
AcDbLine
 10
454.4080855693
 20
103.6617113851
 30
0.0
 11
448.7080855693
 21
103.6617113851
 31
0.0
  0
LINE
  5
138
330
1F
100
AcDbEntity
  8
0
  6
Continuous
 62
     7
370
    15
100
AcDbLine
 10
454.4080855693
 20
83.6617113851
 30
0.0
 11
454.4080855693
 21
103.6617113851
 31
0.0
  0
LINE
  5
139
330
1F
100
AcDbEntity
  8
0
  6
Continuous
 62
     7
370
    15
100
AcDbLine
 10
448.7080855693
 20
83.6617113851
 30
0.0
 11
454.4080855693
 21
83.6617113851
 31
0.0
  0
LINE
  5
13A
330
1F
100
AcDbEntity
  8
0
  6
Continuous
 62
     7
370
    15
100
AcDbLine
 10
448.7080855693
 20
63.6617113851
 30
0.0
 11
448.7080855693
 21
83.6617113851
 31
0.0
  0
LINE
  5
13B
330
1F
100
AcDbEntity
  8
0
  6
Continuous
 62
     7
370
    15
100
AcDbLine
 10
454.4080855693
 20
63.6617113851
 30
0.0
 11
448.7080855693
 21
63.6617113851
 31
0.0
  0
LINE
  5
13C
330
1F
100
AcDbEntity
  8
0
  6
Continuous
 62
     7
370
    15
100
AcDbLine
 10
454.4080855693
 20
43.6617113851
 30
0.0
 11
454.4080855693
 21
63.6617113851
 31
0.0
  0
LINE
  5
13D
330
1F
100
AcDbEntity
  8
0
  6
Continuous
 62
     7
370
    15
100
AcDbLine
 10
448.7080855693
 20
43.6617113851
 30
0.0
 11
454.4080855693
 21
43.6617113851
 31
0.0
  0
LINE
  5
13E
330
1F
100
AcDbEntity
  8
0
  6
Continuous
 62
     7
370
    15
100
AcDbLine
 10
448.7080855693
 20
23.6617113851
 30
0.0
 11
448.7080855693
 21
43.6617113851
 31
0.0
  0
LINE
  5
13F
330
1F
100
AcDbEntity
  8
0
  6
Continuous
 62
     7
370
    15
100
AcDbLine
 10
454.4080855693
 20
23.6617113851
 30
0.0
 11
448.7080855693
 21
23.6617113851
 31
0.0
  0
LINE
  5
140
330
1F
100
AcDbEntity
  8
0
  6
Continuous
 62
     7
370
    15
100
AcDbLine
 10
454.4080855693
 20
3.6617113851
 30
0.0
 11
454.4080855693
 21
23.6617113851
 31
0.0
  0
LINE
  5
141
330
1F
100
AcDbEntity
  8
0
  6
Continuous
 62
     7
370
    15
100
AcDbLine
 10
438.7080855693
 20
9.3617113851
 30
0.0
 11
438.7080855693
 21
3.6617113851
 31
0.0
  0
LINE
  5
142
330
1F
100
AcDbEntity
  8
0
  6
Continuous
 62
     7
370
    15
100
AcDbLine
 10
438.7080855693
 20
9.3617113851
 30
0.0
 11
428.7080855693
 21
9.3617113851
 31
0.0
  0
LINE
  5
143
330
1F
100
AcDbEntity
  8
0
  6
Continuous
 62
     7
370
    15
100
AcDbLine
 10
18.9080855693
 20
223.6617113851
 30
0.0
 11
4.4080855693
 21
223.6617113851
 31
0.0
  0
LINE
  5
144
330
1F
100
AcDbEntity
  8
0
  6
Continuous
 62
     7
370
    15
100
AcDbLine
 10
454.4080855693
 20
223.6617113851
 30
0.0
 11
439.9080855693
 21
223.6617113851
 31
0.0
  0
LINE
  5
145
330
1F
100
AcDbEntity
  8
0
  6
Continuous
 62
     7
370
    15
100
AcDbLine
 10
4.4080855693
 20
3.6617113851
 30
0.0
 11
20.1080855693
 21
3.6617113851
 31
0.0
  0
LINE
  5
146
330
1F
100
AcDbEntity
  8
0
  6
Continuous
 62
     7
370
    15
100
AcDbLine
 10
10.1080855693
 20
103.6617113851
 30
0.0
 11
10.1080855693
 21
123.6617113851
 31
0.0
  0
LINE
  5
147
330
1F
100
AcDbEntity
  8
0
  6
Continuous
 62
     7
370
    15
100
AcDbLine
 10
10.1080855693
 20
123.6617113851
 30
0.0
 11
4.4080855693
 21
123.6617113851
 31
0.0
  0
LINE
  5
148
330
1F
100
AcDbEntity
  8
0
  6
Continuous
 62
     7
370
    15
100
AcDbLine
 10
438.7080855693
 20
3.6617113851
 30
0.0
 11
454.4080855693
 21
3.6617113851
 31
0.0
  0
LINE
  5
149
330
1F
100
AcDbEntity
  8
0
  6
Continuous
 62
     5
370
    15
100
AcDbLine
 10
529.3356984452
 20
153.798619332
 30
0.0
 11
529.3356984452
 21
148.098619332
 31
0.0
  0
LINE
  5
14A
330
1F
100
AcDbEntity
  8
0
  6
Continuous
 62
     5
370
    15
100
AcDbLine
 10
529.3356984452
 20
148.098619332
 30
0.0
 11
519.3356984452
 21
148.098619332
 31
0.0
  0
LINE
  5
14B
330
1F
100
AcDbEntity
  8
0
  6
Continuous
 62
     5
370
    15
100
AcDbLine
 10
519.3356984452
 20
148.098619332
 30
0.0
 11
519.3356984452
 21
153.798619332
 31
0.0
  0
LINE
  5
14C
330
1F
100
AcDbEntity
  8
0
  6
Continuous
 62
     5
370
    15
100
AcDbLine
 10
519.3356984452
 20
153.798619332
 30
0.0
 11
509.3356984452
 21
153.798619332
 31
0.0
  0
LINE
  5
14D
330
1F
100
AcDbEntity
  8
0
  6
Continuous
 62
     5
370
    15
100
AcDbLine
 10
509.3356984452
 20
153.798619332
 30
0.0
 11
509.3356984452
 21
148.098619332
 31
0.0
  0
LINE
  5
14E
330
1F
100
AcDbEntity
  8
0
  6
Continuous
 62
     5
370
    15
100
AcDbLine
 10
509.3356984452
 20
148.098619332
 30
0.0
 11
499.3356984452
 21
148.098619332
 31
0.0
  0
LINE
  5
14F
330
1F
100
AcDbEntity
  8
0
  6
Continuous
 62
     5
370
    15
100
AcDbLine
 10
499.3356984452
 20
148.098619332
 30
0.0
 11
499.3356984452
 21
153.798619332
 31
0.0
  0
LINE
  5
150
330
1F
100
AcDbEntity
  8
0
  6
Continuous
 62
     5
370
    15
100
AcDbLine
 10
499.3356984452
 20
153.798619332
 30
0.0
 11
489.3356984452
 21
153.798619332
 31
0.0
  0
LINE
  5
151
330
1F
100
AcDbEntity
  8
0
  6
Continuous
 62
     5
370
    15
100
AcDbLine
 10
489.3356984452
 20
153.798619332
 30
0.0
 11
489.3356984452
 21
163.798619332
 31
0.0
  0
LINE
  5
152
330
1F
100
AcDbEntity
  8
0
  6
Continuous
 62
     5
370
    15
100
AcDbLine
 10
489.3356984452
 20
163.798619332
 30
0.0
 11
483.6356984452
 21
163.798619332
 31
0.0
  0
LINE
  5
153
330
1F
100
AcDbEntity
  8
0
  6
Continuous
 62
     5
370
    15
100
AcDbLine
 10
483.6356984452
 20
163.798619332
 30
0.0
 11
483.6356984452
 21
173.798619332
 31
0.0
  0
LINE
  5
154
330
1F
100
AcDbEntity
  8
0
  6
Continuous
 62
     5
370
    15
100
AcDbLine
 10
483.6356984452
 20
173.798619332
 30
0.0
 11
489.3356984452
 21
173.798619332
 31
0.0
  0
LINE
  5
155
330
1F
100
AcDbEntity
  8
0
  6
Continuous
 62
     5
370
    15
100
AcDbLine
 10
489.3356984452
 20
173.798619332
 30
0.0
 11
489.3356984452
 21
183.798619332
 31
0.0
  0
LINE
  5
156
330
1F
100
AcDbEntity
  8
0
  6
Continuous
 62
     5
370
    15
100
AcDbLine
 10
489.3356984452
 20
183.798619332
 30
0.0
 11
483.6356984452
 21
183.798619332
 31
0.0
  0
LINE
  5
157
330
1F
100
AcDbEntity
  8
0
  6
Continuous
 62
     5
370
    15
100
AcDbLine
 10
483.6356984452
 20
183.798619332
 30
0.0
 11
483.6356984452
 21
193.798619332
 31
0.0
  0
LINE
  5
158
330
1F
100
AcDbEntity
  8
0
  6
Continuous
 62
     5
370
    15
100
AcDbLine
 10
483.6356984452
 20
193.798619332
 30
0.0
 11
489.3356984452
 21
193.798619332
 31
0.0
  0
LINE
  5
159
330
1F
100
AcDbEntity
  8
0
  6
Continuous
 62
     5
370
    15
100
AcDbLine
 10
489.3356984452
 20
193.798619332
 30
0.0
 11
529.3356984452
 21
153.798619332
 31
0.0
  0
LINE
  5
15A
330
1F
100
AcDbEntity
  8
0
  6
Continuous
 62
     5
370
    15
100
AcDbLine
 10
515.3168347673
 20
72.5050751772
 30
0.0
 11
515.3168347673
 21
78.2050751772
 31
0.0
  0
LINE
  5
15B
330
1F
100
AcDbEntity
  8
0
  6
Continuous
 62
     5
370
    15
100
AcDbLine
 10
515.3168347673
 20
78.2050751772
 30
0.0
 11
525.3168347673
 21
78.2050751772
 31
0.0
  0
LINE
  5
15C
330
1F
100
AcDbEntity
  8
0
  6
Continuous
 62
     5
370
    15
100
AcDbLine
 10
525.3168347673
 20
78.2050751772
 30
0.0
 11
525.3168347673
 21
72.5050751772
 31
0.0
  0
LINE
  5
15D
330
1F
100
AcDbEntity
  8
0
  6
Continuous
 62
     5
370
    15
100
AcDbLine
 10
525.3168347673
 20
72.5050751772
 30
0.0
 11
535.3168347673
 21
72.5050751772
 31
0.0
  0
LINE
  5
15E
330
1F
100
AcDbEntity
  8
0
  6
Continuous
 62
     5
370
    15
100
AcDbLine
 10
535.3168347673
 20
72.5050751772
 30
0.0
 11
535.3168347673
 21
78.2050751772
 31
0.0
  0
LINE
  5
15F
330
1F
100
AcDbEntity
  8
0
  6
Continuous
 62
     5
370
    15
100
AcDbLine
 10
535.3168347673
 20
78.2050751772
 30
0.0
 11
545.3168347673
 21
78.2050751772
 31
0.0
  0
LINE
  5
160
330
1F
100
AcDbEntity
  8
0
  6
Continuous
 62
     5
370
    15
100
AcDbLine
 10
545.3168347673
 20
78.2050751772
 30
0.0
 11
545.3168347673
 21
72.5050751772
 31
0.0
  0
LINE
  5
161
330
1F
100
AcDbEntity
  8
0
  6
Continuous
 62
     5
370
    15
100
AcDbLine
 10
545.3168347673
 20
72.5050751772
 30
0.0
 11
555.3168347673
 21
72.5050751772
 31
0.0
  0
LINE
  5
162
330
1F
100
AcDbEntity
  8
0
  6
Continuous
 62
     5
370
    15
100
AcDbLine
 10
555.3168347673
 20
72.5050751772
 30
0.0
 11
555.3168347673
 21
62.5050751772
 31
0.0
  0
LINE
  5
163
330
1F
100
AcDbEntity
  8
0
  6
Continuous
 62
     5
370
    15
100
AcDbLine
 10
555.3168347673
 20
62.5050751772
 30
0.0
 11
561.0168347673
 21
62.5050751772
 31
0.0
  0
LINE
  5
164
330
1F
100
AcDbEntity
  8
0
  6
Continuous
 62
     5
370
    15
100
AcDbLine
 10
561.0168347673
 20
62.5050751772
 30
0.0
 11
561.0168347673
 21
52.5050751772
 31
0.0
  0
LINE
  5
165
330
1F
100
AcDbEntity
  8
0
  6
Continuous
 62
     5
370
    15
100
AcDbLine
 10
561.0168347673
 20
52.5050751772
 30
0.0
 11
555.3168347673
 21
52.5050751772
 31
0.0
  0
LINE
  5
166
330
1F
100
AcDbEntity
  8
0
  6
Continuous
 62
     5
370
    15
100
AcDbLine
 10
555.3168347673
 20
52.5050751772
 30
0.0
 11
555.3168347673
 21
42.5050751772
 31
0.0
  0
LINE
  5
167
330
1F
100
AcDbEntity
  8
0
  6
Continuous
 62
     5
370
    15
100
AcDbLine
 10
555.3168347673
 20
42.5050751772
 30
0.0
 11
561.0168347673
 21
42.5050751772
 31
0.0
  0
LINE
  5
168
330
1F
100
AcDbEntity
  8
0
  6
Continuous
 62
     5
370
    15
100
AcDbLine
 10
561.0168347673
 20
42.5050751772
 30
0.0
 11
561.0168347673
 21
32.5050751772
 31
0.0
  0
LINE
  5
169
330
1F
100
AcDbEntity
  8
0
  6
Continuous
 62
     5
370
    15
100
AcDbLine
 10
561.0168347673
 20
32.5050751772
 30
0.0
 11
555.3168347673
 21
32.5050751772
 31
0.0
  0
LINE
  5
16A
330
1F
100
AcDbEntity
  8
0
  6
Continuous
 62
     5
370
    15
100
AcDbLine
 10
555.3168347673
 20
32.5050751772
 30
0.0
 11
515.3168347673
 21
72.5050751772
 31
0.0
  0
LINE
  5
16B
330
1F
100
AcDbEntity
  8
0
  6
Continuous
 62
     5
370
    15
100
AcDbLine
 10
513.8603596486
 20
190.7727357291
 30
0.0
 11
513.8603596486
 21
196.4727357291
 31
0.0
  0
LINE
  5
16C
330
1F
100
AcDbEntity
  8
0
  6
Continuous
 62
     5
370
    15
100
AcDbLine
 10
513.8603596486
 20
196.4727357291
 30
0.0
 11
523.8603596486
 21
196.4727357291
 31
0.0
  0
LINE
  5
16D
330
1F
100
AcDbEntity
  8
0
  6
Continuous
 62
     5
370
    15
100
AcDbLine
 10
523.8603596486
 20
196.4727357291
 30
0.0
 11
523.8603596486
 21
190.7727357291
 31
0.0
  0
LINE
  5
16E
330
1F
100
AcDbEntity
  8
0
  6
Continuous
 62
     5
370
    15
100
AcDbLine
 10
523.8603596486
 20
190.7727357291
 30
0.0
 11
533.8603596486
 21
190.7727357291
 31
0.0
  0
LINE
  5
16F
330
1F
100
AcDbEntity
  8
0
  6
Continuous
 62
     5
370
    15
100
AcDbLine
 10
533.8603596486
 20
190.7727357291
 30
0.0
 11
533.8603596486
 21
196.4727357291
 31
0.0
  0
LINE
  5
170
330
1F
100
AcDbEntity
  8
0
  6
Continuous
 62
     5
370
    15
100
AcDbLine
 10
533.8603596486
 20
196.4727357291
 30
0.0
 11
543.8603596486
 21
196.4727357291
 31
0.0
  0
LINE
  5
171
330
1F
100
AcDbEntity
  8
0
  6
Continuous
 62
     5
370
    15
100
AcDbLine
 10
543.8603596486
 20
196.4727357291
 30
0.0
 11
543.8603596486
 21
190.7727357291
 31
0.0
  0
LINE
  5
172
330
1F
100
AcDbEntity
  8
0
  6
Continuous
 62
     5
370
    15
100
AcDbLine
 10
543.8603596486
 20
190.7727357291
 30
0.0
 11
553.8603596486
 21
190.7727357291
 31
0.0
  0
LINE
  5
173
330
1F
100
AcDbEntity
  8
0
  6
Continuous
 62
     5
370
    15
100
AcDbLine
 10
553.8603596486
 20
190.7727357291
 30
0.0
 11
553.8603596486
 21
180.7727357291
 31
0.0
  0
LINE
  5
174
330
1F
100
AcDbEntity
  8
0
  6
Continuous
 62
     5
370
    15
100
AcDbLine
 10
553.8603596486
 20
180.7727357291
 30
0.0
 11
559.5603596486
 21
180.7727357291
 31
0.0
  0
LINE
  5
175
330
1F
100
AcDbEntity
  8
0
  6
Continuous
 62
     5
370
    15
100
AcDbLine
 10
559.5603596486
 20
180.7727357291
 30
0.0
 11
559.5603596486
 21
170.7727357291
 31
0.0
  0
LINE
  5
176
330
1F
100
AcDbEntity
  8
0
  6
Continuous
 62
     5
370
    15
100
AcDbLine
 10
559.5603596486
 20
170.7727357291
 30
0.0
 11
553.8603596486
 21
170.7727357291
 31
0.0
  0
LINE
  5
177
330
1F
100
AcDbEntity
  8
0
  6
Continuous
 62
     5
370
    15
100
AcDbLine
 10
553.8603596486
 20
170.7727357291
 30
0.0
 11
553.8603596486
 21
160.7727357291
 31
0.0
  0
LINE
  5
178
330
1F
100
AcDbEntity
  8
0
  6
Continuous
 62
     5
370
    15
100
AcDbLine
 10
553.8603596486
 20
160.7727357291
 30
0.0
 11
559.5603596486
 21
160.7727357291
 31
0.0
  0
LINE
  5
179
330
1F
100
AcDbEntity
  8
0
  6
Continuous
 62
     5
370
    15
100
AcDbLine
 10
559.5603596486
 20
160.7727357291
 30
0.0
 11
559.5603596486
 21
150.7727357291
 31
0.0
  0
LINE
  5
17A
330
1F
100
AcDbEntity
  8
0
  6
Continuous
 62
     5
370
    15
100
AcDbLine
 10
559.5603596486
 20
150.7727357291
 30
0.0
 11
553.8603596486
 21
150.7727357291
 31
0.0
  0
LINE
  5
17B
330
1F
100
AcDbEntity
  8
0
  6
Continuous
 62
     5
370
    15
100
AcDbLine
 10
553.8603596486
 20
150.7727357291
 30
0.0
 11
513.8603596486
 21
190.7727357291
 31
0.0
  0
LINE
  5
17C
330
1F
100
AcDbEntity
  8
0
  6
Continuous
 62
     1
370
    15
100
AcDbLine
 10
566.2900096514
 20
148.4070965593
 30
0.0
 11
566.2900096514
 21
198.4070965593
 31
0.0
  0
LINE
  5
17D
330
1F
100
AcDbEntity
  8
0
  6
Continuous
 62
     1
370
    15
100
AcDbLine
 10
566.2900096514
 20
198.4070965593
 30
0.0
 11
561.2900096514
 21
203.4070965593
 31
0.0
  0
LINE
  5
17E
330
1F
100
AcDbEntity
  8
0
  6
Continuous
 62
     1
370
    15
100
AcDbLine
 10
561.2900096514
 20
203.4070965593
 30
0.0
 11
479.8900096514
 21
203.4070965593
 31
0.0
  0
LINE
  5
17F
330
1F
100
AcDbEntity
  8
0
  6
Continuous
 62
     1
370
    15
100
AcDbLine
 10
479.8900096514
 20
203.4070965593
 30
0.0
 11
474.8900096514
 21
198.4070965593
 31
0.0
  0
LINE
  5
180
330
1F
100
AcDbEntity
  8
0
  6
Continuous
 62
     1
370
    15
100
AcDbLine
 10
474.8900096514
 20
198.4070965593
 30
0.0
 11
474.8900096514
 21
148.4070965593
 31
0.0
  0
LINE
  5
181
330
1F
100
AcDbEntity
  8
0
  6
Continuous
 62
     1
370
    15
100
AcDbLine
 10
474.8900096514
 20
148.4070965593
 30
0.0
 11
479.8900096514
 21
143.4070965593
 31
0.0
  0
LINE
  5
182
330
1F
100
AcDbEntity
  8
0
  6
Continuous
 62
     1
370
    15
100
AcDbLine
 10
479.8900096514
 20
143.4070965593
 30
0.0
 11
561.2900096514
 21
143.4070965593
 31
0.0
  0
LINE
  5
183
330
1F
100
AcDbEntity
  8
0
  6
Continuous
 62
     1
370
    15
100
AcDbLine
 10
561.2900096514
 20
143.4070965593
 30
0.0
 11
566.2900096514
 21
148.4070965593
 31
0.0
  0
LINE
  5
184
330
1F
100
AcDbEntity
  8
0
  6
Continuous
 62
     1
370
    15
100
AcDbLine
 10
474.8900096514
 20
78.4070965593
 30
0.0
 11
479.8900096514
 21
83.4070965593
 31
0.0
  0
LINE
  5
185
330
1F
100
AcDbEntity
  8
0
  6
Continuous
 62
     1
370
    15
100
AcDbLine
 10
474.8900096514
 20
28.4070965593
 30
0.0
 11
474.8900096514
 21
78.4070965593
 31
0.0
  0
LINE
  5
186
330
1F
100
AcDbEntity
  8
0
  6
Continuous
 62
     1
370
    15
100
AcDbLine
 10
479.8900096514
 20
23.4070965593
 30
0.0
 11
474.8900096514
 21
28.4070965593
 31
0.0
  0
LINE
  5
187
330
1F
100
AcDbEntity
  8
0
  6
Continuous
 62
     1
370
    15
100
AcDbLine
 10
561.2900096514
 20
23.4070965593
 30
0.0
 11
479.8900096514
 21
23.4070965593
 31
0.0
  0
LINE
  5
188
330
1F
100
AcDbEntity
  8
0
  6
Continuous
 62
     1
370
    15
100
AcDbLine
 10
566.2900096514
 20
28.4070965593
 30
0.0
 11
561.2900096514
 21
23.4070965593
 31
0.0
  0
LINE
  5
189
330
1F
100
AcDbEntity
  8
0
  6
Continuous
 62
     1
370
    15
100
AcDbLine
 10
566.2900096514
 20
78.4070965593
 30
0.0
 11
566.2900096514
 21
28.4070965593
 31
0.0
  0
LINE
  5
18A
330
1F
100
AcDbEntity
  8
0
  6
Continuous
 62
     1
370
    15
100
AcDbLine
 10
561.2900096514
 20
83.4070965593
 30
0.0
 11
566.2900096514
 21
78.4070965593
 31
0.0
  0
LINE
  5
18B
330
1F
100
AcDbEntity
  8
0
  6
Continuous
 62
     1
370
    15
100
AcDbLine
 10
479.8900096514
 20
83.4070965593
 30
0.0
 11
561.2900096514
 21
83.4070965593
 31
0.0
  0
LINE
  5
18C
330
1F
100
AcDbEntity
  8
0
  6
Continuous
 62
     7
370
    15
100
AcDbLine
 10
536.2900096514
 20
9.1070965593
 30
0.0
 11
536.2900096514
 21
3.4070965593
 31
0.0
  0
LINE
  5
18D
330
1F
100
AcDbEntity
  8
0
  6
Continuous
 62
     7
370
    15
100
AcDbLine
 10
536.2900096514
 20
3.4070965593
 30
0.0
 11
504.8900096514
 21
3.4070965593
 31
0.0
  0
LINE
  5
18E
330
1F
100
AcDbEntity
  8
0
  6
Continuous
 62
     7
370
    15
100
AcDbLine
 10
504.8900096514
 20
9.1070965593
 30
0.0
 11
504.8900096514
 21
3.4070965593
 31
0.0
  0
LINE
  5
18F
330
1F
100
AcDbEntity
  8
0
  6
Continuous
 62
     7
370
    15
100
AcDbLine
 10
504.8900096514
 20
9.1070965593
 30
0.0
 11
494.8900096514
 21
9.1070965593
 31
0.0
  0
LINE
  5
190
330
1F
100
AcDbEntity
  8
0
  6
Continuous
 62
     7
370
    15
100
AcDbLine
 10
494.8900096514
 20
9.1070965593
 30
0.0
 11
494.8900096514
 21
3.4070965593
 31
0.0
  0
LINE
  5
191
330
1F
100
AcDbEntity
  8
0
  6
Continuous
 62
     7
370
    15
100
AcDbLine
 10
484.8900096514
 20
9.1070965593
 30
0.0
 11
484.8900096514
 21
3.4070965593
 31
0.0
  0
LINE
  5
192
330
1F
100
AcDbEntity
  8
0
  6
Continuous
 62
     7
370
    15
100
AcDbLine
 10
484.8900096514
 20
9.1070965593
 30
0.0
 11
474.8900096514
 21
9.1070965593
 31
0.0
  0
LINE
  5
193
330
1F
100
AcDbEntity
  8
0
  6
Continuous
 62
     7
370
    15
100
AcDbLine
 10
474.8900096514
 20
9.1070965593
 30
0.0
 11
474.8900096514
 21
3.4070965593
 31
0.0
  0
LINE
  5
194
330
1F
100
AcDbEntity
  8
0
  6
Continuous
 62
     7
370
    15
100
AcDbLine
 10
464.8900096514
 20
3.4070965593
 30
0.0
 11
464.8900096514
 21
23.4070965593
 31
0.0
  0
LINE
  5
195
330
1F
100
AcDbEntity
  8
0
  6
Continuous
 62
     7
370
    15
100
AcDbLine
 10
464.8900096514
 20
23.4070965593
 30
0.0
 11
459.1900096514
 21
23.4070965593
 31
0.0
  0
LINE
  5
196
330
1F
100
AcDbEntity
  8
0
  6
Continuous
 62
     7
370
    15
100
AcDbLine
 10
459.1900096514
 20
23.4070965593
 30
0.0
 11
459.1900096514
 21
43.4070965593
 31
0.0
  0
LINE
  5
197
330
1F
100
AcDbEntity
  8
0
  6
Continuous
 62
     7
370
    15
100
AcDbLine
 10
459.1900096514
 20
43.4070965593
 30
0.0
 11
464.8900096514
 21
43.4070965593
 31
0.0
  0
LINE
  5
198
330
1F
100
AcDbEntity
  8
0
  6
Continuous
 62
     7
370
    15
100
AcDbLine
 10
464.8900096514
 20
43.4070965593
 30
0.0
 11
464.8900096514
 21
63.4070965593
 31
0.0
  0
LINE
  5
199
330
1F
100
AcDbEntity
  8
0
  6
Continuous
 62
     7
370
    15
100
AcDbLine
 10
464.8900096514
 20
63.4070965593
 30
0.0
 11
459.1900096514
 21
63.4070965593
 31
0.0
  0
LINE
  5
19A
330
1F
100
AcDbEntity
  8
0
  6
Continuous
 62
     7
370
    15
100
AcDbLine
 10
459.1900096514
 20
63.4070965593
 30
0.0
 11
459.1900096514
 21
83.4070965593
 31
0.0
  0
LINE
  5
19B
330
1F
100
AcDbEntity
  8
0
  6
Continuous
 62
     7
370
    15
100
AcDbLine
 10
459.1900096514
 20
83.4070965593
 30
0.0
 11
464.8900096514
 21
83.4070965593
 31
0.0
  0
LINE
  5
19C
330
1F
100
AcDbEntity
  8
0
  6
Continuous
 62
     7
370
    15
100
AcDbLine
 10
464.8900096514
 20
83.4070965593
 30
0.0
 11
464.8900096514
 21
103.4070965593
 31
0.0
  0
LINE
  5
19D
330
1F
100
AcDbEntity
  8
0
  6
Continuous
 62
     7
370
    15
100
AcDbLine
 10
464.8900096514
 20
103.4070965593
 30
0.0
 11
459.1900096514
 21
103.4070965593
 31
0.0
  0
LINE
  5
19E
330
1F
100
AcDbEntity
  8
0
  6
Continuous
 62
     7
370
    15
100
AcDbLine
 10
459.1900096514
 20
103.4070965593
 30
0.0
 11
459.1900096514
 21
123.4070965593
 31
0.0
  0
LINE
  5
19F
330
1F
100
AcDbEntity
  8
0
  6
Continuous
 62
     7
370
    15
100
AcDbLine
 10
459.1900096514
 20
123.4070965593
 30
0.0
 11
464.8900096514
 21
123.4070965593
 31
0.0
  0
LINE
  5
1A0
330
1F
100
AcDbEntity
  8
0
  6
Continuous
 62
     7
370
    15
100
AcDbLine
 10
464.8900096514
 20
123.4070965593
 30
0.0
 11
464.8900096514
 21
143.4070965593
 31
0.0
  0
LINE
  5
1A1
330
1F
100
AcDbEntity
  8
0
  6
Continuous
 62
     7
370
    15
100
AcDbLine
 10
464.8900096514
 20
143.4070965593
 30
0.0
 11
459.1900096514
 21
143.4070965593
 31
0.0
  0
LINE
  5
1A2
330
1F
100
AcDbEntity
  8
0
  6
Continuous
 62
     7
370
    15
100
AcDbLine
 10
459.1900096514
 20
143.4070965593
 30
0.0
 11
459.1900096514
 21
163.4070965593
 31
0.0
  0
LINE
  5
1A3
330
1F
100
AcDbEntity
  8
0
  6
Continuous
 62
     7
370
    15
100
AcDbLine
 10
459.1900096514
 20
163.4070965593
 30
0.0
 11
464.8900096514
 21
163.4070965593
 31
0.0
  0
LINE
  5
1A4
330
1F
100
AcDbEntity
  8
0
  6
Continuous
 62
     7
370
    15
100
AcDbLine
 10
464.8900096514
 20
163.4070965593
 30
0.0
 11
464.8900096514
 21
183.4070965593
 31
0.0
  0
LINE
  5
1A5
330
1F
100
AcDbEntity
  8
0
  6
Continuous
 62
     7
370
    15
100
AcDbLine
 10
464.8900096514
 20
183.4070965593
 30
0.0
 11
459.1900096514
 21
183.4070965593
 31
0.0
  0
LINE
  5
1A6
330
1F
100
AcDbEntity
  8
0
  6
Continuous
 62
     7
370
    15
100
AcDbLine
 10
459.1900096514
 20
183.4070965593
 30
0.0
 11
459.1900096514
 21
203.4070965593
 31
0.0
  0
LINE
  5
1A7
330
1F
100
AcDbEntity
  8
0
  6
Continuous
 62
     7
370
    15
100
AcDbLine
 10
459.1900096514
 20
203.4070965593
 30
0.0
 11
464.8900096514
 21
203.4070965593
 31
0.0
  0
LINE
  5
1A8
330
1F
100
AcDbEntity
  8
0
  6
Continuous
 62
     7
370
    15
100
AcDbLine
 10
464.8900096514
 20
203.4070965593
 30
0.0
 11
464.8900096514
 21
223.4070965593
 31
0.0
  0
LINE
  5
1A9
330
1F
100
AcDbEntity
  8
0
  6
Continuous
 62
     7
370
    15
100
AcDbLine
 10
464.8900096514
 20
223.4070965593
 30
0.0
 11
576.2900096514
 21
223.4070965593
 31
0.0
  0
LINE
  5
1AA
330
1F
100
AcDbEntity
  8
0
  6
Continuous
 62
     7
370
    15
100
AcDbLine
 10
576.2900096514
 20
203.4070965593
 30
0.0
 11
576.2900096514
 21
223.4070965593
 31
0.0
  0
LINE
  5
1AB
330
1F
100
AcDbEntity
  8
0
  6
Continuous
 62
     7
370
    15
100
AcDbLine
 10
581.9900096514
 20
203.4070965593
 30
0.0
 11
576.2900096514
 21
203.4070965593
 31
0.0
  0
LINE
  5
1AC
330
1F
100
AcDbEntity
  8
0
  6
Continuous
 62
     7
370
    15
100
AcDbLine
 10
581.9900096514
 20
203.4070965593
 30
0.0
 11
581.9900096514
 21
183.4070965593
 31
0.0
  0
LINE
  5
1AD
330
1F
100
AcDbEntity
  8
0
  6
Continuous
 62
     7
370
    15
100
AcDbLine
 10
576.2900096514
 20
183.4070965593
 30
0.0
 11
581.9900096514
 21
183.4070965593
 31
0.0
  0
LINE
  5
1AE
330
1F
100
AcDbEntity
  8
0
  6
Continuous
 62
     7
370
    15
100
AcDbLine
 10
576.2900096514
 20
163.4070965593
 30
0.0
 11
576.2900096514
 21
183.4070965593
 31
0.0
  0
LINE
  5
1AF
330
1F
100
AcDbEntity
  8
0
  6
Continuous
 62
     7
370
    15
100
AcDbLine
 10
581.9900096514
 20
163.4070965593
 30
0.0
 11
576.2900096514
 21
163.4070965593
 31
0.0
  0
LINE
  5
1B0
330
1F
100
AcDbEntity
  8
0
  6
Continuous
 62
     7
370
    15
100
AcDbLine
 10
581.9900096514
 20
163.4070965593
 30
0.0
 11
581.9900096514
 21
143.4070965593
 31
0.0
  0
LINE
  5
1B1
330
1F
100
AcDbEntity
  8
0
  6
Continuous
 62
     7
370
    15
100
AcDbLine
 10
576.2900096514
 20
143.4070965593
 30
0.0
 11
581.9900096514
 21
143.4070965593
 31
0.0
  0
LINE
  5
1B2
330
1F
100
AcDbEntity
  8
0
  6
Continuous
 62
     7
370
    15
100
AcDbLine
 10
576.2900096514
 20
123.4070965593
 30
0.0
 11
576.2900096514
 21
143.4070965593
 31
0.0
  0
LINE
  5
1B3
330
1F
100
AcDbEntity
  8
0
  6
Continuous
 62
     7
370
    15
100
AcDbLine
 10
581.9900096514
 20
123.4070965593
 30
0.0
 11
576.2900096514
 21
123.4070965593
 31
0.0
  0
LINE
  5
1B4
330
1F
100
AcDbEntity
  8
0
  6
Continuous
 62
     7
370
    15
100
AcDbLine
 10
581.9900096514
 20
123.4070965593
 30
0.0
 11
581.9900096514
 21
103.4070965593
 31
0.0
  0
LINE
  5
1B5
330
1F
100
AcDbEntity
  8
0
  6
Continuous
 62
     7
370
    15
100
AcDbLine
 10
576.2900096514
 20
103.4070965593
 30
0.0
 11
581.9900096514
 21
103.4070965593
 31
0.0
  0
LINE
  5
1B6
330
1F
100
AcDbEntity
  8
0
  6
Continuous
 62
     7
370
    15
100
AcDbLine
 10
576.2900096514
 20
83.4070965593
 30
0.0
 11
576.2900096514
 21
103.4070965593
 31
0.0
  0
LINE
  5
1B7
330
1F
100
AcDbEntity
  8
0
  6
Continuous
 62
     7
370
    15
100
AcDbLine
 10
581.9900096514
 20
83.4070965593
 30
0.0
 11
576.2900096514
 21
83.4070965593
 31
0.0
  0
LINE
  5
1B8
330
1F
100
AcDbEntity
  8
0
  6
Continuous
 62
     7
370
    15
100
AcDbLine
 10
581.9900096514
 20
83.4070965593
 30
0.0
 11
581.9900096514
 21
63.4070965593
 31
0.0
  0
LINE
  5
1B9
330
1F
100
AcDbEntity
  8
0
  6
Continuous
 62
     7
370
    15
100
AcDbLine
 10
576.2900096514
 20
63.4070965593
 30
0.0
 11
581.9900096514
 21
63.4070965593
 31
0.0
  0
LINE
  5
1BA
330
1F
100
AcDbEntity
  8
0
  6
Continuous
 62
     7
370
    15
100
AcDbLine
 10
576.2900096514
 20
43.4070965593
 30
0.0
 11
576.2900096514
 21
63.4070965593
 31
0.0
  0
LINE
  5
1BB
330
1F
100
AcDbEntity
  8
0
  6
Continuous
 62
     7
370
    15
100
AcDbLine
 10
581.9900096514
 20
43.4070965593
 30
0.0
 11
576.2900096514
 21
43.4070965593
 31
0.0
  0
LINE
  5
1BC
330
1F
100
AcDbEntity
  8
0
  6
Continuous
 62
     7
370
    15
100
AcDbLine
 10
581.9900096514
 20
43.4070965593
 30
0.0
 11
581.9900096514
 21
23.4070965593
 31
0.0
  0
LINE
  5
1BD
330
1F
100
AcDbEntity
  8
0
  6
Continuous
 62
     7
370
    15
100
AcDbLine
 10
576.2900096514
 20
23.4070965593
 30
0.0
 11
581.9900096514
 21
23.4070965593
 31
0.0
  0
LINE
  5
1BE
330
1F
100
AcDbEntity
  8
0
  6
Continuous
 62
     7
370
    15
100
AcDbLine
 10
576.2900096514
 20
3.4070965593
 30
0.0
 11
576.2900096514
 21
23.4070965593
 31
0.0
  0
LINE
  5
1BF
330
1F
100
AcDbEntity
  8
0
  6
Continuous
 62
     7
370
    15
100
AcDbLine
 10
566.2900096514
 20
9.1070965593
 30
0.0
 11
566.2900096514
 21
3.4070965593
 31
0.0
  0
LINE
  5
1C0
330
1F
100
AcDbEntity
  8
0
  6
Continuous
 62
     7
370
    15
100
AcDbLine
 10
556.2900096514
 20
9.1070965593
 30
0.0
 11
566.2900096514
 21
9.1070965593
 31
0.0
  0
LINE
  5
1C1
330
1F
100
AcDbEntity
  8
0
  6
Continuous
 62
     7
370
    15
100
AcDbLine
 10
556.2900096514
 20
9.1070965593
 30
0.0
 11
556.2900096514
 21
3.4070965593
 31
0.0
  0
LINE
  5
1C2
330
1F
100
AcDbEntity
  8
0
  6
Continuous
 62
     7
370
    15
100
AcDbLine
 10
546.2900096514
 20
9.1070965593
 30
0.0
 11
546.2900096514
 21
3.4070965593
 31
0.0
  0
LINE
  5
1C3
330
1F
100
AcDbEntity
  8
0
  6
Continuous
 62
     7
370
    15
100
AcDbLine
 10
536.2900096514
 20
9.1070965593
 30
0.0
 11
546.2900096514
 21
9.1070965593
 31
0.0
  0
LINE
  5
1C4
330
1F
100
AcDbEntity
  8
0
  6
Continuous
 62
     7
370
    15
100
AcDbLine
 10
494.8900096514
 20
3.4070965593
 30
0.0
 11
484.8900096514
 21
3.4070965593
 31
0.0
  0
LINE
  5
1C5
330
1F
100
AcDbEntity
  8
0
  6
Continuous
 62
     7
370
    15
100
AcDbLine
 10
474.8900096514
 20
3.4070965593
 30
0.0
 11
464.8900096514
 21
3.4070965593
 31
0.0
  0
LINE
  5
1C6
330
1F
100
AcDbEntity
  8
0
  6
Continuous
 62
     7
370
    15
100
AcDbLine
 10
576.2900096514
 20
3.4070965593
 30
0.0
 11
566.2900096514
 21
3.4070965593
 31
0.0
  0
LINE
  5
1C7
330
1F
100
AcDbEntity
  8
0
  6
Continuous
 62
     7
370
    15
100
AcDbLine
 10
556.2900096514
 20
3.4070965593
 30
0.0
 11
546.2900096514
 21
3.4070965593
 31
0.0
  0
MTEXT
  5
1C9
330
1F
100
AcDbEntity
  8
0
  6
Continuous
 62
     7
100
AcDbMText
 10
0.0
 20
21.7128923541
 30
0.0
 40
7.785
 41
0.0
 71
     1
 72
     1
  1
SolidWorks Educational Edition.
  7
SLDTEXTSTYLE0
 73
     1
 44
1.0
  0
MTEXT
  5
1CA
330
1F
100
AcDbEntity
  8
0
  6
Continuous
 62
     7
100
AcDbMText
 10
0.0
 20
10.0353923541
 30
0.0
 40
7.785
 41
0.0
 71
     1
 72
     1
  1
For Instructional Use Only.
  7
SLDTEXTSTYLE0
 73
     1
 44
1.0
  0
ENDSEC
  0
SECTION
  2
OBJECTS
  0
DICTIONARY
  5
C
330
0
100
AcDbDictionary
281
     1
  3
ACAD_GROUP
350
D
  3
ACAD_LAYOUT
350
1A
  3
ACAD_MLINESTYLE
350
17
  3
ACAD_PLOTSETTINGS
350
19
  3
ACAD_PLOTSTYLENAME
350
E
  0
DICTIONARY
  5
D
102
{ACAD_REACTORS
330
C
102
}
330
C
100
AcDbDictionary
281
     1
  0
DICTIONARY
  5
1A
102
{ACAD_REACTORS
330
C
102
}
330
C
100
AcDbDictionary
281
     1
  3
Layout1
350
1E
  3
Layout2
350
26
  3
Model
350
22
  0
DICTIONARY
  5
17
102
{ACAD_REACTORS
330
C
102
}
330
C
100
AcDbDictionary
281
     1
  3
Standard
350
18
  0
DICTIONARY
  5
19
102
{ACAD_REACTORS
330
C
102
}
330
C
100
AcDbDictionary
281
     1
  0
ACDBDICTIONARYWDFLT
  5
E
102
{ACAD_REACTORS
330
C
102
}
330
C
100
AcDbDictionary
281
     1
  3
Normal
350
F
100
AcDbDictionaryWithDefault
340
F
  0
LAYOUT
  5
1E
102
{ACAD_REACTORS
330
1A
102
}
330
1A
100
AcDbPlotSettings
  1

  2
none_device
  4

  6

 40
0.0
 41
0.0
 42
0.0
 43
0.0
 44
0.0
 45
0.0
 46
0.0
 47
0.0
 48
0.0
 49
0.0
140
0.0
141
0.0
142
1.0
143
1.0
 70
   688
 72
     0
 73
     0
 74
     5
  7

 75
    16
147
1.0
148
0.0
149
0.0
100
AcDbLayout
  1
Layout1
 70
     1
 71
     1
 10
0.0
 20
0.0
 11
420.0
 21
297.0
 12
0.0
 22
0.0
 32
0.0
 14
1.0000000000E+20
 24
1.0000000000E+20
 34
1.0000000000E+20
 15
-1.0000000000E+20
 25
-1.0000000000E+20
 35
-1.0000000000E+20
146
0.0
 13
0.0
 23
0.0
 33
0.0
 16
1.0
 26
0.0
 36
0.0
 17
0.0
 27
1.0
 37
0.0
 76
     0
330
1B
  0
LAYOUT
  5
26
102
{ACAD_REACTORS
330
1A
102
}
330
1A
100
AcDbPlotSettings
  1

  2
none_device
  4

  6

 40
0.0
 41
0.0
 42
0.0
 43
0.0
 44
0.0
 45
0.0
 46
0.0
 47
0.0
 48
0.0
 49
0.0
140
0.0
141
0.0
142
1.0
143
1.0
 70
   688
 72
     0
 73
     0
 74
     5
  7

 75
    16
147
1.0
148
0.0
149
0.0
100
AcDbLayout
  1
Layout2
 70
     1
 71
     2
 10
0.0
 20
0.0
 11
0.0
 21
0.0
 12
0.0
 22
0.0
 32
0.0
 14
0.0
 24
0.0
 34
0.0
 15
0.0
 25
0.0
 35
0.0
146
0.0
 13
0.0
 23
0.0
 33
0.0
 16
1.0
 26
0.0
 36
0.0
 17
0.0
 27
1.0
 37
0.0
 76
     0
330
23
  0
LAYOUT
  5
22
102
{ACAD_REACTORS
330
1A
102
}
330
1A
100
AcDbPlotSettings
  1

  2
none_device
  4

  6

 40
0.0
 41
0.0
 42
0.0
 43
0.0
 44
0.0
 45
0.0
 46
0.0
 47
0.0
 48
0.0
 49
0.0
140
0.0
141
0.0
142
1.0
143
1.0
 70
  1712
 72
     0
 73
     0
 74
     0
  7

 75
     0
147
1.0
148
0.0
149
0.0
100
AcDbLayout
  1
Model
 70
     1
 71
     0
 10
0.0
 20
0.0
 11
600.0
 21
450.0
 12
0.0
 22
0.0
 32
0.0
 14
0.0
 24
0.0
 34
0.0
 15
600.0
 25
450.0
 35
0.0
146
0.0
 13
0.0
 23
0.0
 33
0.0
 16
1.0
 26
0.0
 36
0.0
 17
0.0
 27
1.0
 37
0.0
 76
     0
330
1F
331
29
  0
MLINESTYLE
  5
18
102
{ACAD_REACTORS
330
17
102
}
330
17
100
AcDbMlineStyle
  2
Standard
 70
     0
  3

 62
   256
 51
90.0
 52
90.0
 71
     2
 49
0.5
 62
   256
  6
BYLAYER
 49
-0.5
 62
   256
  6
BYLAYER
  0
ACDBPLACEHOLDER
  5
F
102
{ACAD_REACTORS
330
E
102
}
330
E
  0
ENDSEC
  0
EOF
