  0
SECTION
  2
HEADER
  9
$ACADVER
  1
AC1027
  9
$ACADMAINTVER
 70
     8
  9
$DWGCODEPAGE
  3
ANSI_1252
  9
$REQUIREDVERSIONS
160
                 0
  9
$LASTSAVEDBY
  1
Ian
  9
$INSBASE
 10
0.0
 20
0.0
 30
0.0
  9
$EXTMIN
 10
5267.798599803225
 20
160.5451861069476
 30
-0.0000000002714273
  9
$EXTMAX
 10
5544.254031848272
 20
363.0451861069477
 30
0.0000000002714273
  9
$LIMMIN
 10
0.0
 20
0.0
  9
$LIMMAX
 10
12.0
 20
9.0
  9
$ORTHOMODE
 70
     0
  9
$REGENMODE
 70
     1
  9
$FILLMODE
 70
     1
  9
$QTEXTMODE
 70
     0
  9
$MIRRTEXT
 70
     1
  9
$LTSCALE
 40
1.0
  9
$ATTMODE
 70
     1
  9
$TEXTSIZE
 40
0.2
  9
$TRACEWID
 40
0.05
  9
$TEXTSTYLE
  7
STANDARD
  9
$CLAYER
  8
DEFAULT
  9
$CELTYPE
  6
BYLAYER
  9
$CECOLOR
 62
   256
  9
$CELTSCALE
 40
1.0
  9
$DISPSILH
 70
     0
  9
$DIMSCALE
 40
1.0
  9
$DIMASZ
 40
0.18
  9
$DIMEXO
 40
0.0625
  9
$DIMDLI
 40
0.38
  9
$DIMRND
 40
0.0
  9
$DIMDLE
 40
0.0
  9
$DIMEXE
 40
0.18
  9
$DIMTP
 40
0.0
  9
$DIMTM
 40
0.0
  9
$DIMTXT
 40
0.18
  9
$DIMCEN
 40
0.09
  9
$DIMTSZ
 40
0.0
  9
$DIMTOL
 70
     0
  9
$DIMLIM
 70
     0
  9
$DIMTIH
 70
     1
  9
$DIMTOH
 70
     1
  9
$DIMSE1
 70
     0
  9
$DIMSE2
 70
     0
  9
$DIMTAD
 70
     0
  9
$DIMZIN
 70
     0
  9
$DIMBLK
  1

  9
$DIMASO
 70
     1
  9
$DIMSHO
 70
     1
  9
$DIMPOST
  1

  9
$DIMAPOST
  1

  9
$DIMALT
 70
     0
  9
$DIMALTD
 70
     2
  9
$DIMALTF
 40
25.4
  9
$DIMLFAC
 40
1.0
  9
$DIMTOFL
 70
     0
  9
$DIMTVP
 40
0.0
  9
$DIMTIX
 70
     0
  9
$DIMSOXD
 70
     0
  9
$DIMSAH
 70
     0
  9
$DIMBLK1
  1

  9
$DIMBLK2
  1

  9
$DIMSTYLE
  2
STANDARD
  9
$DIMCLRD
 70
     0
  9
$DIMCLRE
 70
     0
  9
$DIMCLRT
 70
     0
  9
$DIMTFAC
 40
1.0
  9
$DIMGAP
 40
0.09
  9
$DIMJUST
 70
     0
  9
$DIMSD1
 70
     0
  9
$DIMSD2
 70
     0
  9
$DIMTOLJ
 70
     1
  9
$DIMTZIN
 70
     0
  9
$DIMALTZ
 70
     0
  9
$DIMALTTZ
 70
     0
  9
$DIMUPT
 70
     0
  9
$DIMDEC
 70
     4
  9
$DIMTDEC
 70
     4
  9
$DIMALTU
 70
     2
  9
$DIMALTTD
 70
     2
  9
$DIMTXSTY
  7
STANDARD
  9
$DIMAUNIT
 70
     0
  9
$DIMADEC
 70
     0
  9
$DIMALTRND
 40
0.0
  9
$DIMAZIN
 70
     0
  9
$DIMDSEP
 70
    46
  9
$DIMATFIT
 70
     3
  9
$DIMFRAC
 70
     0
  9
$DIMLDRBLK
  1

  9
$DIMLUNIT
 70
     2
  9
$DIMLWD
 70
    -2
  9
$DIMLWE
 70
    -2
  9
$DIMTMOVE
 70
     2
  9
$DIMFXL
 40
1.0
  9
$DIMFXLON
 70
     0
  9
$DIMJOGANG
 40
0.7853981633974483
  9
$DIMTFILL
 70
     0
  9
$DIMTFILLCLR
 70
     0
  9
$DIMARCSYM
 70
     0
  9
$DIMLTYPE
  6

  9
$DIMLTEX1
  6

  9
$DIMLTEX2
  6

  9
$DIMTXTDIRECTION
 70
     0
  9
$LUNITS
 70
     2
  9
$LUPREC
 70
     2
  9
$SKETCHINC
 40
0.1
  9
$FILLETRAD
 40
0.5
  9
$AUNITS
 70
     0
  9
$AUPREC
 70
     0
  9
$MENU
  1
.
  9
$ELEVATION
 40
0.0
  9
$PELEVATION
 40
0.0
  9
$THICKNESS
 40
0.0
  9
$LIMCHECK
 70
     0
  9
$CHAMFERA
 40
0.0
  9
$CHAMFERB
 40
0.0
  9
$CHAMFERC
 40
0.0
  9
$CHAMFERD
 40
0.0
  9
$SKPOLY
 70
     0
  9
$TDCREATE
 40
2457162.66583125
  9
$TDUCREATE
 40
2457162.874164583
  9
$TDUPDATE
 40
2457192.105173588
  9
$TDUUPDATE
 40
2457192.313506921
  9
$TDINDWG
 40
0.0016020833
  9
$TDUSRTIMER
 40
2457192.311527836
  9
$USRTIMER
 70
     1
  9
$ANGBASE
 50
0.0
  9
$ANGDIR
 70
     0
  9
$PDMODE
 70
     0
  9
$PDSIZE
 40
0.0
  9
$PLINEWID
 40
0.0
  9
$SPLFRAME
 70
     0
  9
$SPLINETYPE
 70
     6
  9
$SPLINESEGS
 70
     8
  9
$HANDSEED
  5
403
  9
$SURFTAB1
 70
     6
  9
$SURFTAB2
 70
     6
  9
$SURFTYPE
 70
     6
  9
$SURFU
 70
     6
  9
$SURFV
 70
     6
  9
$UCSBASE
  2

  9
$UCSNAME
  2

  9
$UCSORG
 10
0.0
 20
0.0
 30
0.0
  9
$UCSXDIR
 10
1.0
 20
0.0
 30
0.0
  9
$UCSYDIR
 10
0.0
 20
1.0
 30
0.0
  9
$UCSORTHOREF
  2

  9
$UCSORTHOVIEW
 70
     0
  9
$UCSORGTOP
 10
0.0
 20
0.0
 30
0.0
  9
$UCSORGBOTTOM
 10
0.0
 20
0.0
 30
0.0
  9
$UCSORGLEFT
 10
0.0
 20
0.0
 30
0.0
  9
$UCSORGRIGHT
 10
0.0
 20
0.0
 30
0.0
  9
$UCSORGFRONT
 10
0.0
 20
0.0
 30
0.0
  9
$UCSORGBACK
 10
0.0
 20
0.0
 30
0.0
  9
$PUCSBASE
  2

  9
$PUCSNAME
  2

  9
$PUCSORG
 10
0.0
 20
0.0
 30
0.0
  9
$PUCSXDIR
 10
1.0
 20
0.0
 30
0.0
  9
$PUCSYDIR
 10
0.0
 20
1.0
 30
0.0
  9
$PUCSORTHOREF
  2

  9
$PUCSORTHOVIEW
 70
     0
  9
$PUCSORGTOP
 10
0.0
 20
0.0
 30
0.0
  9
$PUCSORGBOTTOM
 10
0.0
 20
0.0
 30
0.0
  9
$PUCSORGLEFT
 10
0.0
 20
0.0
 30
0.0
  9
$PUCSORGRIGHT
 10
0.0
 20
0.0
 30
0.0
  9
$PUCSORGFRONT
 10
0.0
 20
0.0
 30
0.0
  9
$PUCSORGBACK
 10
0.0
 20
0.0
 30
0.0
  9
$USERI1
 70
     0
  9
$USERI2
 70
     0
  9
$USERI3
 70
     0
  9
$USERI4
 70
     0
  9
$USERI5
 70
     0
  9
$USERR1
 40
0.0
  9
$USERR2
 40
0.0
  9
$USERR3
 40
0.0
  9
$USERR4
 40
0.0
  9
$USERR5
 40
0.0
  9
$WORLDVIEW
 70
     1
  9
$SHADEDGE
 70
     3
  9
$SHADEDIF
 70
    70
  9
$TILEMODE
 70
     1
  9
$MAXACTVP
 70
    64
  9
$PINSBASE
 10
0.0
 20
0.0
 30
0.0
  9
$PLIMCHECK
 70
     0
  9
$PEXTMIN
 10
1.000000000000000E+20
 20
1.000000000000000E+20
 30
1.000000000000000E+20
  9
$PEXTMAX
 10
-1.000000000000000E+20
 20
-1.000000000000000E+20
 30
-1.000000000000000E+20
  9
$PLIMMIN
 10
0.0
 20
0.0
  9
$PLIMMAX
 10
0.0
 20
0.0
  9
$UNITMODE
 70
     0
  9
$VISRETAIN
 70
     1
  9
$PLINEGEN
 70
     0
  9
$PSLTSCALE
 70
     1
  9
$TREEDEPTH
 70
  3020
  9
$CMLSTYLE
  2
STANDARD
  9
$CMLJUST
 70
     0
  9
$CMLSCALE
 40
1.0
  9
$PROXYGRAPHICS
 70
     1
  9
$MEASUREMENT
 70
     0
  9
$CELWEIGHT
370
    -1
  9
$ENDCAPS
280
     0
  9
$JOINSTYLE
280
     0
  9
$LWDISPLAY
290
     0
  9
$INSUNITS
 70
     4
  9
$HYPERLINKBASE
  1

  9
$STYLESHEET
  1

  9
$XEDIT
290
     1
  9
$CEPSNTYPE
380
     0
  9
$PSTYLEMODE
290
     1
  9
$FINGERPRINTGUID
  2
{991519B6-564E-428F-BD52-AFA12D5A6495}
  9
$VERSIONGUID
  2
{FAEB1C32-E019-11D5-929B-00C0DF256EC4}
  9
$EXTNAMES
290
     1
  9
$PSVPSCALE
 40
0.0
  9
$OLESTARTUP
290
     0
  9
$SORTENTS
280
   127
  9
$INDEXCTL
280
     0
  9
$HIDETEXT
280
     1
  9
$XCLIPFRAME
280
     2
  9
$HALOGAP
280
     0
  9
$OBSCOLOR
 70
   257
  9
$OBSLTYPE
280
     0
  9
$INTERSECTIONDISPLAY
280
     0
  9
$INTERSECTIONCOLOR
 70
   257
  9
$DIMASSOC
280
     2
  9
$PROJECTNAME
  1

  9
$CAMERADISPLAY
290
     0
  9
$LENSLENGTH
 40
50.0
  9
$CAMERAHEIGHT
 40
0.0
  9
$STEPSPERSEC
 40
2.0
  9
$STEPSIZE
 40
6.0
  9
$3DDWFPREC
 40
2.0
  9
$PSOLWIDTH
 40
0.25
  9
$PSOLHEIGHT
 40
4.0
  9
$LOFTANG1
 40
1.570796326794897
  9
$LOFTANG2
 40
1.570796326794897
  9
$LOFTMAG1
 40
0.0
  9
$LOFTMAG2
 40
0.0
  9
$LOFTPARAM
 70
     7
  9
$LOFTNORMALS
280
     1
  9
$LATITUDE
 40
37.795
  9
$LONGITUDE
 40
-122.394
  9
$NORTHDIRECTION
 40
0.0
  9
$TIMEZONE
 70
 -8000
  9
$LIGHTGLYPHDISPLAY
280
     1
  9
$TILEMODELIGHTSYNCH
280
     1
  9
$SOLIDHIST
280
     0
  9
$SHOWHIST
280
     1
  9
$DWFFRAME
280
     2
  9
$DGNFRAME
280
     2
  9
$REALWORLDSCALE
290
     1
  9
$INTERFERECOLOR
 62
   256
  9
$CSHADOW
280
     0
  9
$SHADOWPLANELOCATION
 40
0.0
  0
ENDSEC
  0
SECTION
  2
CLASSES
  0
CLASS
  1
ACDBDICTIONARYWDFLT
  2
AcDbDictionaryWithDefault
  3
ObjectDBX Classes
 90
        0
 91
        5
280
     0
281
     0
  0
CLASS
  1
VISUALSTYLE
  2
AcDbVisualStyle
  3
ObjectDBX Classes
 90
     4095
 91
        5
280
     0
281
     0
  0
CLASS
  1
MATERIAL
  2
AcDbMaterial
  3
ObjectDBX Classes
 90
     1153
 91
        5
280
     0
281
     0
  0
CLASS
  1
SCALE
  2
AcDbScale
  3
ObjectDBX Classes
 90
     1153
 91
        5
280
     0
281
     0
  0
CLASS
  1
TABLESTYLE
  2
AcDbTableStyle
  3
ObjectDBX Classes
 90
     4095
 91
        5
280
     0
281
     0
  0
CLASS
  1
MLEADERSTYLE
  2
AcDbMLeaderStyle
  3
ACDB_MLEADERSTYLE_CLASS
 90
     4095
 91
        5
280
     0
281
     0
  0
CLASS
  1
SUN
  2
AcDbSun
  3
SCENEOE
 90
     1153
 91
        5
280
     0
281
     0
  0
CLASS
  1
DICTIONARYVAR
  2
AcDbDictionaryVar
  3
ObjectDBX Classes
 90
        0
 91
        5
280
     0
281
     0
  0
CLASS
  1
XRECORD
  2
AcDbXrecord
  3
ObjectDBX Classes
 90
        0
 91
        1
280
     0
281
     0
  0
CLASS
  1
LWPOLYLINE
  2
AcDbPolyline
  3
ObjectDBX Classes
 90
        0
 91
        1
280
     0
281
     1
  0
CLASS
  1
HATCH
  2
AcDbHatch
  3
ObjectDBX Classes
 90
        0
 91
        1
280
     0
281
     1
  0
CLASS
  1
ACDBPLACEHOLDER
  2
AcDbPlaceHolder
  3
ObjectDBX Classes
 90
        0
 91
        1
280
     0
281
     0
  0
CLASS
  1
LAYOUT
  2
AcDbLayout
  3
ObjectDBX Classes
 90
        0
 91
        1
280
     0
281
     0
  0
CLASS
  1
RASTERVARIABLES
  2
AcDbRasterVariables
  3
ISM
 90
        0
 91
        5
280
     0
281
     0
  0
CLASS
  1
CELLSTYLEMAP
  2
AcDbCellStyleMap
  3
ObjectDBX Classes
 90
     1152
 91
        5
280
     0
281
     0
  0
ENDSEC
  0
SECTION
  2
TABLES
  0
TABLE
  2
VPORT
  5
8
330
0
100
AcDbSymbolTable
 70
     1
  0
VPORT
  5
29
330
8
100
AcDbSymbolTableRecord
100
AcDbViewportTableRecord
  2
*ACTIVE
 70
     0
 10
0.0
 20
0.0
 11
1.0
 21
1.0
 12
5659.119423784466
 22
88.342383131772
 13
0.0
 23
0.0
 14
0.5
 24
0.5
 15
0.5
 25
0.5
 16
0.0
 26
0.0
 36
1.0
 17
0.0
 27
0.0
 37
0.0
 40
857.5848542100016
 41
2.016518424396442
 42
50.0
 43
0.0
 44
0.0
 50
0.0
 51
0.0
 71
    16
 72
   100
 73
     1
 74
     3
 75
     0
 76
     0
 77
     0
 78
     0
281
     0
 65
     1
110
0.0
120
0.0
130
0.0
111
1.0
121
0.0
131
0.0
112
0.0
122
1.0
132
0.0
 79
     0
146
0.0
348
2F
 60
     3
 61
     5
292
     1
282
     1
141
0.0
142
0.0
 63
   256
361
3F4
  0
ENDTAB
  0
TABLE
  2
LTYPE
  5
5
330
0
100
AcDbSymbolTable
 70
     1
  0
LTYPE
  5
14
330
5
100
AcDbSymbolTableRecord
100
AcDbLinetypeTableRecord
  2
BYBLOCK
 70
     0
  3

 72
    65
 73
     0
 40
0.0
  0
LTYPE
  5
15
330
5
100
AcDbSymbolTableRecord
100
AcDbLinetypeTableRecord
  2
BYLAYER
 70
     0
  3

 72
    65
 73
     0
 40
0.0
  0
LTYPE
  5
16
330
5
100
AcDbSymbolTableRecord
100
AcDbLinetypeTableRecord
  2
CONTINUOUS
 70
     0
  3
Solid line
 72
    65
 73
     0
 40
0.0
  0
ENDTAB
  0
TABLE
  2
LAYER
  5
2
330
0
100
AcDbSymbolTable
 70
     2
  0
LAYER
  5
10
330
2
100
AcDbSymbolTableRecord
100
AcDbLayerTableRecord
  2
0
 70
     0
 62
     7
  6
CONTINUOUS
370
    -3
390
0
347
46
348
0
  0
LAYER
  5
6E
330
2
100
AcDbSymbolTableRecord
100
AcDbLayerTableRecord
  2
DEFAULT
 70
     0
 62
    18
  6
CONTINUOUS
370
    -3
390
0
347
46
348
0
  0
ENDTAB
  0
TABLE
  2
STYLE
  5
3
330
0
100
AcDbSymbolTable
 70
     1
  0
STYLE
  5
11
330
3
100
AcDbSymbolTableRecord
100
AcDbTextStyleTableRecord
  2
STANDARD
 70
     0
 40
0.0
 41
1.0
 50
0.0
 71
     0
 42
0.2
  3
txt
  4

  0
ENDTAB
  0
TABLE
  2
VIEW
  5
6
330
0
100
AcDbSymbolTable
 70
     0
  0
ENDTAB
  0
TABLE
  2
UCS
  5
7
330
0
100
AcDbSymbolTable
 70
     0
  0
ENDTAB
  0
TABLE
  2
APPID
  5
9
330
0
100
AcDbSymbolTable
 70
     2
  0
APPID
  5
12
330
9
100
AcDbSymbolTableRecord
100
AcDbRegAppTableRecord
  2
ACAD
 70
     0
  0
APPID
  5
3EC
330
9
100
AcDbSymbolTableRecord
100
AcDbRegAppTableRecord
  2
ACAD_MLEADERVER
 70
     0
  0
ENDTAB
  0
TABLE
  2
DIMSTYLE
  5
A
330
0
100
AcDbSymbolTable
 70
     1
100
AcDbDimStyleTable
  0
DIMSTYLE
105
27
330
A
100
AcDbSymbolTableRecord
100
AcDbDimStyleTableRecord
  2
STANDARD
 70
     0
178
     0
340
11
  0
ENDTAB
  0
TABLE
  2
BLOCK_RECORD
  5
1
330
0
100
AcDbSymbolTable
 70
     0
  0
BLOCK_RECORD
  5
1F
330
1
100
AcDbSymbolTableRecord
100
AcDbBlockTableRecord
  2
*MODEL_SPACE
340
3EE
 70
     0
280
     1
281
     0
  0
BLOCK_RECORD
  5
1B
330
1
100
AcDbSymbolTableRecord
100
AcDbBlockTableRecord
  2
*PAPER_SPACE
340
3EF
 70
     0
280
     1
281
     0
  0
ENDTAB
  0
ENDSEC
  0
SECTION
  2
BLOCKS
  0
BLOCK
  5
20
330
1F
100
AcDbEntity
  8
0
100
AcDbBlockBegin
  2
*MODEL_SPACE
 70
     0
 10
0.0
 20
0.0
 30
0.0
  3
*MODEL_SPACE
  1
*MODEL_SPACE
  0
ENDBLK
  5
21
330
1F
100
AcDbEntity
  8
0
100
AcDbBlockEnd
  0
BLOCK
  5
1C
330
1B
100
AcDbEntity
 67
     1
  8
0
100
AcDbBlockBegin
  2
*PAPER_SPACE
 70
     0
 10
0.0
 20
0.0
 30
0.0
  3
*PAPER_SPACE
  1
*PAPER_SPACE
  0
ENDBLK
  5
1D
330
1B
100
AcDbEntity
 67
     1
  8
0
100
AcDbBlockEnd
  0
ENDSEC
  0
SECTION
  2
ENTITIES
  0
LINE
  5
1AD
330
1F
100
AcDbEntity
  8
DEFAULT
100
AcDbLine
 10
5463.654031848272
 20
219.451648447652
 30
0.0000000000000568
 11
5458.354031848273
 21
219.451648447652
 31
0.0000000000000568
  0
LINE
  5
1AE
330
1F
100
AcDbEntity
  8
DEFAULT
100
AcDbLine
 10
5458.354031848273
 20
219.451648447652
 30
0.0000000000000568
 11
5458.354031848273
 21
207.451648447652
 31
0.0
  0
LINE
  5
1AF
330
1F
100
AcDbEntity
  8
DEFAULT
100
AcDbLine
 10
5458.354031848273
 20
207.451648447652
 30
0.0
 11
5463.654031848272
 21
207.451648447652
 31
0.0
  0
LINE
  5
1B0
330
1F
100
AcDbEntity
  8
DEFAULT
100
AcDbLine
 10
5463.654031848272
 20
207.451648447652
 30
0.0
 11
5463.654031848272
 21
219.451648447652
 31
0.0000000000000568
  0
LINE
  5
1B1
330
1F
100
AcDbEntity
  8
DEFAULT
100
AcDbLine
 10
5458.354031848273
 20
243.451648447652
 30
0.0000000000000568
 11
5463.654031848272
 21
243.451648447652
 31
0.0000000000000568
  0
LINE
  5
1B2
330
1F
100
AcDbEntity
  8
DEFAULT
100
AcDbLine
 10
5463.654031848272
 20
243.451648447652
 30
0.0000000000000568
 11
5463.654031848272
 21
231.451648447652
 31
0.0
  0
LINE
  5
1B3
330
1F
100
AcDbEntity
  8
DEFAULT
100
AcDbLine
 10
5463.654031848272
 20
231.451648447652
 30
0.0
 11
5458.354031848273
 21
231.451648447652
 31
0.0
  0
LINE
  5
1B4
330
1F
100
AcDbEntity
  8
DEFAULT
100
AcDbLine
 10
5458.354031848273
 20
231.451648447652
 30
0.0
 11
5458.354031848273
 21
243.451648447652
 31
0.0000000000000568
  0
LINE
  5
1B5
330
1F
100
AcDbEntity
  8
DEFAULT
100
AcDbLine
 10
5463.654031848272
 20
267.451648447652
 30
0.0000000000000568
 11
5458.354031848273
 21
267.451648447652
 31
0.0000000000000568
  0
LINE
  5
1B6
330
1F
100
AcDbEntity
  8
DEFAULT
100
AcDbLine
 10
5458.354031848273
 20
267.451648447652
 30
0.0000000000000568
 11
5458.354031848273
 21
255.451648447652
 31
0.0
  0
LINE
  5
1B7
330
1F
100
AcDbEntity
  8
DEFAULT
100
AcDbLine
 10
5458.354031848273
 20
255.451648447652
 30
0.0
 11
5463.654031848272
 21
255.451648447652
 31
0.0
  0
LINE
  5
1B8
330
1F
100
AcDbEntity
  8
DEFAULT
100
AcDbLine
 10
5463.654031848272
 20
255.451648447652
 30
0.0
 11
5463.654031848272
 21
267.451648447652
 31
0.0000000000000568
  0
LINE
  5
1B9
330
1F
100
AcDbEntity
  8
DEFAULT
100
AcDbLine
 10
5419.004031848272
 20
274.951648447652
 30
0.0
 11
5395.254031848272
 21
274.951648447652
 31
0.0
  0
LINE
  5
1BA
330
1F
100
AcDbEntity
  8
DEFAULT
100
AcDbLine
 10
5395.254031848272
 20
274.951648447652
 30
0.0
 11
5395.254031848272
 21
280.451648447652
 31
0.0
  0
LINE
  5
1BB
330
1F
100
AcDbEntity
  8
DEFAULT
100
AcDbLine
 10
5395.254031848272
 20
280.451648447652
 30
0.0
 11
5383.254031848272
 21
280.451648447652
 31
0.0
  0
LINE
  5
1BC
330
1F
100
AcDbEntity
  8
DEFAULT
100
AcDbLine
 10
5383.254031848272
 20
280.451648447652
 30
0.0
 11
5383.254031848272
 21
267.451648447652
 31
0.0
  0
LINE
  5
1BD
330
1F
100
AcDbEntity
  8
DEFAULT
100
AcDbLine
 10
5383.254031848272
 20
267.451648447652
 30
0.0
 11
5377.754031848272
 21
267.451648447652
 31
0.0
  0
LINE
  5
1BE
330
1F
100
AcDbEntity
  8
DEFAULT
100
AcDbLine
 10
5377.754031848272
 20
267.451648447652
 30
0.0
 11
5377.754031848272
 21
255.451648447652
 31
0.0
  0
LINE
  5
1BF
330
1F
100
AcDbEntity
  8
DEFAULT
100
AcDbLine
 10
5377.754031848272
 20
255.451648447652
 30
0.0
 11
5383.254031848272
 21
255.451648447652
 31
0.0
  0
LINE
  5
1C0
330
1F
100
AcDbEntity
  8
DEFAULT
100
AcDbLine
 10
5383.254031848272
 20
255.451648447652
 30
0.0
 11
5383.254031848272
 21
243.451648447652
 31
0.0
  0
LINE
  5
1C1
330
1F
100
AcDbEntity
  8
DEFAULT
100
AcDbLine
 10
5383.254031848272
 20
243.451648447652
 30
0.0
 11
5377.754031848272
 21
243.451648447652
 31
0.0
  0
LINE
  5
1C2
330
1F
100
AcDbEntity
  8
DEFAULT
100
AcDbLine
 10
5377.754031848272
 20
243.451648447652
 30
0.0
 11
5377.754031848272
 21
231.451648447652
 31
0.0
  0
LINE
  5
1C3
330
1F
100
AcDbEntity
  8
DEFAULT
100
AcDbLine
 10
5377.754031848272
 20
231.451648447652
 30
0.0
 11
5383.254031848272
 21
231.451648447652
 31
0.0
  0
LINE
  5
1C4
330
1F
100
AcDbEntity
  8
DEFAULT
100
AcDbLine
 10
5383.254031848272
 20
231.451648447652
 30
0.0
 11
5383.254031848272
 21
219.451648447652
 31
0.0
  0
LINE
  5
1C5
330
1F
100
AcDbEntity
  8
DEFAULT
100
AcDbLine
 10
5383.254031848272
 20
219.451648447652
 30
0.0
 11
5377.754031848272
 21
219.451648447652
 31
0.0
  0
LINE
  5
1C6
330
1F
100
AcDbEntity
  8
DEFAULT
100
AcDbLine
 10
5377.754031848272
 20
219.451648447652
 30
0.0
 11
5377.754031848272
 21
207.451648447652
 31
0.0
  0
LINE
  5
1C7
330
1F
100
AcDbEntity
  8
DEFAULT
100
AcDbLine
 10
5377.754031848272
 20
207.451648447652
 30
0.0
 11
5383.254031848272
 21
207.451648447652
 31
0.0
  0
LINE
  5
1C8
330
1F
100
AcDbEntity
  8
DEFAULT
100
AcDbLine
 10
5383.254031848272
 20
207.451648447652
 30
0.0
 11
5383.254031848272
 21
194.451648447652
 31
0.0
  0
LINE
  5
1C9
330
1F
100
AcDbEntity
  8
DEFAULT
100
AcDbLine
 10
5383.254031848272
 20
194.451648447652
 30
0.0
 11
5395.254031848272
 21
194.451648447652
 31
0.0
  0
LINE
  5
1CA
330
1F
100
AcDbEntity
  8
DEFAULT
100
AcDbLine
 10
5395.254031848272
 20
194.451648447652
 30
0.0
 11
5395.254031848272
 21
199.951648447652
 31
0.0
  0
LINE
  5
1CB
330
1F
100
AcDbEntity
  8
DEFAULT
100
AcDbLine
 10
5395.254031848272
 20
199.951648447652
 30
0.0
 11
5431.004031848272
 21
199.951648447652
 31
0.0
  0
LINE
  5
1CC
330
1F
100
AcDbEntity
  8
DEFAULT
100
AcDbLine
 10
5431.004031848272
 20
199.951648447652
 30
0.0
 11
5431.004031848272
 21
194.451648447652
 31
0.0
  0
LINE
  5
1CD
330
1F
100
AcDbEntity
  8
DEFAULT
100
AcDbLine
 10
5431.004031848272
 20
194.451648447652
 30
0.0
 11
5443.004031848272
 21
194.451648447652
 31
0.0
  0
LINE
  5
1CE
330
1F
100
AcDbEntity
  8
DEFAULT
100
AcDbLine
 10
5443.004031848272
 20
194.451648447652
 30
0.0
 11
5443.004031848272
 21
199.951648447652
 31
0.0
  0
LINE
  5
1CF
330
1F
100
AcDbEntity
  8
DEFAULT
100
AcDbLine
 10
5443.004031848272
 20
199.951648447652
 30
0.0
 11
5455.004031848272
 21
199.951648447652
 31
0.0
  0
LINE
  5
1D0
330
1F
100
AcDbEntity
  8
DEFAULT
100
AcDbLine
 10
5455.004031848272
 20
199.951648447652
 30
0.0
 11
5455.004031848272
 21
194.451648447652
 31
0.0
  0
LINE
  5
1D1
330
1F
100
AcDbEntity
  8
DEFAULT
100
AcDbLine
 10
5455.004031848272
 20
194.451648447652
 30
0.0
 11
5467.004031848272
 21
194.451648447652
 31
0.0
  0
LINE
  5
1D2
330
1F
100
AcDbEntity
  8
DEFAULT
100
AcDbLine
 10
5467.004031848272
 20
194.451648447652
 30
0.0
 11
5467.004031848272
 21
199.951648447652
 31
0.0
  0
LINE
  5
1D3
330
1F
100
AcDbEntity
  8
DEFAULT
100
AcDbLine
 10
5467.004031848272
 20
199.951648447652
 30
0.0
 11
5479.004031848272
 21
199.951648447652
 31
0.0
  0
LINE
  5
1D4
330
1F
100
AcDbEntity
  8
DEFAULT
100
AcDbLine
 10
5479.004031848272
 20
199.951648447652
 30
0.0
 11
5479.004031848272
 21
194.451648447652
 31
0.0
  0
LINE
  5
1D5
330
1F
100
AcDbEntity
  8
DEFAULT
100
AcDbLine
 10
5479.004031848272
 20
194.451648447652
 30
0.0
 11
5491.004031848272
 21
194.451648447652
 31
0.0
  0
LINE
  5
1D6
330
1F
100
AcDbEntity
  8
DEFAULT
100
AcDbLine
 10
5491.004031848272
 20
194.451648447652
 30
0.0
 11
5491.004031848272
 21
199.951648447652
 31
0.0
  0
LINE
  5
1D7
330
1F
100
AcDbEntity
  8
DEFAULT
100
AcDbLine
 10
5491.004031848272
 20
199.951648447652
 30
0.0
 11
5503.004031848272
 21
199.951648447652
 31
0.0
  0
LINE
  5
1D8
330
1F
100
AcDbEntity
  8
DEFAULT
100
AcDbLine
 10
5503.004031848272
 20
199.951648447652
 30
0.0
 11
5503.004031848272
 21
194.451648447652
 31
0.0
  0
LINE
  5
1D9
330
1F
100
AcDbEntity
  8
DEFAULT
100
AcDbLine
 10
5503.004031848272
 20
194.451648447652
 30
0.0
 11
5515.004031848272
 21
194.451648447652
 31
0.0
  0
LINE
  5
1DA
330
1F
100
AcDbEntity
  8
DEFAULT
100
AcDbLine
 10
5515.004031848272
 20
194.451648447652
 30
0.0
 11
5515.004031848272
 21
199.951648447652
 31
0.0
  0
LINE
  5
1DB
330
1F
100
AcDbEntity
  8
DEFAULT
100
AcDbLine
 10
5515.004031848272
 20
199.951648447652
 30
0.0
 11
5526.754031848272
 21
199.951648447652
 31
0.0
  0
LINE
  5
1DC
330
1F
100
AcDbEntity
  8
DEFAULT
100
AcDbLine
 10
5526.754031848272
 20
199.951648447652
 30
0.0
 11
5526.754031848272
 21
194.451648447652
 31
0.0
  0
LINE
  5
1DD
330
1F
100
AcDbEntity
  8
DEFAULT
100
AcDbLine
 10
5526.754031848272
 20
194.451648447652
 30
0.0
 11
5538.754031848272
 21
194.451648447652
 31
0.0
  0
LINE
  5
1DE
330
1F
100
AcDbEntity
  8
DEFAULT
100
AcDbLine
 10
5538.754031848272
 20
194.451648447652
 30
0.0
 11
5538.754031848272
 21
207.451648447652
 31
0.0
  0
LINE
  5
1DF
330
1F
100
AcDbEntity
  8
DEFAULT
100
AcDbLine
 10
5538.754031848272
 20
207.451648447652
 30
0.0
 11
5544.254031848272
 21
207.451648447652
 31
0.0
  0
LINE
  5
1E0
330
1F
100
AcDbEntity
  8
DEFAULT
100
AcDbLine
 10
5544.254031848272
 20
207.451648447652
 30
0.0
 11
5544.254031848272
 21
219.451648447652
 31
0.0
  0
LINE
  5
1E1
330
1F
100
AcDbEntity
  8
DEFAULT
100
AcDbLine
 10
5544.254031848272
 20
219.451648447652
 30
0.0
 11
5538.754031848272
 21
219.451648447652
 31
0.0
  0
LINE
  5
1E2
330
1F
100
AcDbEntity
  8
DEFAULT
100
AcDbLine
 10
5538.754031848272
 20
219.451648447652
 30
0.0
 11
5538.754031848272
 21
231.451648447652
 31
0.0
  0
LINE
  5
1E3
330
1F
100
AcDbEntity
  8
DEFAULT
100
AcDbLine
 10
5538.754031848272
 20
231.451648447652
 30
0.0
 11
5544.254031848272
 21
231.451648447652
 31
0.0
  0
LINE
  5
1E4
330
1F
100
AcDbEntity
  8
DEFAULT
100
AcDbLine
 10
5544.254031848272
 20
231.451648447652
 30
0.0
 11
5544.254031848272
 21
243.451648447652
 31
0.0
  0
LINE
  5
1E5
330
1F
100
AcDbEntity
  8
DEFAULT
100
AcDbLine
 10
5544.254031848272
 20
243.451648447652
 30
0.0
 11
5538.754031848272
 21
243.451648447652
 31
0.0
  0
LINE
  5
1E6
330
1F
100
AcDbEntity
  8
DEFAULT
100
AcDbLine
 10
5538.754031848272
 20
243.451648447652
 30
0.0
 11
5538.754031848272
 21
255.451648447652
 31
0.0
  0
LINE
  5
1E7
330
1F
100
AcDbEntity
  8
DEFAULT
100
AcDbLine
 10
5538.754031848272
 20
255.451648447652
 30
0.0
 11
5544.254031848272
 21
255.451648447652
 31
0.0
  0
LINE
  5
1E8
330
1F
100
AcDbEntity
  8
DEFAULT
100
AcDbLine
 10
5544.254031848272
 20
255.451648447652
 30
0.0
 11
5544.254031848272
 21
267.451648447652
 31
0.0
  0
LINE
  5
1E9
330
1F
100
AcDbEntity
  8
DEFAULT
100
AcDbLine
 10
5544.254031848272
 20
267.451648447652
 30
0.0
 11
5538.754031848272
 21
267.451648447652
 31
0.0
  0
LINE
  5
1EA
330
1F
100
AcDbEntity
  8
DEFAULT
100
AcDbLine
 10
5538.754031848272
 20
267.451648447652
 30
0.0
 11
5538.754031848272
 21
280.451648447652
 31
0.0
  0
LINE
  5
1EB
330
1F
100
AcDbEntity
  8
DEFAULT
100
AcDbLine
 10
5538.754031848272
 20
280.451648447652
 30
0.0
 11
5526.754031848272
 21
280.451648447652
 31
0.0
  0
LINE
  5
1EC
330
1F
100
AcDbEntity
  8
DEFAULT
100
AcDbLine
 10
5526.754031848272
 20
280.451648447652
 30
0.0
 11
5526.754031848272
 21
274.951648447652
 31
0.0
  0
LINE
  5
1ED
330
1F
100
AcDbEntity
  8
DEFAULT
100
AcDbLine
 10
5526.754031848272
 20
274.951648447652
 30
0.0
 11
5515.004031848272
 21
274.951648447652
 31
0.0
  0
LINE
  5
1EE
330
1F
100
AcDbEntity
  8
DEFAULT
100
AcDbLine
 10
5515.004031848272
 20
274.951648447652
 30
0.0
 11
5515.004031848272
 21
280.451648447652
 31
0.0
  0
LINE
  5
1EF
330
1F
100
AcDbEntity
  8
DEFAULT
100
AcDbLine
 10
5515.004031848272
 20
280.451648447652
 30
0.0
 11
5503.004031848272
 21
280.451648447652
 31
0.0
  0
LINE
  5
1F0
330
1F
100
AcDbEntity
  8
DEFAULT
100
AcDbLine
 10
5503.004031848272
 20
280.451648447652
 30
0.0
 11
5503.004031848272
 21
274.951648447652
 31
0.0
  0
LINE
  5
1F1
330
1F
100
AcDbEntity
  8
DEFAULT
100
AcDbLine
 10
5503.004031848272
 20
274.951648447652
 30
0.0
 11
5491.004031848272
 21
274.951648447652
 31
0.0
  0
LINE
  5
1F2
330
1F
100
AcDbEntity
  8
DEFAULT
100
AcDbLine
 10
5491.004031848272
 20
274.951648447652
 30
0.0
 11
5491.004031848272
 21
280.451648447652
 31
0.0
  0
LINE
  5
1F3
330
1F
100
AcDbEntity
  8
DEFAULT
100
AcDbLine
 10
5491.004031848272
 20
280.451648447652
 30
0.0
 11
5479.004031848272
 21
280.451648447652
 31
0.0
  0
LINE
  5
1F4
330
1F
100
AcDbEntity
  8
DEFAULT
100
AcDbLine
 10
5479.004031848272
 20
280.451648447652
 30
0.0
 11
5479.004031848272
 21
274.951648447652
 31
0.0
  0
LINE
  5
1F5
330
1F
100
AcDbEntity
  8
DEFAULT
100
AcDbLine
 10
5479.004031848272
 20
274.951648447652
 30
0.0
 11
5467.004031848272
 21
274.951648447652
 31
0.0
  0
LINE
  5
1F6
330
1F
100
AcDbEntity
  8
DEFAULT
100
AcDbLine
 10
5467.004031848272
 20
274.951648447652
 30
0.0
 11
5467.004031848272
 21
280.451648447652
 31
0.0
  0
LINE
  5
1F7
330
1F
100
AcDbEntity
  8
DEFAULT
100
AcDbLine
 10
5467.004031848272
 20
280.451648447652
 30
0.0
 11
5455.004031848272
 21
280.451648447652
 31
0.0
  0
LINE
  5
1F8
330
1F
100
AcDbEntity
  8
DEFAULT
100
AcDbLine
 10
5455.004031848272
 20
280.451648447652
 30
0.0
 11
5455.004031848272
 21
274.951648447652
 31
0.0
  0
LINE
  5
1F9
330
1F
100
AcDbEntity
  8
DEFAULT
100
AcDbLine
 10
5455.004031848272
 20
274.951648447652
 30
0.0
 11
5443.004031848272
 21
274.951648447652
 31
0.0
  0
LINE
  5
1FA
330
1F
100
AcDbEntity
  8
DEFAULT
100
AcDbLine
 10
5443.004031848272
 20
274.951648447652
 30
0.0
 11
5443.004031848272
 21
280.451648447652
 31
0.0
  0
LINE
  5
1FB
330
1F
100
AcDbEntity
  8
DEFAULT
100
AcDbLine
 10
5443.004031848272
 20
280.451648447652
 30
0.0
 11
5431.004031848272
 21
280.451648447652
 31
0.0
  0
LINE
  5
1FC
330
1F
100
AcDbEntity
  8
DEFAULT
100
AcDbLine
 10
5431.004031848272
 20
280.451648447652
 30
0.0
 11
5431.004031848272
 21
274.951648447652
 31
0.0
  0
LINE
  5
1FD
330
1F
100
AcDbEntity
  8
DEFAULT
100
AcDbLine
 10
5431.004031848272
 20
274.951648447652
 30
0.0
 11
5419.004031848272
 21
274.951648447652
 31
0.0
  0
CIRCLE
  5
1FE
330
1F
100
AcDbEntity
  8
DEFAULT
100
AcDbCircle
 10
5461.004031848272
 20
225.451648447652
 30
0.0000000000000284
 40
1.5
  0
CIRCLE
  5
1FF
330
1F
100
AcDbEntity
  8
DEFAULT
100
AcDbCircle
 10
5461.004031848272
 20
249.451648447652
 30
0.0000000000000284
 40
1.5
  0
CIRCLE
  5
200
330
1F
100
AcDbEntity
  8
DEFAULT
100
AcDbCircle
 10
5481.254031848272
 20
237.4516484476535
 30
0.0000000000000284
 40
5.924999999999272
  0
CIRCLE
  5
201
330
1F
100
AcDbEntity
  8
DEFAULT
100
AcDbCircle
 10
5521.253889196076
 20
237.4516484476526
 30
0.0000000000000284
 40
5.925000000000182
  0
CIRCLE
  5
202
330
1F
100
AcDbEntity
  8
DEFAULT
100
AcDbCircle
 10
5509.502923819739
 20
232.6891484483802
 30
0.0000000000000284
 40
1.5
  0
CIRCLE
  5
203
330
1F
100
AcDbEntity
  8
DEFAULT
100
AcDbCircle
 10
5493.005139877646
 20
232.6891484469241
 30
0.0000000000000284
 40
1.5
  0
CIRCLE
  5
204
330
1F
100
AcDbEntity
  8
DEFAULT
100
AcDbCircle
 10
5501.254031847432
 20
246.9766484476521
 30
0.0000000000000284
 40
1.5
  0
CIRCLE
  5
205
330
1F
100
AcDbEntity
  8
DEFAULT
100
AcDbCircle
 10
5501.254031848272
 20
237.451648447652
 30
0.0000000000000284
 40
6.3
  0
CIRCLE
  5
206
330
1F
100
AcDbEntity
  8
DEFAULT
100
AcDbCircle
 10
5420.754031848272
 20
237.451648447652
 30
0.0000000000000284
 40
6.3
  0
CIRCLE
  5
207
330
1F
100
AcDbEntity
  8
DEFAULT
100
AcDbCircle
 10
5420.754031847432
 20
246.9766484476521
 30
0.0000000000000284
 40
1.5
  0
CIRCLE
  5
208
330
1F
100
AcDbEntity
  8
DEFAULT
100
AcDbCircle
 10
5412.505139877646
 20
232.6891484469241
 30
0.0000000000000284
 40
1.5
  0
CIRCLE
  5
209
330
1F
100
AcDbEntity
  8
DEFAULT
100
AcDbCircle
 10
5429.002923819739
 20
232.6891484483802
 30
0.0000000000000284
 40
1.5
  0
CIRCLE
  5
20A
330
1F
100
AcDbEntity
  8
DEFAULT
100
AcDbCircle
 10
5440.754031848272
 20
237.4516484476526
 30
0.0000000000000284
 40
5.924999999999272
  0
CIRCLE
  5
20B
330
1F
100
AcDbEntity
  8
DEFAULT
100
AcDbCircle
 10
5400.754031848273
 20
237.4516484476535
 30
0.0000000000000284
 40
5.924999999998363
  0
LINE
  5
2FC
330
1F
100
AcDbEntity
  8
DEFAULT
100
AcDbLine
 10
5424.241942384994
 20
332.0451861069477
 30
0.0
 11
5424.241942384994
 21
337.5451861069477
 31
0.0
  0
LINE
  5
2FD
330
1F
100
AcDbEntity
  8
DEFAULT
100
AcDbLine
 10
5424.241942384994
 20
337.5451861069477
 30
0.0
 11
5436.241942384994
 21
337.5451861069477
 31
0.0
  0
LINE
  5
2FE
330
1F
100
AcDbEntity
  8
DEFAULT
100
AcDbLine
 10
5436.241942384994
 20
337.5451861069477
 30
0.0
 11
5436.241942384994
 21
332.0451861069477
 31
0.0
  0
LINE
  5
2FF
330
1F
100
AcDbEntity
  8
DEFAULT
100
AcDbLine
 10
5436.241942384994
 20
332.0451861069477
 30
0.0
 11
5448.241942384994
 21
332.0451861069477
 31
0.0
  0
LINE
  5
300
330
1F
100
AcDbEntity
  8
DEFAULT
100
AcDbLine
 10
5448.241942384994
 20
332.0451861069477
 30
0.0
 11
5448.241942384994
 21
337.5451861069477
 31
0.0
  0
LINE
  5
301
330
1F
100
AcDbEntity
  8
DEFAULT
100
AcDbLine
 10
5448.241942384994
 20
337.5451861069477
 30
0.0
 11
5460.241942384994
 21
337.5451861069477
 31
0.0
  0
LINE
  5
302
330
1F
100
AcDbEntity
  8
DEFAULT
100
AcDbLine
 10
5460.241942384994
 20
337.5451861069477
 30
0.0
 11
5460.241942384994
 21
332.0451861069477
 31
0.0
  0
LINE
  5
303
330
1F
100
AcDbEntity
  8
DEFAULT
100
AcDbLine
 10
5460.241942384994
 20
332.0451861069477
 30
0.0
 11
5472.241942384994
 21
332.0451861069477
 31
0.0
  0
LINE
  5
304
330
1F
100
AcDbEntity
  8
DEFAULT
100
AcDbLine
 10
5472.241942384994
 20
332.0451861069477
 30
0.0
 11
5472.241942384994
 21
337.5451861069477
 31
0.0
  0
LINE
  5
305
330
1F
100
AcDbEntity
  8
DEFAULT
100
AcDbLine
 10
5472.241942384994
 20
337.5451861069477
 30
0.0
 11
5499.152299137355
 21
337.5451861069477
 31
0.0000000000909779
  0
LINE
  5
306
330
1F
100
AcDbEntity
  8
DEFAULT
100
AcDbLine
 10
5499.152299137355
 20
337.5451861069477
 30
0.0000000000909779
 11
5499.152299137355
 21
357.5451861069477
 31
0.0000000000909779
  0
LINE
  5
307
330
1F
100
AcDbEntity
  8
DEFAULT
100
AcDbLine
 10
5499.152299137355
 20
357.5451861069477
 30
0.0000000000909779
 11
5485.660686887807
 21
357.5451861069477
 31
0.0000000000900684
  0
LINE
  5
308
330
1F
100
AcDbEntity
  8
DEFAULT
100
AcDbLine
 10
5485.660686887807
 20
357.5451861069477
 30
0.0000000000900684
 11
5485.660686887807
 21
363.0451861069477
 31
0.0000000000900684
  0
LINE
  5
309
330
1F
100
AcDbEntity
  8
DEFAULT
100
AcDbLine
 10
5485.660686887807
 20
363.0451861069477
 30
0.0000000000900684
 11
5473.660686887807
 21
363.0451861069477
 31
0.0000000000900684
  0
LINE
  5
30A
330
1F
100
AcDbEntity
  8
DEFAULT
100
AcDbLine
 10
5473.660686887807
 20
363.0451861069477
 30
0.0000000000900684
 11
5473.660686887807
 21
357.5451861069477
 31
0.0000000000900684
  0
LINE
  5
30B
330
1F
100
AcDbEntity
  8
DEFAULT
100
AcDbLine
 10
5473.660686887807
 20
357.5451861069477
 30
0.0000000000900684
 11
5461.660686887807
 21
357.5451861069477
 31
0.0000000000900684
  0
LINE
  5
30C
330
1F
100
AcDbEntity
  8
DEFAULT
100
AcDbLine
 10
5461.660686887807
 20
357.5451861069477
 30
0.0000000000900684
 11
5461.660686887807
 21
363.0451861069477
 31
0.0000000000900684
  0
LINE
  5
30D
330
1F
100
AcDbEntity
  8
DEFAULT
100
AcDbLine
 10
5461.660686887807
 20
363.0451861069477
 30
0.0000000000900684
 11
5449.660686887807
 21
363.0451861069477
 31
0.0000000000900684
  0
LINE
  5
30E
330
1F
100
AcDbEntity
  8
DEFAULT
100
AcDbLine
 10
5449.660686887807
 20
363.0451861069477
 30
0.0000000000900684
 11
5449.660686887807
 21
357.5451861069477
 31
0.0000000000900684
  0
LINE
  5
30F
330
1F
100
AcDbEntity
  8
DEFAULT
100
AcDbLine
 10
5449.660686887807
 20
357.5451861069477
 30
0.0000000000900684
 11
5437.660686887807
 21
357.5451861069477
 31
0.0000000000900684
  0
LINE
  5
310
330
1F
100
AcDbEntity
  8
DEFAULT
100
AcDbLine
 10
5437.660686887807
 20
357.5451861069477
 30
0.0000000000900684
 11
5437.660686887807
 21
363.0451861069477
 31
0.0000000000900684
  0
LINE
  5
311
330
1F
100
AcDbEntity
  8
DEFAULT
100
AcDbLine
 10
5437.660686887807
 20
363.0451861069477
 30
0.0000000000900684
 11
5425.660686887807
 21
363.0451861069477
 31
0.0000000000900684
  0
LINE
  5
312
330
1F
100
AcDbEntity
  8
DEFAULT
100
AcDbLine
 10
5425.660686887807
 20
363.0451861069477
 30
0.0000000000900684
 11
5425.660686887807
 21
357.5451861069477
 31
0.0000000000900684
  0
LINE
  5
313
330
1F
100
AcDbEntity
  8
DEFAULT
100
AcDbLine
 10
5425.660686887807
 20
357.5451861069477
 30
0.0000000000900684
 11
5413.660686887807
 21
357.5451861069477
 31
0.0000000000900684
  0
LINE
  5
314
330
1F
100
AcDbEntity
  8
DEFAULT
100
AcDbLine
 10
5413.660686887807
 20
357.5451861069477
 30
0.0000000000900684
 11
5413.660686887807
 21
363.0451861069477
 31
0.0000000000900684
  0
LINE
  5
315
330
1F
100
AcDbEntity
  8
DEFAULT
100
AcDbLine
 10
5413.660686887807
 20
363.0451861069477
 30
0.0000000000900684
 11
5401.660686887807
 21
363.0451861069477
 31
0.0000000000900684
  0
LINE
  5
316
330
1F
100
AcDbEntity
  8
DEFAULT
100
AcDbLine
 10
5401.660686887807
 20
363.0451861069477
 30
0.0000000000900684
 11
5401.660686887807
 21
357.5451861069477
 31
0.0000000000900684
  0
LINE
  5
317
330
1F
100
AcDbEntity
  8
DEFAULT
100
AcDbLine
 10
5401.660686887807
 20
357.5451861069477
 30
0.0000000000900684
 11
5389.660686887807
 21
357.5451861069477
 31
0.0000000000900684
  0
LINE
  5
318
330
1F
100
AcDbEntity
  8
DEFAULT
100
AcDbLine
 10
5389.660686887807
 20
357.5451861069477
 30
0.0000000000900684
 11
5389.660686887807
 21
363.0451861069477
 31
0.0000000000900684
  0
LINE
  5
319
330
1F
100
AcDbEntity
  8
DEFAULT
100
AcDbLine
 10
5389.660686887807
 20
363.0451861069477
 30
0.0000000000900684
 11
5377.660686887807
 21
363.0451861069477
 31
0.0000000000900684
  0
LINE
  5
31A
330
1F
100
AcDbEntity
  8
DEFAULT
100
AcDbLine
 10
5377.660686887807
 20
363.0451861069477
 30
0.0000000000900684
 11
5377.660686887807
 21
357.5451861069477
 31
0.0000000000900684
  0
LINE
  5
31B
330
1F
100
AcDbEntity
  8
DEFAULT
100
AcDbLine
 10
5377.660686887807
 20
357.5451861069477
 30
0.0000000000900684
 11
5365.660686887807
 21
357.5451861069477
 31
0.0000000000900684
  0
LINE
  5
31C
330
1F
100
AcDbEntity
  8
DEFAULT
100
AcDbLine
 10
5365.660686887807
 20
357.5451861069477
 30
0.0000000000900684
 11
5365.660686887807
 21
363.0451861069477
 31
0.0000000000900684
  0
LINE
  5
31D
330
1F
100
AcDbEntity
  8
DEFAULT
100
AcDbLine
 10
5365.660686887807
 20
363.0451861069477
 30
0.0000000000900684
 11
5353.660686887807
 21
363.0451861069477
 31
0.0000000000900684
  0
LINE
  5
31E
330
1F
100
AcDbEntity
  8
DEFAULT
100
AcDbLine
 10
5353.660686887807
 20
363.0451861069477
 30
0.0000000000900684
 11
5353.660686887807
 21
357.5451861069477
 31
0.0000000000900684
  0
LINE
  5
31F
330
1F
100
AcDbEntity
  8
DEFAULT
100
AcDbLine
 10
5353.660686887807
 20
357.5451861069477
 30
0.0000000000900684
 11
5341.660686887807
 21
357.5451861069477
 31
0.0000000000900684
  0
LINE
  5
320
330
1F
100
AcDbEntity
  8
DEFAULT
100
AcDbLine
 10
5341.660686887807
 20
357.5451861069477
 30
0.0000000000900684
 11
5341.660686887807
 21
363.0451861069477
 31
0.0000000000900684
  0
LINE
  5
321
330
1F
100
AcDbEntity
  8
DEFAULT
100
AcDbLine
 10
5341.660686887807
 20
363.0451861069477
 30
0.0000000000900684
 11
5329.660686887807
 21
363.0451861069477
 31
0.0000000000900684
  0
LINE
  5
322
330
1F
100
AcDbEntity
  8
DEFAULT
100
AcDbLine
 10
5329.660686887807
 20
363.0451861069477
 30
0.0000000000900684
 11
5329.660686887807
 21
357.5451861069477
 31
0.0000000000900684
  0
LINE
  5
323
330
1F
100
AcDbEntity
  8
DEFAULT
100
AcDbLine
 10
5329.660686887807
 20
357.5451861069477
 30
0.0000000000900684
 11
5317.660686887807
 21
357.5451861069477
 31
0.0000000000900684
  0
LINE
  5
324
330
1F
100
AcDbEntity
  8
DEFAULT
100
AcDbLine
 10
5317.660686887807
 20
357.5451861069477
 30
0.0000000000900684
 11
5317.660686887807
 21
363.0451861069477
 31
0.0000000000900684
  0
LINE
  5
325
330
1F
100
AcDbEntity
  8
DEFAULT
100
AcDbLine
 10
5317.660686887807
 20
363.0451861069477
 30
0.0000000000900684
 11
5305.660686887807
 21
363.0451861069477
 31
0.0000000000900684
  0
LINE
  5
326
330
1F
100
AcDbEntity
  8
DEFAULT
100
AcDbLine
 10
5305.660686887807
 20
363.0451861069477
 30
0.0000000000900684
 11
5305.660686887807
 21
357.5451861069477
 31
0.0000000000900684
  0
LINE
  5
327
330
1F
100
AcDbEntity
  8
DEFAULT
100
AcDbLine
 10
5305.660686887807
 20
357.5451861069477
 30
0.0000000000900684
 11
5293.660686887807
 21
357.5451861069477
 31
0.0000000000900684
  0
LINE
  5
328
330
1F
100
AcDbEntity
  8
DEFAULT
100
AcDbLine
 10
5293.660686887807
 20
357.5451861069477
 30
0.0000000000900684
 11
5293.660686887807
 21
363.0451861069477
 31
0.0000000000900684
  0
LINE
  5
329
330
1F
100
AcDbEntity
  8
DEFAULT
100
AcDbLine
 10
5293.660686887807
 20
363.0451861069477
 30
0.0000000000900684
 11
5281.660686887807
 21
363.0451861069477
 31
0.0000000000900684
  0
LINE
  5
32A
330
1F
100
AcDbEntity
  8
DEFAULT
100
AcDbLine
 10
5281.660686887807
 20
363.0451861069477
 30
0.0000000000900684
 11
5281.660686887807
 21
357.5451861069477
 31
0.0000000000900684
  0
LINE
  5
32B
330
1F
100
AcDbEntity
  8
DEFAULT
100
AcDbLine
 10
5281.660686887807
 20
357.5451861069477
 30
0.0000000000900684
 11
5268.169074638258
 21
357.5451861069477
 31
0.0000000000891305
  0
LINE
  5
32C
330
1F
100
AcDbEntity
  8
DEFAULT
100
AcDbLine
 10
5268.169074638258
 20
357.5451861069477
 30
0.0000000000891305
 11
5268.169074638258
 21
337.5451861069477
 31
0.0000000000891305
  0
LINE
  5
32D
330
1F
100
AcDbEntity
  8
DEFAULT
100
AcDbLine
 10
5268.169074638258
 20
337.5451861069477
 30
0.0000000000891305
 11
5268.169074638258
 21
294.5451861069477
 31
-0.0000000002714273
  0
LINE
  5
32E
330
1F
100
AcDbEntity
  8
DEFAULT
100
AcDbLine
 10
5268.169074638258
 20
294.5451861069477
 30
-0.0000000002714273
 11
5289.331585632634
 21
294.5451861069477
 31
-0.0000000002712568
  0
LINE
  5
32F
330
1F
100
AcDbEntity
  8
DEFAULT
100
AcDbLine
 10
5289.331585632634
 20
294.5451861069477
 30
-0.0000000002712568
 11
5289.331585632634
 21
337.5451861069477
 31
-0.0000000000909779
  0
LINE
  5
330
330
1F
100
AcDbEntity
  8
DEFAULT
100
AcDbLine
 10
5289.331585632634
 20
337.5451861069477
 30
-0.0000000000909779
 11
5316.241942384994
 21
337.5451861069477
 31
0.0
  0
LINE
  5
331
330
1F
100
AcDbEntity
  8
DEFAULT
100
AcDbLine
 10
5316.241942384994
 20
337.5451861069477
 30
0.0
 11
5316.241942384994
 21
332.0451861069477
 31
0.0
  0
LINE
  5
332
330
1F
100
AcDbEntity
  8
DEFAULT
100
AcDbLine
 10
5316.241942384994
 20
332.0451861069477
 30
0.0
 11
5328.241942384994
 21
332.0451861069477
 31
0.0
  0
LINE
  5
333
330
1F
100
AcDbEntity
  8
DEFAULT
100
AcDbLine
 10
5328.241942384994
 20
332.0451861069477
 30
0.0
 11
5328.241942384994
 21
337.5451861069477
 31
0.0
  0
LINE
  5
334
330
1F
100
AcDbEntity
  8
DEFAULT
100
AcDbLine
 10
5328.241942384994
 20
337.5451861069477
 30
0.0
 11
5340.241942384994
 21
337.5451861069477
 31
0.0
  0
LINE
  5
335
330
1F
100
AcDbEntity
  8
DEFAULT
100
AcDbLine
 10
5340.241942384994
 20
337.5451861069477
 30
0.0
 11
5340.241942384994
 21
332.0451861069477
 31
0.0
  0
LINE
  5
336
330
1F
100
AcDbEntity
  8
DEFAULT
100
AcDbLine
 10
5340.241942384994
 20
332.0451861069477
 30
0.0
 11
5352.241942384994
 21
332.0451861069477
 31
0.0
  0
LINE
  5
337
330
1F
100
AcDbEntity
  8
DEFAULT
100
AcDbLine
 10
5352.241942384994
 20
332.0451861069477
 30
0.0
 11
5352.241942384994
 21
337.5451861069477
 31
0.0
  0
LINE
  5
338
330
1F
100
AcDbEntity
  8
DEFAULT
100
AcDbLine
 10
5352.241942384994
 20
337.5451861069477
 30
0.0
 11
5364.241942384994
 21
337.5451861069477
 31
0.0
  0
LINE
  5
339
330
1F
100
AcDbEntity
  8
DEFAULT
100
AcDbLine
 10
5364.241942384994
 20
337.5451861069477
 30
0.0
 11
5364.241942384994
 21
332.0451861069477
 31
0.0
  0
LINE
  5
33A
330
1F
100
AcDbEntity
  8
DEFAULT
100
AcDbLine
 10
5364.241942384994
 20
332.0451861069477
 30
0.0
 11
5376.241942384994
 21
332.0451861069477
 31
0.0
  0
LINE
  5
33B
330
1F
100
AcDbEntity
  8
DEFAULT
100
AcDbLine
 10
5376.241942384994
 20
332.0451861069477
 30
0.0
 11
5376.241942384994
 21
337.5451861069477
 31
0.0
  0
LINE
  5
33C
330
1F
100
AcDbEntity
  8
DEFAULT
100
AcDbLine
 10
5376.241942384994
 20
337.5451861069477
 30
0.0
 11
5412.241942384994
 21
337.5451861069477
 31
0.0
  0
LINE
  5
33D
330
1F
100
AcDbEntity
  8
DEFAULT
100
AcDbLine
 10
5412.241942384994
 20
337.5451861069477
 30
0.0
 11
5412.241942384994
 21
332.0451861069477
 31
0.0
  0
LINE
  5
33E
330
1F
100
AcDbEntity
  8
DEFAULT
100
AcDbLine
 10
5412.241942384994
 20
332.0451861069477
 30
0.0
 11
5424.241942384994
 21
332.0451861069477
 31
0.0
  0
LINE
  5
33F
330
1F
100
AcDbEntity
  8
DEFAULT
100
AcDbLine
 10
5423.87146754996
 20
191.5451861069476
 30
0.0
 11
5423.87146754996
 21
186.0451861069476
 31
0.0
  0
LINE
  5
340
330
1F
100
AcDbEntity
  8
DEFAULT
100
AcDbLine
 10
5423.87146754996
 20
186.0451861069476
 30
0.0
 11
5435.87146754996
 21
186.0451861069476
 31
0.0
  0
LINE
  5
341
330
1F
100
AcDbEntity
  8
DEFAULT
100
AcDbLine
 10
5435.87146754996
 20
186.0451861069476
 30
0.0
 11
5435.87146754996
 21
191.5451861069476
 31
0.0
  0
LINE
  5
342
330
1F
100
AcDbEntity
  8
DEFAULT
100
AcDbLine
 10
5435.87146754996
 20
191.5451861069476
 30
0.0
 11
5447.87146754996
 21
191.5451861069476
 31
0.0
  0
LINE
  5
343
330
1F
100
AcDbEntity
  8
DEFAULT
100
AcDbLine
 10
5447.87146754996
 20
191.5451861069476
 30
0.0
 11
5447.87146754996
 21
186.0451861069476
 31
0.0
  0
LINE
  5
344
330
1F
100
AcDbEntity
  8
DEFAULT
100
AcDbLine
 10
5447.87146754996
 20
186.0451861069476
 30
0.0
 11
5459.87146754996
 21
186.0451861069476
 31
0.0
  0
LINE
  5
345
330
1F
100
AcDbEntity
  8
DEFAULT
100
AcDbLine
 10
5459.87146754996
 20
186.0451861069476
 30
0.0
 11
5459.87146754996
 21
191.5451861069476
 31
0.0
  0
LINE
  5
346
330
1F
100
AcDbEntity
  8
DEFAULT
100
AcDbLine
 10
5459.87146754996
 20
191.5451861069476
 30
0.0
 11
5471.87146754996
 21
191.5451861069476
 31
0.0
  0
LINE
  5
347
330
1F
100
AcDbEntity
  8
DEFAULT
100
AcDbLine
 10
5471.87146754996
 20
191.5451861069476
 30
0.0
 11
5471.87146754996
 21
186.0451861069476
 31
0.0
  0
LINE
  5
348
330
1F
100
AcDbEntity
  8
DEFAULT
100
AcDbLine
 10
5471.87146754996
 20
186.0451861069476
 30
0.0
 11
5498.781824302321
 21
186.0451861069476
 31
-0.0000000000909779
  0
LINE
  5
349
330
1F
100
AcDbEntity
  8
DEFAULT
100
AcDbLine
 10
5498.781824302321
 20
186.0451861069476
 30
-0.0000000000909779
 11
5498.781824302321
 21
166.0451861069476
 31
-0.0000000000909779
  0
LINE
  5
34A
330
1F
100
AcDbEntity
  8
DEFAULT
100
AcDbLine
 10
5498.781824302321
 20
166.0451861069476
 30
-0.0000000000909779
 11
5485.290212052773
 21
166.0451861069476
 31
-0.0000000000900684
  0
LINE
  5
34B
330
1F
100
AcDbEntity
  8
DEFAULT
100
AcDbLine
 10
5485.290212052773
 20
166.0451861069476
 30
-0.0000000000900684
 11
5485.290212052773
 21
160.5451861069476
 31
-0.0000000000900684
  0
LINE
  5
34C
330
1F
100
AcDbEntity
  8
DEFAULT
100
AcDbLine
 10
5485.290212052773
 20
160.5451861069476
 30
-0.0000000000900684
 11
5473.290212052773
 21
160.5451861069476
 31
-0.0000000000900684
  0
LINE
  5
34D
330
1F
100
AcDbEntity
  8
DEFAULT
100
AcDbLine
 10
5473.290212052773
 20
160.5451861069476
 30
-0.0000000000900684
 11
5473.290212052773
 21
166.0451861069476
 31
-0.0000000000900684
  0
LINE
  5
34E
330
1F
100
AcDbEntity
  8
DEFAULT
100
AcDbLine
 10
5473.290212052773
 20
166.0451861069476
 30
-0.0000000000900684
 11
5461.290212052773
 21
166.0451861069476
 31
-0.0000000000900684
  0
LINE
  5
34F
330
1F
100
AcDbEntity
  8
DEFAULT
100
AcDbLine
 10
5461.290212052773
 20
166.0451861069476
 30
-0.0000000000900684
 11
5461.290212052773
 21
160.5451861069476
 31
-0.0000000000900684
  0
LINE
  5
350
330
1F
100
AcDbEntity
  8
DEFAULT
100
AcDbLine
 10
5461.290212052773
 20
160.5451861069476
 30
-0.0000000000900684
 11
5449.290212052773
 21
160.5451861069476
 31
-0.0000000000900684
  0
LINE
  5
351
330
1F
100
AcDbEntity
  8
DEFAULT
100
AcDbLine
 10
5449.290212052773
 20
160.5451861069476
 30
-0.0000000000900684
 11
5449.290212052773
 21
166.0451861069476
 31
-0.0000000000900684
  0
LINE
  5
352
330
1F
100
AcDbEntity
  8
DEFAULT
100
AcDbLine
 10
5449.290212052773
 20
166.0451861069476
 30
-0.0000000000900684
 11
5437.290212052773
 21
166.0451861069476
 31
-0.0000000000900684
  0
LINE
  5
353
330
1F
100
AcDbEntity
  8
DEFAULT
100
AcDbLine
 10
5437.290212052773
 20
166.0451861069476
 30
-0.0000000000900684
 11
5437.290212052773
 21
160.5451861069476
 31
-0.0000000000900684
  0
LINE
  5
354
330
1F
100
AcDbEntity
  8
DEFAULT
100
AcDbLine
 10
5437.290212052773
 20
160.5451861069476
 30
-0.0000000000900684
 11
5425.290212052773
 21
160.5451861069476
 31
-0.0000000000900684
  0
LINE
  5
355
330
1F
100
AcDbEntity
  8
DEFAULT
100
AcDbLine
 10
5425.290212052773
 20
160.5451861069476
 30
-0.0000000000900684
 11
5425.290212052773
 21
166.0451861069476
 31
-0.0000000000900684
  0
LINE
  5
356
330
1F
100
AcDbEntity
  8
DEFAULT
100
AcDbLine
 10
5425.290212052773
 20
166.0451861069476
 30
-0.0000000000900684
 11
5413.290212052773
 21
166.0451861069476
 31
-0.0000000000900684
  0
LINE
  5
357
330
1F
100
AcDbEntity
  8
DEFAULT
100
AcDbLine
 10
5413.290212052773
 20
166.0451861069476
 30
-0.0000000000900684
 11
5413.290212052773
 21
160.5451861069476
 31
-0.0000000000900684
  0
LINE
  5
358
330
1F
100
AcDbEntity
  8
DEFAULT
100
AcDbLine
 10
5413.290212052773
 20
160.5451861069476
 30
-0.0000000000900684
 11
5401.290212052773
 21
160.5451861069476
 31
-0.0000000000900684
  0
LINE
  5
359
330
1F
100
AcDbEntity
  8
DEFAULT
100
AcDbLine
 10
5401.290212052773
 20
160.5451861069476
 30
-0.0000000000900684
 11
5401.290212052773
 21
166.0451861069476
 31
-0.0000000000900684
  0
LINE
  5
35A
330
1F
100
AcDbEntity
  8
DEFAULT
100
AcDbLine
 10
5401.290212052773
 20
166.0451861069476
 30
-0.0000000000900684
 11
5389.290212052773
 21
166.0451861069476
 31
-0.0000000000900684
  0
LINE
  5
35B
330
1F
100
AcDbEntity
  8
DEFAULT
100
AcDbLine
 10
5389.290212052773
 20
166.0451861069476
 30
-0.0000000000900684
 11
5389.290212052773
 21
160.5451861069476
 31
-0.0000000000900684
  0
LINE
  5
35C
330
1F
100
AcDbEntity
  8
DEFAULT
100
AcDbLine
 10
5389.290212052773
 20
160.5451861069476
 30
-0.0000000000900684
 11
5377.290212052773
 21
160.5451861069476
 31
-0.0000000000900684
  0
LINE
  5
35D
330
1F
100
AcDbEntity
  8
DEFAULT
100
AcDbLine
 10
5377.290212052773
 20
160.5451861069476
 30
-0.0000000000900684
 11
5377.290212052773
 21
166.0451861069476
 31
-0.0000000000900684
  0
LINE
  5
35E
330
1F
100
AcDbEntity
  8
DEFAULT
100
AcDbLine
 10
5377.290212052773
 20
166.0451861069476
 30
-0.0000000000900684
 11
5365.290212052773
 21
166.0451861069476
 31
-0.0000000000900684
  0
LINE
  5
35F
330
1F
100
AcDbEntity
  8
DEFAULT
100
AcDbLine
 10
5365.290212052773
 20
166.0451861069476
 30
-0.0000000000900684
 11
5365.290212052773
 21
160.5451861069476
 31
-0.0000000000900684
  0
LINE
  5
360
330
1F
100
AcDbEntity
  8
DEFAULT
100
AcDbLine
 10
5365.290212052773
 20
160.5451861069476
 30
-0.0000000000900684
 11
5353.290212052773
 21
160.5451861069476
 31
-0.0000000000900684
  0
LINE
  5
361
330
1F
100
AcDbEntity
  8
DEFAULT
100
AcDbLine
 10
5353.290212052773
 20
160.5451861069476
 30
-0.0000000000900684
 11
5353.290212052773
 21
166.0451861069476
 31
-0.0000000000900684
  0
LINE
  5
362
330
1F
100
AcDbEntity
  8
DEFAULT
100
AcDbLine
 10
5353.290212052773
 20
166.0451861069476
 30
-0.0000000000900684
 11
5341.290212052773
 21
166.0451861069476
 31
-0.0000000000900684
  0
LINE
  5
363
330
1F
100
AcDbEntity
  8
DEFAULT
100
AcDbLine
 10
5341.290212052773
 20
166.0451861069476
 30
-0.0000000000900684
 11
5341.290212052773
 21
160.5451861069476
 31
-0.0000000000900684
  0
LINE
  5
364
330
1F
100
AcDbEntity
  8
DEFAULT
100
AcDbLine
 10
5341.290212052773
 20
160.5451861069476
 30
-0.0000000000900684
 11
5329.290212052773
 21
160.5451861069476
 31
-0.0000000000900684
  0
LINE
  5
365
330
1F
100
AcDbEntity
  8
DEFAULT
100
AcDbLine
 10
5329.290212052773
 20
160.5451861069476
 30
-0.0000000000900684
 11
5329.290212052773
 21
166.0451861069476
 31
-0.0000000000900684
  0
LINE
  5
366
330
1F
100
AcDbEntity
  8
DEFAULT
100
AcDbLine
 10
5329.290212052773
 20
166.0451861069476
 30
-0.0000000000900684
 11
5317.290212052773
 21
166.0451861069476
 31
-0.0000000000900684
  0
LINE
  5
367
330
1F
100
AcDbEntity
  8
DEFAULT
100
AcDbLine
 10
5317.290212052773
 20
166.0451861069476
 30
-0.0000000000900684
 11
5317.290212052773
 21
160.5451861069476
 31
-0.0000000000900684
  0
LINE
  5
368
330
1F
100
AcDbEntity
  8
DEFAULT
100
AcDbLine
 10
5317.290212052773
 20
160.5451861069476
 30
-0.0000000000900684
 11
5305.290212052773
 21
160.5451861069476
 31
-0.0000000000900684
  0
LINE
  5
369
330
1F
100
AcDbEntity
  8
DEFAULT
100
AcDbLine
 10
5305.290212052773
 20
160.5451861069476
 30
-0.0000000000900684
 11
5305.290212052773
 21
166.0451861069476
 31
-0.0000000000900684
  0
LINE
  5
36A
330
1F
100
AcDbEntity
  8
DEFAULT
100
AcDbLine
 10
5305.290212052773
 20
166.0451861069476
 30
-0.0000000000900684
 11
5293.290212052773
 21
166.0451861069476
 31
-0.0000000000900684
  0
LINE
  5
36B
330
1F
100
AcDbEntity
  8
DEFAULT
100
AcDbLine
 10
5293.290212052773
 20
166.0451861069476
 30
-0.0000000000900684
 11
5293.290212052773
 21
160.5451861069476
 31
-0.0000000000900684
  0
LINE
  5
36C
330
1F
100
AcDbEntity
  8
DEFAULT
100
AcDbLine
 10
5293.290212052773
 20
160.5451861069476
 30
-0.0000000000900684
 11
5281.290212052773
 21
160.5451861069476
 31
-0.0000000000900684
  0
LINE
  5
36D
330
1F
100
AcDbEntity
  8
DEFAULT
100
AcDbLine
 10
5281.290212052773
 20
160.5451861069476
 30
-0.0000000000900684
 11
5281.290212052773
 21
166.0451861069476
 31
-0.0000000000900684
  0
LINE
  5
36E
330
1F
100
AcDbEntity
  8
DEFAULT
100
AcDbLine
 10
5281.290212052773
 20
166.0451861069476
 30
-0.0000000000900684
 11
5267.798599803225
 21
166.0451861069476
 31
-0.0000000000891305
  0
LINE
  5
36F
330
1F
100
AcDbEntity
  8
DEFAULT
100
AcDbLine
 10
5267.798599803225
 20
166.0451861069476
 30
-0.0000000000891305
 11
5267.798599803225
 21
186.0451861069476
 31
-0.0000000000891305
  0
LINE
  5
370
330
1F
100
AcDbEntity
  8
DEFAULT
100
AcDbLine
 10
5267.798599803225
 20
186.0451861069476
 30
-0.0000000000891305
 11
5267.798599803225
 21
229.0451861069476
 31
0.0000000002714273
  0
LINE
  5
371
330
1F
100
AcDbEntity
  8
DEFAULT
100
AcDbLine
 10
5267.798599803225
 20
229.0451861069476
 30
0.0000000002714273
 11
5288.9611107976
 21
229.0451861069476
 31
0.0000000002712568
  0
LINE
  5
372
330
1F
100
AcDbEntity
  8
DEFAULT
100
AcDbLine
 10
5288.9611107976
 20
229.0451861069476
 30
0.0000000002712568
 11
5288.9611107976
 21
186.0451861069476
 31
0.0000000000909779
  0
LINE
  5
373
330
1F
100
AcDbEntity
  8
DEFAULT
100
AcDbLine
 10
5288.9611107976
 20
186.0451861069476
 30
0.0000000000909779
 11
5315.87146754996
 21
186.0451861069476
 31
0.0
  0
LINE
  5
374
330
1F
100
AcDbEntity
  8
DEFAULT
100
AcDbLine
 10
5315.87146754996
 20
186.0451861069476
 30
0.0
 11
5315.87146754996
 21
191.5451861069476
 31
0.0
  0
LINE
  5
375
330
1F
100
AcDbEntity
  8
DEFAULT
100
AcDbLine
 10
5315.87146754996
 20
191.5451861069476
 30
0.0
 11
5327.87146754996
 21
191.5451861069476
 31
0.0
  0
LINE
  5
376
330
1F
100
AcDbEntity
  8
DEFAULT
100
AcDbLine
 10
5327.87146754996
 20
191.5451861069476
 30
0.0
 11
5327.87146754996
 21
186.0451861069476
 31
0.0
  0
LINE
  5
377
330
1F
100
AcDbEntity
  8
DEFAULT
100
AcDbLine
 10
5327.87146754996
 20
186.0451861069476
 30
0.0
 11
5339.87146754996
 21
186.0451861069476
 31
0.0
  0
LINE
  5
378
330
1F
100
AcDbEntity
  8
DEFAULT
100
AcDbLine
 10
5339.87146754996
 20
186.0451861069476
 30
0.0
 11
5339.87146754996
 21
191.5451861069476
 31
0.0
  0
LINE
  5
379
330
1F
100
AcDbEntity
  8
DEFAULT
100
AcDbLine
 10
5339.87146754996
 20
191.5451861069476
 30
0.0
 11
5351.87146754996
 21
191.5451861069476
 31
0.0
  0
LINE
  5
37A
330
1F
100
AcDbEntity
  8
DEFAULT
100
AcDbLine
 10
5351.87146754996
 20
191.5451861069476
 30
0.0
 11
5351.87146754996
 21
186.0451861069476
 31
0.0
  0
LINE
  5
37B
330
1F
100
AcDbEntity
  8
DEFAULT
100
AcDbLine
 10
5351.87146754996
 20
186.0451861069476
 30
0.0
 11
5363.87146754996
 21
186.0451861069476
 31
0.0
  0
LINE
  5
37C
330
1F
100
AcDbEntity
  8
DEFAULT
100
AcDbLine
 10
5363.87146754996
 20
186.0451861069476
 30
0.0
 11
5363.87146754996
 21
191.5451861069476
 31
0.0
  0
LINE
  5
37D
330
1F
100
AcDbEntity
  8
DEFAULT
100
AcDbLine
 10
5363.87146754996
 20
191.5451861069476
 30
0.0
 11
5375.87146754996
 21
191.5451861069476
 31
0.0
  0
LINE
  5
37E
330
1F
100
AcDbEntity
  8
DEFAULT
100
AcDbLine
 10
5375.87146754996
 20
191.5451861069476
 30
0.0
 11
5375.87146754996
 21
186.0451861069476
 31
0.0
  0
LINE
  5
37F
330
1F
100
AcDbEntity
  8
DEFAULT
100
AcDbLine
 10
5375.87146754996
 20
186.0451861069476
 30
0.0
 11
5411.87146754996
 21
186.0451861069476
 31
0.0
  0
LINE
  5
380
330
1F
100
AcDbEntity
  8
DEFAULT
100
AcDbLine
 10
5411.87146754996
 20
186.0451861069476
 30
0.0
 11
5411.87146754996
 21
191.5451861069476
 31
0.0
  0
LINE
  5
381
330
1F
100
AcDbEntity
  8
DEFAULT
100
AcDbLine
 10
5411.87146754996
 20
191.5451861069476
 30
0.0
 11
5423.87146754996
 21
191.5451861069476
 31
0.0
  0
LINE
  5
382
330
1F
100
AcDbEntity
  8
DEFAULT
100
AcDbLine
 10
5289.87146754996
 20
210.5451861069476
 30
0.0
 11
5295.37146754996
 21
210.5451861069476
 31
0.0
  0
LINE
  5
383
330
1F
100
AcDbEntity
  8
DEFAULT
100
AcDbLine
 10
5295.37146754996
 20
210.5451861069476
 30
0.0
 11
5295.37146754996
 21
198.0451861069476
 31
0.0
  0
LINE
  5
384
330
1F
100
AcDbEntity
  8
DEFAULT
100
AcDbLine
 10
5295.37146754996
 20
198.0451861069476
 30
0.0
 11
5302.87146754996
 21
198.0451861069476
 31
0.0
  0
LINE
  5
385
330
1F
100
AcDbEntity
  8
DEFAULT
100
AcDbLine
 10
5302.87146754996
 20
198.0451861069476
 30
0.0
 11
5302.87146754996
 21
192.5451861069476
 31
0.0
  0
LINE
  5
386
330
1F
100
AcDbEntity
  8
DEFAULT
100
AcDbLine
 10
5302.87146754996
 20
192.5451861069476
 30
0.0
 11
5314.87146754996
 21
192.5451861069476
 31
0.0
  0
LINE
  5
387
330
1F
100
AcDbEntity
  8
DEFAULT
100
AcDbLine
 10
5314.87146754996
 20
192.5451861069476
 30
0.0
 11
5314.87146754996
 21
198.0451861069476
 31
0.0
  0
LINE
  5
388
330
1F
100
AcDbEntity
  8
DEFAULT
100
AcDbLine
 10
5314.87146754996
 20
198.0451861069476
 30
0.0
 11
5326.87146754996
 21
198.0451861069476
 31
0.0
  0
LINE
  5
389
330
1F
100
AcDbEntity
  8
DEFAULT
100
AcDbLine
 10
5326.87146754996
 20
198.0451861069476
 30
0.0
 11
5326.87146754996
 21
192.5451861069476
 31
0.0
  0
LINE
  5
38A
330
1F
100
AcDbEntity
  8
DEFAULT
100
AcDbLine
 10
5326.87146754996
 20
192.5451861069476
 30
0.0
 11
5338.87146754996
 21
192.5451861069476
 31
0.0
  0
LINE
  5
38B
330
1F
100
AcDbEntity
  8
DEFAULT
100
AcDbLine
 10
5338.87146754996
 20
192.5451861069476
 30
0.0
 11
5338.87146754996
 21
198.0451861069476
 31
0.0
  0
LINE
  5
38C
330
1F
100
AcDbEntity
  8
DEFAULT
100
AcDbLine
 10
5338.87146754996
 20
198.0451861069476
 30
0.0
 11
5350.87146754996
 21
198.0451861069476
 31
0.0
  0
LINE
  5
38D
330
1F
100
AcDbEntity
  8
DEFAULT
100
AcDbLine
 10
5350.87146754996
 20
198.0451861069476
 30
0.0
 11
5350.87146754996
 21
192.5451861069476
 31
0.0
  0
LINE
  5
38E
330
1F
100
AcDbEntity
  8
DEFAULT
100
AcDbLine
 10
5350.87146754996
 20
192.5451861069476
 30
0.0
 11
5362.87146754996
 21
192.5451861069476
 31
0.0
  0
LINE
  5
38F
330
1F
100
AcDbEntity
  8
DEFAULT
100
AcDbLine
 10
5362.87146754996
 20
192.5451861069476
 30
0.0
 11
5362.87146754996
 21
198.0451861069476
 31
0.0
  0
LINE
  5
390
330
1F
100
AcDbEntity
  8
DEFAULT
100
AcDbLine
 10
5362.87146754996
 20
198.0451861069476
 30
0.0
 11
5370.37146754996
 21
198.0451861069476
 31
0.0
  0
LINE
  5
391
330
1F
100
AcDbEntity
  8
DEFAULT
100
AcDbLine
 10
5370.37146754996
 20
198.0451861069476
 30
0.0
 11
5370.37146754996
 21
210.5451861069476
 31
0.0
  0
LINE
  5
392
330
1F
100
AcDbEntity
  8
DEFAULT
100
AcDbLine
 10
5370.37146754996
 20
210.5451861069476
 30
0.0
 11
5375.87146754996
 21
210.5451861069476
 31
0.0
  0
LINE
  5
393
330
1F
100
AcDbEntity
  8
DEFAULT
100
AcDbLine
 10
5375.87146754996
 20
210.5451861069476
 30
0.0
 11
5375.87146754996
 21
222.5451861069476
 31
0.0
  0
LINE
  5
394
330
1F
100
AcDbEntity
  8
DEFAULT
100
AcDbLine
 10
5375.87146754996
 20
222.5451861069476
 30
0.0
 11
5370.37146754996
 21
222.5451861069476
 31
0.0
  0
LINE
  5
395
330
1F
100
AcDbEntity
  8
DEFAULT
100
AcDbLine
 10
5370.37146754996
 20
222.5451861069476
 30
0.0
 11
5370.37146754996
 21
234.5451861069476
 31
0.0
  0
LINE
  5
396
330
1F
100
AcDbEntity
  8
DEFAULT
100
AcDbLine
 10
5370.37146754996
 20
234.5451861069476
 30
0.0
 11
5375.87146754996
 21
234.5451861069476
 31
0.0
  0
LINE
  5
397
330
1F
100
AcDbEntity
  8
DEFAULT
100
AcDbLine
 10
5375.87146754996
 20
234.5451861069476
 30
0.0
 11
5375.87146754996
 21
246.5451861069476
 31
0.0
  0
LINE
  5
398
330
1F
100
AcDbEntity
  8
DEFAULT
100
AcDbLine
 10
5375.87146754996
 20
246.5451861069476
 30
0.0
 11
5370.37146754996
 21
246.5451861069476
 31
0.0
  0
LINE
  5
399
330
1F
100
AcDbEntity
  8
DEFAULT
100
AcDbLine
 10
5370.37146754996
 20
246.5451861069476
 30
0.0
 11
5370.37146754996
 21
258.5451861069477
 31
0.0
  0
LINE
  5
39A
330
1F
100
AcDbEntity
  8
DEFAULT
100
AcDbLine
 10
5370.37146754996
 20
258.5451861069477
 30
0.0
 11
5375.87146754996
 21
258.5451861069477
 31
0.0
  0
LINE
  5
39B
330
1F
100
AcDbEntity
  8
DEFAULT
100
AcDbLine
 10
5375.87146754996
 20
258.5451861069477
 30
0.0
 11
5375.87146754996
 21
270.5451861069477
 31
0.0
  0
LINE
  5
39C
330
1F
100
AcDbEntity
  8
DEFAULT
100
AcDbLine
 10
5375.87146754996
 20
270.5451861069477
 30
0.0
 11
5370.37146754996
 21
270.5451861069477
 31
0.0
  0
LINE
  5
39D
330
1F
100
AcDbEntity
  8
DEFAULT
100
AcDbLine
 10
5370.37146754996
 20
270.5451861069477
 30
0.0
 11
5370.37146754996
 21
282.5451861069477
 31
0.0
  0
LINE
  5
39E
330
1F
100
AcDbEntity
  8
DEFAULT
100
AcDbLine
 10
5370.37146754996
 20
282.5451861069477
 30
0.0
 11
5375.87146754996
 21
282.5451861069477
 31
0.0
  0
LINE
  5
39F
330
1F
100
AcDbEntity
  8
DEFAULT
100
AcDbLine
 10
5375.87146754996
 20
282.5451861069477
 30
0.0
 11
5375.87146754996
 21
294.5451861069477
 31
0.0
  0
LINE
  5
3A0
330
1F
100
AcDbEntity
  8
DEFAULT
100
AcDbLine
 10
5375.87146754996
 20
294.5451861069477
 30
0.0
 11
5370.37146754996
 21
294.5451861069477
 31
0.0
  0
LINE
  5
3A1
330
1F
100
AcDbEntity
  8
DEFAULT
100
AcDbLine
 10
5370.37146754996
 20
294.5451861069477
 30
0.0
 11
5370.37146754996
 21
306.5451861069477
 31
0.0
  0
LINE
  5
3A2
330
1F
100
AcDbEntity
  8
DEFAULT
100
AcDbLine
 10
5370.37146754996
 20
306.5451861069477
 30
0.0
 11
5375.87146754996
 21
306.5451861069477
 31
0.0
  0
LINE
  5
3A3
330
1F
100
AcDbEntity
  8
DEFAULT
100
AcDbLine
 10
5375.87146754996
 20
306.5451861069477
 30
0.0
 11
5375.87146754996
 21
318.5451861069477
 31
0.0
  0
LINE
  5
3A4
330
1F
100
AcDbEntity
  8
DEFAULT
100
AcDbLine
 10
5375.87146754996
 20
318.5451861069477
 30
0.0
 11
5370.37146754996
 21
318.5451861069477
 31
0.0
  0
LINE
  5
3A5
330
1F
100
AcDbEntity
  8
DEFAULT
100
AcDbLine
 10
5370.37146754996
 20
318.5451861069477
 30
0.0
 11
5370.37146754996
 21
331.0451861069477
 31
0.0
  0
LINE
  5
3A6
330
1F
100
AcDbEntity
  8
DEFAULT
100
AcDbLine
 10
5370.37146754996
 20
331.0451861069477
 30
0.0
 11
5295.37146754996
 21
331.0451861069477
 31
0.0
  0
LINE
  5
3A7
330
1F
100
AcDbEntity
  8
DEFAULT
100
AcDbLine
 10
5295.37146754996
 20
331.0451861069477
 30
0.0
 11
5295.37146754996
 21
318.5451861069477
 31
0.0
  0
LINE
  5
3A8
330
1F
100
AcDbEntity
  8
DEFAULT
100
AcDbLine
 10
5295.37146754996
 20
318.5451861069477
 30
0.0
 11
5289.87146754996
 21
318.5451861069477
 31
0.0
  0
LINE
  5
3A9
330
1F
100
AcDbEntity
  8
DEFAULT
100
AcDbLine
 10
5289.87146754996
 20
318.5451861069477
 30
0.0
 11
5289.87146754996
 21
306.5451861069477
 31
0.0
  0
LINE
  5
3AA
330
1F
100
AcDbEntity
  8
DEFAULT
100
AcDbLine
 10
5289.87146754996
 20
306.5451861069477
 30
0.0
 11
5295.37146754996
 21
306.5451861069477
 31
0.0
  0
LINE
  5
3AB
330
1F
100
AcDbEntity
  8
DEFAULT
100
AcDbLine
 10
5295.37146754996
 20
306.5451861069477
 30
0.0
 11
5295.37146754996
 21
294.5451861069477
 31
0.0
  0
LINE
  5
3AC
330
1F
100
AcDbEntity
  8
DEFAULT
100
AcDbLine
 10
5295.37146754996
 20
294.5451861069477
 30
0.0
 11
5289.87146754996
 21
294.5451861069477
 31
0.0
  0
LINE
  5
3AD
330
1F
100
AcDbEntity
  8
DEFAULT
100
AcDbLine
 10
5289.87146754996
 20
294.5451861069477
 30
0.0
 11
5289.87146754996
 21
282.5451861069477
 31
0.0
  0
LINE
  5
3AE
330
1F
100
AcDbEntity
  8
DEFAULT
100
AcDbLine
 10
5289.87146754996
 20
282.5451861069477
 30
0.0
 11
5295.37146754996
 21
282.5451861069477
 31
0.0
  0
LINE
  5
3AF
330
1F
100
AcDbEntity
  8
DEFAULT
100
AcDbLine
 10
5295.37146754996
 20
282.5451861069477
 30
0.0
 11
5295.37146754996
 21
270.5451861069477
 31
0.0
  0
LINE
  5
3B0
330
1F
100
AcDbEntity
  8
DEFAULT
100
AcDbLine
 10
5295.37146754996
 20
270.5451861069477
 30
0.0
 11
5289.87146754996
 21
270.5451861069477
 31
0.0
  0
LINE
  5
3B1
330
1F
100
AcDbEntity
  8
DEFAULT
100
AcDbLine
 10
5289.87146754996
 20
270.5451861069477
 30
0.0
 11
5289.87146754996
 21
258.5451861069477
 31
0.0
  0
LINE
  5
3B2
330
1F
100
AcDbEntity
  8
DEFAULT
100
AcDbLine
 10
5289.87146754996
 20
258.5451861069477
 30
0.0
 11
5295.37146754996
 21
258.5451861069477
 31
0.0
  0
LINE
  5
3B3
330
1F
100
AcDbEntity
  8
DEFAULT
100
AcDbLine
 10
5295.37146754996
 20
258.5451861069477
 30
0.0
 11
5295.37146754996
 21
246.5451861069476
 31
0.0
  0
LINE
  5
3B4
330
1F
100
AcDbEntity
  8
DEFAULT
100
AcDbLine
 10
5295.37146754996
 20
246.5451861069476
 30
0.0
 11
5289.87146754996
 21
246.5451861069476
 31
0.0
  0
LINE
  5
3B5
330
1F
100
AcDbEntity
  8
DEFAULT
100
AcDbLine
 10
5289.87146754996
 20
246.5451861069476
 30
0.0
 11
5289.87146754996
 21
234.5451861069476
 31
0.0
  0
LINE
  5
3B6
330
1F
100
AcDbEntity
  8
DEFAULT
100
AcDbLine
 10
5289.87146754996
 20
234.5451861069476
 30
0.0
 11
5295.37146754996
 21
234.5451861069476
 31
0.0
  0
LINE
  5
3B7
330
1F
100
AcDbEntity
  8
DEFAULT
100
AcDbLine
 10
5295.37146754996
 20
234.5451861069476
 30
0.0
 11
5295.37146754996
 21
222.5451861069476
 31
0.0
  0
LINE
  5
3B8
330
1F
100
AcDbEntity
  8
DEFAULT
100
AcDbLine
 10
5295.37146754996
 20
222.5451861069476
 30
0.0
 11
5289.87146754996
 21
222.5451861069476
 31
0.0
  0
LINE
  5
3B9
330
1F
100
AcDbEntity
  8
DEFAULT
100
AcDbLine
 10
5289.87146754996
 20
222.5451861069476
 30
0.0
 11
5289.87146754996
 21
210.5451861069476
 31
0.0
  0
ENDSEC
  0
SECTION
  2
OBJECTS
  0
DICTIONARY
  5
C
330
0
100
AcDbDictionary
281
     1
  3
ACAD_DETAILVIEWSTYLE
350
3FB
  3
ACAD_GROUP
350
D
  3
ACAD_IMAGE_VARS
350
3F5
  3
ACAD_LAYOUT
350
1A
  3
ACAD_MATERIAL
350
43
  3
ACAD_MLEADERSTYLE
350
6B
  3
ACAD_MLINESTYLE
350
17
  3
ACAD_PLOTSETTINGS
350
19
  3
ACAD_SCALELIST
350
47
  3
ACAD_SECTIONVIEWSTYLE
350
3FC
  3
ACAD_TABLESTYLE
350
3ED
  3
ACAD_VISUALSTYLE
350
2A
  3
ACDB_RECOMPOSE_DATA
350
402
  3
ACDBVARIABLEDICTIONARY
350
3DB
  3
APPDATA
350
3F3
  0
SUN
  5
3F4
330
29
100
AcDbSun
 90
        1
290
     0
 63
     7
421
 16777215
 40
1.0
291
     1
 91
  2455826
 92
 54000000
292
     0
 70
     2
 71
   256
280
     1
  0
DICTIONARY
  5
3FB
102
{ACAD_REACTORS
330
C
102
}
330
C
100
AcDbDictionary
281
     1
  0
DICTIONARY
  5
D
102
{ACAD_REACTORS
330
C
102
}
330
C
100
AcDbDictionary
281
     1
  0
RASTERVARIABLES
  5
3F5
102
{ACAD_REACTORS
330
C
102
}
330
C
100
AcDbRasterVariables
 90
        0
 70
     1
 71
     1
 72
     1
  0
DICTIONARY
  5
1A
102
{ACAD_REACTORS
330
C
102
}
330
C
100
AcDbDictionary
281
     1
  3
Model
350
3EE
  3
Sheet 1
350
3EF
  0
DICTIONARY
  5
43
102
{ACAD_REACTORS
330
C
102
}
330
C
100
AcDbDictionary
281
     1
  3
BYBLOCK
350
45
  3
BYLAYER
350
44
  3
GLOBAL
350
46
  0
DICTIONARY
  5
6B
102
{ACAD_REACTORS
330
C
102
}
330
C
100
AcDbDictionary
281
     1
  3
STANDARD
350
6C
  0
DICTIONARY
  5
17
102
{ACAD_REACTORS
330
C
102
}
330
C
100
AcDbDictionary
281
     1
  3
STANDARD
350
18
  0
DICTIONARY
  5
19
102
{ACAD_REACTORS
330
C
102
}
330
C
100
AcDbDictionary
281
     1
  0
DICTIONARY
  5
47
102
{ACAD_REACTORS
330
C
102
}
330
C
100
AcDbDictionary
281
     1
  3
A0
350
48
  3
A1
350
49
  3
A2
350
4A
  3
A3
350
4B
  3
A4
350
4C
  3
A5
350
4D
  3
A6
350
4E
  3
A7
350
4F
  3
A8
350
50
  3
A9
350
51
  3
B0
350
52
  3
B1
350
53
  3
B2
350
54
  3
B3
350
55
  3
B4
350
56
  3
B5
350
57
  3
B6
350
58
  3
B7
350
59
  3
B8
350
5A
  3
B9
350
5B
  3
C0
350
5C
  3
C1
350
5D
  3
C2
350
5E
  3
C3
350
5F
  3
C4
350
60
  3
C5
350
61
  3
C6
350
62
  3
C7
350
63
  3
C8
350
64
  3
C9
350
65
  3
D0
350
66
  3
D1
350
67
  3
D2
350
68
  0
DICTIONARY
  5
3FC
102
{ACAD_REACTORS
330
C
102
}
330
C
100
AcDbDictionary
281
     1
  0
DICTIONARY
  5
3ED
102
{ACAD_REACTORS
330
C
102
}
330
C
100
AcDbDictionary
281
     1
  3
Standard
350
3F2
  0
DICTIONARY
  5
2A
102
{ACAD_REACTORS
330
C
102
}
330
C
100
AcDbDictionary
281
     1
  3
2DWIREFRAME
350
2F
  3
BASIC
350
32
  3
BRIGHTEN
350
36
  3
COLORCHANGE
350
3A
  3
CONCEPTUAL
350
34
  3
DIM
350
35
  3
EDGECOLOROFF
350
3D
  3
FACEPATTERN
350
39
  3
FLAT
350
2B
  3
FLATWITHEDGES
350
2C
  3
GOURAUD
350
2D
  3
GOURAUDWITHEDGES
350
2E
  3
HIDDEN
350
31
  3
JITTEROFF
350
3B
  3
LINEPATTERN
350
38
  3
OVERHANGOFF
350
3C
  3
REALISTIC
350
33
  3
SHADED
350
42
  3
Shaded with edges
350
3F1
  3
SHADED_WITH_EDGES
350
41
  3
Shades of Gray
350
3F0
  3
SHADES_OF_GRAY
350
3E
  3
SKETCHY
350
3F
  3
THICKEN
350
37
  3
WIREFRAME
350
30
  3
X-RAY
350
40
  0
XRECORD
  5
402
102
{ACAD_REACTORS
330
C
102
}
330
C
100
AcDbXrecord
280
     1
 90
        1
330
3F2
  0
DICTIONARY
  5
3DB
102
{ACAD_REACTORS
330
C
102
}
330
C
100
AcDbDictionary
281
     1
  3
CANNOSCALE
350
3F6
  3
CMLEADERSTYLE
350
3DD
  3
CTABLESTYLE
350
3FA
  3
DIMASSOC
350
3E0
  3
HIDETEXT
350
3E1
  3
MSLTSCALE
350
3E5
  0
DICTIONARY
  5
3F3
102
{ACAD_REACTORS
330
C
102
}
330
C
100
AcDbDictionary
281
     1
  0
LAYOUT
  5
3EE
102
{ACAD_REACTORS
330
1A
102
}
330
1A
100
AcDbPlotSettings
  1

  2
none_device
  4
Letter_(8.50_x_11.00_Inches)
  6

 40
6.35
 41
6.35
 42
6.35
 43
6.35
 44
215.9
 45
279.4
 46
0.0
 47
0.0
 48
0.0
 49
0.0
140
0.0
141
0.0
142
1.0
143
52.27183873280011
 70
  1712
 72
     0
 73
     0
 74
     0
  7

 75
     0
 76
     0
 77
     2
 78
   300
147
0.0191307599702344
148
-133577.0404350019
149
4582.87617870526
100
AcDbLayout
  1
Model
 70
     1
 71
     0
 10
0.0
 20
0.0
 11
12.0
 21
9.0
 12
0.0
 22
0.0
 32
0.0
 14
5267.798599803225
 24
160.5451861069476
 34
-0.0000000002714273
 15
5544.254031848272
 25
363.0451861069477
 35
0.0000000002714273
146
0.0
 13
0.0
 23
0.0
 33
0.0
 16
1.0
 26
0.0
 36
0.0
 17
0.0
 27
1.0
 37
0.0
 76
     0
330
1F
331
29
  0
LAYOUT
  5
3EF
102
{ACAD_REACTORS
330
1A
102
}
330
1A
100
AcDbPlotSettings
  1

  2
none_device
  4

  6

 40
0.0
 41
0.0
 42
0.0
 43
0.0
 44
0.0
 45
0.0
 46
0.0
 47
0.0
 48
0.0
 49
0.0
140
0.0
141
0.0
142
1.0
143
1.0
 70
   688
 72
     0
 73
     0
 74
     5
  7

 75
    16
 76
     0
 77
     2
 78
   300
147
1.0
148
0.0
149
0.0
100
AcDbLayout
  1
Sheet 1
 70
     1
 71
     1
 10
0.0
 20
0.0
 11
0.0
 21
0.0
 12
0.0
 22
0.0
 32
0.0
 14
1.000000000000000E+20
 24
1.000000000000000E+20
 34
1.000000000000000E+20
 15
-1.000000000000000E+20
 25
-1.000000000000000E+20
 35
-1.000000000000000E+20
146
0.0
 13
0.0
 23
0.0
 33
0.0
 16
1.0
 26
0.0
 36
0.0
 17
0.0
 27
1.0
 37
0.0
 76
     0
330
1B
  0
MATERIAL
  5
45
102
{ACAD_REACTORS
330
43
102
}
330
43
100
AcDbMaterial
  1
BYBLOCK
 72
     1
 94
      127
  0
MATERIAL
  5
44
102
{ACAD_REACTORS
330
43
102
}
330
43
100
AcDbMaterial
  1
BYLAYER
 72
     1
 94
      127
  0
MATERIAL
  5
46
102
{ACAD_REACTORS
330
43
102
}
330
43
100
AcDbMaterial
  1
GLOBAL
 72
     1
 94
      127
  0
MLEADERSTYLE
  5
6C
102
{ACAD_REACTORS
330
6B
102
}
330
6B
100
AcDbMLeaderStyle
179
     2
170
     2
171
     1
172
     0
 90
        2
 40
0.0
 41
0.0
173
     1
 91
-1056964608
340
14
 92
       -2
290
     1
 42
0.09
291
     1
 43
0.36
  3
Standard
341
0
 44
0.18
300

342
11
174
     1
178
     6
175
     1
176
     0
 93
-1056964608
 45
0.18
292
     0
297
     0
 46
0.18
343
0
 94
-1056964608
 47
1.0
 49
1.0
140
1.0
293
     1
141
0.0
294
     1
177
     0
142
1.0
295
     0
296
     0
143
0.125
271
     0
272
     9
273
     9
298
     0
  0
MLINESTYLE
  5
18
102
{ACAD_REACTORS
330
17
102
}
330
17
100
AcDbMlineStyle
  2
Standard
 70
     0
  3

 62
   256
 51
90.0
 52
90.0
 71
     2
 49
0.5
 62
   256
  6
BYLAYER
 49
-0.5
 62
   256
  6
BYLAYER
  0
SCALE
  5
48
102
{ACAD_REACTORS
330
47
102
}
330
47
100
AcDbScale
 70
     0
300
1:1
140
1.0
141
1.0
290
     1
  0
SCALE
  5
49
102
{ACAD_REACTORS
330
47
102
}
330
47
100
AcDbScale
 70
     0
300
1:2
140
1.0
141
2.0
290
     0
  0
SCALE
  5
4A
102
{ACAD_REACTORS
330
47
102
}
330
47
100
AcDbScale
 70
     0
300
1:4
140
1.0
141
4.0
290
     0
  0
SCALE
  5
4B
102
{ACAD_REACTORS
330
47
102
}
330
47
100
AcDbScale
 70
     0
300
1:5
140
1.0
141
5.0
290
     0
  0
SCALE
  5
4C
102
{ACAD_REACTORS
330
47
102
}
330
47
100
AcDbScale
 70
     0
300
1:8
140
1.0
141
8.0
290
     0
  0
SCALE
  5
4D
102
{ACAD_REACTORS
330
47
102
}
330
47
100
AcDbScale
 70
     0
300
1:10
140
1.0
141
10.0
290
     0
  0
SCALE
  5
4E
102
{ACAD_REACTORS
330
47
102
}
330
47
100
AcDbScale
 70
     0
300
1:16
140
1.0
141
16.0
290
     0
  0
SCALE
  5
4F
102
{ACAD_REACTORS
330
47
102
}
330
47
100
AcDbScale
 70
     0
300
1:20
140
1.0
141
20.0
290
     0
  0
SCALE
  5
50
102
{ACAD_REACTORS
330
47
102
}
330
47
100
AcDbScale
 70
     0
300
1:30
140
1.0
141
30.0
290
     0
  0
SCALE
  5
51
102
{ACAD_REACTORS
330
47
102
}
330
47
100
AcDbScale
 70
     0
300
1:40
140
1.0
141
40.0
290
     0
  0
SCALE
  5
52
102
{ACAD_REACTORS
330
47
102
}
330
47
100
AcDbScale
 70
     0
300
1:50
140
1.0
141
50.0
290
     0
  0
SCALE
  5
53
102
{ACAD_REACTORS
330
47
102
}
330
47
100
AcDbScale
 70
     0
300
1:100
140
1.0
141
100.0
290
     0
  0
SCALE
  5
54
102
{ACAD_REACTORS
330
47
102
}
330
47
100
AcDbScale
 70
     0
300
2:1
140
2.0
141
1.0
290
     0
  0
SCALE
  5
55
102
{ACAD_REACTORS
330
47
102
}
330
47
100
AcDbScale
 70
     0
300
4:1
140
4.0
141
1.0
290
     0
  0
SCALE
  5
56
102
{ACAD_REACTORS
330
47
102
}
330
47
100
AcDbScale
 70
     0
300
8:1
140
8.0
141
1.0
290
     0
  0
SCALE
  5
57
102
{ACAD_REACTORS
330
47
102
}
330
47
100
AcDbScale
 70
     0
300
10:1
140
10.0
141
1.0
290
     0
  0
SCALE
  5
58
102
{ACAD_REACTORS
330
47
102
}
330
47
100
AcDbScale
 70
     0
300
100:1
140
100.0
141
1.0
290
     0
  0
SCALE
  5
59
102
{ACAD_REACTORS
330
47
102
}
330
47
100
AcDbScale
 70
     0
300
1/128" = 1'-0"
140
0.0078125
141
12.0
290
     0
  0
SCALE
  5
5A
102
{ACAD_REACTORS
330
47
102
}
330
47
100
AcDbScale
 70
     0
300
1/64" = 1'-0"
140
0.015625
141
12.0
290
     0
  0
SCALE
  5
5B
102
{ACAD_REACTORS
330
47
102
}
330
47
100
AcDbScale
 70
     0
300
1/32" = 1'-0"
140
0.03125
141
12.0
290
     0
  0
SCALE
  5
5C
102
{ACAD_REACTORS
330
47
102
}
330
47
100
AcDbScale
 70
     0
300
1/16" = 1'-0"
140
0.0625
141
12.0
290
     0
  0
SCALE
  5
5D
102
{ACAD_REACTORS
330
47
102
}
330
47
100
AcDbScale
 70
     0
300
3/32" = 1'-0"
140
0.09375
141
12.0
290
     0
  0
SCALE
  5
5E
102
{ACAD_REACTORS
330
47
102
}
330
47
100
AcDbScale
 70
     0
300
1/8" = 1'-0"
140
0.125
141
12.0
290
     0
  0
SCALE
  5
5F
102
{ACAD_REACTORS
330
47
102
}
330
47
100
AcDbScale
 70
     0
300
3/16" = 1'-0"
140
0.1875
141
12.0
290
     0
  0
SCALE
  5
60
102
{ACAD_REACTORS
330
47
102
}
330
47
100
AcDbScale
 70
     0
300
1/4" = 1'-0"
140
0.25
141
12.0
290
     0
  0
SCALE
  5
61
102
{ACAD_REACTORS
330
47
102
}
330
47
100
AcDbScale
 70
     0
300
3/8" = 1'-0"
140
0.375
141
12.0
290
     0
  0
SCALE
  5
62
102
{ACAD_REACTORS
330
47
102
}
330
47
100
AcDbScale
 70
     0
300
1/2" = 1'-0"
140
0.5
141
12.0
290
     0
  0
SCALE
  5
63
102
{ACAD_REACTORS
330
47
102
}
330
47
100
AcDbScale
 70
     0
300
3/4" = 1'-0"
140
0.75
141
12.0
290
     0
  0
SCALE
  5
64
102
{ACAD_REACTORS
330
47
102
}
330
47
100
AcDbScale
 70
     0
300
1" = 1'-0"
140
1.0
141
12.0
290
     0
  0
SCALE
  5
65
102
{ACAD_REACTORS
330
47
102
}
330
47
100
AcDbScale
 70
     0
300
1-1/2" = 1'-0"
140
1.5
141
12.0
290
     0
  0
SCALE
  5
66
102
{ACAD_REACTORS
330
47
102
}
330
47
100
AcDbScale
 70
     0
300
3" = 1'-0"
140
3.0
141
12.0
290
     0
  0
SCALE
  5
67
102
{ACAD_REACTORS
330
47
102
}
330
47
100
AcDbScale
 70
     0
300
6" = 1'-0"
140
6.0
141
12.0
290
     0
  0
SCALE
  5
68
102
{ACAD_REACTORS
330
47
102
}
330
47
100
AcDbScale
 70
     0
300
1'-0" = 1'-0"
140
12.0
141
12.0
290
     0
  0
TABLESTYLE
  5
3F2
102
{ACAD_REACTORS
330
3ED
102
}
102
{ACAD_XDICTIONARY
360
400
102
}
330
3ED
100
AcDbTableStyle
  3
Standard
 70
     0
 71
     0
 40
0.06
 41
0.06
280
     0
281
     0
  7
STANDARD
140
0.18
170
     2
 62
     0
 63
   257
283
     0
 90
        4
 91
        0
  1

274
    -2
284
     1
 64
     0
275
    -2
285
     1
 65
     0
276
    -2
286
     1
 66
     0
277
    -2
287
     1
 67
     0
278
    -2
288
     1
 68
     0
279
    -2
289
     1
 69
     0
  7
STANDARD
140
0.25
170
     5
 62
     0
 63
   257
283
     0
 90
        4
 91
        0
  1

274
    -2
284
     1
 64
     0
275
    -2
285
     1
 65
     0
276
    -2
286
     1
 66
     0
277
    -2
287
     1
 67
     0
278
    -2
288
     1
 68
     0
279
    -2
289
     1
 69
     0
  7
STANDARD
140
0.18
170
     5
 62
     0
 63
   257
283
     0
 90
        4
 91
        0
  1

274
    -2
284
     1
 64
     0
275
    -2
285
     1
 65
     0
276
    -2
286
     1
 66
     0
277
    -2
287
     1
 67
     0
278
    -2
288
     1
 68
     0
279
    -2
289
     1
 69
     0
  0
VISUALSTYLE
  5
2F
102
{ACAD_REACTORS
330
2A
102
}
330
2A
100
AcDbVisualStyle
  2
2dWireframe
 70
     4
177
     3
291
     0
 70
    58
 90
        0
176
     1
 90
        2
176
     1
 90
        0
176
     1
 90
        0
176
     1
 40
0.6
176
     1
 40
30.0
176
     1
 62
     7
176
     1
 90
        1
176
     1
 90
        4
176
     1
 62
     7
176
     1
 62
   257
176
     1
 90
        1
176
     1
 90
        1
176
     1
 40
1.0
176
     1
 90
        0
176
     1
 62
   257
176
     1
 40
1.0
176
     1
 90
        1
176
     1
 90
        6
176
     1
 90
        2
176
     1
 62
     7
176
     1
 90
        5
176
     1
 90
        0
176
     1
 90
        0
176
     1
290
     0
176
     1
 90
        1
176
     1
 40
0.0
176
     1
 90
        0
176
     1
290
     1
176
     1
290
     1
176
     1
290
     0
176
     1
290
     0
176
     1
290
     0
176
     1
290
     0
176
     1
290
     0
176
     1
290
     0
176
     1
290
     0
176
     1
 90
       50
176
     1
 40
0.0
176
     1
 40
1.0
176
     1
 90
        0
176
     1
 62
    18
420
        0
176
     1
 90
       50
176
     1
 90
        3
176
     1
 62
     5
420
      255
176
     1
290
     0
176
     1
 90
       50
176
     1
 90
       50
176
     1
 90
       50
176
     1
290
     0
176
     1
 90
       50
176
     1
 62
   256
176
     0
 40
1.0
176
     0
 90
        2
176
     1
  1
strokes_ogs.tif
176
     1
290
     0
176
     1
 40
1.0
176
     1
 40
1.0
176
     1
  0
VISUALSTYLE
  5
32
102
{ACAD_REACTORS
330
2A
102
}
330
2A
100
AcDbVisualStyle
  2
Basic
 70
     7
177
     3
291
     1
 70
    58
 90
        1
176
     1
 90
        0
176
     1
 90
        1
176
     1
 90
        0
176
     1
 40
0.6
176
     1
 40
30.0
176
     1
 62
     7
176
     1
 90
        0
176
     1
 90
        4
176
     1
 62
     7
176
     1
 62
   257
176
     1
 90
        1
176
     1
 90
        1
176
     1
 40
1.0
176
     1
 90
        8
176
     1
 62
     7
176
     1
 40
1.0
176
     1
 90
        1
176
     1
 90
        6
176
     1
 90
        2
176
     1
 62
     7
176
     1
 90
        5
176
     1
 90
        0
176
     1
 90
        0
176
     1
290
     0
176
     1
 90
        1
176
     1
 40
0.0
176
     1
 90
        0
176
     1
290
     0
176
     1
290
     1
176
     1
290
     1
176
     1
290
     0
176
     1
290
     0
176
     1
290
     0
176
     1
290
     0
176
     1
290
     0
176
     1
290
     0
176
     1
 90
       50
176
     1
 40
0.0
176
     1
 40
1.0
176
     1
 90
        0
176
     1
 62
    18
420
        0
176
     1
 90
       50
176
     1
 90
        3
176
     1
 62
     5
420
      255
176
     1
290
     0
176
     1
 90
       50
176
     1
 90
       50
176
     1
 90
       50
176
     1
290
     0
176
     1
 90
       50
176
     1
 62
   256
176
     0
 40
1.0
176
     0
 90
        2
176
     1
  1
strokes_ogs.tif
176
     1
290
     0
176
     1
 40
1.0
176
     1
 40
1.0
176
     1
  0
VISUALSTYLE
  5
36
102
{ACAD_REACTORS
330
2A
102
}
330
2A
100
AcDbVisualStyle
  2
Brighten
 70
    12
177
     3
291
     1
 70
    58
 90
        2
176
     1
 90
        2
176
     1
 90
        0
176
     1
 90
        0
176
     1
 40
0.6
176
     1
 40
30.0
176
     1
 62
     7
176
     1
 90
        1
176
     1
 90
        4
176
     1
 62
     7
176
     1
 62
   257
176
     1
 90
        1
176
     1
 90
        1
176
     1
 40
1.0
176
     1
 90
        8
176
     1
 62
     7
176
     1
 40
1.0
176
     1
 90
        1
176
     1
 90
        6
176
     1
 90
        2
176
     1
 62
     7
176
     1
 90
        5
176
     1
 90
        0
176
     1
 90
        0
176
     1
290
     0
176
     1
 90
        1
176
     1
 40
50.0
176
     1
 90
        0
176
     1
290
     0
176
     1
290
     1
176
     1
290
     1
176
     1
290
     0
176
     1
290
     0
176
     1
290
     0
176
     1
290
     0
176
     1
290
     0
176
     1
290
     0
176
     1
 90
       50
176
     1
 40
0.0
176
     1
 40
1.0
176
     1
 90
        0
176
     1
 62
    18
420
        0
176
     1
 90
       50
176
     1
 90
        3
176
     1
 62
     5
420
      255
176
     1
290
     0
176
     1
 90
       50
176
     1
 90
       50
176
     1
 90
       50
176
     1
290
     0
176
     1
 90
       50
176
     1
 62
   256
176
     0
 40
1.0
176
     0
 90
        2
176
     1
  1
strokes_ogs.tif
176
     1
290
     0
176
     1
 40
1.0
176
     1
 40
1.0
176
     1
  0
VISUALSTYLE
  5
3A
102
{ACAD_REACTORS
330
2A
102
}
330
2A
100
AcDbVisualStyle
  2
ColorChange
 70
    16
177
     3
291
     1
 70
    58
 90
        2
176
     1
 90
        2
176
     1
 90
        3
176
     1
 90
        0
176
     1
 40
0.6
176
     1
 40
30.0
176
     1
 62
     8
176
     1
 90
        1
176
     1
 90
        4
176
     1
 62
     7
176
     1
 62
   257
176
     1
 90
        1
176
     1
 90
        1
176
     1
 40
1.0
176
     1
 90
        8
176
     1
 62
     8
176
     1
 40
1.0
176
     1
 90
        1
176
     1
 90
        6
176
     1
 90
        2
176
     1
 62
     7
176
     1
 90
        5
176
     1
 90
        0
176
     1
 90
        0
176
     1
290
     0
176
     1
 90
        1
176
     1
 40
0.0
176
     1
 90
        0
176
     1
290
     0
176
     1
290
     1
176
     1
290
     1
176
     1
290
     0
176
     1
290
     0
176
     1
290
     0
176
     1
290
     0
176
     1
290
     0
176
     1
290
     0
176
     1
 90
       50
176
     1
 40
0.0
176
     1
 40
1.0
176
     1
 90
        0
176
     1
 62
    18
420
        0
176
     1
 90
       50
176
     1
 90
        3
176
     1
 62
     5
420
      255
176
     1
290
     0
176
     1
 90
       50
176
     1
 90
       50
176
     1
 90
       50
176
     1
290
     0
176
     1
 90
       50
176
     1
 62
   256
176
     0
 40
1.0
176
     0
 90
        2
176
     1
  1
strokes_ogs.tif
176
     1
290
     0
176
     1
 40
1.0
176
     1
 40
1.0
176
     1
  0
VISUALSTYLE
  5
34
102
{ACAD_REACTORS
330
2A
102
}
330
2A
100
AcDbVisualStyle
  2
Conceptual
 70
     9
177
     3
291
     0
 70
    58
 90
        3
176
     1
 90
        2
176
     1
 90
        0
176
     1
 90
        0
176
     1
 40
0.6
176
     1
 40
30.0
176
     1
 62
     7
176
     1
 90
        2
176
     1
 90
        2
176
     1
 62
     7
176
     1
 62
   257
176
     1
 90
        1
176
     1
 90
        1
176
     1
 40
179.0
176
     1
 90
        8
176
     1
 62
     7
176
     1
 40
1.0
176
     1
 90
        1
176
     1
 90
        6
176
     1
 90
        2
176
     1
 62
     7
176
     1
 90
        3
176
     1
 90
        0
176
     1
 90
        0
176
     1
290
     0
176
     1
 90
        1
176
     1
 40
0.0
176
     1
 90
        0
176
     1
290
     0
176
     1
290
     1
176
     1
290
     1
176
     1
290
     0
176
     1
290
     0
176
     1
290
     0
176
     1
290
     0
176
     1
290
     0
176
     1
290
     0
176
     1
 90
       50
176
     1
 40
0.0
176
     1
 40
1.0
176
     1
 90
        0
176
     1
 62
    18
420
        0
176
     1
 90
       50
176
     1
 90
        3
176
     1
 62
     5
420
      255
176
     1
290
     0
176
     1
 90
       50
176
     1
 90
       50
176
     1
 90
       50
176
     1
290
     0
176
     1
 90
       50
176
     1
 62
   256
176
     0
 40
1.0
176
     0
 90
        2
176
     1
  1
strokes_ogs.tif
176
     1
290
     0
176
     1
 40
1.0
176
     1
 40
1.0
176
     1
  0
VISUALSTYLE
  5
35
102
{ACAD_REACTORS
330
2A
102
}
330
2A
100
AcDbVisualStyle
  2
Dim
 70
    11
177
     3
291
     1
 70
    58
 90
        2
176
     1
 90
        2
176
     1
 90
        0
176
     1
 90
        0
176
     1
 40
0.6
176
     1
 40
30.0
176
     1
 62
     7
176
     1
 90
        1
176
     1
 90
        4
176
     1
 62
     7
176
     1
 62
   257
176
     1
 90
        1
176
     1
 90
        1
176
     1
 40
1.0
176
     1
 90
        8
176
     1
 62
     7
176
     1
 40
1.0
176
     1
 90
        1
176
     1
 90
        6
176
     1
 90
        2
176
     1
 62
     7
176
     1
 90
        5
176
     1
 90
        0
176
     1
 90
        0
176
     1
290
     0
176
     1
 90
        1
176
     1
 40
-50.0
176
     1
 90
        0
176
     1
290
     0
176
     1
290
     1
176
     1
290
     1
176
     1
290
     0
176
     1
290
     0
176
     1
290
     0
176
     1
290
     0
176
     1
290
     0
176
     1
290
     0
176
     1
 90
       50
176
     1
 40
0.0
176
     1
 40
1.0
176
     1
 90
        0
176
     1
 62
    18
420
        0
176
     1
 90
       50
176
     1
 90
        3
176
     1
 62
     5
420
      255
176
     1
290
     0
176
     1
 90
       50
176
     1
 90
       50
176
     1
 90
       50
176
     1
290
     0
176
     1
 90
       50
176
     1
 62
   256
176
     0
 40
1.0
176
     0
 90
        2
176
     1
  1
strokes_ogs.tif
176
     1
290
     0
176
     1
 40
1.0
176
     1
 40
1.0
176
     1
  0
VISUALSTYLE
  5
3D
102
{ACAD_REACTORS
330
2A
102
}
330
2A
100
AcDbVisualStyle
  2
EdgeColorOff
 70
    22
177
     3
291
     1
 70
    58
 90
        2
176
     1
 90
        2
176
     1
 90
        0
176
     1
 90
        0
176
     1
 40
0.6
176
     1
 40
30.0
176
     1
 62
     7
176
     1
 90
        1
176
     1
 90
        4
176
     1
 62
     7
176
     1
 62
   257
176
     1
 90
        1
176
     1
 90
        1
176
     1
 40
1.0
176
     1
 90
        8
176
     1
 62
     7
176
     1
 40
1.0
176
     1
 90
        1
176
     1
 90
        6
176
     1
 90
        2
176
     1
 62
     7
176
     1
 90
        5
176
     1
 90
        0
176
     1
 90
        0
176
     1
290
     0
176
     1
 90
        1
176
     1
 40
0.0
176
     1
 90
        0
176
     1
290
     0
176
     1
290
     1
176
     1
290
     1
176
     1
290
     0
176
     1
290
     0
176
     1
290
     0
176
     1
290
     0
176
     1
290
     0
176
     1
290
     0
176
     1
 90
       50
176
     1
 40
0.0
176
     1
 40
1.0
176
     1
 90
        0
176
     1
 62
    18
420
        0
176
     1
 90
       50
176
     1
 90
        3
176
     1
 62
     5
420
      255
176
     1
290
     0
176
     1
 90
       50
176
     1
 90
       50
176
     1
 90
       50
176
     1
290
     0
176
     1
 90
       50
176
     1
 62
   256
176
     0
 40
1.0
176
     0
 90
        2
176
     1
  1
strokes_ogs.tif
176
     1
290
     0
176
     1
 40
1.0
176
     1
 40
1.0
176
     1
  0
VISUALSTYLE
  5
39
102
{ACAD_REACTORS
330
2A
102
}
330
2A
100
AcDbVisualStyle
  2
Facepattern
 70
    15
177
     3
291
     1
 70
    58
 90
        2
176
     1
 90
        2
176
     1
 90
        0
176
     1
 90
        0
176
     1
 40
0.6
176
     1
 40
30.0
176
     1
 62
     7
176
     1
 90
        1
176
     1
 90
        4
176
     1
 62
     7
176
     1
 62
   257
176
     1
 90
        1
176
     1
 90
        1
176
     1
 40
1.0
176
     1
 90
        8
176
     1
 62
     7
176
     1
 40
1.0
176
     1
 90
        1
176
     1
 90
        6
176
     1
 90
        2
176
     1
 62
     7
176
     1
 90
        5
176
     1
 90
        0
176
     1
 90
        0
176
     1
290
     0
176
     1
 90
        1
176
     1
 40
0.0
176
     1
 90
        0
176
     1
290
     0
176
     1
290
     1
176
     1
290
     1
176
     1
290
     0
176
     1
290
     0
176
     1
290
     0
176
     1
290
     0
176
     1
290
     0
176
     1
290
     0
176
     1
 90
       50
176
     1
 40
0.0
176
     1
 40
1.0
176
     1
 90
        0
176
     1
 62
    18
420
        0
176
     1
 90
       50
176
     1
 90
        3
176
     1
 62
     5
420
      255
176
     1
290
     0
176
     1
 90
       50
176
     1
 90
       50
176
     1
 90
       50
176
     1
290
     0
176
     1
 90
       50
176
     1
 62
   256
176
     0
 40
1.0
176
     0
 90
        2
176
     1
  1
strokes_ogs.tif
176
     1
290
     0
176
     1
 40
1.0
176
     1
 40
1.0
176
     1
  0
VISUALSTYLE
  5
2B
102
{ACAD_REACTORS
330
2A
102
}
330
2A
100
AcDbVisualStyle
  2
Flat
 70
     0
177
     3
291
     1
 70
    58
 90
        2
176
     1
 90
        1
176
     1
 90
        1
176
     1
 90
        2
176
     1
 40
0.6
176
     1
 40
30.0
176
     1
 62
     7
176
     1
 90
        0
176
     1
 90
        0
176
     1
 62
     7
176
     1
 62
   257
176
     1
 90
        1
176
     1
 90
        1
176
     1
 40
1.0
176
     1
 90
        8
176
     1
 62
     7
176
     1
 40
1.0
176
     1
 90
        1
176
     1
 90
        6
176
     1
 90
        2
176
     1
 62
     7
176
     1
 90
        5
176
     1
 90
        0
176
     1
 90
        0
176
     1
290
     0
176
     1
 90
       13
176
     1
 40
0.0
176
     1
 90
        0
176
     1
290
     0
176
     1
290
     1
176
     1
290
     1
176
     1
290
     0
176
     1
290
     0
176
     1
290
     0
176
     1
290
     0
176
     1
290
     0
176
     1
290
     0
176
     1
 90
       50
176
     1
 40
0.0
176
     1
 40
1.0
176
     1
 90
        0
176
     1
 62
    18
420
        0
176
     1
 90
       50
176
     1
 90
        3
176
     1
 62
     5
420
      255
176
     1
290
     0
176
     1
 90
       50
176
     1
 90
       50
176
     1
 90
       50
176
     1
290
     0
176
     1
 90
       50
176
     1
 62
   256
176
     0
 40
1.0
176
     0
 90
        2
176
     1
  1
strokes_ogs.tif
176
     1
290
     0
176
     1
 40
1.0
176
     1
 40
1.0
176
     1
  0
VISUALSTYLE
  5
2C
102
{ACAD_REACTORS
330
2A
102
}
330
2A
100
AcDbVisualStyle
  2
FlatWithEdges
 70
     1
177
     3
291
     1
 70
    58
 90
        2
176
     1
 90
        1
176
     1
 90
        1
176
     1
 90
        2
176
     1
 40
0.6
176
     1
 40
30.0
176
     1
 62
     7
176
     1
 90
        1
176
     1
 90
        0
176
     1
 62
     7
176
     1
 62
   257
176
     1
 90
        1
176
     1
 90
        1
176
     1
 40
1.0
176
     1
 90
        0
176
     1
 62
   257
176
     1
 40
1.0
176
     1
 90
        1
176
     1
 90
        6
176
     1
 90
        2
176
     1
 62
     7
176
     1
 90
        5
176
     1
 90
        0
176
     1
 90
        0
176
     1
290
     0
176
     1
 90
       13
176
     1
 40
0.0
176
     1
 90
        0
176
     1
290
     0
176
     1
290
     1
176
     1
290
     1
176
     1
290
     0
176
     1
290
     0
176
     1
290
     0
176
     1
290
     0
176
     1
290
     0
176
     1
290
     0
176
     1
 90
       50
176
     1
 40
0.0
176
     1
 40
1.0
176
     1
 90
        0
176
     1
 62
    18
420
        0
176
     1
 90
       50
176
     1
 90
        3
176
     1
 62
     5
420
      255
176
     1
290
     0
176
     1
 90
       50
176
     1
 90
       50
176
     1
 90
       50
176
     1
290
     0
176
     1
 90
       50
176
     1
 62
   256
176
     0
 40
1.0
176
     0
 90
        2
176
     1
  1
strokes_ogs.tif
176
     1
290
     0
176
     1
 40
1.0
176
     1
 40
1.0
176
     1
  0
VISUALSTYLE
  5
2D
102
{ACAD_REACTORS
330
2A
102
}
330
2A
100
AcDbVisualStyle
  2
Gouraud
 70
     2
177
     3
291
     1
 70
    58
 90
        2
176
     1
 90
        2
176
     1
 90
        1
176
     1
 90
        2
176
     1
 40
0.6
176
     1
 40
30.0
176
     1
 62
     7
176
     1
 90
        0
176
     1
 90
        0
176
     1
 62
     7
176
     1
 62
   257
176
     1
 90
        1
176
     1
 90
        1
176
     1
 40
1.0
176
     1
 90
        0
176
     1
 62
     7
176
     1
 40
1.0
176
     1
 90
        1
176
     1
 90
        6
176
     1
 90
        2
176
     1
 62
     7
176
     1
 90
        5
176
     1
 90
        0
176
     1
 90
        0
176
     1
290
     0
176
     1
 90
       13
176
     1
 40
0.0
176
     1
 90
        0
176
     1
290
     0
176
     1
290
     1
176
     1
290
     1
176
     1
290
     0
176
     1
290
     0
176
     1
290
     0
176
     1
290
     0
176
     1
290
     0
176
     1
290
     0
176
     1
 90
       50
176
     1
 40
0.0
176
     1
 40
1.0
176
     1
 90
        0
176
     1
 62
    18
420
        0
176
     1
 90
       50
176
     1
 90
        3
176
     1
 62
     5
420
      255
176
     1
290
     0
176
     1
 90
       50
176
     1
 90
       50
176
     1
 90
       50
176
     1
290
     0
176
     1
 90
       50
176
     1
 62
   256
176
     0
 40
1.0
176
     0
 90
        2
176
     1
  1
strokes_ogs.tif
176
     1
290
     0
176
     1
 40
1.0
176
     1
 40
1.0
176
     1
  0
VISUALSTYLE
  5
2E
102
{ACAD_REACTORS
330
2A
102
}
330
2A
100
AcDbVisualStyle
  2
GouraudWithEdges
 70
     3
177
     3
291
     1
 70
    58
 90
        2
176
     1
 90
        2
176
     1
 90
        1
176
     1
 90
        2
176
     1
 40
0.6
176
     1
 40
30.0
176
     1
 62
     7
176
     1
 90
        1
176
     1
 90
        0
176
     1
 62
     7
176
     1
 62
   257
176
     1
 90
        1
176
     1
 90
        1
176
     1
 40
1.0
176
     1
 90
        0
176
     1
 62
   257
176
     1
 40
1.0
176
     1
 90
        1
176
     1
 90
        6
176
     1
 90
        2
176
     1
 62
     7
176
     1
 90
        5
176
     1
 90
        0
176
     1
 90
        0
176
     1
290
     0
176
     1
 90
       13
176
     1
 40
0.0
176
     1
 90
        0
176
     1
290
     0
176
     1
290
     1
176
     1
290
     1
176
     1
290
     0
176
     1
290
     0
176
     1
290
     0
176
     1
290
     0
176
     1
290
     0
176
     1
290
     0
176
     1
 90
       50
176
     1
 40
0.0
176
     1
 40
1.0
176
     1
 90
        0
176
     1
 62
    18
420
        0
176
     1
 90
       50
176
     1
 90
        3
176
     1
 62
     5
420
      255
176
     1
290
     0
176
     1
 90
       50
176
     1
 90
       50
176
     1
 90
       50
176
     1
290
     0
176
     1
 90
       50
176
     1
 62
   256
176
     0
 40
1.0
176
     0
 90
        2
176
     1
  1
strokes_ogs.tif
176
     1
290
     0
176
     1
 40
1.0
176
     1
 40
1.0
176
     1
  0
VISUALSTYLE
  5
31
102
{ACAD_REACTORS
330
2A
102
}
330
2A
100
AcDbVisualStyle
  2
Hidden
 70
     6
177
     3
291
     0
 70
    58
 90
        1
176
     1
 90
        2
176
     1
 90
        2
176
     1
 90
        0
176
     1
 40
0.6
176
     1
 40
30.0
176
     1
 62
     7
176
     1
 90
        2
176
     1
 90
        2
176
     1
 62
     7
176
     1
 62
   257
176
     1
 90
        2
176
     1
 90
        1
176
     1
 40
40.0
176
     1
 90
        0
176
     1
 62
   257
176
     1
 40
1.0
176
     1
 90
        1
176
     1
 90
        6
176
     1
 90
        2
176
     1
 62
     7
176
     1
 90
        3
176
     1
 90
        0
176
     1
 90
        0
176
     1
290
     0
176
     1
 90
        1
176
     1
 40
0.0
176
     1
 90
        0
176
     1
290
     0
176
     1
290
     1
176
     1
290
     1
176
     1
290
     0
176
     1
290
     0
176
     1
290
     0
176
     1
290
     0
176
     1
290
     0
176
     1
290
     0
176
     1
 90
       50
176
     1
 40
0.0
176
     1
 40
1.0
176
     1
 90
        0
176
     1
 62
    18
420
        0
176
     1
 90
       50
176
     1
 90
        3
176
     1
 62
     5
420
      255
176
     1
290
     0
176
     1
 90
       50
176
     1
 90
       50
176
     1
 90
       50
176
     1
290
     0
176
     1
 90
       50
176
     1
 62
   256
176
     0
 40
1.0
176
     0
 90
        2
176
     1
  1
strokes_ogs.tif
176
     1
290
     0
176
     1
 40
1.0
176
     1
 40
1.0
176
     1
  0
VISUALSTYLE
  5
3B
102
{ACAD_REACTORS
330
2A
102
}
330
2A
100
AcDbVisualStyle
  2
JitterOff
 70
    20
177
     3
291
     1
 70
    58
 90
        2
176
     1
 90
        2
176
     1
 90
        0
176
     1
 90
        0
176
     1
 40
0.6
176
     1
 40
30.0
176
     1
 62
     7
176
     1
 90
        1
176
     1
 90
        4
176
     1
 62
     7
176
     1
 62
   257
176
     1
 90
        1
176
     1
 90
        1
176
     1
 40
1.0
176
     1
 90
       10
176
     1
 62
     7
176
     1
 40
1.0
176
     1
 90
        1
176
     1
 90
        6
176
     1
 90
        2
176
     1
 62
     7
176
     1
 90
        5
176
     1
 90
        0
176
     1
 90
        0
176
     1
290
     0
176
     1
 90
        1
176
     1
 40
0.0
176
     1
 90
        0
176
     1
290
     0
176
     1
290
     1
176
     1
290
     1
176
     1
290
     0
176
     1
290
     0
176
     1
290
     0
176
     1
290
     0
176
     1
290
     0
176
     1
290
     0
176
     1
 90
       50
176
     1
 40
0.0
176
     1
 40
1.0
176
     1
 90
        0
176
     1
 62
    18
420
        0
176
     1
 90
       50
176
     1
 90
        3
176
     1
 62
     5
420
      255
176
     1
290
     0
176
     1
 90
       50
176
     1
 90
       50
176
     1
 90
       50
176
     1
290
     0
176
     1
 90
       50
176
     1
 62
   256
176
     0
 40
1.0
176
     0
 90
        2
176
     1
  1
strokes_ogs.tif
176
     1
290
     0
176
     1
 40
1.0
176
     1
 40
1.0
176
     1
  0
VISUALSTYLE
  5
38
102
{ACAD_REACTORS
330
2A
102
}
330
2A
100
AcDbVisualStyle
  2
Linepattern
 70
    14
177
     3
291
     1
 70
    58
 90
        2
176
     1
 90
        2
176
     1
 90
        0
176
     1
 90
        0
176
     1
 40
0.6
176
     1
 40
30.0
176
     1
 62
     7
176
     1
 90
        1
176
     1
 90
        4
176
     1
 62
     7
176
     1
 62
   257
176
     1
 90
        7
176
     1
 90
        7
176
     1
 40
1.0
176
     1
 90
        8
176
     1
 62
     7
176
     1
 40
1.0
176
     1
 90
        1
176
     1
 90
        6
176
     1
 90
        2
176
     1
 62
     7
176
     1
 90
        5
176
     1
 90
        0
176
     1
 90
        0
176
     1
290
     0
176
     1
 90
        1
176
     1
 40
0.0
176
     1
 90
        0
176
     1
290
     0
176
     1
290
     1
176
     1
290
     1
176
     1
290
     0
176
     1
290
     0
176
     1
290
     0
176
     1
290
     0
176
     1
290
     0
176
     1
290
     0
176
     1
 90
       50
176
     1
 40
0.0
176
     1
 40
1.0
176
     1
 90
        0
176
     1
 62
    18
420
        0
176
     1
 90
       50
176
     1
 90
        3
176
     1
 62
     5
420
      255
176
     1
290
     0
176
     1
 90
       50
176
     1
 90
       50
176
     1
 90
       50
176
     1
290
     0
176
     1
 90
       50
176
     1
 62
   256
176
     0
 40
1.0
176
     0
 90
        2
176
     1
  1
strokes_ogs.tif
176
     1
290
     0
176
     1
 40
1.0
176
     1
 40
1.0
176
     1
  0
VISUALSTYLE
  5
3C
102
{ACAD_REACTORS
330
2A
102
}
330
2A
100
AcDbVisualStyle
  2
OverhangOff
 70
    21
177
     3
291
     1
 70
    58
 90
        2
176
     1
 90
        2
176
     1
 90
        0
176
     1
 90
        0
176
     1
 40
0.6
176
     1
 40
30.0
176
     1
 62
     7
176
     1
 90
        1
176
     1
 90
        4
176
     1
 62
     7
176
     1
 62
   257
176
     1
 90
        1
176
     1
 90
        1
176
     1
 40
1.0
176
     1
 90
        9
176
     1
 62
     7
176
     1
 40
1.0
176
     1
 90
        1
176
     1
 90
        6
176
     1
 90
        2
176
     1
 62
     7
176
     1
 90
        5
176
     1
 90
        0
176
     1
 90
        0
176
     1
290
     0
176
     1
 90
        1
176
     1
 40
0.0
176
     1
 90
        0
176
     1
290
     0
176
     1
290
     1
176
     1
290
     1
176
     1
290
     0
176
     1
290
     0
176
     1
290
     0
176
     1
290
     0
176
     1
290
     0
176
     1
290
     0
176
     1
 90
       50
176
     1
 40
0.0
176
     1
 40
1.0
176
     1
 90
        0
176
     1
 62
    18
420
        0
176
     1
 90
       50
176
     1
 90
        3
176
     1
 62
     5
420
      255
176
     1
290
     0
176
     1
 90
       50
176
     1
 90
       50
176
     1
 90
       50
176
     1
290
     0
176
     1
 90
       50
176
     1
 62
   256
176
     0
 40
1.0
176
     0
 90
        2
176
     1
  1
strokes_ogs.tif
176
     1
290
     0
176
     1
 40
1.0
176
     1
 40
1.0
176
     1
  0
VISUALSTYLE
  5
33
102
{ACAD_REACTORS
330
2A
102
}
330
2A
100
AcDbVisualStyle
  2
Realistic
 70
     8
177
     3
291
     0
 70
    58
 90
        2
176
     1
 90
        3
176
     1
 90
        0
176
     1
 90
        2
176
     1
 40
0.6
176
     1
 40
30.0
176
     1
 62
     7
176
     1
 90
        0
176
     1
 90
        0
176
     1
 62
     7
176
     1
 62
   257
176
     1
 90
        1
176
     1
 90
        1
176
     1
 40
1.0
176
     1
 90
        8
176
     1
 62
   257
176
     1
 40
1.0
176
     1
 90
        1
176
     1
 90
        6
176
     1
 90
        2
176
     1
 62
     7
176
     1
 90
        3
176
     1
 90
        0
176
     1
 90
        0
176
     1
290
     0
176
     1
 90
       13
176
     1
 40
0.0
176
     1
 90
        0
176
     1
290
     0
176
     1
290
     1
176
     1
290
     1
176
     1
290
     0
176
     1
290
     0
176
     1
290
     0
176
     1
290
     0
176
     1
290
     0
176
     1
290
     0
176
     1
 90
       50
176
     1
 40
0.0
176
     1
 40
1.0
176
     1
 90
        0
176
     1
 62
    18
420
        0
176
     1
 90
       50
176
     1
 90
        3
176
     1
 62
     5
420
      255
176
     1
290
     0
176
     1
 90
       50
176
     1
 90
       50
176
     1
 90
       50
176
     1
290
     0
176
     1
 90
       50
176
     1
 62
   256
176
     0
 40
1.0
176
     0
 90
        2
176
     1
  1
strokes_ogs.tif
176
     1
290
     0
176
     1
 40
1.0
176
     1
 40
1.0
176
     1
  0
VISUALSTYLE
  5
42
102
{ACAD_REACTORS
330
2A
102
}
330
2A
100
AcDbVisualStyle
  2
Shaded
 70
    27
177
     3
291
     0
 70
    58
 90
        2
176
     1
 90
        2
176
     1
 90
        1
176
     1
 90
        2
176
     1
 40
0.6
176
     1
 40
30.0
176
     1
 62
     7
176
     1
 90
        0
176
     1
 90
        4
176
     1
 62
     7
176
     1
 62
   257
176
     1
 90
        1
176
     1
 90
        1
176
     1
 40
1.0
176
     1
 90
        8
176
     1
 62
   257
176
     1
 40
1.0
176
     1
 90
        1
176
     1
 90
        6
176
     1
 90
        2
176
     1
 62
     8
176
     1
 90
        3
176
     1
 90
        0
176
     1
 90
        0
176
     1
290
     0
176
     1
 90
        5
176
     1
 40
0.0
176
     1
 90
        0
176
     1
290
     0
176
     1
290
     1
176
     1
290
     1
176
     1
290
     0
176
     1
290
     0
176
     1
290
     0
176
     1
290
     0
176
     1
290
     0
176
     1
290
     0
176
     1
 90
       50
176
     1
 40
0.0
176
     1
 40
1.0
176
     1
 90
        0
176
     1
 62
    18
420
        0
176
     1
 90
       50
176
     1
 90
        3
176
     1
 62
     5
420
      255
176
     1
290
     0
176
     1
 90
       50
176
     1
 90
       50
176
     1
 90
       50
176
     1
290
     0
176
     1
 90
       50
176
     1
 62
   256
176
     0
 40
1.0
176
     0
 90
        2
176
     1
  1
strokes_ogs.tif
176
     1
290
     0
176
     1
 40
1.0
176
     1
 40
1.0
176
     1
  0
VISUALSTYLE
  5
3F1
102
{ACAD_REACTORS
330
2A
102
}
330
2A
100
AcDbVisualStyle
  2
Shaded with edges
 70
    26
177
     3
291
     0
 70
    58
 90
        2
176
     1
 90
        2
176
     1
 90
        1
176
     1
 90
        2
176
     1
 40
0.6
176
     1
 40
30.0
176
     1
 62
     7
420
 16777215
176
     1
 90
        1
176
     1
 90
       10
176
     1
 62
     7
176
     1
 62
   257
176
     1
 90
        2
176
     1
 90
        1
176
     1
 40
1.0
176
     1
 90
        8
176
     1
 62
   257
176
     1
 40
1.0
176
     1
 90
        1
176
     1
 90
        6
176
     1
 90
        2
176
     1
 62
     7
176
     1
 90
        3
176
     1
 90
        0
176
     1
 90
        0
176
     1
290
     0
176
     1
 90
        5
176
     1
 40
0.0
176
     1
 90
        0
176
     1
290
     0
176
     1
290
     1
176
     1
290
     1
176
     1
290
     0
176
     1
290
     0
176
     1
290
     0
176
     1
290
     0
176
     1
290
     0
176
     1
290
     0
176
     1
 90
       50
176
     1
 40
0.0
176
     1
 40
1.0
176
     1
 90
        0
176
     1
 62
    18
420
        0
176
     1
 90
       50
176
     1
 90
        3
176
     1
 62
     5
420
      255
176
     1
290
     0
176
     1
 90
       50
176
     1
 90
       50
176
     1
 90
       50
176
     1
290
     0
176
     1
 90
       50
176
     1
 62
   256
176
     0
 40
1.0
176
     0
 90
        2
176
     1
  1
strokes_ogs.tif
176
     1
290
     0
176
     1
 40
1.0
176
     1
 40
1.0
176
     1
  0
VISUALSTYLE
  5
41
102
{ACAD_REACTORS
330
2A
102
}
330
2A
100
AcDbVisualStyle
  2
Shaded with edges
 70
    26
177
     3
291
     0
 70
    58
 90
        2
176
     1
 90
        2
176
     1
 90
        1
176
     1
 90
        2
176
     1
 40
0.6
176
     1
 40
30.0
176
     1
 62
     7
176
     1
 90
        1
176
     1
 90
       10
176
     1
 62
     7
176
     1
 62
   257
176
     1
 90
        2
176
     1
 90
        1
176
     1
 40
1.0
176
     1
 90
        8
176
     1
 62
   257
176
     1
 40
1.0
176
     1
 90
        1
176
     1
 90
        6
176
     1
 90
        2
176
     1
 62
     7
176
     1
 90
        3
176
     1
 90
        0
176
     1
 90
        0
176
     1
290
     0
176
     1
 90
        5
176
     1
 40
0.0
176
     1
 90
        0
176
     1
290
     0
176
     1
290
     1
176
     1
290
     1
176
     1
290
     0
176
     1
290
     0
176
     1
290
     0
176
     1
290
     0
176
     1
290
     0
176
     1
290
     0
176
     1
 90
       50
176
     1
 40
0.0
176
     1
 40
1.0
176
     1
 90
        0
176
     1
 62
    18
420
        0
176
     1
 90
       50
176
     1
 90
        3
176
     1
 62
     5
420
      255
176
     1
290
     0
176
     1
 90
       50
176
     1
 90
       50
176
     1
 90
       50
176
     1
290
     0
176
     1
 90
       50
176
     1
 62
   256
176
     0
 40
1.0
176
     0
 90
        2
176
     1
  1
strokes_ogs.tif
176
     1
290
     0
176
     1
 40
1.0
176
     1
 40
1.0
176
     1
  0
VISUALSTYLE
  5
3F0
102
{ACAD_REACTORS
330
2A
102
}
330
2A
100
AcDbVisualStyle
  2
Shades of Gray
 70
    23
177
     3
291
     0
 70
    58
 90
        2
176
     1
 90
        2
176
     1
 90
        3
176
     1
 90
        0
176
     1
 40
0.6
176
     1
 40
30.0
176
     1
 62
     7
420
 16777215
176
     1
 90
        2
176
     1
 90
        2
176
     1
 62
     7
176
     1
 62
     7
176
     1
 90
        1
176
     1
 90
        1
176
     1
 40
40.0
176
     1
 90
        8
176
     1
 62
     7
176
     1
 40
1.0
176
     1
 90
        1
176
     1
 90
        6
176
     1
 90
        2
176
     1
 62
     7
176
     1
 90
        3
176
     1
 90
        0
176
     1
 90
        0
176
     1
290
     0
176
     1
 90
        1
176
     1
 40
0.0
176
     1
 90
        0
176
     1
290
     0
176
     1
290
     1
176
     1
290
     1
176
     1
290
     0
176
     1
290
     0
176
     1
290
     0
176
     1
290
     0
176
     1
290
     0
176
     1
290
     0
176
     1
 90
       50
176
     1
 40
0.0
176
     1
 40
1.0
176
     1
 90
        0
176
     1
 62
    18
420
        0
176
     1
 90
       50
176
     1
 90
        3
176
     1
 62
     5
420
      255
176
     1
290
     0
176
     1
 90
       50
176
     1
 90
       50
176
     1
 90
       50
176
     1
290
     0
176
     1
 90
       50
176
     1
 62
   256
176
     0
 40
1.0
176
     0
 90
        2
176
     1
  1
strokes_ogs.tif
176
     1
290
     0
176
     1
 40
1.0
176
     1
 40
1.0
176
     1
  0
VISUALSTYLE
  5
3E
102
{ACAD_REACTORS
330
2A
102
}
330
2A
100
AcDbVisualStyle
  2
Shades of Gray
 70
    23
177
     3
291
     0
 70
    58
 90
        2
176
     1
 90
        2
176
     1
 90
        3
176
     1
 90
        0
176
     1
 40
0.6
176
     1
 40
30.0
176
     1
 62
     7
176
     1
 90
        2
176
     1
 90
        2
176
     1
 62
     7
176
     1
 62
     7
176
     1
 90
        1
176
     1
 90
        1
176
     1
 40
40.0
176
     1
 90
        8
176
     1
 62
     7
176
     1
 40
1.0
176
     1
 90
        1
176
     1
 90
        6
176
     1
 90
        2
176
     1
 62
     7
176
     1
 90
        3
176
     1
 90
        0
176
     1
 90
        0
176
     1
290
     0
176
     1
 90
        1
176
     1
 40
0.0
176
     1
 90
        0
176
     1
290
     0
176
     1
290
     1
176
     1
290
     1
176
     1
290
     0
176
     1
290
     0
176
     1
290
     0
176
     1
290
     0
176
     1
290
     0
176
     1
290
     0
176
     1
 90
       50
176
     1
 40
0.0
176
     1
 40
1.0
176
     1
 90
        0
176
     1
 62
    18
420
        0
176
     1
 90
       50
176
     1
 90
        3
176
     1
 62
     5
420
      255
176
     1
290
     0
176
     1
 90
       50
176
     1
 90
       50
176
     1
 90
       50
176
     1
290
     0
176
     1
 90
       50
176
     1
 62
   256
176
     0
 40
1.0
176
     0
 90
        2
176
     1
  1
strokes_ogs.tif
176
     1
290
     0
176
     1
 40
1.0
176
     1
 40
1.0
176
     1
  0
VISUALSTYLE
  5
3F
102
{ACAD_REACTORS
330
2A
102
}
330
2A
100
AcDbVisualStyle
  2
Sketchy
 70
    24
177
     3
291
     0
 70
    58
 90
        1
176
     1
 90
        2
176
     1
 90
        2
176
     1
 90
        0
176
     1
 40
0.6
176
     1
 40
30.0
176
     1
 62
     7
176
     1
 90
        2
176
     1
 90
        2
176
     1
 62
     7
176
     1
 62
     7
176
     1
 90
        1
176
     1
 90
        1
176
     1
 40
40.0
176
     1
 90
       11
176
     1
 62
     7
176
     1
 40
1.0
176
     1
 90
        1
176
     1
 90
        6
176
     1
 90
        2
176
     1
 62
     7
176
     1
 90
        6
176
     1
 90
        0
176
     1
 90
        0
176
     1
290
     0
176
     1
 90
        1
176
     1
 40
0.0
176
     1
 90
        0
176
     1
290
     0
176
     1
290
     1
176
     1
290
     1
176
     1
290
     0
176
     1
290
     0
176
     1
290
     0
176
     1
290
     0
176
     1
290
     0
176
     1
290
     0
176
     1
 90
       50
176
     1
 40
0.0
176
     1
 40
1.0
176
     1
 90
        0
176
     1
 62
    18
420
        0
176
     1
 90
       50
176
     1
 90
        3
176
     1
 62
     5
420
      255
176
     1
290
     0
176
     1
 90
       50
176
     1
 90
       50
176
     1
 90
       50
176
     1
290
     0
176
     1
 90
       50
176
     1
 62
   256
176
     0
 40
1.0
176
     0
 90
        2
176
     1
  1
strokes_ogs.tif
176
     1
290
     0
176
     1
 40
1.0
176
     1
 40
1.0
176
     1
  0
VISUALSTYLE
  5
37
102
{ACAD_REACTORS
330
2A
102
}
330
2A
100
AcDbVisualStyle
  2
Thicken
 70
    13
177
     3
291
     1
 70
    58
 90
        2
176
     1
 90
        2
176
     1
 90
        0
176
     1
 90
        0
176
     1
 40
0.6
176
     1
 40
30.0
176
     1
 62
     7
176
     1
 90
        1
176
     1
 90
        4
176
     1
 62
     7
176
     1
 62
   257
176
     1
 90
        1
176
     1
 90
        1
176
     1
 40
1.0
176
     1
 90
       12
176
     1
 62
     7
176
     1
 40
1.0
176
     1
 90
        1
176
     1
 90
        6
176
     1
 90
        2
176
     1
 62
     7
176
     1
 90
        5
176
     1
 90
        0
176
     1
 90
        0
176
     1
290
     0
176
     1
 90
        1
176
     1
 40
0.0
176
     1
 90
        0
176
     1
290
     0
176
     1
290
     1
176
     1
290
     1
176
     1
290
     0
176
     1
290
     0
176
     1
290
     0
176
     1
290
     0
176
     1
290
     0
176
     1
290
     0
176
     1
 90
       50
176
     1
 40
0.0
176
     1
 40
1.0
176
     1
 90
        0
176
     1
 62
    18
420
        0
176
     1
 90
       50
176
     1
 90
        3
176
     1
 62
     5
420
      255
176
     1
290
     0
176
     1
 90
       50
176
     1
 90
       50
176
     1
 90
       50
176
     1
290
     0
176
     1
 90
       50
176
     1
 62
   256
176
     0
 40
1.0
176
     0
 90
        2
176
     1
  1
strokes_ogs.tif
176
     1
290
     0
176
     1
 40
1.0
176
     1
 40
1.0
176
     1
  0
VISUALSTYLE
  5
30
102
{ACAD_REACTORS
330
2A
102
}
330
2A
100
AcDbVisualStyle
  2
Wireframe
 70
     5
177
     3
291
     0
 70
    58
 90
        0
176
     1
 90
        2
176
     1
 90
        0
176
     1
 90
        0
176
     1
 40
0.6
176
     1
 40
30.0
176
     1
 62
     7
176
     1
 90
        1
176
     1
 90
        4
176
     1
 62
     7
176
     1
 62
   257
176
     1
 90
        1
176
     1
 90
        1
176
     1
 40
1.0
176
     1
 90
        0
176
     1
 62
   257
176
     1
 40
1.0
176
     1
 90
        1
176
     1
 90
        6
176
     1
 90
        2
176
     1
 62
     7
176
     1
 90
        3
176
     1
 90
        0
176
     1
 90
        0
176
     1
290
     0
176
     1
 90
        1
176
     1
 40
0.0
176
     1
 90
        0
176
     1
290
     0
176
     1
290
     1
176
     1
290
     1
176
     1
290
     0
176
     1
290
     0
176
     1
290
     0
176
     1
290
     0
176
     1
290
     0
176
     1
290
     0
176
     1
 90
       50
176
     1
 40
0.0
176
     1
 40
1.0
176
     1
 90
        0
176
     1
 62
    18
420
        0
176
     1
 90
       50
176
     1
 90
        3
176
     1
 62
     5
420
      255
176
     1
290
     0
176
     1
 90
       50
176
     1
 90
       50
176
     1
 90
       50
176
     1
290
     0
176
     1
 90
       50
176
     1
 62
   256
176
     0
 40
1.0
176
     0
 90
        2
176
     1
  1
strokes_ogs.tif
176
     1
290
     0
176
     1
 40
1.0
176
     1
 40
1.0
176
     1
  0
VISUALSTYLE
  5
40
102
{ACAD_REACTORS
330
2A
102
}
330
2A
100
AcDbVisualStyle
  2
X-Ray
 70
    25
177
     3
291
     0
 70
    58
 90
        2
176
     1
 90
        2
176
     1
 90
        1
176
     1
 90
        1
176
     1
 40
0.5
176
     1
 40
30.0
176
     1
 62
     7
176
     1
 90
        1
176
     1
 90
        0
176
     1
 62
     7
176
     1
 62
   257
176
     1
 90
        1
176
     1
 90
        1
176
     1
 40
1.0
176
     1
 90
        8
176
     1
 62
     7
176
     1
 40
1.0
176
     1
 90
        1
176
     1
 90
        6
176
     1
 90
        2
176
     1
 62
     7
176
     1
 90
        3
176
     1
 90
        0
176
     1
 90
        0
176
     1
290
     0
176
     1
 90
       13
176
     1
 40
0.0
176
     1
 90
        0
176
     1
290
     0
176
     1
290
     1
176
     1
290
     1
176
     1
290
     0
176
     1
290
     0
176
     1
290
     0
176
     1
290
     0
176
     1
290
     0
176
     1
290
     0
176
     1
 90
       50
176
     1
 40
0.0
176
     1
 40
1.0
176
     1
 90
        0
176
     1
 62
    18
420
        0
176
     1
 90
       50
176
     1
 90
        3
176
     1
 62
     5
420
      255
176
     1
290
     0
176
     1
 90
       50
176
     1
 90
       50
176
     1
 90
       50
176
     1
290
     0
176
     1
 90
       50
176
     1
 62
   256
176
     0
 40
1.0
176
     0
 90
        2
176
     1
  1
strokes_ogs.tif
176
     1
290
     0
176
     1
 40
1.0
176
     1
 40
1.0
176
     1
  0
DICTIONARYVAR
  5
3F6
102
{ACAD_REACTORS
330
3DB
102
}
330
3DB
100
DictionaryVariables
280
     0
  1
1:1
  0
DICTIONARYVAR
  5
3DD
102
{ACAD_REACTORS
330
3DB
102
}
330
3DB
100
DictionaryVariables
280
     0
  1
STANDARD
  0
DICTIONARYVAR
  5
3FA
102
{ACAD_REACTORS
330
3DB
102
}
330
3DB
100
DictionaryVariables
280
     0
  1
Standard
  0
DICTIONARYVAR
  5
3E0
102
{ACAD_REACTORS
330
3DB
102
}
330
3DB
100
DictionaryVariables
280
     0
  1
2
  0
DICTIONARYVAR
  5
3E1
102
{ACAD_REACTORS
330
3DB
102
}
330
3DB
100
DictionaryVariables
280
     0
  1
1
  0
DICTIONARYVAR
  5
3E5
102
{ACAD_REACTORS
330
3DB
102
}
330
3DB
100
DictionaryVariables
280
     0
  1
1
  0
DICTIONARY
  5
400
330
3F2
100
AcDbDictionary
280
     1
281
     1
  3
ACAD_ROUNDTRIP_2008_TABLESTYLE_CELLSTYLEMAP
360
401
  0
CELLSTYLEMAP
  5
401
102
{ACAD_REACTORS
330
400
102
}
330
400
100
AcDbCellStyleMap
 90
        3
300
CELLSTYLE
  1
TABLEFORMAT_BEGIN
 90
        5
170
     1
 91
        0
 92
    32768
 62
   257
 93
        1
300
CONTENTFORMAT
  1
CONTENTFORMAT_BEGIN
 90
        0
 91
        0
 92
        4
 93
        0
300

 40
0.0
140
1.0
 94
        5
 62
     0
340
11
144
0.25
309
CONTENTFORMAT_END
171
     1
301
MARGIN
  1
CELLMARGIN_BEGIN
 40
0.06
 40
0.06
 40
0.06
 40
0.06
 40
0.06
 40
0.06
309
CELLMARGIN_END
 94
        6
 95
        1
302
GRIDFORMAT
  1
GRIDFORMAT_BEGIN
 90
        0
 91
        1
 62
     0
 92
       -2
340
14
 93
        0
 40
0.045
309
GRIDFORMAT_END
 95
        2
302
GRIDFORMAT
  1
GRIDFORMAT_BEGIN
 90
        0
 91
        1
 62
     0
 92
       -2
340
14
 93
        0
 40
0.045
309
GRIDFORMAT_END
 95
        4
302
GRIDFORMAT
  1
GRIDFORMAT_BEGIN
 90
        0
 91
        1
 62
     0
 92
       -2
340
14
 93
        0
 40
0.045
309
GRIDFORMAT_END
 95
        8
302
GRIDFORMAT
  1
GRIDFORMAT_BEGIN
 90
        0
 91
        1
 62
     0
 92
       -2
340
14
 93
        0
 40
0.045
309
GRIDFORMAT_END
 95
       16
302
GRIDFORMAT
  1
GRIDFORMAT_BEGIN
 90
        0
 91
        1
 62
     0
 92
       -2
340
14
 93
        0
 40
0.045
309
GRIDFORMAT_END
 95
       32
302
GRIDFORMAT
  1
GRIDFORMAT_BEGIN
 90
        0
 91
        1
 62
     0
 92
       -2
340
14
 93
        0
 40
0.045
309
GRIDFORMAT_END
309
TABLEFORMAT_END
  1
CELLSTYLE_BEGIN
 90
        1
 91
        1
300
_TITLE
309
CELLSTYLE_END
300
CELLSTYLE
  1
TABLEFORMAT_BEGIN
 90
        5
170
     1
 91
        0
 92
        0
 62
   257
 93
        1
300
CONTENTFORMAT
  1
CONTENTFORMAT_BEGIN
 90
        0
 91
        0
 92
        4
 93
        0
300

 40
0.0
140
1.0
 94
        5
 62
     0
340
11
144
0.18
309
CONTENTFORMAT_END
171
     1
301
MARGIN
  1
CELLMARGIN_BEGIN
 40
0.06
 40
0.06
 40
0.06
 40
0.06
 40
0.06
 40
0.06
309
CELLMARGIN_END
 94
        6
 95
        1
302
GRIDFORMAT
  1
GRIDFORMAT_BEGIN
 90
        0
 91
        1
 62
     0
 92
       -2
340
14
 93
        0
 40
0.045
309
GRIDFORMAT_END
 95
        2
302
GRIDFORMAT
  1
GRIDFORMAT_BEGIN
 90
        0
 91
        1
 62
     0
 92
       -2
340
14
 93
        0
 40
0.045
309
GRIDFORMAT_END
 95
        4
302
GRIDFORMAT
  1
GRIDFORMAT_BEGIN
 90
        0
 91
        1
 62
     0
 92
       -2
340
14
 93
        0
 40
0.045
309
GRIDFORMAT_END
 95
        8
302
GRIDFORMAT
  1
GRIDFORMAT_BEGIN
 90
        0
 91
        1
 62
     0
 92
       -2
340
14
 93
        0
 40
0.045
309
GRIDFORMAT_END
 95
       16
302
GRIDFORMAT
  1
GRIDFORMAT_BEGIN
 90
        0
 91
        1
 62
     0
 92
       -2
340
14
 93
        0
 40
0.045
309
GRIDFORMAT_END
 95
       32
302
GRIDFORMAT
  1
GRIDFORMAT_BEGIN
 90
        0
 91
        1
 62
     0
 92
       -2
340
14
 93
        0
 40
0.045
309
GRIDFORMAT_END
309
TABLEFORMAT_END
  1
CELLSTYLE_BEGIN
 90
        2
 91
        1
300
_HEADER
309
CELLSTYLE_END
300
CELLSTYLE
  1
TABLEFORMAT_BEGIN
 90
        5
170
     1
 91
        0
 92
        0
 62
   257
 93
        1
300
CONTENTFORMAT
  1
CONTENTFORMAT_BEGIN
 90
        0
 91
        0
 92
        4
 93
        0
300

 40
0.0
140
1.0
 94
        2
 62
     0
340
11
144
0.18
309
CONTENTFORMAT_END
171
     1
301
MARGIN
  1
CELLMARGIN_BEGIN
 40
0.06
 40
0.06
 40
0.06
 40
0.06
 40
0.06
 40
0.06
309
CELLMARGIN_END
 94
        6
 95
        1
302
GRIDFORMAT
  1
GRIDFORMAT_BEGIN
 90
        0
 91
        1
 62
     0
 92
       -2
340
14
 93
        0
 40
0.045
309
GRIDFORMAT_END
 95
        2
302
GRIDFORMAT
  1
GRIDFORMAT_BEGIN
 90
        0
 91
        1
 62
     0
 92
       -2
340
14
 93
        0
 40
0.045
309
GRIDFORMAT_END
 95
        4
302
GRIDFORMAT
  1
GRIDFORMAT_BEGIN
 90
        0
 91
        1
 62
     0
 92
       -2
340
14
 93
        0
 40
0.045
309
GRIDFORMAT_END
 95
        8
302
GRIDFORMAT
  1
GRIDFORMAT_BEGIN
 90
        0
 91
        1
 62
     0
 92
       -2
340
14
 93
        0
 40
0.045
309
GRIDFORMAT_END
 95
       16
302
GRIDFORMAT
  1
GRIDFORMAT_BEGIN
 90
        0
 91
        1
 62
     0
 92
       -2
340
14
 93
        0
 40
0.045
309
GRIDFORMAT_END
 95
       32
302
GRIDFORMAT
  1
GRIDFORMAT_BEGIN
 90
        0
 91
        1
 62
     0
 92
       -2
340
14
 93
        0
 40
0.045
309
GRIDFORMAT_END
309
TABLEFORMAT_END
  1
CELLSTYLE_BEGIN
 90
        3
 91
        2
300
_DATA
309
CELLSTYLE_END
  0
ENDSEC
  0
EOF
