  0
SECTION
  2
HEADER
  9
$ACADVER
  1
AC1027
  9
$ACADMAINTVER
 70
     8
  9
$DWGCODEPAGE
  3
ANSI_1252
  9
$REQUIREDVERSIONS
160
                 0
  9
$LASTSAVEDBY
  1
Ian
  9
$INSBASE
 10
0.0
 20
0.0
 30
0.0
  9
$EXTMIN
 10
5262.298599803225
 20
-5.454813893052375
 30
-0.0000000001006697
  9
$EXTMAX
 10
5598.298599803225
 20
160.0451861069476
 30
-0.0000000000775913
  9
$LIMMIN
 10
0.0
 20
0.0
  9
$LIMMAX
 10
12.0
 20
9.0
  9
$ORTHOMODE
 70
     0
  9
$REGENMODE
 70
     1
  9
$FILLMODE
 70
     1
  9
$QTEXTMODE
 70
     0
  9
$MIRRTEXT
 70
     1
  9
$LTSCALE
 40
1.0
  9
$ATTMODE
 70
     1
  9
$TEXTSIZE
 40
0.2
  9
$TRACEWID
 40
0.05
  9
$TEXTSTYLE
  7
STANDARD
  9
$CLAYER
  8
DEFAULT
  9
$CELTYPE
  6
BYLAYER
  9
$CECOLOR
 62
   256
  9
$CELTSCALE
 40
1.0
  9
$DISPSILH
 70
     0
  9
$DIMSCALE
 40
1.0
  9
$DIMASZ
 40
0.18
  9
$DIMEXO
 40
0.0625
  9
$DIMDLI
 40
0.38
  9
$DIMRND
 40
0.0
  9
$DIMDLE
 40
0.0
  9
$DIMEXE
 40
0.18
  9
$DIMTP
 40
0.0
  9
$DIMTM
 40
0.0
  9
$DIMTXT
 40
0.18
  9
$DIMCEN
 40
0.09
  9
$DIMTSZ
 40
0.0
  9
$DIMTOL
 70
     0
  9
$DIMLIM
 70
     0
  9
$DIMTIH
 70
     1
  9
$DIMTOH
 70
     1
  9
$DIMSE1
 70
     0
  9
$DIMSE2
 70
     0
  9
$DIMTAD
 70
     0
  9
$DIMZIN
 70
     0
  9
$DIMBLK
  1

  9
$DIMASO
 70
     1
  9
$DIMSHO
 70
     1
  9
$DIMPOST
  1

  9
$DIMAPOST
  1

  9
$DIMALT
 70
     0
  9
$DIMALTD
 70
     2
  9
$DIMALTF
 40
25.4
  9
$DIMLFAC
 40
1.0
  9
$DIMTOFL
 70
     0
  9
$DIMTVP
 40
0.0
  9
$DIMTIX
 70
     0
  9
$DIMSOXD
 70
     0
  9
$DIMSAH
 70
     0
  9
$DIMBLK1
  1

  9
$DIMBLK2
  1

  9
$DIMSTYLE
  2
STANDARD
  9
$DIMCLRD
 70
     0
  9
$DIMCLRE
 70
     0
  9
$DIMCLRT
 70
     0
  9
$DIMTFAC
 40
1.0
  9
$DIMGAP
 40
0.09
  9
$DIMJUST
 70
     0
  9
$DIMSD1
 70
     0
  9
$DIMSD2
 70
     0
  9
$DIMTOLJ
 70
     1
  9
$DIMTZIN
 70
     0
  9
$DIMALTZ
 70
     0
  9
$DIMALTTZ
 70
     0
  9
$DIMUPT
 70
     0
  9
$DIMDEC
 70
     4
  9
$DIMTDEC
 70
     4
  9
$DIMALTU
 70
     2
  9
$DIMALTTD
 70
     2
  9
$DIMTXSTY
  7
STANDARD
  9
$DIMAUNIT
 70
     0
  9
$DIMADEC
 70
     0
  9
$DIMALTRND
 40
0.0
  9
$DIMAZIN
 70
     0
  9
$DIMDSEP
 70
    46
  9
$DIMATFIT
 70
     3
  9
$DIMFRAC
 70
     0
  9
$DIMLDRBLK
  1

  9
$DIMLUNIT
 70
     2
  9
$DIMLWD
 70
    -2
  9
$DIMLWE
 70
    -2
  9
$DIMTMOVE
 70
     2
  9
$DIMFXL
 40
1.0
  9
$DIMFXLON
 70
     0
  9
$DIMJOGANG
 40
0.7853981633974483
  9
$DIMTFILL
 70
     0
  9
$DIMTFILLCLR
 70
     0
  9
$DIMARCSYM
 70
     0
  9
$DIMLTYPE
  6

  9
$DIMLTEX1
  6

  9
$DIMLTEX2
  6

  9
$DIMTXTDIRECTION
 70
     0
  9
$LUNITS
 70
     2
  9
$LUPREC
 70
     2
  9
$SKETCHINC
 40
0.1
  9
$FILLETRAD
 40
0.5
  9
$AUNITS
 70
     0
  9
$AUPREC
 70
     0
  9
$MENU
  1
.
  9
$ELEVATION
 40
0.0
  9
$PELEVATION
 40
0.0
  9
$THICKNESS
 40
0.0
  9
$LIMCHECK
 70
     0
  9
$CHAMFERA
 40
0.0
  9
$CHAMFERB
 40
0.0
  9
$CHAMFERC
 40
0.0
  9
$CHAMFERD
 40
0.0
  9
$SKPOLY
 70
     0
  9
$TDCREATE
 40
2457162.66583125
  9
$TDUCREATE
 40
2457162.874164583
  9
$TDUPDATE
 40
2457192.104345035
  9
$TDUUPDATE
 40
2457192.312678368
  9
$TDINDWG
 40
0.0011506829
  9
$TDUSRTIMER
 40
2457192.311527836
  9
$USRTIMER
 70
     1
  9
$ANGBASE
 50
0.0
  9
$ANGDIR
 70
     0
  9
$PDMODE
 70
     0
  9
$PDSIZE
 40
0.0
  9
$PLINEWID
 40
0.0
  9
$SPLFRAME
 70
     0
  9
$SPLINETYPE
 70
     6
  9
$SPLINESEGS
 70
     8
  9
$HANDSEED
  5
400
  9
$SURFTAB1
 70
     6
  9
$SURFTAB2
 70
     6
  9
$SURFTYPE
 70
     6
  9
$SURFU
 70
     6
  9
$SURFV
 70
     6
  9
$UCSBASE
  2

  9
$UCSNAME
  2

  9
$UCSORG
 10
0.0
 20
0.0
 30
0.0
  9
$UCSXDIR
 10
1.0
 20
0.0
 30
0.0
  9
$UCSYDIR
 10
0.0
 20
1.0
 30
0.0
  9
$UCSORTHOREF
  2

  9
$UCSORTHOVIEW
 70
     0
  9
$UCSORGTOP
 10
0.0
 20
0.0
 30
0.0
  9
$UCSORGBOTTOM
 10
0.0
 20
0.0
 30
0.0
  9
$UCSORGLEFT
 10
0.0
 20
0.0
 30
0.0
  9
$UCSORGRIGHT
 10
0.0
 20
0.0
 30
0.0
  9
$UCSORGFRONT
 10
0.0
 20
0.0
 30
0.0
  9
$UCSORGBACK
 10
0.0
 20
0.0
 30
0.0
  9
$PUCSBASE
  2

  9
$PUCSNAME
  2

  9
$PUCSORG
 10
0.0
 20
0.0
 30
0.0
  9
$PUCSXDIR
 10
1.0
 20
0.0
 30
0.0
  9
$PUCSYDIR
 10
0.0
 20
1.0
 30
0.0
  9
$PUCSORTHOREF
  2

  9
$PUCSORTHOVIEW
 70
     0
  9
$PUCSORGTOP
 10
0.0
 20
0.0
 30
0.0
  9
$PUCSORGBOTTOM
 10
0.0
 20
0.0
 30
0.0
  9
$PUCSORGLEFT
 10
0.0
 20
0.0
 30
0.0
  9
$PUCSORGRIGHT
 10
0.0
 20
0.0
 30
0.0
  9
$PUCSORGFRONT
 10
0.0
 20
0.0
 30
0.0
  9
$PUCSORGBACK
 10
0.0
 20
0.0
 30
0.0
  9
$USERI1
 70
     0
  9
$USERI2
 70
     0
  9
$USERI3
 70
     0
  9
$USERI4
 70
     0
  9
$USERI5
 70
     0
  9
$USERR1
 40
0.0
  9
$USERR2
 40
0.0
  9
$USERR3
 40
0.0
  9
$USERR4
 40
0.0
  9
$USERR5
 40
0.0
  9
$WORLDVIEW
 70
     1
  9
$SHADEDGE
 70
     3
  9
$SHADEDIF
 70
    70
  9
$TILEMODE
 70
     1
  9
$MAXACTVP
 70
    64
  9
$PINSBASE
 10
0.0
 20
0.0
 30
0.0
  9
$PLIMCHECK
 70
     0
  9
$PEXTMIN
 10
1.000000000000000E+20
 20
1.000000000000000E+20
 30
1.000000000000000E+20
  9
$PEXTMAX
 10
-1.000000000000000E+20
 20
-1.000000000000000E+20
 30
-1.000000000000000E+20
  9
$PLIMMIN
 10
0.0
 20
0.0
  9
$PLIMMAX
 10
0.0
 20
0.0
  9
$UNITMODE
 70
     0
  9
$VISRETAIN
 70
     1
  9
$PLINEGEN
 70
     0
  9
$PSLTSCALE
 70
     1
  9
$TREEDEPTH
 70
  3020
  9
$CMLSTYLE
  2
STANDARD
  9
$CMLJUST
 70
     0
  9
$CMLSCALE
 40
1.0
  9
$PROXYGRAPHICS
 70
     1
  9
$MEASUREMENT
 70
     0
  9
$CELWEIGHT
370
    -1
  9
$ENDCAPS
280
     0
  9
$JOINSTYLE
280
     0
  9
$LWDISPLAY
290
     0
  9
$INSUNITS
 70
     4
  9
$HYPERLINKBASE
  1

  9
$STYLESHEET
  1

  9
$XEDIT
290
     1
  9
$CEPSNTYPE
380
     0
  9
$PSTYLEMODE
290
     1
  9
$FINGERPRINTGUID
  2
{991519B6-564E-428F-BD52-AFA12D5A6495}
  9
$VERSIONGUID
  2
{FAEB1C32-E019-11D5-929B-00C0DF256EC4}
  9
$EXTNAMES
290
     1
  9
$PSVPSCALE
 40
0.0
  9
$OLESTARTUP
290
     0
  9
$SORTENTS
280
   127
  9
$INDEXCTL
280
     0
  9
$HIDETEXT
280
     1
  9
$XCLIPFRAME
280
     2
  9
$HALOGAP
280
     0
  9
$OBSCOLOR
 70
   257
  9
$OBSLTYPE
280
     0
  9
$INTERSECTIONDISPLAY
280
     0
  9
$INTERSECTIONCOLOR
 70
   257
  9
$DIMASSOC
280
     2
  9
$PROJECTNAME
  1

  9
$CAMERADISPLAY
290
     0
  9
$LENSLENGTH
 40
50.0
  9
$CAMERAHEIGHT
 40
0.0
  9
$STEPSPERSEC
 40
2.0
  9
$STEPSIZE
 40
6.0
  9
$3DDWFPREC
 40
2.0
  9
$PSOLWIDTH
 40
0.25
  9
$PSOLHEIGHT
 40
4.0
  9
$LOFTANG1
 40
1.570796326794897
  9
$LOFTANG2
 40
1.570796326794897
  9
$LOFTMAG1
 40
0.0
  9
$LOFTMAG2
 40
0.0
  9
$LOFTPARAM
 70
     7
  9
$LOFTNORMALS
280
     1
  9
$LATITUDE
 40
37.795
  9
$LONGITUDE
 40
-122.394
  9
$NORTHDIRECTION
 40
0.0
  9
$TIMEZONE
 70
 -8000
  9
$LIGHTGLYPHDISPLAY
280
     1
  9
$TILEMODELIGHTSYNCH
280
     1
  9
$SOLIDHIST
280
     0
  9
$SHOWHIST
280
     1
  9
$DWFFRAME
280
     2
  9
$DGNFRAME
280
     2
  9
$REALWORLDSCALE
290
     1
  9
$INTERFERECOLOR
 62
   256
  9
$CSHADOW
280
     0
  9
$SHADOWPLANELOCATION
 40
0.0
  0
ENDSEC
  0
SECTION
  2
CLASSES
  0
CLASS
  1
ACDBDICTIONARYWDFLT
  2
AcDbDictionaryWithDefault
  3
ObjectDBX Classes
 90
        0
 91
        5
280
     0
281
     0
  0
CLASS
  1
VISUALSTYLE
  2
AcDbVisualStyle
  3
ObjectDBX Classes
 90
     4095
 91
        5
280
     0
281
     0
  0
CLASS
  1
MATERIAL
  2
AcDbMaterial
  3
ObjectDBX Classes
 90
     1153
 91
        5
280
     0
281
     0
  0
CLASS
  1
SCALE
  2
AcDbScale
  3
ObjectDBX Classes
 90
     1153
 91
        5
280
     0
281
     0
  0
CLASS
  1
TABLESTYLE
  2
AcDbTableStyle
  3
ObjectDBX Classes
 90
     4095
 91
        5
280
     0
281
     0
  0
CLASS
  1
MLEADERSTYLE
  2
AcDbMLeaderStyle
  3
ACDB_MLEADERSTYLE_CLASS
 90
     4095
 91
        5
280
     0
281
     0
  0
CLASS
  1
SUN
  2
AcDbSun
  3
SCENEOE
 90
     1153
 91
        5
280
     0
281
     0
  0
CLASS
  1
DICTIONARYVAR
  2
AcDbDictionaryVar
  3
ObjectDBX Classes
 90
        0
 91
        5
280
     0
281
     0
  0
CLASS
  1
XRECORD
  2
AcDbXrecord
  3
ObjectDBX Classes
 90
        0
 91
        1
280
     0
281
     0
  0
CLASS
  1
LWPOLYLINE
  2
AcDbPolyline
  3
ObjectDBX Classes
 90
        0
 91
        1
280
     0
281
     1
  0
CLASS
  1
HATCH
  2
AcDbHatch
  3
ObjectDBX Classes
 90
        0
 91
        1
280
     0
281
     1
  0
CLASS
  1
ACDBPLACEHOLDER
  2
AcDbPlaceHolder
  3
ObjectDBX Classes
 90
        0
 91
        1
280
     0
281
     0
  0
CLASS
  1
LAYOUT
  2
AcDbLayout
  3
ObjectDBX Classes
 90
        0
 91
        1
280
     0
281
     0
  0
CLASS
  1
RASTERVARIABLES
  2
AcDbRasterVariables
  3
ISM
 90
        0
 91
        5
280
     0
281
     0
  0
CLASS
  1
CELLSTYLEMAP
  2
AcDbCellStyleMap
  3
ObjectDBX Classes
 90
     1152
 91
        5
280
     0
281
     0
  0
ENDSEC
  0
SECTION
  2
TABLES
  0
TABLE
  2
VPORT
  5
8
330
0
100
AcDbSymbolTable
 70
     1
  0
VPORT
  5
29
330
8
100
AcDbSymbolTableRecord
100
AcDbViewportTableRecord
  2
*ACTIVE
 70
     0
 10
0.0
 20
0.0
 11
1.0
 21
1.0
 12
5289.320280104069
 22
67.05575521160574
 13
0.0
 23
0.0
 14
0.5
 24
0.5
 15
0.5
 25
0.5
 16
0.0
 26
0.0
 36
1.0
 17
0.0
 27
0.0
 37
0.0
 40
857.5848542100016
 41
2.016518424396442
 42
50.0
 43
0.0
 44
0.0
 50
0.0
 51
0.0
 71
    16
 72
   100
 73
     1
 74
     3
 75
     0
 76
     0
 77
     0
 78
     0
281
     0
 65
     1
110
0.0
120
0.0
130
0.0
111
1.0
121
0.0
131
0.0
112
0.0
122
1.0
132
0.0
 79
     0
146
0.0
348
2F
 60
     3
 61
     5
292
     1
282
     1
141
0.0
142
0.0
 63
   256
361
3F4
  0
ENDTAB
  0
TABLE
  2
LTYPE
  5
5
330
0
100
AcDbSymbolTable
 70
     1
  0
LTYPE
  5
14
330
5
100
AcDbSymbolTableRecord
100
AcDbLinetypeTableRecord
  2
BYBLOCK
 70
     0
  3

 72
    65
 73
     0
 40
0.0
  0
LTYPE
  5
15
330
5
100
AcDbSymbolTableRecord
100
AcDbLinetypeTableRecord
  2
BYLAYER
 70
     0
  3

 72
    65
 73
     0
 40
0.0
  0
LTYPE
  5
16
330
5
100
AcDbSymbolTableRecord
100
AcDbLinetypeTableRecord
  2
CONTINUOUS
 70
     0
  3
Solid line
 72
    65
 73
     0
 40
0.0
  0
ENDTAB
  0
TABLE
  2
LAYER
  5
2
330
0
100
AcDbSymbolTable
 70
     2
  0
LAYER
  5
10
330
2
100
AcDbSymbolTableRecord
100
AcDbLayerTableRecord
  2
0
 70
     0
 62
     7
  6
CONTINUOUS
370
    -3
390
0
347
46
348
0
  0
LAYER
  5
6E
330
2
100
AcDbSymbolTableRecord
100
AcDbLayerTableRecord
  2
DEFAULT
 70
     0
 62
    18
  6
CONTINUOUS
370
    -3
390
0
347
46
348
0
  0
ENDTAB
  0
TABLE
  2
STYLE
  5
3
330
0
100
AcDbSymbolTable
 70
     1
  0
STYLE
  5
11
330
3
100
AcDbSymbolTableRecord
100
AcDbTextStyleTableRecord
  2
STANDARD
 70
     0
 40
0.0
 41
1.0
 50
0.0
 71
     0
 42
0.2
  3
txt
  4

  0
ENDTAB
  0
TABLE
  2
VIEW
  5
6
330
0
100
AcDbSymbolTable
 70
     0
  0
ENDTAB
  0
TABLE
  2
UCS
  5
7
330
0
100
AcDbSymbolTable
 70
     0
  0
ENDTAB
  0
TABLE
  2
APPID
  5
9
330
0
100
AcDbSymbolTable
 70
     2
  0
APPID
  5
12
330
9
100
AcDbSymbolTableRecord
100
AcDbRegAppTableRecord
  2
ACAD
 70
     0
  0
APPID
  5
3EC
330
9
100
AcDbSymbolTableRecord
100
AcDbRegAppTableRecord
  2
ACAD_MLEADERVER
 70
     0
  0
ENDTAB
  0
TABLE
  2
DIMSTYLE
  5
A
330
0
100
AcDbSymbolTable
 70
     1
100
AcDbDimStyleTable
  0
DIMSTYLE
105
27
330
A
100
AcDbSymbolTableRecord
100
AcDbDimStyleTableRecord
  2
STANDARD
 70
     0
178
     0
340
11
  0
ENDTAB
  0
TABLE
  2
BLOCK_RECORD
  5
1
330
0
100
AcDbSymbolTable
 70
     0
  0
BLOCK_RECORD
  5
1F
330
1
100
AcDbSymbolTableRecord
100
AcDbBlockTableRecord
  2
*MODEL_SPACE
340
3EE
 70
     0
280
     1
281
     0
  0
BLOCK_RECORD
  5
1B
330
1
100
AcDbSymbolTableRecord
100
AcDbBlockTableRecord
  2
*PAPER_SPACE
340
3EF
 70
     0
280
     1
281
     0
  0
ENDTAB
  0
ENDSEC
  0
SECTION
  2
BLOCKS
  0
BLOCK
  5
20
330
1F
100
AcDbEntity
  8
0
100
AcDbBlockBegin
  2
*MODEL_SPACE
 70
     0
 10
0.0
 20
0.0
 30
0.0
  3
*MODEL_SPACE
  1
*MODEL_SPACE
  0
ENDBLK
  5
21
330
1F
100
AcDbEntity
  8
0
100
AcDbBlockEnd
  0
BLOCK
  5
1C
330
1B
100
AcDbEntity
 67
     1
  8
0
100
AcDbBlockBegin
  2
*PAPER_SPACE
 70
     0
 10
0.0
 20
0.0
 30
0.0
  3
*PAPER_SPACE
  1
*PAPER_SPACE
  0
ENDBLK
  5
1D
330
1B
100
AcDbEntity
 67
     1
  8
0
100
AcDbBlockEnd
  0
ENDSEC
  0
SECTION
  2
ENTITIES
  0
LINE
  5
20C
330
1F
100
AcDbEntity
  8
DEFAULT
100
AcDbLine
 10
5401.725098748456
 20
53.86588998209149
 30
-0.0000000000891305
 11
5411.128379028703
 21
46.41080313007328
 31
-0.0000000000949001
  0
LINE
  5
20D
330
1F
100
AcDbEntity
  8
DEFAULT
100
AcDbLine
 10
5411.128379028703
 20
46.41080313007328
 30
-0.0000000000949001
 11
5407.711464221527
 21
42.10096633496036
 31
-0.0000000000775913
  0
LINE
  5
20E
330
1F
100
AcDbEntity
  8
DEFAULT
100
AcDbLine
 10
5407.711464221527
 20
42.10096633496036
 30
-0.0000000000775913
 11
5398.308183941282
 21
49.55605318697857
 31
-0.0000000001006697
  0
LINE
  5
20F
330
1F
100
AcDbEntity
  8
DEFAULT
100
AcDbLine
 10
5398.308183941282
 20
49.55605318697857
 30
-0.0000000000891305
 11
5401.725098748456
 21
53.86588998209149
 31
-0.0000000000891305
  0
LINE
  5
210
330
1F
100
AcDbEntity
  8
DEFAULT
100
AcDbLine
 10
5392.321818468211
 20
61.3209768341097
 30
-0.0000000000891305
 11
5382.918538187964
 21
68.77606368612791
 31
-0.0000000000891305
  0
LINE
  5
211
330
1F
100
AcDbEntity
  8
DEFAULT
100
AcDbLine
 10
5382.918538187964
 20
68.77606368612791
 30
-0.0000000000891305
 11
5379.501623380788
 21
64.466226891015
 31
-0.0000000000949001
  0
LINE
  5
212
330
1F
100
AcDbEntity
  8
DEFAULT
100
AcDbLine
 10
5379.501623380788
 20
64.466226891015
 30
-0.0000000000949001
 11
5388.904903661035
 21
57.01114003899679
 31
-0.0000000000775913
  0
LINE
  5
213
330
1F
100
AcDbEntity
  8
DEFAULT
100
AcDbLine
 10
5388.904903661035
 20
57.01114003899679
 30
-0.0000000000775913
 11
5392.321818468211
 21
61.3209768341097
 31
-0.0000000000891305
  0
LINE
  5
214
330
1F
100
AcDbEntity
  8
DEFAULT
100
AcDbLine
 10
5307.692295945994
 20
128.4167585022736
 30
-0.0000000000891305
 11
5317.095576226241
 21
120.9616716502554
 31
-0.0000000000891305
  0
LINE
  5
215
330
1F
100
AcDbEntity
  8
DEFAULT
100
AcDbLine
 10
5317.095576226241
 20
120.9616716502554
 30
-0.0000000001006697
 11
5313.678661419067
 21
116.6518348551425
 31
-0.0000000000775913
  0
LINE
  5
216
330
1F
100
AcDbEntity
  8
DEFAULT
100
AcDbLine
 10
5313.678661419067
 20
116.6518348551425
 30
-0.0000000000775913
 11
5304.27538113882
 21
124.1069217071607
 31
-0.0000000000949001
  0
LINE
  5
217
330
1F
100
AcDbEntity
  8
DEFAULT
100
AcDbLine
 10
5304.27538113882
 20
124.1069217071607
 30
-0.0000000000949001
 11
5307.692295945994
 21
128.4167585022736
 31
-0.0000000000891305
  0
LINE
  5
218
330
1F
100
AcDbEntity
  8
DEFAULT
100
AcDbLine
 10
5298.28901566575
 20
135.8718453542918
 30
-0.0000000000891305
 11
5288.885735385503
 21
143.32693220631
 31
-0.0000000000891305
  0
LINE
  5
219
330
1F
100
AcDbEntity
  8
DEFAULT
100
AcDbLine
 10
5288.885735385503
 20
143.32693220631
 30
-0.0000000000891305
 11
5285.468820578329
 21
139.0170954111971
 31
-0.0000000000891305
  0
LINE
  5
21A
330
1F
100
AcDbEntity
  8
DEFAULT
100
AcDbLine
 10
5285.468820578329
 20
139.0170954111971
 30
-0.0000000000891305
 11
5294.872100858574
 21
131.5620085591789
 31
-0.0000000000891305
  0
LINE
  5
21B
330
1F
100
AcDbEntity
  8
DEFAULT
100
AcDbLine
 10
5294.872100858574
 20
131.5620085591789
 30
-0.0000000000891305
 11
5298.28901566575
 21
135.8718453542918
 31
-0.0000000000891305
  0
LINE
  5
21C
330
1F
100
AcDbEntity
  8
DEFAULT
100
AcDbLine
 10
5370.098343100543
 20
71.92131374303321
 30
-0.0000000000775913
 11
5360.695062820297
 21
79.37640059505142
 31
-0.0000000001006697
  0
LINE
  5
21D
330
1F
100
AcDbEntity
  8
DEFAULT
100
AcDbLine
 10
5360.695062820297
 20
79.37640059505142
 30
-0.0000000000891305
 11
5364.111977627471
 21
83.68623739016434
 31
-0.0000000000891305
  0
LINE
  5
21E
330
1F
100
AcDbEntity
  8
DEFAULT
100
AcDbLine
 10
5364.111977627471
 20
83.68623739016434
 30
-0.0000000000891305
 11
5373.515257907718
 21
76.23115053814612
 31
-0.0000000000949001
  0
LINE
  5
21F
330
1F
100
AcDbEntity
  8
DEFAULT
100
AcDbLine
 10
5373.515257907718
 20
76.23115053814612
 30
-0.0000000000949001
 11
5370.098343100543
 21
71.92131374303321
 31
-0.0000000000775913
  0
LINE
  5
220
330
1F
100
AcDbEntity
  8
DEFAULT
100
AcDbLine
 10
5449.298599803225
 20
129.5451861069476
 30
-0.0000000000891305
 11
5437.298599803225
 21
129.5451861069476
 31
-0.0000000000891305
  0
LINE
  5
221
330
1F
100
AcDbEntity
  8
DEFAULT
100
AcDbLine
 10
5437.298599803225
 20
129.5451861069476
 30
-0.0000000000891305
 11
5437.298599803225
 21
117.0451861069476
 31
-0.0000000000891305
  0
LINE
  5
222
330
1F
100
AcDbEntity
  8
DEFAULT
100
AcDbLine
 10
5437.298599803225
 20
117.0451861069476
 30
-0.0000000000891305
 11
5431.798599803225
 21
117.0451861069476
 31
-0.0000000000891305
  0
LINE
  5
223
330
1F
100
AcDbEntity
  8
DEFAULT
100
AcDbLine
 10
5431.798599803225
 20
117.0451861069476
 30
-0.0000000000891305
 11
5431.798599803225
 21
105.0451861069476
 31
-0.0000000000891305
  0
LINE
  5
224
330
1F
100
AcDbEntity
  8
DEFAULT
100
AcDbLine
 10
5431.798599803225
 20
105.0451861069476
 30
-0.0000000000891305
 11
5437.298599803225
 21
105.0451861069476
 31
-0.0000000000891305
  0
LINE
  5
225
330
1F
100
AcDbEntity
  8
DEFAULT
100
AcDbLine
 10
5437.298599803225
 20
105.0451861069476
 30
-0.0000000000891305
 11
5437.298599803225
 21
93.04518610694763
 31
-0.0000000000891305
  0
LINE
  5
226
330
1F
100
AcDbEntity
  8
DEFAULT
100
AcDbLine
 10
5437.298599803225
 20
93.04518610694763
 30
-0.0000000000891305
 11
5431.798599803225
 21
93.04518610694763
 31
-0.0000000000891305
  0
LINE
  5
227
330
1F
100
AcDbEntity
  8
DEFAULT
100
AcDbLine
 10
5431.798599803225
 20
93.04518610694763
 30
-0.0000000000891305
 11
5431.798599803225
 21
81.04518610694763
 31
-0.0000000000891305
  0
LINE
  5
228
330
1F
100
AcDbEntity
  8
DEFAULT
100
AcDbLine
 10
5431.798599803225
 20
81.04518610694763
 30
-0.0000000000891305
 11
5437.298599803225
 21
81.04518610694763
 31
-0.0000000000891305
  0
LINE
  5
229
330
1F
100
AcDbEntity
  8
DEFAULT
100
AcDbLine
 10
5437.298599803225
 20
81.04518610694763
 30
-0.0000000000891305
 11
5437.298599803225
 21
69.04518610694763
 31
-0.0000000000891305
  0
LINE
  5
22A
330
1F
100
AcDbEntity
  8
DEFAULT
100
AcDbLine
 10
5437.298599803225
 20
69.04518610694763
 30
-0.0000000000891305
 11
5431.798599803225
 21
69.04518610694763
 31
-0.0000000000891305
  0
LINE
  5
22B
330
1F
100
AcDbEntity
  8
DEFAULT
100
AcDbLine
 10
5431.798599803225
 20
69.04518610694763
 30
-0.0000000000891305
 11
5431.798599803225
 21
57.04518610694763
 31
-0.0000000000891305
  0
LINE
  5
22C
330
1F
100
AcDbEntity
  8
DEFAULT
100
AcDbLine
 10
5431.798599803225
 20
57.04518610694763
 30
-0.0000000000891305
 11
5437.298599803225
 21
57.04518610694763
 31
-0.0000000000891305
  0
LINE
  5
22D
330
1F
100
AcDbEntity
  8
DEFAULT
100
AcDbLine
 10
5437.298599803225
 20
57.04518610694763
 30
-0.0000000000891305
 11
5437.298599803225
 21
45.04518610694763
 31
-0.0000000000891305
  0
LINE
  5
22E
330
1F
100
AcDbEntity
  8
DEFAULT
100
AcDbLine
 10
5437.298599803225
 20
45.04518610694763
 30
-0.0000000000891305
 11
5431.798599803225
 21
45.04518610694763
 31
-0.0000000000891305
  0
LINE
  5
22F
330
1F
100
AcDbEntity
  8
DEFAULT
100
AcDbLine
 10
5431.798599803225
 20
45.04518610694763
 30
-0.0000000000891305
 11
5431.798599803225
 21
33.04518610694763
 31
-0.0000000000891305
  0
LINE
  5
230
330
1F
100
AcDbEntity
  8
DEFAULT
100
AcDbLine
 10
5431.798599803225
 20
33.04518610694763
 30
-0.0000000000891305
 11
5437.298599803225
 21
33.04518610694763
 31
-0.0000000000891305
  0
LINE
  5
231
330
1F
100
AcDbEntity
  8
DEFAULT
100
AcDbLine
 10
5437.298599803225
 20
33.04518610694763
 30
-0.0000000000891305
 11
5437.298599803225
 21
21.04518610694763
 31
-0.0000000000891305
  0
LINE
  5
232
330
1F
100
AcDbEntity
  8
DEFAULT
100
AcDbLine
 10
5437.298599803225
 20
21.04518610694763
 30
-0.0000000000891305
 11
5431.798599803225
 21
21.04518610694763
 31
-0.0000000000891305
  0
LINE
  5
233
330
1F
100
AcDbEntity
  8
DEFAULT
100
AcDbLine
 10
5431.798599803225
 20
21.04518610694763
 30
-0.0000000000891305
 11
5431.798599803225
 21
9.045186106947625
 31
-0.0000000000891305
  0
LINE
  5
234
330
1F
100
AcDbEntity
  8
DEFAULT
100
AcDbLine
 10
5431.798599803225
 20
9.045186106947625
 30
-0.0000000000891305
 11
5437.298599803225
 21
9.045186106947625
 31
-0.0000000000891305
  0
LINE
  5
235
330
1F
100
AcDbEntity
  8
DEFAULT
100
AcDbLine
 10
5437.298599803225
 20
9.045186106947625
 30
-0.0000000000891305
 11
5437.298599803225
 21
-5.454813893052375
 31
-0.0000000000891305
  0
LINE
  5
236
330
1F
100
AcDbEntity
  8
DEFAULT
100
AcDbLine
 10
5437.298599803225
 20
-5.454813893052375
 30
-0.0000000000891305
 11
5592.798599803225
 21
-5.454813893052375
 31
-0.0000000000891305
  0
LINE
  5
237
330
1F
100
AcDbEntity
  8
DEFAULT
100
AcDbLine
 10
5592.798599803225
 20
-5.454813893052375
 30
-0.0000000000891305
 11
5592.798599803225
 21
8.045186106947625
 31
-0.0000000000891305
  0
LINE
  5
238
330
1F
100
AcDbEntity
  8
DEFAULT
100
AcDbLine
 10
5592.798599803225
 20
8.045186106947625
 30
-0.0000000000891305
 11
5598.298599803225
 21
8.045186106947625
 31
-0.0000000000891305
  0
LINE
  5
239
330
1F
100
AcDbEntity
  8
DEFAULT
100
AcDbLine
 10
5598.298599803225
 20
8.045186106947625
 30
-0.0000000000891305
 11
5598.298599803225
 21
20.04518610694763
 31
-0.0000000000891305
  0
LINE
  5
23A
330
1F
100
AcDbEntity
  8
DEFAULT
100
AcDbLine
 10
5598.298599803225
 20
20.04518610694763
 30
-0.0000000000891305
 11
5592.798599803225
 21
20.04518610694763
 31
-0.0000000000891305
  0
LINE
  5
23B
330
1F
100
AcDbEntity
  8
DEFAULT
100
AcDbLine
 10
5592.798599803225
 20
20.04518610694763
 30
-0.0000000000891305
 11
5592.798599803225
 21
32.04518610694763
 31
-0.0000000000891305
  0
LINE
  5
23C
330
1F
100
AcDbEntity
  8
DEFAULT
100
AcDbLine
 10
5592.798599803225
 20
32.04518610694763
 30
-0.0000000000891305
 11
5598.298599803225
 21
32.04518610694763
 31
-0.0000000000891305
  0
LINE
  5
23D
330
1F
100
AcDbEntity
  8
DEFAULT
100
AcDbLine
 10
5598.298599803225
 20
32.04518610694763
 30
-0.0000000000891305
 11
5598.298599803225
 21
44.04518610694763
 31
-0.0000000000891305
  0
LINE
  5
23E
330
1F
100
AcDbEntity
  8
DEFAULT
100
AcDbLine
 10
5598.298599803225
 20
44.04518610694763
 30
-0.0000000000891305
 11
5592.798599803225
 21
44.04518610694763
 31
-0.0000000000891305
  0
LINE
  5
23F
330
1F
100
AcDbEntity
  8
DEFAULT
100
AcDbLine
 10
5592.798599803225
 20
44.04518610694763
 30
-0.0000000000891305
 11
5592.798599803225
 21
56.04518610694763
 31
-0.0000000000891305
  0
LINE
  5
240
330
1F
100
AcDbEntity
  8
DEFAULT
100
AcDbLine
 10
5592.798599803225
 20
56.04518610694763
 30
-0.0000000000891305
 11
5598.298599803225
 21
56.04518610694763
 31
-0.0000000000891305
  0
LINE
  5
241
330
1F
100
AcDbEntity
  8
DEFAULT
100
AcDbLine
 10
5598.298599803225
 20
56.04518610694763
 30
-0.0000000000891305
 11
5598.298599803225
 21
68.04518610694763
 31
-0.0000000000891305
  0
LINE
  5
242
330
1F
100
AcDbEntity
  8
DEFAULT
100
AcDbLine
 10
5598.298599803225
 20
68.04518610694763
 30
-0.0000000000891305
 11
5592.798599803225
 21
68.04518610694763
 31
-0.0000000000891305
  0
LINE
  5
243
330
1F
100
AcDbEntity
  8
DEFAULT
100
AcDbLine
 10
5592.798599803225
 20
68.04518610694763
 30
-0.0000000000891305
 11
5592.798599803225
 21
80.04518610694763
 31
-0.0000000000891305
  0
LINE
  5
244
330
1F
100
AcDbEntity
  8
DEFAULT
100
AcDbLine
 10
5592.798599803225
 20
80.04518610694763
 30
-0.0000000000891305
 11
5598.298599803225
 21
80.04518610694763
 31
-0.0000000000891305
  0
LINE
  5
245
330
1F
100
AcDbEntity
  8
DEFAULT
100
AcDbLine
 10
5598.298599803225
 20
80.04518610694763
 30
-0.0000000000891305
 11
5598.298599803225
 21
92.04518610694763
 31
-0.0000000000891305
  0
LINE
  5
246
330
1F
100
AcDbEntity
  8
DEFAULT
100
AcDbLine
 10
5598.298599803225
 20
92.04518610694763
 30
-0.0000000000891305
 11
5592.798599803225
 21
92.04518610694763
 31
-0.0000000000891305
  0
LINE
  5
247
330
1F
100
AcDbEntity
  8
DEFAULT
100
AcDbLine
 10
5592.798599803225
 20
92.04518610694763
 30
-0.0000000000891305
 11
5592.798599803225
 21
104.0451861069476
 31
-0.0000000000891305
  0
LINE
  5
248
330
1F
100
AcDbEntity
  8
DEFAULT
100
AcDbLine
 10
5592.798599803225
 20
104.0451861069476
 30
-0.0000000000891305
 11
5598.298599803225
 21
104.0451861069476
 31
-0.0000000000891305
  0
LINE
  5
249
330
1F
100
AcDbEntity
  8
DEFAULT
100
AcDbLine
 10
5598.298599803225
 20
104.0451861069476
 30
-0.0000000000891305
 11
5598.298599803225
 21
116.0451861069476
 31
-0.0000000000891305
  0
LINE
  5
24A
330
1F
100
AcDbEntity
  8
DEFAULT
100
AcDbLine
 10
5598.298599803225
 20
116.0451861069476
 30
-0.0000000000891305
 11
5592.798599803225
 21
116.0451861069476
 31
-0.0000000000891305
  0
LINE
  5
24B
330
1F
100
AcDbEntity
  8
DEFAULT
100
AcDbLine
 10
5592.798599803225
 20
116.0451861069476
 30
-0.0000000000891305
 11
5592.798599803225
 21
129.5451861069476
 31
-0.0000000000891305
  0
LINE
  5
24C
330
1F
100
AcDbEntity
  8
DEFAULT
100
AcDbLine
 10
5592.798599803225
 20
129.5451861069476
 30
-0.0000000000891305
 11
5580.798599803225
 21
129.5451861069476
 31
-0.0000000000891305
  0
LINE
  5
24D
330
1F
100
AcDbEntity
  8
DEFAULT
100
AcDbLine
 10
5580.798599803225
 20
129.5451861069476
 30
-0.0000000000891305
 11
5580.798599803225
 21
135.0451861069476
 31
-0.0000000000891305
  0
LINE
  5
24E
330
1F
100
AcDbEntity
  8
DEFAULT
100
AcDbLine
 10
5580.798599803225
 20
135.0451861069476
 30
-0.0000000000891305
 11
5592.798599803225
 21
135.0451861069476
 31
-0.0000000000891305
  0
LINE
  5
24F
330
1F
100
AcDbEntity
  8
DEFAULT
100
AcDbLine
 10
5592.798599803225
 20
135.0451861069476
 30
-0.0000000000891305
 11
5592.798599803225
 21
141.5451861069476
 31
-0.0000000000891305
  0
LINE
  5
250
330
1F
100
AcDbEntity
  8
DEFAULT
100
AcDbLine
 10
5592.798599803225
 20
141.5451861069476
 30
-0.0000000000891305
 11
5598.298599803225
 21
141.5451861069476
 31
-0.0000000000891305
  0
LINE
  5
251
330
1F
100
AcDbEntity
  8
DEFAULT
100
AcDbLine
 10
5598.298599803225
 20
141.5451861069476
 30
-0.0000000000891305
 11
5598.298599803225
 21
153.5451861069476
 31
-0.0000000000891305
  0
LINE
  5
252
330
1F
100
AcDbEntity
  8
DEFAULT
100
AcDbLine
 10
5598.298599803225
 20
153.5451861069476
 30
-0.0000000000891305
 11
5592.798599803225
 21
153.5451861069476
 31
-0.0000000000891305
  0
LINE
  5
253
330
1F
100
AcDbEntity
  8
DEFAULT
100
AcDbLine
 10
5592.798599803225
 20
153.5451861069476
 30
-0.0000000000891305
 11
5592.798599803225
 21
160.0451861069476
 31
-0.0000000000891305
  0
LINE
  5
254
330
1F
100
AcDbEntity
  8
DEFAULT
100
AcDbLine
 10
5592.798599803225
 20
160.0451861069476
 30
-0.0000000000891305
 11
5437.298599803225
 21
160.0451861069476
 31
-0.0000000000891305
  0
LINE
  5
255
330
1F
100
AcDbEntity
  8
DEFAULT
100
AcDbLine
 10
5437.298599803225
 20
160.0451861069476
 30
-0.0000000000891305
 11
5437.298599803225
 21
153.5451861069476
 31
-0.0000000000891305
  0
LINE
  5
256
330
1F
100
AcDbEntity
  8
DEFAULT
100
AcDbLine
 10
5437.298599803225
 20
153.5451861069476
 30
-0.0000000000891305
 11
5431.798599803225
 21
153.5451861069476
 31
-0.0000000000891305
  0
LINE
  5
257
330
1F
100
AcDbEntity
  8
DEFAULT
100
AcDbLine
 10
5431.798599803225
 20
153.5451861069476
 30
-0.0000000000891305
 11
5431.798599803225
 21
141.5451861069476
 31
-0.0000000000891305
  0
LINE
  5
258
330
1F
100
AcDbEntity
  8
DEFAULT
100
AcDbLine
 10
5431.798599803225
 20
141.5451861069476
 30
-0.0000000000891305
 11
5437.298599803225
 21
141.5451861069476
 31
-0.0000000000891305
  0
LINE
  5
259
330
1F
100
AcDbEntity
  8
DEFAULT
100
AcDbLine
 10
5437.298599803225
 20
141.5451861069476
 30
-0.0000000000891305
 11
5437.298599803225
 21
135.0451861069476
 31
-0.0000000000891305
  0
LINE
  5
25A
330
1F
100
AcDbEntity
  8
DEFAULT
100
AcDbLine
 10
5437.298599803225
 20
135.0451861069476
 30
-0.0000000000891305
 11
5449.298599803225
 21
135.0451861069476
 31
-0.0000000000891305
  0
LINE
  5
25B
330
1F
100
AcDbEntity
  8
DEFAULT
100
AcDbLine
 10
5449.298599803225
 20
135.0451861069476
 30
-0.0000000000891305
 11
5449.298599803225
 21
129.5451861069476
 31
-0.0000000000891305
  0
LINE
  5
25C
330
1F
100
AcDbEntity
  8
DEFAULT
100
AcDbLine
 10
5517.698599803225
 20
57.04518610694763
 30
-0.0000000000891305
 11
5512.398599803225
 21
57.04518610694763
 31
-0.0000000000891305
  0
LINE
  5
25D
330
1F
100
AcDbEntity
  8
DEFAULT
100
AcDbLine
 10
5512.398599803225
 20
57.04518610694763
 30
-0.0000000000891305
 11
5512.398599803225
 21
69.04518610694763
 31
-0.0000000000891305
  0
LINE
  5
25E
330
1F
100
AcDbEntity
  8
DEFAULT
100
AcDbLine
 10
5512.398599803225
 20
69.04518610694763
 30
-0.0000000000891305
 11
5517.698599803225
 21
69.04518610694763
 31
-0.0000000000891305
  0
LINE
  5
25F
330
1F
100
AcDbEntity
  8
DEFAULT
100
AcDbLine
 10
5517.698599803225
 20
69.04518610694763
 30
-0.0000000000891305
 11
5517.698599803225
 21
57.04518610694763
 31
-0.0000000000891305
  0
LINE
  5
260
330
1F
100
AcDbEntity
  8
DEFAULT
100
AcDbLine
 10
5399.548599803225
 20
134.9451861069476
 30
-0.0000000000891305
 11
5399.548599803225
 21
129.6451861069476
 31
-0.0000000000891305
  0
LINE
  5
261
330
1F
100
AcDbEntity
  8
DEFAULT
100
AcDbLine
 10
5399.548599803225
 20
129.6451861069476
 30
-0.0000000000891305
 11
5387.548599803225
 21
129.6451861069476
 31
-0.0000000000891305
  0
LINE
  5
262
330
1F
100
AcDbEntity
  8
DEFAULT
100
AcDbLine
 10
5387.548599803225
 20
129.6451861069476
 30
-0.0000000000891305
 11
5387.548599803225
 21
134.9451861069476
 31
-0.0000000000891305
  0
LINE
  5
263
330
1F
100
AcDbEntity
  8
DEFAULT
100
AcDbLine
 10
5387.548599803225
 20
134.9451861069476
 30
-0.0000000000891305
 11
5399.548599803225
 21
134.9451861069476
 31
-0.0000000000891305
  0
LINE
  5
264
330
1F
100
AcDbEntity
  8
DEFAULT
100
AcDbLine
 10
5342.898599803225
 20
45.04518610694763
 30
-0.0000000000891305
 11
5348.198599803225
 21
45.04518610694763
 31
-0.0000000000891305
  0
LINE
  5
265
330
1F
100
AcDbEntity
  8
DEFAULT
100
AcDbLine
 10
5348.198599803225
 20
45.04518610694763
 30
-0.0000000000891305
 11
5348.198599803225
 21
33.04518610694763
 31
-0.0000000000891305
  0
LINE
  5
266
330
1F
100
AcDbEntity
  8
DEFAULT
100
AcDbLine
 10
5348.198599803225
 20
33.04518610694763
 30
-0.0000000000891305
 11
5342.898599803225
 21
33.04518610694763
 31
-0.0000000000891305
  0
LINE
  5
267
330
1F
100
AcDbEntity
  8
DEFAULT
100
AcDbLine
 10
5342.898599803225
 20
33.04518610694763
 30
-0.0000000000891305
 11
5342.898599803225
 21
45.04518610694763
 31
-0.0000000000891305
  0
LINE
  5
268
330
1F
100
AcDbEntity
  8
DEFAULT
100
AcDbLine
 10
5571.225098748456
 20
53.86588998209149
 30
-0.0000000000891305
 11
5580.628379028703
 21
46.41080313007328
 31
-0.0000000000891305
  0
LINE
  5
269
330
1F
100
AcDbEntity
  8
DEFAULT
100
AcDbLine
 10
5580.628379028703
 20
46.41080313007328
 30
-0.0000000001006697
 11
5577.211464221527
 21
42.10096633496036
 31
-0.0000000000775913
  0
LINE
  5
26A
330
1F
100
AcDbEntity
  8
DEFAULT
100
AcDbLine
 10
5577.211464221527
 20
42.10096633496036
 30
-0.0000000000775913
 11
5567.808183941282
 21
49.55605318697857
 31
-0.0000000000949001
  0
LINE
  5
26B
330
1F
100
AcDbEntity
  8
DEFAULT
100
AcDbLine
 10
5567.808183941282
 20
49.55605318697857
 30
-0.0000000000949001
 11
5571.225098748456
 21
53.86588998209149
 31
-0.0000000000891305
  0
LINE
  5
26C
330
1F
100
AcDbEntity
  8
DEFAULT
100
AcDbLine
 10
5351.548599803225
 20
134.9451861069476
 30
-0.0000000000891305
 11
5351.548599803225
 21
129.6451861069476
 31
-0.0000000000891305
  0
LINE
  5
26D
330
1F
100
AcDbEntity
  8
DEFAULT
100
AcDbLine
 10
5351.548599803225
 20
129.6451861069476
 30
-0.0000000000891305
 11
5339.548599803225
 21
129.6451861069476
 31
-0.0000000000891305
  0
LINE
  5
26E
330
1F
100
AcDbEntity
  8
DEFAULT
100
AcDbLine
 10
5339.548599803225
 20
129.6451861069476
 30
-0.0000000000891305
 11
5339.548599803225
 21
134.9451861069476
 31
-0.0000000000891305
  0
LINE
  5
26F
330
1F
100
AcDbEntity
  8
DEFAULT
100
AcDbLine
 10
5339.548599803225
 20
134.9451861069476
 30
-0.0000000000891305
 11
5351.548599803225
 21
134.9451861069476
 31
-0.0000000000891305
  0
LINE
  5
270
330
1F
100
AcDbEntity
  8
DEFAULT
100
AcDbLine
 10
5561.821818468211
 20
61.3209768341097
 30
-0.0000000000891305
 11
5552.418538187964
 21
68.77606368612791
 31
-0.0000000000891305
  0
LINE
  5
271
330
1F
100
AcDbEntity
  8
DEFAULT
100
AcDbLine
 10
5552.418538187964
 20
68.77606368612791
 30
-0.0000000000891305
 11
5549.001623380788
 21
64.466226891015
 31
-0.0000000000949001
  0
LINE
  5
272
330
1F
100
AcDbEntity
  8
DEFAULT
100
AcDbLine
 10
5549.001623380788
 20
64.466226891015
 30
-0.0000000000949001
 11
5558.404903661035
 21
57.01114003899679
 31
-0.0000000000775913
  0
LINE
  5
273
330
1F
100
AcDbEntity
  8
DEFAULT
100
AcDbLine
 10
5558.404903661035
 20
57.01114003899679
 30
-0.0000000000775913
 11
5561.821818468211
 21
61.3209768341097
 31
-0.0000000000891305
  0
LINE
  5
274
330
1F
100
AcDbEntity
  8
DEFAULT
100
AcDbLine
 10
5512.398599803225
 20
21.04518610694763
 30
-0.0000000000891305
 11
5517.698599803225
 21
21.04518610694763
 31
-0.0000000000891305
  0
LINE
  5
275
330
1F
100
AcDbEntity
  8
DEFAULT
100
AcDbLine
 10
5517.698599803225
 20
21.04518610694763
 30
-0.0000000000891305
 11
5517.698599803225
 21
9.045186106947625
 31
-0.0000000000891305
  0
LINE
  5
276
330
1F
100
AcDbEntity
  8
DEFAULT
100
AcDbLine
 10
5517.698599803225
 20
9.045186106947625
 30
-0.0000000000891305
 11
5512.398599803225
 21
9.045186106947625
 31
-0.0000000000891305
  0
LINE
  5
277
330
1F
100
AcDbEntity
  8
DEFAULT
100
AcDbLine
 10
5512.398599803225
 20
9.045186106947625
 30
-0.0000000000891305
 11
5512.398599803225
 21
21.04518610694763
 31
-0.0000000000891305
  0
LINE
  5
278
330
1F
100
AcDbEntity
  8
DEFAULT
100
AcDbLine
 10
5545.048599803225
 20
134.9451861069476
 30
-0.0000000000891305
 11
5545.048599803225
 21
129.6451861069476
 31
-0.0000000000891305
  0
LINE
  5
279
330
1F
100
AcDbEntity
  8
DEFAULT
100
AcDbLine
 10
5545.048599803225
 20
129.6451861069476
 30
-0.0000000000891305
 11
5533.048599803225
 21
129.6451861069476
 31
-0.0000000000891305
  0
LINE
  5
27A
330
1F
100
AcDbEntity
  8
DEFAULT
100
AcDbLine
 10
5533.048599803225
 20
129.6451861069476
 30
-0.0000000000891305
 11
5533.048599803225
 21
134.9451861069476
 31
-0.0000000000891305
  0
LINE
  5
27B
330
1F
100
AcDbEntity
  8
DEFAULT
100
AcDbLine
 10
5533.048599803225
 20
134.9451861069476
 30
-0.0000000000891305
 11
5545.048599803225
 21
134.9451861069476
 31
-0.0000000000891305
  0
LINE
  5
27C
330
1F
100
AcDbEntity
  8
DEFAULT
100
AcDbLine
 10
5315.548599803225
 20
134.9451861069476
 30
-0.0000000000891305
 11
5327.548599803225
 21
134.9451861069476
 31
-0.0000000000891305
  0
LINE
  5
27D
330
1F
100
AcDbEntity
  8
DEFAULT
100
AcDbLine
 10
5327.548599803225
 20
134.9451861069476
 30
-0.0000000000891305
 11
5327.548599803225
 21
129.6451861069476
 31
-0.0000000000891305
  0
LINE
  5
27E
330
1F
100
AcDbEntity
  8
DEFAULT
100
AcDbLine
 10
5327.548599803225
 20
129.6451861069476
 30
-0.0000000000891305
 11
5315.548599803225
 21
129.6451861069476
 31
-0.0000000000891305
  0
LINE
  5
27F
330
1F
100
AcDbEntity
  8
DEFAULT
100
AcDbLine
 10
5315.548599803225
 20
129.6451861069476
 30
-0.0000000000891305
 11
5315.548599803225
 21
134.9451861069476
 31
-0.0000000000891305
  0
LINE
  5
280
330
1F
100
AcDbEntity
  8
DEFAULT
100
AcDbLine
 10
5342.898599803225
 20
93.04518610694763
 30
-0.0000000000891305
 11
5348.198599803225
 21
93.04518610694763
 31
-0.0000000000891305
  0
LINE
  5
281
330
1F
100
AcDbEntity
  8
DEFAULT
100
AcDbLine
 10
5348.198599803225
 20
93.04518610694763
 30
-0.0000000000891305
 11
5348.198599803225
 21
81.04518610694763
 31
-0.0000000000891305
  0
LINE
  5
282
330
1F
100
AcDbEntity
  8
DEFAULT
100
AcDbLine
 10
5348.198599803225
 20
81.04518610694763
 30
-0.0000000000891305
 11
5342.898599803225
 21
81.04518610694763
 31
-0.0000000000891305
  0
LINE
  5
283
330
1F
100
AcDbEntity
  8
DEFAULT
100
AcDbLine
 10
5342.898599803225
 20
81.04518610694763
 30
-0.0000000000891305
 11
5342.898599803225
 21
93.04518610694763
 31
-0.0000000000891305
  0
LINE
  5
284
330
1F
100
AcDbEntity
  8
DEFAULT
100
AcDbLine
 10
5279.798599803225
 20
129.5451861069476
 30
-0.0000000000891305
 11
5267.798599803225
 21
129.5451861069476
 31
-0.0000000000891305
  0
LINE
  5
285
330
1F
100
AcDbEntity
  8
DEFAULT
100
AcDbLine
 10
5267.798599803225
 20
129.5451861069476
 30
-0.0000000000891305
 11
5267.798599803225
 21
117.0451861069476
 31
-0.0000000000891305
  0
LINE
  5
286
330
1F
100
AcDbEntity
  8
DEFAULT
100
AcDbLine
 10
5267.798599803225
 20
117.0451861069476
 30
-0.0000000000891305
 11
5262.298599803225
 21
117.0451861069476
 31
-0.0000000000891305
  0
LINE
  5
287
330
1F
100
AcDbEntity
  8
DEFAULT
100
AcDbLine
 10
5262.298599803225
 20
117.0451861069476
 30
-0.0000000000891305
 11
5262.298599803225
 21
105.0451861069476
 31
-0.0000000000891305
  0
LINE
  5
288
330
1F
100
AcDbEntity
  8
DEFAULT
100
AcDbLine
 10
5262.298599803225
 20
105.0451861069476
 30
-0.0000000000891305
 11
5267.798599803225
 21
105.0451861069476
 31
-0.0000000000891305
  0
LINE
  5
289
330
1F
100
AcDbEntity
  8
DEFAULT
100
AcDbLine
 10
5267.798599803225
 20
105.0451861069476
 30
-0.0000000000891305
 11
5267.798599803225
 21
93.04518610694763
 31
-0.0000000000891305
  0
LINE
  5
28A
330
1F
100
AcDbEntity
  8
DEFAULT
100
AcDbLine
 10
5267.798599803225
 20
93.04518610694763
 30
-0.0000000000891305
 11
5262.298599803225
 21
93.04518610694763
 31
-0.0000000000891305
  0
LINE
  5
28B
330
1F
100
AcDbEntity
  8
DEFAULT
100
AcDbLine
 10
5262.298599803225
 20
93.04518610694763
 30
-0.0000000000891305
 11
5262.298599803225
 21
81.04518610694763
 31
-0.0000000000891305
  0
LINE
  5
28C
330
1F
100
AcDbEntity
  8
DEFAULT
100
AcDbLine
 10
5262.298599803225
 20
81.04518610694763
 30
-0.0000000000891305
 11
5267.798599803225
 21
81.04518610694763
 31
-0.0000000000891305
  0
LINE
  5
28D
330
1F
100
AcDbEntity
  8
DEFAULT
100
AcDbLine
 10
5267.798599803225
 20
81.04518610694763
 30
-0.0000000000891305
 11
5267.798599803225
 21
69.04518610694763
 31
-0.0000000000891305
  0
LINE
  5
28E
330
1F
100
AcDbEntity
  8
DEFAULT
100
AcDbLine
 10
5267.798599803225
 20
69.04518610694763
 30
-0.0000000000891305
 11
5262.298599803225
 21
69.04518610694763
 31
-0.0000000000891305
  0
LINE
  5
28F
330
1F
100
AcDbEntity
  8
DEFAULT
100
AcDbLine
 10
5262.298599803225
 20
69.04518610694763
 30
-0.0000000000891305
 11
5262.298599803225
 21
57.04518610694763
 31
-0.0000000000891305
  0
LINE
  5
290
330
1F
100
AcDbEntity
  8
DEFAULT
100
AcDbLine
 10
5262.298599803225
 20
57.04518610694763
 30
-0.0000000000891305
 11
5267.798599803225
 21
57.04518610694763
 31
-0.0000000000891305
  0
LINE
  5
291
330
1F
100
AcDbEntity
  8
DEFAULT
100
AcDbLine
 10
5267.798599803225
 20
57.04518610694763
 30
-0.0000000000891305
 11
5267.798599803225
 21
45.04518610694763
 31
-0.0000000000891305
  0
LINE
  5
292
330
1F
100
AcDbEntity
  8
DEFAULT
100
AcDbLine
 10
5267.798599803225
 20
45.04518610694763
 30
-0.0000000000891305
 11
5262.298599803225
 21
45.04518610694763
 31
-0.0000000000891305
  0
LINE
  5
293
330
1F
100
AcDbEntity
  8
DEFAULT
100
AcDbLine
 10
5262.298599803225
 20
45.04518610694763
 30
-0.0000000000891305
 11
5262.298599803225
 21
33.04518610694763
 31
-0.0000000000891305
  0
LINE
  5
294
330
1F
100
AcDbEntity
  8
DEFAULT
100
AcDbLine
 10
5262.298599803225
 20
33.04518610694763
 30
-0.0000000000891305
 11
5267.798599803225
 21
33.04518610694763
 31
-0.0000000000891305
  0
LINE
  5
295
330
1F
100
AcDbEntity
  8
DEFAULT
100
AcDbLine
 10
5267.798599803225
 20
33.04518610694763
 30
-0.0000000000891305
 11
5267.798599803225
 21
21.04518610694763
 31
-0.0000000000891305
  0
LINE
  5
296
330
1F
100
AcDbEntity
  8
DEFAULT
100
AcDbLine
 10
5267.798599803225
 20
21.04518610694763
 30
-0.0000000000891305
 11
5262.298599803225
 21
21.04518610694763
 31
-0.0000000000891305
  0
LINE
  5
297
330
1F
100
AcDbEntity
  8
DEFAULT
100
AcDbLine
 10
5262.298599803225
 20
21.04518610694763
 30
-0.0000000000891305
 11
5262.298599803225
 21
9.045186106947625
 31
-0.0000000000891305
  0
LINE
  5
298
330
1F
100
AcDbEntity
  8
DEFAULT
100
AcDbLine
 10
5262.298599803225
 20
9.045186106947625
 30
-0.0000000000891305
 11
5267.798599803225
 21
9.045186106947625
 31
-0.0000000000891305
  0
LINE
  5
299
330
1F
100
AcDbEntity
  8
DEFAULT
100
AcDbLine
 10
5267.798599803225
 20
9.045186106947625
 30
-0.0000000000891305
 11
5267.798599803225
 21
-5.454813893052375
 31
-0.0000000000891305
  0
LINE
  5
29A
330
1F
100
AcDbEntity
  8
DEFAULT
100
AcDbLine
 10
5267.798599803225
 20
-5.454813893052375
 30
-0.0000000000891305
 11
5423.298599803225
 21
-5.454813893052375
 31
-0.0000000000891305
  0
LINE
  5
29B
330
1F
100
AcDbEntity
  8
DEFAULT
100
AcDbLine
 10
5423.298599803225
 20
-5.454813893052375
 30
-0.0000000000891305
 11
5423.298599803225
 21
8.045186106947625
 31
-0.0000000000891305
  0
LINE
  5
29C
330
1F
100
AcDbEntity
  8
DEFAULT
100
AcDbLine
 10
5423.298599803225
 20
8.045186106947625
 30
-0.0000000000891305
 11
5428.798599803225
 21
8.045186106947625
 31
-0.0000000000891305
  0
LINE
  5
29D
330
1F
100
AcDbEntity
  8
DEFAULT
100
AcDbLine
 10
5428.798599803225
 20
8.045186106947625
 30
-0.0000000000891305
 11
5428.798599803225
 21
20.04518610694763
 31
-0.0000000000891305
  0
LINE
  5
29E
330
1F
100
AcDbEntity
  8
DEFAULT
100
AcDbLine
 10
5428.798599803225
 20
20.04518610694763
 30
-0.0000000000891305
 11
5423.298599803225
 21
20.04518610694763
 31
-0.0000000000891305
  0
LINE
  5
29F
330
1F
100
AcDbEntity
  8
DEFAULT
100
AcDbLine
 10
5423.298599803225
 20
20.04518610694763
 30
-0.0000000000891305
 11
5423.298599803225
 21
32.04518610694763
 31
-0.0000000000891305
  0
LINE
  5
2A0
330
1F
100
AcDbEntity
  8
DEFAULT
100
AcDbLine
 10
5423.298599803225
 20
32.04518610694763
 30
-0.0000000000891305
 11
5428.798599803225
 21
32.04518610694763
 31
-0.0000000000891305
  0
LINE
  5
2A1
330
1F
100
AcDbEntity
  8
DEFAULT
100
AcDbLine
 10
5428.798599803225
 20
32.04518610694763
 30
-0.0000000000891305
 11
5428.798599803225
 21
44.04518610694763
 31
-0.0000000000891305
  0
LINE
  5
2A2
330
1F
100
AcDbEntity
  8
DEFAULT
100
AcDbLine
 10
5428.798599803225
 20
44.04518610694763
 30
-0.0000000000891305
 11
5423.298599803225
 21
44.04518610694763
 31
-0.0000000000891305
  0
LINE
  5
2A3
330
1F
100
AcDbEntity
  8
DEFAULT
100
AcDbLine
 10
5423.298599803225
 20
44.04518610694763
 30
-0.0000000000891305
 11
5423.298599803225
 21
56.04518610694763
 31
-0.0000000000891305
  0
LINE
  5
2A4
330
1F
100
AcDbEntity
  8
DEFAULT
100
AcDbLine
 10
5423.298599803225
 20
56.04518610694763
 30
-0.0000000000891305
 11
5428.798599803225
 21
56.04518610694763
 31
-0.0000000000891305
  0
LINE
  5
2A5
330
1F
100
AcDbEntity
  8
DEFAULT
100
AcDbLine
 10
5428.798599803225
 20
56.04518610694763
 30
-0.0000000000891305
 11
5428.798599803225
 21
68.04518610694763
 31
-0.0000000000891305
  0
LINE
  5
2A6
330
1F
100
AcDbEntity
  8
DEFAULT
100
AcDbLine
 10
5428.798599803225
 20
68.04518610694763
 30
-0.0000000000891305
 11
5423.298599803225
 21
68.04518610694763
 31
-0.0000000000891305
  0
LINE
  5
2A7
330
1F
100
AcDbEntity
  8
DEFAULT
100
AcDbLine
 10
5423.298599803225
 20
68.04518610694763
 30
-0.0000000000891305
 11
5423.298599803225
 21
80.04518610694763
 31
-0.0000000000891305
  0
LINE
  5
2A8
330
1F
100
AcDbEntity
  8
DEFAULT
100
AcDbLine
 10
5423.298599803225
 20
80.04518610694763
 30
-0.0000000000891305
 11
5428.798599803225
 21
80.04518610694763
 31
-0.0000000000891305
  0
LINE
  5
2A9
330
1F
100
AcDbEntity
  8
DEFAULT
100
AcDbLine
 10
5428.798599803225
 20
80.04518610694763
 30
-0.0000000000891305
 11
5428.798599803225
 21
92.04518610694763
 31
-0.0000000000891305
  0
LINE
  5
2AA
330
1F
100
AcDbEntity
  8
DEFAULT
100
AcDbLine
 10
5428.798599803225
 20
92.04518610694763
 30
-0.0000000000891305
 11
5423.298599803225
 21
92.04518610694763
 31
-0.0000000000891305
  0
LINE
  5
2AB
330
1F
100
AcDbEntity
  8
DEFAULT
100
AcDbLine
 10
5423.298599803225
 20
92.04518610694763
 30
-0.0000000000891305
 11
5423.298599803225
 21
104.0451861069476
 31
-0.0000000000891305
  0
LINE
  5
2AC
330
1F
100
AcDbEntity
  8
DEFAULT
100
AcDbLine
 10
5423.298599803225
 20
104.0451861069476
 30
-0.0000000000891305
 11
5428.798599803225
 21
104.0451861069476
 31
-0.0000000000891305
  0
LINE
  5
2AD
330
1F
100
AcDbEntity
  8
DEFAULT
100
AcDbLine
 10
5428.798599803225
 20
104.0451861069476
 30
-0.0000000000891305
 11
5428.798599803225
 21
116.0451861069476
 31
-0.0000000000891305
  0
LINE
  5
2AE
330
1F
100
AcDbEntity
  8
DEFAULT
100
AcDbLine
 10
5428.798599803225
 20
116.0451861069476
 30
-0.0000000000891305
 11
5423.298599803225
 21
116.0451861069476
 31
-0.0000000000891305
  0
LINE
  5
2AF
330
1F
100
AcDbEntity
  8
DEFAULT
100
AcDbLine
 10
5423.298599803225
 20
116.0451861069476
 30
-0.0000000000891305
 11
5423.298599803225
 21
129.5451861069476
 31
-0.0000000000891305
  0
LINE
  5
2B0
330
1F
100
AcDbEntity
  8
DEFAULT
100
AcDbLine
 10
5423.298599803225
 20
129.5451861069476
 30
-0.0000000000891305
 11
5411.298599803225
 21
129.5451861069476
 31
-0.0000000000891305
  0
LINE
  5
2B1
330
1F
100
AcDbEntity
  8
DEFAULT
100
AcDbLine
 10
5411.298599803225
 20
129.5451861069476
 30
-0.0000000000891305
 11
5411.298599803225
 21
135.0451861069476
 31
-0.0000000000891305
  0
LINE
  5
2B2
330
1F
100
AcDbEntity
  8
DEFAULT
100
AcDbLine
 10
5411.298599803225
 20
135.0451861069476
 30
-0.0000000000891305
 11
5423.298599803225
 21
135.0451861069476
 31
-0.0000000000891305
  0
LINE
  5
2B3
330
1F
100
AcDbEntity
  8
DEFAULT
100
AcDbLine
 10
5423.298599803225
 20
135.0451861069476
 30
-0.0000000000891305
 11
5423.298599803225
 21
141.5451861069476
 31
-0.0000000000891305
  0
LINE
  5
2B4
330
1F
100
AcDbEntity
  8
DEFAULT
100
AcDbLine
 10
5423.298599803225
 20
141.5451861069476
 30
-0.0000000000891305
 11
5428.798599803225
 21
141.5451861069476
 31
-0.0000000000891305
  0
LINE
  5
2B5
330
1F
100
AcDbEntity
  8
DEFAULT
100
AcDbLine
 10
5428.798599803225
 20
141.5451861069476
 30
-0.0000000000891305
 11
5428.798599803225
 21
153.5451861069476
 31
-0.0000000000891305
  0
LINE
  5
2B6
330
1F
100
AcDbEntity
  8
DEFAULT
100
AcDbLine
 10
5428.798599803225
 20
153.5451861069476
 30
-0.0000000000891305
 11
5423.298599803225
 21
153.5451861069476
 31
-0.0000000000891305
  0
LINE
  5
2B7
330
1F
100
AcDbEntity
  8
DEFAULT
100
AcDbLine
 10
5423.298599803225
 20
153.5451861069476
 30
-0.0000000000891305
 11
5423.298599803225
 21
160.0451861069476
 31
-0.0000000000891305
  0
LINE
  5
2B8
330
1F
100
AcDbEntity
  8
DEFAULT
100
AcDbLine
 10
5423.298599803225
 20
160.0451861069476
 30
-0.0000000000891305
 11
5267.798599803225
 21
160.0451861069476
 31
-0.0000000000891305
  0
LINE
  5
2B9
330
1F
100
AcDbEntity
  8
DEFAULT
100
AcDbLine
 10
5267.798599803225
 20
160.0451861069476
 30
-0.0000000000891305
 11
5267.798599803225
 21
153.5451861069476
 31
-0.0000000000891305
  0
LINE
  5
2BA
330
1F
100
AcDbEntity
  8
DEFAULT
100
AcDbLine
 10
5267.798599803225
 20
153.5451861069476
 30
-0.0000000000891305
 11
5262.298599803225
 21
153.5451861069476
 31
-0.0000000000891305
  0
LINE
  5
2BB
330
1F
100
AcDbEntity
  8
DEFAULT
100
AcDbLine
 10
5262.298599803225
 20
153.5451861069476
 30
-0.0000000000891305
 11
5262.298599803225
 21
141.5451861069476
 31
-0.0000000000891305
  0
LINE
  5
2BC
330
1F
100
AcDbEntity
  8
DEFAULT
100
AcDbLine
 10
5262.298599803225
 20
141.5451861069476
 30
-0.0000000000891305
 11
5267.798599803225
 21
141.5451861069476
 31
-0.0000000000891305
  0
LINE
  5
2BD
330
1F
100
AcDbEntity
  8
DEFAULT
100
AcDbLine
 10
5267.798599803225
 20
141.5451861069476
 30
-0.0000000000891305
 11
5267.798599803225
 21
135.0451861069476
 31
-0.0000000000891305
  0
LINE
  5
2BE
330
1F
100
AcDbEntity
  8
DEFAULT
100
AcDbLine
 10
5267.798599803225
 20
135.0451861069476
 30
-0.0000000000891305
 11
5279.798599803225
 21
135.0451861069476
 31
-0.0000000000891305
  0
LINE
  5
2BF
330
1F
100
AcDbEntity
  8
DEFAULT
100
AcDbLine
 10
5279.798599803225
 20
135.0451861069476
 30
-0.0000000000891305
 11
5279.798599803225
 21
129.5451861069476
 31
-0.0000000000891305
  0
LINE
  5
2C0
330
1F
100
AcDbEntity
  8
DEFAULT
100
AcDbLine
 10
5512.398599803225
 20
105.0451861069476
 30
-0.0000000000891305
 11
5512.398599803225
 21
117.0451861069476
 31
-0.0000000000891305
  0
LINE
  5
2C1
330
1F
100
AcDbEntity
  8
DEFAULT
100
AcDbLine
 10
5512.398599803225
 20
117.0451861069476
 30
-0.0000000000891305
 11
5517.698599803225
 21
117.0451861069476
 31
-0.0000000000891305
  0
LINE
  5
2C2
330
1F
100
AcDbEntity
  8
DEFAULT
100
AcDbLine
 10
5517.698599803225
 20
117.0451861069476
 30
-0.0000000000891305
 11
5517.698599803225
 21
105.0451861069476
 31
-0.0000000000891305
  0
LINE
  5
2C3
330
1F
100
AcDbEntity
  8
DEFAULT
100
AcDbLine
 10
5517.698599803225
 20
105.0451861069476
 30
-0.0000000000891305
 11
5512.398599803225
 21
105.0451861069476
 31
-0.0000000000891305
  0
LINE
  5
2C4
330
1F
100
AcDbEntity
  8
DEFAULT
100
AcDbLine
 10
5512.398599803225
 20
93.04518610694763
 30
-0.0000000000891305
 11
5517.698599803225
 21
93.04518610694763
 31
-0.0000000000891305
  0
LINE
  5
2C5
330
1F
100
AcDbEntity
  8
DEFAULT
100
AcDbLine
 10
5517.698599803225
 20
93.04518610694763
 30
-0.0000000000891305
 11
5517.698599803225
 21
81.04518610694763
 31
-0.0000000000891305
  0
LINE
  5
2C6
330
1F
100
AcDbEntity
  8
DEFAULT
100
AcDbLine
 10
5517.698599803225
 20
81.04518610694763
 30
-0.0000000000891305
 11
5512.398599803225
 21
81.04518610694763
 31
-0.0000000000891305
  0
LINE
  5
2C7
330
1F
100
AcDbEntity
  8
DEFAULT
100
AcDbLine
 10
5512.398599803225
 20
81.04518610694763
 30
-0.0000000000891305
 11
5512.398599803225
 21
93.04518610694763
 31
-0.0000000000891305
  0
LINE
  5
2C8
330
1F
100
AcDbEntity
  8
DEFAULT
100
AcDbLine
 10
5342.898599803225
 20
105.0451861069476
 30
-0.0000000000891305
 11
5342.898599803225
 21
117.0451861069476
 31
-0.0000000000891305
  0
LINE
  5
2C9
330
1F
100
AcDbEntity
  8
DEFAULT
100
AcDbLine
 10
5342.898599803225
 20
117.0451861069476
 30
-0.0000000000891305
 11
5348.198599803225
 21
117.0451861069476
 31
-0.0000000000891305
  0
LINE
  5
2CA
330
1F
100
AcDbEntity
  8
DEFAULT
100
AcDbLine
 10
5348.198599803225
 20
117.0451861069476
 30
-0.0000000000891305
 11
5348.198599803225
 21
105.0451861069476
 31
-0.0000000000891305
  0
LINE
  5
2CB
330
1F
100
AcDbEntity
  8
DEFAULT
100
AcDbLine
 10
5348.198599803225
 20
105.0451861069476
 30
-0.0000000000891305
 11
5342.898599803225
 21
105.0451861069476
 31
-0.0000000000891305
  0
LINE
  5
2CC
330
1F
100
AcDbEntity
  8
DEFAULT
100
AcDbLine
 10
5477.192295945994
 20
128.4167585022736
 30
-0.0000000000891305
 11
5486.595576226241
 21
120.9616716502554
 31
-0.0000000000891305
  0
LINE
  5
2CD
330
1F
100
AcDbEntity
  8
DEFAULT
100
AcDbLine
 10
5486.595576226241
 20
120.9616716502554
 30
-0.0000000001006697
 11
5483.178661419067
 21
116.6518348551425
 31
-0.0000000000775913
  0
LINE
  5
2CE
330
1F
100
AcDbEntity
  8
DEFAULT
100
AcDbLine
 10
5483.178661419067
 20
116.6518348551425
 30
-0.0000000000775913
 11
5473.77538113882
 21
124.1069217071607
 31
-0.0000000000949001
  0
LINE
  5
2CF
330
1F
100
AcDbEntity
  8
DEFAULT
100
AcDbLine
 10
5473.77538113882
 20
124.1069217071607
 30
-0.0000000000949001
 11
5477.192295945994
 21
128.4167585022736
 31
-0.0000000000891305
  0
LINE
  5
2D0
330
1F
100
AcDbEntity
  8
DEFAULT
100
AcDbLine
 10
5512.398599803225
 20
45.04518610694763
 30
-0.0000000000891305
 11
5517.698599803225
 21
45.04518610694763
 31
-0.0000000000891305
  0
LINE
  5
2D1
330
1F
100
AcDbEntity
  8
DEFAULT
100
AcDbLine
 10
5517.698599803225
 20
45.04518610694763
 30
-0.0000000000891305
 11
5517.698599803225
 21
33.04518610694763
 31
-0.0000000000891305
  0
LINE
  5
2D2
330
1F
100
AcDbEntity
  8
DEFAULT
100
AcDbLine
 10
5517.698599803225
 20
33.04518610694763
 30
-0.0000000000891305
 11
5512.398599803225
 21
33.04518610694763
 31
-0.0000000000891305
  0
LINE
  5
2D3
330
1F
100
AcDbEntity
  8
DEFAULT
100
AcDbLine
 10
5512.398599803225
 20
33.04518610694763
 30
-0.0000000000891305
 11
5512.398599803225
 21
45.04518610694763
 31
-0.0000000000891305
  0
LINE
  5
2D4
330
1F
100
AcDbEntity
  8
DEFAULT
100
AcDbLine
 10
5521.048599803225
 20
134.9451861069476
 30
-0.0000000000891305
 11
5521.048599803225
 21
129.6451861069476
 31
-0.0000000000891305
  0
LINE
  5
2D5
330
1F
100
AcDbEntity
  8
DEFAULT
100
AcDbLine
 10
5521.048599803225
 20
129.6451861069476
 30
-0.0000000000891305
 11
5509.048599803225
 21
129.6451861069476
 31
-0.0000000000891305
  0
LINE
  5
2D6
330
1F
100
AcDbEntity
  8
DEFAULT
100
AcDbLine
 10
5509.048599803225
 20
129.6451861069476
 30
-0.0000000000891305
 11
5509.048599803225
 21
134.9451861069476
 31
-0.0000000000891305
  0
LINE
  5
2D7
330
1F
100
AcDbEntity
  8
DEFAULT
100
AcDbLine
 10
5509.048599803225
 20
134.9451861069476
 30
-0.0000000000891305
 11
5521.048599803225
 21
134.9451861069476
 31
-0.0000000000891305
  0
LINE
  5
2D8
330
1F
100
AcDbEntity
  8
DEFAULT
100
AcDbLine
 10
5492.581941699312
 20
109.1967480031243
 30
-0.0000000001006697
 11
5501.985221979558
 21
101.7416611511061
 31
-0.0000000000775913
  0
LINE
  5
2D9
330
1F
100
AcDbEntity
  8
DEFAULT
100
AcDbLine
 10
5501.985221979558
 20
101.7416611511061
 30
-0.0000000000775913
 11
5505.402136786734
 21
106.051497946219
 31
-0.0000000000949001
  0
LINE
  5
2DA
330
1F
100
AcDbEntity
  8
DEFAULT
100
AcDbLine
 10
5505.402136786734
 20
106.051497946219
 30
-0.0000000000949001
 11
5495.998856506488
 21
113.5065847982372
 31
-0.0000000000891305
  0
LINE
  5
2DB
330
1F
100
AcDbEntity
  8
DEFAULT
100
AcDbLine
 10
5495.998856506488
 20
113.5065847982372
 30
-0.0000000000891305
 11
5492.581941699312
 21
109.1967480031243
 31
-0.0000000001006697
  0
LINE
  5
2DC
330
1F
100
AcDbEntity
  8
DEFAULT
100
AcDbLine
 10
5348.198599803225
 20
57.04518610694763
 30
-0.0000000000891305
 11
5342.898599803225
 21
57.04518610694763
 31
-0.0000000000891305
  0
LINE
  5
2DD
330
1F
100
AcDbEntity
  8
DEFAULT
100
AcDbLine
 10
5342.898599803225
 20
57.04518610694763
 30
-0.0000000000891305
 11
5342.898599803225
 21
69.04518610694763
 31
-0.0000000000891305
  0
LINE
  5
2DE
330
1F
100
AcDbEntity
  8
DEFAULT
100
AcDbLine
 10
5342.898599803225
 20
69.04518610694763
 30
-0.0000000000891305
 11
5348.198599803225
 21
69.04518610694763
 31
-0.0000000000891305
  0
LINE
  5
2DF
330
1F
100
AcDbEntity
  8
DEFAULT
100
AcDbLine
 10
5348.198599803225
 20
69.04518610694763
 30
-0.0000000000891305
 11
5348.198599803225
 21
57.04518610694763
 31
-0.0000000000891305
  0
LINE
  5
2E0
330
1F
100
AcDbEntity
  8
DEFAULT
100
AcDbLine
 10
5342.898599803225
 20
21.04518610694763
 30
-0.0000000000891305
 11
5348.198599803225
 21
21.04518610694763
 31
-0.0000000000891305
  0
LINE
  5
2E1
330
1F
100
AcDbEntity
  8
DEFAULT
100
AcDbLine
 10
5348.198599803225
 20
21.04518610694763
 30
-0.0000000000891305
 11
5348.198599803225
 21
9.045186106947625
 31
-0.0000000000891305
  0
LINE
  5
2E2
330
1F
100
AcDbEntity
  8
DEFAULT
100
AcDbLine
 10
5348.198599803225
 20
9.045186106947625
 30
-0.0000000000891305
 11
5342.898599803225
 21
9.045186106947625
 31
-0.0000000000891305
  0
LINE
  5
2E3
330
1F
100
AcDbEntity
  8
DEFAULT
100
AcDbLine
 10
5342.898599803225
 20
9.045186106947625
 30
-0.0000000000891305
 11
5342.898599803225
 21
21.04518610694763
 31
-0.0000000000891305
  0
LINE
  5
2E4
330
1F
100
AcDbEntity
  8
DEFAULT
100
AcDbLine
 10
5467.78901566575
 20
135.8718453542918
 30
-0.0000000000891305
 11
5458.385735385503
 21
143.32693220631
 31
-0.0000000000891305
  0
LINE
  5
2E5
330
1F
100
AcDbEntity
  8
DEFAULT
100
AcDbLine
 10
5458.385735385503
 20
143.32693220631
 30
-0.0000000000891305
 11
5454.968820578329
 21
139.0170954111971
 31
-0.0000000000891305
  0
LINE
  5
2E6
330
1F
100
AcDbEntity
  8
DEFAULT
100
AcDbLine
 10
5454.968820578329
 20
139.0170954111971
 30
-0.0000000000891305
 11
5464.372100858574
 21
131.5620085591789
 31
-0.0000000000891305
  0
LINE
  5
2E7
330
1F
100
AcDbEntity
  8
DEFAULT
100
AcDbLine
 10
5464.372100858574
 20
131.5620085591789
 30
-0.0000000000891305
 11
5467.78901566575
 21
135.8718453542918
 31
-0.0000000000891305
  0
LINE
  5
2E8
330
1F
100
AcDbEntity
  8
DEFAULT
100
AcDbLine
 10
5539.598343100543
 20
71.92131374303321
 30
-0.0000000000775913
 11
5530.195062820297
 21
79.37640059505142
 31
-0.0000000001006697
  0
LINE
  5
2E9
330
1F
100
AcDbEntity
  8
DEFAULT
100
AcDbLine
 10
5530.195062820297
 20
79.37640059505142
 30
-0.0000000000891305
 11
5533.611977627471
 21
83.68623739016434
 31
-0.0000000000891305
  0
LINE
  5
2EA
330
1F
100
AcDbEntity
  8
DEFAULT
100
AcDbLine
 10
5533.611977627471
 20
83.68623739016434
 30
-0.0000000000891305
 11
5543.015257907718
 21
76.23115053814612
 31
-0.0000000000949001
  0
LINE
  5
2EB
330
1F
100
AcDbEntity
  8
DEFAULT
100
AcDbLine
 10
5543.015257907718
 20
76.23115053814612
 30
-0.0000000000949001
 11
5539.598343100543
 21
71.92131374303321
 31
-0.0000000000775913
  0
LINE
  5
2EC
330
1F
100
AcDbEntity
  8
DEFAULT
100
AcDbLine
 10
5323.081941699312
 20
109.1967480031243
 30
-0.0000000001006697
 11
5332.485221979558
 21
101.7416611511061
 31
-0.0000000000775913
  0
LINE
  5
2ED
330
1F
100
AcDbEntity
  8
DEFAULT
100
AcDbLine
 10
5332.485221979558
 20
101.7416611511061
 30
-0.0000000000775913
 11
5335.902136786734
 21
106.051497946219
 31
-0.0000000000949001
  0
LINE
  5
2EE
330
1F
100
AcDbEntity
  8
DEFAULT
100
AcDbLine
 10
5335.902136786734
 20
106.051497946219
 30
-0.0000000000949001
 11
5326.498856506488
 21
113.5065847982372
 31
-0.0000000000891305
  0
LINE
  5
2EF
330
1F
100
AcDbEntity
  8
DEFAULT
100
AcDbLine
 10
5326.498856506488
 20
113.5065847982372
 30
-0.0000000000891305
 11
5323.081941699312
 21
109.1967480031243
 31
-0.0000000001006697
  0
LINE
  5
2F0
330
1F
100
AcDbEntity
  8
DEFAULT
100
AcDbLine
 10
5569.048599803225
 20
134.9451861069476
 30
-0.0000000000891305
 11
5569.048599803225
 21
129.6451861069476
 31
-0.0000000000891305
  0
LINE
  5
2F1
330
1F
100
AcDbEntity
  8
DEFAULT
100
AcDbLine
 10
5569.048599803225
 20
129.6451861069476
 30
-0.0000000000891305
 11
5557.048599803225
 21
129.6451861069476
 31
-0.0000000000891305
  0
LINE
  5
2F2
330
1F
100
AcDbEntity
  8
DEFAULT
100
AcDbLine
 10
5557.048599803225
 20
129.6451861069476
 30
-0.0000000000891305
 11
5557.048599803225
 21
134.9451861069476
 31
-0.0000000000891305
  0
LINE
  5
2F3
330
1F
100
AcDbEntity
  8
DEFAULT
100
AcDbLine
 10
5557.048599803225
 20
134.9451861069476
 30
-0.0000000000891305
 11
5569.048599803225
 21
134.9451861069476
 31
-0.0000000000891305
  0
LINE
  5
2F4
330
1F
100
AcDbEntity
  8
DEFAULT
100
AcDbLine
 10
5485.048599803225
 20
134.9451861069476
 30
-0.0000000000891305
 11
5497.048599803225
 21
134.9451861069476
 31
-0.0000000000891305
  0
LINE
  5
2F5
330
1F
100
AcDbEntity
  8
DEFAULT
100
AcDbLine
 10
5497.048599803225
 20
134.9451861069476
 30
-0.0000000000891305
 11
5497.048599803225
 21
129.6451861069476
 31
-0.0000000000891305
  0
LINE
  5
2F6
330
1F
100
AcDbEntity
  8
DEFAULT
100
AcDbLine
 10
5497.048599803225
 20
129.6451861069476
 30
-0.0000000000891305
 11
5485.048599803225
 21
129.6451861069476
 31
-0.0000000000891305
  0
LINE
  5
2F7
330
1F
100
AcDbEntity
  8
DEFAULT
100
AcDbLine
 10
5485.048599803225
 20
129.6451861069476
 30
-0.0000000000891305
 11
5485.048599803225
 21
134.9451861069476
 31
-0.0000000000891305
  0
LINE
  5
2F8
330
1F
100
AcDbEntity
  8
DEFAULT
100
AcDbLine
 10
5375.548599803225
 20
134.9451861069476
 30
-0.0000000000891305
 11
5375.548599803225
 21
129.6451861069476
 31
-0.0000000000891305
  0
LINE
  5
2F9
330
1F
100
AcDbEntity
  8
DEFAULT
100
AcDbLine
 10
5375.548599803225
 20
129.6451861069476
 30
-0.0000000000891305
 11
5363.548599803225
 21
129.6451861069476
 31
-0.0000000000891305
  0
LINE
  5
2FA
330
1F
100
AcDbEntity
  8
DEFAULT
100
AcDbLine
 10
5363.548599803225
 20
129.6451861069476
 30
-0.0000000000891305
 11
5363.548599803225
 21
134.9451861069476
 31
-0.0000000000891305
  0
LINE
  5
2FB
330
1F
100
AcDbEntity
  8
DEFAULT
100
AcDbLine
 10
5363.548599803225
 20
134.9451861069476
 30
-0.0000000000891305
 11
5375.548599803225
 21
134.9451861069476
 31
-0.0000000000891305
  0
ENDSEC
  0
SECTION
  2
OBJECTS
  0
DICTIONARY
  5
C
330
0
100
AcDbDictionary
281
     1
  3
ACAD_DETAILVIEWSTYLE
350
3FB
  3
ACAD_GROUP
350
D
  3
ACAD_IMAGE_VARS
350
3F5
  3
ACAD_LAYOUT
350
1A
  3
ACAD_MATERIAL
350
43
  3
ACAD_MLEADERSTYLE
350
6B
  3
ACAD_MLINESTYLE
350
17
  3
ACAD_PLOTSETTINGS
350
19
  3
ACAD_SCALELIST
350
47
  3
ACAD_SECTIONVIEWSTYLE
350
3FC
  3
ACAD_TABLESTYLE
350
3ED
  3
ACAD_VISUALSTYLE
350
2A
  3
ACDB_RECOMPOSE_DATA
350
3FF
  3
ACDBVARIABLEDICTIONARY
350
3DB
  3
APPDATA
350
3F3
  0
SUN
  5
3F4
330
29
100
AcDbSun
 90
        1
290
     0
 63
     7
421
 16777215
 40
1.0
291
     1
 91
  2455826
 92
 54000000
292
     0
 70
     2
 71
   256
280
     1
  0
DICTIONARY
  5
3FB
102
{ACAD_REACTORS
330
C
102
}
330
C
100
AcDbDictionary
281
     1
  0
DICTIONARY
  5
D
102
{ACAD_REACTORS
330
C
102
}
330
C
100
AcDbDictionary
281
     1
  0
RASTERVARIABLES
  5
3F5
102
{ACAD_REACTORS
330
C
102
}
330
C
100
AcDbRasterVariables
 90
        0
 70
     1
 71
     1
 72
     1
  0
DICTIONARY
  5
1A
102
{ACAD_REACTORS
330
C
102
}
330
C
100
AcDbDictionary
281
     1
  3
Model
350
3EE
  3
Sheet 1
350
3EF
  0
DICTIONARY
  5
43
102
{ACAD_REACTORS
330
C
102
}
330
C
100
AcDbDictionary
281
     1
  3
BYBLOCK
350
45
  3
BYLAYER
350
44
  3
GLOBAL
350
46
  0
DICTIONARY
  5
6B
102
{ACAD_REACTORS
330
C
102
}
330
C
100
AcDbDictionary
281
     1
  3
STANDARD
350
6C
  0
DICTIONARY
  5
17
102
{ACAD_REACTORS
330
C
102
}
330
C
100
AcDbDictionary
281
     1
  3
STANDARD
350
18
  0
DICTIONARY
  5
19
102
{ACAD_REACTORS
330
C
102
}
330
C
100
AcDbDictionary
281
     1
  0
DICTIONARY
  5
47
102
{ACAD_REACTORS
330
C
102
}
330
C
100
AcDbDictionary
281
     1
  3
A0
350
48
  3
A1
350
49
  3
A2
350
4A
  3
A3
350
4B
  3
A4
350
4C
  3
A5
350
4D
  3
A6
350
4E
  3
A7
350
4F
  3
A8
350
50
  3
A9
350
51
  3
B0
350
52
  3
B1
350
53
  3
B2
350
54
  3
B3
350
55
  3
B4
350
56
  3
B5
350
57
  3
B6
350
58
  3
B7
350
59
  3
B8
350
5A
  3
B9
350
5B
  3
C0
350
5C
  3
C1
350
5D
  3
C2
350
5E
  3
C3
350
5F
  3
C4
350
60
  3
C5
350
61
  3
C6
350
62
  3
C7
350
63
  3
C8
350
64
  3
C9
350
65
  3
D0
350
66
  3
D1
350
67
  3
D2
350
68
  0
DICTIONARY
  5
3FC
102
{ACAD_REACTORS
330
C
102
}
330
C
100
AcDbDictionary
281
     1
  0
DICTIONARY
  5
3ED
102
{ACAD_REACTORS
330
C
102
}
330
C
100
AcDbDictionary
281
     1
  3
Standard
350
3F2
  0
DICTIONARY
  5
2A
102
{ACAD_REACTORS
330
C
102
}
330
C
100
AcDbDictionary
281
     1
  3
2DWIREFRAME
350
2F
  3
BASIC
350
32
  3
BRIGHTEN
350
36
  3
COLORCHANGE
350
3A
  3
CONCEPTUAL
350
34
  3
DIM
350
35
  3
EDGECOLOROFF
350
3D
  3
FACEPATTERN
350
39
  3
FLAT
350
2B
  3
FLATWITHEDGES
350
2C
  3
GOURAUD
350
2D
  3
GOURAUDWITHEDGES
350
2E
  3
HIDDEN
350
31
  3
JITTEROFF
350
3B
  3
LINEPATTERN
350
38
  3
OVERHANGOFF
350
3C
  3
REALISTIC
350
33
  3
SHADED
350
42
  3
Shaded with edges
350
3F1
  3
SHADED_WITH_EDGES
350
41
  3
Shades of Gray
350
3F0
  3
SHADES_OF_GRAY
350
3E
  3
SKETCHY
350
3F
  3
THICKEN
350
37
  3
WIREFRAME
350
30
  3
X-RAY
350
40
  0
XRECORD
  5
3FF
102
{ACAD_REACTORS
330
C
102
}
330
C
100
AcDbXrecord
280
     1
 90
        1
330
3F2
  0
DICTIONARY
  5
3DB
102
{ACAD_REACTORS
330
C
102
}
330
C
100
AcDbDictionary
281
     1
  3
CANNOSCALE
350
3F6
  3
CMLEADERSTYLE
350
3DD
  3
CTABLESTYLE
350
3FA
  3
DIMASSOC
350
3E0
  3
HIDETEXT
350
3E1
  3
MSLTSCALE
350
3E5
  0
DICTIONARY
  5
3F3
102
{ACAD_REACTORS
330
C
102
}
330
C
100
AcDbDictionary
281
     1
  0
LAYOUT
  5
3EE
102
{ACAD_REACTORS
330
1A
102
}
330
1A
100
AcDbPlotSettings
  1

  2
none_device
  4
Letter_(8.50_x_11.00_Inches)
  6

 40
6.35
 41
6.35
 42
6.35
 43
6.35
 44
215.9
 45
279.4
 46
0.0
 47
0.0
 48
0.0
 49
0.0
140
0.0
141
0.0
142
1.0
143
52.27183873280011
 70
  1712
 72
     0
 73
     0
 74
     0
  7

 75
     0
 76
     0
 77
     2
 78
   300
147
0.0191307599702344
148
-133577.0404350019
149
4582.87617870526
100
AcDbLayout
  1
Model
 70
     1
 71
     0
 10
0.0
 20
0.0
 11
12.0
 21
9.0
 12
0.0
 22
0.0
 32
0.0
 14
5262.298599803225
 24
-5.454813893052375
 34
-0.0000000001006697
 15
5598.298599803225
 25
160.0451861069476
 35
-0.0000000000775913
146
0.0
 13
0.0
 23
0.0
 33
0.0
 16
1.0
 26
0.0
 36
0.0
 17
0.0
 27
1.0
 37
0.0
 76
     0
330
1F
331
29
  0
LAYOUT
  5
3EF
102
{ACAD_REACTORS
330
1A
102
}
330
1A
100
AcDbPlotSettings
  1

  2
none_device
  4

  6

 40
0.0
 41
0.0
 42
0.0
 43
0.0
 44
0.0
 45
0.0
 46
0.0
 47
0.0
 48
0.0
 49
0.0
140
0.0
141
0.0
142
1.0
143
1.0
 70
   688
 72
     0
 73
     0
 74
     5
  7

 75
    16
 76
     0
 77
     2
 78
   300
147
1.0
148
0.0
149
0.0
100
AcDbLayout
  1
Sheet 1
 70
     1
 71
     1
 10
0.0
 20
0.0
 11
0.0
 21
0.0
 12
0.0
 22
0.0
 32
0.0
 14
1.000000000000000E+20
 24
1.000000000000000E+20
 34
1.000000000000000E+20
 15
-1.000000000000000E+20
 25
-1.000000000000000E+20
 35
-1.000000000000000E+20
146
0.0
 13
0.0
 23
0.0
 33
0.0
 16
1.0
 26
0.0
 36
0.0
 17
0.0
 27
1.0
 37
0.0
 76
     0
330
1B
  0
MATERIAL
  5
45
102
{ACAD_REACTORS
330
43
102
}
330
43
100
AcDbMaterial
  1
BYBLOCK
 72
     1
 94
      127
  0
MATERIAL
  5
44
102
{ACAD_REACTORS
330
43
102
}
330
43
100
AcDbMaterial
  1
BYLAYER
 72
     1
 94
      127
  0
MATERIAL
  5
46
102
{ACAD_REACTORS
330
43
102
}
330
43
100
AcDbMaterial
  1
GLOBAL
 72
     1
 94
      127
  0
MLEADERSTYLE
  5
6C
102
{ACAD_REACTORS
330
6B
102
}
330
6B
100
AcDbMLeaderStyle
179
     2
170
     2
171
     1
172
     0
 90
        2
 40
0.0
 41
0.0
173
     1
 91
-1056964608
340
14
 92
       -2
290
     1
 42
0.09
291
     1
 43
0.36
  3
Standard
341
0
 44
0.18
300

342
11
174
     1
178
     6
175
     1
176
     0
 93
-1056964608
 45
0.18
292
     0
297
     0
 46
0.18
343
0
 94
-1056964608
 47
1.0
 49
1.0
140
1.0
293
     1
141
0.0
294
     1
177
     0
142
1.0
295
     0
296
     0
143
0.125
271
     0
272
     9
273
     9
298
     0
  0
MLINESTYLE
  5
18
102
{ACAD_REACTORS
330
17
102
}
330
17
100
AcDbMlineStyle
  2
Standard
 70
     0
  3

 62
   256
 51
90.0
 52
90.0
 71
     2
 49
0.5
 62
   256
  6
BYLAYER
 49
-0.5
 62
   256
  6
BYLAYER
  0
SCALE
  5
48
102
{ACAD_REACTORS
330
47
102
}
330
47
100
AcDbScale
 70
     0
300
1:1
140
1.0
141
1.0
290
     1
  0
SCALE
  5
49
102
{ACAD_REACTORS
330
47
102
}
330
47
100
AcDbScale
 70
     0
300
1:2
140
1.0
141
2.0
290
     0
  0
SCALE
  5
4A
102
{ACAD_REACTORS
330
47
102
}
330
47
100
AcDbScale
 70
     0
300
1:4
140
1.0
141
4.0
290
     0
  0
SCALE
  5
4B
102
{ACAD_REACTORS
330
47
102
}
330
47
100
AcDbScale
 70
     0
300
1:5
140
1.0
141
5.0
290
     0
  0
SCALE
  5
4C
102
{ACAD_REACTORS
330
47
102
}
330
47
100
AcDbScale
 70
     0
300
1:8
140
1.0
141
8.0
290
     0
  0
SCALE
  5
4D
102
{ACAD_REACTORS
330
47
102
}
330
47
100
AcDbScale
 70
     0
300
1:10
140
1.0
141
10.0
290
     0
  0
SCALE
  5
4E
102
{ACAD_REACTORS
330
47
102
}
330
47
100
AcDbScale
 70
     0
300
1:16
140
1.0
141
16.0
290
     0
  0
SCALE
  5
4F
102
{ACAD_REACTORS
330
47
102
}
330
47
100
AcDbScale
 70
     0
300
1:20
140
1.0
141
20.0
290
     0
  0
SCALE
  5
50
102
{ACAD_REACTORS
330
47
102
}
330
47
100
AcDbScale
 70
     0
300
1:30
140
1.0
141
30.0
290
     0
  0
SCALE
  5
51
102
{ACAD_REACTORS
330
47
102
}
330
47
100
AcDbScale
 70
     0
300
1:40
140
1.0
141
40.0
290
     0
  0
SCALE
  5
52
102
{ACAD_REACTORS
330
47
102
}
330
47
100
AcDbScale
 70
     0
300
1:50
140
1.0
141
50.0
290
     0
  0
SCALE
  5
53
102
{ACAD_REACTORS
330
47
102
}
330
47
100
AcDbScale
 70
     0
300
1:100
140
1.0
141
100.0
290
     0
  0
SCALE
  5
54
102
{ACAD_REACTORS
330
47
102
}
330
47
100
AcDbScale
 70
     0
300
2:1
140
2.0
141
1.0
290
     0
  0
SCALE
  5
55
102
{ACAD_REACTORS
330
47
102
}
330
47
100
AcDbScale
 70
     0
300
4:1
140
4.0
141
1.0
290
     0
  0
SCALE
  5
56
102
{ACAD_REACTORS
330
47
102
}
330
47
100
AcDbScale
 70
     0
300
8:1
140
8.0
141
1.0
290
     0
  0
SCALE
  5
57
102
{ACAD_REACTORS
330
47
102
}
330
47
100
AcDbScale
 70
     0
300
10:1
140
10.0
141
1.0
290
     0
  0
SCALE
  5
58
102
{ACAD_REACTORS
330
47
102
}
330
47
100
AcDbScale
 70
     0
300
100:1
140
100.0
141
1.0
290
     0
  0
SCALE
  5
59
102
{ACAD_REACTORS
330
47
102
}
330
47
100
AcDbScale
 70
     0
300
1/128" = 1'-0"
140
0.0078125
141
12.0
290
     0
  0
SCALE
  5
5A
102
{ACAD_REACTORS
330
47
102
}
330
47
100
AcDbScale
 70
     0
300
1/64" = 1'-0"
140
0.015625
141
12.0
290
     0
  0
SCALE
  5
5B
102
{ACAD_REACTORS
330
47
102
}
330
47
100
AcDbScale
 70
     0
300
1/32" = 1'-0"
140
0.03125
141
12.0
290
     0
  0
SCALE
  5
5C
102
{ACAD_REACTORS
330
47
102
}
330
47
100
AcDbScale
 70
     0
300
1/16" = 1'-0"
140
0.0625
141
12.0
290
     0
  0
SCALE
  5
5D
102
{ACAD_REACTORS
330
47
102
}
330
47
100
AcDbScale
 70
     0
300
3/32" = 1'-0"
140
0.09375
141
12.0
290
     0
  0
SCALE
  5
5E
102
{ACAD_REACTORS
330
47
102
}
330
47
100
AcDbScale
 70
     0
300
1/8" = 1'-0"
140
0.125
141
12.0
290
     0
  0
SCALE
  5
5F
102
{ACAD_REACTORS
330
47
102
}
330
47
100
AcDbScale
 70
     0
300
3/16" = 1'-0"
140
0.1875
141
12.0
290
     0
  0
SCALE
  5
60
102
{ACAD_REACTORS
330
47
102
}
330
47
100
AcDbScale
 70
     0
300
1/4" = 1'-0"
140
0.25
141
12.0
290
     0
  0
SCALE
  5
61
102
{ACAD_REACTORS
330
47
102
}
330
47
100
AcDbScale
 70
     0
300
3/8" = 1'-0"
140
0.375
141
12.0
290
     0
  0
SCALE
  5
62
102
{ACAD_REACTORS
330
47
102
}
330
47
100
AcDbScale
 70
     0
300
1/2" = 1'-0"
140
0.5
141
12.0
290
     0
  0
SCALE
  5
63
102
{ACAD_REACTORS
330
47
102
}
330
47
100
AcDbScale
 70
     0
300
3/4" = 1'-0"
140
0.75
141
12.0
290
     0
  0
SCALE
  5
64
102
{ACAD_REACTORS
330
47
102
}
330
47
100
AcDbScale
 70
     0
300
1" = 1'-0"
140
1.0
141
12.0
290
     0
  0
SCALE
  5
65
102
{ACAD_REACTORS
330
47
102
}
330
47
100
AcDbScale
 70
     0
300
1-1/2" = 1'-0"
140
1.5
141
12.0
290
     0
  0
SCALE
  5
66
102
{ACAD_REACTORS
330
47
102
}
330
47
100
AcDbScale
 70
     0
300
3" = 1'-0"
140
3.0
141
12.0
290
     0
  0
SCALE
  5
67
102
{ACAD_REACTORS
330
47
102
}
330
47
100
AcDbScale
 70
     0
300
6" = 1'-0"
140
6.0
141
12.0
290
     0
  0
SCALE
  5
68
102
{ACAD_REACTORS
330
47
102
}
330
47
100
AcDbScale
 70
     0
300
1'-0" = 1'-0"
140
12.0
141
12.0
290
     0
  0
TABLESTYLE
  5
3F2
102
{ACAD_REACTORS
330
3ED
102
}
102
{ACAD_XDICTIONARY
360
3FD
102
}
330
3ED
100
AcDbTableStyle
  3
Standard
 70
     0
 71
     0
 40
0.06
 41
0.06
280
     0
281
     0
  7
STANDARD
140
0.18
170
     2
 62
     0
 63
   257
283
     0
 90
        4
 91
        0
  1

274
    -2
284
     1
 64
     0
275
    -2
285
     1
 65
     0
276
    -2
286
     1
 66
     0
277
    -2
287
     1
 67
     0
278
    -2
288
     1
 68
     0
279
    -2
289
     1
 69
     0
  7
STANDARD
140
0.25
170
     5
 62
     0
 63
   257
283
     0
 90
        4
 91
        0
  1

274
    -2
284
     1
 64
     0
275
    -2
285
     1
 65
     0
276
    -2
286
     1
 66
     0
277
    -2
287
     1
 67
     0
278
    -2
288
     1
 68
     0
279
    -2
289
     1
 69
     0
  7
STANDARD
140
0.18
170
     5
 62
     0
 63
   257
283
     0
 90
        4
 91
        0
  1

274
    -2
284
     1
 64
     0
275
    -2
285
     1
 65
     0
276
    -2
286
     1
 66
     0
277
    -2
287
     1
 67
     0
278
    -2
288
     1
 68
     0
279
    -2
289
     1
 69
     0
  0
VISUALSTYLE
  5
2F
102
{ACAD_REACTORS
330
2A
102
}
330
2A
100
AcDbVisualStyle
  2
2dWireframe
 70
     4
177
     3
291
     0
 70
    58
 90
        0
176
     1
 90
        2
176
     1
 90
        0
176
     1
 90
        0
176
     1
 40
0.6
176
     1
 40
30.0
176
     1
 62
     7
176
     1
 90
        1
176
     1
 90
        4
176
     1
 62
     7
176
     1
 62
   257
176
     1
 90
        1
176
     1
 90
        1
176
     1
 40
1.0
176
     1
 90
        0
176
     1
 62
   257
176
     1
 40
1.0
176
     1
 90
        1
176
     1
 90
        6
176
     1
 90
        2
176
     1
 62
     7
176
     1
 90
        5
176
     1
 90
        0
176
     1
 90
        0
176
     1
290
     0
176
     1
 90
        1
176
     1
 40
0.0
176
     1
 90
        0
176
     1
290
     1
176
     1
290
     1
176
     1
290
     0
176
     1
290
     0
176
     1
290
     0
176
     1
290
     0
176
     1
290
     0
176
     1
290
     0
176
     1
290
     0
176
     1
 90
       50
176
     1
 40
0.0
176
     1
 40
1.0
176
     1
 90
        0
176
     1
 62
    18
420
        0
176
     1
 90
       50
176
     1
 90
        3
176
     1
 62
     5
420
      255
176
     1
290
     0
176
     1
 90
       50
176
     1
 90
       50
176
     1
 90
       50
176
     1
290
     0
176
     1
 90
       50
176
     1
 62
   256
176
     0
 40
1.0
176
     0
 90
        2
176
     1
  1
strokes_ogs.tif
176
     1
290
     0
176
     1
 40
1.0
176
     1
 40
1.0
176
     1
  0
VISUALSTYLE
  5
32
102
{ACAD_REACTORS
330
2A
102
}
330
2A
100
AcDbVisualStyle
  2
Basic
 70
     7
177
     3
291
     1
 70
    58
 90
        1
176
     1
 90
        0
176
     1
 90
        1
176
     1
 90
        0
176
     1
 40
0.6
176
     1
 40
30.0
176
     1
 62
     7
176
     1
 90
        0
176
     1
 90
        4
176
     1
 62
     7
176
     1
 62
   257
176
     1
 90
        1
176
     1
 90
        1
176
     1
 40
1.0
176
     1
 90
        8
176
     1
 62
     7
176
     1
 40
1.0
176
     1
 90
        1
176
     1
 90
        6
176
     1
 90
        2
176
     1
 62
     7
176
     1
 90
        5
176
     1
 90
        0
176
     1
 90
        0
176
     1
290
     0
176
     1
 90
        1
176
     1
 40
0.0
176
     1
 90
        0
176
     1
290
     0
176
     1
290
     1
176
     1
290
     1
176
     1
290
     0
176
     1
290
     0
176
     1
290
     0
176
     1
290
     0
176
     1
290
     0
176
     1
290
     0
176
     1
 90
       50
176
     1
 40
0.0
176
     1
 40
1.0
176
     1
 90
        0
176
     1
 62
    18
420
        0
176
     1
 90
       50
176
     1
 90
        3
176
     1
 62
     5
420
      255
176
     1
290
     0
176
     1
 90
       50
176
     1
 90
       50
176
     1
 90
       50
176
     1
290
     0
176
     1
 90
       50
176
     1
 62
   256
176
     0
 40
1.0
176
     0
 90
        2
176
     1
  1
strokes_ogs.tif
176
     1
290
     0
176
     1
 40
1.0
176
     1
 40
1.0
176
     1
  0
VISUALSTYLE
  5
36
102
{ACAD_REACTORS
330
2A
102
}
330
2A
100
AcDbVisualStyle
  2
Brighten
 70
    12
177
     3
291
     1
 70
    58
 90
        2
176
     1
 90
        2
176
     1
 90
        0
176
     1
 90
        0
176
     1
 40
0.6
176
     1
 40
30.0
176
     1
 62
     7
176
     1
 90
        1
176
     1
 90
        4
176
     1
 62
     7
176
     1
 62
   257
176
     1
 90
        1
176
     1
 90
        1
176
     1
 40
1.0
176
     1
 90
        8
176
     1
 62
     7
176
     1
 40
1.0
176
     1
 90
        1
176
     1
 90
        6
176
     1
 90
        2
176
     1
 62
     7
176
     1
 90
        5
176
     1
 90
        0
176
     1
 90
        0
176
     1
290
     0
176
     1
 90
        1
176
     1
 40
50.0
176
     1
 90
        0
176
     1
290
     0
176
     1
290
     1
176
     1
290
     1
176
     1
290
     0
176
     1
290
     0
176
     1
290
     0
176
     1
290
     0
176
     1
290
     0
176
     1
290
     0
176
     1
 90
       50
176
     1
 40
0.0
176
     1
 40
1.0
176
     1
 90
        0
176
     1
 62
    18
420
        0
176
     1
 90
       50
176
     1
 90
        3
176
     1
 62
     5
420
      255
176
     1
290
     0
176
     1
 90
       50
176
     1
 90
       50
176
     1
 90
       50
176
     1
290
     0
176
     1
 90
       50
176
     1
 62
   256
176
     0
 40
1.0
176
     0
 90
        2
176
     1
  1
strokes_ogs.tif
176
     1
290
     0
176
     1
 40
1.0
176
     1
 40
1.0
176
     1
  0
VISUALSTYLE
  5
3A
102
{ACAD_REACTORS
330
2A
102
}
330
2A
100
AcDbVisualStyle
  2
ColorChange
 70
    16
177
     3
291
     1
 70
    58
 90
        2
176
     1
 90
        2
176
     1
 90
        3
176
     1
 90
        0
176
     1
 40
0.6
176
     1
 40
30.0
176
     1
 62
     8
176
     1
 90
        1
176
     1
 90
        4
176
     1
 62
     7
176
     1
 62
   257
176
     1
 90
        1
176
     1
 90
        1
176
     1
 40
1.0
176
     1
 90
        8
176
     1
 62
     8
176
     1
 40
1.0
176
     1
 90
        1
176
     1
 90
        6
176
     1
 90
        2
176
     1
 62
     7
176
     1
 90
        5
176
     1
 90
        0
176
     1
 90
        0
176
     1
290
     0
176
     1
 90
        1
176
     1
 40
0.0
176
     1
 90
        0
176
     1
290
     0
176
     1
290
     1
176
     1
290
     1
176
     1
290
     0
176
     1
290
     0
176
     1
290
     0
176
     1
290
     0
176
     1
290
     0
176
     1
290
     0
176
     1
 90
       50
176
     1
 40
0.0
176
     1
 40
1.0
176
     1
 90
        0
176
     1
 62
    18
420
        0
176
     1
 90
       50
176
     1
 90
        3
176
     1
 62
     5
420
      255
176
     1
290
     0
176
     1
 90
       50
176
     1
 90
       50
176
     1
 90
       50
176
     1
290
     0
176
     1
 90
       50
176
     1
 62
   256
176
     0
 40
1.0
176
     0
 90
        2
176
     1
  1
strokes_ogs.tif
176
     1
290
     0
176
     1
 40
1.0
176
     1
 40
1.0
176
     1
  0
VISUALSTYLE
  5
34
102
{ACAD_REACTORS
330
2A
102
}
330
2A
100
AcDbVisualStyle
  2
Conceptual
 70
     9
177
     3
291
     0
 70
    58
 90
        3
176
     1
 90
        2
176
     1
 90
        0
176
     1
 90
        0
176
     1
 40
0.6
176
     1
 40
30.0
176
     1
 62
     7
176
     1
 90
        2
176
     1
 90
        2
176
     1
 62
     7
176
     1
 62
   257
176
     1
 90
        1
176
     1
 90
        1
176
     1
 40
179.0
176
     1
 90
        8
176
     1
 62
     7
176
     1
 40
1.0
176
     1
 90
        1
176
     1
 90
        6
176
     1
 90
        2
176
     1
 62
     7
176
     1
 90
        3
176
     1
 90
        0
176
     1
 90
        0
176
     1
290
     0
176
     1
 90
        1
176
     1
 40
0.0
176
     1
 90
        0
176
     1
290
     0
176
     1
290
     1
176
     1
290
     1
176
     1
290
     0
176
     1
290
     0
176
     1
290
     0
176
     1
290
     0
176
     1
290
     0
176
     1
290
     0
176
     1
 90
       50
176
     1
 40
0.0
176
     1
 40
1.0
176
     1
 90
        0
176
     1
 62
    18
420
        0
176
     1
 90
       50
176
     1
 90
        3
176
     1
 62
     5
420
      255
176
     1
290
     0
176
     1
 90
       50
176
     1
 90
       50
176
     1
 90
       50
176
     1
290
     0
176
     1
 90
       50
176
     1
 62
   256
176
     0
 40
1.0
176
     0
 90
        2
176
     1
  1
strokes_ogs.tif
176
     1
290
     0
176
     1
 40
1.0
176
     1
 40
1.0
176
     1
  0
VISUALSTYLE
  5
35
102
{ACAD_REACTORS
330
2A
102
}
330
2A
100
AcDbVisualStyle
  2
Dim
 70
    11
177
     3
291
     1
 70
    58
 90
        2
176
     1
 90
        2
176
     1
 90
        0
176
     1
 90
        0
176
     1
 40
0.6
176
     1
 40
30.0
176
     1
 62
     7
176
     1
 90
        1
176
     1
 90
        4
176
     1
 62
     7
176
     1
 62
   257
176
     1
 90
        1
176
     1
 90
        1
176
     1
 40
1.0
176
     1
 90
        8
176
     1
 62
     7
176
     1
 40
1.0
176
     1
 90
        1
176
     1
 90
        6
176
     1
 90
        2
176
     1
 62
     7
176
     1
 90
        5
176
     1
 90
        0
176
     1
 90
        0
176
     1
290
     0
176
     1
 90
        1
176
     1
 40
-50.0
176
     1
 90
        0
176
     1
290
     0
176
     1
290
     1
176
     1
290
     1
176
     1
290
     0
176
     1
290
     0
176
     1
290
     0
176
     1
290
     0
176
     1
290
     0
176
     1
290
     0
176
     1
 90
       50
176
     1
 40
0.0
176
     1
 40
1.0
176
     1
 90
        0
176
     1
 62
    18
420
        0
176
     1
 90
       50
176
     1
 90
        3
176
     1
 62
     5
420
      255
176
     1
290
     0
176
     1
 90
       50
176
     1
 90
       50
176
     1
 90
       50
176
     1
290
     0
176
     1
 90
       50
176
     1
 62
   256
176
     0
 40
1.0
176
     0
 90
        2
176
     1
  1
strokes_ogs.tif
176
     1
290
     0
176
     1
 40
1.0
176
     1
 40
1.0
176
     1
  0
VISUALSTYLE
  5
3D
102
{ACAD_REACTORS
330
2A
102
}
330
2A
100
AcDbVisualStyle
  2
EdgeColorOff
 70
    22
177
     3
291
     1
 70
    58
 90
        2
176
     1
 90
        2
176
     1
 90
        0
176
     1
 90
        0
176
     1
 40
0.6
176
     1
 40
30.0
176
     1
 62
     7
176
     1
 90
        1
176
     1
 90
        4
176
     1
 62
     7
176
     1
 62
   257
176
     1
 90
        1
176
     1
 90
        1
176
     1
 40
1.0
176
     1
 90
        8
176
     1
 62
     7
176
     1
 40
1.0
176
     1
 90
        1
176
     1
 90
        6
176
     1
 90
        2
176
     1
 62
     7
176
     1
 90
        5
176
     1
 90
        0
176
     1
 90
        0
176
     1
290
     0
176
     1
 90
        1
176
     1
 40
0.0
176
     1
 90
        0
176
     1
290
     0
176
     1
290
     1
176
     1
290
     1
176
     1
290
     0
176
     1
290
     0
176
     1
290
     0
176
     1
290
     0
176
     1
290
     0
176
     1
290
     0
176
     1
 90
       50
176
     1
 40
0.0
176
     1
 40
1.0
176
     1
 90
        0
176
     1
 62
    18
420
        0
176
     1
 90
       50
176
     1
 90
        3
176
     1
 62
     5
420
      255
176
     1
290
     0
176
     1
 90
       50
176
     1
 90
       50
176
     1
 90
       50
176
     1
290
     0
176
     1
 90
       50
176
     1
 62
   256
176
     0
 40
1.0
176
     0
 90
        2
176
     1
  1
strokes_ogs.tif
176
     1
290
     0
176
     1
 40
1.0
176
     1
 40
1.0
176
     1
  0
VISUALSTYLE
  5
39
102
{ACAD_REACTORS
330
2A
102
}
330
2A
100
AcDbVisualStyle
  2
Facepattern
 70
    15
177
     3
291
     1
 70
    58
 90
        2
176
     1
 90
        2
176
     1
 90
        0
176
     1
 90
        0
176
     1
 40
0.6
176
     1
 40
30.0
176
     1
 62
     7
176
     1
 90
        1
176
     1
 90
        4
176
     1
 62
     7
176
     1
 62
   257
176
     1
 90
        1
176
     1
 90
        1
176
     1
 40
1.0
176
     1
 90
        8
176
     1
 62
     7
176
     1
 40
1.0
176
     1
 90
        1
176
     1
 90
        6
176
     1
 90
        2
176
     1
 62
     7
176
     1
 90
        5
176
     1
 90
        0
176
     1
 90
        0
176
     1
290
     0
176
     1
 90
        1
176
     1
 40
0.0
176
     1
 90
        0
176
     1
290
     0
176
     1
290
     1
176
     1
290
     1
176
     1
290
     0
176
     1
290
     0
176
     1
290
     0
176
     1
290
     0
176
     1
290
     0
176
     1
290
     0
176
     1
 90
       50
176
     1
 40
0.0
176
     1
 40
1.0
176
     1
 90
        0
176
     1
 62
    18
420
        0
176
     1
 90
       50
176
     1
 90
        3
176
     1
 62
     5
420
      255
176
     1
290
     0
176
     1
 90
       50
176
     1
 90
       50
176
     1
 90
       50
176
     1
290
     0
176
     1
 90
       50
176
     1
 62
   256
176
     0
 40
1.0
176
     0
 90
        2
176
     1
  1
strokes_ogs.tif
176
     1
290
     0
176
     1
 40
1.0
176
     1
 40
1.0
176
     1
  0
VISUALSTYLE
  5
2B
102
{ACAD_REACTORS
330
2A
102
}
330
2A
100
AcDbVisualStyle
  2
Flat
 70
     0
177
     3
291
     1
 70
    58
 90
        2
176
     1
 90
        1
176
     1
 90
        1
176
     1
 90
        2
176
     1
 40
0.6
176
     1
 40
30.0
176
     1
 62
     7
176
     1
 90
        0
176
     1
 90
        0
176
     1
 62
     7
176
     1
 62
   257
176
     1
 90
        1
176
     1
 90
        1
176
     1
 40
1.0
176
     1
 90
        8
176
     1
 62
     7
176
     1
 40
1.0
176
     1
 90
        1
176
     1
 90
        6
176
     1
 90
        2
176
     1
 62
     7
176
     1
 90
        5
176
     1
 90
        0
176
     1
 90
        0
176
     1
290
     0
176
     1
 90
       13
176
     1
 40
0.0
176
     1
 90
        0
176
     1
290
     0
176
     1
290
     1
176
     1
290
     1
176
     1
290
     0
176
     1
290
     0
176
     1
290
     0
176
     1
290
     0
176
     1
290
     0
176
     1
290
     0
176
     1
 90
       50
176
     1
 40
0.0
176
     1
 40
1.0
176
     1
 90
        0
176
     1
 62
    18
420
        0
176
     1
 90
       50
176
     1
 90
        3
176
     1
 62
     5
420
      255
176
     1
290
     0
176
     1
 90
       50
176
     1
 90
       50
176
     1
 90
       50
176
     1
290
     0
176
     1
 90
       50
176
     1
 62
   256
176
     0
 40
1.0
176
     0
 90
        2
176
     1
  1
strokes_ogs.tif
176
     1
290
     0
176
     1
 40
1.0
176
     1
 40
1.0
176
     1
  0
VISUALSTYLE
  5
2C
102
{ACAD_REACTORS
330
2A
102
}
330
2A
100
AcDbVisualStyle
  2
FlatWithEdges
 70
     1
177
     3
291
     1
 70
    58
 90
        2
176
     1
 90
        1
176
     1
 90
        1
176
     1
 90
        2
176
     1
 40
0.6
176
     1
 40
30.0
176
     1
 62
     7
176
     1
 90
        1
176
     1
 90
        0
176
     1
 62
     7
176
     1
 62
   257
176
     1
 90
        1
176
     1
 90
        1
176
     1
 40
1.0
176
     1
 90
        0
176
     1
 62
   257
176
     1
 40
1.0
176
     1
 90
        1
176
     1
 90
        6
176
     1
 90
        2
176
     1
 62
     7
176
     1
 90
        5
176
     1
 90
        0
176
     1
 90
        0
176
     1
290
     0
176
     1
 90
       13
176
     1
 40
0.0
176
     1
 90
        0
176
     1
290
     0
176
     1
290
     1
176
     1
290
     1
176
     1
290
     0
176
     1
290
     0
176
     1
290
     0
176
     1
290
     0
176
     1
290
     0
176
     1
290
     0
176
     1
 90
       50
176
     1
 40
0.0
176
     1
 40
1.0
176
     1
 90
        0
176
     1
 62
    18
420
        0
176
     1
 90
       50
176
     1
 90
        3
176
     1
 62
     5
420
      255
176
     1
290
     0
176
     1
 90
       50
176
     1
 90
       50
176
     1
 90
       50
176
     1
290
     0
176
     1
 90
       50
176
     1
 62
   256
176
     0
 40
1.0
176
     0
 90
        2
176
     1
  1
strokes_ogs.tif
176
     1
290
     0
176
     1
 40
1.0
176
     1
 40
1.0
176
     1
  0
VISUALSTYLE
  5
2D
102
{ACAD_REACTORS
330
2A
102
}
330
2A
100
AcDbVisualStyle
  2
Gouraud
 70
     2
177
     3
291
     1
 70
    58
 90
        2
176
     1
 90
        2
176
     1
 90
        1
176
     1
 90
        2
176
     1
 40
0.6
176
     1
 40
30.0
176
     1
 62
     7
176
     1
 90
        0
176
     1
 90
        0
176
     1
 62
     7
176
     1
 62
   257
176
     1
 90
        1
176
     1
 90
        1
176
     1
 40
1.0
176
     1
 90
        0
176
     1
 62
     7
176
     1
 40
1.0
176
     1
 90
        1
176
     1
 90
        6
176
     1
 90
        2
176
     1
 62
     7
176
     1
 90
        5
176
     1
 90
        0
176
     1
 90
        0
176
     1
290
     0
176
     1
 90
       13
176
     1
 40
0.0
176
     1
 90
        0
176
     1
290
     0
176
     1
290
     1
176
     1
290
     1
176
     1
290
     0
176
     1
290
     0
176
     1
290
     0
176
     1
290
     0
176
     1
290
     0
176
     1
290
     0
176
     1
 90
       50
176
     1
 40
0.0
176
     1
 40
1.0
176
     1
 90
        0
176
     1
 62
    18
420
        0
176
     1
 90
       50
176
     1
 90
        3
176
     1
 62
     5
420
      255
176
     1
290
     0
176
     1
 90
       50
176
     1
 90
       50
176
     1
 90
       50
176
     1
290
     0
176
     1
 90
       50
176
     1
 62
   256
176
     0
 40
1.0
176
     0
 90
        2
176
     1
  1
strokes_ogs.tif
176
     1
290
     0
176
     1
 40
1.0
176
     1
 40
1.0
176
     1
  0
VISUALSTYLE
  5
2E
102
{ACAD_REACTORS
330
2A
102
}
330
2A
100
AcDbVisualStyle
  2
GouraudWithEdges
 70
     3
177
     3
291
     1
 70
    58
 90
        2
176
     1
 90
        2
176
     1
 90
        1
176
     1
 90
        2
176
     1
 40
0.6
176
     1
 40
30.0
176
     1
 62
     7
176
     1
 90
        1
176
     1
 90
        0
176
     1
 62
     7
176
     1
 62
   257
176
     1
 90
        1
176
     1
 90
        1
176
     1
 40
1.0
176
     1
 90
        0
176
     1
 62
   257
176
     1
 40
1.0
176
     1
 90
        1
176
     1
 90
        6
176
     1
 90
        2
176
     1
 62
     7
176
     1
 90
        5
176
     1
 90
        0
176
     1
 90
        0
176
     1
290
     0
176
     1
 90
       13
176
     1
 40
0.0
176
     1
 90
        0
176
     1
290
     0
176
     1
290
     1
176
     1
290
     1
176
     1
290
     0
176
     1
290
     0
176
     1
290
     0
176
     1
290
     0
176
     1
290
     0
176
     1
290
     0
176
     1
 90
       50
176
     1
 40
0.0
176
     1
 40
1.0
176
     1
 90
        0
176
     1
 62
    18
420
        0
176
     1
 90
       50
176
     1
 90
        3
176
     1
 62
     5
420
      255
176
     1
290
     0
176
     1
 90
       50
176
     1
 90
       50
176
     1
 90
       50
176
     1
290
     0
176
     1
 90
       50
176
     1
 62
   256
176
     0
 40
1.0
176
     0
 90
        2
176
     1
  1
strokes_ogs.tif
176
     1
290
     0
176
     1
 40
1.0
176
     1
 40
1.0
176
     1
  0
VISUALSTYLE
  5
31
102
{ACAD_REACTORS
330
2A
102
}
330
2A
100
AcDbVisualStyle
  2
Hidden
 70
     6
177
     3
291
     0
 70
    58
 90
        1
176
     1
 90
        2
176
     1
 90
        2
176
     1
 90
        0
176
     1
 40
0.6
176
     1
 40
30.0
176
     1
 62
     7
176
     1
 90
        2
176
     1
 90
        2
176
     1
 62
     7
176
     1
 62
   257
176
     1
 90
        2
176
     1
 90
        1
176
     1
 40
40.0
176
     1
 90
        0
176
     1
 62
   257
176
     1
 40
1.0
176
     1
 90
        1
176
     1
 90
        6
176
     1
 90
        2
176
     1
 62
     7
176
     1
 90
        3
176
     1
 90
        0
176
     1
 90
        0
176
     1
290
     0
176
     1
 90
        1
176
     1
 40
0.0
176
     1
 90
        0
176
     1
290
     0
176
     1
290
     1
176
     1
290
     1
176
     1
290
     0
176
     1
290
     0
176
     1
290
     0
176
     1
290
     0
176
     1
290
     0
176
     1
290
     0
176
     1
 90
       50
176
     1
 40
0.0
176
     1
 40
1.0
176
     1
 90
        0
176
     1
 62
    18
420
        0
176
     1
 90
       50
176
     1
 90
        3
176
     1
 62
     5
420
      255
176
     1
290
     0
176
     1
 90
       50
176
     1
 90
       50
176
     1
 90
       50
176
     1
290
     0
176
     1
 90
       50
176
     1
 62
   256
176
     0
 40
1.0
176
     0
 90
        2
176
     1
  1
strokes_ogs.tif
176
     1
290
     0
176
     1
 40
1.0
176
     1
 40
1.0
176
     1
  0
VISUALSTYLE
  5
3B
102
{ACAD_REACTORS
330
2A
102
}
330
2A
100
AcDbVisualStyle
  2
JitterOff
 70
    20
177
     3
291
     1
 70
    58
 90
        2
176
     1
 90
        2
176
     1
 90
        0
176
     1
 90
        0
176
     1
 40
0.6
176
     1
 40
30.0
176
     1
 62
     7
176
     1
 90
        1
176
     1
 90
        4
176
     1
 62
     7
176
     1
 62
   257
176
     1
 90
        1
176
     1
 90
        1
176
     1
 40
1.0
176
     1
 90
       10
176
     1
 62
     7
176
     1
 40
1.0
176
     1
 90
        1
176
     1
 90
        6
176
     1
 90
        2
176
     1
 62
     7
176
     1
 90
        5
176
     1
 90
        0
176
     1
 90
        0
176
     1
290
     0
176
     1
 90
        1
176
     1
 40
0.0
176
     1
 90
        0
176
     1
290
     0
176
     1
290
     1
176
     1
290
     1
176
     1
290
     0
176
     1
290
     0
176
     1
290
     0
176
     1
290
     0
176
     1
290
     0
176
     1
290
     0
176
     1
 90
       50
176
     1
 40
0.0
176
     1
 40
1.0
176
     1
 90
        0
176
     1
 62
    18
420
        0
176
     1
 90
       50
176
     1
 90
        3
176
     1
 62
     5
420
      255
176
     1
290
     0
176
     1
 90
       50
176
     1
 90
       50
176
     1
 90
       50
176
     1
290
     0
176
     1
 90
       50
176
     1
 62
   256
176
     0
 40
1.0
176
     0
 90
        2
176
     1
  1
strokes_ogs.tif
176
     1
290
     0
176
     1
 40
1.0
176
     1
 40
1.0
176
     1
  0
VISUALSTYLE
  5
38
102
{ACAD_REACTORS
330
2A
102
}
330
2A
100
AcDbVisualStyle
  2
Linepattern
 70
    14
177
     3
291
     1
 70
    58
 90
        2
176
     1
 90
        2
176
     1
 90
        0
176
     1
 90
        0
176
     1
 40
0.6
176
     1
 40
30.0
176
     1
 62
     7
176
     1
 90
        1
176
     1
 90
        4
176
     1
 62
     7
176
     1
 62
   257
176
     1
 90
        7
176
     1
 90
        7
176
     1
 40
1.0
176
     1
 90
        8
176
     1
 62
     7
176
     1
 40
1.0
176
     1
 90
        1
176
     1
 90
        6
176
     1
 90
        2
176
     1
 62
     7
176
     1
 90
        5
176
     1
 90
        0
176
     1
 90
        0
176
     1
290
     0
176
     1
 90
        1
176
     1
 40
0.0
176
     1
 90
        0
176
     1
290
     0
176
     1
290
     1
176
     1
290
     1
176
     1
290
     0
176
     1
290
     0
176
     1
290
     0
176
     1
290
     0
176
     1
290
     0
176
     1
290
     0
176
     1
 90
       50
176
     1
 40
0.0
176
     1
 40
1.0
176
     1
 90
        0
176
     1
 62
    18
420
        0
176
     1
 90
       50
176
     1
 90
        3
176
     1
 62
     5
420
      255
176
     1
290
     0
176
     1
 90
       50
176
     1
 90
       50
176
     1
 90
       50
176
     1
290
     0
176
     1
 90
       50
176
     1
 62
   256
176
     0
 40
1.0
176
     0
 90
        2
176
     1
  1
strokes_ogs.tif
176
     1
290
     0
176
     1
 40
1.0
176
     1
 40
1.0
176
     1
  0
VISUALSTYLE
  5
3C
102
{ACAD_REACTORS
330
2A
102
}
330
2A
100
AcDbVisualStyle
  2
OverhangOff
 70
    21
177
     3
291
     1
 70
    58
 90
        2
176
     1
 90
        2
176
     1
 90
        0
176
     1
 90
        0
176
     1
 40
0.6
176
     1
 40
30.0
176
     1
 62
     7
176
     1
 90
        1
176
     1
 90
        4
176
     1
 62
     7
176
     1
 62
   257
176
     1
 90
        1
176
     1
 90
        1
176
     1
 40
1.0
176
     1
 90
        9
176
     1
 62
     7
176
     1
 40
1.0
176
     1
 90
        1
176
     1
 90
        6
176
     1
 90
        2
176
     1
 62
     7
176
     1
 90
        5
176
     1
 90
        0
176
     1
 90
        0
176
     1
290
     0
176
     1
 90
        1
176
     1
 40
0.0
176
     1
 90
        0
176
     1
290
     0
176
     1
290
     1
176
     1
290
     1
176
     1
290
     0
176
     1
290
     0
176
     1
290
     0
176
     1
290
     0
176
     1
290
     0
176
     1
290
     0
176
     1
 90
       50
176
     1
 40
0.0
176
     1
 40
1.0
176
     1
 90
        0
176
     1
 62
    18
420
        0
176
     1
 90
       50
176
     1
 90
        3
176
     1
 62
     5
420
      255
176
     1
290
     0
176
     1
 90
       50
176
     1
 90
       50
176
     1
 90
       50
176
     1
290
     0
176
     1
 90
       50
176
     1
 62
   256
176
     0
 40
1.0
176
     0
 90
        2
176
     1
  1
strokes_ogs.tif
176
     1
290
     0
176
     1
 40
1.0
176
     1
 40
1.0
176
     1
  0
VISUALSTYLE
  5
33
102
{ACAD_REACTORS
330
2A
102
}
330
2A
100
AcDbVisualStyle
  2
Realistic
 70
     8
177
     3
291
     0
 70
    58
 90
        2
176
     1
 90
        3
176
     1
 90
        0
176
     1
 90
        2
176
     1
 40
0.6
176
     1
 40
30.0
176
     1
 62
     7
176
     1
 90
        0
176
     1
 90
        0
176
     1
 62
     7
176
     1
 62
   257
176
     1
 90
        1
176
     1
 90
        1
176
     1
 40
1.0
176
     1
 90
        8
176
     1
 62
   257
176
     1
 40
1.0
176
     1
 90
        1
176
     1
 90
        6
176
     1
 90
        2
176
     1
 62
     7
176
     1
 90
        3
176
     1
 90
        0
176
     1
 90
        0
176
     1
290
     0
176
     1
 90
       13
176
     1
 40
0.0
176
     1
 90
        0
176
     1
290
     0
176
     1
290
     1
176
     1
290
     1
176
     1
290
     0
176
     1
290
     0
176
     1
290
     0
176
     1
290
     0
176
     1
290
     0
176
     1
290
     0
176
     1
 90
       50
176
     1
 40
0.0
176
     1
 40
1.0
176
     1
 90
        0
176
     1
 62
    18
420
        0
176
     1
 90
       50
176
     1
 90
        3
176
     1
 62
     5
420
      255
176
     1
290
     0
176
     1
 90
       50
176
     1
 90
       50
176
     1
 90
       50
176
     1
290
     0
176
     1
 90
       50
176
     1
 62
   256
176
     0
 40
1.0
176
     0
 90
        2
176
     1
  1
strokes_ogs.tif
176
     1
290
     0
176
     1
 40
1.0
176
     1
 40
1.0
176
     1
  0
VISUALSTYLE
  5
42
102
{ACAD_REACTORS
330
2A
102
}
330
2A
100
AcDbVisualStyle
  2
Shaded
 70
    27
177
     3
291
     0
 70
    58
 90
        2
176
     1
 90
        2
176
     1
 90
        1
176
     1
 90
        2
176
     1
 40
0.6
176
     1
 40
30.0
176
     1
 62
     7
176
     1
 90
        0
176
     1
 90
        4
176
     1
 62
     7
176
     1
 62
   257
176
     1
 90
        1
176
     1
 90
        1
176
     1
 40
1.0
176
     1
 90
        8
176
     1
 62
   257
176
     1
 40
1.0
176
     1
 90
        1
176
     1
 90
        6
176
     1
 90
        2
176
     1
 62
     8
176
     1
 90
        3
176
     1
 90
        0
176
     1
 90
        0
176
     1
290
     0
176
     1
 90
        5
176
     1
 40
0.0
176
     1
 90
        0
176
     1
290
     0
176
     1
290
     1
176
     1
290
     1
176
     1
290
     0
176
     1
290
     0
176
     1
290
     0
176
     1
290
     0
176
     1
290
     0
176
     1
290
     0
176
     1
 90
       50
176
     1
 40
0.0
176
     1
 40
1.0
176
     1
 90
        0
176
     1
 62
    18
420
        0
176
     1
 90
       50
176
     1
 90
        3
176
     1
 62
     5
420
      255
176
     1
290
     0
176
     1
 90
       50
176
     1
 90
       50
176
     1
 90
       50
176
     1
290
     0
176
     1
 90
       50
176
     1
 62
   256
176
     0
 40
1.0
176
     0
 90
        2
176
     1
  1
strokes_ogs.tif
176
     1
290
     0
176
     1
 40
1.0
176
     1
 40
1.0
176
     1
  0
VISUALSTYLE
  5
3F1
102
{ACAD_REACTORS
330
2A
102
}
330
2A
100
AcDbVisualStyle
  2
Shaded with edges
 70
    26
177
     3
291
     0
 70
    58
 90
        2
176
     1
 90
        2
176
     1
 90
        1
176
     1
 90
        2
176
     1
 40
0.6
176
     1
 40
30.0
176
     1
 62
     7
420
 16777215
176
     1
 90
        1
176
     1
 90
       10
176
     1
 62
     7
176
     1
 62
   257
176
     1
 90
        2
176
     1
 90
        1
176
     1
 40
1.0
176
     1
 90
        8
176
     1
 62
   257
176
     1
 40
1.0
176
     1
 90
        1
176
     1
 90
        6
176
     1
 90
        2
176
     1
 62
     7
176
     1
 90
        3
176
     1
 90
        0
176
     1
 90
        0
176
     1
290
     0
176
     1
 90
        5
176
     1
 40
0.0
176
     1
 90
        0
176
     1
290
     0
176
     1
290
     1
176
     1
290
     1
176
     1
290
     0
176
     1
290
     0
176
     1
290
     0
176
     1
290
     0
176
     1
290
     0
176
     1
290
     0
176
     1
 90
       50
176
     1
 40
0.0
176
     1
 40
1.0
176
     1
 90
        0
176
     1
 62
    18
420
        0
176
     1
 90
       50
176
     1
 90
        3
176
     1
 62
     5
420
      255
176
     1
290
     0
176
     1
 90
       50
176
     1
 90
       50
176
     1
 90
       50
176
     1
290
     0
176
     1
 90
       50
176
     1
 62
   256
176
     0
 40
1.0
176
     0
 90
        2
176
     1
  1
strokes_ogs.tif
176
     1
290
     0
176
     1
 40
1.0
176
     1
 40
1.0
176
     1
  0
VISUALSTYLE
  5
41
102
{ACAD_REACTORS
330
2A
102
}
330
2A
100
AcDbVisualStyle
  2
Shaded with edges
 70
    26
177
     3
291
     0
 70
    58
 90
        2
176
     1
 90
        2
176
     1
 90
        1
176
     1
 90
        2
176
     1
 40
0.6
176
     1
 40
30.0
176
     1
 62
     7
176
     1
 90
        1
176
     1
 90
       10
176
     1
 62
     7
176
     1
 62
   257
176
     1
 90
        2
176
     1
 90
        1
176
     1
 40
1.0
176
     1
 90
        8
176
     1
 62
   257
176
     1
 40
1.0
176
     1
 90
        1
176
     1
 90
        6
176
     1
 90
        2
176
     1
 62
     7
176
     1
 90
        3
176
     1
 90
        0
176
     1
 90
        0
176
     1
290
     0
176
     1
 90
        5
176
     1
 40
0.0
176
     1
 90
        0
176
     1
290
     0
176
     1
290
     1
176
     1
290
     1
176
     1
290
     0
176
     1
290
     0
176
     1
290
     0
176
     1
290
     0
176
     1
290
     0
176
     1
290
     0
176
     1
 90
       50
176
     1
 40
0.0
176
     1
 40
1.0
176
     1
 90
        0
176
     1
 62
    18
420
        0
176
     1
 90
       50
176
     1
 90
        3
176
     1
 62
     5
420
      255
176
     1
290
     0
176
     1
 90
       50
176
     1
 90
       50
176
     1
 90
       50
176
     1
290
     0
176
     1
 90
       50
176
     1
 62
   256
176
     0
 40
1.0
176
     0
 90
        2
176
     1
  1
strokes_ogs.tif
176
     1
290
     0
176
     1
 40
1.0
176
     1
 40
1.0
176
     1
  0
VISUALSTYLE
  5
3F0
102
{ACAD_REACTORS
330
2A
102
}
330
2A
100
AcDbVisualStyle
  2
Shades of Gray
 70
    23
177
     3
291
     0
 70
    58
 90
        2
176
     1
 90
        2
176
     1
 90
        3
176
     1
 90
        0
176
     1
 40
0.6
176
     1
 40
30.0
176
     1
 62
     7
420
 16777215
176
     1
 90
        2
176
     1
 90
        2
176
     1
 62
     7
176
     1
 62
     7
176
     1
 90
        1
176
     1
 90
        1
176
     1
 40
40.0
176
     1
 90
        8
176
     1
 62
     7
176
     1
 40
1.0
176
     1
 90
        1
176
     1
 90
        6
176
     1
 90
        2
176
     1
 62
     7
176
     1
 90
        3
176
     1
 90
        0
176
     1
 90
        0
176
     1
290
     0
176
     1
 90
        1
176
     1
 40
0.0
176
     1
 90
        0
176
     1
290
     0
176
     1
290
     1
176
     1
290
     1
176
     1
290
     0
176
     1
290
     0
176
     1
290
     0
176
     1
290
     0
176
     1
290
     0
176
     1
290
     0
176
     1
 90
       50
176
     1
 40
0.0
176
     1
 40
1.0
176
     1
 90
        0
176
     1
 62
    18
420
        0
176
     1
 90
       50
176
     1
 90
        3
176
     1
 62
     5
420
      255
176
     1
290
     0
176
     1
 90
       50
176
     1
 90
       50
176
     1
 90
       50
176
     1
290
     0
176
     1
 90
       50
176
     1
 62
   256
176
     0
 40
1.0
176
     0
 90
        2
176
     1
  1
strokes_ogs.tif
176
     1
290
     0
176
     1
 40
1.0
176
     1
 40
1.0
176
     1
  0
VISUALSTYLE
  5
3E
102
{ACAD_REACTORS
330
2A
102
}
330
2A
100
AcDbVisualStyle
  2
Shades of Gray
 70
    23
177
     3
291
     0
 70
    58
 90
        2
176
     1
 90
        2
176
     1
 90
        3
176
     1
 90
        0
176
     1
 40
0.6
176
     1
 40
30.0
176
     1
 62
     7
176
     1
 90
        2
176
     1
 90
        2
176
     1
 62
     7
176
     1
 62
     7
176
     1
 90
        1
176
     1
 90
        1
176
     1
 40
40.0
176
     1
 90
        8
176
     1
 62
     7
176
     1
 40
1.0
176
     1
 90
        1
176
     1
 90
        6
176
     1
 90
        2
176
     1
 62
     7
176
     1
 90
        3
176
     1
 90
        0
176
     1
 90
        0
176
     1
290
     0
176
     1
 90
        1
176
     1
 40
0.0
176
     1
 90
        0
176
     1
290
     0
176
     1
290
     1
176
     1
290
     1
176
     1
290
     0
176
     1
290
     0
176
     1
290
     0
176
     1
290
     0
176
     1
290
     0
176
     1
290
     0
176
     1
 90
       50
176
     1
 40
0.0
176
     1
 40
1.0
176
     1
 90
        0
176
     1
 62
    18
420
        0
176
     1
 90
       50
176
     1
 90
        3
176
     1
 62
     5
420
      255
176
     1
290
     0
176
     1
 90
       50
176
     1
 90
       50
176
     1
 90
       50
176
     1
290
     0
176
     1
 90
       50
176
     1
 62
   256
176
     0
 40
1.0
176
     0
 90
        2
176
     1
  1
strokes_ogs.tif
176
     1
290
     0
176
     1
 40
1.0
176
     1
 40
1.0
176
     1
  0
VISUALSTYLE
  5
3F
102
{ACAD_REACTORS
330
2A
102
}
330
2A
100
AcDbVisualStyle
  2
Sketchy
 70
    24
177
     3
291
     0
 70
    58
 90
        1
176
     1
 90
        2
176
     1
 90
        2
176
     1
 90
        0
176
     1
 40
0.6
176
     1
 40
30.0
176
     1
 62
     7
176
     1
 90
        2
176
     1
 90
        2
176
     1
 62
     7
176
     1
 62
     7
176
     1
 90
        1
176
     1
 90
        1
176
     1
 40
40.0
176
     1
 90
       11
176
     1
 62
     7
176
     1
 40
1.0
176
     1
 90
        1
176
     1
 90
        6
176
     1
 90
        2
176
     1
 62
     7
176
     1
 90
        6
176
     1
 90
        0
176
     1
 90
        0
176
     1
290
     0
176
     1
 90
        1
176
     1
 40
0.0
176
     1
 90
        0
176
     1
290
     0
176
     1
290
     1
176
     1
290
     1
176
     1
290
     0
176
     1
290
     0
176
     1
290
     0
176
     1
290
     0
176
     1
290
     0
176
     1
290
     0
176
     1
 90
       50
176
     1
 40
0.0
176
     1
 40
1.0
176
     1
 90
        0
176
     1
 62
    18
420
        0
176
     1
 90
       50
176
     1
 90
        3
176
     1
 62
     5
420
      255
176
     1
290
     0
176
     1
 90
       50
176
     1
 90
       50
176
     1
 90
       50
176
     1
290
     0
176
     1
 90
       50
176
     1
 62
   256
176
     0
 40
1.0
176
     0
 90
        2
176
     1
  1
strokes_ogs.tif
176
     1
290
     0
176
     1
 40
1.0
176
     1
 40
1.0
176
     1
  0
VISUALSTYLE
  5
37
102
{ACAD_REACTORS
330
2A
102
}
330
2A
100
AcDbVisualStyle
  2
Thicken
 70
    13
177
     3
291
     1
 70
    58
 90
        2
176
     1
 90
        2
176
     1
 90
        0
176
     1
 90
        0
176
     1
 40
0.6
176
     1
 40
30.0
176
     1
 62
     7
176
     1
 90
        1
176
     1
 90
        4
176
     1
 62
     7
176
     1
 62
   257
176
     1
 90
        1
176
     1
 90
        1
176
     1
 40
1.0
176
     1
 90
       12
176
     1
 62
     7
176
     1
 40
1.0
176
     1
 90
        1
176
     1
 90
        6
176
     1
 90
        2
176
     1
 62
     7
176
     1
 90
        5
176
     1
 90
        0
176
     1
 90
        0
176
     1
290
     0
176
     1
 90
        1
176
     1
 40
0.0
176
     1
 90
        0
176
     1
290
     0
176
     1
290
     1
176
     1
290
     1
176
     1
290
     0
176
     1
290
     0
176
     1
290
     0
176
     1
290
     0
176
     1
290
     0
176
     1
290
     0
176
     1
 90
       50
176
     1
 40
0.0
176
     1
 40
1.0
176
     1
 90
        0
176
     1
 62
    18
420
        0
176
     1
 90
       50
176
     1
 90
        3
176
     1
 62
     5
420
      255
176
     1
290
     0
176
     1
 90
       50
176
     1
 90
       50
176
     1
 90
       50
176
     1
290
     0
176
     1
 90
       50
176
     1
 62
   256
176
     0
 40
1.0
176
     0
 90
        2
176
     1
  1
strokes_ogs.tif
176
     1
290
     0
176
     1
 40
1.0
176
     1
 40
1.0
176
     1
  0
VISUALSTYLE
  5
30
102
{ACAD_REACTORS
330
2A
102
}
330
2A
100
AcDbVisualStyle
  2
Wireframe
 70
     5
177
     3
291
     0
 70
    58
 90
        0
176
     1
 90
        2
176
     1
 90
        0
176
     1
 90
        0
176
     1
 40
0.6
176
     1
 40
30.0
176
     1
 62
     7
176
     1
 90
        1
176
     1
 90
        4
176
     1
 62
     7
176
     1
 62
   257
176
     1
 90
        1
176
     1
 90
        1
176
     1
 40
1.0
176
     1
 90
        0
176
     1
 62
   257
176
     1
 40
1.0
176
     1
 90
        1
176
     1
 90
        6
176
     1
 90
        2
176
     1
 62
     7
176
     1
 90
        3
176
     1
 90
        0
176
     1
 90
        0
176
     1
290
     0
176
     1
 90
        1
176
     1
 40
0.0
176
     1
 90
        0
176
     1
290
     0
176
     1
290
     1
176
     1
290
     1
176
     1
290
     0
176
     1
290
     0
176
     1
290
     0
176
     1
290
     0
176
     1
290
     0
176
     1
290
     0
176
     1
 90
       50
176
     1
 40
0.0
176
     1
 40
1.0
176
     1
 90
        0
176
     1
 62
    18
420
        0
176
     1
 90
       50
176
     1
 90
        3
176
     1
 62
     5
420
      255
176
     1
290
     0
176
     1
 90
       50
176
     1
 90
       50
176
     1
 90
       50
176
     1
290
     0
176
     1
 90
       50
176
     1
 62
   256
176
     0
 40
1.0
176
     0
 90
        2
176
     1
  1
strokes_ogs.tif
176
     1
290
     0
176
     1
 40
1.0
176
     1
 40
1.0
176
     1
  0
VISUALSTYLE
  5
40
102
{ACAD_REACTORS
330
2A
102
}
330
2A
100
AcDbVisualStyle
  2
X-Ray
 70
    25
177
     3
291
     0
 70
    58
 90
        2
176
     1
 90
        2
176
     1
 90
        1
176
     1
 90
        1
176
     1
 40
0.5
176
     1
 40
30.0
176
     1
 62
     7
176
     1
 90
        1
176
     1
 90
        0
176
     1
 62
     7
176
     1
 62
   257
176
     1
 90
        1
176
     1
 90
        1
176
     1
 40
1.0
176
     1
 90
        8
176
     1
 62
     7
176
     1
 40
1.0
176
     1
 90
        1
176
     1
 90
        6
176
     1
 90
        2
176
     1
 62
     7
176
     1
 90
        3
176
     1
 90
        0
176
     1
 90
        0
176
     1
290
     0
176
     1
 90
       13
176
     1
 40
0.0
176
     1
 90
        0
176
     1
290
     0
176
     1
290
     1
176
     1
290
     1
176
     1
290
     0
176
     1
290
     0
176
     1
290
     0
176
     1
290
     0
176
     1
290
     0
176
     1
290
     0
176
     1
 90
       50
176
     1
 40
0.0
176
     1
 40
1.0
176
     1
 90
        0
176
     1
 62
    18
420
        0
176
     1
 90
       50
176
     1
 90
        3
176
     1
 62
     5
420
      255
176
     1
290
     0
176
     1
 90
       50
176
     1
 90
       50
176
     1
 90
       50
176
     1
290
     0
176
     1
 90
       50
176
     1
 62
   256
176
     0
 40
1.0
176
     0
 90
        2
176
     1
  1
strokes_ogs.tif
176
     1
290
     0
176
     1
 40
1.0
176
     1
 40
1.0
176
     1
  0
DICTIONARYVAR
  5
3F6
102
{ACAD_REACTORS
330
3DB
102
}
330
3DB
100
DictionaryVariables
280
     0
  1
1:1
  0
DICTIONARYVAR
  5
3DD
102
{ACAD_REACTORS
330
3DB
102
}
330
3DB
100
DictionaryVariables
280
     0
  1
STANDARD
  0
DICTIONARYVAR
  5
3FA
102
{ACAD_REACTORS
330
3DB
102
}
330
3DB
100
DictionaryVariables
280
     0
  1
Standard
  0
DICTIONARYVAR
  5
3E0
102
{ACAD_REACTORS
330
3DB
102
}
330
3DB
100
DictionaryVariables
280
     0
  1
2
  0
DICTIONARYVAR
  5
3E1
102
{ACAD_REACTORS
330
3DB
102
}
330
3DB
100
DictionaryVariables
280
     0
  1
1
  0
DICTIONARYVAR
  5
3E5
102
{ACAD_REACTORS
330
3DB
102
}
330
3DB
100
DictionaryVariables
280
     0
  1
1
  0
DICTIONARY
  5
3FD
330
3F2
100
AcDbDictionary
280
     1
281
     1
  3
ACAD_ROUNDTRIP_2008_TABLESTYLE_CELLSTYLEMAP
360
3FE
  0
CELLSTYLEMAP
  5
3FE
102
{ACAD_REACTORS
330
3FD
102
}
330
3FD
100
AcDbCellStyleMap
 90
        3
300
CELLSTYLE
  1
TABLEFORMAT_BEGIN
 90
        5
170
     1
 91
        0
 92
    32768
 62
   257
 93
        1
300
CONTENTFORMAT
  1
CONTENTFORMAT_BEGIN
 90
        0
 91
        0
 92
        4
 93
        0
300

 40
0.0
140
1.0
 94
        5
 62
     0
340
11
144
0.25
309
CONTENTFORMAT_END
171
     1
301
MARGIN
  1
CELLMARGIN_BEGIN
 40
0.06
 40
0.06
 40
0.06
 40
0.06
 40
0.06
 40
0.06
309
CELLMARGIN_END
 94
        6
 95
        1
302
GRIDFORMAT
  1
GRIDFORMAT_BEGIN
 90
        0
 91
        1
 62
     0
 92
       -2
340
14
 93
        0
 40
0.045
309
GRIDFORMAT_END
 95
        2
302
GRIDFORMAT
  1
GRIDFORMAT_BEGIN
 90
        0
 91
        1
 62
     0
 92
       -2
340
14
 93
        0
 40
0.045
309
GRIDFORMAT_END
 95
        4
302
GRIDFORMAT
  1
GRIDFORMAT_BEGIN
 90
        0
 91
        1
 62
     0
 92
       -2
340
14
 93
        0
 40
0.045
309
GRIDFORMAT_END
 95
        8
302
GRIDFORMAT
  1
GRIDFORMAT_BEGIN
 90
        0
 91
        1
 62
     0
 92
       -2
340
14
 93
        0
 40
0.045
309
GRIDFORMAT_END
 95
       16
302
GRIDFORMAT
  1
GRIDFORMAT_BEGIN
 90
        0
 91
        1
 62
     0
 92
       -2
340
14
 93
        0
 40
0.045
309
GRIDFORMAT_END
 95
       32
302
GRIDFORMAT
  1
GRIDFORMAT_BEGIN
 90
        0
 91
        1
 62
     0
 92
       -2
340
14
 93
        0
 40
0.045
309
GRIDFORMAT_END
309
TABLEFORMAT_END
  1
CELLSTYLE_BEGIN
 90
        1
 91
        1
300
_TITLE
309
CELLSTYLE_END
300
CELLSTYLE
  1
TABLEFORMAT_BEGIN
 90
        5
170
     1
 91
        0
 92
        0
 62
   257
 93
        1
300
CONTENTFORMAT
  1
CONTENTFORMAT_BEGIN
 90
        0
 91
        0
 92
        4
 93
        0
300

 40
0.0
140
1.0
 94
        5
 62
     0
340
11
144
0.18
309
CONTENTFORMAT_END
171
     1
301
MARGIN
  1
CELLMARGIN_BEGIN
 40
0.06
 40
0.06
 40
0.06
 40
0.06
 40
0.06
 40
0.06
309
CELLMARGIN_END
 94
        6
 95
        1
302
GRIDFORMAT
  1
GRIDFORMAT_BEGIN
 90
        0
 91
        1
 62
     0
 92
       -2
340
14
 93
        0
 40
0.045
309
GRIDFORMAT_END
 95
        2
302
GRIDFORMAT
  1
GRIDFORMAT_BEGIN
 90
        0
 91
        1
 62
     0
 92
       -2
340
14
 93
        0
 40
0.045
309
GRIDFORMAT_END
 95
        4
302
GRIDFORMAT
  1
GRIDFORMAT_BEGIN
 90
        0
 91
        1
 62
     0
 92
       -2
340
14
 93
        0
 40
0.045
309
GRIDFORMAT_END
 95
        8
302
GRIDFORMAT
  1
GRIDFORMAT_BEGIN
 90
        0
 91
        1
 62
     0
 92
       -2
340
14
 93
        0
 40
0.045
309
GRIDFORMAT_END
 95
       16
302
GRIDFORMAT
  1
GRIDFORMAT_BEGIN
 90
        0
 91
        1
 62
     0
 92
       -2
340
14
 93
        0
 40
0.045
309
GRIDFORMAT_END
 95
       32
302
GRIDFORMAT
  1
GRIDFORMAT_BEGIN
 90
        0
 91
        1
 62
     0
 92
       -2
340
14
 93
        0
 40
0.045
309
GRIDFORMAT_END
309
TABLEFORMAT_END
  1
CELLSTYLE_BEGIN
 90
        2
 91
        1
300
_HEADER
309
CELLSTYLE_END
300
CELLSTYLE
  1
TABLEFORMAT_BEGIN
 90
        5
170
     1
 91
        0
 92
        0
 62
   257
 93
        1
300
CONTENTFORMAT
  1
CONTENTFORMAT_BEGIN
 90
        0
 91
        0
 92
        4
 93
        0
300

 40
0.0
140
1.0
 94
        2
 62
     0
340
11
144
0.18
309
CONTENTFORMAT_END
171
     1
301
MARGIN
  1
CELLMARGIN_BEGIN
 40
0.06
 40
0.06
 40
0.06
 40
0.06
 40
0.06
 40
0.06
309
CELLMARGIN_END
 94
        6
 95
        1
302
GRIDFORMAT
  1
GRIDFORMAT_BEGIN
 90
        0
 91
        1
 62
     0
 92
       -2
340
14
 93
        0
 40
0.045
309
GRIDFORMAT_END
 95
        2
302
GRIDFORMAT
  1
GRIDFORMAT_BEGIN
 90
        0
 91
        1
 62
     0
 92
       -2
340
14
 93
        0
 40
0.045
309
GRIDFORMAT_END
 95
        4
302
GRIDFORMAT
  1
GRIDFORMAT_BEGIN
 90
        0
 91
        1
 62
     0
 92
       -2
340
14
 93
        0
 40
0.045
309
GRIDFORMAT_END
 95
        8
302
GRIDFORMAT
  1
GRIDFORMAT_BEGIN
 90
        0
 91
        1
 62
     0
 92
       -2
340
14
 93
        0
 40
0.045
309
GRIDFORMAT_END
 95
       16
302
GRIDFORMAT
  1
GRIDFORMAT_BEGIN
 90
        0
 91
        1
 62
     0
 92
       -2
340
14
 93
        0
 40
0.045
309
GRIDFORMAT_END
 95
       32
302
GRIDFORMAT
  1
GRIDFORMAT_BEGIN
 90
        0
 91
        1
 62
     0
 92
       -2
340
14
 93
        0
 40
0.045
309
GRIDFORMAT_END
309
TABLEFORMAT_END
  1
CELLSTYLE_BEGIN
 90
        3
 91
        2
300
_DATA
309
CELLSTYLE_END
  0
ENDSEC
  0
EOF
