  0
SECTION
  2
HEADER
  9
$ACADVER
  1
AC1027
  9
$ACADMAINTVER
 70
     8
  9
$DWGCODEPAGE
  3
ANSI_1252
  9
$REQUIREDVERSIONS
160
                 0
  9
$LASTSAVEDBY
  1
Ian
  9
$INSBASE
 10
0.0
 20
0.0
 30
0.0
  9
$EXTMIN
 10
5285.091295985079
 20
-175.0472714365828
 30
0.0
  9
$EXTMAX
 10
5560.09129598508
 20
-9.547271436582832
 30
0.0000000003728928
  9
$LIMMIN
 10
0.0
 20
0.0
  9
$LIMMAX
 10
12.0
 20
9.0
  9
$ORTHOMODE
 70
     0
  9
$REGENMODE
 70
     1
  9
$FILLMODE
 70
     1
  9
$QTEXTMODE
 70
     0
  9
$MIRRTEXT
 70
     1
  9
$LTSCALE
 40
1.0
  9
$ATTMODE
 70
     1
  9
$TEXTSIZE
 40
0.2
  9
$TRACEWID
 40
0.05
  9
$TEXTSTYLE
  7
STANDARD
  9
$CLAYER
  8
DEFAULT
  9
$CELTYPE
  6
BYLAYER
  9
$CECOLOR
 62
   256
  9
$CELTSCALE
 40
1.0
  9
$DISPSILH
 70
     0
  9
$DIMSCALE
 40
1.0
  9
$DIMASZ
 40
0.18
  9
$DIMEXO
 40
0.0625
  9
$DIMDLI
 40
0.38
  9
$DIMRND
 40
0.0
  9
$DIMDLE
 40
0.0
  9
$DIMEXE
 40
0.18
  9
$DIMTP
 40
0.0
  9
$DIMTM
 40
0.0
  9
$DIMTXT
 40
0.18
  9
$DIMCEN
 40
0.09
  9
$DIMTSZ
 40
0.0
  9
$DIMTOL
 70
     0
  9
$DIMLIM
 70
     0
  9
$DIMTIH
 70
     1
  9
$DIMTOH
 70
     1
  9
$DIMSE1
 70
     0
  9
$DIMSE2
 70
     0
  9
$DIMTAD
 70
     0
  9
$DIMZIN
 70
     0
  9
$DIMBLK
  1

  9
$DIMASO
 70
     1
  9
$DIMSHO
 70
     1
  9
$DIMPOST
  1

  9
$DIMAPOST
  1

  9
$DIMALT
 70
     0
  9
$DIMALTD
 70
     2
  9
$DIMALTF
 40
25.4
  9
$DIMLFAC
 40
1.0
  9
$DIMTOFL
 70
     0
  9
$DIMTVP
 40
0.0
  9
$DIMTIX
 70
     0
  9
$DIMSOXD
 70
     0
  9
$DIMSAH
 70
     0
  9
$DIMBLK1
  1

  9
$DIMBLK2
  1

  9
$DIMSTYLE
  2
STANDARD
  9
$DIMCLRD
 70
     0
  9
$DIMCLRE
 70
     0
  9
$DIMCLRT
 70
     0
  9
$DIMTFAC
 40
1.0
  9
$DIMGAP
 40
0.09
  9
$DIMJUST
 70
     0
  9
$DIMSD1
 70
     0
  9
$DIMSD2
 70
     0
  9
$DIMTOLJ
 70
     1
  9
$DIMTZIN
 70
     0
  9
$DIMALTZ
 70
     0
  9
$DIMALTTZ
 70
     0
  9
$DIMUPT
 70
     0
  9
$DIMDEC
 70
     4
  9
$DIMTDEC
 70
     4
  9
$DIMALTU
 70
     2
  9
$DIMALTTD
 70
     2
  9
$DIMTXSTY
  7
STANDARD
  9
$DIMAUNIT
 70
     0
  9
$DIMADEC
 70
     0
  9
$DIMALTRND
 40
0.0
  9
$DIMAZIN
 70
     0
  9
$DIMDSEP
 70
    46
  9
$DIMATFIT
 70
     3
  9
$DIMFRAC
 70
     0
  9
$DIMLDRBLK
  1

  9
$DIMLUNIT
 70
     2
  9
$DIMLWD
 70
    -2
  9
$DIMLWE
 70
    -2
  9
$DIMTMOVE
 70
     2
  9
$DIMFXL
 40
1.0
  9
$DIMFXLON
 70
     0
  9
$DIMJOGANG
 40
0.7853981633974483
  9
$DIMTFILL
 70
     0
  9
$DIMTFILLCLR
 70
     0
  9
$DIMARCSYM
 70
     0
  9
$DIMLTYPE
  6

  9
$DIMLTEX1
  6

  9
$DIMLTEX2
  6

  9
$DIMTXTDIRECTION
 70
     0
  9
$LUNITS
 70
     2
  9
$LUPREC
 70
     2
  9
$SKETCHINC
 40
0.1
  9
$FILLETRAD
 40
0.5
  9
$AUNITS
 70
     0
  9
$AUPREC
 70
     0
  9
$MENU
  1
.
  9
$ELEVATION
 40
0.0
  9
$PELEVATION
 40
0.0
  9
$THICKNESS
 40
0.0
  9
$LIMCHECK
 70
     0
  9
$CHAMFERA
 40
0.0
  9
$CHAMFERB
 40
0.0
  9
$CHAMFERC
 40
0.0
  9
$CHAMFERD
 40
0.0
  9
$SKPOLY
 70
     0
  9
$TDCREATE
 40
2457162.66583125
  9
$TDUCREATE
 40
2457162.874164583
  9
$TDUPDATE
 40
2457192.104056864
  9
$TDUUPDATE
 40
2457192.312390197
  9
$TDINDWG
 40
0.0008625116
  9
$TDUSRTIMER
 40
2457192.311527836
  9
$USRTIMER
 70
     1
  9
$ANGBASE
 50
0.0
  9
$ANGDIR
 70
     0
  9
$PDMODE
 70
     0
  9
$PDSIZE
 40
0.0
  9
$PLINEWID
 40
0.0
  9
$SPLFRAME
 70
     0
  9
$SPLINETYPE
 70
     6
  9
$SPLINESEGS
 70
     8
  9
$HANDSEED
  5
3FD
  9
$SURFTAB1
 70
     6
  9
$SURFTAB2
 70
     6
  9
$SURFTYPE
 70
     6
  9
$SURFU
 70
     6
  9
$SURFV
 70
     6
  9
$UCSBASE
  2

  9
$UCSNAME
  2

  9
$UCSORG
 10
0.0
 20
0.0
 30
0.0
  9
$UCSXDIR
 10
1.0
 20
0.0
 30
0.0
  9
$UCSYDIR
 10
0.0
 20
1.0
 30
0.0
  9
$UCSORTHOREF
  2

  9
$UCSORTHOVIEW
 70
     0
  9
$UCSORGTOP
 10
0.0
 20
0.0
 30
0.0
  9
$UCSORGBOTTOM
 10
0.0
 20
0.0
 30
0.0
  9
$UCSORGLEFT
 10
0.0
 20
0.0
 30
0.0
  9
$UCSORGRIGHT
 10
0.0
 20
0.0
 30
0.0
  9
$UCSORGFRONT
 10
0.0
 20
0.0
 30
0.0
  9
$UCSORGBACK
 10
0.0
 20
0.0
 30
0.0
  9
$PUCSBASE
  2

  9
$PUCSNAME
  2

  9
$PUCSORG
 10
0.0
 20
0.0
 30
0.0
  9
$PUCSXDIR
 10
1.0
 20
0.0
 30
0.0
  9
$PUCSYDIR
 10
0.0
 20
1.0
 30
0.0
  9
$PUCSORTHOREF
  2

  9
$PUCSORTHOVIEW
 70
     0
  9
$PUCSORGTOP
 10
0.0
 20
0.0
 30
0.0
  9
$PUCSORGBOTTOM
 10
0.0
 20
0.0
 30
0.0
  9
$PUCSORGLEFT
 10
0.0
 20
0.0
 30
0.0
  9
$PUCSORGRIGHT
 10
0.0
 20
0.0
 30
0.0
  9
$PUCSORGFRONT
 10
0.0
 20
0.0
 30
0.0
  9
$PUCSORGBACK
 10
0.0
 20
0.0
 30
0.0
  9
$USERI1
 70
     0
  9
$USERI2
 70
     0
  9
$USERI3
 70
     0
  9
$USERI4
 70
     0
  9
$USERI5
 70
     0
  9
$USERR1
 40
0.0
  9
$USERR2
 40
0.0
  9
$USERR3
 40
0.0
  9
$USERR4
 40
0.0
  9
$USERR5
 40
0.0
  9
$WORLDVIEW
 70
     1
  9
$SHADEDGE
 70
     3
  9
$SHADEDIF
 70
    70
  9
$TILEMODE
 70
     1
  9
$MAXACTVP
 70
    64
  9
$PINSBASE
 10
0.0
 20
0.0
 30
0.0
  9
$PLIMCHECK
 70
     0
  9
$PEXTMIN
 10
1.000000000000000E+20
 20
1.000000000000000E+20
 30
1.000000000000000E+20
  9
$PEXTMAX
 10
-1.000000000000000E+20
 20
-1.000000000000000E+20
 30
-1.000000000000000E+20
  9
$PLIMMIN
 10
0.0
 20
0.0
  9
$PLIMMAX
 10
0.0
 20
0.0
  9
$UNITMODE
 70
     0
  9
$VISRETAIN
 70
     1
  9
$PLINEGEN
 70
     0
  9
$PSLTSCALE
 70
     1
  9
$TREEDEPTH
 70
  3020
  9
$CMLSTYLE
  2
STANDARD
  9
$CMLJUST
 70
     0
  9
$CMLSCALE
 40
1.0
  9
$PROXYGRAPHICS
 70
     1
  9
$MEASUREMENT
 70
     0
  9
$CELWEIGHT
370
    -1
  9
$ENDCAPS
280
     0
  9
$JOINSTYLE
280
     0
  9
$LWDISPLAY
290
     0
  9
$INSUNITS
 70
     4
  9
$HYPERLINKBASE
  1

  9
$STYLESHEET
  1

  9
$XEDIT
290
     1
  9
$CEPSNTYPE
380
     0
  9
$PSTYLEMODE
290
     1
  9
$FINGERPRINTGUID
  2
{991519B6-564E-428F-BD52-AFA12D5A6495}
  9
$VERSIONGUID
  2
{FAEB1C32-E019-11D5-929B-00C0DF256EC4}
  9
$EXTNAMES
290
     1
  9
$PSVPSCALE
 40
0.0
  9
$OLESTARTUP
290
     0
  9
$SORTENTS
280
   127
  9
$INDEXCTL
280
     0
  9
$HIDETEXT
280
     1
  9
$XCLIPFRAME
280
     2
  9
$HALOGAP
280
     0
  9
$OBSCOLOR
 70
   257
  9
$OBSLTYPE
280
     0
  9
$INTERSECTIONDISPLAY
280
     0
  9
$INTERSECTIONCOLOR
 70
   257
  9
$DIMASSOC
280
     2
  9
$PROJECTNAME
  1

  9
$CAMERADISPLAY
290
     0
  9
$LENSLENGTH
 40
50.0
  9
$CAMERAHEIGHT
 40
0.0
  9
$STEPSPERSEC
 40
2.0
  9
$STEPSIZE
 40
6.0
  9
$3DDWFPREC
 40
2.0
  9
$PSOLWIDTH
 40
0.25
  9
$PSOLHEIGHT
 40
4.0
  9
$LOFTANG1
 40
1.570796326794897
  9
$LOFTANG2
 40
1.570796326794897
  9
$LOFTMAG1
 40
0.0
  9
$LOFTMAG2
 40
0.0
  9
$LOFTPARAM
 70
     7
  9
$LOFTNORMALS
280
     1
  9
$LATITUDE
 40
37.795
  9
$LONGITUDE
 40
-122.394
  9
$NORTHDIRECTION
 40
0.0
  9
$TIMEZONE
 70
 -8000
  9
$LIGHTGLYPHDISPLAY
280
     1
  9
$TILEMODELIGHTSYNCH
280
     1
  9
$SOLIDHIST
280
     0
  9
$SHOWHIST
280
     1
  9
$DWFFRAME
280
     2
  9
$DGNFRAME
280
     2
  9
$REALWORLDSCALE
290
     1
  9
$INTERFERECOLOR
 62
   256
  9
$CSHADOW
280
     0
  9
$SHADOWPLANELOCATION
 40
0.0
  0
ENDSEC
  0
SECTION
  2
CLASSES
  0
CLASS
  1
ACDBDICTIONARYWDFLT
  2
AcDbDictionaryWithDefault
  3
ObjectDBX Classes
 90
        0
 91
        5
280
     0
281
     0
  0
CLASS
  1
VISUALSTYLE
  2
AcDbVisualStyle
  3
ObjectDBX Classes
 90
     4095
 91
        5
280
     0
281
     0
  0
CLASS
  1
MATERIAL
  2
AcDbMaterial
  3
ObjectDBX Classes
 90
     1153
 91
        5
280
     0
281
     0
  0
CLASS
  1
SCALE
  2
AcDbScale
  3
ObjectDBX Classes
 90
     1153
 91
        5
280
     0
281
     0
  0
CLASS
  1
TABLESTYLE
  2
AcDbTableStyle
  3
ObjectDBX Classes
 90
     4095
 91
        5
280
     0
281
     0
  0
CLASS
  1
MLEADERSTYLE
  2
AcDbMLeaderStyle
  3
ACDB_MLEADERSTYLE_CLASS
 90
     4095
 91
        5
280
     0
281
     0
  0
CLASS
  1
SUN
  2
AcDbSun
  3
SCENEOE
 90
     1153
 91
        5
280
     0
281
     0
  0
CLASS
  1
DICTIONARYVAR
  2
AcDbDictionaryVar
  3
ObjectDBX Classes
 90
        0
 91
        5
280
     0
281
     0
  0
CLASS
  1
XRECORD
  2
AcDbXrecord
  3
ObjectDBX Classes
 90
        0
 91
        1
280
     0
281
     0
  0
CLASS
  1
LWPOLYLINE
  2
AcDbPolyline
  3
ObjectDBX Classes
 90
        0
 91
        1
280
     0
281
     1
  0
CLASS
  1
HATCH
  2
AcDbHatch
  3
ObjectDBX Classes
 90
        0
 91
        1
280
     0
281
     1
  0
CLASS
  1
ACDBPLACEHOLDER
  2
AcDbPlaceHolder
  3
ObjectDBX Classes
 90
        0
 91
        1
280
     0
281
     0
  0
CLASS
  1
LAYOUT
  2
AcDbLayout
  3
ObjectDBX Classes
 90
        0
 91
        1
280
     0
281
     0
  0
CLASS
  1
RASTERVARIABLES
  2
AcDbRasterVariables
  3
ISM
 90
        0
 91
        5
280
     0
281
     0
  0
CLASS
  1
CELLSTYLEMAP
  2
AcDbCellStyleMap
  3
ObjectDBX Classes
 90
     1152
 91
        5
280
     0
281
     0
  0
ENDSEC
  0
SECTION
  2
TABLES
  0
TABLE
  2
VPORT
  5
8
330
0
100
AcDbSymbolTable
 70
     1
  0
VPORT
  5
29
330
8
100
AcDbSymbolTableRecord
100
AcDbViewportTableRecord
  2
*ACTIVE
 70
     0
 10
0.0
 20
0.0
 11
1.0
 21
1.0
 12
5289.320280104069
 22
67.05575521160574
 13
0.0
 23
0.0
 14
0.5
 24
0.5
 15
0.5
 25
0.5
 16
0.0
 26
0.0
 36
1.0
 17
0.0
 27
0.0
 37
0.0
 40
857.5848542100016
 41
2.016518424396442
 42
50.0
 43
0.0
 44
0.0
 50
0.0
 51
0.0
 71
    16
 72
   100
 73
     1
 74
     3
 75
     0
 76
     0
 77
     0
 78
     0
281
     0
 65
     1
110
0.0
120
0.0
130
0.0
111
1.0
121
0.0
131
0.0
112
0.0
122
1.0
132
0.0
 79
     0
146
0.0
348
2F
 60
     3
 61
     5
292
     1
282
     1
141
0.0
142
0.0
 63
   256
361
3F4
  0
ENDTAB
  0
TABLE
  2
LTYPE
  5
5
330
0
100
AcDbSymbolTable
 70
     1
  0
LTYPE
  5
14
330
5
100
AcDbSymbolTableRecord
100
AcDbLinetypeTableRecord
  2
BYBLOCK
 70
     0
  3

 72
    65
 73
     0
 40
0.0
  0
LTYPE
  5
15
330
5
100
AcDbSymbolTableRecord
100
AcDbLinetypeTableRecord
  2
BYLAYER
 70
     0
  3

 72
    65
 73
     0
 40
0.0
  0
LTYPE
  5
16
330
5
100
AcDbSymbolTableRecord
100
AcDbLinetypeTableRecord
  2
CONTINUOUS
 70
     0
  3
Solid line
 72
    65
 73
     0
 40
0.0
  0
ENDTAB
  0
TABLE
  2
LAYER
  5
2
330
0
100
AcDbSymbolTable
 70
     2
  0
LAYER
  5
10
330
2
100
AcDbSymbolTableRecord
100
AcDbLayerTableRecord
  2
0
 70
     0
 62
     7
  6
CONTINUOUS
370
    -3
390
0
347
46
348
0
  0
LAYER
  5
6E
330
2
100
AcDbSymbolTableRecord
100
AcDbLayerTableRecord
  2
DEFAULT
 70
     0
 62
    18
  6
CONTINUOUS
370
    -3
390
0
347
46
348
0
  0
ENDTAB
  0
TABLE
  2
STYLE
  5
3
330
0
100
AcDbSymbolTable
 70
     1
  0
STYLE
  5
11
330
3
100
AcDbSymbolTableRecord
100
AcDbTextStyleTableRecord
  2
STANDARD
 70
     0
 40
0.0
 41
1.0
 50
0.0
 71
     0
 42
0.2
  3
txt
  4

  0
ENDTAB
  0
TABLE
  2
VIEW
  5
6
330
0
100
AcDbSymbolTable
 70
     0
  0
ENDTAB
  0
TABLE
  2
UCS
  5
7
330
0
100
AcDbSymbolTable
 70
     0
  0
ENDTAB
  0
TABLE
  2
APPID
  5
9
330
0
100
AcDbSymbolTable
 70
     2
  0
APPID
  5
12
330
9
100
AcDbSymbolTableRecord
100
AcDbRegAppTableRecord
  2
ACAD
 70
     0
  0
APPID
  5
3EC
330
9
100
AcDbSymbolTableRecord
100
AcDbRegAppTableRecord
  2
ACAD_MLEADERVER
 70
     0
  0
ENDTAB
  0
TABLE
  2
DIMSTYLE
  5
A
330
0
100
AcDbSymbolTable
 70
     1
100
AcDbDimStyleTable
  0
DIMSTYLE
105
27
330
A
100
AcDbSymbolTableRecord
100
AcDbDimStyleTableRecord
  2
STANDARD
 70
     0
178
     0
340
11
  0
ENDTAB
  0
TABLE
  2
BLOCK_RECORD
  5
1
330
0
100
AcDbSymbolTable
 70
     0
  0
BLOCK_RECORD
  5
1F
330
1
100
AcDbSymbolTableRecord
100
AcDbBlockTableRecord
  2
*MODEL_SPACE
340
3EE
 70
     0
280
     1
281
     0
  0
BLOCK_RECORD
  5
1B
330
1
100
AcDbSymbolTableRecord
100
AcDbBlockTableRecord
  2
*PAPER_SPACE
340
3EF
 70
     0
280
     1
281
     0
  0
ENDTAB
  0
ENDSEC
  0
SECTION
  2
BLOCKS
  0
BLOCK
  5
20
330
1F
100
AcDbEntity
  8
0
100
AcDbBlockBegin
  2
*MODEL_SPACE
 70
     0
 10
0.0
 20
0.0
 30
0.0
  3
*MODEL_SPACE
  1
*MODEL_SPACE
  0
ENDBLK
  5
21
330
1F
100
AcDbEntity
  8
0
100
AcDbBlockEnd
  0
BLOCK
  5
1C
330
1B
100
AcDbEntity
 67
     1
  8
0
100
AcDbBlockBegin
  2
*PAPER_SPACE
 70
     0
 10
0.0
 20
0.0
 30
0.0
  3
*PAPER_SPACE
  1
*PAPER_SPACE
  0
ENDBLK
  5
1D
330
1B
100
AcDbEntity
 67
     1
  8
0
100
AcDbBlockEnd
  0
ENDSEC
  0
SECTION
  2
ENTITIES
  0
LINE
  5
6F
330
1F
100
AcDbEntity
  8
DEFAULT
100
AcDbLine
 10
5391.19129598508
 20
-76.54727143658283
 30
0.0000000000818545
 11
5396.49129598508
 21
-76.54727143658283
 31
0.0000000000818545
  0
LINE
  5
70
330
1F
100
AcDbEntity
  8
DEFAULT
100
AcDbLine
 10
5396.49129598508
 20
-76.54727143658283
 30
0.0000000000818545
 11
5396.49129598508
 21
-88.54727143658283
 31
0.0000000000818545
  0
LINE
  5
71
330
1F
100
AcDbEntity
  8
DEFAULT
100
AcDbLine
 10
5396.49129598508
 20
-88.54727143658283
 30
0.0000000000818545
 11
5391.19129598508
 21
-88.54727143658283
 31
0.0000000000818545
  0
LINE
  5
72
330
1F
100
AcDbEntity
  8
DEFAULT
100
AcDbLine
 10
5391.19129598508
 20
-88.54727143658283
 30
0.0000000000818545
 11
5391.19129598508
 21
-76.54727143658283
 31
0.0000000000818545
  0
LINE
  5
73
330
1F
100
AcDbEntity
  8
DEFAULT
100
AcDbLine
 10
5310.69129598508
 20
-52.54727143658283
 30
0.0000000002273737
 11
5315.99129598508
 21
-52.54727143658283
 31
0.0000000002273737
  0
LINE
  5
74
330
1F
100
AcDbEntity
  8
DEFAULT
100
AcDbLine
 10
5315.99129598508
 20
-52.54727143658283
 30
0.0000000002273737
 11
5315.99129598508
 21
-64.54727143658283
 31
0.0000000002273737
  0
LINE
  5
75
330
1F
100
AcDbEntity
  8
DEFAULT
100
AcDbLine
 10
5315.99129598508
 20
-64.54727143658283
 30
0.0000000002273737
 11
5310.69129598508
 21
-64.54727143658283
 31
0.0000000002273737
  0
LINE
  5
76
330
1F
100
AcDbEntity
  8
DEFAULT
100
AcDbLine
 10
5310.69129598508
 20
-64.54727143658283
 30
0.0000000002273737
 11
5310.69129598508
 21
-52.54727143658283
 31
0.0000000002273737
  0
LINE
  5
77
330
1F
100
AcDbEntity
  8
DEFAULT
100
AcDbLine
 10
5391.19129598508
 20
-100.5472714365828
 30
0.0000000000818545
 11
5396.49129598508
 21
-100.5472714365828
 31
0.0000000000818545
  0
LINE
  5
78
330
1F
100
AcDbEntity
  8
DEFAULT
100
AcDbLine
 10
5396.49129598508
 20
-100.5472714365828
 30
0.0000000000818545
 11
5396.49129598508
 21
-112.5472714365828
 31
0.0000000000818545
  0
LINE
  5
79
330
1F
100
AcDbEntity
  8
DEFAULT
100
AcDbLine
 10
5396.49129598508
 20
-112.5472714365828
 30
0.0000000000818545
 11
5391.19129598508
 21
-112.5472714365828
 31
0.0000000000818545
  0
LINE
  5
7A
330
1F
100
AcDbEntity
  8
DEFAULT
100
AcDbLine
 10
5391.19129598508
 20
-112.5472714365828
 30
0.0000000000818545
 11
5391.19129598508
 21
-100.5472714365828
 31
0.0000000000818545
  0
LINE
  5
7B
330
1F
100
AcDbEntity
  8
DEFAULT
100
AcDbLine
 10
5453.99129598508
 20
-71.04727143658283
 30
0.0
 11
5448.691295985081
 21
-71.04727143658283
 31
0.0
  0
LINE
  5
7C
330
1F
100
AcDbEntity
  8
DEFAULT
100
AcDbLine
 10
5448.691295985081
 20
-71.04727143658283
 30
0.0
 11
5448.691295985081
 21
-83.04727143658283
 31
0.0
  0
LINE
  5
7D
330
1F
100
AcDbEntity
  8
DEFAULT
100
AcDbLine
 10
5448.691295985081
 20
-83.04727143658283
 30
0.0
 11
5453.99129598508
 21
-83.04727143658283
 31
0.0
  0
LINE
  5
7E
330
1F
100
AcDbEntity
  8
DEFAULT
100
AcDbLine
 10
5453.99129598508
 20
-83.04727143658283
 30
0.0
 11
5453.99129598508
 21
-71.04727143658283
 31
0.0
  0
LINE
  5
7F
330
1F
100
AcDbEntity
  8
DEFAULT
100
AcDbLine
 10
5453.99129598508
 20
-119.0472714365828
 30
0.0
 11
5448.691295985081
 21
-119.0472714365828
 31
0.0
  0
LINE
  5
80
330
1F
100
AcDbEntity
  8
DEFAULT
100
AcDbLine
 10
5448.691295985081
 20
-119.0472714365828
 30
0.0
 11
5448.691295985081
 21
-131.0472714365828
 31
0.0
  0
LINE
  5
81
330
1F
100
AcDbEntity
  8
DEFAULT
100
AcDbLine
 10
5448.691295985081
 20
-131.0472714365828
 30
0.0
 11
5453.99129598508
 21
-131.0472714365828
 31
0.0
  0
LINE
  5
82
330
1F
100
AcDbEntity
  8
DEFAULT
100
AcDbLine
 10
5453.99129598508
 20
-131.0472714365828
 30
0.0
 11
5453.99129598508
 21
-119.0472714365828
 31
0.0
  0
LINE
  5
83
330
1F
100
AcDbEntity
  8
DEFAULT
100
AcDbLine
 10
5310.69129598508
 20
-124.5472714365828
 30
0.0000000002273737
 11
5315.99129598508
 21
-124.5472714365828
 31
0.0000000002273737
  0
LINE
  5
84
330
1F
100
AcDbEntity
  8
DEFAULT
100
AcDbLine
 10
5315.99129598508
 20
-124.5472714365828
 30
0.0000000002273737
 11
5315.99129598508
 21
-136.5472714365828
 31
0.0000000002273737
  0
LINE
  5
85
330
1F
100
AcDbEntity
  8
DEFAULT
100
AcDbLine
 10
5315.99129598508
 20
-136.5472714365828
 30
0.0000000002273737
 11
5310.69129598508
 21
-136.5472714365828
 31
0.0000000002273737
  0
LINE
  5
86
330
1F
100
AcDbEntity
  8
DEFAULT
100
AcDbLine
 10
5310.69129598508
 20
-136.5472714365828
 30
0.0000000002273737
 11
5310.69129598508
 21
-124.5472714365828
 31
0.0000000002273737
  0
LINE
  5
87
330
1F
100
AcDbEntity
  8
DEFAULT
100
AcDbLine
 10
5416.591295985079
 20
-138.3000585632631
 30
0.0000000000818545
 11
5416.591295985079
 21
-133.7986649999234
 31
0.0000000000818545
  0
LINE
  5
88
330
1F
100
AcDbEntity
  8
DEFAULT
100
AcDbLine
 10
5416.591295985079
 20
-133.7986649999234
 30
0.0000000000818545
 11
5422.091295985079
 21
-133.7972714365847
 31
0.0000000000818545
  0
LINE
  5
89
330
1F
100
AcDbEntity
  8
DEFAULT
100
AcDbLine
 10
5422.091295985079
 20
-133.7972714365847
 30
0.0000000000818545
 11
5422.091295985079
 21
-121.7972714365847
 31
0.0000000000818545
  0
LINE
  5
8A
330
1F
100
AcDbEntity
  8
DEFAULT
100
AcDbLine
 10
5422.091295985079
 20
-121.7972714365847
 30
0.0000000000818545
 11
5416.591295985079
 21
-121.7972714365847
 31
0.0000000000818545
  0
LINE
  5
8B
330
1F
100
AcDbEntity
  8
DEFAULT
100
AcDbLine
 10
5416.591295985079
 20
-121.7972714365847
 30
0.0000000000818545
 11
5416.591295985079
 21
-109.7972714365847
 31
0.0000000000818545
  0
LINE
  5
8C
330
1F
100
AcDbEntity
  8
DEFAULT
100
AcDbLine
 10
5416.591295985079
 20
-109.7972714365847
 30
0.0000000000818545
 11
5422.091295985079
 21
-109.7972714365847
 31
0.0000000000818545
  0
LINE
  5
8D
330
1F
100
AcDbEntity
  8
DEFAULT
100
AcDbLine
 10
5422.091295985079
 20
-109.7972714365847
 30
0.0000000000818545
 11
5422.091295985079
 21
-97.79727143658465
 31
0.0000000000818545
  0
LINE
  5
8E
330
1F
100
AcDbEntity
  8
DEFAULT
100
AcDbLine
 10
5422.091295985079
 20
-97.79727143658465
 30
0.0000000000818545
 11
5416.591295985079
 21
-97.79727143658465
 31
0.0000000000818545
  0
LINE
  5
8F
330
1F
100
AcDbEntity
  8
DEFAULT
100
AcDbLine
 10
5416.591295985079
 20
-97.79727143658465
 30
0.0000000000818545
 11
5416.591295985079
 21
-85.79727143658465
 31
0.0000000000818545
  0
LINE
  5
90
330
1F
100
AcDbEntity
  8
DEFAULT
100
AcDbLine
 10
5416.591295985079
 20
-85.79727143658465
 30
0.0000000000818545
 11
5422.091295985079
 21
-85.79727143658465
 31
0.0000000000818545
  0
LINE
  5
91
330
1F
100
AcDbEntity
  8
DEFAULT
100
AcDbLine
 10
5422.091295985079
 20
-85.79727143658465
 30
0.0000000000818545
 11
5422.091295985079
 21
-73.79727143658465
 31
0.0000000000818545
  0
LINE
  5
92
330
1F
100
AcDbEntity
  8
DEFAULT
100
AcDbLine
 10
5422.091295985079
 20
-73.79727143658465
 30
0.0000000000818545
 11
5416.591295985079
 21
-73.79727143658465
 31
0.0000000000818545
  0
LINE
  5
93
330
1F
100
AcDbEntity
  8
DEFAULT
100
AcDbLine
 10
5416.591295985079
 20
-73.79727143658465
 30
0.0000000000818545
 11
5416.591295985079
 21
-69.30005856326306
 31
0.0000000000818545
  0
LINE
  5
94
330
1F
100
AcDbEntity
  8
DEFAULT
100
AcDbLine
 10
5416.591295985079
 20
-69.30005856326306
 30
0.0000000000818545
 11
5411.591295985079
 21
-69.30005856326306
 31
0.0000000000818545
  0
LINE
  5
95
330
1F
100
AcDbEntity
  8
DEFAULT
100
AcDbLine
 10
5411.591295985079
 20
-69.30005856326306
 30
0.0000000000818545
 11
5411.591295985079
 21
-70.50005856326288
 31
0.0000000000818545
  0
LINE
  5
96
330
1F
100
AcDbEntity
  8
DEFAULT
100
AcDbLine
 10
5411.591295985079
 20
-70.50005856326288
 30
0.0000000000818545
 11
5409.19129598508
 21
-70.50005856326288
 31
0.0000000000818545
  0
LINE
  5
97
330
1F
100
AcDbEntity
  8
DEFAULT
100
AcDbLine
 10
5409.19129598508
 20
-70.50005856326288
 30
0.0000000000818545
 11
5409.19129598508
 21
-69.30005856326306
 31
0.0000000000818545
  0
LINE
  5
98
330
1F
100
AcDbEntity
  8
DEFAULT
100
AcDbLine
 10
5409.19129598508
 20
-69.30005856326306
 30
0.0000000000818545
 11
5407.19129598508
 21
-69.30005856326306
 31
0.0000000000818545
  0
LINE
  5
99
330
1F
100
AcDbEntity
  8
DEFAULT
100
AcDbLine
 10
5407.19129598508
 20
-69.30005856326306
 30
0.0000000000818545
 11
5407.19129598508
 21
-66.30005856326306
 31
0.0000000000818545
  0
LINE
  5
9A
330
1F
100
AcDbEntity
  8
DEFAULT
100
AcDbLine
 10
5407.19129598508
 20
-66.30005856326306
 30
0.0000000000818545
 11
5409.19129598508
 21
-66.30005856326306
 31
0.0000000000818545
  0
LINE
  5
9B
330
1F
100
AcDbEntity
  8
DEFAULT
100
AcDbLine
 10
5409.19129598508
 20
-66.30005856326306
 30
0.0000000000818545
 11
5409.19129598508
 21
-65.10005856326325
 31
0.0000000000818545
  0
LINE
  5
9C
330
1F
100
AcDbEntity
  8
DEFAULT
100
AcDbLine
 10
5409.19129598508
 20
-65.10005856326325
 30
0.0000000000818545
 11
5411.591295985079
 21
-65.10005856326325
 31
0.0000000000818545
  0
LINE
  5
9D
330
1F
100
AcDbEntity
  8
DEFAULT
100
AcDbLine
 10
5411.591295985079
 20
-65.10005856326325
 30
0.0000000000818545
 11
5411.591295985079
 21
-66.30005856326306
 31
0.0000000000818545
  0
LINE
  5
9E
330
1F
100
AcDbEntity
  8
DEFAULT
100
AcDbLine
 10
5411.591295985079
 20
-66.30005856326306
 30
0.0000000000818545
 11
5416.591295985079
 21
-66.30005856326306
 31
0.0000000000818545
  0
LINE
  5
9F
330
1F
100
AcDbEntity
  8
DEFAULT
100
AcDbLine
 10
5416.591295985079
 20
-66.30005856326306
 30
0.0000000000818545
 11
5416.591295985079
 21
-61.7986649999234
 31
0.0000000000818545
  0
LINE
  5
A0
330
1F
100
AcDbEntity
  8
DEFAULT
100
AcDbLine
 10
5416.591295985079
 20
-61.7986649999234
 30
0.0000000000818545
 11
5422.091295985079
 21
-61.79727143658465
 31
0.0000000000818545
  0
LINE
  5
A1
330
1F
100
AcDbEntity
  8
DEFAULT
100
AcDbLine
 10
5422.091295985079
 20
-61.79727143658465
 30
0.0000000000818545
 11
5422.091295985079
 21
-49.79727143658465
 31
0.0000000000818545
  0
LINE
  5
A2
330
1F
100
AcDbEntity
  8
DEFAULT
100
AcDbLine
 10
5422.091295985079
 20
-49.79727143658465
 30
0.0000000000818545
 11
5416.591295985079
 21
-49.79727143658465
 31
0.0000000000818545
  0
LINE
  5
A3
330
1F
100
AcDbEntity
  8
DEFAULT
100
AcDbLine
 10
5416.591295985079
 20
-49.79727143658465
 30
0.0000000000818545
 11
5416.591295985079
 21
-42.54727143658283
 31
0.0000000000818545
  0
LINE
  5
A4
330
1F
100
AcDbEntity
  8
DEFAULT
100
AcDbLine
 10
5416.591295985079
 20
-42.54727143658283
 30
0.0000000000818545
 11
5396.591295985079
 21
-42.54727143658283
 31
0.0000000000818545
  0
LINE
  5
A5
330
1F
100
AcDbEntity
  8
DEFAULT
100
AcDbLine
 10
5396.591295985079
 20
-42.54727143658283
 30
0.0000000000818545
 11
5396.591295985079
 21
-40.04727143658283
 31
0.0000000000818545
  0
LINE
  5
A6
330
1F
100
AcDbEntity
  8
DEFAULT
100
AcDbLine
 10
5396.591295985079
 20
-40.04727143658283
 30
0.0000000000818545
 11
5396.591295985079
 21
-28.04727143658283
 31
0.0000000000818545
  0
LINE
  5
A7
330
1F
100
AcDbEntity
  8
DEFAULT
100
AcDbLine
 10
5396.591295985079
 20
-28.04727143658283
 30
0.0000000000818545
 11
5391.091295985079
 21
-28.04727143658283
 31
0.0000000000818545
  0
LINE
  5
A8
330
1F
100
AcDbEntity
  8
DEFAULT
100
AcDbLine
 10
5391.091295985079
 20
-28.04727143658283
 30
0.0000000000818545
 11
5391.091295985079
 21
-16.04727143658283
 31
0.0000000000818545
  0
LINE
  5
A9
330
1F
100
AcDbEntity
  8
DEFAULT
100
AcDbLine
 10
5391.091295985079
 20
-16.04727143658283
 30
0.0000000000818545
 11
5396.591295985079
 21
-16.04727143658283
 31
0.0000000000818545
  0
LINE
  5
AA
330
1F
100
AcDbEntity
  8
DEFAULT
100
AcDbLine
 10
5396.591295985079
 20
-16.04727143658283
 30
0.0000000000818545
 11
5396.591295985079
 21
-9.547271436582832
 31
0.0000000000818545
  0
LINE
  5
AB
330
1F
100
AcDbEntity
  8
DEFAULT
100
AcDbLine
 10
5396.591295985079
 20
-9.547271436582832
 30
0.0000000000818545
 11
5310.591295985079
 21
-9.547271436584651
 31
0.0000000000818545
  0
LINE
  5
AC
330
1F
100
AcDbEntity
  8
DEFAULT
100
AcDbLine
 10
5310.591295985079
 20
-9.547271436584651
 30
0.0000000000818545
 11
5310.591295985079
 21
-16.04727143658283
 31
0.0000000000818545
  0
LINE
  5
AD
330
1F
100
AcDbEntity
  8
DEFAULT
100
AcDbLine
 10
5310.591295985079
 20
-16.04727143658283
 30
0.0000000000818545
 11
5316.091295985079
 21
-16.04727143658283
 31
0.0000000003728928
  0
LINE
  5
AE
330
1F
100
AcDbEntity
  8
DEFAULT
100
AcDbLine
 10
5316.091295985079
 20
-16.04727143658283
 30
0.0000000003728928
 11
5316.091295985079
 21
-28.04727143658283
 31
0.0000000000818545
  0
LINE
  5
AF
330
1F
100
AcDbEntity
  8
DEFAULT
100
AcDbLine
 10
5316.091295985079
 20
-28.04727143658283
 30
0.0000000000818545
 11
5310.591295985079
 21
-28.04727143658283
 31
0.0000000002273737
  0
LINE
  5
B0
330
1F
100
AcDbEntity
  8
DEFAULT
100
AcDbLine
 10
5310.591295985079
 20
-28.04727143658283
 30
0.0000000002273737
 11
5310.591295985079
 21
-40.04727143658283
 31
0.0000000001073204
  0
LINE
  5
B1
330
1F
100
AcDbEntity
  8
DEFAULT
100
AcDbLine
 10
5310.591295985079
 20
-40.04727143658283
 30
0.0000000001073204
 11
5310.591295985079
 21
-42.54727143658465
 31
0.0000000000818545
  0
LINE
  5
B2
330
1F
100
AcDbEntity
  8
DEFAULT
100
AcDbLine
 10
5310.591295985079
 20
-42.54727143658465
 30
0.0000000000818545
 11
5290.591295985079
 21
-42.54727143658465
 31
0.0000000000818545
  0
LINE
  5
B3
330
1F
100
AcDbEntity
  8
DEFAULT
100
AcDbLine
 10
5290.591295985079
 20
-42.54727143658465
 30
0.0000000000818545
 11
5290.591295985079
 21
-49.79727143658465
 31
0.0000000000818545
  0
LINE
  5
B4
330
1F
100
AcDbEntity
  8
DEFAULT
100
AcDbLine
 10
5290.591295985079
 20
-49.79727143658465
 30
0.0000000000818545
 11
5285.091295985079
 21
-49.79727143658465
 31
0.0000000000818545
  0
LINE
  5
B5
330
1F
100
AcDbEntity
  8
DEFAULT
100
AcDbLine
 10
5285.091295985079
 20
-49.79727143658465
 30
0.0000000000818545
 11
5285.091295985079
 21
-61.79727143658465
 31
0.0000000000818545
  0
LINE
  5
B6
330
1F
100
AcDbEntity
  8
DEFAULT
100
AcDbLine
 10
5285.091295985079
 20
-61.79727143658465
 30
0.0000000000818545
 11
5290.591295985079
 21
-61.7986649999234
 31
0.0000000000818545
  0
LINE
  5
B7
330
1F
100
AcDbEntity
  8
DEFAULT
100
AcDbLine
 10
5290.591295985079
 20
-61.7986649999234
 30
0.0000000000818545
 11
5290.591295985079
 21
-66.29727143658465
 31
0.0000000000818545
  0
LINE
  5
B8
330
1F
100
AcDbEntity
  8
DEFAULT
100
AcDbLine
 10
5290.591295985079
 20
-66.29727143658465
 30
0.0000000000818545
 11
5295.591295985079
 21
-66.29727143658465
 31
0.0000000000818545
  0
LINE
  5
B9
330
1F
100
AcDbEntity
  8
DEFAULT
100
AcDbLine
 10
5295.591295985079
 20
-66.29727143658465
 30
0.0000000000818545
 11
5295.591295985079
 21
-65.09727143658483
 31
0.0000000000818545
  0
LINE
  5
BA
330
1F
100
AcDbEntity
  8
DEFAULT
100
AcDbLine
 10
5295.591295985079
 20
-65.09727143658483
 30
0.0000000000818545
 11
5297.991295985079
 21
-65.09727143658483
 31
0.0000000000818545
  0
LINE
  5
BB
330
1F
100
AcDbEntity
  8
DEFAULT
100
AcDbLine
 10
5297.991295985079
 20
-65.09727143658483
 30
0.0000000000818545
 11
5297.991295985079
 21
-66.29727143658465
 31
0.0000000000818545
  0
LINE
  5
BC
330
1F
100
AcDbEntity
  8
DEFAULT
100
AcDbLine
 10
5297.991295985079
 20
-66.29727143658465
 30
0.0000000000818545
 11
5299.991295985079
 21
-66.29727143658465
 31
0.0000000000818545
  0
LINE
  5
BD
330
1F
100
AcDbEntity
  8
DEFAULT
100
AcDbLine
 10
5299.991295985079
 20
-66.29727143658465
 30
0.0000000000818545
 11
5299.991295985079
 21
-69.29727143658465
 31
0.0000000000818545
  0
LINE
  5
BE
330
1F
100
AcDbEntity
  8
DEFAULT
100
AcDbLine
 10
5299.991295985079
 20
-69.29727143658465
 30
0.0000000000818545
 11
5297.991295985079
 21
-69.29727143658465
 31
0.0000000000818545
  0
LINE
  5
BF
330
1F
100
AcDbEntity
  8
DEFAULT
100
AcDbLine
 10
5297.991295985079
 20
-69.29727143658465
 30
0.0000000000818545
 11
5297.991295985079
 21
-70.49727143658447
 31
0.0000000000818545
  0
LINE
  5
C0
330
1F
100
AcDbEntity
  8
DEFAULT
100
AcDbLine
 10
5297.991295985079
 20
-70.49727143658447
 30
0.0000000000818545
 11
5295.591295985079
 21
-70.49727143658447
 31
0.0000000000818545
  0
LINE
  5
C1
330
1F
100
AcDbEntity
  8
DEFAULT
100
AcDbLine
 10
5295.591295985079
 20
-70.49727143658447
 30
0.0000000000818545
 11
5295.591295985079
 21
-69.29727143658465
 31
0.0000000000818545
  0
LINE
  5
C2
330
1F
100
AcDbEntity
  8
DEFAULT
100
AcDbLine
 10
5295.591295985079
 20
-69.29727143658465
 30
0.0000000000818545
 11
5290.591295985079
 21
-69.29727143658465
 31
0.0000000000818545
  0
LINE
  5
C3
330
1F
100
AcDbEntity
  8
DEFAULT
100
AcDbLine
 10
5290.591295985079
 20
-69.29727143658465
 30
0.0000000000818545
 11
5290.591295985079
 21
-73.79727143658465
 31
0.0000000000818545
  0
LINE
  5
C4
330
1F
100
AcDbEntity
  8
DEFAULT
100
AcDbLine
 10
5290.591295985079
 20
-73.79727143658465
 30
0.0000000000818545
 11
5285.091295985079
 21
-73.79727143658465
 31
0.0000000000818545
  0
LINE
  5
C5
330
1F
100
AcDbEntity
  8
DEFAULT
100
AcDbLine
 10
5285.091295985079
 20
-73.79727143658465
 30
0.0000000000818545
 11
5285.091295985079
 21
-85.79727143658465
 31
0.0000000000818545
  0
LINE
  5
C6
330
1F
100
AcDbEntity
  8
DEFAULT
100
AcDbLine
 10
5285.091295985079
 20
-85.79727143658465
 30
0.0000000000818545
 11
5290.591295985079
 21
-85.79727143658465
 31
0.0000000000818545
  0
LINE
  5
C7
330
1F
100
AcDbEntity
  8
DEFAULT
100
AcDbLine
 10
5290.591295985079
 20
-85.79727143658465
 30
0.0000000000818545
 11
5290.591295985079
 21
-97.79727143658465
 31
0.0000000000818545
  0
LINE
  5
C8
330
1F
100
AcDbEntity
  8
DEFAULT
100
AcDbLine
 10
5290.591295985079
 20
-97.79727143658465
 30
0.0000000000818545
 11
5285.091295985079
 21
-97.79727143658465
 31
0.0000000000818545
  0
LINE
  5
C9
330
1F
100
AcDbEntity
  8
DEFAULT
100
AcDbLine
 10
5285.091295985079
 20
-97.79727143658465
 30
0.0000000000818545
 11
5285.091295985079
 21
-109.7972714365847
 31
0.0000000000818545
  0
LINE
  5
CA
330
1F
100
AcDbEntity
  8
DEFAULT
100
AcDbLine
 10
5285.091295985079
 20
-109.7972714365847
 30
0.0000000000818545
 11
5290.591295985079
 21
-109.7972714365847
 31
0.0000000000818545
  0
LINE
  5
CB
330
1F
100
AcDbEntity
  8
DEFAULT
100
AcDbLine
 10
5290.591295985079
 20
-109.7972714365847
 30
0.0000000000818545
 11
5290.591295985079
 21
-121.7972714365847
 31
0.0000000000818545
  0
LINE
  5
CC
330
1F
100
AcDbEntity
  8
DEFAULT
100
AcDbLine
 10
5290.591295985079
 20
-121.7972714365847
 30
0.0000000000818545
 11
5285.091295985079
 21
-121.7972714365847
 31
0.0000000000818545
  0
LINE
  5
CD
330
1F
100
AcDbEntity
  8
DEFAULT
100
AcDbLine
 10
5285.091295985079
 20
-121.7972714365847
 30
0.0000000000818545
 11
5285.091295985079
 21
-133.7972714365847
 31
0.0000000000818545
  0
LINE
  5
CE
330
1F
100
AcDbEntity
  8
DEFAULT
100
AcDbLine
 10
5285.091295985079
 20
-133.7972714365847
 30
0.0000000000818545
 11
5290.591295985079
 21
-133.7986649999234
 31
0.0000000000818545
  0
LINE
  5
CF
330
1F
100
AcDbEntity
  8
DEFAULT
100
AcDbLine
 10
5290.591295985079
 20
-133.7986649999234
 30
0.0000000000818545
 11
5290.591295985079
 21
-138.2972714365847
 31
0.0000000000818545
  0
LINE
  5
D0
330
1F
100
AcDbEntity
  8
DEFAULT
100
AcDbLine
 10
5290.591295985079
 20
-138.2972714365847
 30
0.0000000000818545
 11
5295.591295985079
 21
-138.2972714365847
 31
0.0000000000818545
  0
LINE
  5
D1
330
1F
100
AcDbEntity
  8
DEFAULT
100
AcDbLine
 10
5295.591295985079
 20
-138.2972714365847
 30
0.0000000000818545
 11
5295.591295985079
 21
-137.0972714365848
 31
0.0000000000818545
  0
LINE
  5
D2
330
1F
100
AcDbEntity
  8
DEFAULT
100
AcDbLine
 10
5295.591295985079
 20
-137.0972714365848
 30
0.0000000000818545
 11
5297.991295985079
 21
-137.0972714365848
 31
0.0000000000818545
  0
LINE
  5
D3
330
1F
100
AcDbEntity
  8
DEFAULT
100
AcDbLine
 10
5297.991295985079
 20
-137.0972714365848
 30
0.0000000000818545
 11
5297.991295985079
 21
-138.2972714365847
 31
0.0000000000818545
  0
LINE
  5
D4
330
1F
100
AcDbEntity
  8
DEFAULT
100
AcDbLine
 10
5297.991295985079
 20
-138.2972714365847
 30
0.0000000000818545
 11
5299.991295985079
 21
-138.2972714365847
 31
0.0000000000818545
  0
LINE
  5
D5
330
1F
100
AcDbEntity
  8
DEFAULT
100
AcDbLine
 10
5299.991295985079
 20
-138.2972714365847
 30
0.0000000000818545
 11
5299.991295985079
 21
-141.2972714365847
 31
0.0000000000818545
  0
LINE
  5
D6
330
1F
100
AcDbEntity
  8
DEFAULT
100
AcDbLine
 10
5299.991295985079
 20
-141.2972714365847
 30
0.0000000000818545
 11
5297.991295985079
 21
-141.2972714365847
 31
0.0000000000818545
  0
LINE
  5
D7
330
1F
100
AcDbEntity
  8
DEFAULT
100
AcDbLine
 10
5297.991295985079
 20
-141.2972714365847
 30
0.0000000000818545
 11
5297.991295985079
 21
-142.4972714365845
 31
0.0000000000818545
  0
LINE
  5
D8
330
1F
100
AcDbEntity
  8
DEFAULT
100
AcDbLine
 10
5297.991295985079
 20
-142.4972714365845
 30
0.0000000000818545
 11
5295.591295985079
 21
-142.4972714365845
 31
0.0000000000818545
  0
LINE
  5
D9
330
1F
100
AcDbEntity
  8
DEFAULT
100
AcDbLine
 10
5295.591295985079
 20
-142.4972714365845
 30
0.0000000000818545
 11
5295.591295985079
 21
-141.2972714365847
 31
0.0000000000818545
  0
LINE
  5
DA
330
1F
100
AcDbEntity
  8
DEFAULT
100
AcDbLine
 10
5295.591295985079
 20
-141.2972714365847
 30
0.0000000000818545
 11
5290.591295985079
 21
-141.2972714365847
 31
0.0000000000818545
  0
LINE
  5
DB
330
1F
100
AcDbEntity
  8
DEFAULT
100
AcDbLine
 10
5290.591295985079
 20
-141.2972714365847
 30
0.0000000000818545
 11
5290.591295985079
 21
-145.7972714365847
 31
0.0000000000818545
  0
LINE
  5
DC
330
1F
100
AcDbEntity
  8
DEFAULT
100
AcDbLine
 10
5290.591295985079
 20
-145.7972714365847
 30
0.0000000000818545
 11
5285.091295985079
 21
-145.7972714365847
 31
0.0000000000818545
  0
LINE
  5
DD
330
1F
100
AcDbEntity
  8
DEFAULT
100
AcDbLine
 10
5285.091295985079
 20
-145.7972714365847
 30
0.0000000000818545
 11
5285.091295985079
 21
-157.7972714365847
 31
0.0000000000818545
  0
LINE
  5
DE
330
1F
100
AcDbEntity
  8
DEFAULT
100
AcDbLine
 10
5285.091295985079
 20
-157.7972714365847
 30
0.0000000000818545
 11
5290.591295985079
 21
-157.7972714365847
 31
0.0000000000818545
  0
LINE
  5
DF
330
1F
100
AcDbEntity
  8
DEFAULT
100
AcDbLine
 10
5290.591295985079
 20
-157.7972714365847
 30
0.0000000000818545
 11
5290.591295985079
 21
-165.0472714365828
 31
0.0000000000818545
  0
LINE
  5
E0
330
1F
100
AcDbEntity
  8
DEFAULT
100
AcDbLine
 10
5290.591295985079
 20
-165.0472714365828
 30
0.0000000000818545
 11
5310.591295985079
 21
-165.0472714365828
 31
0.0000000000818545
  0
LINE
  5
E1
330
1F
100
AcDbEntity
  8
DEFAULT
100
AcDbLine
 10
5310.591295985079
 20
-165.0472714365828
 30
0.0000000000818545
 11
5310.591295985079
 21
-175.0472714365828
 31
0.0000000000818545
  0
LINE
  5
E2
330
1F
100
AcDbEntity
  8
DEFAULT
100
AcDbLine
 10
5310.591295985079
 20
-175.0472714365828
 30
0.0000000000818545
 11
5396.591295985079
 21
-175.0472714365828
 31
0.0000000000818545
  0
LINE
  5
E3
330
1F
100
AcDbEntity
  8
DEFAULT
100
AcDbLine
 10
5396.591295985079
 20
-175.0472714365828
 30
0.0000000000818545
 11
5396.591295985079
 21
-165.0472714365828
 31
0.0000000000818545
  0
LINE
  5
E4
330
1F
100
AcDbEntity
  8
DEFAULT
100
AcDbLine
 10
5396.591295985079
 20
-165.0472714365828
 30
0.0000000000818545
 11
5416.591295985079
 21
-165.0472714365828
 31
0.0000000000818545
  0
LINE
  5
E5
330
1F
100
AcDbEntity
  8
DEFAULT
100
AcDbLine
 10
5416.591295985079
 20
-165.0472714365828
 30
0.0000000000818545
 11
5416.591295985079
 21
-157.7972714365847
 31
0.0000000000818545
  0
LINE
  5
E6
330
1F
100
AcDbEntity
  8
DEFAULT
100
AcDbLine
 10
5416.591295985079
 20
-157.7972714365847
 30
0.0000000000818545
 11
5422.091295985079
 21
-157.7972714365847
 31
0.0000000000818545
  0
LINE
  5
E7
330
1F
100
AcDbEntity
  8
DEFAULT
100
AcDbLine
 10
5422.091295985079
 20
-157.7972714365847
 30
0.0000000000818545
 11
5422.091295985079
 21
-145.7972714365847
 31
0.0000000000818545
  0
LINE
  5
E8
330
1F
100
AcDbEntity
  8
DEFAULT
100
AcDbLine
 10
5422.091295985079
 20
-145.7972714365847
 30
0.0000000000818545
 11
5416.591295985079
 21
-145.7972714365847
 31
0.0000000000818545
  0
LINE
  5
E9
330
1F
100
AcDbEntity
  8
DEFAULT
100
AcDbLine
 10
5416.591295985079
 20
-145.7972714365847
 30
0.0000000000818545
 11
5416.591295985079
 21
-141.3000585632631
 31
0.0000000000818545
  0
LINE
  5
EA
330
1F
100
AcDbEntity
  8
DEFAULT
100
AcDbLine
 10
5416.591295985079
 20
-141.3000585632631
 30
0.0000000000818545
 11
5411.591295985079
 21
-141.3000585632631
 31
0.0000000000818545
  0
LINE
  5
EB
330
1F
100
AcDbEntity
  8
DEFAULT
100
AcDbLine
 10
5411.591295985079
 20
-141.3000585632631
 30
0.0000000000818545
 11
5411.591295985079
 21
-142.5000585632629
 31
0.0000000000818545
  0
LINE
  5
EC
330
1F
100
AcDbEntity
  8
DEFAULT
100
AcDbLine
 10
5411.591295985079
 20
-142.5000585632629
 30
0.0000000000818545
 11
5409.19129598508
 21
-142.5000585632629
 31
0.0000000000818545
  0
LINE
  5
ED
330
1F
100
AcDbEntity
  8
DEFAULT
100
AcDbLine
 10
5409.19129598508
 20
-142.5000585632629
 30
0.0000000000818545
 11
5409.19129598508
 21
-141.3000585632631
 31
0.0000000000818545
  0
LINE
  5
EE
330
1F
100
AcDbEntity
  8
DEFAULT
100
AcDbLine
 10
5409.19129598508
 20
-141.3000585632631
 30
0.0000000000818545
 11
5407.19129598508
 21
-141.3000585632631
 31
0.0000000000818545
  0
LINE
  5
EF
330
1F
100
AcDbEntity
  8
DEFAULT
100
AcDbLine
 10
5407.19129598508
 20
-141.3000585632631
 30
0.0000000000818545
 11
5407.19129598508
 21
-138.3000585632631
 31
0.0000000000818545
  0
LINE
  5
F0
330
1F
100
AcDbEntity
  8
DEFAULT
100
AcDbLine
 10
5407.19129598508
 20
-138.3000585632631
 30
0.0000000000818545
 11
5409.19129598508
 21
-138.3000585632631
 31
0.0000000000818545
  0
LINE
  5
F1
330
1F
100
AcDbEntity
  8
DEFAULT
100
AcDbLine
 10
5409.19129598508
 20
-138.3000585632631
 30
0.0000000000818545
 11
5409.19129598508
 21
-137.1000585632632
 31
0.0000000000818545
  0
LINE
  5
F2
330
1F
100
AcDbEntity
  8
DEFAULT
100
AcDbLine
 10
5409.19129598508
 20
-137.1000585632632
 30
0.0000000000818545
 11
5411.591295985079
 21
-137.1000585632632
 31
0.0000000000818545
  0
LINE
  5
F3
330
1F
100
AcDbEntity
  8
DEFAULT
100
AcDbLine
 10
5411.591295985079
 20
-137.1000585632632
 30
0.0000000000818545
 11
5411.591295985079
 21
-138.3000585632631
 31
0.0000000000818545
  0
LINE
  5
F4
330
1F
100
AcDbEntity
  8
DEFAULT
100
AcDbLine
 10
5411.591295985079
 20
-138.3000585632631
 30
0.0000000000818545
 11
5416.591295985079
 21
-138.3000585632631
 31
0.0000000000818545
  0
LINE
  5
F5
330
1F
100
AcDbEntity
  8
DEFAULT
100
AcDbLine
 10
5453.99129598508
 20
-156.5472714365828
 30
0.0
 11
5448.691295985081
 21
-156.5472714365828
 31
0.0
  0
LINE
  5
F6
330
1F
100
AcDbEntity
  8
DEFAULT
100
AcDbLine
 10
5448.691295985081
 20
-156.5472714365828
 30
0.0
 11
5448.691295985081
 21
-168.5472714365828
 31
0.0
  0
LINE
  5
F7
330
1F
100
AcDbEntity
  8
DEFAULT
100
AcDbLine
 10
5448.691295985081
 20
-168.5472714365828
 30
0.0
 11
5453.99129598508
 21
-168.5472714365828
 31
0.0
  0
LINE
  5
F8
330
1F
100
AcDbEntity
  8
DEFAULT
100
AcDbLine
 10
5453.99129598508
 20
-168.5472714365828
 30
0.0
 11
5453.99129598508
 21
-156.5472714365828
 31
0.0
  0
LINE
  5
F9
330
1F
100
AcDbEntity
  8
DEFAULT
100
AcDbLine
 10
5391.19129598508
 20
-52.54727143658283
 30
0.0000000000818545
 11
5396.49129598508
 21
-52.54727143658283
 31
0.0000000000818545
  0
LINE
  5
FA
330
1F
100
AcDbEntity
  8
DEFAULT
100
AcDbLine
 10
5396.49129598508
 20
-52.54727143658283
 30
0.0000000000818545
 11
5396.49129598508
 21
-64.54727143658283
 31
0.0000000000818545
  0
LINE
  5
FB
330
1F
100
AcDbEntity
  8
DEFAULT
100
AcDbLine
 10
5396.49129598508
 20
-64.54727143658283
 30
0.0000000000818545
 11
5391.19129598508
 21
-64.54727143658283
 31
0.0000000000818545
  0
LINE
  5
FC
330
1F
100
AcDbEntity
  8
DEFAULT
100
AcDbLine
 10
5391.19129598508
 20
-64.54727143658283
 30
0.0000000000818545
 11
5391.19129598508
 21
-52.54727143658283
 31
0.0000000000818545
  0
LINE
  5
FD
330
1F
100
AcDbEntity
  8
DEFAULT
100
AcDbLine
 10
5473.591295985079
 20
-149.9472714365834
 30
0.0
 11
5473.591295985079
 21
-144.6472714365832
 31
0.0
  0
LINE
  5
FE
330
1F
100
AcDbEntity
  8
DEFAULT
100
AcDbLine
 10
5473.591295985079
 20
-144.6472714365832
 30
0.0
 11
5461.591295985079
 21
-144.6472714365832
 31
0.0
  0
LINE
  5
FF
330
1F
100
AcDbEntity
  8
DEFAULT
100
AcDbLine
 10
5461.591295985079
 20
-144.6472714365832
 30
0.0
 11
5461.591295985079
 21
-149.9472714365834
 31
0.0
  0
LINE
  5
100
330
1F
100
AcDbEntity
  8
DEFAULT
100
AcDbLine
 10
5461.591295985079
 20
-149.9472714365834
 30
0.0
 11
5473.591295985079
 21
-149.9472714365834
 31
0.0
  0
LINE
  5
101
330
1F
100
AcDbEntity
  8
DEFAULT
100
AcDbLine
 10
5497.591295985079
 20
-149.9472714365834
 30
0.0
 11
5497.591295985079
 21
-144.6472714365832
 31
0.0
  0
LINE
  5
102
330
1F
100
AcDbEntity
  8
DEFAULT
100
AcDbLine
 10
5497.591295985079
 20
-144.6472714365832
 30
0.0
 11
5485.591295985079
 21
-144.6472714365832
 31
0.0
  0
LINE
  5
103
330
1F
100
AcDbEntity
  8
DEFAULT
100
AcDbLine
 10
5485.591295985079
 20
-144.6472714365832
 30
0.0
 11
5485.591295985079
 21
-149.9472714365834
 31
0.0
  0
LINE
  5
104
330
1F
100
AcDbEntity
  8
DEFAULT
100
AcDbLine
 10
5485.591295985079
 20
-149.9472714365834
 30
0.0
 11
5497.591295985079
 21
-149.9472714365834
 31
0.0
  0
LINE
  5
105
330
1F
100
AcDbEntity
  8
DEFAULT
100
AcDbLine
 10
5534.49129598508
 20
-168.5472714365828
 30
0.0000000002910383
 11
5529.191295985081
 21
-168.5472714365828
 31
0.0000000002910383
  0
LINE
  5
106
330
1F
100
AcDbEntity
  8
DEFAULT
100
AcDbLine
 10
5529.191295985081
 20
-168.5472714365828
 30
0.0000000002910383
 11
5529.191295985081
 21
-156.5472714365828
 31
0.0
  0
LINE
  5
107
330
1F
100
AcDbEntity
  8
DEFAULT
100
AcDbLine
 10
5529.191295985081
 20
-156.5472714365828
 30
0.0
 11
5534.49129598508
 21
-156.5472714365828
 31
0.0
  0
LINE
  5
108
330
1F
100
AcDbEntity
  8
DEFAULT
100
AcDbLine
 10
5534.49129598508
 20
-156.5472714365828
 30
0.0
 11
5534.49129598508
 21
-168.5472714365828
 31
0.0000000002910383
  0
LINE
  5
109
330
1F
100
AcDbEntity
  8
DEFAULT
100
AcDbLine
 10
5453.99129598508
 20
-95.04727143658283
 30
0.0
 11
5448.691295985081
 21
-95.04727143658283
 31
0.0
  0
LINE
  5
10A
330
1F
100
AcDbEntity
  8
DEFAULT
100
AcDbLine
 10
5448.691295985081
 20
-95.04727143658283
 30
0.0
 11
5448.691295985081
 21
-107.0472714365828
 31
0.0
  0
LINE
  5
10B
330
1F
100
AcDbEntity
  8
DEFAULT
100
AcDbLine
 10
5448.691295985081
 20
-107.0472714365828
 30
0.0
 11
5453.99129598508
 21
-107.0472714365828
 31
0.0
  0
LINE
  5
10C
330
1F
100
AcDbEntity
  8
DEFAULT
100
AcDbLine
 10
5453.99129598508
 20
-107.0472714365828
 30
0.0
 11
5453.99129598508
 21
-95.04727143658283
 31
0.0
  0
LINE
  5
10D
330
1F
100
AcDbEntity
  8
DEFAULT
100
AcDbLine
 10
5534.49129598508
 20
-107.0472714365828
 30
0.0000000002910383
 11
5529.191295985081
 21
-107.0472714365828
 31
0.0000000002910383
  0
LINE
  5
10E
330
1F
100
AcDbEntity
  8
DEFAULT
100
AcDbLine
 10
5529.191295985081
 20
-107.0472714365828
 30
0.0000000002910383
 11
5529.191295985081
 21
-95.04727143658283
 31
0.0
  0
LINE
  5
10F
330
1F
100
AcDbEntity
  8
DEFAULT
100
AcDbLine
 10
5529.191295985081
 20
-95.04727143658283
 30
0.0
 11
5534.49129598508
 21
-95.04727143658283
 31
0.0
  0
LINE
  5
110
330
1F
100
AcDbEntity
  8
DEFAULT
100
AcDbLine
 10
5534.49129598508
 20
-95.04727143658283
 30
0.0
 11
5534.49129598508
 21
-107.0472714365828
 31
0.0000000002910383
  0
LINE
  5
111
330
1F
100
AcDbEntity
  8
DEFAULT
100
AcDbLine
 10
5547.191295985081
 20
-87.65569685094715
 30
0.0
 11
5545.191295985081
 21
-87.65569685094715
 31
0.0
  0
LINE
  5
112
330
1F
100
AcDbEntity
  8
DEFAULT
100
AcDbLine
 10
5545.191295985081
 20
-87.65569685094715
 30
0.0
 11
5545.191295985081
 21
-84.65569685094715
 31
0.0
  0
LINE
  5
113
330
1F
100
AcDbEntity
  8
DEFAULT
100
AcDbLine
 10
5545.191295985081
 20
-84.65569685094715
 30
0.0
 11
5547.191295985081
 21
-84.65569685094715
 31
0.0
  0
LINE
  5
114
330
1F
100
AcDbEntity
  8
DEFAULT
100
AcDbLine
 10
5547.191295985081
 20
-84.65569685094715
 30
0.0
 11
5547.191295985081
 21
-83.45569685094733
 31
0.0
  0
LINE
  5
115
330
1F
100
AcDbEntity
  8
DEFAULT
100
AcDbLine
 10
5547.191295985081
 20
-83.45569685094733
 30
0.0
 11
5549.59129598508
 21
-83.45569685094733
 31
0.0
  0
LINE
  5
116
330
1F
100
AcDbEntity
  8
DEFAULT
100
AcDbLine
 10
5549.59129598508
 20
-83.45569685094733
 30
0.0
 11
5549.59129598508
 21
-84.65569685094715
 31
0.0
  0
LINE
  5
117
330
1F
100
AcDbEntity
  8
DEFAULT
100
AcDbLine
 10
5549.59129598508
 20
-84.65569685094715
 30
0.0
 11
5554.59129598508
 21
-84.65569685094715
 31
0.0
  0
LINE
  5
118
330
1F
100
AcDbEntity
  8
DEFAULT
100
AcDbLine
 10
5554.59129598508
 20
-84.65569685094715
 30
0.0
 11
5554.59129598508
 21
-80.15569685094715
 31
0.0
  0
LINE
  5
119
330
1F
100
AcDbEntity
  8
DEFAULT
100
AcDbLine
 10
5554.59129598508
 20
-80.15569685094715
 30
0.0
 11
5560.09129598508
 21
-80.15569685094715
 31
0.0
  0
LINE
  5
11A
330
1F
100
AcDbEntity
  8
DEFAULT
100
AcDbLine
 10
5560.09129598508
 20
-80.15569685094715
 30
0.0
 11
5560.09129598508
 21
-68.15569685094715
 31
0.0
  0
LINE
  5
11B
330
1F
100
AcDbEntity
  8
DEFAULT
100
AcDbLine
 10
5560.09129598508
 20
-68.15569685094715
 30
0.0
 11
5554.59129598508
 21
-68.15569685094715
 31
0.0
  0
LINE
  5
11C
330
1F
100
AcDbEntity
  8
DEFAULT
100
AcDbLine
 10
5554.59129598508
 20
-68.15569685094715
 30
0.0
 11
5554.59129598508
 21
-51.76412226531147
 31
0.0
  0
LINE
  5
11D
330
1F
100
AcDbEntity
  8
DEFAULT
100
AcDbLine
 10
5554.59129598508
 20
-51.76412226531147
 30
0.0
 11
5534.59129598508
 21
-51.76412226531147
 31
0.0
  0
LINE
  5
11E
330
1F
100
AcDbEntity
  8
DEFAULT
100
AcDbLine
 10
5534.59129598508
 20
-51.76412226531147
 30
0.0
 11
5534.59129598508
 21
-59.04727143658283
 31
0.0000000002910383
  0
LINE
  5
11F
330
1F
100
AcDbEntity
  8
DEFAULT
100
AcDbLine
 10
5534.59129598508
 20
-59.04727143658283
 30
0.0000000002910383
 11
5529.09129598508
 21
-59.04727143658283
 31
0.0000000002910383
  0
LINE
  5
120
330
1F
100
AcDbEntity
  8
DEFAULT
100
AcDbLine
 10
5529.09129598508
 20
-59.04727143658283
 30
0.0000000002910383
 11
5529.09129598508
 21
-47.04727143658283
 31
0.0
  0
LINE
  5
121
330
1F
100
AcDbEntity
  8
DEFAULT
100
AcDbLine
 10
5529.09129598508
 20
-47.04727143658283
 30
0.0
 11
5534.59129598508
 21
-47.04727143658283
 31
0.0000000001455192
  0
LINE
  5
122
330
1F
100
AcDbEntity
  8
DEFAULT
100
AcDbLine
 10
5534.59129598508
 20
-47.04727143658283
 30
0.0000000001455192
 11
5534.591295985074
 21
-44.7452950017273
 31
0.0000000001455192
  0
LINE
  5
123
330
1F
100
AcDbEntity
  8
DEFAULT
100
AcDbLine
 10
5534.591295985074
 20
-44.7452950017273
 30
0.0000000001455192
 11
5534.59129598508
 21
-35.04727143658283
 31
0.0
  0
LINE
  5
124
330
1F
100
AcDbEntity
  8
DEFAULT
100
AcDbLine
 10
5534.59129598508
 20
-35.04727143658283
 30
0.0
 11
5529.09129598508
 21
-35.04727143658283
 31
0.0000000002910383
  0
LINE
  5
125
330
1F
100
AcDbEntity
  8
DEFAULT
100
AcDbLine
 10
5529.09129598508
 20
-35.04727143658283
 30
0.0000000002910383
 11
5529.09129598508
 21
-23.04727143658283
 31
0.0
  0
LINE
  5
126
330
1F
100
AcDbEntity
  8
DEFAULT
100
AcDbLine
 10
5529.09129598508
 20
-23.04727143658283
 30
0.0
 11
5534.59129598508
 21
-23.04727143658283
 31
0.0000000001455192
  0
LINE
  5
127
330
1F
100
AcDbEntity
  8
DEFAULT
100
AcDbLine
 10
5534.59129598508
 20
-23.04727143658283
 30
0.0000000001455192
 11
5534.59129598508
 21
-9.547271436582832
 31
0.0
  0
LINE
  5
128
330
1F
100
AcDbEntity
  8
DEFAULT
100
AcDbLine
 10
5534.59129598508
 20
-9.547271436582832
 30
0.0
 11
5529.09129598508
 21
-9.547271436582832
 31
0.0000000001455192
  0
LINE
  5
129
330
1F
100
AcDbEntity
  8
DEFAULT
100
AcDbLine
 10
5529.09129598508
 20
-9.547271436582832
 30
0.0000000001455192
 11
5454.09129598508
 21
-9.547271436582832
 31
0.0000000000045475
  0
LINE
  5
12A
330
1F
100
AcDbEntity
  8
DEFAULT
100
AcDbLine
 10
5454.09129598508
 20
-9.547271436582832
 30
0.0000000000045475
 11
5448.59129598508
 21
-9.547271436582832
 31
0.0
  0
LINE
  5
12B
330
1F
100
AcDbEntity
  8
DEFAULT
100
AcDbLine
 10
5448.59129598508
 20
-9.547271436582832
 30
0.0
 11
5448.59129598508
 21
-23.04727143658283
 31
0.0
  0
LINE
  5
12C
330
1F
100
AcDbEntity
  8
DEFAULT
100
AcDbLine
 10
5448.59129598508
 20
-23.04727143658283
 30
0.0
 11
5454.09129598508
 21
-23.04727143658283
 31
0.0
  0
LINE
  5
12D
330
1F
100
AcDbEntity
  8
DEFAULT
100
AcDbLine
 10
5454.09129598508
 20
-23.04727143658283
 30
0.0
 11
5454.09129598508
 21
-35.04727143658283
 31
0.0
  0
LINE
  5
12E
330
1F
100
AcDbEntity
  8
DEFAULT
100
AcDbLine
 10
5454.09129598508
 20
-35.04727143658283
 30
0.0
 11
5448.59129598508
 21
-35.04727143658283
 31
0.0
  0
LINE
  5
12F
330
1F
100
AcDbEntity
  8
DEFAULT
100
AcDbLine
 10
5448.59129598508
 20
-35.04727143658283
 30
0.0
 11
5448.59129598508
 21
-47.04727143658283
 31
0.0
  0
LINE
  5
130
330
1F
100
AcDbEntity
  8
DEFAULT
100
AcDbLine
 10
5448.59129598508
 20
-47.04727143658283
 30
0.0
 11
5454.09129598508
 21
-47.04727143658283
 31
0.0
  0
LINE
  5
131
330
1F
100
AcDbEntity
  8
DEFAULT
100
AcDbLine
 10
5454.09129598508
 20
-47.04727143658283
 30
0.0
 11
5454.09129598508
 21
-51.76412226551156
 31
0.0
  0
LINE
  5
132
330
1F
100
AcDbEntity
  8
DEFAULT
100
AcDbLine
 10
5454.09129598508
 20
-51.76412226551156
 30
0.0
 11
5454.09129598508
 21
-59.04727143658283
 31
0.0
  0
LINE
  5
133
330
1F
100
AcDbEntity
  8
DEFAULT
100
AcDbLine
 10
5454.09129598508
 20
-59.04727143658283
 30
0.0
 11
5448.59129598508
 21
-59.04727143658283
 31
0.0
  0
LINE
  5
134
330
1F
100
AcDbEntity
  8
DEFAULT
100
AcDbLine
 10
5448.59129598508
 20
-59.04727143658283
 30
0.0
 11
5448.59129598508
 21
-51.76412226531147
 31
0.0
  0
LINE
  5
135
330
1F
100
AcDbEntity
  8
DEFAULT
100
AcDbLine
 10
5448.59129598508
 20
-51.76412226531147
 30
0.0
 11
5428.59129598508
 21
-51.76412226531147
 31
0.0
  0
LINE
  5
136
330
1F
100
AcDbEntity
  8
DEFAULT
100
AcDbLine
 10
5428.59129598508
 20
-51.76412226531147
 30
0.0
 11
5428.59129598508
 21
-68.15569685094715
 31
0.0
  0
LINE
  5
137
330
1F
100
AcDbEntity
  8
DEFAULT
100
AcDbLine
 10
5428.59129598508
 20
-68.15569685094715
 30
0.0
 11
5423.09129598508
 21
-68.15569685094715
 31
0.0
  0
LINE
  5
138
330
1F
100
AcDbEntity
  8
DEFAULT
100
AcDbLine
 10
5423.09129598508
 20
-68.15569685094715
 30
0.0
 11
5423.09129598508
 21
-80.15569685094715
 31
0.0
  0
LINE
  5
139
330
1F
100
AcDbEntity
  8
DEFAULT
100
AcDbLine
 10
5423.09129598508
 20
-80.15569685094715
 30
0.0
 11
5428.59129598508
 21
-80.1570904142859
 31
0.0
  0
LINE
  5
13A
330
1F
100
AcDbEntity
  8
DEFAULT
100
AcDbLine
 10
5428.59129598508
 20
-80.1570904142859
 30
0.0
 11
5428.59129598508
 21
-84.65569685094715
 31
0.0
  0
LINE
  5
13B
330
1F
100
AcDbEntity
  8
DEFAULT
100
AcDbLine
 10
5428.59129598508
 20
-84.65569685094715
 30
0.0
 11
5433.59129598508
 21
-84.65569685094715
 31
0.0
  0
LINE
  5
13C
330
1F
100
AcDbEntity
  8
DEFAULT
100
AcDbLine
 10
5433.59129598508
 20
-84.65569685094715
 30
0.0
 11
5433.59129598508
 21
-83.45569685094733
 31
0.0
  0
LINE
  5
13D
330
1F
100
AcDbEntity
  8
DEFAULT
100
AcDbLine
 10
5433.59129598508
 20
-83.45569685094733
 30
0.0
 11
5435.99129598508
 21
-83.45569685094733
 31
0.0
  0
LINE
  5
13E
330
1F
100
AcDbEntity
  8
DEFAULT
100
AcDbLine
 10
5435.99129598508
 20
-83.45569685094733
 30
0.0
 11
5435.99129598508
 21
-84.65569685094715
 31
0.0
  0
LINE
  5
13F
330
1F
100
AcDbEntity
  8
DEFAULT
100
AcDbLine
 10
5435.99129598508
 20
-84.65569685094715
 30
0.0
 11
5437.99129598508
 21
-84.65569685094715
 31
0.0
  0
LINE
  5
140
330
1F
100
AcDbEntity
  8
DEFAULT
100
AcDbLine
 10
5437.99129598508
 20
-84.65569685094715
 30
0.0
 11
5437.99129598508
 21
-87.65569685094715
 31
0.0
  0
LINE
  5
141
330
1F
100
AcDbEntity
  8
DEFAULT
100
AcDbLine
 10
5437.99129598508
 20
-87.65569685094715
 30
0.0
 11
5435.99129598508
 21
-87.65569685094715
 31
0.0
  0
LINE
  5
142
330
1F
100
AcDbEntity
  8
DEFAULT
100
AcDbLine
 10
5435.99129598508
 20
-87.65569685094715
 30
0.0
 11
5435.99129598508
 21
-88.85569685094697
 31
0.0
  0
LINE
  5
143
330
1F
100
AcDbEntity
  8
DEFAULT
100
AcDbLine
 10
5435.99129598508
 20
-88.85569685094697
 30
0.0
 11
5433.59129598508
 21
-88.85569685094697
 31
0.0
  0
LINE
  5
144
330
1F
100
AcDbEntity
  8
DEFAULT
100
AcDbLine
 10
5433.59129598508
 20
-88.85569685094697
 30
0.0
 11
5433.59129598508
 21
-87.65569685094715
 31
0.0
  0
LINE
  5
145
330
1F
100
AcDbEntity
  8
DEFAULT
100
AcDbLine
 10
5433.59129598508
 20
-87.65569685094715
 30
0.0
 11
5428.59129598508
 21
-87.65569685094715
 31
0.0
  0
LINE
  5
146
330
1F
100
AcDbEntity
  8
DEFAULT
100
AcDbLine
 10
5428.59129598508
 20
-87.65569685094715
 30
0.0
 11
5428.59129598508
 21
-92.15569685094715
 31
0.0
  0
LINE
  5
147
330
1F
100
AcDbEntity
  8
DEFAULT
100
AcDbLine
 10
5428.59129598508
 20
-92.15569685094715
 30
0.0
 11
5423.09129598508
 21
-92.15569685094715
 31
0.0
  0
LINE
  5
148
330
1F
100
AcDbEntity
  8
DEFAULT
100
AcDbLine
 10
5423.09129598508
 20
-92.15569685094715
 30
0.0
 11
5423.09129598508
 21
-104.1556968509472
 31
0.0
  0
LINE
  5
149
330
1F
100
AcDbEntity
  8
DEFAULT
100
AcDbLine
 10
5423.09129598508
 20
-104.1556968509472
 30
0.0
 11
5428.59129598508
 21
-104.1556968509472
 31
0.0
  0
LINE
  5
14A
330
1F
100
AcDbEntity
  8
DEFAULT
100
AcDbLine
 10
5428.59129598508
 20
-104.1556968509472
 30
0.0
 11
5428.59129598508
 21
-116.1556968509472
 31
0.0
  0
LINE
  5
14B
330
1F
100
AcDbEntity
  8
DEFAULT
100
AcDbLine
 10
5428.59129598508
 20
-116.1556968509472
 30
0.0
 11
5423.09129598508
 21
-116.1556968509472
 31
0.0
  0
LINE
  5
14C
330
1F
100
AcDbEntity
  8
DEFAULT
100
AcDbLine
 10
5423.09129598508
 20
-116.1556968509472
 30
0.0
 11
5423.09129598508
 21
-128.1556968509472
 31
0.0
  0
LINE
  5
14D
330
1F
100
AcDbEntity
  8
DEFAULT
100
AcDbLine
 10
5423.09129598508
 20
-128.1556968509472
 30
0.0
 11
5428.59129598508
 21
-128.1556968509472
 31
0.0
  0
LINE
  5
14E
330
1F
100
AcDbEntity
  8
DEFAULT
100
AcDbLine
 10
5428.59129598508
 20
-128.1556968509472
 30
0.0
 11
5428.59129598508
 21
-132.6529097242687
 31
0.0
  0
LINE
  5
14F
330
1F
100
AcDbEntity
  8
DEFAULT
100
AcDbLine
 10
5428.59129598508
 20
-132.6529097242687
 30
0.0
 11
5433.59129598508
 21
-132.6529097242687
 31
0.0
  0
LINE
  5
150
330
1F
100
AcDbEntity
  8
DEFAULT
100
AcDbLine
 10
5433.59129598508
 20
-132.6529097242687
 30
0.0
 11
5433.59129598508
 21
-131.4529097242689
 31
0.0
  0
LINE
  5
151
330
1F
100
AcDbEntity
  8
DEFAULT
100
AcDbLine
 10
5433.59129598508
 20
-131.4529097242689
 30
0.0
 11
5435.99129598508
 21
-131.4529097242689
 31
0.0
  0
LINE
  5
152
330
1F
100
AcDbEntity
  8
DEFAULT
100
AcDbLine
 10
5435.99129598508
 20
-131.4529097242689
 30
0.0
 11
5435.99129598508
 21
-132.6529097242687
 31
0.0
  0
LINE
  5
153
330
1F
100
AcDbEntity
  8
DEFAULT
100
AcDbLine
 10
5435.99129598508
 20
-132.6529097242687
 30
0.0
 11
5437.99129598508
 21
-132.6529097242687
 31
0.0
  0
LINE
  5
154
330
1F
100
AcDbEntity
  8
DEFAULT
100
AcDbLine
 10
5437.99129598508
 20
-132.6529097242687
 30
0.0
 11
5437.99129598508
 21
-135.6529097242687
 31
0.0
  0
LINE
  5
155
330
1F
100
AcDbEntity
  8
DEFAULT
100
AcDbLine
 10
5437.99129598508
 20
-135.6529097242687
 30
0.0
 11
5435.99129598508
 21
-135.6529097242687
 31
0.0
  0
LINE
  5
156
330
1F
100
AcDbEntity
  8
DEFAULT
100
AcDbLine
 10
5435.99129598508
 20
-135.6529097242687
 30
0.0
 11
5435.99129598508
 21
-136.8529097242686
 31
0.0
  0
LINE
  5
157
330
1F
100
AcDbEntity
  8
DEFAULT
100
AcDbLine
 10
5435.99129598508
 20
-136.8529097242686
 30
0.0
 11
5433.59129598508
 21
-136.8529097242686
 31
0.0
  0
LINE
  5
158
330
1F
100
AcDbEntity
  8
DEFAULT
100
AcDbLine
 10
5433.59129598508
 20
-136.8529097242686
 30
0.0
 11
5433.59129598508
 21
-135.6529097242687
 31
0.0
  0
LINE
  5
159
330
1F
100
AcDbEntity
  8
DEFAULT
100
AcDbLine
 10
5433.59129598508
 20
-135.6529097242687
 30
0.0
 11
5428.59129598508
 21
-135.6529097242687
 31
0.0
  0
LINE
  5
15A
330
1F
100
AcDbEntity
  8
DEFAULT
100
AcDbLine
 10
5428.59129598508
 20
-135.6529097242687
 30
0.0
 11
5428.59129598508
 21
-140.1543032876084
 31
0.0
  0
LINE
  5
15B
330
1F
100
AcDbEntity
  8
DEFAULT
100
AcDbLine
 10
5428.59129598508
 20
-140.1543032876084
 30
0.0
 11
5423.09129598508
 21
-140.1556968509472
 31
0.0
  0
LINE
  5
15C
330
1F
100
AcDbEntity
  8
DEFAULT
100
AcDbLine
 10
5423.09129598508
 20
-140.1556968509472
 30
0.0
 11
5423.09129598508
 21
-152.1556968509472
 31
0.0
  0
LINE
  5
15D
330
1F
100
AcDbEntity
  8
DEFAULT
100
AcDbLine
 10
5423.09129598508
 20
-152.1556968509472
 30
0.0
 11
5428.59129598508
 21
-152.1556968509472
 31
0.0
  0
LINE
  5
15E
330
1F
100
AcDbEntity
  8
DEFAULT
100
AcDbLine
 10
5428.59129598508
 20
-152.1556968509472
 30
0.0
 11
5428.59129598508
 21
-175.0472714365828
 31
0.0
  0
LINE
  5
15F
330
1F
100
AcDbEntity
  8
DEFAULT
100
AcDbLine
 10
5428.59129598508
 20
-175.0472714365828
 30
0.0
 11
5448.59129598508
 21
-175.0472714365828
 31
0.0000000000145519
  0
LINE
  5
160
330
1F
100
AcDbEntity
  8
DEFAULT
100
AcDbLine
 10
5448.59129598508
 20
-175.0472714365828
 30
0.0000000000145519
 11
5454.091295985079
 21
-175.0472714365828
 31
0.0000000000181899
  0
LINE
  5
161
330
1F
100
AcDbEntity
  8
DEFAULT
100
AcDbLine
 10
5454.091295985079
 20
-175.0472714365828
 30
0.0000000000181899
 11
5529.09129598508
 21
-175.0472714365828
 31
0.0000000001455192
  0
LINE
  5
162
330
1F
100
AcDbEntity
  8
DEFAULT
100
AcDbLine
 10
5529.09129598508
 20
-175.0472714365828
 30
0.0000000001455192
 11
5534.59129598508
 21
-175.0472714365828
 31
0.0000000001455192
  0
LINE
  5
163
330
1F
100
AcDbEntity
  8
DEFAULT
100
AcDbLine
 10
5534.59129598508
 20
-175.0472714365828
 30
0.0000000001455192
 11
5554.59129598508
 21
-175.0472714365828
 31
0.0
  0
LINE
  5
164
330
1F
100
AcDbEntity
  8
DEFAULT
100
AcDbLine
 10
5554.59129598508
 20
-175.0472714365828
 30
0.0
 11
5554.59129598508
 21
-152.1556968509472
 31
0.0
  0
LINE
  5
165
330
1F
100
AcDbEntity
  8
DEFAULT
100
AcDbLine
 10
5554.59129598508
 20
-152.1556968509472
 30
0.0
 11
5560.09129598508
 21
-152.1556968509472
 31
0.0
  0
LINE
  5
166
330
1F
100
AcDbEntity
  8
DEFAULT
100
AcDbLine
 10
5560.09129598508
 20
-152.1556968509472
 30
0.0
 11
5560.09129598508
 21
-140.1556968509472
 31
0.0
  0
LINE
  5
167
330
1F
100
AcDbEntity
  8
DEFAULT
100
AcDbLine
 10
5560.09129598508
 20
-140.1556968509472
 30
0.0
 11
5554.59129598508
 21
-140.1556968509472
 31
0.0
  0
LINE
  5
168
330
1F
100
AcDbEntity
  8
DEFAULT
100
AcDbLine
 10
5554.59129598508
 20
-140.1556968509472
 30
0.0
 11
5554.59129598508
 21
-135.6584839776256
 31
0.0
  0
LINE
  5
169
330
1F
100
AcDbEntity
  8
DEFAULT
100
AcDbLine
 10
5554.59129598508
 20
-135.6584839776256
 30
0.0
 11
5549.59129598508
 21
-135.6584839776256
 31
0.0
  0
LINE
  5
16A
330
1F
100
AcDbEntity
  8
DEFAULT
100
AcDbLine
 10
5549.59129598508
 20
-135.6584839776256
 30
0.0
 11
5549.59129598508
 21
-136.8584839776254
 31
0.0
  0
LINE
  5
16B
330
1F
100
AcDbEntity
  8
DEFAULT
100
AcDbLine
 10
5549.59129598508
 20
-136.8584839776254
 30
0.0
 11
5547.191295985081
 21
-136.8584839776254
 31
0.0
  0
LINE
  5
16C
330
1F
100
AcDbEntity
  8
DEFAULT
100
AcDbLine
 10
5547.191295985081
 20
-136.8584839776254
 30
0.0
 11
5547.191295985081
 21
-135.6584839776256
 31
0.0
  0
LINE
  5
16D
330
1F
100
AcDbEntity
  8
DEFAULT
100
AcDbLine
 10
5547.191295985081
 20
-135.6584839776256
 30
0.0
 11
5545.191295985081
 21
-135.6584839776256
 31
0.0
  0
LINE
  5
16E
330
1F
100
AcDbEntity
  8
DEFAULT
100
AcDbLine
 10
5545.191295985081
 20
-135.6584839776256
 30
0.0
 11
5545.191295985081
 21
-132.6584839776256
 31
0.0
  0
LINE
  5
16F
330
1F
100
AcDbEntity
  8
DEFAULT
100
AcDbLine
 10
5545.191295985081
 20
-132.6584839776256
 30
0.0
 11
5547.191295985081
 21
-132.6584839776256
 31
0.0
  0
LINE
  5
170
330
1F
100
AcDbEntity
  8
DEFAULT
100
AcDbLine
 10
5547.191295985081
 20
-132.6584839776256
 30
0.0
 11
5547.191295985081
 21
-131.4584839776257
 31
0.0
  0
LINE
  5
171
330
1F
100
AcDbEntity
  8
DEFAULT
100
AcDbLine
 10
5547.191295985081
 20
-131.4584839776257
 30
0.0
 11
5549.59129598508
 21
-131.4584839776257
 31
0.0
  0
LINE
  5
172
330
1F
100
AcDbEntity
  8
DEFAULT
100
AcDbLine
 10
5549.59129598508
 20
-131.4584839776257
 30
0.0
 11
5549.59129598508
 21
-132.6584839776256
 31
0.0
  0
LINE
  5
173
330
1F
100
AcDbEntity
  8
DEFAULT
100
AcDbLine
 10
5549.59129598508
 20
-132.6584839776256
 30
0.0
 11
5554.59129598508
 21
-132.6584839776256
 31
0.0
  0
LINE
  5
174
330
1F
100
AcDbEntity
  8
DEFAULT
100
AcDbLine
 10
5554.59129598508
 20
-132.6584839776256
 30
0.0
 11
5554.59129598508
 21
-128.1570904142859
 31
0.0
  0
LINE
  5
175
330
1F
100
AcDbEntity
  8
DEFAULT
100
AcDbLine
 10
5554.59129598508
 20
-128.1570904142859
 30
0.0
 11
5560.09129598508
 21
-128.1556968509472
 31
0.0
  0
LINE
  5
176
330
1F
100
AcDbEntity
  8
DEFAULT
100
AcDbLine
 10
5560.09129598508
 20
-128.1556968509472
 30
0.0
 11
5560.09129598508
 21
-116.1556968509472
 31
0.0
  0
LINE
  5
177
330
1F
100
AcDbEntity
  8
DEFAULT
100
AcDbLine
 10
5560.09129598508
 20
-116.1556968509472
 30
0.0
 11
5554.59129598508
 21
-116.1556968509472
 31
0.0
  0
LINE
  5
178
330
1F
100
AcDbEntity
  8
DEFAULT
100
AcDbLine
 10
5554.59129598508
 20
-116.1556968509472
 30
0.0
 11
5554.59129598508
 21
-104.1556968509472
 31
0.0
  0
LINE
  5
179
330
1F
100
AcDbEntity
  8
DEFAULT
100
AcDbLine
 10
5554.59129598508
 20
-104.1556968509472
 30
0.0
 11
5560.09129598508
 21
-104.1556968509472
 31
0.0
  0
LINE
  5
17A
330
1F
100
AcDbEntity
  8
DEFAULT
100
AcDbLine
 10
5560.09129598508
 20
-104.1556968509472
 30
0.0
 11
5560.09129598508
 21
-92.15569685094715
 31
0.0
  0
LINE
  5
17B
330
1F
100
AcDbEntity
  8
DEFAULT
100
AcDbLine
 10
5560.09129598508
 20
-92.15569685094715
 30
0.0
 11
5554.59129598508
 21
-92.1543032876084
 31
0.0
  0
LINE
  5
17C
330
1F
100
AcDbEntity
  8
DEFAULT
100
AcDbLine
 10
5554.59129598508
 20
-92.1543032876084
 30
0.0
 11
5554.59129598508
 21
-87.65569685094715
 31
0.0
  0
LINE
  5
17D
330
1F
100
AcDbEntity
  8
DEFAULT
100
AcDbLine
 10
5554.59129598508
 20
-87.65569685094715
 30
0.0
 11
5549.59129598508
 21
-87.65569685094715
 31
0.0
  0
LINE
  5
17E
330
1F
100
AcDbEntity
  8
DEFAULT
100
AcDbLine
 10
5549.59129598508
 20
-87.65569685094715
 30
0.0
 11
5549.59129598508
 21
-88.85569685094697
 31
0.0
  0
LINE
  5
17F
330
1F
100
AcDbEntity
  8
DEFAULT
100
AcDbLine
 10
5549.59129598508
 20
-88.85569685094697
 30
0.0
 11
5547.191295985081
 21
-88.85569685094697
 31
0.0
  0
LINE
  5
180
330
1F
100
AcDbEntity
  8
DEFAULT
100
AcDbLine
 10
5547.191295985081
 20
-88.85569685094697
 30
0.0
 11
5547.191295985081
 21
-87.65569685094715
 31
0.0
  0
LINE
  5
181
330
1F
100
AcDbEntity
  8
DEFAULT
100
AcDbLine
 10
5521.591295985079
 20
-149.9472714365834
 30
0.0
 11
5521.591295985079
 21
-144.6472714365832
 31
0.0
  0
LINE
  5
182
330
1F
100
AcDbEntity
  8
DEFAULT
100
AcDbLine
 10
5521.591295985079
 20
-144.6472714365832
 30
0.0
 11
5509.591295985079
 21
-144.6472714365832
 31
0.0
  0
LINE
  5
183
330
1F
100
AcDbEntity
  8
DEFAULT
100
AcDbLine
 10
5509.591295985079
 20
-144.6472714365832
 30
0.0
 11
5509.591295985079
 21
-149.9472714365834
 31
0.0
  0
LINE
  5
184
330
1F
100
AcDbEntity
  8
DEFAULT
100
AcDbLine
 10
5509.591295985079
 20
-149.9472714365834
 30
0.0
 11
5521.591295985079
 21
-149.9472714365834
 31
0.0
  0
LINE
  5
185
330
1F
100
AcDbEntity
  8
DEFAULT
100
AcDbLine
 10
5534.49129598508
 20
-83.04727143658283
 30
0.0000000002910383
 11
5529.191295985081
 21
-83.04727143658283
 31
0.0000000002910383
  0
LINE
  5
186
330
1F
100
AcDbEntity
  8
DEFAULT
100
AcDbLine
 10
5529.191295985081
 20
-83.04727143658283
 30
0.0000000002910383
 11
5529.191295985081
 21
-71.04727143658283
 31
0.0
  0
LINE
  5
187
330
1F
100
AcDbEntity
  8
DEFAULT
100
AcDbLine
 10
5529.191295985081
 20
-71.04727143658283
 30
0.0
 11
5534.49129598508
 21
-71.04727143658283
 31
0.0
  0
LINE
  5
188
330
1F
100
AcDbEntity
  8
DEFAULT
100
AcDbLine
 10
5534.49129598508
 20
-71.04727143658283
 30
0.0
 11
5534.49129598508
 21
-83.04727143658283
 31
0.0000000002910383
  0
LINE
  5
189
330
1F
100
AcDbEntity
  8
DEFAULT
100
AcDbLine
 10
5534.49129598508
 20
-131.0472714365828
 30
0.0000000002910383
 11
5529.191295985081
 21
-131.0472714365828
 31
0.0000000002910383
  0
LINE
  5
18A
330
1F
100
AcDbEntity
  8
DEFAULT
100
AcDbLine
 10
5529.191295985081
 20
-131.0472714365828
 30
0.0000000002910383
 11
5529.191295985081
 21
-119.0472714365828
 31
0.0
  0
LINE
  5
18B
330
1F
100
AcDbEntity
  8
DEFAULT
100
AcDbLine
 10
5529.191295985081
 20
-119.0472714365828
 30
0.0
 11
5534.49129598508
 21
-119.0472714365828
 31
0.0
  0
LINE
  5
18C
330
1F
100
AcDbEntity
  8
DEFAULT
100
AcDbLine
 10
5534.49129598508
 20
-119.0472714365828
 30
0.0
 11
5534.49129598508
 21
-131.0472714365828
 31
0.0000000002910383
  0
LINE
  5
18D
330
1F
100
AcDbEntity
  8
DEFAULT
100
AcDbLine
 10
5391.19129598508
 20
-124.5472714365828
 30
0.0000000000818545
 11
5396.49129598508
 21
-124.5472714365828
 31
0.0000000000818545
  0
LINE
  5
18E
330
1F
100
AcDbEntity
  8
DEFAULT
100
AcDbLine
 10
5396.49129598508
 20
-124.5472714365828
 30
0.0000000000818545
 11
5396.49129598508
 21
-136.5472714365828
 31
0.0000000000818545
  0
LINE
  5
18F
330
1F
100
AcDbEntity
  8
DEFAULT
100
AcDbLine
 10
5396.49129598508
 20
-136.5472714365828
 30
0.0000000000818545
 11
5391.19129598508
 21
-136.5472714365828
 31
0.0000000000818545
  0
LINE
  5
190
330
1F
100
AcDbEntity
  8
DEFAULT
100
AcDbLine
 10
5391.19129598508
 20
-136.5472714365828
 30
0.0000000000818545
 11
5391.19129598508
 21
-124.5472714365828
 31
0.0000000000818545
  0
LINE
  5
191
330
1F
100
AcDbEntity
  8
DEFAULT
100
AcDbLine
 10
5310.69129598508
 20
-148.5472714365828
 30
0.0000000002273737
 11
5315.99129598508
 21
-148.5472714365828
 31
0.0000000002273737
  0
LINE
  5
192
330
1F
100
AcDbEntity
  8
DEFAULT
100
AcDbLine
 10
5315.99129598508
 20
-148.5472714365828
 30
0.0000000002273737
 11
5315.99129598508
 21
-160.5472714365828
 31
0.0000000002273737
  0
LINE
  5
193
330
1F
100
AcDbEntity
  8
DEFAULT
100
AcDbLine
 10
5315.99129598508
 20
-160.5472714365828
 30
0.0000000002273737
 11
5310.69129598508
 21
-160.5472714365828
 31
0.0000000002273737
  0
LINE
  5
194
330
1F
100
AcDbEntity
  8
DEFAULT
100
AcDbLine
 10
5310.69129598508
 20
-160.5472714365828
 30
0.0000000002273737
 11
5310.69129598508
 21
-148.5472714365828
 31
0.0000000002273737
  0
LINE
  5
195
330
1F
100
AcDbEntity
  8
DEFAULT
100
AcDbLine
 10
5310.69129598508
 20
-100.5472714365828
 30
0.0000000002273737
 11
5315.99129598508
 21
-100.5472714365828
 31
0.0000000002273737
  0
LINE
  5
196
330
1F
100
AcDbEntity
  8
DEFAULT
100
AcDbLine
 10
5315.99129598508
 20
-100.5472714365828
 30
0.0000000002273737
 11
5315.99129598508
 21
-112.5472714365828
 31
0.0000000002273737
  0
LINE
  5
197
330
1F
100
AcDbEntity
  8
DEFAULT
100
AcDbLine
 10
5315.99129598508
 20
-112.5472714365828
 30
0.0000000002273737
 11
5310.69129598508
 21
-112.5472714365828
 31
0.0000000002273737
  0
LINE
  5
198
330
1F
100
AcDbEntity
  8
DEFAULT
100
AcDbLine
 10
5310.69129598508
 20
-112.5472714365828
 30
0.0000000002273737
 11
5310.69129598508
 21
-100.5472714365828
 31
0.0000000002273737
  0
LINE
  5
199
330
1F
100
AcDbEntity
  8
DEFAULT
100
AcDbLine
 10
5391.19129598508
 20
-148.5472714365828
 30
0.0000000000818545
 11
5396.49129598508
 21
-148.5472714365828
 31
0.0000000000818545
  0
LINE
  5
19A
330
1F
100
AcDbEntity
  8
DEFAULT
100
AcDbLine
 10
5396.49129598508
 20
-148.5472714365828
 30
0.0000000000818545
 11
5396.49129598508
 21
-160.5472714365828
 31
0.0000000000818545
  0
LINE
  5
19B
330
1F
100
AcDbEntity
  8
DEFAULT
100
AcDbLine
 10
5396.49129598508
 20
-160.5472714365828
 30
0.0000000000818545
 11
5391.19129598508
 21
-160.5472714365828
 31
0.0000000000818545
  0
LINE
  5
19C
330
1F
100
AcDbEntity
  8
DEFAULT
100
AcDbLine
 10
5391.19129598508
 20
-160.5472714365828
 30
0.0000000000818545
 11
5391.19129598508
 21
-148.5472714365828
 31
0.0000000000818545
  0
LINE
  5
19D
330
1F
100
AcDbEntity
  8
DEFAULT
100
AcDbLine
 10
5310.69129598508
 20
-76.54727143658283
 30
0.0000000002273737
 11
5315.99129598508
 21
-76.54727143658283
 31
0.0000000002273737
  0
LINE
  5
19E
330
1F
100
AcDbEntity
  8
DEFAULT
100
AcDbLine
 10
5315.99129598508
 20
-76.54727143658283
 30
0.0000000002273737
 11
5315.99129598508
 21
-88.54727143658283
 31
0.0000000002273737
  0
LINE
  5
19F
330
1F
100
AcDbEntity
  8
DEFAULT
100
AcDbLine
 10
5315.99129598508
 20
-88.54727143658283
 30
0.0000000002273737
 11
5310.69129598508
 21
-88.54727143658283
 31
0.0000000002273737
  0
LINE
  5
1A0
330
1F
100
AcDbEntity
  8
DEFAULT
100
AcDbLine
 10
5310.69129598508
 20
-88.54727143658283
 30
0.0000000002273737
 11
5310.69129598508
 21
-76.54727143658283
 31
0.0000000002273737
  0
LINE
  5
1A1
330
1F
100
AcDbEntity
  8
DEFAULT
100
AcDbLine
 10
5383.591295985079
 20
-34.6472714365832
 30
0.0000000000818545
 11
5371.591295985079
 21
-34.6472714365832
 31
0.0000000000818545
  0
LINE
  5
1A2
330
1F
100
AcDbEntity
  8
DEFAULT
100
AcDbLine
 10
5371.591295985079
 20
-34.6472714365832
 30
0.0000000000818545
 11
5371.591295985079
 21
-39.94727143658247
 31
0.0000000000818545
  0
LINE
  5
1A3
330
1F
100
AcDbEntity
  8
DEFAULT
100
AcDbLine
 10
5371.591295985079
 20
-39.94727143658247
 30
0.0000000000818545
 11
5383.591295985079
 21
-39.94727143658247
 31
0.0000000000818545
  0
LINE
  5
1A4
330
1F
100
AcDbEntity
  8
DEFAULT
100
AcDbLine
 10
5383.591295985079
 20
-39.94727143658247
 30
0.0000000000818545
 11
5383.591295985079
 21
-34.6472714365832
 31
0.0000000000818545
  0
LINE
  5
1A5
330
1F
100
AcDbEntity
  8
DEFAULT
100
AcDbLine
 10
5359.591295985079
 20
-34.6472714365832
 30
0.0000000000818545
 11
5359.591295985079
 21
-39.94727143658247
 31
0.0000000000818545
  0
LINE
  5
1A6
330
1F
100
AcDbEntity
  8
DEFAULT
100
AcDbLine
 10
5359.591295985079
 20
-39.94727143658247
 30
0.0000000000818545
 11
5347.591295985079
 21
-39.94727143658247
 31
0.0000000000818545
  0
LINE
  5
1A7
330
1F
100
AcDbEntity
  8
DEFAULT
100
AcDbLine
 10
5347.591295985079
 20
-39.94727143658247
 30
0.0000000000818545
 11
5347.591295985079
 21
-34.6472714365832
 31
0.0000000000818545
  0
LINE
  5
1A8
330
1F
100
AcDbEntity
  8
DEFAULT
100
AcDbLine
 10
5347.591295985079
 20
-34.6472714365832
 30
0.0000000000818545
 11
5359.591295985079
 21
-34.6472714365832
 31
0.0000000000818545
  0
LINE
  5
1A9
330
1F
100
AcDbEntity
  8
DEFAULT
100
AcDbLine
 10
5335.591295985079
 20
-34.6472714365832
 30
0.0000000000818545
 11
5335.591295985079
 21
-39.94727143658247
 31
0.0000000000818545
  0
LINE
  5
1AA
330
1F
100
AcDbEntity
  8
DEFAULT
100
AcDbLine
 10
5335.591295985079
 20
-39.94727143658247
 30
0.0000000000818545
 11
5323.591295985079
 21
-39.94727143658247
 31
0.0000000000818545
  0
LINE
  5
1AB
330
1F
100
AcDbEntity
  8
DEFAULT
100
AcDbLine
 10
5323.591295985079
 20
-39.94727143658247
 30
0.0000000000818545
 11
5323.591295985079
 21
-34.6472714365832
 31
0.0000000000818545
  0
LINE
  5
1AC
330
1F
100
AcDbEntity
  8
DEFAULT
100
AcDbLine
 10
5323.591295985079
 20
-34.6472714365832
 30
0.0000000000818545
 11
5335.591295985079
 21
-34.6472714365832
 31
0.0000000000818545
  0
ENDSEC
  0
SECTION
  2
OBJECTS
  0
DICTIONARY
  5
C
330
0
100
AcDbDictionary
281
     1
  3
ACAD_DETAILVIEWSTYLE
350
3FB
  3
ACAD_GROUP
350
D
  3
ACAD_IMAGE_VARS
350
3F5
  3
ACAD_LAYOUT
350
1A
  3
ACAD_MATERIAL
350
43
  3
ACAD_MLEADERSTYLE
350
6B
  3
ACAD_MLINESTYLE
350
17
  3
ACAD_PLOTSETTINGS
350
19
  3
ACAD_SCALELIST
350
47
  3
ACAD_SECTIONVIEWSTYLE
350
3FC
  3
ACAD_TABLESTYLE
350
3ED
  3
ACAD_VISUALSTYLE
350
2A
  3
ACDB_RECOMPOSE_DATA
350
3F9
  3
ACDBVARIABLEDICTIONARY
350
3DB
  3
APPDATA
350
3F3
  0
SUN
  5
3F4
330
29
100
AcDbSun
 90
        1
290
     0
 63
     7
421
 16777215
 40
1.0
291
     1
 91
  2455826
 92
 54000000
292
     0
 70
     2
 71
   256
280
     1
  0
DICTIONARY
  5
3FB
102
{ACAD_REACTORS
330
C
102
}
330
C
100
AcDbDictionary
281
     1
  0
DICTIONARY
  5
D
102
{ACAD_REACTORS
330
C
102
}
330
C
100
AcDbDictionary
281
     1
  0
RASTERVARIABLES
  5
3F5
102
{ACAD_REACTORS
330
C
102
}
330
C
100
AcDbRasterVariables
 90
        0
 70
     1
 71
     1
 72
     1
  0
DICTIONARY
  5
1A
102
{ACAD_REACTORS
330
C
102
}
330
C
100
AcDbDictionary
281
     1
  3
Model
350
3EE
  3
Sheet 1
350
3EF
  0
DICTIONARY
  5
43
102
{ACAD_REACTORS
330
C
102
}
330
C
100
AcDbDictionary
281
     1
  3
BYBLOCK
350
45
  3
BYLAYER
350
44
  3
GLOBAL
350
46
  0
DICTIONARY
  5
6B
102
{ACAD_REACTORS
330
C
102
}
330
C
100
AcDbDictionary
281
     1
  3
STANDARD
350
6C
  0
DICTIONARY
  5
17
102
{ACAD_REACTORS
330
C
102
}
330
C
100
AcDbDictionary
281
     1
  3
STANDARD
350
18
  0
DICTIONARY
  5
19
102
{ACAD_REACTORS
330
C
102
}
330
C
100
AcDbDictionary
281
     1
  0
DICTIONARY
  5
47
102
{ACAD_REACTORS
330
C
102
}
330
C
100
AcDbDictionary
281
     1
  3
A0
350
48
  3
A1
350
49
  3
A2
350
4A
  3
A3
350
4B
  3
A4
350
4C
  3
A5
350
4D
  3
A6
350
4E
  3
A7
350
4F
  3
A8
350
50
  3
A9
350
51
  3
B0
350
52
  3
B1
350
53
  3
B2
350
54
  3
B3
350
55
  3
B4
350
56
  3
B5
350
57
  3
B6
350
58
  3
B7
350
59
  3
B8
350
5A
  3
B9
350
5B
  3
C0
350
5C
  3
C1
350
5D
  3
C2
350
5E
  3
C3
350
5F
  3
C4
350
60
  3
C5
350
61
  3
C6
350
62
  3
C7
350
63
  3
C8
350
64
  3
C9
350
65
  3
D0
350
66
  3
D1
350
67
  3
D2
350
68
  0
DICTIONARY
  5
3FC
102
{ACAD_REACTORS
330
C
102
}
330
C
100
AcDbDictionary
281
     1
  0
DICTIONARY
  5
3ED
102
{ACAD_REACTORS
330
C
102
}
330
C
100
AcDbDictionary
281
     1
  3
Standard
350
3F2
  0
DICTIONARY
  5
2A
102
{ACAD_REACTORS
330
C
102
}
330
C
100
AcDbDictionary
281
     1
  3
2DWIREFRAME
350
2F
  3
BASIC
350
32
  3
BRIGHTEN
350
36
  3
COLORCHANGE
350
3A
  3
CONCEPTUAL
350
34
  3
DIM
350
35
  3
EDGECOLOROFF
350
3D
  3
FACEPATTERN
350
39
  3
FLAT
350
2B
  3
FLATWITHEDGES
350
2C
  3
GOURAUD
350
2D
  3
GOURAUDWITHEDGES
350
2E
  3
HIDDEN
350
31
  3
JITTEROFF
350
3B
  3
LINEPATTERN
350
38
  3
OVERHANGOFF
350
3C
  3
REALISTIC
350
33
  3
SHADED
350
42
  3
Shaded with edges
350
3F1
  3
SHADED_WITH_EDGES
350
41
  3
Shades of Gray
350
3F0
  3
SHADES_OF_GRAY
350
3E
  3
SKETCHY
350
3F
  3
THICKEN
350
37
  3
WIREFRAME
350
30
  3
X-RAY
350
40
  0
XRECORD
  5
3F9
102
{ACAD_REACTORS
330
C
102
}
330
C
100
AcDbXrecord
280
     1
 90
        1
330
3F2
  0
DICTIONARY
  5
3DB
102
{ACAD_REACTORS
330
C
102
}
330
C
100
AcDbDictionary
281
     1
  3
CANNOSCALE
350
3F6
  3
CMLEADERSTYLE
350
3DD
  3
CTABLESTYLE
350
3FA
  3
DIMASSOC
350
3E0
  3
HIDETEXT
350
3E1
  3
MSLTSCALE
350
3E5
  0
DICTIONARY
  5
3F3
102
{ACAD_REACTORS
330
C
102
}
330
C
100
AcDbDictionary
281
     1
  0
LAYOUT
  5
3EE
102
{ACAD_REACTORS
330
1A
102
}
330
1A
100
AcDbPlotSettings
  1

  2
none_device
  4
Letter_(8.50_x_11.00_Inches)
  6

 40
6.35
 41
6.35
 42
6.35
 43
6.35
 44
215.9
 45
279.4
 46
0.0
 47
0.0
 48
0.0
 49
0.0
140
0.0
141
0.0
142
1.0
143
52.27183873280011
 70
  1712
 72
     0
 73
     0
 74
     0
  7

 75
     0
 76
     0
 77
     2
 78
   300
147
0.0191307599702344
148
-133577.0404350019
149
4582.87617870526
100
AcDbLayout
  1
Model
 70
     1
 71
     0
 10
0.0
 20
0.0
 11
12.0
 21
9.0
 12
0.0
 22
0.0
 32
0.0
 14
5285.091295985079
 24
-175.0472714365828
 34
0.0
 15
5560.09129598508
 25
-9.547271436582832
 35
0.0000000003728928
146
0.0
 13
0.0
 23
0.0
 33
0.0
 16
1.0
 26
0.0
 36
0.0
 17
0.0
 27
1.0
 37
0.0
 76
     0
330
1F
331
29
  0
LAYOUT
  5
3EF
102
{ACAD_REACTORS
330
1A
102
}
330
1A
100
AcDbPlotSettings
  1

  2
none_device
  4

  6

 40
0.0
 41
0.0
 42
0.0
 43
0.0
 44
0.0
 45
0.0
 46
0.0
 47
0.0
 48
0.0
 49
0.0
140
0.0
141
0.0
142
1.0
143
1.0
 70
   688
 72
     0
 73
     0
 74
     5
  7

 75
    16
 76
     0
 77
     2
 78
   300
147
1.0
148
0.0
149
0.0
100
AcDbLayout
  1
Sheet 1
 70
     1
 71
     1
 10
0.0
 20
0.0
 11
0.0
 21
0.0
 12
0.0
 22
0.0
 32
0.0
 14
1.000000000000000E+20
 24
1.000000000000000E+20
 34
1.000000000000000E+20
 15
-1.000000000000000E+20
 25
-1.000000000000000E+20
 35
-1.000000000000000E+20
146
0.0
 13
0.0
 23
0.0
 33
0.0
 16
1.0
 26
0.0
 36
0.0
 17
0.0
 27
1.0
 37
0.0
 76
     0
330
1B
  0
MATERIAL
  5
45
102
{ACAD_REACTORS
330
43
102
}
330
43
100
AcDbMaterial
  1
BYBLOCK
 72
     1
 94
      127
  0
MATERIAL
  5
44
102
{ACAD_REACTORS
330
43
102
}
330
43
100
AcDbMaterial
  1
BYLAYER
 72
     1
 94
      127
  0
MATERIAL
  5
46
102
{ACAD_REACTORS
330
43
102
}
330
43
100
AcDbMaterial
  1
GLOBAL
 72
     1
 94
      127
  0
MLEADERSTYLE
  5
6C
102
{ACAD_REACTORS
330
6B
102
}
330
6B
100
AcDbMLeaderStyle
179
     2
170
     2
171
     1
172
     0
 90
        2
 40
0.0
 41
0.0
173
     1
 91
-1056964608
340
14
 92
       -2
290
     1
 42
0.09
291
     1
 43
0.36
  3
Standard
341
0
 44
0.18
300

342
11
174
     1
178
     6
175
     1
176
     0
 93
-1056964608
 45
0.18
292
     0
297
     0
 46
0.18
343
0
 94
-1056964608
 47
1.0
 49
1.0
140
1.0
293
     1
141
0.0
294
     1
177
     0
142
1.0
295
     0
296
     0
143
0.125
271
     0
272
     9
273
     9
298
     0
  0
MLINESTYLE
  5
18
102
{ACAD_REACTORS
330
17
102
}
330
17
100
AcDbMlineStyle
  2
Standard
 70
     0
  3

 62
   256
 51
90.0
 52
90.0
 71
     2
 49
0.5
 62
   256
  6
BYLAYER
 49
-0.5
 62
   256
  6
BYLAYER
  0
SCALE
  5
48
102
{ACAD_REACTORS
330
47
102
}
330
47
100
AcDbScale
 70
     0
300
1:1
140
1.0
141
1.0
290
     1
  0
SCALE
  5
49
102
{ACAD_REACTORS
330
47
102
}
330
47
100
AcDbScale
 70
     0
300
1:2
140
1.0
141
2.0
290
     0
  0
SCALE
  5
4A
102
{ACAD_REACTORS
330
47
102
}
330
47
100
AcDbScale
 70
     0
300
1:4
140
1.0
141
4.0
290
     0
  0
SCALE
  5
4B
102
{ACAD_REACTORS
330
47
102
}
330
47
100
AcDbScale
 70
     0
300
1:5
140
1.0
141
5.0
290
     0
  0
SCALE
  5
4C
102
{ACAD_REACTORS
330
47
102
}
330
47
100
AcDbScale
 70
     0
300
1:8
140
1.0
141
8.0
290
     0
  0
SCALE
  5
4D
102
{ACAD_REACTORS
330
47
102
}
330
47
100
AcDbScale
 70
     0
300
1:10
140
1.0
141
10.0
290
     0
  0
SCALE
  5
4E
102
{ACAD_REACTORS
330
47
102
}
330
47
100
AcDbScale
 70
     0
300
1:16
140
1.0
141
16.0
290
     0
  0
SCALE
  5
4F
102
{ACAD_REACTORS
330
47
102
}
330
47
100
AcDbScale
 70
     0
300
1:20
140
1.0
141
20.0
290
     0
  0
SCALE
  5
50
102
{ACAD_REACTORS
330
47
102
}
330
47
100
AcDbScale
 70
     0
300
1:30
140
1.0
141
30.0
290
     0
  0
SCALE
  5
51
102
{ACAD_REACTORS
330
47
102
}
330
47
100
AcDbScale
 70
     0
300
1:40
140
1.0
141
40.0
290
     0
  0
SCALE
  5
52
102
{ACAD_REACTORS
330
47
102
}
330
47
100
AcDbScale
 70
     0
300
1:50
140
1.0
141
50.0
290
     0
  0
SCALE
  5
53
102
{ACAD_REACTORS
330
47
102
}
330
47
100
AcDbScale
 70
     0
300
1:100
140
1.0
141
100.0
290
     0
  0
SCALE
  5
54
102
{ACAD_REACTORS
330
47
102
}
330
47
100
AcDbScale
 70
     0
300
2:1
140
2.0
141
1.0
290
     0
  0
SCALE
  5
55
102
{ACAD_REACTORS
330
47
102
}
330
47
100
AcDbScale
 70
     0
300
4:1
140
4.0
141
1.0
290
     0
  0
SCALE
  5
56
102
{ACAD_REACTORS
330
47
102
}
330
47
100
AcDbScale
 70
     0
300
8:1
140
8.0
141
1.0
290
     0
  0
SCALE
  5
57
102
{ACAD_REACTORS
330
47
102
}
330
47
100
AcDbScale
 70
     0
300
10:1
140
10.0
141
1.0
290
     0
  0
SCALE
  5
58
102
{ACAD_REACTORS
330
47
102
}
330
47
100
AcDbScale
 70
     0
300
100:1
140
100.0
141
1.0
290
     0
  0
SCALE
  5
59
102
{ACAD_REACTORS
330
47
102
}
330
47
100
AcDbScale
 70
     0
300
1/128" = 1'-0"
140
0.0078125
141
12.0
290
     0
  0
SCALE
  5
5A
102
{ACAD_REACTORS
330
47
102
}
330
47
100
AcDbScale
 70
     0
300
1/64" = 1'-0"
140
0.015625
141
12.0
290
     0
  0
SCALE
  5
5B
102
{ACAD_REACTORS
330
47
102
}
330
47
100
AcDbScale
 70
     0
300
1/32" = 1'-0"
140
0.03125
141
12.0
290
     0
  0
SCALE
  5
5C
102
{ACAD_REACTORS
330
47
102
}
330
47
100
AcDbScale
 70
     0
300
1/16" = 1'-0"
140
0.0625
141
12.0
290
     0
  0
SCALE
  5
5D
102
{ACAD_REACTORS
330
47
102
}
330
47
100
AcDbScale
 70
     0
300
3/32" = 1'-0"
140
0.09375
141
12.0
290
     0
  0
SCALE
  5
5E
102
{ACAD_REACTORS
330
47
102
}
330
47
100
AcDbScale
 70
     0
300
1/8" = 1'-0"
140
0.125
141
12.0
290
     0
  0
SCALE
  5
5F
102
{ACAD_REACTORS
330
47
102
}
330
47
100
AcDbScale
 70
     0
300
3/16" = 1'-0"
140
0.1875
141
12.0
290
     0
  0
SCALE
  5
60
102
{ACAD_REACTORS
330
47
102
}
330
47
100
AcDbScale
 70
     0
300
1/4" = 1'-0"
140
0.25
141
12.0
290
     0
  0
SCALE
  5
61
102
{ACAD_REACTORS
330
47
102
}
330
47
100
AcDbScale
 70
     0
300
3/8" = 1'-0"
140
0.375
141
12.0
290
     0
  0
SCALE
  5
62
102
{ACAD_REACTORS
330
47
102
}
330
47
100
AcDbScale
 70
     0
300
1/2" = 1'-0"
140
0.5
141
12.0
290
     0
  0
SCALE
  5
63
102
{ACAD_REACTORS
330
47
102
}
330
47
100
AcDbScale
 70
     0
300
3/4" = 1'-0"
140
0.75
141
12.0
290
     0
  0
SCALE
  5
64
102
{ACAD_REACTORS
330
47
102
}
330
47
100
AcDbScale
 70
     0
300
1" = 1'-0"
140
1.0
141
12.0
290
     0
  0
SCALE
  5
65
102
{ACAD_REACTORS
330
47
102
}
330
47
100
AcDbScale
 70
     0
300
1-1/2" = 1'-0"
140
1.5
141
12.0
290
     0
  0
SCALE
  5
66
102
{ACAD_REACTORS
330
47
102
}
330
47
100
AcDbScale
 70
     0
300
3" = 1'-0"
140
3.0
141
12.0
290
     0
  0
SCALE
  5
67
102
{ACAD_REACTORS
330
47
102
}
330
47
100
AcDbScale
 70
     0
300
6" = 1'-0"
140
6.0
141
12.0
290
     0
  0
SCALE
  5
68
102
{ACAD_REACTORS
330
47
102
}
330
47
100
AcDbScale
 70
     0
300
1'-0" = 1'-0"
140
12.0
141
12.0
290
     0
  0
TABLESTYLE
  5
3F2
102
{ACAD_REACTORS
330
3ED
102
}
102
{ACAD_XDICTIONARY
360
3F7
102
}
330
3ED
100
AcDbTableStyle
  3
Standard
 70
     0
 71
     0
 40
0.06
 41
0.06
280
     0
281
     0
  7
STANDARD
140
0.18
170
     2
 62
     0
 63
   257
283
     0
 90
        4
 91
        0
  1

274
    -2
284
     1
 64
     0
275
    -2
285
     1
 65
     0
276
    -2
286
     1
 66
     0
277
    -2
287
     1
 67
     0
278
    -2
288
     1
 68
     0
279
    -2
289
     1
 69
     0
  7
STANDARD
140
0.25
170
     5
 62
     0
 63
   257
283
     0
 90
        4
 91
        0
  1

274
    -2
284
     1
 64
     0
275
    -2
285
     1
 65
     0
276
    -2
286
     1
 66
     0
277
    -2
287
     1
 67
     0
278
    -2
288
     1
 68
     0
279
    -2
289
     1
 69
     0
  7
STANDARD
140
0.18
170
     5
 62
     0
 63
   257
283
     0
 90
        4
 91
        0
  1

274
    -2
284
     1
 64
     0
275
    -2
285
     1
 65
     0
276
    -2
286
     1
 66
     0
277
    -2
287
     1
 67
     0
278
    -2
288
     1
 68
     0
279
    -2
289
     1
 69
     0
  0
VISUALSTYLE
  5
2F
102
{ACAD_REACTORS
330
2A
102
}
330
2A
100
AcDbVisualStyle
  2
2dWireframe
 70
     4
177
     3
291
     0
 70
    58
 90
        0
176
     1
 90
        2
176
     1
 90
        0
176
     1
 90
        0
176
     1
 40
0.6
176
     1
 40
30.0
176
     1
 62
     7
176
     1
 90
        1
176
     1
 90
        4
176
     1
 62
     7
176
     1
 62
   257
176
     1
 90
        1
176
     1
 90
        1
176
     1
 40
1.0
176
     1
 90
        0
176
     1
 62
   257
176
     1
 40
1.0
176
     1
 90
        1
176
     1
 90
        6
176
     1
 90
        2
176
     1
 62
     7
176
     1
 90
        5
176
     1
 90
        0
176
     1
 90
        0
176
     1
290
     0
176
     1
 90
        1
176
     1
 40
0.0
176
     1
 90
        0
176
     1
290
     1
176
     1
290
     1
176
     1
290
     0
176
     1
290
     0
176
     1
290
     0
176
     1
290
     0
176
     1
290
     0
176
     1
290
     0
176
     1
290
     0
176
     1
 90
       50
176
     1
 40
0.0
176
     1
 40
1.0
176
     1
 90
        0
176
     1
 62
    18
420
        0
176
     1
 90
       50
176
     1
 90
        3
176
     1
 62
     5
420
      255
176
     1
290
     0
176
     1
 90
       50
176
     1
 90
       50
176
     1
 90
       50
176
     1
290
     0
176
     1
 90
       50
176
     1
 62
   256
176
     0
 40
1.0
176
     0
 90
        2
176
     1
  1
strokes_ogs.tif
176
     1
290
     0
176
     1
 40
1.0
176
     1
 40
1.0
176
     1
  0
VISUALSTYLE
  5
32
102
{ACAD_REACTORS
330
2A
102
}
330
2A
100
AcDbVisualStyle
  2
Basic
 70
     7
177
     3
291
     1
 70
    58
 90
        1
176
     1
 90
        0
176
     1
 90
        1
176
     1
 90
        0
176
     1
 40
0.6
176
     1
 40
30.0
176
     1
 62
     7
176
     1
 90
        0
176
     1
 90
        4
176
     1
 62
     7
176
     1
 62
   257
176
     1
 90
        1
176
     1
 90
        1
176
     1
 40
1.0
176
     1
 90
        8
176
     1
 62
     7
176
     1
 40
1.0
176
     1
 90
        1
176
     1
 90
        6
176
     1
 90
        2
176
     1
 62
     7
176
     1
 90
        5
176
     1
 90
        0
176
     1
 90
        0
176
     1
290
     0
176
     1
 90
        1
176
     1
 40
0.0
176
     1
 90
        0
176
     1
290
     0
176
     1
290
     1
176
     1
290
     1
176
     1
290
     0
176
     1
290
     0
176
     1
290
     0
176
     1
290
     0
176
     1
290
     0
176
     1
290
     0
176
     1
 90
       50
176
     1
 40
0.0
176
     1
 40
1.0
176
     1
 90
        0
176
     1
 62
    18
420
        0
176
     1
 90
       50
176
     1
 90
        3
176
     1
 62
     5
420
      255
176
     1
290
     0
176
     1
 90
       50
176
     1
 90
       50
176
     1
 90
       50
176
     1
290
     0
176
     1
 90
       50
176
     1
 62
   256
176
     0
 40
1.0
176
     0
 90
        2
176
     1
  1
strokes_ogs.tif
176
     1
290
     0
176
     1
 40
1.0
176
     1
 40
1.0
176
     1
  0
VISUALSTYLE
  5
36
102
{ACAD_REACTORS
330
2A
102
}
330
2A
100
AcDbVisualStyle
  2
Brighten
 70
    12
177
     3
291
     1
 70
    58
 90
        2
176
     1
 90
        2
176
     1
 90
        0
176
     1
 90
        0
176
     1
 40
0.6
176
     1
 40
30.0
176
     1
 62
     7
176
     1
 90
        1
176
     1
 90
        4
176
     1
 62
     7
176
     1
 62
   257
176
     1
 90
        1
176
     1
 90
        1
176
     1
 40
1.0
176
     1
 90
        8
176
     1
 62
     7
176
     1
 40
1.0
176
     1
 90
        1
176
     1
 90
        6
176
     1
 90
        2
176
     1
 62
     7
176
     1
 90
        5
176
     1
 90
        0
176
     1
 90
        0
176
     1
290
     0
176
     1
 90
        1
176
     1
 40
50.0
176
     1
 90
        0
176
     1
290
     0
176
     1
290
     1
176
     1
290
     1
176
     1
290
     0
176
     1
290
     0
176
     1
290
     0
176
     1
290
     0
176
     1
290
     0
176
     1
290
     0
176
     1
 90
       50
176
     1
 40
0.0
176
     1
 40
1.0
176
     1
 90
        0
176
     1
 62
    18
420
        0
176
     1
 90
       50
176
     1
 90
        3
176
     1
 62
     5
420
      255
176
     1
290
     0
176
     1
 90
       50
176
     1
 90
       50
176
     1
 90
       50
176
     1
290
     0
176
     1
 90
       50
176
     1
 62
   256
176
     0
 40
1.0
176
     0
 90
        2
176
     1
  1
strokes_ogs.tif
176
     1
290
     0
176
     1
 40
1.0
176
     1
 40
1.0
176
     1
  0
VISUALSTYLE
  5
3A
102
{ACAD_REACTORS
330
2A
102
}
330
2A
100
AcDbVisualStyle
  2
ColorChange
 70
    16
177
     3
291
     1
 70
    58
 90
        2
176
     1
 90
        2
176
     1
 90
        3
176
     1
 90
        0
176
     1
 40
0.6
176
     1
 40
30.0
176
     1
 62
     8
176
     1
 90
        1
176
     1
 90
        4
176
     1
 62
     7
176
     1
 62
   257
176
     1
 90
        1
176
     1
 90
        1
176
     1
 40
1.0
176
     1
 90
        8
176
     1
 62
     8
176
     1
 40
1.0
176
     1
 90
        1
176
     1
 90
        6
176
     1
 90
        2
176
     1
 62
     7
176
     1
 90
        5
176
     1
 90
        0
176
     1
 90
        0
176
     1
290
     0
176
     1
 90
        1
176
     1
 40
0.0
176
     1
 90
        0
176
     1
290
     0
176
     1
290
     1
176
     1
290
     1
176
     1
290
     0
176
     1
290
     0
176
     1
290
     0
176
     1
290
     0
176
     1
290
     0
176
     1
290
     0
176
     1
 90
       50
176
     1
 40
0.0
176
     1
 40
1.0
176
     1
 90
        0
176
     1
 62
    18
420
        0
176
     1
 90
       50
176
     1
 90
        3
176
     1
 62
     5
420
      255
176
     1
290
     0
176
     1
 90
       50
176
     1
 90
       50
176
     1
 90
       50
176
     1
290
     0
176
     1
 90
       50
176
     1
 62
   256
176
     0
 40
1.0
176
     0
 90
        2
176
     1
  1
strokes_ogs.tif
176
     1
290
     0
176
     1
 40
1.0
176
     1
 40
1.0
176
     1
  0
VISUALSTYLE
  5
34
102
{ACAD_REACTORS
330
2A
102
}
330
2A
100
AcDbVisualStyle
  2
Conceptual
 70
     9
177
     3
291
     0
 70
    58
 90
        3
176
     1
 90
        2
176
     1
 90
        0
176
     1
 90
        0
176
     1
 40
0.6
176
     1
 40
30.0
176
     1
 62
     7
176
     1
 90
        2
176
     1
 90
        2
176
     1
 62
     7
176
     1
 62
   257
176
     1
 90
        1
176
     1
 90
        1
176
     1
 40
179.0
176
     1
 90
        8
176
     1
 62
     7
176
     1
 40
1.0
176
     1
 90
        1
176
     1
 90
        6
176
     1
 90
        2
176
     1
 62
     7
176
     1
 90
        3
176
     1
 90
        0
176
     1
 90
        0
176
     1
290
     0
176
     1
 90
        1
176
     1
 40
0.0
176
     1
 90
        0
176
     1
290
     0
176
     1
290
     1
176
     1
290
     1
176
     1
290
     0
176
     1
290
     0
176
     1
290
     0
176
     1
290
     0
176
     1
290
     0
176
     1
290
     0
176
     1
 90
       50
176
     1
 40
0.0
176
     1
 40
1.0
176
     1
 90
        0
176
     1
 62
    18
420
        0
176
     1
 90
       50
176
     1
 90
        3
176
     1
 62
     5
420
      255
176
     1
290
     0
176
     1
 90
       50
176
     1
 90
       50
176
     1
 90
       50
176
     1
290
     0
176
     1
 90
       50
176
     1
 62
   256
176
     0
 40
1.0
176
     0
 90
        2
176
     1
  1
strokes_ogs.tif
176
     1
290
     0
176
     1
 40
1.0
176
     1
 40
1.0
176
     1
  0
VISUALSTYLE
  5
35
102
{ACAD_REACTORS
330
2A
102
}
330
2A
100
AcDbVisualStyle
  2
Dim
 70
    11
177
     3
291
     1
 70
    58
 90
        2
176
     1
 90
        2
176
     1
 90
        0
176
     1
 90
        0
176
     1
 40
0.6
176
     1
 40
30.0
176
     1
 62
     7
176
     1
 90
        1
176
     1
 90
        4
176
     1
 62
     7
176
     1
 62
   257
176
     1
 90
        1
176
     1
 90
        1
176
     1
 40
1.0
176
     1
 90
        8
176
     1
 62
     7
176
     1
 40
1.0
176
     1
 90
        1
176
     1
 90
        6
176
     1
 90
        2
176
     1
 62
     7
176
     1
 90
        5
176
     1
 90
        0
176
     1
 90
        0
176
     1
290
     0
176
     1
 90
        1
176
     1
 40
-50.0
176
     1
 90
        0
176
     1
290
     0
176
     1
290
     1
176
     1
290
     1
176
     1
290
     0
176
     1
290
     0
176
     1
290
     0
176
     1
290
     0
176
     1
290
     0
176
     1
290
     0
176
     1
 90
       50
176
     1
 40
0.0
176
     1
 40
1.0
176
     1
 90
        0
176
     1
 62
    18
420
        0
176
     1
 90
       50
176
     1
 90
        3
176
     1
 62
     5
420
      255
176
     1
290
     0
176
     1
 90
       50
176
     1
 90
       50
176
     1
 90
       50
176
     1
290
     0
176
     1
 90
       50
176
     1
 62
   256
176
     0
 40
1.0
176
     0
 90
        2
176
     1
  1
strokes_ogs.tif
176
     1
290
     0
176
     1
 40
1.0
176
     1
 40
1.0
176
     1
  0
VISUALSTYLE
  5
3D
102
{ACAD_REACTORS
330
2A
102
}
330
2A
100
AcDbVisualStyle
  2
EdgeColorOff
 70
    22
177
     3
291
     1
 70
    58
 90
        2
176
     1
 90
        2
176
     1
 90
        0
176
     1
 90
        0
176
     1
 40
0.6
176
     1
 40
30.0
176
     1
 62
     7
176
     1
 90
        1
176
     1
 90
        4
176
     1
 62
     7
176
     1
 62
   257
176
     1
 90
        1
176
     1
 90
        1
176
     1
 40
1.0
176
     1
 90
        8
176
     1
 62
     7
176
     1
 40
1.0
176
     1
 90
        1
176
     1
 90
        6
176
     1
 90
        2
176
     1
 62
     7
176
     1
 90
        5
176
     1
 90
        0
176
     1
 90
        0
176
     1
290
     0
176
     1
 90
        1
176
     1
 40
0.0
176
     1
 90
        0
176
     1
290
     0
176
     1
290
     1
176
     1
290
     1
176
     1
290
     0
176
     1
290
     0
176
     1
290
     0
176
     1
290
     0
176
     1
290
     0
176
     1
290
     0
176
     1
 90
       50
176
     1
 40
0.0
176
     1
 40
1.0
176
     1
 90
        0
176
     1
 62
    18
420
        0
176
     1
 90
       50
176
     1
 90
        3
176
     1
 62
     5
420
      255
176
     1
290
     0
176
     1
 90
       50
176
     1
 90
       50
176
     1
 90
       50
176
     1
290
     0
176
     1
 90
       50
176
     1
 62
   256
176
     0
 40
1.0
176
     0
 90
        2
176
     1
  1
strokes_ogs.tif
176
     1
290
     0
176
     1
 40
1.0
176
     1
 40
1.0
176
     1
  0
VISUALSTYLE
  5
39
102
{ACAD_REACTORS
330
2A
102
}
330
2A
100
AcDbVisualStyle
  2
Facepattern
 70
    15
177
     3
291
     1
 70
    58
 90
        2
176
     1
 90
        2
176
     1
 90
        0
176
     1
 90
        0
176
     1
 40
0.6
176
     1
 40
30.0
176
     1
 62
     7
176
     1
 90
        1
176
     1
 90
        4
176
     1
 62
     7
176
     1
 62
   257
176
     1
 90
        1
176
     1
 90
        1
176
     1
 40
1.0
176
     1
 90
        8
176
     1
 62
     7
176
     1
 40
1.0
176
     1
 90
        1
176
     1
 90
        6
176
     1
 90
        2
176
     1
 62
     7
176
     1
 90
        5
176
     1
 90
        0
176
     1
 90
        0
176
     1
290
     0
176
     1
 90
        1
176
     1
 40
0.0
176
     1
 90
        0
176
     1
290
     0
176
     1
290
     1
176
     1
290
     1
176
     1
290
     0
176
     1
290
     0
176
     1
290
     0
176
     1
290
     0
176
     1
290
     0
176
     1
290
     0
176
     1
 90
       50
176
     1
 40
0.0
176
     1
 40
1.0
176
     1
 90
        0
176
     1
 62
    18
420
        0
176
     1
 90
       50
176
     1
 90
        3
176
     1
 62
     5
420
      255
176
     1
290
     0
176
     1
 90
       50
176
     1
 90
       50
176
     1
 90
       50
176
     1
290
     0
176
     1
 90
       50
176
     1
 62
   256
176
     0
 40
1.0
176
     0
 90
        2
176
     1
  1
strokes_ogs.tif
176
     1
290
     0
176
     1
 40
1.0
176
     1
 40
1.0
176
     1
  0
VISUALSTYLE
  5
2B
102
{ACAD_REACTORS
330
2A
102
}
330
2A
100
AcDbVisualStyle
  2
Flat
 70
     0
177
     3
291
     1
 70
    58
 90
        2
176
     1
 90
        1
176
     1
 90
        1
176
     1
 90
        2
176
     1
 40
0.6
176
     1
 40
30.0
176
     1
 62
     7
176
     1
 90
        0
176
     1
 90
        0
176
     1
 62
     7
176
     1
 62
   257
176
     1
 90
        1
176
     1
 90
        1
176
     1
 40
1.0
176
     1
 90
        8
176
     1
 62
     7
176
     1
 40
1.0
176
     1
 90
        1
176
     1
 90
        6
176
     1
 90
        2
176
     1
 62
     7
176
     1
 90
        5
176
     1
 90
        0
176
     1
 90
        0
176
     1
290
     0
176
     1
 90
       13
176
     1
 40
0.0
176
     1
 90
        0
176
     1
290
     0
176
     1
290
     1
176
     1
290
     1
176
     1
290
     0
176
     1
290
     0
176
     1
290
     0
176
     1
290
     0
176
     1
290
     0
176
     1
290
     0
176
     1
 90
       50
176
     1
 40
0.0
176
     1
 40
1.0
176
     1
 90
        0
176
     1
 62
    18
420
        0
176
     1
 90
       50
176
     1
 90
        3
176
     1
 62
     5
420
      255
176
     1
290
     0
176
     1
 90
       50
176
     1
 90
       50
176
     1
 90
       50
176
     1
290
     0
176
     1
 90
       50
176
     1
 62
   256
176
     0
 40
1.0
176
     0
 90
        2
176
     1
  1
strokes_ogs.tif
176
     1
290
     0
176
     1
 40
1.0
176
     1
 40
1.0
176
     1
  0
VISUALSTYLE
  5
2C
102
{ACAD_REACTORS
330
2A
102
}
330
2A
100
AcDbVisualStyle
  2
FlatWithEdges
 70
     1
177
     3
291
     1
 70
    58
 90
        2
176
     1
 90
        1
176
     1
 90
        1
176
     1
 90
        2
176
     1
 40
0.6
176
     1
 40
30.0
176
     1
 62
     7
176
     1
 90
        1
176
     1
 90
        0
176
     1
 62
     7
176
     1
 62
   257
176
     1
 90
        1
176
     1
 90
        1
176
     1
 40
1.0
176
     1
 90
        0
176
     1
 62
   257
176
     1
 40
1.0
176
     1
 90
        1
176
     1
 90
        6
176
     1
 90
        2
176
     1
 62
     7
176
     1
 90
        5
176
     1
 90
        0
176
     1
 90
        0
176
     1
290
     0
176
     1
 90
       13
176
     1
 40
0.0
176
     1
 90
        0
176
     1
290
     0
176
     1
290
     1
176
     1
290
     1
176
     1
290
     0
176
     1
290
     0
176
     1
290
     0
176
     1
290
     0
176
     1
290
     0
176
     1
290
     0
176
     1
 90
       50
176
     1
 40
0.0
176
     1
 40
1.0
176
     1
 90
        0
176
     1
 62
    18
420
        0
176
     1
 90
       50
176
     1
 90
        3
176
     1
 62
     5
420
      255
176
     1
290
     0
176
     1
 90
       50
176
     1
 90
       50
176
     1
 90
       50
176
     1
290
     0
176
     1
 90
       50
176
     1
 62
   256
176
     0
 40
1.0
176
     0
 90
        2
176
     1
  1
strokes_ogs.tif
176
     1
290
     0
176
     1
 40
1.0
176
     1
 40
1.0
176
     1
  0
VISUALSTYLE
  5
2D
102
{ACAD_REACTORS
330
2A
102
}
330
2A
100
AcDbVisualStyle
  2
Gouraud
 70
     2
177
     3
291
     1
 70
    58
 90
        2
176
     1
 90
        2
176
     1
 90
        1
176
     1
 90
        2
176
     1
 40
0.6
176
     1
 40
30.0
176
     1
 62
     7
176
     1
 90
        0
176
     1
 90
        0
176
     1
 62
     7
176
     1
 62
   257
176
     1
 90
        1
176
     1
 90
        1
176
     1
 40
1.0
176
     1
 90
        0
176
     1
 62
     7
176
     1
 40
1.0
176
     1
 90
        1
176
     1
 90
        6
176
     1
 90
        2
176
     1
 62
     7
176
     1
 90
        5
176
     1
 90
        0
176
     1
 90
        0
176
     1
290
     0
176
     1
 90
       13
176
     1
 40
0.0
176
     1
 90
        0
176
     1
290
     0
176
     1
290
     1
176
     1
290
     1
176
     1
290
     0
176
     1
290
     0
176
     1
290
     0
176
     1
290
     0
176
     1
290
     0
176
     1
290
     0
176
     1
 90
       50
176
     1
 40
0.0
176
     1
 40
1.0
176
     1
 90
        0
176
     1
 62
    18
420
        0
176
     1
 90
       50
176
     1
 90
        3
176
     1
 62
     5
420
      255
176
     1
290
     0
176
     1
 90
       50
176
     1
 90
       50
176
     1
 90
       50
176
     1
290
     0
176
     1
 90
       50
176
     1
 62
   256
176
     0
 40
1.0
176
     0
 90
        2
176
     1
  1
strokes_ogs.tif
176
     1
290
     0
176
     1
 40
1.0
176
     1
 40
1.0
176
     1
  0
VISUALSTYLE
  5
2E
102
{ACAD_REACTORS
330
2A
102
}
330
2A
100
AcDbVisualStyle
  2
GouraudWithEdges
 70
     3
177
     3
291
     1
 70
    58
 90
        2
176
     1
 90
        2
176
     1
 90
        1
176
     1
 90
        2
176
     1
 40
0.6
176
     1
 40
30.0
176
     1
 62
     7
176
     1
 90
        1
176
     1
 90
        0
176
     1
 62
     7
176
     1
 62
   257
176
     1
 90
        1
176
     1
 90
        1
176
     1
 40
1.0
176
     1
 90
        0
176
     1
 62
   257
176
     1
 40
1.0
176
     1
 90
        1
176
     1
 90
        6
176
     1
 90
        2
176
     1
 62
     7
176
     1
 90
        5
176
     1
 90
        0
176
     1
 90
        0
176
     1
290
     0
176
     1
 90
       13
176
     1
 40
0.0
176
     1
 90
        0
176
     1
290
     0
176
     1
290
     1
176
     1
290
     1
176
     1
290
     0
176
     1
290
     0
176
     1
290
     0
176
     1
290
     0
176
     1
290
     0
176
     1
290
     0
176
     1
 90
       50
176
     1
 40
0.0
176
     1
 40
1.0
176
     1
 90
        0
176
     1
 62
    18
420
        0
176
     1
 90
       50
176
     1
 90
        3
176
     1
 62
     5
420
      255
176
     1
290
     0
176
     1
 90
       50
176
     1
 90
       50
176
     1
 90
       50
176
     1
290
     0
176
     1
 90
       50
176
     1
 62
   256
176
     0
 40
1.0
176
     0
 90
        2
176
     1
  1
strokes_ogs.tif
176
     1
290
     0
176
     1
 40
1.0
176
     1
 40
1.0
176
     1
  0
VISUALSTYLE
  5
31
102
{ACAD_REACTORS
330
2A
102
}
330
2A
100
AcDbVisualStyle
  2
Hidden
 70
     6
177
     3
291
     0
 70
    58
 90
        1
176
     1
 90
        2
176
     1
 90
        2
176
     1
 90
        0
176
     1
 40
0.6
176
     1
 40
30.0
176
     1
 62
     7
176
     1
 90
        2
176
     1
 90
        2
176
     1
 62
     7
176
     1
 62
   257
176
     1
 90
        2
176
     1
 90
        1
176
     1
 40
40.0
176
     1
 90
        0
176
     1
 62
   257
176
     1
 40
1.0
176
     1
 90
        1
176
     1
 90
        6
176
     1
 90
        2
176
     1
 62
     7
176
     1
 90
        3
176
     1
 90
        0
176
     1
 90
        0
176
     1
290
     0
176
     1
 90
        1
176
     1
 40
0.0
176
     1
 90
        0
176
     1
290
     0
176
     1
290
     1
176
     1
290
     1
176
     1
290
     0
176
     1
290
     0
176
     1
290
     0
176
     1
290
     0
176
     1
290
     0
176
     1
290
     0
176
     1
 90
       50
176
     1
 40
0.0
176
     1
 40
1.0
176
     1
 90
        0
176
     1
 62
    18
420
        0
176
     1
 90
       50
176
     1
 90
        3
176
     1
 62
     5
420
      255
176
     1
290
     0
176
     1
 90
       50
176
     1
 90
       50
176
     1
 90
       50
176
     1
290
     0
176
     1
 90
       50
176
     1
 62
   256
176
     0
 40
1.0
176
     0
 90
        2
176
     1
  1
strokes_ogs.tif
176
     1
290
     0
176
     1
 40
1.0
176
     1
 40
1.0
176
     1
  0
VISUALSTYLE
  5
3B
102
{ACAD_REACTORS
330
2A
102
}
330
2A
100
AcDbVisualStyle
  2
JitterOff
 70
    20
177
     3
291
     1
 70
    58
 90
        2
176
     1
 90
        2
176
     1
 90
        0
176
     1
 90
        0
176
     1
 40
0.6
176
     1
 40
30.0
176
     1
 62
     7
176
     1
 90
        1
176
     1
 90
        4
176
     1
 62
     7
176
     1
 62
   257
176
     1
 90
        1
176
     1
 90
        1
176
     1
 40
1.0
176
     1
 90
       10
176
     1
 62
     7
176
     1
 40
1.0
176
     1
 90
        1
176
     1
 90
        6
176
     1
 90
        2
176
     1
 62
     7
176
     1
 90
        5
176
     1
 90
        0
176
     1
 90
        0
176
     1
290
     0
176
     1
 90
        1
176
     1
 40
0.0
176
     1
 90
        0
176
     1
290
     0
176
     1
290
     1
176
     1
290
     1
176
     1
290
     0
176
     1
290
     0
176
     1
290
     0
176
     1
290
     0
176
     1
290
     0
176
     1
290
     0
176
     1
 90
       50
176
     1
 40
0.0
176
     1
 40
1.0
176
     1
 90
        0
176
     1
 62
    18
420
        0
176
     1
 90
       50
176
     1
 90
        3
176
     1
 62
     5
420
      255
176
     1
290
     0
176
     1
 90
       50
176
     1
 90
       50
176
     1
 90
       50
176
     1
290
     0
176
     1
 90
       50
176
     1
 62
   256
176
     0
 40
1.0
176
     0
 90
        2
176
     1
  1
strokes_ogs.tif
176
     1
290
     0
176
     1
 40
1.0
176
     1
 40
1.0
176
     1
  0
VISUALSTYLE
  5
38
102
{ACAD_REACTORS
330
2A
102
}
330
2A
100
AcDbVisualStyle
  2
Linepattern
 70
    14
177
     3
291
     1
 70
    58
 90
        2
176
     1
 90
        2
176
     1
 90
        0
176
     1
 90
        0
176
     1
 40
0.6
176
     1
 40
30.0
176
     1
 62
     7
176
     1
 90
        1
176
     1
 90
        4
176
     1
 62
     7
176
     1
 62
   257
176
     1
 90
        7
176
     1
 90
        7
176
     1
 40
1.0
176
     1
 90
        8
176
     1
 62
     7
176
     1
 40
1.0
176
     1
 90
        1
176
     1
 90
        6
176
     1
 90
        2
176
     1
 62
     7
176
     1
 90
        5
176
     1
 90
        0
176
     1
 90
        0
176
     1
290
     0
176
     1
 90
        1
176
     1
 40
0.0
176
     1
 90
        0
176
     1
290
     0
176
     1
290
     1
176
     1
290
     1
176
     1
290
     0
176
     1
290
     0
176
     1
290
     0
176
     1
290
     0
176
     1
290
     0
176
     1
290
     0
176
     1
 90
       50
176
     1
 40
0.0
176
     1
 40
1.0
176
     1
 90
        0
176
     1
 62
    18
420
        0
176
     1
 90
       50
176
     1
 90
        3
176
     1
 62
     5
420
      255
176
     1
290
     0
176
     1
 90
       50
176
     1
 90
       50
176
     1
 90
       50
176
     1
290
     0
176
     1
 90
       50
176
     1
 62
   256
176
     0
 40
1.0
176
     0
 90
        2
176
     1
  1
strokes_ogs.tif
176
     1
290
     0
176
     1
 40
1.0
176
     1
 40
1.0
176
     1
  0
VISUALSTYLE
  5
3C
102
{ACAD_REACTORS
330
2A
102
}
330
2A
100
AcDbVisualStyle
  2
OverhangOff
 70
    21
177
     3
291
     1
 70
    58
 90
        2
176
     1
 90
        2
176
     1
 90
        0
176
     1
 90
        0
176
     1
 40
0.6
176
     1
 40
30.0
176
     1
 62
     7
176
     1
 90
        1
176
     1
 90
        4
176
     1
 62
     7
176
     1
 62
   257
176
     1
 90
        1
176
     1
 90
        1
176
     1
 40
1.0
176
     1
 90
        9
176
     1
 62
     7
176
     1
 40
1.0
176
     1
 90
        1
176
     1
 90
        6
176
     1
 90
        2
176
     1
 62
     7
176
     1
 90
        5
176
     1
 90
        0
176
     1
 90
        0
176
     1
290
     0
176
     1
 90
        1
176
     1
 40
0.0
176
     1
 90
        0
176
     1
290
     0
176
     1
290
     1
176
     1
290
     1
176
     1
290
     0
176
     1
290
     0
176
     1
290
     0
176
     1
290
     0
176
     1
290
     0
176
     1
290
     0
176
     1
 90
       50
176
     1
 40
0.0
176
     1
 40
1.0
176
     1
 90
        0
176
     1
 62
    18
420
        0
176
     1
 90
       50
176
     1
 90
        3
176
     1
 62
     5
420
      255
176
     1
290
     0
176
     1
 90
       50
176
     1
 90
       50
176
     1
 90
       50
176
     1
290
     0
176
     1
 90
       50
176
     1
 62
   256
176
     0
 40
1.0
176
     0
 90
        2
176
     1
  1
strokes_ogs.tif
176
     1
290
     0
176
     1
 40
1.0
176
     1
 40
1.0
176
     1
  0
VISUALSTYLE
  5
33
102
{ACAD_REACTORS
330
2A
102
}
330
2A
100
AcDbVisualStyle
  2
Realistic
 70
     8
177
     3
291
     0
 70
    58
 90
        2
176
     1
 90
        3
176
     1
 90
        0
176
     1
 90
        2
176
     1
 40
0.6
176
     1
 40
30.0
176
     1
 62
     7
176
     1
 90
        0
176
     1
 90
        0
176
     1
 62
     7
176
     1
 62
   257
176
     1
 90
        1
176
     1
 90
        1
176
     1
 40
1.0
176
     1
 90
        8
176
     1
 62
   257
176
     1
 40
1.0
176
     1
 90
        1
176
     1
 90
        6
176
     1
 90
        2
176
     1
 62
     7
176
     1
 90
        3
176
     1
 90
        0
176
     1
 90
        0
176
     1
290
     0
176
     1
 90
       13
176
     1
 40
0.0
176
     1
 90
        0
176
     1
290
     0
176
     1
290
     1
176
     1
290
     1
176
     1
290
     0
176
     1
290
     0
176
     1
290
     0
176
     1
290
     0
176
     1
290
     0
176
     1
290
     0
176
     1
 90
       50
176
     1
 40
0.0
176
     1
 40
1.0
176
     1
 90
        0
176
     1
 62
    18
420
        0
176
     1
 90
       50
176
     1
 90
        3
176
     1
 62
     5
420
      255
176
     1
290
     0
176
     1
 90
       50
176
     1
 90
       50
176
     1
 90
       50
176
     1
290
     0
176
     1
 90
       50
176
     1
 62
   256
176
     0
 40
1.0
176
     0
 90
        2
176
     1
  1
strokes_ogs.tif
176
     1
290
     0
176
     1
 40
1.0
176
     1
 40
1.0
176
     1
  0
VISUALSTYLE
  5
42
102
{ACAD_REACTORS
330
2A
102
}
330
2A
100
AcDbVisualStyle
  2
Shaded
 70
    27
177
     3
291
     0
 70
    58
 90
        2
176
     1
 90
        2
176
     1
 90
        1
176
     1
 90
        2
176
     1
 40
0.6
176
     1
 40
30.0
176
     1
 62
     7
176
     1
 90
        0
176
     1
 90
        4
176
     1
 62
     7
176
     1
 62
   257
176
     1
 90
        1
176
     1
 90
        1
176
     1
 40
1.0
176
     1
 90
        8
176
     1
 62
   257
176
     1
 40
1.0
176
     1
 90
        1
176
     1
 90
        6
176
     1
 90
        2
176
     1
 62
     8
176
     1
 90
        3
176
     1
 90
        0
176
     1
 90
        0
176
     1
290
     0
176
     1
 90
        5
176
     1
 40
0.0
176
     1
 90
        0
176
     1
290
     0
176
     1
290
     1
176
     1
290
     1
176
     1
290
     0
176
     1
290
     0
176
     1
290
     0
176
     1
290
     0
176
     1
290
     0
176
     1
290
     0
176
     1
 90
       50
176
     1
 40
0.0
176
     1
 40
1.0
176
     1
 90
        0
176
     1
 62
    18
420
        0
176
     1
 90
       50
176
     1
 90
        3
176
     1
 62
     5
420
      255
176
     1
290
     0
176
     1
 90
       50
176
     1
 90
       50
176
     1
 90
       50
176
     1
290
     0
176
     1
 90
       50
176
     1
 62
   256
176
     0
 40
1.0
176
     0
 90
        2
176
     1
  1
strokes_ogs.tif
176
     1
290
     0
176
     1
 40
1.0
176
     1
 40
1.0
176
     1
  0
VISUALSTYLE
  5
3F1
102
{ACAD_REACTORS
330
2A
102
}
330
2A
100
AcDbVisualStyle
  2
Shaded with edges
 70
    26
177
     3
291
     0
 70
    58
 90
        2
176
     1
 90
        2
176
     1
 90
        1
176
     1
 90
        2
176
     1
 40
0.6
176
     1
 40
30.0
176
     1
 62
     7
420
 16777215
176
     1
 90
        1
176
     1
 90
       10
176
     1
 62
     7
176
     1
 62
   257
176
     1
 90
        2
176
     1
 90
        1
176
     1
 40
1.0
176
     1
 90
        8
176
     1
 62
   257
176
     1
 40
1.0
176
     1
 90
        1
176
     1
 90
        6
176
     1
 90
        2
176
     1
 62
     7
176
     1
 90
        3
176
     1
 90
        0
176
     1
 90
        0
176
     1
290
     0
176
     1
 90
        5
176
     1
 40
0.0
176
     1
 90
        0
176
     1
290
     0
176
     1
290
     1
176
     1
290
     1
176
     1
290
     0
176
     1
290
     0
176
     1
290
     0
176
     1
290
     0
176
     1
290
     0
176
     1
290
     0
176
     1
 90
       50
176
     1
 40
0.0
176
     1
 40
1.0
176
     1
 90
        0
176
     1
 62
    18
420
        0
176
     1
 90
       50
176
     1
 90
        3
176
     1
 62
     5
420
      255
176
     1
290
     0
176
     1
 90
       50
176
     1
 90
       50
176
     1
 90
       50
176
     1
290
     0
176
     1
 90
       50
176
     1
 62
   256
176
     0
 40
1.0
176
     0
 90
        2
176
     1
  1
strokes_ogs.tif
176
     1
290
     0
176
     1
 40
1.0
176
     1
 40
1.0
176
     1
  0
VISUALSTYLE
  5
41
102
{ACAD_REACTORS
330
2A
102
}
330
2A
100
AcDbVisualStyle
  2
Shaded with edges
 70
    26
177
     3
291
     0
 70
    58
 90
        2
176
     1
 90
        2
176
     1
 90
        1
176
     1
 90
        2
176
     1
 40
0.6
176
     1
 40
30.0
176
     1
 62
     7
176
     1
 90
        1
176
     1
 90
       10
176
     1
 62
     7
176
     1
 62
   257
176
     1
 90
        2
176
     1
 90
        1
176
     1
 40
1.0
176
     1
 90
        8
176
     1
 62
   257
176
     1
 40
1.0
176
     1
 90
        1
176
     1
 90
        6
176
     1
 90
        2
176
     1
 62
     7
176
     1
 90
        3
176
     1
 90
        0
176
     1
 90
        0
176
     1
290
     0
176
     1
 90
        5
176
     1
 40
0.0
176
     1
 90
        0
176
     1
290
     0
176
     1
290
     1
176
     1
290
     1
176
     1
290
     0
176
     1
290
     0
176
     1
290
     0
176
     1
290
     0
176
     1
290
     0
176
     1
290
     0
176
     1
 90
       50
176
     1
 40
0.0
176
     1
 40
1.0
176
     1
 90
        0
176
     1
 62
    18
420
        0
176
     1
 90
       50
176
     1
 90
        3
176
     1
 62
     5
420
      255
176
     1
290
     0
176
     1
 90
       50
176
     1
 90
       50
176
     1
 90
       50
176
     1
290
     0
176
     1
 90
       50
176
     1
 62
   256
176
     0
 40
1.0
176
     0
 90
        2
176
     1
  1
strokes_ogs.tif
176
     1
290
     0
176
     1
 40
1.0
176
     1
 40
1.0
176
     1
  0
VISUALSTYLE
  5
3F0
102
{ACAD_REACTORS
330
2A
102
}
330
2A
100
AcDbVisualStyle
  2
Shades of Gray
 70
    23
177
     3
291
     0
 70
    58
 90
        2
176
     1
 90
        2
176
     1
 90
        3
176
     1
 90
        0
176
     1
 40
0.6
176
     1
 40
30.0
176
     1
 62
     7
420
 16777215
176
     1
 90
        2
176
     1
 90
        2
176
     1
 62
     7
176
     1
 62
     7
176
     1
 90
        1
176
     1
 90
        1
176
     1
 40
40.0
176
     1
 90
        8
176
     1
 62
     7
176
     1
 40
1.0
176
     1
 90
        1
176
     1
 90
        6
176
     1
 90
        2
176
     1
 62
     7
176
     1
 90
        3
176
     1
 90
        0
176
     1
 90
        0
176
     1
290
     0
176
     1
 90
        1
176
     1
 40
0.0
176
     1
 90
        0
176
     1
290
     0
176
     1
290
     1
176
     1
290
     1
176
     1
290
     0
176
     1
290
     0
176
     1
290
     0
176
     1
290
     0
176
     1
290
     0
176
     1
290
     0
176
     1
 90
       50
176
     1
 40
0.0
176
     1
 40
1.0
176
     1
 90
        0
176
     1
 62
    18
420
        0
176
     1
 90
       50
176
     1
 90
        3
176
     1
 62
     5
420
      255
176
     1
290
     0
176
     1
 90
       50
176
     1
 90
       50
176
     1
 90
       50
176
     1
290
     0
176
     1
 90
       50
176
     1
 62
   256
176
     0
 40
1.0
176
     0
 90
        2
176
     1
  1
strokes_ogs.tif
176
     1
290
     0
176
     1
 40
1.0
176
     1
 40
1.0
176
     1
  0
VISUALSTYLE
  5
3E
102
{ACAD_REACTORS
330
2A
102
}
330
2A
100
AcDbVisualStyle
  2
Shades of Gray
 70
    23
177
     3
291
     0
 70
    58
 90
        2
176
     1
 90
        2
176
     1
 90
        3
176
     1
 90
        0
176
     1
 40
0.6
176
     1
 40
30.0
176
     1
 62
     7
176
     1
 90
        2
176
     1
 90
        2
176
     1
 62
     7
176
     1
 62
     7
176
     1
 90
        1
176
     1
 90
        1
176
     1
 40
40.0
176
     1
 90
        8
176
     1
 62
     7
176
     1
 40
1.0
176
     1
 90
        1
176
     1
 90
        6
176
     1
 90
        2
176
     1
 62
     7
176
     1
 90
        3
176
     1
 90
        0
176
     1
 90
        0
176
     1
290
     0
176
     1
 90
        1
176
     1
 40
0.0
176
     1
 90
        0
176
     1
290
     0
176
     1
290
     1
176
     1
290
     1
176
     1
290
     0
176
     1
290
     0
176
     1
290
     0
176
     1
290
     0
176
     1
290
     0
176
     1
290
     0
176
     1
 90
       50
176
     1
 40
0.0
176
     1
 40
1.0
176
     1
 90
        0
176
     1
 62
    18
420
        0
176
     1
 90
       50
176
     1
 90
        3
176
     1
 62
     5
420
      255
176
     1
290
     0
176
     1
 90
       50
176
     1
 90
       50
176
     1
 90
       50
176
     1
290
     0
176
     1
 90
       50
176
     1
 62
   256
176
     0
 40
1.0
176
     0
 90
        2
176
     1
  1
strokes_ogs.tif
176
     1
290
     0
176
     1
 40
1.0
176
     1
 40
1.0
176
     1
  0
VISUALSTYLE
  5
3F
102
{ACAD_REACTORS
330
2A
102
}
330
2A
100
AcDbVisualStyle
  2
Sketchy
 70
    24
177
     3
291
     0
 70
    58
 90
        1
176
     1
 90
        2
176
     1
 90
        2
176
     1
 90
        0
176
     1
 40
0.6
176
     1
 40
30.0
176
     1
 62
     7
176
     1
 90
        2
176
     1
 90
        2
176
     1
 62
     7
176
     1
 62
     7
176
     1
 90
        1
176
     1
 90
        1
176
     1
 40
40.0
176
     1
 90
       11
176
     1
 62
     7
176
     1
 40
1.0
176
     1
 90
        1
176
     1
 90
        6
176
     1
 90
        2
176
     1
 62
     7
176
     1
 90
        6
176
     1
 90
        0
176
     1
 90
        0
176
     1
290
     0
176
     1
 90
        1
176
     1
 40
0.0
176
     1
 90
        0
176
     1
290
     0
176
     1
290
     1
176
     1
290
     1
176
     1
290
     0
176
     1
290
     0
176
     1
290
     0
176
     1
290
     0
176
     1
290
     0
176
     1
290
     0
176
     1
 90
       50
176
     1
 40
0.0
176
     1
 40
1.0
176
     1
 90
        0
176
     1
 62
    18
420
        0
176
     1
 90
       50
176
     1
 90
        3
176
     1
 62
     5
420
      255
176
     1
290
     0
176
     1
 90
       50
176
     1
 90
       50
176
     1
 90
       50
176
     1
290
     0
176
     1
 90
       50
176
     1
 62
   256
176
     0
 40
1.0
176
     0
 90
        2
176
     1
  1
strokes_ogs.tif
176
     1
290
     0
176
     1
 40
1.0
176
     1
 40
1.0
176
     1
  0
VISUALSTYLE
  5
37
102
{ACAD_REACTORS
330
2A
102
}
330
2A
100
AcDbVisualStyle
  2
Thicken
 70
    13
177
     3
291
     1
 70
    58
 90
        2
176
     1
 90
        2
176
     1
 90
        0
176
     1
 90
        0
176
     1
 40
0.6
176
     1
 40
30.0
176
     1
 62
     7
176
     1
 90
        1
176
     1
 90
        4
176
     1
 62
     7
176
     1
 62
   257
176
     1
 90
        1
176
     1
 90
        1
176
     1
 40
1.0
176
     1
 90
       12
176
     1
 62
     7
176
     1
 40
1.0
176
     1
 90
        1
176
     1
 90
        6
176
     1
 90
        2
176
     1
 62
     7
176
     1
 90
        5
176
     1
 90
        0
176
     1
 90
        0
176
     1
290
     0
176
     1
 90
        1
176
     1
 40
0.0
176
     1
 90
        0
176
     1
290
     0
176
     1
290
     1
176
     1
290
     1
176
     1
290
     0
176
     1
290
     0
176
     1
290
     0
176
     1
290
     0
176
     1
290
     0
176
     1
290
     0
176
     1
 90
       50
176
     1
 40
0.0
176
     1
 40
1.0
176
     1
 90
        0
176
     1
 62
    18
420
        0
176
     1
 90
       50
176
     1
 90
        3
176
     1
 62
     5
420
      255
176
     1
290
     0
176
     1
 90
       50
176
     1
 90
       50
176
     1
 90
       50
176
     1
290
     0
176
     1
 90
       50
176
     1
 62
   256
176
     0
 40
1.0
176
     0
 90
        2
176
     1
  1
strokes_ogs.tif
176
     1
290
     0
176
     1
 40
1.0
176
     1
 40
1.0
176
     1
  0
VISUALSTYLE
  5
30
102
{ACAD_REACTORS
330
2A
102
}
330
2A
100
AcDbVisualStyle
  2
Wireframe
 70
     5
177
     3
291
     0
 70
    58
 90
        0
176
     1
 90
        2
176
     1
 90
        0
176
     1
 90
        0
176
     1
 40
0.6
176
     1
 40
30.0
176
     1
 62
     7
176
     1
 90
        1
176
     1
 90
        4
176
     1
 62
     7
176
     1
 62
   257
176
     1
 90
        1
176
     1
 90
        1
176
     1
 40
1.0
176
     1
 90
        0
176
     1
 62
   257
176
     1
 40
1.0
176
     1
 90
        1
176
     1
 90
        6
176
     1
 90
        2
176
     1
 62
     7
176
     1
 90
        3
176
     1
 90
        0
176
     1
 90
        0
176
     1
290
     0
176
     1
 90
        1
176
     1
 40
0.0
176
     1
 90
        0
176
     1
290
     0
176
     1
290
     1
176
     1
290
     1
176
     1
290
     0
176
     1
290
     0
176
     1
290
     0
176
     1
290
     0
176
     1
290
     0
176
     1
290
     0
176
     1
 90
       50
176
     1
 40
0.0
176
     1
 40
1.0
176
     1
 90
        0
176
     1
 62
    18
420
        0
176
     1
 90
       50
176
     1
 90
        3
176
     1
 62
     5
420
      255
176
     1
290
     0
176
     1
 90
       50
176
     1
 90
       50
176
     1
 90
       50
176
     1
290
     0
176
     1
 90
       50
176
     1
 62
   256
176
     0
 40
1.0
176
     0
 90
        2
176
     1
  1
strokes_ogs.tif
176
     1
290
     0
176
     1
 40
1.0
176
     1
 40
1.0
176
     1
  0
VISUALSTYLE
  5
40
102
{ACAD_REACTORS
330
2A
102
}
330
2A
100
AcDbVisualStyle
  2
X-Ray
 70
    25
177
     3
291
     0
 70
    58
 90
        2
176
     1
 90
        2
176
     1
 90
        1
176
     1
 90
        1
176
     1
 40
0.5
176
     1
 40
30.0
176
     1
 62
     7
176
     1
 90
        1
176
     1
 90
        0
176
     1
 62
     7
176
     1
 62
   257
176
     1
 90
        1
176
     1
 90
        1
176
     1
 40
1.0
176
     1
 90
        8
176
     1
 62
     7
176
     1
 40
1.0
176
     1
 90
        1
176
     1
 90
        6
176
     1
 90
        2
176
     1
 62
     7
176
     1
 90
        3
176
     1
 90
        0
176
     1
 90
        0
176
     1
290
     0
176
     1
 90
       13
176
     1
 40
0.0
176
     1
 90
        0
176
     1
290
     0
176
     1
290
     1
176
     1
290
     1
176
     1
290
     0
176
     1
290
     0
176
     1
290
     0
176
     1
290
     0
176
     1
290
     0
176
     1
290
     0
176
     1
 90
       50
176
     1
 40
0.0
176
     1
 40
1.0
176
     1
 90
        0
176
     1
 62
    18
420
        0
176
     1
 90
       50
176
     1
 90
        3
176
     1
 62
     5
420
      255
176
     1
290
     0
176
     1
 90
       50
176
     1
 90
       50
176
     1
 90
       50
176
     1
290
     0
176
     1
 90
       50
176
     1
 62
   256
176
     0
 40
1.0
176
     0
 90
        2
176
     1
  1
strokes_ogs.tif
176
     1
290
     0
176
     1
 40
1.0
176
     1
 40
1.0
176
     1
  0
DICTIONARYVAR
  5
3F6
102
{ACAD_REACTORS
330
3DB
102
}
330
3DB
100
DictionaryVariables
280
     0
  1
1:1
  0
DICTIONARYVAR
  5
3DD
102
{ACAD_REACTORS
330
3DB
102
}
330
3DB
100
DictionaryVariables
280
     0
  1
STANDARD
  0
DICTIONARYVAR
  5
3FA
102
{ACAD_REACTORS
330
3DB
102
}
330
3DB
100
DictionaryVariables
280
     0
  1
Standard
  0
DICTIONARYVAR
  5
3E0
102
{ACAD_REACTORS
330
3DB
102
}
330
3DB
100
DictionaryVariables
280
     0
  1
2
  0
DICTIONARYVAR
  5
3E1
102
{ACAD_REACTORS
330
3DB
102
}
330
3DB
100
DictionaryVariables
280
     0
  1
1
  0
DICTIONARYVAR
  5
3E5
102
{ACAD_REACTORS
330
3DB
102
}
330
3DB
100
DictionaryVariables
280
     0
  1
1
  0
DICTIONARY
  5
3F7
330
3F2
100
AcDbDictionary
280
     1
281
     1
  3
ACAD_ROUNDTRIP_2008_TABLESTYLE_CELLSTYLEMAP
360
3F8
  0
CELLSTYLEMAP
  5
3F8
102
{ACAD_REACTORS
330
3F7
102
}
330
3F7
100
AcDbCellStyleMap
 90
        3
300
CELLSTYLE
  1
TABLEFORMAT_BEGIN
 90
        5
170
     1
 91
        0
 92
    32768
 62
   257
 93
        1
300
CONTENTFORMAT
  1
CONTENTFORMAT_BEGIN
 90
        0
 91
        0
 92
        4
 93
        0
300

 40
0.0
140
1.0
 94
        5
 62
     0
340
11
144
0.25
309
CONTENTFORMAT_END
171
     1
301
MARGIN
  1
CELLMARGIN_BEGIN
 40
0.06
 40
0.06
 40
0.06
 40
0.06
 40
0.06
 40
0.06
309
CELLMARGIN_END
 94
        6
 95
        1
302
GRIDFORMAT
  1
GRIDFORMAT_BEGIN
 90
        0
 91
        1
 62
     0
 92
       -2
340
14
 93
        0
 40
0.045
309
GRIDFORMAT_END
 95
        2
302
GRIDFORMAT
  1
GRIDFORMAT_BEGIN
 90
        0
 91
        1
 62
     0
 92
       -2
340
14
 93
        0
 40
0.045
309
GRIDFORMAT_END
 95
        4
302
GRIDFORMAT
  1
GRIDFORMAT_BEGIN
 90
        0
 91
        1
 62
     0
 92
       -2
340
14
 93
        0
 40
0.045
309
GRIDFORMAT_END
 95
        8
302
GRIDFORMAT
  1
GRIDFORMAT_BEGIN
 90
        0
 91
        1
 62
     0
 92
       -2
340
14
 93
        0
 40
0.045
309
GRIDFORMAT_END
 95
       16
302
GRIDFORMAT
  1
GRIDFORMAT_BEGIN
 90
        0
 91
        1
 62
     0
 92
       -2
340
14
 93
        0
 40
0.045
309
GRIDFORMAT_END
 95
       32
302
GRIDFORMAT
  1
GRIDFORMAT_BEGIN
 90
        0
 91
        1
 62
     0
 92
       -2
340
14
 93
        0
 40
0.045
309
GRIDFORMAT_END
309
TABLEFORMAT_END
  1
CELLSTYLE_BEGIN
 90
        1
 91
        1
300
_TITLE
309
CELLSTYLE_END
300
CELLSTYLE
  1
TABLEFORMAT_BEGIN
 90
        5
170
     1
 91
        0
 92
        0
 62
   257
 93
        1
300
CONTENTFORMAT
  1
CONTENTFORMAT_BEGIN
 90
        0
 91
        0
 92
        4
 93
        0
300

 40
0.0
140
1.0
 94
        5
 62
     0
340
11
144
0.18
309
CONTENTFORMAT_END
171
     1
301
MARGIN
  1
CELLMARGIN_BEGIN
 40
0.06
 40
0.06
 40
0.06
 40
0.06
 40
0.06
 40
0.06
309
CELLMARGIN_END
 94
        6
 95
        1
302
GRIDFORMAT
  1
GRIDFORMAT_BEGIN
 90
        0
 91
        1
 62
     0
 92
       -2
340
14
 93
        0
 40
0.045
309
GRIDFORMAT_END
 95
        2
302
GRIDFORMAT
  1
GRIDFORMAT_BEGIN
 90
        0
 91
        1
 62
     0
 92
       -2
340
14
 93
        0
 40
0.045
309
GRIDFORMAT_END
 95
        4
302
GRIDFORMAT
  1
GRIDFORMAT_BEGIN
 90
        0
 91
        1
 62
     0
 92
       -2
340
14
 93
        0
 40
0.045
309
GRIDFORMAT_END
 95
        8
302
GRIDFORMAT
  1
GRIDFORMAT_BEGIN
 90
        0
 91
        1
 62
     0
 92
       -2
340
14
 93
        0
 40
0.045
309
GRIDFORMAT_END
 95
       16
302
GRIDFORMAT
  1
GRIDFORMAT_BEGIN
 90
        0
 91
        1
 62
     0
 92
       -2
340
14
 93
        0
 40
0.045
309
GRIDFORMAT_END
 95
       32
302
GRIDFORMAT
  1
GRIDFORMAT_BEGIN
 90
        0
 91
        1
 62
     0
 92
       -2
340
14
 93
        0
 40
0.045
309
GRIDFORMAT_END
309
TABLEFORMAT_END
  1
CELLSTYLE_BEGIN
 90
        2
 91
        1
300
_HEADER
309
CELLSTYLE_END
300
CELLSTYLE
  1
TABLEFORMAT_BEGIN
 90
        5
170
     1
 91
        0
 92
        0
 62
   257
 93
        1
300
CONTENTFORMAT
  1
CONTENTFORMAT_BEGIN
 90
        0
 91
        0
 92
        4
 93
        0
300

 40
0.0
140
1.0
 94
        2
 62
     0
340
11
144
0.18
309
CONTENTFORMAT_END
171
     1
301
MARGIN
  1
CELLMARGIN_BEGIN
 40
0.06
 40
0.06
 40
0.06
 40
0.06
 40
0.06
 40
0.06
309
CELLMARGIN_END
 94
        6
 95
        1
302
GRIDFORMAT
  1
GRIDFORMAT_BEGIN
 90
        0
 91
        1
 62
     0
 92
       -2
340
14
 93
        0
 40
0.045
309
GRIDFORMAT_END
 95
        2
302
GRIDFORMAT
  1
GRIDFORMAT_BEGIN
 90
        0
 91
        1
 62
     0
 92
       -2
340
14
 93
        0
 40
0.045
309
GRIDFORMAT_END
 95
        4
302
GRIDFORMAT
  1
GRIDFORMAT_BEGIN
 90
        0
 91
        1
 62
     0
 92
       -2
340
14
 93
        0
 40
0.045
309
GRIDFORMAT_END
 95
        8
302
GRIDFORMAT
  1
GRIDFORMAT_BEGIN
 90
        0
 91
        1
 62
     0
 92
       -2
340
14
 93
        0
 40
0.045
309
GRIDFORMAT_END
 95
       16
302
GRIDFORMAT
  1
GRIDFORMAT_BEGIN
 90
        0
 91
        1
 62
     0
 92
       -2
340
14
 93
        0
 40
0.045
309
GRIDFORMAT_END
 95
       32
302
GRIDFORMAT
  1
GRIDFORMAT_BEGIN
 90
        0
 91
        1
 62
     0
 92
       -2
340
14
 93
        0
 40
0.045
309
GRIDFORMAT_END
309
TABLEFORMAT_END
  1
CELLSTYLE_BEGIN
 90
        3
 91
        2
300
_DATA
309
CELLSTYLE_END
  0
ENDSEC
  0
EOF
